<?xml version="1.0" encoding="UTF-8"?>
<svg id="Layer_1" data-name="Layer 1" xmlns="http://www.w3.org/2000/svg" viewBox="0 0 536.19 536.39">
  <defs>
    <style>
      .cls-1, .cls-2 {
        fill: #8973ff;
      }

      .cls-3 {
        fill: #5e0015;
      }

      .cls-4 {
        fill: #ffd2d4;
      }

      .cls-5 {
        fill: #cefa6d;
      }

      .cls-2, .cls-6 {
        stroke: #8973ff;
        stroke-miterlimit: 10;
        stroke-width: .5px;
      }

      .cls-6 {
        fill: none;
      }
    </style>
  </defs>
  <rect class="cls-4" width="536.19" height="536.39"/>
  <g>
    <path class="cls-5" d="M275.82,472.51h0s.09-.03.14-.05c.61-.22,1.21-.44,1.8-.68,7.95-3.06,15.55-7.29,22.73-12.58.05-.03.11-.07.15-.11,3.09-7.1,6.17-14.18,9.25-21.28,4.38-10.07,8.76-20.14,13.13-30.21,8.12-18.66,16.25-37.4,22.07-56.88h0c.61-2.05,1.19-4.09,1.75-6.15,7.67-28.26,9.85-57.58,7.95-86.82-.07-1.03-.14-2.05-.22-3.08-.11-1.53-.24-3.05-.38-4.56-2.14-24.09-6.95-48.04-13.69-71.23-1.27-4.38-2.6-8.73-4-13.06h0c-8.94-27.77-20.33-54.65-32.84-81.05-.32-.68-.64-1.36-.97-2.03t-.01-.02s-.06-.07-.1-.1c-.22-.21-.43-.44-.65-.65t-.02-.02c-1.19-1.18-2.38-2.32-3.59-3.45-4.96-4.62-10.1-8.78-15.39-12.43h-.01c-8.41-5.83-17.17-10.37-26.2-13.52-.44-.16-.88-.31-1.33-.45-.41-.14-.82-.27-1.23-.4-.12-.04-.25-.08-.37-.11-36.45,56.21-69.08,148.82-70.2,203.72-1.31,64.82,21.56,129.85,63.16,179.57,7.54,9.02,20.12,23.67,29.05,37.64Z"/>
    <path class="cls-3" d="M274.08,276.3c24.11.11,55.73-6.77,60.06-9.1,4.33-2.33-28.89-11.86-58.44-11.39-29.55.47-65.63,9.29-63.67,11.46,1.96,2.17,37.94,8.92,62.05,9.03Z"/>
    <path class="cls-2" d="M230.23,407.4c27.7,30.22,88.63,16,99.95-11.96l-16.61,45.87-27.02,47.44-56.32-81.34Z"/>
    <path class="cls-5" d="M273.16,25.17c-.34.35-.38.97-.72,1.33-.34.35-.84.55-1.17.91-.33.36-.72.67-1.05,1.03-.33.36-.77.62-1.1.98-.33.36-.61.77-.94,1.13-.33.36-.89.52-1.21.89-.32.37-.03,1.2-.3,1.62-.27.41-1.16.46-1.42.88-.27.42-.49.79-.8,1.17-.31.38-.72.6-1.06.96-.34.35-.5.91-.83,1.26-.34.36-.36,1-.66,1.39-.3.39-.38.87-.64,1.29-.26.42-1.18.46-1.43.88-.25.42-.5.78-.79,1.18-.29.4-.11,1.26-.47,1.61-.35.34-.75.64-1.1.98-.35.35-1.09.32-1.38.72-.29.4-.51.85-.79,1.25-.28.4-.09,1.13-.37,1.53-.27.41-1.17.38-1.45.79-.28.41-.09,1.13-.36,1.54-.27.41-.76.68-1.01,1.1-.27.41-.53.82-.79,1.24-.27.41-.09,1.09-.33,1.52-.25.43-.87.63-1.12,1.06-.25.43-.18,1.05-.45,1.46-.27.41-.91.57-1.21.96-.3.39-.33,1.01-.62,1.39-.3.39-.55.78-.81,1.19-.27.41-.82.65-1.09,1.05-.28.41-.14,1.09-.4,1.5-.26.42-1.19.4-1.44.83-.25.43,0,1.12-.18,1.59-.18.46-.46.9-.65,1.36-.19.46-.82.68-1.07,1.11-.25.43-.21,1.01-.48,1.43-.27.41-.34.97-.61,1.38-.27.42-.47.86-.72,1.29-.25.43-.66.78-.95,1.19-.29.4-.67.74-.94,1.15-.27.42-.66.78-.89,1.22-.23.44-.01,1.12-.24,1.55l-.69,1.32c-.23.44-.94.63-1.17,1.06-.23.44-.46.88-.69,1.32-.23.44-.21,1-.44,1.44-.23.44-.41.9-.64,1.34-.23.44-.34.92-.54,1.38-.2.45-.11,1.01-.29,1.48-.18.46-1.22.54-1.44.99-.22.45-.09,1.06-.34,1.49-.25.42-.32.98-.57,1.4-.26.43-.43.87-.65,1.31-.22.44-.6.8-.8,1.26-.2.45-.02,1.07-.22,1.52-.2.45-.87.7-1.09,1.15-.22.45-.5.88-.68,1.35-.18.46-.66.83-.83,1.29-.18.46.09,1.07-.12,1.52l-.64,1.34-.68,1.32c-.22.44-.46.88-.66,1.33-.21.45-.33.94-.51,1.4-.18.46-.81.75-1,1.21-.18.46-.29.92-.5,1.37-.21.45.04,1.15-.23,1.57-.27.42-1.06.47-1.33.89-.27.42-.38,1.01-.59,1.46-.21.45-.53.83-.74,1.28-.2.45-.35.93-.55,1.38s.26,1.21.07,1.66c-.19.46-1.04.68-1.19,1.16-.15.47.26,1.1.11,1.57-.15.47-.48.91-.68,1.36-.19.46-.86.75-1.03,1.22-.17.47.54,1.22.37,1.69-.17.46-1.16.62-1.36,1.08-.19.46.4,1.23.21,1.69-.19.46-.93.7-1.11,1.16-.18.46-.15,1.01-.33,1.47-.18.46-.62.79-.86,1.23-.23.44-.09,1.1-.33,1.54-.23.44-.77.72-.95,1.18-.18.46.19,1.11.03,1.58-.16.47-.9.74-1.06,1.21-.16.47-.48.87-.66,1.33-.18.46.31,1.2.11,1.65l-.61,1.35c-.19.46-1.09.63-1.26,1.09-.17.47.29,1.15.15,1.62-.15.47-.56.87-.71,1.34s-.28.95-.45,1.42c-.17.47-.22,1-.42,1.45-.21.45-.75.73-.95,1.18-.21.45-.12,1.03-.29,1.49-.17.47-.4.91-.53,1.39-.13.48,0,1.02-.12,1.49-.13.48-.33.97-.5,1.43-.17.47-.53.86-.67,1.34-.14.48.05,1.04-.08,1.52-.14.47-.4.93-.55,1.4-.16.47-.99.65-1.19,1.1-.2.45.24,1.22.04,1.67-.2.45-.47.85-.62,1.32-.16.47-.46.9-.56,1.39l-.27,1.46c-.1.49-.46.89-.62,1.36-.16.47-.13.99-.3,1.46-.16.47-.07,1.02-.23,1.49-.15.47-.5.87-.64,1.35-.14.47-.7.83-.84,1.3-.14.48-.03,1.02-.17,1.5-.14.48-.02,1.02-.16,1.5-.14.47-.17,1.03-.38,1.49-.21.45-.72.74-.93,1.2-.21.45-.01,1.05-.16,1.52-.14.47-.66.84-.81,1.31-.14.48-.03,1.02-.15,1.5-.13.48-.32.94-.45,1.42-.13.48-.05.98-.13,1.47-.08.49-.32.96-.4,1.45-.09.49.04,1.06-.09,1.54-.13.48-.88.78-1.02,1.26-.13.48.04,1.04-.1,1.52-.13.48-.16.98-.29,1.46-.13.48-.71.86-.82,1.34-.11.48.03,1.01-.08,1.5-.11.48-.43.91-.54,1.39-.11.48.15,1.06.05,1.54-.1.48-.45.92-.55,1.4-.1.49.16,1.05.04,1.53-.11.48-.82.77-.98,1.25-.16.47-.18.99-.34,1.46-.16.47-.29.98-.4,1.46-.12.48-.29.98-.37,1.47-.08.49.25,1.03.17,1.52-.09.49-.55.91-.65,1.39-.1.49-.31.94-.41,1.43-.1.49-.12.99-.22,1.48-.1.49.28,1.08.19,1.56-.1.49-.51.9-.63,1.38-.12.48-.39.92-.51,1.41-.12.48-.42.95-.51,1.44-.11.49-.21.95-.31,1.44-.11.48.61,1.16.5,1.64-.1.49-.23.95-.31,1.44-.08.49-.66.92-.7,1.41-.04.5-.26.98-.3,1.48-.04.5.14.99.07,1.48-.08.49.2,1.09.07,1.57-.13.48-.99.72-1.13,1.2-.14.48-.15,1.06-.23,1.56-.08.49.47,1.04.43,1.54-.05.49,0,.99-.01,1.49-.02.5-.19,1.01-.24,1.51s-.38.96-.41,1.46c-.03.5-.41.98-.44,1.47-.03.5.33,1.01.27,1.5-.05.49.15,1.01.1,1.5-.04.49.2,1.01.16,1.5-.04.49-.96.93-1.02,1.42-.07.5.44,1.07.34,1.56-.1.49-.82.81-.91,1.3-.1.5.59,1.14.56,1.63-.03.5-.12.97-.09,1.47.02.5-.3,1.03-.28,1.53.02.5-.2.97-.22,1.47-.03.5.16.99.07,1.48-.1.49.21,1.07.15,1.57-.07.5-.09.94-.09,1.43s-.68,1.09-.6,1.59c.08.49.27.97.35,1.46.08.5,0,.92,0,1.42,0,.5.71,1.03.66,1.53-.05.49-.34.96-.39,1.45-.05.5.05.99.05,1.48,0,.5-.12,1-.11,1.5,0,.5.26,1.01.26,1.5,0,.5-.78.99-.75,1.49.02.5.65.96.7,1.45.05.49.29.97.34,1.46.05.49-.38,1.04-.36,1.54.02.5.38.96.42,1.46.04.49-.17,1.02-.13,1.51.04.49-.17,1-.14,1.5.04.5.69.97.72,1.46.03.5.15.99.17,1.48s-.18.99-.14,1.48c.04.5.06.98.12,1.47l.21,1.47c.06.49.24.99.28,1.48.04.5-.27,1.02-.28,1.53,0,.5.33,1.01.32,1.51,0,.5.07.95.12,1.44.06.49.19.97.26,1.47l.17,1.48c.07.49-.21,1.03-.15,1.52.06.5.34.93.45,1.42.11.48.38.93.49,1.41.11.49.04,1.06.1,1.55.06.49.31.98.36,1.47.04.49.03.99.1,1.48.07.49-.66,1.09-.58,1.58l.27,1.47c.08.49.85.87.94,1.35.08.49.35.95.43,1.44s-.45,1.1-.36,1.58c.1.49.42.92.51,1.41.1.49.23.97.31,1.46.09.49-.15,1.03-.04,1.52.1.49.74.88.84,1.37.1.49-.11,1.03,0,1.51.1.49-.1,1-.03,1.5.07.49.66.94.72,1.43.07.49-.5,1.09-.4,1.58.1.49.9.83.99,1.32.09.49-.06,1.02.03,1.51.09.49-.33,1.09-.22,1.58.12.48.58.9.74,1.37l.49,1.41c.15.47,0,1.02.13,1.5.12.48,1.03.81,1.12,1.3l.27,1.47c.09.49.05.97.17,1.46.12.48-.09,1.06.06,1.54.15.48.73.79.88,1.27.14.48-.25,1.13-.11,1.61.15.48.43.93.61,1.4.18.46.67.8.86,1.26.18.46.11,1.03.25,1.5.15.48.59.89.7,1.37.11.48.43.93.54,1.41.11.48-.56,1.17-.41,1.65.15.48.24.95.37,1.43.12.48.56.88.72,1.35.15.47.52.88.69,1.35.17.47-.08,1.07.07,1.54.16.47.81.79.97,1.26.15.47.21.97.37,1.44.17.47.15,1.04.39,1.48.23.44.78.69,1.01,1.13.24.44,0,1.11.18,1.58.17.47.86.75,1.04,1.22.17.47.03,1.03.2,1.5.17.47.72.79.91,1.25.19.46-.01,1.08.2,1.53.21.45.1,1.06.31,1.51.21.45,1.16.56,1.35,1.02.19.46-.03,1.09.15,1.55.18.46.17,1,.36,1.47.19.46.48.88.68,1.33.21.45.26.92.4,1.4.14.48.06,1.01.2,1.49.14.48.62.92.83,1.38.21.45.8.68,1.07,1.11.27.42.33.99.6,1.41.27.42.18,1.01.39,1.47.21.45.55.82.74,1.29.19.46.78.76.97,1.21.2.45-.16,1.17.08,1.61.23.44.77.75,1.05,1.17.27.42.64.77.91,1.18.28.42.49.86.72,1.3.23.44.09,1,.28,1.47.18.46,1.15.66,1.33,1.12.18.46-.17,1.15.06,1.59.23.44.9.62,1.15,1.04.25.43.21,1.06.48,1.48.28.41.55.82.81,1.25.25.43.68.76.92,1.2s.58.82.82,1.25c.24.44.42.9.67,1.32.25.43.77.76.99,1.21.22.45.32.95.54,1.39.22.45.15,1.03.4,1.46.25.43.64.76.95,1.16.31.39.86.59,1.16.98.31.39.04,1.21.31,1.63.28.41.59.82.89,1.23.29.4,1.02.48,1.31.88.29.4.14,1.12.42,1.54.28.42.33.89.56,1.34.23.44.86.7,1.09,1.14.23.45.17,1.1.48,1.49.3.4,1.07.46,1.37.85.31.39.41.94.72,1.33.31.39.81.64,1.11,1.04.3.4.64.76.95,1.15.31.39.24,1.08.55,1.48.31.39.83.62,1.12,1.01.3.4.51.86.79,1.28.28.41.23,1.05.54,1.44.3.4.79.68,1.11,1.07.32.38.7.71,1.01,1.1l.9,1.2.95,1.16c.32.38.91.52,1.26.88.34.36.88.53,1.22.89.34.36.61.84.93,1.22.32.38.46.92.8,1.28.34.35.76.62,1.11.97.34.35.25,1.1.57,1.46.32.37.78.65,1.12,1.01l1.03,1.05c.34.36.48.85.79,1.23.31.38,1.35.22,1.64.62.28.4.15,1.09.43,1.49.28.4.91.53,1.22.92.31.39.44.91.74,1.3.3.39.15,1.11.45,1.51.29.39,1.14.37,1.44.75.3.39.06,1.2.36,1.59.3.39.69.71.99,1.09.3.39,1.04.44,1.34.83.3.39.39.94.68,1.34s.86.6,1.14,1c.29.4.46.87.75,1.27.29.4-.02,1.23.26,1.63.28.4,1.21.36,1.49.76.28.4.13,1.11.42,1.51.29.39.41.9.69,1.31.28.4,1.22.36,1.5.76.28.4.29.99.58,1.39.29.4.45.89.74,1.29.29.4.71.7,1,1.09.29.4.83.62,1.11,1.02.28.4.35.97.6,1.39.26.42.64.77.9,1.19.25.42.49.83.76,1.24.28.41.31.99.61,1.38l.88,1.18c.3.39.82.62,1.09,1.03.27.41.79.7,1.04,1.12.25.42-.16,1.22.09,1.64.25.42.85.64,1.12,1.05.27.41.62.74.94,1.12.31.38.56.82.87,1.2.31.38.38.93.64,1.35.26.41.7.71.95,1.13l.72,1.28c.25.42.15,1.06.39,1.48.25.42,1,.52,1.27.93.27.4.77.66,1.04,1.06.27.41-.06,1.18.18,1.59.23.42.97.6,1.17,1.04l.55,1.3c.16.43.06,1,.15,1.34.1.29.47.62.61.59.23-.06.46-.03.67,0l.02.08c.18.02.34.04.45-.03.28-.17.52-.23.79-.38v.04c.06,0,.11-.03.17-.06.24-.11.15-1.11.56-1.27.13-.05.71.1.54-.38-.21-.63-.82-.85-1.08-1.31-.26-.44-.29-1.06-.57-1.49-.28-.42-.58-.81-.82-1.25-.25-.44-.25-1.04-.51-1.47-.27-.42-1.01-.54-1.28-.96-.27-.42-.78-.7-1.03-1.13-.25-.43-.55-.85-.8-1.28-.25-.43-.35-.94-.6-1.37-.25-.43-.06-1.12-.32-1.54-.26-.42-.86-.62-1.13-1.04-.27-.41-.3-.99-.58-1.4-.27-.41-.31-.98-.58-1.4-.27-.42-.82-.65-1.12-1.05-.29-.4-.31-1-.61-1.4-.29-.4-1.16-.38-1.44-.79-.28-.41-.56-.83-.84-1.23-.27-.41.05-1.2-.22-1.61-.27-.41-.48-.89-.76-1.3-.28-.41-.9-.58-1.19-.98-.29-.4-.47-.88-.76-1.28-.29-.4-.43-.9-.71-1.3-.28-.4-.72-.69-1-1.1-.27-.41-1.04-.51-1.32-.91-.28-.41-.37-.93-.66-1.33-.29-.4-.07-1.16-.36-1.56l-.86-1.21c-.29-.4-.8-.64-1.09-1.04-.29-.4-.33-.9-.58-1.33-.24-.43-.87-.68-1.11-1.11-.24-.43-.14-1.12-.43-1.52-.29-.4-.69-.78-1.02-1.15-.33-.37-.87-.54-1.2-.91-.33-.37-1.08-.41-1.38-.8-.3-.39-.36-.96-.67-1.34-.32-.38-.45-.91-.77-1.29-.32-.38-.5-.86-.8-1.25-.3-.39-.81-.62-1.11-1.01-.3-.39-.9-.55-1.21-.93l-.92-1.16c-.31-.39-.3-1.04-.57-1.46-.27-.42-.46-.88-.73-1.3-.27-.42-.72-.7-1.04-1.09-.32-.38-.21-1.18-.55-1.54-.34-.36-.89-.51-1.23-.88-.34-.36-.95-.48-1.27-.86-.32-.38-.25-1.05-.54-1.46-.29-.4-.89-.61-1.18-1.01-.29-.4-.33-1-.65-1.37-.31-.37-.54-.82-.86-1.19-.31-.37-.85-.55-1.17-.93-.31-.37-.57-.8-.88-1.17-.31-.37-.71-.68-1.02-1.05l-.93-1.13c-.31-.38-.33-.99-.65-1.36-.31-.38-.77-.73-1.14-1.06-.38-.32-1.18-.11-1.53-.44-.36-.35-.11-1.26-.4-1.66-.29-.39-.57-.7-.8-1.14-.23-.44-.57-.83-.79-1.26-.23-.44-.58-.85-.87-1.24-.29-.39-.72-.69-1.07-1.04-.35-.34-.74-.65-1.09-.99-.35-.35-.82-.62-1.11-1.02-.3-.39-.03-1.11-.26-1.55-.23-.43-.41-.89-.65-1.32-.23-.43-.83-.68-1.1-1.09-.27-.41-.4-.89-.65-1.31-.25-.42-1.09-.51-1.34-.93-.25-.42-.03-1.11-.3-1.51-.27-.41-.5-.88-.81-1.26-.31-.38-.69-.69-1-1.07-.31-.38-.59-.76-.83-1.19-.25-.42-.33-.9-.55-1.35-.21-.44-1.06-.6-1.27-1.04-.21-.44-.1-1.01-.35-1.43-.25-.42-.73-.69-.99-1.1l-.75-1.26c-.26-.41-.17-1.05-.42-1.47-.25-.42-.49-.89-.8-1.28-.3-.39-.43-.93-.72-1.33-.29-.4-.56-.71-.79-1.14-.23-.43-.82-.68-.98-1.16-.14-.47-.29-.95-.43-1.42-.15-.47-.07-1.06-.3-1.49-.23-.43-.54-.87-.84-1.27l-.88-1.19c-.3-.4-.78-.64-1.01-1.08-.23-.43-.48-.88-.65-1.34-.16-.46-.44-.91-.58-1.38-.14-.48-.21-.93-.41-1.38-.21-.44-.51-.78-.79-1.19-.28-.41-.37-.96-.65-1.37-.28-.41-.41-.89-.62-1.34-.21-.44-.44-.87-.63-1.32-.19-.45-.23-.96-.43-1.41-.19-.45-1.06-.61-1.27-1.06-.22-.44,0-1.08-.15-1.55-.15-.47-.68-.82-.83-1.28-.15-.47-.13-.96-.32-1.41-.19-.45-.12-1.01-.32-1.46-.2-.45-.07-1.04-.27-1.49-.2-.45-.29-.92-.47-1.37-.19-.45-.58-.86-.8-1.3-.22-.44-.65-.76-.87-1.2-.22-.44-.53-.84-.69-1.3-.17-.46.2-1.06.09-1.54-.12-.47-.74-.84-.85-1.32-.12-.48.01-1.04-.15-1.5-.16-.46-.3-.92-.44-1.38-.14-.47-.65-.83-.8-1.3-.14-.47-.54-.84-.7-1.3-.17-.46-.09-.99-.29-1.44-.2-.45.03-1.1-.14-1.55-.18-.46-.26-.9-.4-1.37-.14-.47-.56-.85-.71-1.32-.15-.46-.67-.8-.83-1.27-.15-.47-.41-.9-.55-1.37-.14-.47.34-1.09.24-1.57-.09-.48-.48-.92-.57-1.4-.09-.48.19-1.07.05-1.53-.14-.47-.31-.98-.5-1.44-.17-.46-1.12-.58-1.29-1.04-.17-.46.28-1.16.16-1.63-.12-.47-.42-.9-.53-1.38-.1-.48-.44-.91-.55-1.39-.1-.48-.28-.92-.4-1.4-.12-.48.45-1.15.31-1.61-.14-.47-.71-.81-.85-1.28s-.1-.98-.23-1.46c-.13-.47-.33-.93-.47-1.41-.13-.47-.68-.81-.81-1.28-.14-.47-.31-.97-.41-1.45-.1-.48,0-1.02-.08-1.5s.4-1.05.31-1.53c-.08-.48-.68-.88-.78-1.36-.1-.48.17-1.02.11-1.51-.05-.49-.03-.98-.08-1.46-.05-.49.1-1.05.03-1.53-.08-.48-.71-.86-.87-1.33-.16-.47.06-1.09-.09-1.56-.16-.47-1-.73-1.08-1.22-.08-.48.32-1.05.25-1.53-.07-.49.02-.99-.05-1.48-.07-.48-.24-.96-.32-1.45-.08-.48-.36-.94-.42-1.43-.05-.49-.01-.98-.05-1.47-.03-.49.12-1.01.06-1.5-.06-.49-.03-.99-.1-1.48-.07-.48-.07-.98-.14-1.46-.07-.48-.85-.87-.91-1.36-.06-.49.22-1.02.15-1.5-.07-.49-.06-.98-.13-1.47-.07-.48-.58-.92-.65-1.4-.06-.49.55-1.04.5-1.53-.06-.49-.54-.93-.58-1.42-.04-.49.03-.99-.02-1.48-.04-.49-.35-1-.35-1.49,0-.49.44-.96.45-1.45,0-.49.12-1.01.08-1.5-.04-.49-.43-.94-.49-1.43-.06-.49.4-1.03.34-1.52-.06-.49-.78-.91-.82-1.4-.05-.49,0-.99,0-1.48,0-.49.16-.98.15-1.47,0-.49-.27-.97-.29-1.46-.02-.49.59-1,.58-1.49-.01-.49-.76-.97-.77-1.46-.01-.49.66-1,.64-1.48-.02-.49,0-1.01-.04-1.5-.05-.49-.91-.89-.96-1.38-.05-.49.52-1.03.53-1.52,0-.49-.59-1.01-.56-1.51.03-.49.13-.98.17-1.47.03-.49.83-.95.83-1.44,0-.49-.3-.99-.33-1.48-.03-.49-.23-.96-.26-1.45-.03-.49.15-.98.15-1.47,0-.49.31-.97.32-1.45.01-.49-.88-1.01-.85-1.5.03-.49.33-.96.36-1.45.03-.49.58-.94.62-1.43.04-.49.15-.96.19-1.45.04-.48.06-.99.08-1.47.03-.49-.55-.99-.57-1.48l-.02-1.47c-.02-.49-.34-1.02-.32-1.51.03-.49.57-.94.65-1.42l.19-1.46c.08-.48-.2-1-.15-1.49.05-.49.3-.94.34-1.43.04-.49.39-.96.43-1.44.04-.49-.09-.99-.04-1.48.05-.49.43-.97.44-1.46.01-.49-.38-.99-.36-1.48.04-.49.2-.97.28-1.46.08-.49.15-.97.28-1.45.12-.48.54-.87.66-1.34.12-.48-.18-1.06-.1-1.54.08-.48.28-.95.35-1.43.07-.48.04-.99.11-1.47.07-.48.06-.98.14-1.47.08-.48.3-.94.39-1.43.08-.48.02-1,.12-1.48.11-.48.52-.89.62-1.37.1-.48-.34-1.03-.27-1.52.07-.49.41-.94.48-1.42.07-.49.41-.93.51-1.41.1-.48.04-.99.13-1.47l.28-1.45c.09-.48-.13-1.03-.03-1.51.1-.48.73-.86.81-1.34.09-.48-.09-1.01,0-1.49.1-.48.12-.98.23-1.46.11-.48.61-.86.73-1.33.13-.47-.36-1.12-.24-1.59.13-.47.21-.94.32-1.42.11-.48,1.03-.77,1.14-1.25.11-.48.16-.97.26-1.45.11-.48.39-.91.5-1.39.11-.48-.58-1.13-.49-1.62.09-.48.08-.98.18-1.47.11-.48.32-.97.45-1.44.13-.48.38-.93.53-1.4.14-.47.69-.82.83-1.29.14-.47.4-.92.53-1.39.13-.48.06-1,.22-1.46.15-.47.13-1,.28-1.47.15-.47.71-.81.84-1.29.13-.48.06-1.02.15-1.51.09-.48-.15-1.03-.04-1.5.11-.48.04-1.03.18-1.5.15-.47.31-.95.46-1.42.15-.47.52-.87.67-1.33.15-.47.51-.87.65-1.34.14-.47.67-.74.87-1.19.21-.45.25-.99.45-1.43.21-.45.43-.95.57-1.42.14-.47.09-1.01.19-1.5.1-.48.54-.9.64-1.38.09-.48.15-.93.3-1.39.15-.47.33-.89.52-1.34.19-.45-.32-1.21-.13-1.67.19-.46.89-.7,1.04-1.17.15-.47.38-.91.53-1.38.15-.47-.2-1.1-.05-1.56.15-.47.91-.73,1.06-1.2.16-.47.16-1.02.27-1.51.1-.48-.29-1.05-.19-1.53.11-.48.21-1.01.37-1.48.15-.47.86-.76,1.01-1.23.15-.47.22-.96.36-1.43.15-.47.06-1.01.22-1.47.17-.46.62-.79.84-1.24.21-.44.48-.86.69-1.3.21-.44.28-.99.45-1.45.17-.46.35-.91.53-1.37l.5-1.38c.19-.46.31-.93.48-1.39.17-.46.1-1,.26-1.47.15-.47.25-.95.42-1.41.17-.46.2-.99.37-1.44.18-.46.76-.77.91-1.25.15-.47.73-.82.88-1.29.15-.47-.25-1.12-.07-1.58s.6-.83.78-1.29c.18-.46-.07-1.09.11-1.55.18-.46.81-.75.99-1.21.18-.46.61-.79.82-1.24l.58-1.37c.21-.45-.05-1.12.14-1.58.19-.46.52-.86.66-1.34.15-.47.41-.92.55-1.39.15-.47-.07-1.08.13-1.54.19-.46.52-.91.78-1.34.26-.43.98-.54,1.24-.96.26-.43-.15-1.21.04-1.67.2-.45.4-.92.6-1.37.2-.45.77-.74.97-1.19.2-.45.09-1.04.29-1.5.2-.46,1.11-.66,1.27-1.13.16-.47.25-.96.41-1.42.16-.47.19-.94.39-1.4s.06-1.07.28-1.51c.22-.44.27-.98.49-1.42.22-.45.81-.7,1.01-1.16.2-.45.52-.89.68-1.36.16-.47-.2-1.1-.04-1.57.16-.47.46-.93.67-1.38.21-.45.87-.69,1.08-1.13.22-.44-.14-1.17.08-1.61.22-.44.69-.77.91-1.21.22-.45.26-1.01.51-1.44.25-.43.96-.57,1.21-1,.25-.43.16-1.05.37-1.5.22-.45.44-.88.61-1.35.17-.47.71-.81.88-1.28.17-.47.29-.92.51-1.36.22-.45-.08-1.23.19-1.65.27-.42,1.21-.34,1.5-.74.28-.41.12-1.12.35-1.56.23-.44.49-.86.68-1.32.18-.46.64-.83.83-1.29.18-.46-.07-1.11.16-1.55.23-.44,1-.54,1.28-.96.27-.41.39-.94.66-1.36.27-.41.18-1.05.41-1.49.23-.44,1-.62,1.21-1.07.21-.45-.37-1.25-.15-1.69.22-.44.54-.87.78-1.3.24-.43.77-.7,1.01-1.14.24-.44.8-.7,1.04-1.13s.4-.9.64-1.33c.24-.43.44-.9.67-1.33l.71-1.31c.23-.44.21-1.02.45-1.45.24-.44.96-.62,1.21-1.07.24-.44,0-1.15.28-1.59.26-.43.19-1.06.45-1.5.26-.43.96-.62,1.21-1.07.24-.44.11-1.08.35-1.53.24-.45.71-.78.97-1.23.26-.44.76-.73,1.02-1.17.26-.43-.02-1.19.24-1.63.26-.44.9-.65,1.16-1.1.26-.44.39-1,.7-1.41.3-.41.47-.94.79-1.34.32-.41.6-.76.87-1.19.27-.43,1.04-.59,1.27-1.04.24-.45.26-1.01.49-1.46.24-.45.46-.92.74-1.35.28-.43.35-.99.62-1.42.28-.43.67-.79.94-1.21.28-.43.49-.91.77-1.33.29-.43,1.13-.41,1.47-.79.34-.39.48-.96.81-1.34.35-.39.49-.93.78-1.34.25-.37.73-.61.95-1.01.22-.39.52-.74.74-1.12.22-.39.09-.98.35-1.34.26-.36.4-.82.66-1.18.27-.36,1.17-.25,1.44-.6.27-.35-.03-1.13.23-1.49.27-.36.84-.49,1.12-.84.28-.35.46-.77.75-1.12.28-.35.43-.8.7-1.15.28-.35.96-.43,1.22-.79.26-.36.01-1.06.27-1.42.26-.36.85-.5,1.13-.85.15-.19.3-.3.25-.39-.05-.1-.41-.19-.63.04Z"/>
    <path class="cls-5" d="M273.6,25.69c.2.42.75.68.96,1.1.2.42.19.95.39,1.37.2.42.34.88.54,1.31.2.42.26.91.46,1.34.2.42.45.83.65,1.25.2.43.11.99.31,1.41.2.43,1.07.47,1.33.88.26.4-.08,1.2.18,1.6.26.4.49.74.7,1.17.2.43.22.87.38,1.32.16.44.59.8.75,1.24.16.44.72.73.92,1.15.2.43.59.7.84,1.1.25.4-.14,1.22.11,1.62.25.4.45.77.65,1.19.2.43,1.04.65,1.17,1.11.13.46.19.93.32,1.38.13.46-.25,1.08-.05,1.5.2.43.47.82.68,1.24.21.42.92.59,1.13,1.01.21.42-.26,1.17-.06,1.59.2.43.91.6,1.13,1.02.21.42.18.96.4,1.38.21.42.41.84.61,1.27.2.43.86.6,1.09,1.02.23.41.07,1.04.29,1.46.23.41.78.67.98,1.09.2.43-.01,1.04.15,1.48.17.44.67.77.83,1.21.17.44.36.84.56,1.26.2.43.1.99.29,1.42.19.43.81.68,1,1.11.19.43-.35,1.19-.14,1.61.21.43.91.58,1.19.98.27.39.46.85.73,1.24.27.4.08,1.02.29,1.45.21.43.7.7.88,1.15.18.44.59.79.77,1.23.18.44.42.84.63,1.26.21.43.25.94.41,1.39.16.45.19.94.35,1.39.16.45.22.96.42,1.39.21.43.87.63,1.07,1.06l.62,1.28c.21.43-.08,1.09.13,1.52l.16.34.52.68c-.38-.3-.69-.92-.71-1.41l.21.76.44.92c.21.42.65.72.86,1.15.21.43.45.83.65,1.26.2.43.52.79.75,1.21.23.41.73.67.97,1.08.23.41-.36,1.26-.16,1.69.2.43.75.69.91,1.14.16.45.54.82.7,1.27.16.45.39.84.58,1.27.2.43.23.93.44,1.36.21.42.8.65,1.01,1.08s-.03,1.08.17,1.51c.2.43.34.91.58,1.32.24.41.2.99.43,1.4.23.41.85.59,1.05,1.03l.55,1.31.51,1.33c.18.44.34.89.53,1.32.19.43.47.83.68,1.26.21.42,0,1.07.21,1.49.21.42.47.8.66,1.23.19.44.86.7.99,1.17.12.46-.38,1.06-.26,1.52.12.46.48.92.66,1.36.19.44.23.92.4,1.36.17.44.41.86.58,1.3.17.44,1.03.61,1.21,1.04.18.44-.25,1.18-.02,1.6.23.42.96.54,1.18.96.22.42.29.94.47,1.38.18.44-.09,1.1.12,1.52.2.43,1.24.45,1.44.88.2.43-.39,1.22-.22,1.66.18.44,1.14.55,1.32.99.18.44-.2,1.11-.02,1.55.18.44.57.79.75,1.23.18.44.07.97.19,1.43.12.46.66.83.78,1.29.12.46-.09,1.01.08,1.45s.89.65,1.08,1.08c.19.43-.18,1.12.01,1.55.19.44.22.92.39,1.37.17.44,1.02.64,1.18,1.09l.44,1.35c.15.45-.43,1.16-.26,1.6.17.44.95.64,1.14,1.07.19.44.12.99.31,1.42.19.44.39.87.55,1.31.16.45.46.87.58,1.33.12.46-.12,1,0,1.46.12.46.55.83.72,1.27.16.45.26.91.46,1.34.19.43.64.74.83,1.18.19.43.35.92.5,1.37.16.45.1.97.27,1.41.18.44.67.75.83,1.19.17.44.23.94.39,1.39.15.45-.41,1.08-.3,1.54.11.46.91.78,1.02,1.24.11.46.13.92.27,1.37.15.45.15.96.36,1.39l.64,1.28c.2.43.14.95.29,1.4.04.12.09.23.14.34l-.08-.41h0s.08.42.08.42c.15.31.35.61.44.95.13.46.5.84.62,1.3.13.46.06.97.2,1.42.14.45-.13,1.04,0,1.49.14.45.53.82.67,1.27.14.45.54.82.68,1.27.14.45.42.91.49,1.39.07.47-.19.98-.12,1.44.07.47.56.84.7,1.29.14.45-.1,1.01.04,1.47.13.45.52.83.65,1.29.13.45.2.93.33,1.38.13.46.45.82.62,1.26.17.44.2.94.37,1.39.17.44.56.85.69,1.31.12.46-.37,1.08-.26,1.53.12.46.54.84.65,1.3.11.46.33.89.45,1.35.12.46-.2,1.05-.06,1.5.14.45.51.83.65,1.28.14.45.03.96.15,1.42.11.46.61.82.74,1.28.13.46.01.98.13,1.44.12.46.6.82.71,1.28.11.46-.4,1.02-.33,1.49.06.47.28.92.33,1.39.06.47.16.96.27,1.42.1.46.16.96.3,1.42.14.45.67.78.8,1.23.13.46-.14,1.01-.04,1.47.1.46.08.94.17,1.41.09.46.27.91.37,1.37.09.46.67.83.76,1.3.09.46-.14.99-.07,1.46.07.47-.01.96.06,1.42.07.47-.03.99.05,1.45.08.47.16.92.23,1.38.07.47.99.81,1.07,1.28.08.47.09.93.17,1.4.08.47-.34,1.04-.21,1.5.12.46.07.97.19,1.42.12.46.45.84.53,1.31.08.47.53.92.54,1.4.02.47-.72.95-.71,1.42.02.48.19,1,.26,1.47.07.47.76.81.87,1.27.11.46.28.91.39,1.37.11.46.07.98.14,1.45.07.47-.14.98-.05,1.45.09.46-.17,1-.08,1.46.09.46.56.85.62,1.32.07.47.37.9.44,1.37.07.47.42.89.49,1.36.07.47-.73,1.06-.67,1.53.06.47.62.91.6,1.39-.02.48-.68.9-.7,1.38-.02.48.76.96.81,1.43.05.47.04.92.13,1.39.09.46-.15,1.01-.06,1.47.09.47-.06.94-.01,1.41.04.47.31.91.28,1.38-.03.47.34.99.31,1.46-.03.48-.02.9.02,1.37.04.47-.59,1.09-.47,1.56.11.46.33.89.45,1.36.11.47.06.87.1,1.34.03.47.77.94.75,1.42-.02.47-.29.93-.31,1.4-.02.47.1.93.12,1.41.03.47-.05.96-.05,1.43,0,.47.26.95.25,1.43,0,.47-.78.95-.76,1.42.02.47.65.91.69,1.38.04.47.29.92.33,1.39.04.47-.4.99-.39,1.46,0,.47.36.92.39,1.4.03.47-.19.96-.16,1.44.03.47-.18.95-.18,1.42,0,.47.61.96.6,1.43-.01.47.07.95.05,1.42-.01.47-.26.93-.26,1.4,0,.47-.02.94-.01,1.41l.07,1.42c.01.47.14.96.13,1.43,0,.48-.37.94-.43,1.41-.05.47.22.99.15,1.46-.06.47-.08.9-.1,1.37-.02.47.03.94.02,1.42l-.07,1.42c0,.47-.39.93-.41,1.4-.03.47.17.92.19,1.4.02.47.21.93.23,1.41.02.48-.15,1-.18,1.47-.03.47.11.97.06,1.44-.05.47-.18.93-.23,1.4-.05.47-.9.86-.94,1.33l-.09,1.41c-.04.47.61,1,.56,1.47-.04.47.09.96.05,1.43-.05.47-.72.89-.75,1.36-.03.47.17.96.13,1.43-.04.47-.05.95-.11,1.42-.06.47-.41.9-.48,1.37-.06.47.42,1.02.36,1.49-.06.47-.42.89-.49,1.36-.07.47-.43.87-.53,1.33-.1.46.3,1.05.2,1.51-.1.46-.84.8-.9,1.27-.06.47.56,1.05.47,1.52-.09.46-.42.88-.51,1.35-.09.46-.69.84-.76,1.31-.08.47.18,1,.13,1.47l-.13,1.41c-.06.47-.42.87-.51,1.34-.09.46.6,1.11.48,1.57l-.37,1.37c-.13.46-.38.85-.48,1.31-.1.46-.54.86-.61,1.33-.07.47.31,1,.24,1.47-.07.47-.74.83-.84,1.29-.11.46-.09.97-.16,1.43-.07.47.19.98.12,1.44-.07.47-.41.89-.52,1.35-.11.46.08,1.02-.08,1.47-.15.45-.11.97-.26,1.42-.15.45-1.08.65-1.19,1.11-.12.46-.28.88-.41,1.33-.13.45.02,1-.13,1.45-.15.45-.08.96-.2,1.42-.13.45-.68.78-.82,1.23-.14.45.21,1.06.07,1.51-.14.45-.39.86-.51,1.32v.05s.37-.71.37-.71h0s-.23.26-.23.26l-.16.46c-.15.43-.46.84-.53,1.29-.07.47.22.98.16,1.45-.07.48-.64.84-.78,1.3-.14.45.25,1.09.09,1.54-.16.45-.62.78-.79,1.22-.16.45.06,1.02-.08,1.47-.15.45-.7.78-.82,1.24-.12.46-.59.83-.71,1.29-.12.46.53,1.14.38,1.59-.15.45-.72.76-.87,1.21-.15.45-.5.83-.66,1.28-.15.45-.19.94-.34,1.39-.15.45-.43.81-.65,1.24-.22.42-.64.74-.86,1.16-.22.43-.17,1.05-.32,1.5-.15.45.12,1,.03,1.47-.09.47-.42.9-.52,1.37-.09.47-.55.82-.7,1.27-.15.45-.16.94-.33,1.38-.17.44.06,1.05-.11,1.5-.17.44-.95.67-1.1,1.12-.15.45,0,1.03-.1,1.5-.1.47-.1.95-.2,1.42-.1.47-.27.91-.42,1.36-.15.46-.64.73-.85,1.17-.2.43.34,1.24.14,1.68-.2.44-.93.64-1.08,1.09-.15.46.2,1.04.08,1.51-.12.46-.63.83-.75,1.3-.12.46-.23.92-.37,1.37-.14.46-.1.97-.26,1.42-.16.45-.21.94-.36,1.39-.15.45-.37.88-.51,1.33-.14.46-.03,1.04-.21,1.49-.17.44-.46.84-.63,1.29-.17.45-.64.77-.78,1.23-.13.46-.13.95-.22,1.42-.09.47.12.99.03,1.46-.09.47-.89.79-1.02,1.25-.13.46-.23.95-.33,1.42-.1.47.32,1.05.22,1.51-.1.47-.74.81-.86,1.27-.13.46-.45.78-.64,1.22-.18.43.04,1.05-.14,1.48-.19.44-.7.77-.83,1.22-.13.45.3,1.06.18,1.51-.12.45-.47.84-.61,1.29-.14.45-.05.97-.2,1.41-.15.45-.25.9-.39,1.35-.14.45-.74.76-.88,1.2-.14.45-.03.98-.18,1.43-.16.44-.39.86-.59,1.28-.19.43-.73.7-.92,1.13-.19.43-.19.96-.36,1.4s-.27.9-.44,1.34l-.58,1.28c-.18.43-.35.88-.54,1.31-.19.43-.02,1-.18,1.44-.16.44-.06.98-.22,1.42-.16.45-.45.87-.64,1.31-.19.44-.59.77-.75,1.22-.16.44-.2.93-.38,1.37-.17.44-.88.65-1.08,1.08-.2.43-.26.95-.43,1.39l-.48,1.33c-.17.44-.55.76-.75,1.19-.2.43.4,1.28.16,1.69-.24.41-.9.57-1.14.98-.24.41-.07,1.02-.28,1.44-.21.42-.62.76-.83,1.18-.22.42-.93.58-1.14,1-.22.42.19,1.16-.03,1.58-.22.42-1.05.53-1.26.95-.21.42-.33.89-.55,1.31-.21.42.07,1.1-.15,1.52-.22.42-.66.72-.89,1.14-.23.42-.15,1-.39,1.41-.23.41-.58.75-.81,1.17-.23.42-1.1.47-1.34.88-.23.41.21,1.21-.03,1.62-.23.41-.93.56-1.16.98-.22.42-.63.72-.86,1.13s.21,1.22-.03,1.63c-.24.41-.76.65-.99,1.07-.23.41-.61.75-.83,1.17-.23.42-.3.91-.53,1.33-.23.41-.2.98-.43,1.39-.24.41-.72.69-.98,1.09-.26.4-.41.87-.67,1.27-.26.4-.52.77-.76,1.18-.23.41-.74.68-.96,1.1l-.67,1.26c-.21.42-.19.98-.43,1.39-.24.41-.27.98-.53,1.38-.26.4-1.15.36-1.41.76-.26.4-.19,1.01-.43,1.42-.24.41-.37.86-.56,1.31-.19.44-.47.84-.66,1.28-.19.44-.65.73-.89,1.14-.24.41-.29.93-.54,1.34l-.78,1.2c-.25.4-.86.61-1.1,1.02-.24.42.04,1.12-.18,1.55-.21.43-.18.97-.4,1.4-.22.42-1.02.56-1.25.98-.23.43.02,1.14-.25,1.54-.26.41-.5.81-.75,1.24-.25.43-.78.68-1,1.13-.18.37-.2.94-.07.99.41.17.6.64.87.69.37.06.62.21.99.27.27.05.85-.6,1.26-.41.13.06.47.48.63.15.19-.4.01-.97.17-1.4.16-.42.62-.76.8-1.18.19-.43.34-.86.56-1.27.22-.41.69-.7.92-1.11.22-.42-.06-1.09.16-1.51.22-.42.2-.98.44-1.39.23-.41.46-.86.71-1.26.25-.4.65-.71.9-1.11.25-.4.94-.53,1.18-.94.24-.41.14-1.01.38-1.42.24-.41.73-.68.96-1.09.24-.41.72-.68.96-1.09.24-.41.2-.99.42-1.41.22-.42.75-.68.97-1.1.22-.42-.19-1.18.05-1.59.24-.41.47-.84.72-1.24.25-.4,1.09-.44,1.34-.84.25-.4.58-.77.82-1.19.24-.41.12-1.03.34-1.45.23-.42.58-.77.81-1.19.23-.42.62-.73.85-1.15.24-.41.3-.91.55-1.32.25-.41-.01-1.13.24-1.54.25-.41.66-.7.9-1.11.23-.41,1-.53,1.24-.94l.71-1.24c.23-.42.23-.96.46-1.38.23-.42.65-.65.94-1.04.28-.39.23-1.04.51-1.43.28-.39.94-.57,1.17-.99.23-.42.4-.92.59-1.36.19-.44.11-.98.29-1.42.18-.44-.11-1.12.11-1.55.22-.42.69-.7.9-1.14.2-.43.62-.76.83-1.2.2-.43.55-.78.78-1.2.22-.42.2-.97.41-1.39.21-.43.08-1.03.29-1.45l.64-1.28c.21-.43.8-.68,1.06-1.08.26-.4.59-.76.84-1.16.26-.4.31-.92.52-1.35.2-.43.95-.66,1.13-1.11.17-.45.07-.99.24-1.44.17-.45.03-1.02.23-1.46.2-.43.84-.63,1.08-1.05.24-.41.16-1.02.38-1.45.23-.42.73-.72.92-1.16.19-.44.47-.84.66-1.28.19-.44.1-1,.29-1.44.19-.44.45-.85.64-1.29.2-.44.26-.93.44-1.37l.53-1.34c.18-.45.7-.76.87-1.21.18-.45.26-1.01.37-1.49.1-.47-.52-1.05-.42-1.52.11-.47.99-.75,1.14-1.2.16-.46.26-.85.49-1.28.23-.43.36-.92.59-1.35.23-.43.37-.94.53-1.4.16-.46.16-.97.24-1.45.09-.47.07-.97.14-1.45.06-.48,0-1.01.13-1.47.13-.46.87-.69,1.04-1.15.18-.45.41-.88.58-1.33.18-.45-.02-1.07.11-1.53.12-.46.39-.86.54-1.3.15-.45-.35-1.12-.2-1.57.15-.45.8-.72.93-1.17.13-.46.33-.91.41-1.38.08-.46.07-.94.15-1.41.08-.47.21-.91.34-1.36.13-.45.42-.83.6-1.27.18-.44-.29-1.16-.11-1.6.18-.44.67-.73.81-1.18.14-.45,0-.97.13-1.43.12-.46.29-.9.42-1.36.13-.46.66-.8.8-1.25.14-.45.33-.93.4-1.4.08-.47.42-.91.49-1.37.08-.47.11-.87.25-1.32.15-.45-.09-1.04.14-1.47.23-.41.47-.84.7-1.25.23-.42.7-.76.85-1.21.15-.45.24-.97.32-1.44l.24-1.41c.08-.47-.09-.98.06-1.43.15-.45.29-.92.51-1.35.22-.42.3-.93.52-1.35.22-.43.48-.79.63-1.24.15-.45.16-.89.23-1.37.08-.47.38-.92.46-1.39.08-.48.31-.9.46-1.35.15-.45.27-.91.44-1.35.17-.45.48-.83.65-1.28.16-.45-.36-1.13-.21-1.59.15-.45.72-.77.9-1.21.18-.44,0-1.04.19-1.48.18-.44.51-.79.66-1.24.15-.45.55-.82.69-1.28.14-.46.61-.82.74-1.28.13-.46.37-.87.51-1.32.15-.45.1-1,.21-1.47.11-.46-.02-.98.08-1.44.11-.47.12-.95.26-1.41.14-.46.79-.69.98-1.13.18-.44-.09-1.1.09-1.54.19-.44.62-.8.76-1.26l.09-.28-.42.76h0s.26-.3.26-.3l.16-.47c.12-.35.23-.7.35-1.06.15-.45-.05-1.04.1-1.49.15-.45.04-.97.17-1.43.13-.46.5-.84.59-1.31.09-.47.68-.86.76-1.33.08-.47.25-.89.37-1.35.12-.46-.03-1,.08-1.47.11-.47-.16-1.02-.05-1.48.11-.46.12-.96.22-1.43.11-.47.83-.75.99-1.2.16-.45.05-1.01.21-1.47.16-.45.7-.82.81-1.28.11-.47.21-.99.26-1.47.05-.48-.75-1.03-.69-1.5.05-.48.76-.88.86-1.35.1-.47.02-.98.13-1.44.12-.46-.02-.99.1-1.46.11-.47.13-.93.22-1.4.09-.47.89-.83.96-1.3.07-.47-.31-1.01-.23-1.48.06-.47.3-.92.38-1.39.08-.47.05-.97.09-1.45.04-.48-.34-.98-.3-1.46.04-.48.06-.99.13-1.46.07-.47.34-.93.43-1.4.09-.47.73-.83.82-1.3.09-.47-.34-1.03-.28-1.51.06-.48.51-.88.61-1.35.1-.47.29-.91.39-1.38.11-.47.44-.94.5-1.42.06-.48-.44-1.01-.46-1.5-.02-.48.36-1.01.33-1.49-.03-.49-.78-.96-.73-1.44.05-.47.58-.9.64-1.37.06-.47.27-.93.33-1.41.06-.48.01-.97.05-1.44.04-.48-.13-.97-.06-1.45.07-.47.23-.93.3-1.41.07-.47.32-.94.36-1.42.04-.48.15-.96.18-1.43.02-.48.11-.95.13-1.43.02-.48-.68-.99-.65-1.47.03-.48.4-.94.42-1.42.01-.48.1-.95.11-1.43,0-.48-.43-.97-.41-1.45.02-.48.71-.93.73-1.41.02-.48-.42-.97-.4-1.45.01-.48.12-.95.13-1.43,0-.48-.25-1-.19-1.48.06-.47.54-.89.59-1.36.05-.48.23-.97.22-1.45,0-.48-.35-.96-.37-1.43-.02-.48.48-.98.47-1.46-.02-.48-.7-.94-.71-1.41,0-.48.07-.96.07-1.44,0-.48.18-.95.18-1.43,0-.48-.24-.95-.25-1.43,0-.48.61-.96.61-1.44,0-.48-.74-.95-.76-1.43,0-.48.67-.97.65-1.45-.02-.48.01-.99-.04-1.47-.05-.48-.9-.85-.95-1.33-.04-.48.53-1.02.5-1.49-.03-.48-.65-.97-.64-1.44,0-.48.08-.95.09-1.43,0-.48.78-.97.75-1.45-.03-.48-.36-.95-.42-1.42-.06-.47-.3-.92-.36-1.4-.06-.47.07-.97.04-1.44-.04-.48.23-.97.2-1.45-.03-.48-.95-.9-.98-1.38-.03-.48.2-.97.15-1.44-.05-.48.44-.98.41-1.46-.03-.48.01-.96-.02-1.44-.03-.48-.09-.97-.14-1.45-.05-.48-.7-.87-.8-1.34l-.26-1.41c-.09-.47-.5-.92-.55-1.39-.06-.47.35-1,.32-1.48l-.15-1.43c-.03-.48-.42-.91-.48-1.38-.06-.47.07-.96-.01-1.43-.08-.47.15-1,.07-1.47-.08-.47-.33-.91-.39-1.39-.06-.47.17-1.03.06-1.5-.11-.47-.61-.83-.72-1.29-.11-.47-.09-.96-.16-1.43-.07-.47-.15-.95-.18-1.43-.03-.48.24-.96.21-1.44-.03-.48-.5-.93-.57-1.4-.08-.47-.03-.96-.12-1.43-.09-.47-.28-.92-.37-1.39-.09-.47-.25-.92-.34-1.39-.08-.47-.01-.97-.09-1.44-.08-.47-.34-.91-.42-1.38-.08-.47.15-.99.06-1.46-.09-.47-.7-.81-.81-1.27-.11-.46.02-.99-.09-1.45-.12-.46.02-.99-.07-1.46-.09-.47-.33-.9-.44-1.37l-.3-1.4c-.11-.46-.52-.87-.62-1.33-.1-.47.33-1.06.22-1.52-.11-.46-.51-.85-.63-1.31-.12-.46-.32-.91-.42-1.37-.1-.46.17-1.01.08-1.48-.09-.47-.81-.82-.91-1.28-.1-.47-.23-.91-.34-1.37-.11-.46.58-1.12.47-1.59-.12-.46-.29-.91-.41-1.37-.12-.46-.07-.96-.18-1.42-.12-.46-1.03-.71-1.16-1.16-.14-.46-.4-.87-.54-1.33-.14-.45-.19-.96-.31-1.42-.12-.46-.12-.96-.23-1.43-.11-.46.2-1.02.09-1.49-.11-.46-.11-.96-.24-1.42-.13-.46-.44-.86-.54-1.33-.1-.47-.39-.9-.49-1.36-.1-.47.2-1.04.07-1.5-.13-.46-.47-.88-.63-1.33-.17-.45-.64-.77-.81-1.22-.16-.45-.52-.86-.66-1.32-.13-.46-.26-.93-.39-1.39-.13-.46-.04-.97-.17-1.43-.13-.46-.05-.98-.19-1.43-.14-.46.15-.96.08-1.43-.07-.47-.34-.93-.41-1.4-.07-.48-.17-1-.31-1.45-.14-.46-.48-.86-.67-1.3-.18-.44-.05-1.03-.23-1.47-.18-.44-.4-.82-.54-1.27-.02-.06-.04-.12-.05-.18l.1.49h0s-.01-.23-.01-.23l-.08-.27c-.12-.39-.21-.76-.31-1.16-.12-.46-.97-.76-1.08-1.22-.12-.46.3-1.06.15-1.52-.15-.45-.23-.93-.38-1.38-.16-.45-.81-.73-.97-1.18s.29-1.1.14-1.55c-.15-.45-.48-.88-.68-1.32-.2-.43-.85-.63-1.06-1.06-.21-.43-.44-.9-.6-1.35-.16-.45.21-1.1.03-1.54-.18-.44-.43-.85-.61-1.29-.18-.44-.58-.79-.75-1.23-.16-.45-.02-.98-.13-1.44-.12-.46-.17-.94-.29-1.4-.12-.46-.4-.91-.57-1.36-.15-.45-.31-.89-.46-1.35l-.5-1.34c-.15-.45-.35-.89-.52-1.33-.17-.45-.56-.8-.74-1.24-.17-.44-.43-.85-.61-1.29-.18-.44-.51-.83-.68-1.27-.17-.45.05-1.05-.15-1.49-.2-.44,0-1.07-.21-1.51-.2-.44-.94-.62-1.11-1.07-.18-.45-.11-.99-.29-1.43s-.78-.72-.96-1.17c-.18-.45.09-1.07-.09-1.52-.18-.45-.09-.96-.24-1.42l-.5-1.35c-.15-.46-.81-.74-.99-1.18-.18-.45-.23-.95-.46-1.37-.23-.42-.36-.91-.58-1.33-.23-.43-.81-.69-.99-1.13-.19-.44-.27-.98-.39-1.45-.12-.47.32-1.05.19-1.52-.12-.47-.96-.71-1.15-1.15-.18-.44-.37-.9-.55-1.34-.18-.44.02-1.04-.16-1.49-.18-.45-.67-.76-.86-1.2-.19-.44.27-1.23.04-1.65-.23-.42-.53-.81-.76-1.23-.23-.42-.56-.75-.75-1.19-.19-.44-.74-.73-.92-1.18-.18-.45-.54-.82-.72-1.27-.18-.45.03-1.04-.17-1.48-.2-.44-.31-.95-.54-1.37-.24-.42-.94-.55-1.18-.96-.24-.42-.37-.93-.57-1.37-.2-.44.07-1.08-.12-1.52-.2-.44-.97-.62-1.17-1.05-.2-.44-.14-.99-.34-1.42-.2-.44-.61-.81-.77-1.27-.16-.45.18-1.08.02-1.53-.17-.45-.7-.76-.9-1.2-.2-.44-.39-.86-.64-1.28-.25-.41-.17-1.03-.42-1.45-.25-.41-.51-.77-.72-1.21-.2-.44-.99-.68-1.14-1.14-.15-.46.5-1.14.35-1.6-.15-.46-.81-.75-1.02-1.19-.21-.44-.37-.88-.63-1.29-.25-.41-.27-.99-.52-1.4-.21-.34-.69-.52-.98-.81l.12.45c-.02-.3-.21-.67-.44-.86l.31.4c-.06-.06-.1-.12-.14-.19-.21-.43.18-1.1.02-1.56-.16-.45-.51-.85-.67-1.3-.16-.45-.71-.74-.92-1.17-.21-.43.11-1.15-.12-1.57-.23-.42-1.2-.41-1.43-.83-.23-.42-.4-.91-.61-1.34s-.13-1-.35-1.43c-.22-.43-.11-1.03-.33-1.45s-.51-.81-.72-1.24c-.21-.43-.48-.84-.71-1.26l-.66-1.28c-.22-.42-.71-.71-.92-1.14-.22-.43.04-1.12-.19-1.57-.22-.43-.92-.62-1.15-1.06-.23-.43-.79-.69-1.02-1.14-.22-.43,0-1.11-.25-1.54-.24-.42-.84-.63-1.09-1.06-.25-.42-.28-.99-.51-1.43-.23-.43-.21-1-.44-1.44-.23-.43-1.01-.57-1.24-1-.23-.44-.07-1.08-.31-1.52-.23-.44-.63-.82-.81-1.28-.19-.46-.56-.85-.74-1.31-.19-.46-.34-.87-.57-1.3-.24-.44.01-1.16-.26-1.58-.27-.41-.75-.68-1.01-1.1-.27-.42-.57-.82-.81-1.25-.24-.44-.69-.74-.93-1.17-.24-.43-.37-.93-.61-1.35-.24-.43-.56-.82-.8-1.25-.24-.44.17-1.16-.01-1.62-.19-.47-.63-.83-.81-1.29-.19-.47-.6-.82-.84-1.25-.21-.38-.22-.9-.47-1.25-.25-.35-.43-.76-.68-1.12-.25-.35-.83-.47-1.04-.85-.21-.38-.57-.67-.77-1.05s.27-1.14.06-1.52c-.21-.38-1.04-.4-1.25-.78-.21-.38-.1-.94-.31-1.32-.21-.38-.51-.7-.72-1.08-.21-.38-.56-.67-.77-1.05-.21-.37-.03-1.02-.26-1.38-.24-.36-.97-.37-1.2-.73-.24-.36-.15-.94-.36-1.31-.12-.2-.17-.37-.26-.36-.11.02-.32.31-.2.58Z"/>
    <g>
      <path class="cls-1" d="M221.28,118.18c10.36-.77,38.71-39.55,92.16-10.15l-39.42-82.44s-60.93,93.2-52.74,92.59Z"/>
      <path class="cls-6" d="M221.28,118.18c10.36-.77,38.71-39.55,92.16-10.15l-39.42-82.44s-60.93,93.2-52.74,92.59c0,0-8.19.61,0,0Z"/>
    </g>
  </g>
  <g>
    <path class="cls-4" d="M273.48,26.41c.08.15,50.89,129.45,57.2,225.26,7.36,111.7-40.83,235.3-43.91,242.4l23.95,36.88s100.57-220.64,86.91-313.81C383.97,123.96,273.54.26,273.54.26l-.05,26.14Z"/>
    <path class="cls-3" d="M272.27,27.05c.16.41.69.68.86,1.11.17.42.11.93.27,1.36.17.42.26.87.42,1.3.16.42.18.9.34,1.33.15.43.37.83.52,1.26.15.43.01.97.17,1.39.16.43,1.01.54,1.23.94.22.4-.19,1.16.03,1.57.22.41.42.75.58,1.18.15.43.12.87.24,1.31.11.44.5.82.61,1.26.11.44.64.76.79,1.19.16.43.51.72.72,1.13.2.41-.27,1.17-.06,1.58.21.41.37.78.52,1.21.16.43.97.71,1.04,1.17.07.45.08.92.16,1.37.08.46-.37,1.02-.22,1.45.15.43.38.84.54,1.26s.84.66,1,1.08c.16.43-.39,1.11-.24,1.54.15.43.84.67,1,1.09.17.42.07.95.24,1.37.16.43.31.85.47,1.28.15.43.78.67.95,1.09.17.42-.06,1.02.11,1.44.17.42.69.72.84,1.15.15.43-.14,1-.03,1.45.11.44.56.81.67,1.25.11.44.25.84.4,1.27.15.43-.02.97.12,1.4.14.44.72.74.86,1.17.14.44-.48,1.11-.33,1.54.16.43.84.65,1.05,1.07.21.41.35.87.56,1.28.22.41-.05,1,.1,1.44.15.43.6.75.73,1.2.12.44.48.82.6,1.27.12.44.31.85.46,1.29.15.44.13.94.24,1.39.11.45.07.93.18,1.37.11.45.1.95.25,1.38.15.43.78.7.94,1.13l.46,1.3c.16.43-.21,1.04-.07,1.48.14.44.29.88.43,1.31.15.43.55.78.7,1.21.15.43.34.85.48,1.29.14.44.41.82.59,1.25.18.42.64.72.82,1.15.18.43-.52,1.18-.38,1.62.14.44.65.75.76,1.2.1.45.43.85.53,1.3.1.45.28.85.42,1.29s.11.93.27,1.36c.16.43.71.71.87,1.15.16.43-.17,1.04-.04,1.48.13.44.22.92.39,1.34.18.42.06.98.24,1.41.18.43.76.67.9,1.1l.38,1.33.33,1.34c.12.44.22.89.35,1.33.13.44.36.85.51,1.29.16.43-.13,1.03.02,1.46s.37.82.5,1.26c.13.44.77.77.84,1.23.07.46-.51.98-.44,1.44.07.46.37.94.49,1.38.12.44.1.91.21,1.36.11.45.29.87.4,1.32.11.45.94.7,1.06,1.14.13.44-.4,1.12-.23,1.55.17.43.87.63,1.04,1.06.17.43.17.94.29,1.38.12.44-.22,1.05-.07,1.49.15.43,1.17.56,1.32,1,.15.44-.54,1.14-.41,1.58.12.44,1.07.65,1.2,1.09.13.44-.33,1.05-.2,1.49s.47.82.6,1.26c.13.44-.04.94.03,1.4.07.45.55.87.61,1.33.06.46-.22.97-.1,1.41s.79.72.92,1.16c.13.44-.31,1.06-.18,1.5.13.44.11.92.22,1.36.11.44.93.72,1.03,1.17l.27,1.35c.1.45-.55,1.07-.44,1.52.11.44.87.71,1.01,1.15.14.44.01.96.15,1.4.14.44.29.88.4,1.32.11.45.37.88.44,1.33.07.45-.22.96-.15,1.41.08.45.47.85.58,1.29.11.45.14.91.28,1.35.14.44.54.78.68,1.22.14.44.23.92.33,1.37.1.45-.02.95.1,1.39.12.44.57.79.69,1.23.12.44.13.93.23,1.38.1.45-.52,1.01-.47,1.47.06.46.82.84.88,1.3.06.46.03.9.13,1.35.1.45.06.94.22,1.37l.51,1.29c.16.44.05.93.15,1.37.1.45.39.85.48,1.3.09.45.43.86.52,1.31.1.45-.03.94.06,1.39.09.45-.25,1-.15,1.45s.43.84.53,1.29c.09.45.45.84.54,1.29.09.45.32.92.34,1.39.02.46-.3.93-.28,1.39.02.46.47.86.55,1.31.09.45-.21.98-.12,1.43.09.45.44.85.53,1.3.09.45.11.91.2,1.37.09.45.37.83.51,1.27.13.44.12.93.26,1.37.13.44.49.86.58,1.31s-.46,1.01-.38,1.46c.08.45.48.85.56,1.3.07.45.24.89.31,1.34.07.45-.31,1-.21,1.45.09.45.43.84.52,1.29.09.45-.05.94.02,1.39.07.45.53.84.62,1.29.08.45-.08.95,0,1.4.08.45.54.84.61,1.29.07.46-.48.96-.45,1.42.03.46.2.91.22,1.37.03.46.1.94.17,1.39.07.45.1.94.2,1.39.11.45.61.8.72,1.25.11.45-.2.97-.13,1.42s.03.92.09,1.37c.06.45.23.89.28,1.35.05.46.59.85.65,1.3.05.46-.22.95-.19,1.41.03.46-.09.93-.06,1.38.03.46-.11.95-.06,1.41.04.46.09.9.13,1.35.04.46.93.84.97,1.3.04.46.03.91.08,1.36.05.46-.4.99-.3,1.44.09.45,0,.94.1,1.39.09.45.4.84.45,1.3.05.46.48.92.48,1.38,0,.46-.77.88-.78,1.34,0,.46.14.98.19,1.44.05.46.73.82.82,1.28.1.45.24.89.31,1.34.07.45,0,.96.02,1.41.03.46-.21.95-.15,1.4.05.46-.23.96-.18,1.41.05.45.5.85.53,1.31.03.46.32.89.36,1.35.04.46.38.88.42,1.34.04.46-.79.99-.76,1.45.03.46.57.91.54,1.38-.04.46-.72.84-.75,1.3-.04.46.72.96.75,1.42.03.46,0,.9.08,1.35.08.45-.18.97-.1,1.42.08.45-.08.9-.05,1.36.03.46.28.89.24,1.35-.04.46.28.97.23,1.43-.06.46-.08.87-.07,1.33,0,.46-.66,1.04-.57,1.5.09.45.29.88.38,1.33.09.46.02.85.03,1.31,0,.46.73.94.69,1.4-.04.46-.32.89-.36,1.35-.04.46.06.91.07,1.37,0,.46-.09.93-.1,1.39-.02.46.24.93.22,1.39-.02.46-.8.91-.79,1.37,0,.46.63.9.67,1.35.04.46.27.9.31,1.36.04.46-.4.95-.39,1.41,0,.46.36.9.39,1.36.03.46-.19.93-.16,1.39.03.46-.19.92-.18,1.38,0,.46.63.93.62,1.39,0,.46.07.92.04,1.38-.03.46-.28.9-.29,1.36-.01.46-.05.91-.03,1.37l.06,1.38c.01.46.14.93.12,1.39-.01.46-.38.92-.43,1.38-.06.46.22.96.16,1.42-.06.46-.07.88-.08,1.34-.01.46.05.92.04,1.38l-.05,1.38c0,.46-.36.91-.37,1.37-.01.46.2.9.24,1.36.04.46.24.9.28,1.36.04.46-.12.97-.13,1.43-.01.46.16.94.14,1.4-.03.46-.13.91-.15,1.37-.03.46-.85.87-.86,1.33l-.02,1.38c-.03.46.64.95.61,1.41-.03.46.12.93.09,1.39-.03.46-.69.89-.71,1.35-.02.46.2.92.18,1.38s0,.92-.03,1.38c-.03.46-.36.89-.4,1.35-.04.46.48.96.44,1.42-.04.46-.38.89-.41,1.35-.03.46-.36.87-.43,1.33-.07.45.38,1,.31,1.46-.07.46-.77.84-.8,1.3-.03.46.65.98.6,1.44-.04.46-.33.89-.38,1.35-.04.46-.6.87-.63,1.33-.03.46.28.95.28,1.42l.03,1.38c0,.46-.3.89-.36,1.34-.05.46.69,1.02.6,1.48l-.25,1.36c-.08.45-.29.86-.34,1.32-.05.46-.45.89-.47,1.35-.02.46.41.93.39,1.39-.02.46-.65.88-.7,1.34-.05.46.04.94.03,1.41,0,.46.32.92.31,1.38-.01.46-.3.91-.34,1.37-.05.46.2.97.11,1.43-.08.45.04.95-.04,1.4-.08.45-.96.77-1.01,1.23-.05.46-.14.89-.21,1.34-.07.45.17.96.1,1.41-.07.45.09.94.05,1.4-.05.46-.52.85-.6,1.3-.08.45.36.99.28,1.44s-.26.88-.33,1.34c-.07.46-.34.91-.33,1.38,0,.46.37.9.38,1.37,0,.47-.5.9-.57,1.36-.07.45.43,1,.34,1.46-.09.45-.49.84-.57,1.29-.09.45.23.96.16,1.42-.07.46-.55.85-.59,1.31-.04.46-.44.89-.48,1.35-.04.46.72,1.01.66,1.46-.07.46-.57.84-.64,1.3-.07.45-.35.87-.42,1.33-.07.45-.02.93-.08,1.39-.07.46-.28.84-.42,1.28-.15.44-.52.8-.68,1.23-.16.44,0,1.03-.09,1.48-.08.45.27.94.25,1.4-.02.46-.28.92-.3,1.38-.02.46-.42.86-.51,1.31-.08.45-.01.92-.12,1.37-.1.45.22,1,.11,1.45-.1.45-.83.77-.92,1.22-.08.45.16.98.12,1.45-.03.46.04.93,0,1.39-.03.46-.14.91-.22,1.36-.08.45-.53.77-.67,1.22-.14.44.51,1.16.38,1.6-.14.44-.83.71-.92,1.16-.08.45.32.98.25,1.44-.07.45-.54.86-.61,1.31-.07.45-.14.9-.23,1.35-.1.45,0,.94-.12,1.39-.11.45-.11.92-.23,1.37-.11.45-.29.87-.38,1.32-.1.45.06,1-.07,1.45-.14.44-.39.84-.53,1.28-.14.44-.58.78-.67,1.23-.1.45-.05.92-.11,1.38-.06.46.19.95.13,1.41-.06.46-.83.8-.93,1.25-.1.45-.16.92-.24,1.38-.08.45.39,1,.29,1.45-.09.45-.72.79-.83,1.24-.11.45-.42.78-.59,1.21-.17.43.08,1.03-.08,1.46-.17.43-.67.78-.78,1.23-.11.45.34,1.02.24,1.47-.1.45-.45.84-.55,1.29-.1.45.03.95-.08,1.4-.11.45-.16.9-.26,1.35-.1.45-.67.79-.77,1.24-.1.45.06.96-.05,1.4-.11.45-.32.86-.46,1.3-.14.44-.63.76-.76,1.2-.13.44-.08.96-.2,1.4-.12.44-.17.9-.3,1.34l-.45,1.3-.39,1.33c-.12.44.11.97.01,1.42-.1.45.08.95-.02,1.4-.1.45-.33.9-.45,1.34-.12.44-.48.82-.57,1.27-.1.45-.07.92-.17,1.37-.1.45-.76.75-.88,1.19-.12.44-.1.95-.19,1.41-.09.45-.15.91-.26,1.35-.11.45-.43.81-.57,1.25-.14.44.58,1.17.41,1.6-.17.43-.8.68-.96,1.1-.17.43.09.99-.04,1.43-.14.44-.48.82-.63,1.25-.14.44-.82.7-.96,1.13-.14.44.37,1.09.24,1.53-.14.44-.93.67-1.06,1.11-.13.44-.16.91-.3,1.35-.13.44.27,1.05.13,1.49-.15.43-.54.79-.7,1.22s0,.98-.15,1.41c-.16.43-.44.81-.59,1.24-.15.43-1,.62-1.16,1.05-.16.43.42,1.13.26,1.56-.16.43-.82.68-.96,1.12-.15.43-.48.79-.64,1.22s.43,1.14.28,1.57c-.16.43-.61.75-.76,1.18-.16.43-.47.81-.62,1.24-.15.43-.15.92-.3,1.35-.15.43-.02.97-.18,1.4-.16.43-.58.77-.77,1.19-.19.42-.25.9-.43,1.32-.19.42-.38.82-.54,1.25-.16.43-.6.76-.74,1.2l-.43,1.31c-.14.44-.03.96-.2,1.39-.17.43-.1.98-.3,1.4-.19.42-1.07.51-1.26.92-.19.42-.02,1-.19,1.43-.17.43-.22.88-.34,1.33-.12.45-.32.87-.44,1.32-.11.45-.53.78-.71,1.2-.18.42-.15.93-.34,1.34l-.6,1.24c-.19.42-.76.67-.94,1.1-.18.42.19,1.07.03,1.5-.15.43-.06.95-.22,1.38-.16.43-.95.61-1.13,1.03-.18.42.13,1.09-.09,1.49l-.63,1.22c-.22.41-.74.65-.93,1.07-.16.35-.15.89-.02.94.41.18.61.63.87.68.37.07.62.22.99.29.26.05.82-.6,1.23-.42.13.06.48.48.63.14.19-.42,0-.99.14-1.42.15-.43.56-.79.71-1.23.15-.44.27-.87.45-1.3.19-.42.64-.75.81-1.18.17-.43-.18-1.06-.01-1.49.17-.43.08-.98.26-1.4.18-.42.34-.88.54-1.3.2-.42.54-.76.74-1.18.2-.42.86-.63,1.03-1.05.18-.43,0-.99.17-1.42.17-.43.61-.75.77-1.18.17-.43.6-.76.77-1.19.17-.43.04-.98.19-1.42.15-.44.63-.77.78-1.2.15-.44-.37-1.11-.2-1.54.17-.43.33-.87.51-1.3.18-.42.99-.58,1.16-1.01.17-.43.43-.84.59-1.27.16-.43-.07-1.01.08-1.45.15-.44.44-.83.59-1.26.15-.44.48-.8.64-1.23.16-.43.13-.93.31-1.35.17-.43-.2-1.08-.03-1.51.17-.43.54-.77.7-1.2.15-.43.88-.66,1.03-1.1l.46-1.31c.15-.44.04-.96.19-1.4.15-.44.53-.73.73-1.15.21-.42.04-1.03.25-1.45.21-.42.82-.69.97-1.13.15-.44.23-.94.34-1.4.11-.45-.06-.96.05-1.41.11-.45-.29-1.06-.14-1.49.14-.44.55-.78.67-1.23.12-.45.47-.83.59-1.28.12-.45.4-.84.54-1.28.14-.44.03-.96.16-1.4.14-.44-.09-.99.05-1.43l.42-1.32c.14-.44.67-.76.86-1.19.19-.42.45-.81.64-1.23.19-.42.17-.92.31-1.36s.85-.75.96-1.2c.11-.45-.09-.96,0-1.41.09-.45-.14-.99-.02-1.43.13-.44.72-.72.89-1.15.17-.43,0-1,.16-1.43.17-.43.62-.77.74-1.22.12-.44.35-.86.48-1.3.12-.44-.04-.97.09-1.41.12-.44.32-.87.45-1.31.13-.44.15-.92.27-1.36l.39-1.33c.13-.44.61-.79.74-1.24.12-.45.16-.99.2-1.46.04-.46-.65-.97-.61-1.43.04-.47.89-.8,1-1.25.11-.45.17-.84.36-1.27.19-.42.27-.91.45-1.33.19-.43.28-.93.39-1.38.11-.45.06-.94.1-1.41.04-.46.02-.93.06-1.39.04-.47-.05-.97.06-1.42.11-.45.83-.69.99-1.13.16-.43.36-.85.52-1.29.16-.44-.07-1.02.04-1.47.11-.45.37-.84.51-1.29.14-.44-.39-1.09-.26-1.53.12-.44.76-.73.86-1.18.1-.45.27-.91.32-1.38.05-.46,0-.93.05-1.39.05-.46.14-.9.24-1.35.1-.45.36-.83.5-1.28.14-.44-.38-1.11-.24-1.55.14-.44.61-.76.7-1.21.1-.45-.08-.95,0-1.4l.3-1.35c.08-.45.58-.83.68-1.28.1-.45.24-.93.27-1.4.03-.46.32-.92.35-1.38.03-.47.03-.85.11-1.31.08-.46-.23-1-.06-1.44.17-.43.35-.86.52-1.29.17-.44.59-.82.67-1.27.08-.46.1-.97.11-1.44l.03-1.4c0-.47-.23-.93-.14-1.39.08-.46.15-.93.31-1.37.15-.44.16-.93.31-1.37.15-.44.36-.82.44-1.28.08-.46.02-.88.03-1.35,0-.46.24-.94.24-1.4,0-.47.17-.91.25-1.37.08-.45.13-.91.23-1.36.1-.45.35-.87.45-1.32.1-.45-.55-1.04-.48-1.49.07-.46.56-.85.67-1.3.1-.45-.18-1-.08-1.45.1-.45.36-.83.43-1.29.07-.46.4-.87.45-1.33.05-.46.46-.88.51-1.34.05-.46.21-.89.28-1.34.07-.46-.07-.98-.04-1.44.03-.46-.18-.93-.16-1.39.03-.46-.04-.93.03-1.39.07-.46.67-.78.78-1.23.11-.45-.26-1.03-.15-1.48.11-.45.49-.86.56-1.31.07-.46.16-.9.25-1.35.09-.45-.2-.98-.11-1.43.09-.45-.1-.93-.06-1.39.05-.46.34-.87.35-1.34.01-.46.51-.92.52-1.38.01-.46.11-.88.16-1.34.05-.46-.18-.95-.14-1.41.04-.46-.31-.95-.27-1.41.04-.46-.03-.94.02-1.39.05-.46.73-.81.83-1.27.1-.45-.08-.98.02-1.43.1-.45.59-.86.64-1.32.05-.46.09-.97.09-1.44,0-.46-.85-.9-.85-1.37,0-.46.66-.92.71-1.38.05-.46-.09-.94-.02-1.39.07-.46-.1-.95-.03-1.41.07-.46.06-.91.11-1.36.05-.46.82-.87.83-1.34.01-.46-.42-.94-.41-1.4.01-.46.21-.91.24-1.37.03-.46-.05-.94-.05-1.4,0-.46-.44-.92-.44-1.38,0-.46-.04-.96,0-1.42.03-.46.27-.92.32-1.38.05-.46.66-.85.71-1.31.05-.46-.42-.97-.39-1.43.03-.46.43-.88.51-1.34.08-.46.24-.9.32-1.35.08-.46.39-.93.42-1.39.03-.46-.5-.95-.54-1.42-.05-.46.31-.99.26-1.45-.05-.47-.81-.89-.78-1.35.03-.46.55-.89.59-1.35.04-.46.24-.91.28-1.37.05-.46-.03-.93-.02-1.4.01-.46-.18-.94-.14-1.4.04-.46.18-.91.22-1.37.04-.46.27-.92.28-1.38.01-.46.12-.93.12-1.39,0-.46.07-.92.08-1.39,0-.46-.71-.94-.7-1.4.01-.46.37-.91.37-1.38,0-.46.09-.92.09-1.39,0-.46-.44-.93-.43-1.39.01-.46.7-.91.71-1.37s-.44-.94-.42-1.4c.01-.46.13-.92.14-1.38.01-.46-.24-.97-.19-1.43.06-.46.54-.86.6-1.32.06-.46.23-.94.24-1.4.01-.46-.33-.92-.33-1.38,0-.46.51-.94.5-1.41-.02-.46-.72-.91-.73-1.37,0-.46.05-.93.06-1.39,0-.46.18-.92.18-1.38,0-.46-.24-.92-.25-1.38,0-.46.61-.92.61-1.38,0-.46-.74-.93-.74-1.39,0-.46.68-.92.67-1.39,0-.46.03-.96,0-1.42-.04-.46-.89-.84-.92-1.3-.04-.46.55-.97.54-1.43,0-.46-.61-.95-.59-1.41.02-.46.11-.92.14-1.38.02-.46.81-.91.81-1.38,0-.46-.32-.93-.36-1.39-.04-.46-.25-.9-.29-1.36-.04-.46.13-.93.12-1.39,0-.46.29-.93.29-1.39,0-.46-.89-.91-.89-1.37,0-.46.23-.93.2-1.39-.03-.46.46-.93.45-1.4-.02-.46.04-.93.02-1.39-.02-.46-.06-.94-.09-1.4-.03-.46-.67-.87-.74-1.33l-.2-1.38c-.07-.46-.46-.91-.49-1.37-.03-.46.41-.96.4-1.42l-.07-1.39c0-.46-.37-.9-.4-1.36-.03-.46.13-.93.09-1.39-.05-.46.22-.96.17-1.42-.05-.46-.26-.9-.29-1.36-.03-.46.25-.99.18-1.45-.08-.46-.53-.83-.62-1.29-.09-.45-.06-.93-.11-1.39-.05-.46-.11-.92-.12-1.39,0-.46.29-.92.28-1.38,0-.46-.45-.92-.51-1.38-.05-.46.01-.93-.04-1.39-.06-.46-.23-.9-.28-1.36-.06-.46-.2-.91-.25-1.37-.05-.46.04-.94,0-1.4-.04-.46-.27-.9-.31-1.36-.04-.46.22-.95.17-1.41-.05-.46-.64-.82-.72-1.28-.08-.46.1-.96.03-1.41-.08-.46.11-.96.05-1.42-.05-.46-.26-.9-.32-1.35-.06-.46-.1-.92-.19-1.37-.08-.45-.47-.87-.55-1.32-.07-.46.4-1,.31-1.45s-.46-.85-.55-1.3c-.09-.45-.25-.9-.33-1.35-.07-.46.24-.96.19-1.42-.06-.46-.76-.84-.81-1.3-.06-.46-.15-.89-.23-1.35-.07-.46.67-1.05.59-1.5-.08-.46-.22-.9-.3-1.35-.08-.45.02-.93-.05-1.39-.07-.46-.96-.75-1.05-1.21-.1-.45-.32-.87-.42-1.32-.1-.45-.09-.95-.17-1.4-.07-.46-.02-.94-.08-1.4-.05-.46.29-.97.21-1.43-.08-.46-.04-.94-.12-1.39-.09-.45-.37-.87-.44-1.32-.06-.46-.32-.89-.38-1.35-.06-.46.29-.99.2-1.44-.09-.45-.39-.88-.51-1.33-.12-.45-.57-.8-.69-1.24-.12-.45-.44-.87-.53-1.32-.08-.45-.16-.92-.23-1.38-.08-.45.06-.95-.01-1.4-.08-.46.06-.95-.03-1.4-.09-.45.25-.91.23-1.38-.02-.46-.23-.93-.25-1.39-.02-.47-.06-.98-.15-1.43-.09-.45-.39-.87-.52-1.32-.15-.44.04-.99-.11-1.43-.15-.44-.33-.82-.43-1.27-.1-.45-.16-.88-.23-1.33-.07-.46-.89-.82-.96-1.27-.07-.46.41-1,.3-1.45-.1-.45-.14-.92-.24-1.37-.11-.45-.73-.78-.83-1.23-.1-.45.41-1.04.31-1.49-.1-.45-.38-.9-.53-1.34-.15-.44-.78-.69-.93-1.12-.15-.44-.33-.91-.43-1.36-.1-.45.34-1.05.21-1.49-.12-.44-.32-.86-.45-1.31-.13-.44-.48-.82-.59-1.27-.1-.45.1-.94.03-1.4-.07-.46-.07-.92-.14-1.38-.07-.46-.31-.91-.42-1.36-.12-.45-.22-.89-.31-1.34l-.34-1.34c-.1-.45-.25-.89-.37-1.34-.12-.45-.47-.83-.59-1.27-.12-.44-.33-.86-.45-1.31-.12-.44-.4-.85-.52-1.3-.12-.45.18-1.01.03-1.45-.15-.44.13-1.03-.02-1.48-.15-.44-.84-.7-.96-1.15-.12-.45.02-.97-.1-1.42-.12-.45-.67-.78-.79-1.23-.11-.45.21-1.02.09-1.47-.13-.45.02-.94-.07-1.39l-.34-1.36c-.1-.46-.72-.79-.85-1.24-.13-.45-.12-.93-.29-1.37-.17-.43-.24-.91-.41-1.34-.17-.43-.71-.75-.84-1.2-.13-.45-.14-.97-.2-1.44-.06-.46.44-.98.38-1.45-.06-.47-.86-.79-.98-1.23-.12-.45-.24-.91-.36-1.36-.12-.45.15-1,.03-1.45-.12-.45-.56-.8-.69-1.25-.13-.45.44-1.16.25-1.59-.18-.43-.43-.83-.61-1.26-.18-.43-.47-.78-.61-1.23-.14-.44-.65-.78-.77-1.23-.12-.45-.43-.85-.55-1.3-.12-.45.16-1.01.02-1.45-.14-.45-.18-.95-.37-1.38-.18-.43-.86-.63-1.04-1.06-.18-.43-.25-.94-.39-1.38-.14-.44.21-1.04.08-1.48-.14-.45-.88-.7-1.02-1.15-.13-.44,0-.97-.14-1.42-.14-.45-.49-.85-.59-1.31-.11-.45.31-1.02.2-1.47-.11-.45-.6-.81-.75-1.25-.15-.44-.28-.88-.48-1.3-.19-.42-.04-1.02-.23-1.44-.19-.43-.41-.8-.56-1.24-.15-.44-.9-.76-.98-1.22-.09-.46.64-1.05.56-1.51-.09-.46-.7-.81-.85-1.26-.15-.44-.25-.89-.45-1.32-.19-.42-.13-.98-.32-1.4-.2-.42-.83-.66-.98-1.1-.15-.44.33-1.05.22-1.51-.11-.45-.4-.87-.51-1.32-.11-.46-.62-.79-.77-1.23-.16-.44.25-1.1.07-1.53-.18-.43-1.14-.52-1.32-.95-.18-.43-.28-.92-.44-1.36s0-.98-.17-1.42c-.16-.43.02-1-.14-1.44-.16-.44-.4-.84-.55-1.27-.16-.44-.37-.86-.54-1.3l-.49-1.31c-.16-.44-.61-.76-.78-1.19-.16-.44.17-1.08,0-1.53-.17-.44-.84-.69-1.02-1.14-.17-.44-.7-.75-.87-1.2-.17-.44.13-1.08-.07-1.52-.19-.43-.76-.7-.96-1.14-.19-.43-.16-.98-.33-1.43-.17-.44-.09-.99-.26-1.43-.17-.44-.93-.65-1.1-1.09-.18-.44.06-1.06-.12-1.5-.18-.44-.53-.85-.67-1.31-.13-.46-.46-.87-.59-1.33-.13-.46-.24-.87-.42-1.31-.19-.44.14-1.13-.08-1.55-.22-.43-.66-.73-.88-1.15-.22-.43-.47-.84-.66-1.28-.19-.45-.6-.78-.79-1.22-.19-.44-.26-.93-.45-1.36-.2-.44-.47-.84-.66-1.28-.19-.44.29-1.11.16-1.57-.14-.47-.54-.86-.67-1.31-.14-.47-.51-.85-.7-1.28-.17-.39-.13-.89-.34-1.25-.21-.36-.34-.78-.55-1.14-.21-.36-.78-.52-.95-.9-.17-.38-.5-.7-.67-1.08s.38-1.09.21-1.47c-.17-.38-.99-.46-1.17-.84-.17-.38,0-.92-.18-1.3-.17-.38-.43-.72-.61-1.1-.18-.38-.5-.69-.68-1.07-.18-.38.06-.99-.14-1.36-.2-.37-.93-.42-1.13-.78-.2-.36-.07-.92-.26-1.3-.1-.21-.14-.38-.23-.36-.11.02-.33.31-.23.57Z"/>
  </g>
  <g>
    <path class="cls-4" d="M272.39,25.22c.08.15-47.87,144.46-43.8,240.39,4.74,111.81,60.17,220.18,57.09,227.27l.77,40.36-35.4-12.19S102.95,421.32,112.18,250.76C121.41,80.21,272.39,25.22,272.39,25.22Z"/>
    <path class="cls-3" d="M271.86,25.51c-.14.37.07.97-.08,1.39-.15.43-.53.77-.68,1.21-.15.43-.37.83-.52,1.26-.15.43-.45.8-.61,1.23-.16.43-.25.87-.41,1.3-.15.43-.61.75-.76,1.18-.15.43.44,1.06.35,1.51-.09.45-.89.78-.98,1.23-.09.45-.16.85-.3,1.28-.15.43-.45.75-.64,1.17-.19.41-.13.95-.31,1.37-.19.42.02.99-.12,1.43-.15.43-.05.88-.14,1.33-.09.45-.94.75-1.04,1.2-.09.45-.2.84-.34,1.27-.14.43.32,1.16.1,1.57-.22.4-.49.78-.71,1.18-.22.41-.92.58-1.06,1.02-.14.43-.21.9-.34,1.33-.13.44.27,1.04.14,1.47-.13.44-.98.65-1.12,1.08-.14.43.26,1.04.14,1.47-.12.44-.52.8-.64,1.24-.13.44-.26.87-.39,1.3-.14.44.23,1,.12,1.45-.11.44-.65.78-.76,1.23-.11.44.13.99,0,1.43-.13.44-.7.73-.87,1.15-.17.42-.01.99-.18,1.41-.17.43-.29.83-.42,1.27-.13.44-.59.78-.73,1.21-.14.43.15,1.02.01,1.45-.14.43-1.04.63-1.17,1.06-.12.44.3,1.02.25,1.48-.05.46-.21.91-.26,1.37-.06.46-.61.8-.73,1.24-.12.44.07.96-.08,1.4-.15.43-.07.95-.22,1.39-.15.44-.22.88-.34,1.33-.12.45-.42.85-.58,1.28-.16.43-.46.81-.63,1.24-.16.43-.45.84-.57,1.29-.12.44.26,1.02.14,1.46l-.35,1.33c-.12.44-.75.75-.87,1.2-.11.45-.23.9-.34,1.34-.11.45.04.96-.07,1.4-.11.45-.18.9-.29,1.35-.12.45-.1.91-.18,1.37-.08.45.15.95.06,1.41-.08.45-1.08.72-1.19,1.16-.11.45.15.99,0,1.42-.15.43-.09.95-.25,1.39-.15.44-.22.87-.34,1.32s-.4.84-.5,1.3c-.09.45.22.98.13,1.43-.09.45-.69.8-.8,1.25-.11.45-.28.9-.35,1.36-.06.46-.45.88-.51,1.33-.07.46.32.97.21,1.41l-.36,1.33-.4,1.32c-.12.44-.27.88-.38,1.33-.11.45-.13.91-.21,1.37-.08.45-.64.82-.72,1.28-.08.45-.09.89-.2,1.34-.11.45.28,1.05.11,1.48-.17.43-.94.6-1.11,1.03-.17.43-.16.99-.26,1.44-.11.45-.36.85-.48,1.29-.12.44-.17.91-.28,1.35-.11.45.49,1.07.39,1.52-.1.45-.89.79-.94,1.25-.06.46.47.97.41,1.43-.06.46-.3.91-.4,1.36-.1.45-.7.82-.77,1.27-.08.45.76,1.05.68,1.5-.08.45-1.01.75-1.11,1.2-.1.45.64,1.08.54,1.53-.09.45-.79.78-.88,1.23-.09.45.03.95-.06,1.4-.1.45-.48.81-.63,1.25-.15.43.1,1.03-.05,1.46-.15.44-.63.77-.73,1.22-.1.45.39,1,.31,1.45-.08.45-.75.81-.82,1.27-.08.45-.31.87-.4,1.32-.09.45.52,1.07.41,1.51l-.35,1.34c-.11.45-.97.73-1.06,1.18-.09.45.47,1.02.4,1.47-.07.46-.42.87-.48,1.33-.06.46-.11.92-.2,1.37-.09.45-.05.95-.17,1.4-.13.44-.61.77-.74,1.22-.13.44.06.97-.03,1.42-.09.45-.24.89-.29,1.35-.05.46.18.94.13,1.4-.05.46-.16.94-.25,1.39-.08.45-.39.86-.45,1.32-.06.46.21.96.15,1.41-.06.46-.25.91-.33,1.36-.08.45-.88.72-1.01,1.17-.13.44.43,1.1.3,1.54-.13.44-.33.84-.41,1.3-.08.45-.32.89-.34,1.35-.03.46-.01.93-.03,1.39-.02.46-.31.88-.38,1.33-.08.45.03.94-.06,1.39-.09.45.07.95-.02,1.4-.09.45-.37.86-.45,1.32-.08.45-.58.84-.65,1.3-.07.45.11.95.04,1.4-.07.45.12.95.05,1.4-.07.46-.01.98-.15,1.42-.14.44-.59.77-.73,1.21-.14.45.15.97.08,1.43-.07.45-.53.85-.6,1.31-.07.46.13.95.06,1.4-.07.46-.2.9-.27,1.36-.07.46.07.91.05,1.37-.03.46-.19.92-.21,1.38-.02.46.19.98.12,1.43-.06.46-.76.82-.83,1.27-.07.46.18.96.11,1.41-.07.46-.03.92-.09,1.38-.06.46-.58.87-.63,1.33-.04.46.16.94.12,1.39-.04.46-.33.88-.38,1.34-.06.46.28.96.24,1.42-.04.46-.34.89-.38,1.35-.04.46.29.96.23,1.41-.06.46-.72.8-.82,1.25-.1.45-.06.94-.16,1.39-.1.45-.16.94-.22,1.39-.06.46-.17.94-.19,1.4-.02.46.39.93.37,1.39-.01.46-.44.89-.49,1.35-.05.46-.21.9-.26,1.36-.05.46-.02.93-.07,1.38-.05.46.39.97.35,1.43-.05.46-.42.88-.49,1.34-.07.46-.29.89-.36,1.34-.07.46-.31.91-.35,1.37-.05.46-.09.9-.14,1.36-.05.46.75,1.02.69,1.48-.05.46-.15.9-.19,1.36-.04.46-.59.9-.58,1.36,0,.46-.18.93-.18,1.39,0,.46.22.9.19,1.36-.04.46.29.99.21,1.45-.09.45-.91.74-1,1.2-.09.46-.04,1-.06,1.46-.03.46.58.93.59,1.4.01.46.09.92.1,1.38.01.46-.13.95-.16,1.41-.03.46-.33.91-.33,1.38,0,.46-.36.93-.35,1.39,0,.46.41.91.39,1.37-.02.46.22.93.22,1.39s.28.92.28,1.38c0,.46-.89.91-.9,1.37-.02.46.48.97.39,1.43-.08.46-.8.78-.88,1.24-.08.46.61,1.03.61,1.49,0,.46-.07.9-.02,1.36.04.46-.25.96-.2,1.42.04.46-.15.9-.15,1.37,0,.46.21.91.14,1.37-.07.46.25.99.18,1.45-.07.46-.1.87-.1,1.34,0,.46-.68,1.03-.58,1.49.09.46.29.9.39,1.35.09.46.02.86.04,1.32.01.47.74.95.7,1.41-.04.46-.32.9-.36,1.36-.04.46.07.92.08,1.38.01.46-.08.94-.09,1.4-.01.46.26.93.26,1.39,0,.46-.77.94-.75,1.4.02.46.66.88.71,1.34.05.46.29.89.35,1.35.06.46-.36.97-.33,1.44.03.46.4.89.45,1.35.05.46-.15.95-.1,1.41.05.46-.15.93-.11,1.39.04.46.68.89.7,1.35s.14.92.16,1.38c.02.46-.19.92-.15,1.38.03.46.05.91.11,1.37l.21,1.37c.06.46.24.92.28,1.38.04.46-.27.95-.28,1.42,0,.46.33.94.33,1.4,0,.46.04.88.09,1.34.05.46.16.91.21,1.37l.13,1.38c.05.46-.23.96-.18,1.42.05.46.32.86.43,1.32.1.45.36.86.47,1.31.1.45.02.98.07,1.44.06.46.3.91.34,1.37.04.46.01.92.05,1.38.04.46-.71,1.01-.65,1.47l.2,1.37c.06.46.82.82.88,1.28.06.46.31.89.37,1.35s-.5,1.01-.42,1.47c.08.46.38.87.47,1.32.08.45.2.9.27,1.36.07.46-.17.95-.11,1.41.06.46.67.84.73,1.3.06.46-.17.95-.1,1.41.07.46-.16.93-.12,1.4.03.46.6.89.63,1.35.04.46-.57,1-.49,1.46.08.46.86.8.92,1.26.07.46-.12.95-.05,1.4.07.46-.38,1-.3,1.46.08.46.49.86.6,1.31l.36,1.34c.11.45-.09.95,0,1.4.08.46.95.8,1,1.26l.15,1.38c.05.46-.03.91.06,1.36.09.45-.17.98-.06,1.43.11.45.67.78.78,1.23.11.45-.36,1.04-.27,1.49.09.45.32.9.45,1.34.13.44.58.79.71,1.23.13.44-.01.96.09,1.41.1.45.49.87.55,1.33.06.46.33.89.39,1.35.06.46-.68,1.04-.58,1.49.09.45.14.89.22,1.35.08.45.46.86.55,1.31.08.45.39.86.49,1.31.1.45-.23.99-.14,1.44.09.45.7.81.79,1.26.09.45.07.92.18,1.37.1.45.01.97.19,1.41.17.43.67.72.85,1.14.18.43-.13,1.02-.03,1.47.11.45.77.78.85,1.24.09.45-.15.96-.06,1.42.09.45.57.81.68,1.26.11.45-.19,1-.06,1.44.13.44-.08.99.06,1.44.14.44,1.04.66,1.16,1.11.11.45-.21,1-.1,1.45.11.45.01.94.12,1.39.11.45.34.87.45,1.32.11.45.07.89.11,1.35.04.46-.14.94-.1,1.4.04.47.43.94.54,1.39.12.45.64.75.82,1.18.18.43.14.96.32,1.38.18.43-.02.96.1,1.4.12.45.38.84.48,1.29.1.45.63.81.73,1.26.1.45-.42,1.06-.29,1.5.12.45.57.82.74,1.25.17.43.44.82.61,1.25.17.43.28.88.4,1.32.13.45-.14.93-.06,1.4.07.46.96.81,1.04,1.26.08.46-.43,1.02-.3,1.46.13.44.74.73.89,1.16.16.43-.07,1.01.09,1.45.15.44.31.86.44,1.3.13.44.45.83.56,1.28.12.45.34.86.46,1.31.12.45.17.9.3,1.34.13.44.55.85.64,1.3.1.45.07.93.16,1.38.1.45-.12.97,0,1.41.14.44.41.83.58,1.26.17.43.63.73.8,1.16.17.43-.33,1.11-.19,1.55.14.44.32.88.47,1.32.16.43.82.67.98,1.11.16.43-.2,1.04-.06,1.48.14.44.05.88.14,1.34.09.45.62.84.7,1.29.09.46-.15,1.02-.01,1.46.14.44.83.69.99,1.13.16.43.07.96.23,1.39.16.43.54.79.68,1.23.14.44.34.85.5,1.29.16.43-.14,1.03.02,1.47.16.43.57.78.71,1.21.15.44.19.91.31,1.35.12.44-.12.98,0,1.43.12.45.47.85.62,1.28.15.44.37.85.51,1.28l.37,1.33.43,1.32c.15.44.64.74.82,1.17.18.43.61.74.79,1.17.18.43.24.93.4,1.36.15.44.08.94.26,1.37.18.42.47.8.65,1.22.18.42-.18,1.06-.03,1.49.15.44.47.84.66,1.26l.58,1.26c.18.42.14.91.29,1.34.16.43,1.17.6,1.3,1.04.13.44-.23,1.02-.1,1.46.13.44.67.74.83,1.17.16.43.11.94.26,1.38s-.23,1.05-.08,1.49c.15.44.96.64,1.12,1.07.16.43-.33,1.1-.16,1.53.16.43.42.82.59,1.25.16.43.85.66,1.01,1.1.16.43.08.95.23,1.39.15.44.62.76.78,1.19.15.43.17.91.33,1.34.16.43-.38,1.11-.23,1.55.15.43,1.04.61,1.19,1.05.15.43-.2,1.05-.04,1.48.16.43.13.92.28,1.36.15.43,1.06.61,1.21,1.04.15.43,0,.97.16,1.4.16.43.17.92.34,1.35.17.43.49.8.66,1.22.17.43.62.75.78,1.18.16.43.07.97.2,1.41.13.44.4.84.54,1.28.13.44.25.87.41,1.3.16.43.04.97.23,1.39l.53,1.27c.19.42.63.74.79,1.16.16.43.58.8.71,1.24.13.44-.46,1.09-.32,1.53.13.44.65.76.81,1.19.16.43.42.8.63,1.22.21.41.33.86.54,1.27.21.41.13.93.28,1.36.15.43.51.79.65,1.22l.38,1.31c.13.44-.13,1,.02,1.43.15.43.84.67,1,1.09.17.42.58.75.73,1.17.16.43-.33,1.07-.21,1.49.13.43.78.73.85,1.17.08.44.15.86.21,1.28.03.42-.27.84-.25,1.16.02.27.22.45.36.42.44.05.77.32,1.01.42.35.08.61.22.99.23.12.03.38-.32.51-.56.16-.26.34-.56.56-.55.14,0,.65.31.62-.19-.04-.63-.54-1.06-.66-1.56-.15-.47-.02-1.04-.19-1.49-.16-.46-.34-.89-.47-1.34-.13-.46,0-1-.15-1.45-.15-.45-.83-.7-.99-1.13-.16-.44-.58-.79-.73-1.23-.15-.44-.33-.89-.46-1.33-.13-.44-.11-.93-.24-1.37-.13-.44.21-1.04.06-1.47-.16-.43-.67-.74-.83-1.17-.16-.43-.05-.96-.21-1.4-.16-.43-.06-.96-.22-1.39-.16-.43-.63-.75-.81-1.18-.18-.42-.04-.98-.22-1.41-.18-.42-1.02-.58-1.18-1.01-.16-.43-.34-.86-.49-1.3-.15-.43.36-1.09.21-1.52-.15-.43-.22-.91-.38-1.34-.16-.43-.71-.72-.88-1.14-.17-.42-.21-.91-.38-1.33-.17-.42-.16-.91-.32-1.34-.16-.43-.5-.78-.65-1.22-.15-.43-.86-.68-1-1.12-.15-.43-.09-.93-.25-1.36-.16-.43.26-1.07.1-1.5l-.47-1.29c-.16-.43-.58-.76-.74-1.19-.16-.43-.05-.89-.15-1.34-.1-.45-.62-.82-.72-1.27-.1-.45.2-1.05.04-1.48-.16-.43-.41-.87-.61-1.29-.2-.41-.65-.7-.85-1.11-.2-.42-.89-.64-1.05-1.07-.16-.43-.04-.95-.22-1.38-.18-.42-.13-.94-.31-1.36-.17-.42-.19-.9-.35-1.33-.16-.43-.56-.77-.72-1.2-.16-.43-.67-.73-.83-1.16l-.47-1.3c-.16-.43.07-1.01-.03-1.46-.1-.45-.13-.91-.23-1.36-.1-.45-.42-.83-.57-1.26-.15-.43.23-1.1.05-1.52-.18-.42-.64-.72-.82-1.14-.18-.42-.69-.71-.84-1.14-.15-.43.18-1,.06-1.45-.11-.44-.58-.81-.69-1.25-.11-.45.06-.98-.09-1.41-.15-.43-.2-.9-.35-1.33-.15-.43-.58-.77-.73-1.2-.15-.43-.23-.89-.38-1.32-.15-.43-.4-.83-.55-1.26l-.43-1.3c-.15-.43.06-.99-.09-1.42-.15-.44-.43-.9-.65-1.31-.22-.41-1.06-.45-1.28-.85-.22-.41.32-1.16.17-1.59-.15-.44-.3-.79-.37-1.25-.07-.46-.26-.9-.33-1.36-.07-.46-.26-.93-.4-1.37-.14-.44-.44-.82-.66-1.24-.21-.41-.48-.79-.69-1.2-.21-.41-.56-.79-.7-1.23-.14-.44.34-1.02.25-1.47-.1-.45-.14-.91-.23-1.35-.1-.45-.6-.83-.74-1.27-.14-.44-.12-.91-.23-1.35-.11-.44-.88-.73-1-1.17-.11-.44.3-1.02.16-1.45-.14-.44-.21-.92-.39-1.35-.18-.42-.45-.8-.63-1.22-.18-.42-.32-.85-.45-1.28-.14-.44-.09-.9-.18-1.35-.09-.45-.87-.78-.96-1.23-.09-.45.16-.95.03-1.39-.13-.44-.52-.78-.67-1.22l-.39-1.32c-.14-.43.11-1-.02-1.44-.13-.44-.24-.92-.43-1.34-.19-.42-.15-.95-.34-1.37-.19-.42-.39-.75-.52-1.19-.13-.44-.65-.78-.7-1.25-.03-.46-.07-.93-.1-1.38-.04-.47.17-.99.05-1.43-.13-.44-.33-.91-.53-1.33l-.58-1.26c-.19-.42-.61-.73-.73-1.17-.12-.44-.26-.9-.32-1.36-.05-.46-.26-.91-.31-1.36-.05-.46-.03-.89-.15-1.34-.12-.44-.36-.8-.55-1.22-.19-.42-.18-.94-.38-1.36-.2-.42-.23-.89-.35-1.33-.12-.44-.26-.87-.36-1.32-.1-.45-.04-.93-.14-1.37-.1-.45-.91-.72-1.03-1.16-.11-.44.2-1,.12-1.46-.08-.45-.54-.84-.62-1.29-.08-.45.02-.9-.09-1.35-.11-.44.04-.95-.08-1.39-.12-.44.1-.98-.03-1.42-.12-.44-.13-.89-.24-1.34-.11-.44-.43-.87-.58-1.31-.14-.43-.51-.79-.65-1.23-.14-.44-.38-.84-.48-1.29-.11-.45.34-.96.28-1.42-.06-.45-.63-.86-.68-1.32-.05-.46.15-.97.05-1.41-.1-.45-.17-.88-.25-1.34-.08-.45-.54-.84-.61-1.29-.08-.45-.42-.83-.52-1.28-.1-.45.05-.94-.09-1.37-.14-.44.2-1.03.06-1.47-.14-.44-.17-.86-.27-1.31-.09-.45-.46-.84-.57-1.29-.1-.45-.59-.8-.69-1.25-.1-.45-.31-.87-.41-1.32-.09-.45.45-.99.41-1.45-.04-.46-.37-.9-.41-1.35-.04-.46.31-.99.22-1.44-.09-.45-.2-.94-.34-1.38-.14-.44-1.08-.61-1.21-1.05-.13-.44.37-1.06.28-1.51-.09-.45-.35-.87-.42-1.32-.06-.45-.37-.88-.44-1.33-.06-.45-.2-.88-.28-1.33-.08-.45.55-1.05.45-1.5-.1-.45-.64-.79-.73-1.24-.1-.45-.02-.93-.1-1.38-.08-.45-.26-.89-.38-1.33-.11-.44-.64-.78-.75-1.22-.11-.45-.26-.92-.34-1.37-.08-.45.06-.95,0-1.41-.05-.46.46-.97.41-1.42-.05-.45-.63-.85-.7-1.3-.07-.45.23-.95.2-1.41-.02-.46.04-.92.02-1.38-.02-.46.18-.98.12-1.43-.07-.45-.69-.82-.83-1.26-.14-.44.09-1.02-.05-1.46-.14-.44-.97-.71-1.03-1.16-.06-.45.36-.97.31-1.43-.05-.45.06-.93,0-1.38-.05-.45-.2-.9-.26-1.36-.06-.45-.32-.88-.34-1.34-.03-.46.04-.92.02-1.38-.03-.46.13-.94.07-1.4-.06-.45-.02-.92-.08-1.38-.06-.45-.05-.92-.11-1.37s-.83-.82-.88-1.27c-.05-.46.24-.95.18-1.4-.06-.45-.03-.92-.09-1.37-.05-.45-.56-.86-.6-1.31-.05-.46.58-.98.54-1.43-.04-.45-.55-.87-.59-1.32-.04-.46.03-.92-.02-1.38-.04-.46-.35-.93-.35-1.39,0-.46.44-.9.45-1.36,0-.46.12-.94.08-1.4-.03-.46-.42-.88-.47-1.33-.05-.45.41-.97.36-1.42-.05-.45-.77-.84-.8-1.3-.04-.46,0-.92-.01-1.38-.02-.46.14-.92.12-1.38-.02-.46-.28-.9-.31-1.35-.03-.46.57-.94.55-1.4-.02-.46-.77-.89-.79-1.35-.01-.46.66-.94.63-1.4-.02-.46,0-.94-.05-1.4-.05-.45-.91-.81-.96-1.27-.06-.46.55-.97.53-1.43-.01-.46-.62-.93-.59-1.39.02-.46.11-.91.13-1.37.02-.46.81-.9.8-1.36-.01-.46-.32-.92-.36-1.37-.04-.45-.26-.89-.3-1.35-.04-.46.12-.92.12-1.37,0-.46.32-.91.33-1.36.01-.46-.86-.93-.85-1.38,0-.46.29-.91.29-1.36,0-.46.53-.9.55-1.35.02-.46.11-.91.12-1.36.02-.46,0-.93.01-1.38,0-.46-.6-.91-.62-1.37l-.06-1.37c-.03-.46-.37-.94-.35-1.4.02-.46.5-.9.54-1.36l.07-1.37c.04-.46-.28-.92-.26-1.38.02-.46.23-.9.23-1.36,0-.46.31-.91.33-1.37.01-.46-.15-.92-.12-1.37.03-.46.37-.93.36-1.39-.01-.46-.43-.89-.44-1.35-.01-.46.1-.92.13-1.38.03-.46.05-.92.13-1.37.07-.45.44-.85.52-1.3.08-.45-.29-.97-.25-1.43.04-.46.2-.9.23-1.36.03-.46-.05-.92-.01-1.38.03-.46-.02-.92.02-1.38.04-.46.23-.9.27-1.36.05-.45-.09-.93-.04-1.39.05-.46.41-.88.44-1.33.04-.46-.47-.93-.45-1.39.02-.46.31-.91.33-1.36.02-.46.31-.9.36-1.36.05-.46-.06-.92-.02-1.38l.13-1.37c.04-.46-.24-.95-.19-1.4.05-.46.64-.86.67-1.32.03-.46-.23-.93-.2-1.39.03-.46,0-.93.05-1.38.05-.46.5-.86.57-1.31.07-.45-.5-1-.43-1.46.07-.45.1-.89.15-1.35.05-.46.93-.82.98-1.27.05-.45.04-.92.09-1.37.05-.46.28-.88.33-1.34.06-.45-.71-.99-.67-1.45.04-.46-.05-.92-.02-1.38.04-.46.18-.93.25-1.38.06-.45.25-.9.33-1.35.08-.45.57-.83.65-1.28.08-.45.27-.89.33-1.35.06-.45-.07-.93.01-1.38.09-.45-.01-.94.08-1.39.09-.45.61-.83.68-1.28.07-.45-.07-.95-.03-1.41.03-.46-.27-.93-.24-1.39.03-.46-.12-.96-.05-1.42.08-.45.16-.92.24-1.37.08-.45.38-.86.46-1.31.08-.45.37-.86.44-1.32.07-.45.54-.76.69-1.2.14-.44.11-.94.25-1.38.14-.44.29-.93.36-1.38.08-.45-.06-.95-.02-1.41.03-.46.41-.9.44-1.36.03-.46,0-.88.08-1.33.08-.45.18-.87.29-1.31.11-.44-.51-1.09-.4-1.53.11-.45.77-.76.85-1.21.08-.45.24-.89.31-1.34.08-.45-.36-.99-.28-1.44.08-.45.78-.79.86-1.24.08-.45,0-.97.03-1.43.03-.46-.45-.94-.42-1.4.03-.46.05-.96.13-1.41.08-.45.72-.82.79-1.27.06-.45.05-.92.11-1.37.06-.45-.11-.94-.03-1.39.09-.45.48-.81.62-1.25.14-.44.33-.86.46-1.3.14-.44.11-.95.2-1.4.09-.45.19-.89.29-1.34.11-.45.16-.9.27-1.35.11-.44.16-.9.25-1.35.09-.45-.06-.94.02-1.39.08-.45.08-.92.16-1.36.08-.45.01-.94.1-1.39.09-.45.6-.82.66-1.28.06-.46.57-.86.63-1.32.06-.46-.45-1-.36-1.45.1-.45.45-.85.54-1.3.09-.45-.25-1-.16-1.45.09-.45.66-.81.76-1.26.1-.45.46-.81.59-1.26l.33-1.35c.13-.44-.27-1.03-.17-1.48.1-.45.33-.88.38-1.34.05-.46.22-.91.28-1.37.06-.46-.27-.99-.17-1.44.1-.45.34-.92.51-1.36.17-.43.86-.65,1.03-1.08.17-.44-.38-1.1-.28-1.55.11-.45.22-.91.33-1.36.11-.45.61-.8.72-1.25.11-.45-.1-.97,0-1.42.1-.45.95-.79,1.01-1.25.06-.46.05-.93.11-1.38.06-.46-.01-.9.09-1.35s-.17-.99-.04-1.44c.12-.45.06-.94.18-1.39.12-.45.64-.78.75-1.23.11-.45.33-.9.39-1.37.06-.46-.42-.98-.36-1.44.06-.46.26-.93.37-1.38.11-.45.71-.78.83-1.23.11-.45-.4-1.05-.29-1.5.11-.45.49-.83.6-1.28.11-.45.02-.98.17-1.42.15-.44.81-.69.96-1.13.15-.44-.08-1,.03-1.45.11-.45.23-.89.29-1.35.06-.46.51-.88.57-1.33.06-.46.08-.89.19-1.34.11-.45-.35-1.12-.18-1.55.17-.43,1.11-.53,1.28-.96.17-.43-.15-1.06-.04-1.51.11-.45.27-.88.33-1.35.06-.46.42-.89.48-1.34.07-.46-.34-1.01-.22-1.45.12-.45.83-.69,1-1.13.17-.43.15-.94.32-1.37.17-.43-.07-1,.05-1.44.12-.45.82-.77.92-1.22.09-.45-.65-1.06-.56-1.52.09-.45.28-.92.4-1.36.12-.45.55-.81.66-1.26.11-.45.58-.81.7-1.26.11-.45.14-.91.26-1.36.12-.45.18-.91.29-1.36l.34-1.35c.11-.45-.07-.97.05-1.42.12-.45.77-.78.89-1.24.12-.45-.28-1.04-.16-1.51.12-.46-.13-1.01,0-1.48.12-.46.73-.79.83-1.26.1-.46-.21-1.01-.11-1.48.1-.46.45-.88.57-1.35.12-.46.51-.85.63-1.31.12-.46-.37-1.07-.25-1.53s.67-.81.79-1.28c.12-.46.08-.99.26-1.44.17-.44.16-.97.34-1.41.17-.45.34-.84.46-1.3.12-.46.79-.81.87-1.28.08-.47-.08-.98,0-1.45.08-.47.14-.95.26-1.41.12-.46,0-.98.12-1.44.12-.46.36-.89.48-1.35.12-.47.15-.95.27-1.41.12-.47.92-.69,1.1-1.13.18-.45.11-1,.29-1.44.19-.45.13-.98.25-1.43.11-.4.45-.77.52-1.19.06-.41.22-.82.28-1.23.06-.41-.27-.89-.17-1.3.11-.4.06-.85.17-1.25.11-.4.99-.6,1.1-1,.11-.4-.47-.99-.36-1.39.11-.4.58-.71.69-1.11.11-.4.13-.83.24-1.23.11-.4.07-.84.18-1.25.11-.4.69-.71.78-1.12.08-.41-.43-.92-.35-1.33.08-.41.55-.74.66-1.14.07-.25.13-.46.06-.45-.04,0-.14.09-.27.17-.12.08-.26.1-.28.13Z"/>
  </g>
</svg>