<?xml version="1.0" encoding="UTF-8"?>
<svg id="Layer_1" data-name="Layer 1" xmlns="http://www.w3.org/2000/svg" viewBox="0 0 536.19 622.39">
  <defs>
    <style>
      .cls-1, .cls-2 {
        fill: #8973ff;
      }

      .cls-3 {
        fill: #5e0015;
      }

      .cls-4, .cls-5 {
        fill: #ffd2d4;
      }

      .cls-6 {
        fill: #cefa6d;
      }

      .cls-5 {
        stroke: #ffd2d4;
      }

      .cls-5, .cls-2, .cls-7 {
        stroke-miterlimit: 10;
      }

      .cls-2, .cls-7 {
        stroke: #8973ff;
        stroke-width: .5px;
      }

      .cls-7 {
        fill: none;
      }
    </style>
  </defs>
  <path class="cls-5" d="M372.01,560.65c-26.97,25.22-61.75,41.96-98.28,47.33-26.73,3.93-56.36,1.01-76.7-16.77-26.16-22.87-30-63.55-55.04-87.64-26.29-25.29-69.39-26.14-95.65-51.46-24.79-23.9-27.41-62.05-28.46-96.47-.64-21.14-1.22-42.76,5.25-62.89,12.36-38.42,48.04-64.89,64.96-101.54,13.83-29.94,14.05-64.07,19.68-96.56S127.34,27.54,157.05,13.23c48.1-23.17,103.09,19.21,156.37,15.86,17.6-1.1,34.77-7.27,52.4-6.67,37.22,1.28,66.92,32.23,84.39,65.12,26.17,49.28,34.32,107.88,22.59,162.43-8.77,40.78-28.31,81.38-20.29,122.32,4.07,20.75,14.98,39.48,21.48,59.6,10.77,33.32,8.48,71.75-10.78,101s-91.21,27.74-91.21,27.74Z"/>
  <g>
    <path class="cls-6" d="M275.82,515.51h0s.09-.03.14-.05c.61-.22,1.21-.44,1.8-.68,7.95-3.06,15.55-7.29,22.73-12.58.05-.03.11-.07.15-.11,3.09-7.1,6.17-14.18,9.25-21.28,4.38-10.07,8.76-20.14,13.13-30.21,8.12-18.66,16.25-37.4,22.07-56.88h0c.61-2.05,1.19-4.09,1.75-6.15,7.67-28.26,9.85-57.58,7.95-86.82-.07-1.03-.14-2.05-.22-3.08-.11-1.53-.24-3.05-.38-4.56-2.14-24.09-6.95-48.04-13.69-71.23-1.27-4.38-2.6-8.73-4-13.06h0c-8.94-27.77-20.33-54.65-32.84-81.05-.32-.68-.64-1.36-.97-2.03t-.01-.02s-.06-.07-.1-.1c-.22-.21-.43-.44-.65-.65t-.02-.02c-1.19-1.18-2.38-2.32-3.59-3.45-4.96-4.62-10.1-8.78-15.39-12.43h-.01c-8.41-5.83-17.17-10.37-26.2-13.52-.44-.16-.88-.31-1.33-.45-.41-.14-.82-.27-1.23-.4-.12-.04-.25-.08-.37-.11-36.45,56.21-69.08,148.82-70.2,203.72-1.31,64.82,21.56,129.85,63.16,179.57,7.54,9.02,20.12,23.67,29.05,37.64Z"/>
    <path class="cls-3" d="M274.08,319.3c24.11.11,55.73-6.77,60.06-9.1,4.33-2.33-28.89-11.86-58.44-11.39-29.55.47-65.63,9.29-63.67,11.46,1.96,2.17,37.94,8.92,62.05,9.03Z"/>
    <path class="cls-2" d="M230.23,450.4c27.7,30.22,88.63,16,99.95-11.96l-16.61,45.87-27.02,47.44-56.32-81.34Z"/>
    <path class="cls-6" d="M273.16,68.18c-.34.35-.38.97-.72,1.33-.34.35-.84.55-1.17.91-.33.36-.72.67-1.05,1.03-.33.36-.77.62-1.1.98-.33.36-.61.77-.94,1.13-.33.36-.89.52-1.21.89-.32.37-.03,1.2-.3,1.62-.27.41-1.16.46-1.42.88-.27.42-.49.79-.8,1.17-.31.38-.72.6-1.06.96-.34.35-.5.91-.83,1.26-.34.36-.36,1-.66,1.39-.3.39-.38.87-.64,1.29-.26.42-1.18.46-1.43.88-.25.42-.5.78-.79,1.18-.29.4-.11,1.26-.47,1.61-.35.34-.75.64-1.1.98-.35.35-1.09.32-1.38.72-.29.4-.51.85-.79,1.25-.28.4-.09,1.13-.37,1.53-.27.41-1.17.38-1.45.79-.28.41-.09,1.13-.36,1.54-.27.41-.76.68-1.01,1.1-.27.41-.53.82-.79,1.24-.27.41-.09,1.09-.33,1.52-.25.43-.87.63-1.12,1.06-.25.43-.18,1.05-.45,1.46-.27.41-.91.57-1.21.96-.3.39-.33,1.01-.62,1.39-.3.39-.55.78-.81,1.19-.27.41-.82.65-1.09,1.05-.28.41-.14,1.09-.4,1.5-.26.42-1.19.4-1.44.83-.25.43,0,1.12-.18,1.59-.18.46-.46.9-.65,1.36-.19.46-.82.68-1.07,1.11-.25.43-.21,1.01-.48,1.43-.27.41-.34.97-.61,1.38-.27.42-.47.86-.72,1.29-.25.43-.66.78-.95,1.19-.29.4-.67.74-.94,1.15-.27.42-.66.78-.89,1.22-.23.44-.01,1.12-.24,1.55l-.69,1.32c-.23.44-.94.63-1.17,1.06-.23.44-.46.88-.69,1.32-.23.44-.21,1-.44,1.44-.23.44-.41.9-.64,1.34-.23.44-.34.92-.54,1.38-.2.45-.11,1.01-.29,1.48-.18.46-1.22.54-1.44.99-.22.45-.09,1.06-.34,1.49-.25.42-.32.98-.57,1.4-.26.43-.43.87-.65,1.31-.22.44-.6.8-.8,1.26-.2.45-.02,1.07-.22,1.52-.2.45-.87.7-1.09,1.15-.22.45-.5.88-.68,1.35-.18.46-.66.83-.83,1.29-.18.46.09,1.07-.12,1.52l-.64,1.34-.68,1.32c-.22.44-.46.88-.66,1.33-.21.45-.33.94-.51,1.4-.18.46-.81.75-1,1.21-.18.46-.29.92-.5,1.37-.21.45.04,1.15-.23,1.57-.27.42-1.06.47-1.33.89-.27.42-.38,1.01-.59,1.46-.21.45-.53.83-.74,1.28-.2.45-.35.93-.55,1.38s.26,1.21.07,1.66c-.19.46-1.04.68-1.19,1.16-.15.47.26,1.1.11,1.57-.15.47-.48.91-.68,1.36-.19.46-.86.75-1.03,1.22-.17.47.54,1.22.37,1.69-.17.46-1.16.62-1.36,1.08-.19.46.4,1.23.21,1.69-.19.46-.93.7-1.11,1.16-.18.46-.15,1.01-.33,1.47-.18.46-.62.79-.86,1.23-.23.44-.09,1.1-.33,1.54-.23.44-.77.72-.95,1.18-.18.46.19,1.11.03,1.58-.16.47-.9.74-1.06,1.21-.16.47-.48.87-.66,1.33-.18.46.31,1.2.11,1.65l-.61,1.35c-.19.46-1.09.63-1.26,1.09-.17.47.29,1.15.15,1.62-.15.47-.56.87-.71,1.34s-.28.95-.45,1.42c-.17.47-.22,1-.42,1.45-.21.45-.75.73-.95,1.18-.21.45-.12,1.03-.29,1.49-.17.47-.4.91-.53,1.39-.13.48,0,1.02-.12,1.49-.13.48-.33.97-.5,1.43-.17.47-.53.86-.67,1.34-.14.48.05,1.04-.08,1.52-.14.47-.4.93-.55,1.4-.16.47-.99.65-1.19,1.1-.2.45.24,1.22.04,1.67-.2.45-.47.85-.62,1.32-.16.47-.46.9-.56,1.39l-.27,1.46c-.1.49-.46.89-.62,1.36-.16.47-.13.99-.3,1.46-.16.47-.07,1.02-.23,1.49-.15.47-.5.87-.64,1.35-.14.47-.7.83-.84,1.3-.14.48-.03,1.02-.17,1.5-.14.48-.02,1.02-.16,1.5-.14.47-.17,1.03-.38,1.49-.21.45-.72.74-.93,1.2-.21.45-.01,1.05-.16,1.52-.14.47-.66.84-.81,1.31-.14.48-.03,1.02-.15,1.5-.13.48-.32.94-.45,1.42-.13.48-.05.98-.13,1.47-.08.49-.32.96-.4,1.45-.09.49.04,1.06-.09,1.54-.13.48-.88.78-1.02,1.26-.13.48.04,1.04-.1,1.52-.13.48-.16.98-.29,1.46-.13.48-.71.86-.82,1.34-.11.48.03,1.01-.08,1.5-.11.48-.43.91-.54,1.39-.11.48.15,1.06.05,1.54-.1.48-.45.92-.55,1.4-.1.49.16,1.05.04,1.53-.11.48-.82.77-.98,1.25-.16.47-.18.99-.34,1.46-.16.47-.29.98-.4,1.46-.12.48-.29.98-.37,1.47-.08.49.25,1.03.17,1.52-.09.49-.55.91-.65,1.39-.1.49-.31.94-.41,1.43-.1.49-.12.99-.22,1.48-.1.49.28,1.08.19,1.56-.1.49-.51.9-.63,1.38-.12.48-.39.92-.51,1.41-.12.48-.42.95-.51,1.44-.11.49-.21.95-.31,1.44-.11.48.61,1.16.5,1.64-.1.49-.23.95-.31,1.44-.08.49-.66.92-.7,1.41-.04.5-.26.98-.3,1.48-.04.5.14.99.07,1.48-.08.49.2,1.09.07,1.57-.13.48-.99.72-1.13,1.2-.14.48-.15,1.06-.23,1.56-.08.49.47,1.04.43,1.54-.05.49,0,.99-.01,1.49-.02.5-.19,1.01-.24,1.51s-.38.96-.41,1.46c-.03.5-.41.98-.44,1.47-.03.5.33,1.01.27,1.5-.05.49.15,1.01.1,1.5-.04.49.2,1.01.16,1.5-.04.49-.96.93-1.02,1.42-.07.5.44,1.07.34,1.56-.1.49-.82.81-.91,1.3-.1.5.59,1.14.56,1.63-.03.5-.12.97-.09,1.47.02.5-.3,1.03-.28,1.53.02.5-.2.97-.22,1.47-.03.5.16.99.07,1.48-.1.49.21,1.07.15,1.57-.07.5-.09.94-.09,1.43s-.68,1.09-.6,1.59c.08.49.27.97.35,1.46.08.5,0,.92,0,1.42,0,.5.71,1.03.66,1.53-.05.49-.34.96-.39,1.45-.05.5.05.99.05,1.48,0,.5-.12,1-.11,1.5,0,.5.26,1.01.26,1.5,0,.5-.78.99-.75,1.49.02.5.65.96.7,1.45.05.49.29.97.34,1.46.05.49-.38,1.04-.36,1.54.02.5.38.96.42,1.46.04.49-.17,1.02-.13,1.51.04.49-.17,1-.14,1.5.04.5.69.97.72,1.46.03.5.15.99.17,1.48s-.18.99-.14,1.48c.04.5.06.98.12,1.47l.21,1.47c.06.49.24.99.28,1.48.04.5-.27,1.02-.28,1.53,0,.5.33,1.01.32,1.51,0,.5.07.95.12,1.44.06.49.19.97.26,1.47l.17,1.48c.07.49-.21,1.03-.15,1.52.06.5.34.93.45,1.42.11.48.38.93.49,1.41.11.49.04,1.06.1,1.55.06.49.31.98.36,1.47.04.49.03.99.1,1.48.07.49-.66,1.09-.58,1.58l.27,1.47c.08.49.85.87.94,1.35.08.49.35.95.43,1.44s-.45,1.1-.36,1.58c.1.49.42.92.51,1.41.1.49.23.97.31,1.46.09.49-.15,1.03-.04,1.52.1.49.74.88.84,1.37.1.49-.11,1.03,0,1.51.1.49-.1,1-.03,1.5.07.49.66.94.72,1.43.07.49-.5,1.09-.4,1.58.1.49.9.83.99,1.32.09.49-.06,1.02.03,1.51.09.49-.33,1.09-.22,1.58.12.48.58.9.74,1.37l.49,1.41c.15.47,0,1.02.13,1.5.12.48,1.03.81,1.12,1.3l.27,1.47c.09.49.05.97.17,1.46.12.48-.09,1.06.06,1.54.15.48.73.79.88,1.27.14.48-.25,1.13-.11,1.61.15.48.43.93.61,1.4.18.46.67.8.86,1.26.18.46.11,1.03.25,1.5.15.48.59.89.7,1.37.11.48.43.93.54,1.41.11.48-.56,1.17-.41,1.65.15.48.24.95.37,1.43.12.48.56.88.72,1.35.15.47.52.88.69,1.35.17.47-.08,1.07.07,1.54.16.47.81.79.97,1.26.15.47.21.97.37,1.44.17.47.15,1.04.39,1.48.23.44.78.69,1.01,1.13.24.44,0,1.11.18,1.58.17.47.86.75,1.04,1.22.17.47.03,1.03.2,1.5.17.47.72.79.91,1.25.19.46-.01,1.08.2,1.53.21.45.1,1.06.31,1.51.21.45,1.16.56,1.35,1.02.19.46-.03,1.09.15,1.55.18.46.17,1,.36,1.47.19.46.48.88.68,1.33.21.45.26.92.4,1.4.14.48.06,1.01.2,1.49.14.48.62.92.83,1.38.21.45.8.68,1.07,1.11.27.42.33.99.6,1.41.27.42.18,1.01.39,1.47.21.45.55.82.74,1.29.19.46.78.76.97,1.21.2.45-.16,1.17.08,1.61.23.44.77.75,1.05,1.17.27.42.64.77.91,1.18.28.42.49.86.72,1.3.23.44.09,1,.28,1.47.18.46,1.15.66,1.33,1.12.18.46-.17,1.15.06,1.59.23.44.9.62,1.15,1.04.25.43.21,1.06.48,1.48.28.41.55.82.81,1.25.25.43.68.76.92,1.2s.58.82.82,1.25c.24.44.42.9.67,1.32.25.43.77.76.99,1.21.22.45.32.95.54,1.39.22.45.15,1.03.4,1.46.25.43.64.76.95,1.16.31.39.86.59,1.16.98.31.39.04,1.21.31,1.63.28.41.59.82.89,1.23.29.4,1.02.48,1.31.88.29.4.14,1.12.42,1.54.28.42.33.89.56,1.34.23.44.86.7,1.09,1.14.23.45.17,1.1.48,1.49.3.4,1.07.46,1.37.85.31.39.41.94.72,1.33.31.39.81.64,1.11,1.04.3.4.64.76.95,1.15.31.39.24,1.08.55,1.48.31.39.83.62,1.12,1.01.3.4.51.86.79,1.28.28.41.23,1.05.54,1.44.3.4.79.68,1.11,1.07.32.38.7.71,1.01,1.1l.9,1.2.95,1.16c.32.38.91.52,1.26.88.34.36.88.53,1.22.89.34.36.61.84.93,1.22.32.38.46.92.8,1.28.34.35.76.62,1.11.97.34.35.25,1.1.57,1.46.32.37.78.65,1.12,1.01l1.03,1.05c.34.36.48.85.79,1.23.31.38,1.35.22,1.64.62.28.4.15,1.09.43,1.49.28.4.91.53,1.22.92.31.39.44.91.74,1.3.3.39.15,1.11.45,1.51.29.39,1.14.37,1.44.75.3.39.06,1.2.36,1.59.3.39.69.71.99,1.09.3.39,1.04.44,1.34.83.3.39.39.94.68,1.34s.86.6,1.14,1c.29.4.46.87.75,1.27.29.4-.02,1.23.26,1.63.28.4,1.21.36,1.49.76.28.4.13,1.11.42,1.51.29.39.41.9.69,1.31.28.4,1.22.36,1.5.76.28.4.29.99.58,1.39.29.4.45.89.74,1.29.29.4.71.7,1,1.09.29.4.83.62,1.11,1.02.28.4.35.97.6,1.39.26.42.64.77.9,1.19.25.42.49.83.76,1.24.28.41.31.99.61,1.38l.88,1.18c.3.39.82.62,1.09,1.03.27.41.79.7,1.04,1.12.25.42-.16,1.22.09,1.64.25.42.85.64,1.12,1.05.27.41.62.74.94,1.12.31.38.56.82.87,1.2.31.38.38.93.64,1.35.26.41.7.71.95,1.13l.72,1.28c.25.42.15,1.06.39,1.48.25.42,1,.52,1.27.93.27.4.77.66,1.04,1.06.27.41-.06,1.18.18,1.59.23.42.97.6,1.17,1.04l.55,1.3c.16.43.06,1,.15,1.34.1.29.47.62.61.59.23-.06.46-.03.67,0l.02.08c.18.02.34.04.45-.03.28-.17.52-.23.79-.38v.04c.06,0,.11-.03.17-.06.24-.11.15-1.11.56-1.27.13-.05.71.1.54-.38-.21-.63-.82-.85-1.08-1.31-.26-.44-.29-1.06-.57-1.49-.28-.42-.58-.81-.82-1.25-.25-.44-.25-1.04-.51-1.47-.27-.42-1.01-.54-1.28-.96-.27-.42-.78-.7-1.03-1.13-.25-.43-.55-.85-.8-1.28-.25-.43-.35-.94-.6-1.37-.25-.43-.06-1.12-.32-1.54-.26-.42-.86-.62-1.13-1.04-.27-.41-.3-.99-.58-1.4-.27-.41-.31-.98-.58-1.4-.27-.42-.82-.65-1.12-1.05-.29-.4-.31-1-.61-1.4-.29-.4-1.16-.38-1.44-.79-.28-.41-.56-.83-.84-1.23-.27-.41.05-1.2-.22-1.61-.27-.41-.48-.89-.76-1.3-.28-.41-.9-.58-1.19-.98-.29-.4-.47-.88-.76-1.28-.29-.4-.43-.9-.71-1.3-.28-.4-.72-.69-1-1.1-.27-.41-1.04-.51-1.32-.91-.28-.41-.37-.93-.66-1.33-.29-.4-.07-1.16-.36-1.56l-.86-1.21c-.29-.4-.8-.64-1.09-1.04-.29-.4-.33-.9-.58-1.33-.24-.43-.87-.68-1.11-1.11-.24-.43-.14-1.12-.43-1.52-.29-.4-.69-.78-1.02-1.15-.33-.37-.87-.54-1.2-.91-.33-.37-1.08-.41-1.38-.8-.3-.39-.36-.96-.67-1.34-.32-.38-.45-.91-.77-1.29-.32-.38-.5-.86-.8-1.25-.3-.39-.81-.62-1.11-1.01-.3-.39-.9-.55-1.21-.93l-.92-1.16c-.31-.39-.3-1.04-.57-1.46-.27-.42-.46-.88-.73-1.3-.27-.42-.72-.7-1.04-1.09-.32-.38-.21-1.18-.55-1.54-.34-.36-.89-.51-1.23-.88-.34-.36-.95-.48-1.27-.86-.32-.38-.25-1.05-.54-1.46-.29-.4-.89-.61-1.18-1.01-.29-.4-.33-1-.65-1.37-.31-.37-.54-.82-.86-1.19-.31-.37-.85-.55-1.17-.93-.31-.37-.57-.8-.88-1.17-.31-.37-.71-.68-1.02-1.05l-.93-1.13c-.31-.38-.33-.99-.65-1.36-.31-.38-.77-.73-1.14-1.06-.38-.32-1.18-.11-1.53-.44-.36-.35-.11-1.26-.4-1.66-.29-.39-.57-.7-.8-1.14-.23-.44-.57-.83-.79-1.26-.23-.44-.58-.85-.87-1.24-.29-.39-.72-.69-1.07-1.04-.35-.34-.74-.65-1.09-.99-.35-.35-.82-.62-1.11-1.02-.3-.39-.03-1.11-.26-1.55-.23-.43-.41-.89-.65-1.32-.23-.43-.83-.68-1.1-1.09-.27-.41-.4-.89-.65-1.31-.25-.42-1.09-.51-1.34-.93-.25-.42-.03-1.11-.3-1.51-.27-.41-.5-.88-.81-1.26-.31-.38-.69-.69-1-1.07-.31-.38-.59-.76-.83-1.19-.25-.42-.33-.9-.55-1.35-.21-.44-1.06-.6-1.27-1.04-.21-.44-.1-1.01-.35-1.43-.25-.42-.73-.69-.99-1.1l-.75-1.26c-.26-.41-.17-1.05-.42-1.47-.25-.42-.49-.89-.8-1.28-.3-.39-.43-.93-.72-1.33-.29-.4-.56-.71-.79-1.14-.23-.43-.82-.68-.98-1.16-.14-.47-.29-.95-.43-1.42-.15-.47-.07-1.06-.3-1.49-.23-.43-.54-.87-.84-1.27l-.88-1.19c-.3-.4-.78-.64-1.01-1.08-.23-.43-.48-.88-.65-1.34-.16-.46-.44-.91-.58-1.38-.14-.48-.21-.93-.41-1.38-.21-.44-.51-.78-.79-1.19-.28-.41-.37-.96-.65-1.37-.28-.41-.41-.89-.62-1.34-.21-.44-.44-.87-.63-1.32-.19-.45-.23-.96-.43-1.41-.19-.45-1.06-.61-1.27-1.06-.22-.44,0-1.08-.15-1.55-.15-.47-.68-.82-.83-1.28-.15-.47-.13-.96-.32-1.41-.19-.45-.12-1.01-.32-1.46-.2-.45-.07-1.04-.27-1.49-.2-.45-.29-.92-.47-1.37-.19-.45-.58-.86-.8-1.3-.22-.44-.65-.76-.87-1.2-.22-.44-.53-.84-.69-1.3-.17-.46.2-1.06.09-1.54-.12-.47-.74-.84-.85-1.32-.12-.48.01-1.04-.15-1.5-.16-.46-.3-.92-.44-1.38-.14-.47-.65-.83-.8-1.3-.14-.47-.54-.84-.7-1.3-.17-.46-.09-.99-.29-1.44-.2-.45.03-1.1-.14-1.55-.18-.46-.26-.9-.4-1.37-.14-.47-.56-.85-.71-1.32-.15-.46-.67-.8-.83-1.27-.15-.47-.41-.9-.55-1.37-.14-.47.34-1.09.24-1.57-.09-.48-.48-.92-.57-1.4-.09-.48.19-1.07.05-1.53-.14-.47-.31-.98-.5-1.44-.17-.46-1.12-.58-1.29-1.04-.17-.46.28-1.16.16-1.63-.12-.47-.42-.9-.53-1.38-.1-.48-.44-.91-.55-1.39-.1-.48-.28-.92-.4-1.4-.12-.48.45-1.15.31-1.61-.14-.47-.71-.81-.85-1.28s-.1-.98-.23-1.46c-.13-.47-.33-.93-.47-1.41-.13-.47-.68-.81-.81-1.28-.14-.47-.31-.97-.41-1.45-.1-.48,0-1.02-.08-1.5s.4-1.05.31-1.53c-.08-.48-.68-.88-.78-1.36-.1-.48.17-1.02.11-1.51-.05-.49-.03-.98-.08-1.46-.05-.49.1-1.05.03-1.53-.08-.48-.71-.86-.87-1.33-.16-.47.06-1.09-.09-1.56-.16-.47-1-.73-1.08-1.22-.08-.48.32-1.05.25-1.53-.07-.49.02-.99-.05-1.48-.07-.48-.24-.96-.32-1.45-.08-.48-.36-.94-.42-1.43-.05-.49-.01-.98-.05-1.47-.03-.49.12-1.01.06-1.5-.06-.49-.03-.99-.1-1.48-.07-.48-.07-.98-.14-1.46-.07-.48-.85-.87-.91-1.36-.06-.49.22-1.02.15-1.5-.07-.49-.06-.98-.13-1.47-.07-.48-.58-.92-.65-1.4-.06-.49.55-1.04.5-1.53-.06-.49-.54-.93-.58-1.42-.04-.49.03-.99-.02-1.48-.04-.49-.35-1-.35-1.49,0-.49.44-.96.45-1.45,0-.49.12-1.01.08-1.5-.04-.49-.43-.94-.49-1.43-.06-.49.4-1.03.34-1.52-.06-.49-.78-.91-.82-1.4-.05-.49,0-.99,0-1.48,0-.49.16-.98.15-1.47,0-.49-.27-.97-.29-1.46-.02-.49.59-1,.58-1.49-.01-.49-.76-.97-.77-1.46-.01-.49.66-1,.64-1.48-.02-.49,0-1.01-.04-1.5-.05-.49-.91-.89-.96-1.38-.05-.49.52-1.03.53-1.52,0-.49-.59-1.01-.56-1.51.03-.49.13-.98.17-1.47.03-.49.83-.95.83-1.44,0-.49-.3-.99-.33-1.48-.03-.49-.23-.96-.26-1.45-.03-.49.15-.98.15-1.47,0-.49.31-.97.32-1.45.01-.49-.88-1.01-.85-1.5.03-.49.33-.96.36-1.45.03-.49.58-.94.62-1.43.04-.49.15-.96.19-1.45.04-.48.06-.99.08-1.47.03-.49-.55-.99-.57-1.48l-.02-1.47c-.02-.49-.34-1.02-.32-1.51.03-.49.57-.94.65-1.42l.19-1.46c.08-.48-.2-1-.15-1.49.05-.49.3-.94.34-1.43.04-.49.39-.96.43-1.44.04-.49-.09-.99-.04-1.48.05-.49.43-.97.44-1.46.01-.49-.38-.99-.36-1.48.04-.49.2-.97.28-1.46.08-.49.15-.97.28-1.45.12-.48.54-.87.66-1.34.12-.48-.18-1.06-.1-1.54.08-.48.28-.95.35-1.43.07-.48.04-.99.11-1.47.07-.48.06-.98.14-1.47.08-.48.3-.94.39-1.43.08-.48.02-1,.12-1.48.11-.48.52-.89.62-1.37.1-.48-.34-1.03-.27-1.52.07-.49.41-.94.48-1.42.07-.49.41-.93.51-1.41.1-.48.04-.99.13-1.47l.28-1.45c.09-.48-.13-1.03-.03-1.51.1-.48.73-.86.81-1.34.09-.48-.09-1.01,0-1.49.1-.48.12-.98.23-1.46.11-.48.61-.86.73-1.33.13-.47-.36-1.12-.24-1.59.13-.47.21-.94.32-1.42.11-.48,1.03-.77,1.14-1.25.11-.48.16-.97.26-1.45.11-.48.39-.91.5-1.39.11-.48-.58-1.13-.49-1.62.09-.48.08-.98.18-1.47.11-.48.32-.97.45-1.44.13-.48.38-.93.53-1.4.14-.47.69-.82.83-1.29.14-.47.4-.92.53-1.39.13-.48.06-1,.22-1.46.15-.47.13-1,.28-1.47.15-.47.71-.81.84-1.29.13-.48.06-1.02.15-1.51.09-.48-.15-1.03-.04-1.5.11-.48.04-1.03.18-1.5.15-.47.31-.95.46-1.42.15-.47.52-.87.67-1.33.15-.47.51-.87.65-1.34.14-.47.67-.74.87-1.19.21-.45.25-.99.45-1.43.21-.45.43-.95.57-1.42.14-.47.09-1.01.19-1.5.1-.48.54-.9.64-1.38.09-.48.15-.93.3-1.39.15-.47.33-.89.52-1.34.19-.45-.32-1.21-.13-1.67.19-.46.89-.7,1.04-1.17.15-.47.38-.91.53-1.38.15-.47-.2-1.1-.05-1.56.15-.47.91-.73,1.06-1.2.16-.47.16-1.02.27-1.51.1-.48-.29-1.05-.19-1.53.11-.48.21-1.01.37-1.48.15-.47.86-.76,1.01-1.23.15-.47.22-.96.36-1.43.15-.47.06-1.01.22-1.47.17-.46.62-.79.84-1.24.21-.44.48-.86.69-1.3.21-.44.28-.99.45-1.45.17-.46.35-.91.53-1.37l.5-1.38c.19-.46.31-.93.48-1.39.17-.46.1-1,.26-1.47.15-.47.25-.95.42-1.41.17-.46.2-.99.37-1.44.18-.46.76-.77.91-1.25.15-.47.73-.82.88-1.29.15-.47-.25-1.12-.07-1.58s.6-.83.78-1.29c.18-.46-.07-1.09.11-1.55.18-.46.81-.75.99-1.21.18-.46.61-.79.82-1.24l.58-1.37c.21-.45-.05-1.12.14-1.58.19-.46.52-.86.66-1.34.15-.47.41-.92.55-1.39.15-.47-.07-1.08.13-1.54.19-.46.52-.91.78-1.34.26-.43.98-.54,1.24-.96.26-.43-.15-1.21.04-1.67.2-.45.4-.92.6-1.37.2-.45.77-.74.97-1.19.2-.45.09-1.04.29-1.5.2-.46,1.11-.66,1.27-1.13.16-.47.25-.96.41-1.42.16-.47.19-.94.39-1.4s.06-1.07.28-1.51c.22-.44.27-.98.49-1.42.22-.45.81-.7,1.01-1.16.2-.45.52-.89.68-1.36.16-.47-.2-1.1-.04-1.57.16-.47.46-.93.67-1.38.21-.45.87-.69,1.08-1.13.22-.44-.14-1.17.08-1.61.22-.44.69-.77.91-1.21.22-.45.26-1.01.51-1.44.25-.43.96-.57,1.21-1,.25-.43.16-1.05.37-1.5.22-.45.44-.88.61-1.35.17-.47.71-.81.88-1.28.17-.47.29-.92.51-1.36.22-.45-.08-1.23.19-1.65.27-.42,1.21-.34,1.5-.74.28-.41.12-1.12.35-1.56.23-.44.49-.86.68-1.32.18-.46.64-.83.83-1.29.18-.46-.07-1.11.16-1.55.23-.44,1-.54,1.28-.96.27-.41.39-.94.66-1.36.27-.41.18-1.05.41-1.49.23-.44,1-.62,1.21-1.07.21-.45-.37-1.25-.15-1.69.22-.44.54-.87.78-1.3.24-.43.77-.7,1.01-1.14.24-.44.8-.7,1.04-1.13s.4-.9.64-1.33c.24-.43.44-.9.67-1.33l.71-1.31c.23-.44.21-1.02.45-1.45.24-.44.96-.62,1.21-1.07.24-.44,0-1.15.28-1.59.26-.43.19-1.06.45-1.5.26-.43.96-.62,1.21-1.07.24-.44.11-1.08.35-1.53.24-.45.71-.78.97-1.23.26-.44.76-.73,1.02-1.17.26-.43-.02-1.19.24-1.63.26-.44.9-.65,1.16-1.1.26-.44.39-1,.7-1.41.3-.41.47-.94.79-1.34.32-.41.6-.76.87-1.19.27-.43,1.04-.59,1.27-1.04.24-.45.26-1.01.49-1.46.24-.45.46-.92.74-1.35.28-.43.35-.99.62-1.42.28-.43.67-.79.94-1.21.28-.43.49-.91.77-1.33.29-.43,1.13-.41,1.47-.79.34-.39.48-.96.81-1.34.35-.39.49-.93.78-1.34.25-.37.73-.61.95-1.01.22-.39.52-.74.74-1.12.22-.39.09-.98.35-1.34.26-.36.4-.82.66-1.18.27-.36,1.17-.25,1.44-.6.27-.35-.03-1.13.23-1.49.27-.36.84-.49,1.12-.84.28-.35.46-.77.75-1.12.28-.35.43-.8.7-1.15.28-.35.96-.43,1.22-.79.26-.36.01-1.06.27-1.42.26-.36.85-.5,1.13-.85.15-.19.3-.3.25-.39-.05-.1-.41-.19-.63.04Z"/>
    <path class="cls-6" d="M273.6,68.69c.2.42.75.68.96,1.1.2.42.19.95.39,1.37.2.42.34.88.54,1.31.2.42.26.91.46,1.34.2.42.45.83.65,1.25.2.43.11.99.31,1.41.2.43,1.07.47,1.33.88.26.4-.08,1.2.18,1.6.26.4.49.74.7,1.17.2.43.22.87.38,1.32.16.44.59.8.75,1.24.16.44.72.73.92,1.15.2.43.59.7.84,1.1.25.4-.14,1.22.11,1.62.25.4.45.77.65,1.19.2.43,1.04.65,1.17,1.11.13.46.19.93.32,1.38.13.46-.25,1.08-.05,1.5.2.43.47.82.68,1.24.21.42.92.59,1.13,1.01.21.42-.26,1.17-.06,1.59.2.43.91.6,1.13,1.02.21.42.18.96.4,1.38.21.42.41.84.61,1.27.2.43.86.6,1.09,1.02.23.41.07,1.04.29,1.46.23.41.78.67.98,1.09.2.43-.01,1.04.15,1.48.17.44.67.77.83,1.21.17.44.36.84.56,1.26.2.43.1.99.29,1.42.19.43.81.68,1,1.11.19.43-.35,1.19-.14,1.61.21.43.91.58,1.19.98.27.39.46.85.73,1.24.27.4.08,1.02.29,1.45.21.43.7.7.88,1.15.18.44.59.79.77,1.23.18.44.42.84.63,1.26.21.43.25.94.41,1.39.16.45.19.94.35,1.39.16.45.22.96.42,1.39.21.43.87.63,1.07,1.06l.62,1.28c.21.43-.08,1.09.13,1.52l.16.34.52.68c-.38-.3-.69-.92-.71-1.41l.21.76.44.92c.21.42.65.72.86,1.15.21.43.45.83.65,1.26.2.43.52.79.75,1.21.23.41.73.67.97,1.08.23.41-.36,1.26-.16,1.69.2.43.75.69.91,1.14.16.45.54.82.7,1.27.16.45.39.84.58,1.27.2.43.23.93.44,1.36.21.42.8.65,1.01,1.08s-.03,1.08.17,1.51c.2.43.34.91.58,1.32.24.41.2.99.43,1.4.23.41.85.59,1.05,1.03l.55,1.31.51,1.33c.18.44.34.89.53,1.32.19.43.47.83.68,1.26.21.42,0,1.07.21,1.49.21.42.47.8.66,1.23.19.44.86.7.99,1.17.12.46-.38,1.06-.26,1.52.12.46.48.92.66,1.36.19.44.23.92.4,1.36.17.44.41.86.58,1.3.17.44,1.03.61,1.21,1.04.18.44-.25,1.18-.02,1.6.23.42.96.54,1.18.96.22.42.29.94.47,1.38.18.44-.09,1.1.12,1.52.2.43,1.24.45,1.44.88.2.43-.39,1.22-.22,1.66.18.44,1.14.55,1.32.99.18.44-.2,1.11-.02,1.55.18.44.57.79.75,1.23.18.44.07.97.19,1.43.12.46.66.83.78,1.29.12.46-.09,1.01.08,1.45s.89.65,1.08,1.08c.19.43-.18,1.12.01,1.55.19.44.22.92.39,1.37.17.44,1.02.64,1.18,1.09l.44,1.35c.15.45-.43,1.16-.26,1.6.17.44.95.64,1.14,1.07.19.44.12.99.31,1.42.19.44.39.87.55,1.31.16.45.46.87.58,1.33.12.46-.12,1,0,1.46.12.46.55.83.72,1.27.16.45.26.91.46,1.34.19.43.64.74.83,1.18.19.43.35.92.5,1.37.16.45.1.97.27,1.41.18.44.67.75.83,1.19.17.44.23.94.39,1.39.15.45-.41,1.08-.3,1.54.11.46.91.78,1.02,1.24.11.46.13.92.27,1.37.15.45.15.96.36,1.39l.64,1.28c.2.43.14.95.29,1.4.04.12.09.23.14.34l-.08-.41h0s.08.42.08.42c.15.31.35.61.44.95.13.46.5.84.62,1.3.13.46.06.97.2,1.42.14.45-.13,1.04,0,1.49.14.45.53.82.67,1.27.14.45.54.82.68,1.27.14.45.42.91.49,1.39.07.47-.19.98-.12,1.44.07.47.56.84.7,1.29.14.45-.1,1.01.04,1.47.13.45.52.83.65,1.29.13.45.2.93.33,1.38.13.46.45.82.62,1.26.17.44.2.94.37,1.39.17.44.56.85.69,1.31.12.46-.37,1.08-.26,1.53.12.46.54.84.65,1.3.11.46.33.89.45,1.35.12.46-.2,1.05-.06,1.5.14.45.51.83.65,1.28.14.45.03.96.15,1.42.11.46.61.82.74,1.28.13.46.01.98.13,1.44.12.46.6.82.71,1.28.11.46-.4,1.02-.33,1.49.06.47.28.92.33,1.39.06.47.16.96.27,1.42.1.46.16.96.3,1.42.14.45.67.78.8,1.23.13.46-.14,1.01-.04,1.47.1.46.08.94.17,1.41.09.46.27.91.37,1.37.09.46.67.83.76,1.3.09.46-.14.99-.07,1.46.07.47-.01.96.06,1.42.07.47-.03.99.05,1.45.08.47.16.92.23,1.38.07.47.99.81,1.07,1.28.08.47.09.93.17,1.4.08.47-.34,1.04-.21,1.5.12.46.07.97.19,1.42.12.46.45.84.53,1.31.08.47.53.92.54,1.4.02.47-.72.95-.71,1.42.02.48.19,1,.26,1.47.07.47.76.81.87,1.27.11.46.28.91.39,1.37.11.46.07.98.14,1.45.07.47-.14.98-.05,1.45.09.46-.17,1-.08,1.46.09.46.56.85.62,1.32.07.47.37.9.44,1.37.07.47.42.89.49,1.36.07.47-.73,1.06-.67,1.53.06.47.62.91.6,1.39-.02.48-.68.9-.7,1.38-.02.48.76.96.81,1.43.05.47.04.92.13,1.39.09.46-.15,1.01-.06,1.47.09.47-.06.94-.01,1.41.04.47.31.91.28,1.38-.03.47.34.99.31,1.46-.03.48-.02.9.02,1.37.04.47-.59,1.09-.47,1.56.11.46.33.89.45,1.36.11.47.06.87.1,1.34.03.47.77.94.75,1.42-.02.47-.29.93-.31,1.4-.02.47.1.93.12,1.41.03.47-.05.96-.05,1.43,0,.47.26.95.25,1.43,0,.47-.78.95-.76,1.42.02.47.65.91.69,1.38.04.47.29.92.33,1.39.04.47-.4.99-.39,1.46,0,.47.36.92.39,1.4.03.47-.19.96-.16,1.44.03.47-.18.95-.18,1.42,0,.47.61.96.6,1.43-.01.47.07.95.05,1.42-.01.47-.26.93-.26,1.4,0,.47-.02.94-.01,1.41l.07,1.42c.01.47.14.96.13,1.43,0,.48-.37.94-.43,1.41-.05.47.22.99.15,1.46-.06.47-.08.9-.1,1.37-.02.47.03.94.02,1.42l-.07,1.42c0,.47-.39.93-.41,1.4-.03.47.17.92.19,1.4.02.47.21.93.23,1.41.02.48-.15,1-.18,1.47-.03.47.11.97.06,1.44-.05.47-.18.93-.23,1.4-.05.47-.9.86-.94,1.33l-.09,1.41c-.04.47.61,1,.56,1.47-.04.47.09.96.05,1.43-.05.47-.72.89-.75,1.36-.03.47.17.96.13,1.43-.04.47-.05.95-.11,1.42-.06.47-.41.9-.48,1.37-.06.47.42,1.02.36,1.49-.06.47-.42.89-.49,1.36-.07.47-.43.87-.53,1.33-.1.46.3,1.05.2,1.51-.1.46-.84.8-.9,1.27-.06.47.56,1.05.47,1.52-.09.46-.42.88-.51,1.35-.09.46-.69.84-.76,1.31-.08.47.18,1,.13,1.47l-.13,1.41c-.06.47-.42.87-.51,1.34-.09.46.6,1.11.48,1.57l-.37,1.37c-.13.46-.38.85-.48,1.31-.1.46-.54.86-.61,1.33-.07.47.31,1,.24,1.47-.07.47-.74.83-.84,1.29-.11.46-.09.97-.16,1.43-.07.47.19.98.12,1.44-.07.47-.41.89-.52,1.35-.11.46.08,1.02-.08,1.47-.15.45-.11.97-.26,1.42-.15.45-1.08.65-1.19,1.11-.12.46-.28.88-.41,1.33-.13.45.02,1-.13,1.45-.15.45-.08.96-.2,1.42-.13.45-.68.78-.82,1.23-.14.45.21,1.06.07,1.51-.14.45-.39.86-.51,1.32v.05s.37-.71.37-.71h0s-.23.26-.23.26l-.16.46c-.15.43-.46.84-.53,1.29-.07.47.22.98.16,1.45-.07.48-.64.84-.78,1.3-.14.45.25,1.09.09,1.54-.16.45-.62.78-.79,1.22-.16.45.06,1.02-.08,1.47-.15.45-.7.78-.82,1.24-.12.46-.59.83-.71,1.29-.12.46.53,1.14.38,1.59-.15.45-.72.76-.87,1.21-.15.45-.5.83-.66,1.28-.15.45-.19.94-.34,1.39-.15.45-.43.81-.65,1.24-.22.42-.64.74-.86,1.16-.22.43-.17,1.05-.32,1.5-.15.45.12,1,.03,1.47-.09.47-.42.9-.52,1.37-.09.47-.55.82-.7,1.27-.15.45-.16.94-.33,1.38-.17.44.06,1.05-.11,1.5-.17.44-.95.67-1.1,1.12-.15.45,0,1.03-.1,1.5-.1.47-.1.95-.2,1.42-.1.47-.27.91-.42,1.36-.15.46-.64.73-.85,1.17-.2.43.34,1.24.14,1.68-.2.44-.93.64-1.08,1.09-.15.46.2,1.04.08,1.51-.12.46-.63.83-.75,1.3-.12.46-.23.92-.37,1.37-.14.46-.1.97-.26,1.42-.16.45-.21.94-.36,1.39-.15.45-.37.88-.51,1.33-.14.46-.03,1.04-.21,1.49-.17.44-.46.84-.63,1.29-.17.45-.64.77-.78,1.23-.13.46-.13.95-.22,1.42-.09.47.12.99.03,1.46-.09.47-.89.79-1.02,1.25-.13.46-.23.95-.33,1.42-.1.47.32,1.05.22,1.51-.1.47-.74.81-.86,1.27-.13.46-.45.78-.64,1.22-.18.43.04,1.05-.14,1.48-.19.44-.7.77-.83,1.22-.13.45.3,1.06.18,1.51-.12.45-.47.84-.61,1.29-.14.45-.05.97-.2,1.41-.15.45-.25.9-.39,1.35-.14.45-.74.76-.88,1.2-.14.45-.03.98-.18,1.43-.16.44-.39.86-.59,1.28-.19.43-.73.7-.92,1.13-.19.43-.19.96-.36,1.4s-.27.9-.44,1.34l-.58,1.28c-.18.43-.35.88-.54,1.31-.19.43-.02,1-.18,1.44-.16.44-.06.98-.22,1.42-.16.45-.45.87-.64,1.31-.19.44-.59.77-.75,1.22-.16.44-.2.93-.38,1.37-.17.44-.88.65-1.08,1.08-.2.43-.26.95-.43,1.39l-.48,1.33c-.17.44-.55.76-.75,1.19-.2.43.4,1.28.16,1.69-.24.41-.9.57-1.14.98-.24.41-.07,1.02-.28,1.44-.21.42-.62.76-.83,1.18-.22.42-.93.58-1.14,1-.22.42.19,1.16-.03,1.58-.22.42-1.05.53-1.26.95-.21.42-.33.89-.55,1.31-.21.42.07,1.1-.15,1.52-.22.42-.66.72-.89,1.14-.23.42-.15,1-.39,1.41-.23.41-.58.75-.81,1.17-.23.42-1.1.47-1.34.88-.23.41.21,1.21-.03,1.62-.23.41-.93.56-1.16.98-.22.42-.63.72-.86,1.13s.21,1.22-.03,1.63c-.24.41-.76.65-.99,1.07-.23.41-.61.75-.83,1.17-.23.42-.3.91-.53,1.33-.23.41-.2.98-.43,1.39-.24.41-.72.69-.98,1.09-.26.4-.41.87-.67,1.27-.26.4-.52.77-.76,1.18-.23.41-.74.68-.96,1.1l-.67,1.26c-.21.42-.19.98-.43,1.39-.24.41-.27.98-.53,1.38-.26.4-1.15.36-1.41.76-.26.4-.19,1.01-.43,1.42-.24.41-.37.86-.56,1.31-.19.44-.47.84-.66,1.28-.19.44-.65.73-.89,1.14-.24.41-.29.93-.54,1.34l-.78,1.2c-.25.4-.86.61-1.1,1.02-.24.42.04,1.12-.18,1.55-.21.43-.18.97-.4,1.4-.22.42-1.02.56-1.25.98-.23.43.02,1.14-.25,1.54-.26.41-.5.81-.75,1.24-.25.43-.78.68-1,1.13-.18.37-.2.94-.07.99.41.17.6.64.87.69.37.06.62.21.99.27.27.05.85-.6,1.26-.41.13.06.47.48.63.15.19-.4.01-.97.17-1.4.16-.42.62-.76.8-1.18.19-.43.34-.86.56-1.27.22-.41.69-.7.92-1.11.22-.42-.06-1.09.16-1.51.22-.42.2-.98.44-1.39.23-.41.46-.86.71-1.26.25-.4.65-.71.9-1.11.25-.4.94-.53,1.18-.94.24-.41.14-1.01.38-1.42.24-.41.73-.68.96-1.09.24-.41.72-.68.96-1.09.24-.41.2-.99.42-1.41.22-.42.75-.68.97-1.1.22-.42-.19-1.18.05-1.59.24-.41.47-.84.72-1.24.25-.4,1.09-.44,1.34-.84.25-.4.58-.77.82-1.19.24-.41.12-1.03.34-1.45.23-.42.58-.77.81-1.19.23-.42.62-.73.85-1.15.24-.41.3-.91.55-1.32.25-.41-.01-1.13.24-1.54.25-.41.66-.7.9-1.11.23-.41,1-.53,1.24-.94l.71-1.24c.23-.42.23-.96.46-1.38.23-.42.65-.65.94-1.04.28-.39.23-1.04.51-1.43.28-.39.94-.57,1.17-.99.23-.42.4-.92.59-1.36.19-.44.11-.98.29-1.42.18-.44-.11-1.12.11-1.55.22-.42.69-.7.9-1.14.2-.43.62-.76.83-1.2.2-.43.55-.78.78-1.2.22-.42.2-.97.41-1.39.21-.43.08-1.03.29-1.45l.64-1.28c.21-.43.8-.68,1.06-1.08.26-.4.59-.76.84-1.16.26-.4.31-.92.52-1.35.2-.43.95-.66,1.13-1.11.17-.45.07-.99.24-1.44.17-.45.03-1.02.23-1.46.2-.43.84-.63,1.08-1.05.24-.41.16-1.02.38-1.45.23-.42.73-.72.92-1.16.19-.44.47-.84.66-1.28.19-.44.1-1,.29-1.44.19-.44.45-.85.64-1.29.2-.44.26-.93.44-1.37l.53-1.34c.18-.45.7-.76.87-1.21.18-.45.26-1.01.37-1.49.1-.47-.52-1.05-.42-1.52.11-.47.99-.75,1.14-1.2.16-.46.26-.85.49-1.28.23-.43.36-.92.59-1.35.23-.43.37-.94.53-1.4.16-.46.16-.97.24-1.45.09-.47.07-.97.14-1.45.06-.48,0-1.01.13-1.47.13-.46.87-.69,1.04-1.15.18-.45.41-.88.58-1.33.18-.45-.02-1.07.11-1.53.12-.46.39-.86.54-1.3.15-.45-.35-1.12-.2-1.57.15-.45.8-.72.93-1.17.13-.46.33-.91.41-1.38.08-.46.07-.94.15-1.41.08-.47.21-.91.34-1.36.13-.45.42-.83.6-1.27.18-.44-.29-1.16-.11-1.6.18-.44.67-.73.81-1.18.14-.45,0-.97.13-1.43.12-.46.29-.9.42-1.36.13-.46.66-.8.8-1.25.14-.45.33-.93.4-1.4.08-.47.42-.91.49-1.37.08-.47.11-.87.25-1.32.15-.45-.09-1.04.14-1.47.23-.41.47-.84.7-1.25.23-.42.7-.76.85-1.21.15-.45.24-.97.32-1.44l.24-1.41c.08-.47-.09-.98.06-1.43.15-.45.29-.92.51-1.35.22-.42.3-.93.52-1.35.22-.43.48-.79.63-1.24.15-.45.16-.89.23-1.37.08-.47.38-.92.46-1.39.08-.48.31-.9.46-1.35.15-.45.27-.91.44-1.35.17-.45.48-.83.65-1.28.16-.45-.36-1.13-.21-1.59.15-.45.72-.77.9-1.21.18-.44,0-1.04.19-1.48.18-.44.51-.79.66-1.24.15-.45.55-.82.69-1.28.14-.46.61-.82.74-1.28.13-.46.37-.87.51-1.32.15-.45.1-1,.21-1.47.11-.46-.02-.98.08-1.44.11-.47.12-.95.26-1.41.14-.46.79-.69.98-1.13.18-.44-.09-1.1.09-1.54.19-.44.62-.8.76-1.26l.09-.28-.42.76h0s.26-.3.26-.3l.16-.47c.12-.35.23-.7.35-1.06.15-.45-.05-1.04.1-1.49.15-.45.04-.97.17-1.43.13-.46.5-.84.59-1.31.09-.47.68-.86.76-1.33.08-.47.25-.89.37-1.35.12-.46-.03-1,.08-1.47.11-.47-.16-1.02-.05-1.48.11-.46.12-.96.22-1.43.11-.47.83-.75.99-1.2.16-.45.05-1.01.21-1.47.16-.45.7-.82.81-1.28.11-.47.21-.99.26-1.47.05-.48-.75-1.03-.69-1.5.05-.48.76-.88.86-1.35.1-.47.02-.98.13-1.44.12-.46-.02-.99.1-1.46.11-.47.13-.93.22-1.4.09-.47.89-.83.96-1.3.07-.47-.31-1.01-.23-1.48.06-.47.3-.92.38-1.39.08-.47.05-.97.09-1.45.04-.48-.34-.98-.3-1.46.04-.48.06-.99.13-1.46.07-.47.34-.93.43-1.4.09-.47.73-.83.82-1.3.09-.47-.34-1.03-.28-1.51.06-.48.51-.88.61-1.35.1-.47.29-.91.39-1.38.11-.47.44-.94.5-1.42.06-.48-.44-1.01-.46-1.5-.02-.48.36-1.01.33-1.49-.03-.49-.78-.96-.73-1.44.05-.47.58-.9.64-1.37.06-.47.27-.93.33-1.41.06-.48.01-.97.05-1.44.04-.48-.13-.97-.06-1.45.07-.47.23-.93.3-1.41.07-.47.32-.94.36-1.42.04-.48.15-.96.18-1.43.02-.48.11-.95.13-1.43.02-.48-.68-.99-.65-1.47.03-.48.4-.94.42-1.42.01-.48.1-.95.11-1.43,0-.48-.43-.97-.41-1.45.02-.48.71-.93.73-1.41.02-.48-.42-.97-.4-1.45.01-.48.12-.95.13-1.43,0-.48-.25-1-.19-1.48.06-.47.54-.89.59-1.36.05-.48.23-.97.22-1.45,0-.48-.35-.96-.37-1.43-.02-.48.48-.98.47-1.46-.02-.48-.7-.94-.71-1.41,0-.48.07-.96.07-1.44,0-.48.18-.95.18-1.43,0-.48-.24-.95-.25-1.43,0-.48.61-.96.61-1.44,0-.48-.74-.95-.76-1.43,0-.48.67-.97.65-1.45-.02-.48.01-.99-.04-1.47-.05-.48-.9-.85-.95-1.33-.04-.48.53-1.02.5-1.49-.03-.48-.65-.97-.64-1.44,0-.48.08-.95.09-1.43,0-.48.78-.97.75-1.45-.03-.48-.36-.95-.42-1.42-.06-.47-.3-.92-.36-1.4-.06-.47.07-.97.04-1.44-.04-.48.23-.97.2-1.45-.03-.48-.95-.9-.98-1.38-.03-.48.2-.97.15-1.44-.05-.48.44-.98.41-1.46-.03-.48.01-.96-.02-1.44-.03-.48-.09-.97-.14-1.45-.05-.48-.7-.87-.8-1.34l-.26-1.41c-.09-.47-.5-.92-.55-1.39-.06-.47.35-1,.32-1.48l-.15-1.43c-.03-.48-.42-.91-.48-1.38-.06-.47.07-.96-.01-1.43-.08-.47.15-1,.07-1.47-.08-.47-.33-.91-.39-1.39-.06-.47.17-1.03.06-1.5-.11-.47-.61-.83-.72-1.29-.11-.47-.09-.96-.16-1.43-.07-.47-.15-.95-.18-1.43-.03-.48.24-.96.21-1.44-.03-.48-.5-.93-.57-1.4-.08-.47-.03-.96-.12-1.43-.09-.47-.28-.92-.37-1.39-.09-.47-.25-.92-.34-1.39-.08-.47-.01-.97-.09-1.44-.08-.47-.34-.91-.42-1.38-.08-.47.15-.99.06-1.46-.09-.47-.7-.81-.81-1.27-.11-.46.02-.99-.09-1.45-.12-.46.02-.99-.07-1.46-.09-.47-.33-.9-.44-1.37l-.3-1.4c-.11-.46-.52-.87-.62-1.33-.1-.47.33-1.06.22-1.52-.11-.46-.51-.85-.63-1.31-.12-.46-.32-.91-.42-1.37-.1-.46.17-1.01.08-1.48-.09-.47-.81-.82-.91-1.28-.1-.47-.23-.91-.34-1.37-.11-.46.58-1.12.47-1.59-.12-.46-.29-.91-.41-1.37-.12-.46-.07-.96-.18-1.42-.12-.46-1.03-.71-1.16-1.16-.14-.46-.4-.87-.54-1.33-.14-.45-.19-.96-.31-1.42-.12-.46-.12-.96-.23-1.43-.11-.46.2-1.02.09-1.49-.11-.46-.11-.96-.24-1.42-.13-.46-.44-.86-.54-1.33-.1-.47-.39-.9-.49-1.36-.1-.47.2-1.04.07-1.5-.13-.46-.47-.88-.63-1.33-.17-.45-.64-.77-.81-1.22-.16-.45-.52-.86-.66-1.32-.13-.46-.26-.93-.39-1.39-.13-.46-.04-.97-.17-1.43-.13-.46-.05-.98-.19-1.43-.14-.46.15-.96.08-1.43-.07-.47-.34-.93-.41-1.4-.07-.48-.17-1-.31-1.45-.14-.46-.48-.86-.67-1.3-.18-.44-.05-1.03-.23-1.47-.18-.44-.4-.82-.54-1.27-.02-.06-.04-.12-.05-.18l.1.49h0s-.01-.23-.01-.23l-.08-.27c-.12-.39-.21-.76-.31-1.16-.12-.46-.97-.76-1.08-1.22-.12-.46.3-1.06.15-1.52-.15-.45-.23-.93-.38-1.38-.16-.45-.81-.73-.97-1.18s.29-1.1.14-1.55c-.15-.45-.48-.88-.68-1.32-.2-.43-.85-.63-1.06-1.06-.21-.43-.44-.9-.6-1.35-.16-.45.21-1.1.03-1.54-.18-.44-.43-.85-.61-1.29-.18-.44-.58-.79-.75-1.23-.16-.45-.02-.98-.13-1.44-.12-.46-.17-.94-.29-1.4-.12-.46-.4-.91-.57-1.36-.15-.45-.31-.89-.46-1.35l-.5-1.34c-.15-.45-.35-.89-.52-1.33-.17-.45-.56-.8-.74-1.24-.17-.44-.43-.85-.61-1.29-.18-.44-.51-.83-.68-1.27-.17-.45.05-1.05-.15-1.49-.2-.44,0-1.07-.21-1.51-.2-.44-.94-.62-1.11-1.07-.18-.45-.11-.99-.29-1.43s-.78-.72-.96-1.17c-.18-.45.09-1.07-.09-1.52-.18-.45-.09-.96-.24-1.42l-.5-1.35c-.15-.46-.81-.74-.99-1.18-.18-.45-.23-.95-.46-1.37-.23-.42-.36-.91-.58-1.33-.23-.43-.81-.69-.99-1.13-.19-.44-.27-.98-.39-1.45-.12-.47.32-1.05.19-1.52-.12-.47-.96-.71-1.15-1.15-.18-.44-.37-.9-.55-1.34-.18-.44.02-1.04-.16-1.49-.18-.45-.67-.76-.86-1.2-.19-.44.27-1.23.04-1.65-.23-.42-.53-.81-.76-1.23-.23-.42-.56-.75-.75-1.19-.19-.44-.74-.73-.92-1.18-.18-.45-.54-.82-.72-1.27-.18-.45.03-1.04-.17-1.48-.2-.44-.31-.95-.54-1.37-.24-.42-.94-.55-1.18-.96-.24-.42-.37-.93-.57-1.37-.2-.44.07-1.08-.12-1.52-.2-.44-.97-.62-1.17-1.05-.2-.44-.14-.99-.34-1.42-.2-.44-.61-.81-.77-1.27-.16-.45.18-1.08.02-1.53-.17-.45-.7-.76-.9-1.2-.2-.44-.39-.86-.64-1.28-.25-.41-.17-1.03-.42-1.45-.25-.41-.51-.77-.72-1.21-.2-.44-.99-.68-1.14-1.14-.15-.46.5-1.14.35-1.6-.15-.46-.81-.75-1.02-1.19-.21-.44-.37-.88-.63-1.29-.25-.41-.27-.99-.52-1.4-.21-.34-.69-.52-.98-.81l.12.45c-.02-.3-.21-.67-.44-.86l.31.4c-.06-.06-.1-.12-.14-.19-.21-.43.18-1.1.02-1.56-.16-.45-.51-.85-.67-1.3-.16-.45-.71-.74-.92-1.17-.21-.43.11-1.15-.12-1.57-.23-.42-1.2-.41-1.43-.83-.23-.42-.4-.91-.61-1.34s-.13-1-.35-1.43c-.22-.43-.11-1.03-.33-1.45s-.51-.81-.72-1.24c-.21-.43-.48-.84-.71-1.26l-.66-1.28c-.22-.42-.71-.71-.92-1.14-.22-.43.04-1.12-.19-1.57-.22-.43-.92-.62-1.15-1.06-.23-.43-.79-.69-1.02-1.14-.22-.43,0-1.11-.25-1.54-.24-.42-.84-.63-1.09-1.06-.25-.42-.28-.99-.51-1.43-.23-.43-.21-1-.44-1.44-.23-.43-1.01-.57-1.24-1-.23-.44-.07-1.08-.31-1.52-.23-.44-.63-.82-.81-1.28-.19-.46-.56-.85-.74-1.31-.19-.46-.34-.87-.57-1.3-.24-.44.01-1.16-.26-1.58-.27-.41-.75-.68-1.01-1.1-.27-.42-.57-.82-.81-1.25-.24-.44-.69-.74-.93-1.17-.24-.43-.37-.93-.61-1.35-.24-.43-.56-.82-.8-1.25-.24-.44.17-1.16-.01-1.62-.19-.47-.63-.83-.81-1.29-.19-.47-.6-.82-.84-1.25-.21-.38-.22-.9-.47-1.25-.25-.35-.43-.76-.68-1.12-.25-.35-.83-.47-1.04-.85-.21-.38-.57-.67-.77-1.05s.27-1.14.06-1.52c-.21-.38-1.04-.4-1.25-.78-.21-.38-.1-.94-.31-1.32-.21-.38-.51-.7-.72-1.08-.21-.38-.56-.67-.77-1.05-.21-.37-.03-1.02-.26-1.38-.24-.36-.97-.37-1.2-.73-.24-.36-.15-.94-.36-1.31-.12-.2-.17-.37-.26-.36-.11.02-.32.31-.2.58Z"/>
    <g>
      <path class="cls-1" d="M221.28,161.18c10.36-.77,38.71-39.55,92.16-10.15l-39.42-82.44s-60.93,93.2-52.74,92.59Z"/>
      <path class="cls-7" d="M221.28,161.18c10.36-.77,38.71-39.55,92.16-10.15l-39.42-82.44s-60.93,93.2-52.74,92.59c0,0-8.19.61,0,0Z"/>
    </g>
  </g>
  <g>
    <path class="cls-4" d="M273.48,69.41c.08.15,73.92,125.68,80.23,221.49,7.36,111.7-63.85,239.07-66.94,246.17l23.95,36.88s100.57-220.64,86.91-313.81c-13.66-93.17-124.1-216.87-124.1-216.87l-.05,26.14Z"/>
    <path class="cls-3" d="M272.36,70.07c.23.4.82.6,1.06,1.01.24.4.27.93.51,1.33.24.4.41.85.65,1.25.23.41.33.88.56,1.29.23.41.51.79.74,1.2.23.41.18.97.41,1.38.23.41,1.1.39,1.39.77.28.38,0,1.21.29,1.58.28.38.54.7.77,1.11.23.41.27.86.46,1.29.19.43.63.76.82,1.19.19.43.76.68.99,1.09.23.41.63.66.9,1.05.27.39-.08,1.23.19,1.61.27.39.49.74.72,1.15.22.41,1.08.59,1.23,1.04.15.45.23.92.38,1.37.15.45-.2,1.09.02,1.5.22.41.51.8.74,1.2s.95.55,1.18.96c.23.41-.21,1.18,0,1.59.22.42.94.56,1.17.97.23.41.22.95.45,1.36.22.41.44.82.67,1.24.22.41.89.57,1.13.97.24.41.1,1.04.34,1.44.24.41.8.64,1.02,1.06.22.42.02,1.03.21,1.47.18.43.69.74.87,1.18.18.44.38.83.59,1.24.21.42.12.99.33,1.41.2.42.83.65,1.03,1.08.2.43-.31,1.19-.1,1.61.22.42.93.56,1.21.94.28.39.48.84.76,1.22.28.39.11,1.02.32,1.44.22.42.72.69.91,1.12.19.43.6.77.8,1.21.19.43.44.82.66,1.25.22.42.27.94.44,1.38.17.44.2.93.37,1.38.17.44.23.95.44,1.38.21.42.88.62,1.09,1.04l.64,1.27c.21.42-.05,1.08.15,1.51.21.42.42.85.63,1.28.21.42.66.72.87,1.15.21.42.46.83.67,1.25.21.43.53.78.77,1.19.24.41.74.66.98,1.07.24.41-.34,1.26-.14,1.69.2.43.75.69.92,1.13.16.44.54.82.71,1.26.16.45.39.84.59,1.27.2.43.24.93.45,1.35.22.42.8.65,1.02,1.07.22.42-.02,1.08.18,1.51.2.43.34.91.58,1.32.24.41.2.99.44,1.4.24.41.85.59,1.05,1.02l.56,1.31.52,1.32.54,1.32c.19.43.46.83.67,1.26.21.42,0,1.07.2,1.49.21.42.47.79.66,1.23.19.44.86.7.99,1.16.13.46-.38,1.06-.26,1.52.13.46.48.92.67,1.35.19.43.22.92.39,1.36.17.44.4.86.57,1.3.17.44,1.02.61,1.21,1.05.18.44-.26,1.18-.03,1.6.22.42.95.54,1.18.96.23.42.29.94.47,1.38.18.44-.08,1.09.12,1.52.2.43,1.23.45,1.42.88.2.43-.41,1.22-.23,1.66.17.44,1.14.56,1.32,1,.18.44-.21,1.11-.03,1.55s.57.79.74,1.23c.18.44.07.96.19,1.43.12.46.66.83.77,1.29.11.46-.1,1.01.07,1.45.17.44.88.65,1.06,1.09.18.44-.18,1.11,0,1.55.18.44.21.92.38,1.36.17.44,1.02.65,1.17,1.1l.43,1.35c.15.45-.44,1.15-.28,1.59.16.45.94.65,1.12,1.08.18.44.11.99.29,1.42.18.44.38.87.54,1.32.16.45.45.87.58,1.33.12.46-.13,1,0,1.46.12.46.55.83.71,1.27.16.45.24.91.43,1.35.19.43.63.75.81,1.19.19.44.33.92.48,1.37.15.45.08.97.25,1.41.17.44.65.76.82,1.2s.23.94.38,1.39c.15.45-.42,1.07-.31,1.53.1.46.89.8.99,1.26.1.46.11.92.25,1.38.14.45.14.96.34,1.39l.62,1.28c.2.43.13.95.27,1.4.14.45.46.84.59,1.3.13.45.5.85.63,1.3.13.46.05.97.18,1.42.13.45-.15,1.04-.02,1.49.14.45.51.83.65,1.28.14.45.53.83.66,1.28.13.46.4.92.47,1.4.06.47-.21.97-.15,1.44.06.47.55.85.68,1.3.14.45-.14,1.02-.01,1.47.12.46.5.84.62,1.3s.18.93.3,1.39c.12.46.43.83.59,1.27.16.44.19.95.35,1.39.16.45.55.86.67,1.31.12.46-.39,1.07-.27,1.53.12.46.53.85.63,1.31.1.46.31.9.42,1.36.11.46-.23,1.05-.1,1.5.13.45.49.84.62,1.29.13.46.02.96.13,1.42.11.46.6.83.72,1.29.12.46,0,.98.11,1.44.12.46.6.83.69,1.29.09.47-.43,1.01-.38,1.49.05.47.24.93.29,1.4.05.47.14.96.24,1.43.09.46.14.96.27,1.42.13.45.65.79.78,1.25.13.46-.15,1-.06,1.47.09.46.08.94.15,1.41.08.47.24.92.31,1.38.07.47.64.85.72,1.31.08.47-.16.98-.11,1.45.06.47-.04.95.02,1.42.06.47-.06.98.02,1.45.07.47.14.92.21,1.38.06.47.99.83,1.04,1.3.05.47.05.93.11,1.4.06.47-.37,1.03-.27,1.49.1.46.03.97.13,1.43.1.46.42.85.48,1.32.06.47.5.93.51,1.41,0,.47-.75.92-.74,1.39,0,.47.16,1,.22,1.47.05.47.72.84.81,1.3.09.46.23.91.32,1.38.09.47.02.98.07,1.45.05.47-.18.97-.11,1.44.07.47-.2.99-.13,1.45.07.47.53.87.58,1.34.05.47.35.91.41,1.38.06.47.38.91.42,1.38.04.47-.79,1.02-.76,1.49.03.47.57.94.53,1.42-.04.47-.72.87-.76,1.34-.04.47.71.99.74,1.46.03.47,0,.92.07,1.39.08.47-.18,1-.1,1.46.08.47-.12.93-.1,1.4.01.47.24.92.19,1.4-.05.47.28,1,.23,1.48-.05.48-.07.89-.06,1.37.01.47-.65,1.06-.56,1.53.09.47.3.91.39,1.38.09.47.03.87.04,1.35.01.47.74.97.7,1.45-.04.47-.32.91-.35,1.38-.04.47.04.94.04,1.41,0,.47-.11.95-.14,1.43-.03.47.21.96.18,1.44-.03.47-.82.92-.82,1.39,0,.47.61.93.63,1.41.02.47.24.93.27,1.4.02.47-.43.97-.43,1.44,0,.47.33.94.35,1.41.02.47-.22.96-.2,1.43,0,.47-.24.94-.26,1.41-.02.47.57.98.54,1.45-.03.47.03.95,0,1.42-.03.47-.29.92-.31,1.39-.02.47-.06.93-.06,1.41l.04,1.42c0,.47.12.96.1,1.44-.02.48-.39.93-.46,1.4-.06.47.21,1,.12,1.47-.08.47-.11.9-.14,1.37-.03.47,0,.94-.03,1.42l-.11,1.42c-.03.47-.4.93-.43,1.4-.03.47.16.93.18,1.41.02.47.2.94.22,1.41.02.48-.16.99-.2,1.47-.03.47.12.98.07,1.45-.05.47-.2.93-.26,1.4-.06.47-.92.85-.97,1.32l-.12,1.41c-.05.47.6,1.01.56,1.48-.05.47.09.96.04,1.43-.05.47-.72.89-.75,1.36s.16.96.13,1.43c-.03.47-.03.95-.08,1.42-.04.47-.4.9-.47,1.37-.07.47.42,1.01.35,1.48-.07.47-.43.89-.5,1.36-.06.47-.42.87-.52,1.34-.1.46.32,1.05.22,1.51-.1.46-.83.82-.89,1.29-.06.47.58,1.04.51,1.51-.07.47-.39.89-.46,1.36-.07.47-.66.86-.73,1.32-.07.47.19.99.14,1.47l-.1,1.41c-.04.47-.4.89-.47,1.35-.07.47.63,1.1.52,1.56l-.33,1.38c-.11.46-.34.87-.41,1.33-.07.47-.5.88-.54,1.36-.05.47.36.99.3,1.46-.06.47-.73.86-.81,1.32-.09.47-.04.97-.09,1.44-.05.47.24.97.19,1.44-.05.47-.37.91-.46,1.38-.09.47.12,1.01,0,1.47-.12.46-.04.98-.16,1.43-.12.46-1.03.72-1.11,1.18-.08.47-.22.9-.34,1.36-.12.46.06.99-.05,1.45-.12.46,0,.97-.11,1.43-.1.46-.62.83-.73,1.29-.11.46.29,1.05.18,1.51-.11.46-.33.89-.42,1.35-.1.46-.4.91-.43,1.39-.03.48.31.96.28,1.44-.02.48-.58.88-.69,1.35-.11.46.33,1.06.2,1.52-.13.46-.57.82-.7,1.28-.13.46.14,1.01.03,1.47-.11.46-.63.83-.72,1.3-.08.47-.53.87-.61,1.34-.08.47.62,1.1.51,1.56-.11.46-.65.81-.78,1.27-.13.46-.45.86-.58,1.31-.13.46-.13.95-.25,1.41-.12.46-.38.83-.57,1.27-.19.44-.59.77-.78,1.21-.19.44-.1,1.05-.22,1.51-.12.46.19.99.13,1.47-.06.47-.36.92-.42,1.39-.07.47-.52.84-.65,1.29-.13.45-.11.94-.27,1.39-.15.45.11,1.04-.05,1.49-.15.45-.92.71-1.05,1.16-.13.46.05,1.02-.04,1.49-.08.47-.06.95-.14,1.42-.08.47-.23.91-.37,1.37-.14.46-.63.73-.83,1.17-.19.43.36,1.23.16,1.66-.19.44-.93.64-1.07,1.09-.14.45.21,1.03.09,1.49-.11.46-.62.83-.74,1.29-.11.46-.23.91-.37,1.36-.14.45-.1.97-.26,1.41-.16.44-.22.93-.39,1.37-.17.44-.39.86-.54,1.31-.15.45-.06,1.03-.25,1.47-.19.44-.49.82-.68,1.25-.19.44-.67.73-.82,1.18-.15.45-.16.93-.28,1.4-.12.46.08.99-.05,1.45-.12.46-.94.72-1.1,1.16-.16.45-.29.92-.43,1.37-.14.45.24,1.06.1,1.51-.14.45-.8.73-.96,1.18-.16.45-.51.75-.72,1.18-.21.42-.03,1.07-.24,1.49-.21.43-.76.73-.93,1.17-.17.44.21,1.08.05,1.53-.16.45-.56.81-.71,1.26-.16.45-.09.98-.26,1.42-.17.44-.28.9-.44,1.35-.16.45-.77.73-.93,1.18-.16.45-.06.98-.24,1.42-.18.44-.45.84-.65,1.27-.2.43-.74.7-.94,1.12-.2.43-.2.97-.38,1.41-.18.44-.28.91-.46,1.34l-.6,1.28-.56,1.31c-.19.44-.02,1-.18,1.45-.16.45-.06.98-.21,1.43-.16.45-.45.88-.64,1.31-.19.44-.59.78-.74,1.22-.16.45-.2.93-.36,1.38-.16.45-.86.67-1.06,1.1-.19.43-.24.95-.41,1.4l-.46,1.34c-.16.45-.53.78-.73,1.21-.19.43.42,1.27.2,1.69-.22.42-.87.6-1.1,1.01-.23.42-.05,1.02-.25,1.45-.2.43-.6.77-.8,1.2-.21.43-.91.61-1.12,1.03-.21.43.22,1.15.02,1.58-.2.43-1.02.57-1.21,1-.2.43-.31.9-.51,1.33-.2.43.1,1.09-.1,1.52-.21.43-.64.74-.86,1.17s-.13,1-.34,1.42c-.21.42-.55.77-.75,1.2-.21.42-1.09.5-1.31.92-.22.42.25,1.2.03,1.62-.22.42-.91.59-1.13,1.01-.21.42-.6.75-.82,1.16-.22.42.26,1.22.04,1.63-.23.42-.73.68-.95,1.1-.22.42-.58.77-.79,1.19-.21.42-.27.92-.49,1.34-.21.42-.15.99-.37,1.41-.22.42-.7.71-.95,1.12-.25.4-.38.88-.63,1.28-.25.4-.5.78-.72,1.2-.22.42-.72.7-.92,1.13l-.64,1.27c-.2.43-.16.98-.39,1.39-.23.41-.24.99-.49,1.39-.25.4-1.14.39-1.39.78-.25.4-.17,1.01-.41,1.42-.23.41-.35.87-.54,1.31-.18.44-.45.84-.64,1.28-.19.44-.65.73-.88,1.14-.24.41-.28.93-.53,1.33l-.77,1.19c-.25.4-.86.6-1.1,1-.24.41.03,1.11-.19,1.53-.22.42-.19.96-.41,1.38-.22.42-1.03.52-1.27.93-.24.41-.02,1.13-.29,1.52l-.79,1.19c-.27.4-.82.61-1.06,1.03-.2.37-.27,1.01-.14,1.06.4.19.57.67.84.71.38.07.62.22.99.3.27.05.84-.53,1.23-.31.13.06.45.5.62.19.23-.4.09-.99.29-1.41.2-.42.65-.74.86-1.17.2-.43.37-.85.62-1.26.24-.41.73-.69.96-1.1.23-.42-.04-1.1.19-1.51.23-.42.22-.98.46-1.39.24-.41.47-.85.72-1.26.26-.4.65-.71.9-1.11.25-.4.94-.54,1.18-.95.24-.41.14-1.01.38-1.42.23-.41.72-.69.95-1.1.23-.42.71-.69.94-1.11.23-.41.18-.99.4-1.42.22-.42.74-.7.95-1.13.21-.43-.21-1.18.01-1.59.23-.42.45-.85.69-1.26.24-.41,1.08-.47,1.32-.88.24-.41.55-.8.78-1.22.22-.42.09-1.04.3-1.46.21-.42.56-.78.77-1.21.21-.42.59-.75.82-1.17.22-.42.26-.93.5-1.34.23-.41-.05-1.13.18-1.54.23-.41.64-.72.86-1.14.22-.42.99-.56,1.2-.98l.66-1.27c.21-.43.18-.97.4-1.4.21-.43.63-.67.9-1.07.27-.4.2-1.04.46-1.44.27-.4.92-.6,1.14-1.03.21-.43.36-.94.53-1.38.17-.45.07-.99.24-1.43.17-.45-.15-1.12.06-1.54.21-.43.67-.72.86-1.16.19-.44.6-.78.79-1.22.18-.44.52-.8.72-1.23.2-.43.16-.97.36-1.4.2-.43.06-1.02.26-1.45l.6-1.29c.2-.43.78-.7,1.03-1.11.25-.41.55-.78.8-1.19.24-.41.29-.92.48-1.36.19-.44.94-.67,1.11-1.12.16-.45.05-.99.21-1.44.16-.45,0-1.02.2-1.45.19-.44.83-.64,1.06-1.06.22-.42.13-1.02.36-1.44.22-.42.72-.72.91-1.15.19-.44.47-.83.65-1.27.19-.44.1-.99.28-1.43.19-.44.44-.85.63-1.29.19-.44.27-.92.45-1.36l.55-1.32c.18-.44.7-.74.88-1.18.18-.44.27-1,.38-1.47.1-.47-.51-1.06-.4-1.52.11-.47,1.01-.71,1.19-1.16.18-.44.3-.83.54-1.25.24-.41.38-.9.63-1.31.24-.42.4-.92.57-1.37.17-.45.19-.95.29-1.43.1-.47.14-.95.24-1.41.1-.47.07-1,.24-1.44.17-.45.92-.61,1.13-1.05.2-.43.46-.84.66-1.27.2-.43.05-1.06.21-1.51.16-.45.47-.83.65-1.27.19-.44-.25-1.15-.06-1.59.19-.44.87-.66,1.03-1.11.16-.45.4-.9.52-1.36.12-.46.13-.95.23-1.41.11-.47.25-.91.4-1.36.15-.45.46-.82.65-1.25.2-.43-.24-1.18-.05-1.61.2-.44.69-.71.85-1.16s.04-.98.18-1.43l.46-1.35c.14-.46.66-.8.8-1.25.14-.46.33-.94.41-1.41.08-.47.41-.91.49-1.39.08-.47.1-.88.25-1.33.14-.46-.1-1.05.13-1.48.23-.42.46-.85.69-1.27.23-.43.7-.77.84-1.23.14-.46.21-.98.27-1.46l.19-1.43c.06-.48-.12-.98.01-1.43.13-.46.25-.94.46-1.38.2-.43.27-.94.47-1.38.2-.44.45-.81.58-1.27.13-.46.12-.9.18-1.38.06-.47.32-.95.37-1.42.05-.48.25-.92.37-1.38.12-.46.21-.92.35-1.38.14-.46.43-.86.57-1.32.14-.46-.43-1.11-.31-1.57.12-.46.67-.82.82-1.27.16-.45-.06-1.03.1-1.48.16-.45.47-.82.57-1.28.11-.46.48-.86.58-1.33.1-.47.54-.86.64-1.33.1-.47.3-.89.41-1.36.11-.46.02-1.01.1-1.48.07-.47-.09-.97-.02-1.44.07-.47.05-.96.16-1.42.11-.46.74-.74.9-1.2.15-.45-.19-1.09-.04-1.54.15-.45.55-.85.65-1.31.1-.47.22-.91.34-1.37.12-.46-.12-1.03,0-1.49.12-.46-.03-.97.07-1.43.1-.47.44-.87.5-1.34.06-.47.61-.9.68-1.37.06-.47.21-.89.3-1.36.09-.47-.1-1-.02-1.46.08-.47-.23-1-.15-1.47.08-.47.05-.96.14-1.43.09-.47.8-.78.94-1.25.14-.46,0-1.01.14-1.47.14-.46.66-.84.74-1.31.09-.47.17-.99.21-1.47.04-.48-.77-.99-.74-1.46.03-.48.71-.9.79-1.37.07-.47-.03-.97.06-1.44.1-.47-.05-.99.05-1.45.1-.47.11-.93.18-1.4.07-.47.87-.85.93-1.32.06-.47-.33-.99-.28-1.46.06-.47.29-.92.37-1.39.07-.47.05-.96.07-1.44.03-.48-.37-.97-.35-1.45.03-.48.03-.99.09-1.46.06-.47.33-.93.41-1.4.08-.47.72-.83.8-1.3.08-.47-.36-1.03-.3-1.5.06-.47.49-.88.6-1.35.11-.46.3-.91.41-1.38.11-.47.46-.94.51-1.41.05-.48-.46-1.01-.49-1.49-.03-.48.34-1.01.31-1.49-.03-.48-.77-.96-.73-1.43.05-.47.58-.89.64-1.37.06-.47.28-.93.33-1.4.06-.47.02-.96.07-1.44.05-.48-.11-.97-.03-1.44.08-.47.25-.92.33-1.4.08-.47.32-.94.35-1.41.03-.48.16-.95.19-1.43.03-.48.12-.95.14-1.43.03-.48-.66-1-.63-1.47.03-.47.41-.93.43-1.4.02-.48.13-.95.16-1.42.02-.48-.4-.98-.37-1.45.03-.47.74-.91.78-1.38.03-.48-.38-.98-.37-1.46.02-.48.14-.95.16-1.42.02-.48-.23-1.01-.16-1.48.06-.47.56-.87.62-1.34.07-.47.24-.96.26-1.44.02-.48-.31-.96-.31-1.44,0-.48.52-.96.52-1.44,0-.48-.67-.96-.65-1.43.02-.48.11-.96.14-1.43.04-.48.22-.94.23-1.42.02-.48-.22-.96-.22-1.43,0-.48.64-.94.65-1.41.01-.48-.71-.98-.7-1.46.01-.48.71-.94.71-1.42,0-.48.06-.99.03-1.46-.03-.48-.86-.89-.89-1.36-.03-.48.58-.99.58-1.47,0-.48-.59-.99-.55-1.47.04-.48.11-.95.14-1.42.02-.48.81-.93.8-1.41-.01-.48-.32-.96-.36-1.44-.04-.48-.26-.93-.3-1.41-.04-.48.12-.96.11-1.44-.01-.48.29-.95.28-1.43,0-.48-.9-.94-.9-1.42,0-.48.26-.95.24-1.43-.01-.48.5-.96.5-1.44,0-.48.05-.96.03-1.44-.02-.48-.06-.98-.09-1.45-.03-.48-.66-.91-.73-1.38l-.19-1.42c-.07-.47-.46-.94-.49-1.42-.03-.48.41-.99.41-1.47l-.07-1.43c0-.48-.4-.92-.44-1.4-.05-.47.1-.96.04-1.43-.06-.47.19-.99.12-1.47-.06-.47-.29-.92-.34-1.4-.05-.48.21-1.02.12-1.49-.09-.47-.57-.85-.66-1.32-.09-.47-.05-.96-.1-1.44-.04-.48-.12-.95-.13-1.43-.02-.48.27-.95.25-1.43-.02-.48-.48-.94-.54-1.41-.07-.47,0-.96-.08-1.43-.07-.47-.25-.93-.32-1.4s-.22-.93-.29-1.4c-.07-.47.02-.97-.03-1.44-.05-.48-.3-.92-.37-1.4-.07-.47.17-.98.09-1.45-.08-.47-.69-.82-.79-1.29-.1-.47.05-.99-.05-1.46-.1-.47.05-.99-.03-1.46-.08-.47-.31-.91-.4-1.38l-.25-1.41c-.09-.47-.48-.88-.58-1.35-.09-.47.35-1.04.24-1.51-.11-.46-.5-.86-.61-1.32-.11-.46-.3-.92-.39-1.38-.09-.47.2-1,.12-1.47-.08-.47-.79-.83-.88-1.3-.08-.47-.2-.91-.29-1.38-.1-.47.63-1.12.51-1.58-.11-.46-.29-.91-.4-1.37-.11-.46-.05-.96-.16-1.42-.11-.47-1.02-.72-1.15-1.18-.13-.46-.39-.88-.52-1.33-.13-.46-.17-.97-.28-1.43-.11-.46-.09-.97-.19-1.43-.09-.47.23-1.02.13-1.49-.11-.46-.1-.96-.22-1.42-.12-.46-.43-.87-.53-1.34-.1-.47-.38-.9-.47-1.37-.1-.47.22-1.03.1-1.5-.12-.46-.45-.89-.6-1.34-.16-.45-.62-.78-.78-1.23-.16-.45-.5-.87-.62-1.33-.12-.46-.24-.93-.36-1.39-.12-.46-.03-.97-.15-1.43-.12-.46-.03-.97-.16-1.43-.13-.46.17-.95.1-1.43-.06-.47-.32-.94-.39-1.41-.06-.48-.15-1-.28-1.46-.13-.46-.47-.87-.64-1.31-.17-.44-.05-1.02-.23-1.46-.18-.44-.4-.82-.54-1.27-.14-.46-.24-.89-.35-1.35-.11-.46-.96-.77-1.07-1.24-.11-.46.32-1.06.18-1.51-.14-.46-.22-.93-.36-1.39-.14-.45-.79-.74-.93-1.2-.14-.45.3-1.1.16-1.55-.15-.45-.48-.88-.68-1.32-.2-.43-.86-.64-1.06-1.07-.2-.43-.43-.9-.58-1.35-.15-.45.22-1.1.05-1.54-.17-.44-.42-.86-.59-1.3-.17-.44-.57-.79-.72-1.24-.15-.45,0-.97-.12-1.44-.11-.46-.17-.94-.28-1.4-.11-.46-.4-.91-.56-1.36-.16-.45-.31-.89-.45-1.35l-.48-1.35c-.14-.45-.34-.89-.5-1.34-.16-.45-.55-.8-.72-1.25-.17-.45-.43-.85-.6-1.29-.18-.44-.51-.83-.67-1.28-.17-.45.06-1.05-.14-1.49-.2-.44,0-1.07-.2-1.51-.2-.44-.93-.63-1.1-1.08-.17-.45-.1-.99-.27-1.44-.17-.45-.77-.73-.94-1.18-.18-.44.09-1.07-.09-1.51-.18-.45-.08-.96-.23-1.42l-.5-1.35c-.15-.46-.81-.74-.99-1.19-.18-.45-.23-.94-.45-1.37-.22-.43-.34-.91-.57-1.33-.22-.43-.79-.69-.98-1.14-.19-.44-.27-.98-.39-1.45-.12-.47.31-1.05.19-1.52-.12-.47-.96-.71-1.14-1.15-.18-.44-.36-.9-.54-1.34-.18-.45.02-1.04-.16-1.49-.18-.45-.66-.76-.85-1.2-.19-.44.27-1.23.04-1.65-.23-.42-.53-.8-.77-1.22-.23-.42-.56-.75-.76-1.19-.19-.44-.74-.73-.92-1.17-.18-.45-.53-.82-.71-1.27-.18-.45.03-1.05-.16-1.48-.19-.44-.31-.95-.55-1.37-.24-.42-.95-.54-1.19-.96-.24-.42-.38-.93-.58-1.36-.2-.44.07-1.08-.13-1.52-.2-.44-.98-.61-1.17-1.05-.2-.44-.14-.99-.34-1.42-.2-.44-.6-.81-.78-1.26-.17-.45.17-1.07,0-1.52-.17-.45-.71-.75-.92-1.19-.21-.43-.4-.86-.65-1.28-.25-.41-.18-1.03-.43-1.44-.25-.41-.52-.77-.72-1.2-.2-.44-.99-.67-1.15-1.12-.15-.45.49-1.14.33-1.6-.16-.46-.82-.74-1.03-1.17-.21-.43-.39-.88-.64-1.29-.26-.41-.27-.98-.53-1.38-.26-.41-.92-.57-1.14-1-.21-.43.16-1.1,0-1.55-.17-.45-.53-.84-.7-1.29-.17-.45-.73-.73-.95-1.16-.22-.43.09-1.15-.15-1.57-.24-.42-1.21-.39-1.44-.81-.24-.41-.41-.91-.63-1.33-.22-.42-.15-1-.38-1.42-.23-.42-.13-1.02-.36-1.44-.23-.42-.53-.8-.75-1.22-.22-.42-.5-.83-.73-1.25l-.69-1.26c-.24-.42-.73-.69-.96-1.11-.23-.42,0-1.12-.24-1.56-.24-.42-.94-.59-1.18-1.03-.24-.42-.81-.67-1.05-1.11-.24-.43-.03-1.11-.3-1.53-.26-.41-.87-.6-1.13-1.02-.26-.41-.31-.98-.56-1.41-.24-.42-.25-.99-.49-1.42-.24-.42-1.03-.53-1.27-.96-.24-.43-.12-1.08-.37-1.51-.25-.43-.66-.79-.87-1.25-.2-.45-.59-.82-.79-1.27-.21-.45-.38-.85-.63-1.28-.25-.43-.04-1.16-.33-1.56-.29-.4-.78-.65-1.07-1.05-.29-.4-.61-.79-.87-1.21-.26-.42-.72-.71-.98-1.13-.26-.42-.42-.91-.68-1.32-.27-.42-.61-.79-.86-1.2-.26-.42.11-1.17-.1-1.62-.21-.45-.67-.8-.88-1.24-.22-.46-.65-.79-.91-1.2-.23-.37-.28-.88-.55-1.22-.27-.34-.47-.74-.74-1.07-.28-.34-.86-.42-1.1-.78-.24-.36-.61-.63-.84-1s.19-1.16-.04-1.52c-.24-.36-1.07-.32-1.31-.68-.24-.36-.17-.93-.41-1.29-.24-.36-.56-.66-.8-1.02-.24-.36-.61-.62-.85-.98-.24-.36-.11-1.02-.38-1.36-.27-.34-.99-.29-1.26-.62-.27-.34-.23-.92-.48-1.27-.14-.19-.2-.35-.29-.33-.12.01-.31.31-.15.59Z"/>
  </g>
  <g>
    <path class="cls-4" d="M272.39,68.22c.08.15-93.26,146.24-89.19,242.18,4.74,111.81,105.57,218.39,102.48,225.48l.77,40.36-35.4-12.19s-148.1-99.72-138.87-270.28c9.23-170.56,160.21-225.55,160.21-225.55Z"/>
    <path class="cls-3" d="M271.78,68.42c-.22.31-.2,1-.45,1.38-.26.4-.73.67-1,1.08-.26.4-.59.77-.86,1.18-.27.4-.66.72-.93,1.12-.27.4-.49.84-.75,1.24-.27.4-.8.63-1.06,1.04-.27.41.14,1.18-.07,1.63-.21.44-1.08.6-1.29,1.04-.21.44-.38.84-.64,1.25-.26.41-.64.67-.94,1.06-.3.38-.38.95-.68,1.33-.3.39-.24,1.03-.5,1.44-.26.41-.28.9-.5,1.34-.21.44-1.12.57-1.33,1-.21.44-.42.82-.68,1.23-.26.42,0,1.26-.31,1.63-.32.37-.69.69-1.01,1.06-.32.37-1.05.4-1.31.82-.25.41-.44.87-.69,1.29-.25.42,0,1.12-.24,1.54-.24.42-1.13.46-1.38.87-.25.42-.01,1.12-.25,1.55-.24.42-.72.71-.95,1.14-.25.42-.49.84-.73,1.25-.25.42-.03,1.08-.25,1.52-.22.43-.84.67-1.06,1.1-.22.43-.13,1.05-.37,1.47-.24.42-.88.6-1.15,1-.28.4-.27,1.01-.55,1.41-.28.4-.5.8-.73,1.22-.24.42-.77.68-1.02,1.09-.25.42-.11,1.08-.36,1.49-.25.42-1.18.43-1.42.85-.24.43.03,1.11-.14,1.57-.17.46-.44.89-.61,1.36-.17.47-.79.69-1.03,1.13-.23.43-.18,1.01-.43,1.43-.26.42-.31.97-.57,1.39-.26.42-.44.86-.67,1.29-.23.43-.63.78-.9,1.2-.27.41-.66.74-.93,1.15-.27.41-.65.78-.88,1.21-.23.43,0,1.1-.23,1.54l-.67,1.31c-.23.44-.93.62-1.16,1.06-.23.44-.45.88-.68,1.31-.22.44-.2.99-.42,1.43-.22.44-.39.9-.62,1.34-.22.44-.32.92-.51,1.38-.19.45-.09,1.02-.28,1.47-.19.45-1.23.53-1.46.96-.22.44-.1,1.05-.36,1.47-.26.42-.33.96-.58,1.38-.26.42-.43.86-.64,1.3s-.6.79-.8,1.24c-.2.45-.02,1.06-.22,1.51-.2.45-.87.69-1.09,1.13-.22.44-.5.87-.68,1.33-.18.46-.65.82-.83,1.27-.18.46.08,1.06-.13,1.51l-.66,1.31-.7,1.29c-.23.44-.47.86-.68,1.31s-.34.92-.53,1.38c-.19.45-.83.73-1.02,1.18-.19.45-.31.91-.52,1.35-.21.45.03,1.14-.24,1.56-.27.41-1.06.44-1.33.86-.27.42-.38,1-.59,1.45-.21.45-.55.81-.77,1.25-.22.44-.38.91-.6,1.35-.22.44.23,1.2.02,1.64-.21.45-1.06.64-1.22,1.11-.16.47.24,1.1.08,1.57-.16.47-.5.89-.7,1.34-.2.45-.87.72-1.05,1.18-.18.46.51,1.23.34,1.69-.18.46-1.17.59-1.37,1.04-.2.45.38,1.24.18,1.68-.2.45-.96.66-1.15,1.11-.19.45-.17.99-.37,1.44-.19.45-.65.76-.89,1.19-.24.43-.13,1.09-.37,1.51-.25.43-.79.68-.98,1.14-.19.45.16,1.11-.01,1.57-.18.46-.92.71-1.1,1.17-.18.46-.5.85-.69,1.3-.2.45.29,1.21.09,1.65l-.62,1.33c-.2.45-1.11.59-1.29,1.04-.19.46.25,1.14.09,1.61-.16.46-.59.84-.75,1.3-.16.46-.31.93-.5,1.39-.19.45-.25.98-.48,1.42-.23.44-.77.7-.99,1.14-.21.44-.14,1.02-.32,1.48-.18.46-.42.89-.56,1.36-.14.47-.01,1.01-.15,1.48-.14.47-.35.95-.52,1.41s-.57.83-.73,1.3c-.16.46,0,1.03-.15,1.49-.16.47-.44.9-.61,1.36-.17.46-1.01.61-1.22,1.06-.21.44.21,1.22,0,1.66-.21.44-.49.83-.66,1.29-.17.46-.48.88-.6,1.36l-.3,1.45c-.11.48-.48.87-.65,1.33-.17.46-.16.98-.34,1.44-.18.46-.11,1.01-.28,1.47-.17.46-.52.85-.68,1.31-.16.46-.73.8-.88,1.26-.15.47-.07,1.01-.22,1.48-.15.47-.05,1.02-.21,1.48-.16.47-.21,1.02-.43,1.46-.22.44-.74.71-.97,1.16-.23.44-.04,1.04-.19,1.51-.15.47-.67.82-.82,1.29-.15.47-.04,1.02-.18,1.49s-.36.92-.5,1.39c-.15.47-.08.96-.19,1.45-.1.48-.35.94-.46,1.42-.1.48,0,1.05-.14,1.52-.15.47-.92.74-1.05,1.22-.14.47.02,1.04-.12,1.51-.14.47-.18.97-.31,1.44-.14.47-.72.84-.83,1.32-.11.48.01,1.01-.1,1.49-.11.48-.46.89-.6,1.36-.14.47.11,1.05-.01,1.52-.12.48-.5.89-.61,1.37-.11.48.14,1.05.02,1.53-.12.48-.83.75-1,1.21-.17.46-.2.98-.37,1.45-.17.46-.3.97-.42,1.45-.12.48-.3.97-.39,1.46-.09.48.23,1.03.14,1.51-.09.48-.58.88-.71,1.36-.11.48-.33.93-.44,1.41s-.14.98-.25,1.46c-.11.48.26,1.07.16,1.55-.11.48-.53.88-.66,1.36-.13.48-.4.91-.53,1.38-.13.48-.43.93-.54,1.42-.12.48-.23.94-.34,1.42-.11.48.62,1.17.52,1.65-.1.48-.25.94-.34,1.42-.09.49-.68.9-.73,1.39-.05.49-.28.97-.33,1.46-.05.49.12.98.03,1.47-.09.49.18,1.08.03,1.56-.15.47-1.01.7-1.16,1.17-.13.48-.13,1.06-.2,1.55-.07.49.49,1.05.46,1.54-.03.49,0,.99-.03,1.48-.03.49-.22,1-.29,1.49s-.41.95-.46,1.44c-.05.49-.44.96-.49,1.45-.04.49.29,1,.25,1.49-.05.49.16,1.01.12,1.5-.04.49.22,1,.18,1.5-.04.49-.95.91-.99,1.4-.05.49.41,1.07.29,1.55-.12.48-.85.79-.97,1.27-.12.49.54,1.13.49,1.62-.06.49-.12.96-.1,1.46.02.49-.29,1.02-.27,1.51.02.5-.19.96-.21,1.46-.02.5.17.98.08,1.48-.09.49.21,1.07.12,1.56-.09.49-.14.93-.16,1.43-.02.5-.73,1.08-.64,1.58.08.49.28.97.37,1.46.09.5.01.92.02,1.42,0,.5.72,1.03.68,1.53-.04.49-.33.96-.37,1.45-.04.5.06.98.06,1.48,0,.5-.1,1-.11,1.5,0,.49.27,1,.27,1.49,0,.49-.77,1-.74,1.5.03.5.67.94.73,1.43.06.49.31.95.38,1.44.06.49-.35,1.05-.31,1.54.04.49.42.94.48,1.43.06.49-.12,1.02-.06,1.51.07.49-.11,1-.06,1.49.05.49.7.94.75,1.43.04.49.18.98.22,1.47.04.49-.15.99-.08,1.48.06.49.1.97.18,1.46l.29,1.45c.09.49.29.97.36,1.46.07.49-.21,1.03-.18,1.53.03.49.39.98.42,1.48.03.49.11.94.19,1.42.08.49.22.96.31,1.44l.24,1.46c.09.49-.16,1.04-.07,1.52.09.49.39.9.53,1.38.14.47.44.89.58,1.37.15.47.11,1.04.2,1.53.1.48.38.95.47,1.43.09.48.09.98.18,1.47.09.48-.6,1.13-.5,1.61l.34,1.44c.11.48.9.8,1.01,1.28.11.48.4.92.52,1.4.12.48-.38,1.12-.25,1.59.13.48.49.89.62,1.36.13.47.3.94.42,1.42.12.48-.05,1.03.07,1.5.12.48.77.83.9,1.3.12.48-.05,1.03.08,1.5.13.48-.04,1.01.06,1.49.1.48.71.88.81,1.37.09.49-.42,1.12-.29,1.59.14.47.96.76,1.09,1.24.13.48.02,1.01.15,1.49.13.48-.24,1.1-.09,1.57.15.47.62.85.8,1.32l.56,1.37c.18.46.06,1.01.21,1.48.15.47,1.07.73,1.19,1.21l.36,1.43c.12.48.12.96.27,1.43.16.47-.01,1.06.17,1.52.19.46.79.73.98,1.19.19.46-.2,1.14-.03,1.6.17.47.47.9.67,1.35.2.45.71.75.91,1.2.21.45.16,1.01.33,1.47.17.46.63.84.77,1.32.14.47.48.89.62,1.36.14.47-.48,1.19-.31,1.65.18.46.3.92.46,1.39.16.47.62.83.78,1.3.16.47.54.85.73,1.31.18.46-.04,1.07.13,1.53.17.46.84.74,1.01,1.2.18.46.25.95.44,1.41.19.46.2,1.02.46,1.45.26.42.81.64,1.07,1.06.26.42.07,1.09.26,1.54.19.45.91.7,1.09,1.16.18.46.05,1.03.23,1.49.18.46.73.76.93,1.2.2.45.01,1.08.24,1.52.22.44.13,1.05.36,1.49.23.44,1.17.51,1.38.96.21.45,0,1.08.21,1.53.2.45.21.98.41,1.43.2.45.52.85.73,1.29.21.45.26.91.4,1.39.14.47.06,1,.2,1.48.14.48.63.91.84,1.35.21.44.8.66,1.07,1.08.27.41.35.97.62,1.38.27.42.2,1,.42,1.44.22.44.57.8.76,1.25.2.45.8.73,1,1.18.2.45-.17,1.17.05,1.61.23.44.75.75,1.02,1.17.27.41.62.77.89,1.18.27.41.48.86.7,1.29.23.44.08.99.26,1.46.18.46,1.14.65,1.32,1.11.18.46-.18,1.14.05,1.57.23.44.9.61,1.15,1.03.26.42.17,1.06.43,1.48.26.42.51.83.75,1.26.24.43.64.78.86,1.22.22.44.55.83.77,1.26.22.44.38.9.62,1.33.24.43.75.77.95,1.22.2.45.29.94.5,1.39.21.45.12,1.02.36,1.45.24.43.61.78.88,1.19.28.41.8.63,1.08,1.04.28.41-.04,1.21.2,1.64.25.43.53.85.8,1.26.27.41.98.53,1.25.94.27.41.07,1.11.32,1.54.25.43.27.9.47,1.35.2.45.82.74,1.02,1.19.2.45.11,1.08.36,1.5.25.42,1,.54,1.27.95.26.41.32.97.58,1.38.26.42.74.7.99,1.12.26.42.56.8.82,1.22.27.41.13,1.09.4,1.5.27.41.76.68,1.02,1.09.26.42.43.89.67,1.32.24.43.15,1.04.39,1.47.24.43.69.77.95,1.18.26.42.59.79.85,1.21l.72,1.29.78,1.26c.27.42.83.62,1.12,1.02.29.4.8.63,1.09,1.02.29.4.49.9.76,1.31.27.41.33.95.63,1.35.29.39.68.72.97,1.11.29.4.11,1.12.38,1.53.27.41.69.75.99,1.14l.92,1.15c.3.39.39.9.66,1.31.27.41,1.32.35,1.56.78.25.42.06,1.09.31,1.51.25.42.87.6,1.14,1.01.27.41.37.94.64,1.35.27.41.07,1.12.34,1.53.27.41,1.12.43,1.4.84.28.4,0,1.2.27,1.6.28.4.65.74.93,1.15.28.4,1.02.48,1.3.89.28.4.35.95.62,1.36.27.41.83.63,1.1,1.04.27.41.42.89.7,1.29.28.4-.06,1.22.22,1.63.27.41,1.2.39,1.47.79.27.41.11,1.11.39,1.51.28.4.39.91.67,1.31.28.41,1.21.37,1.49.77.28.41.28.99.57,1.39.28.4.44.9.73,1.29.29.4.71.69,1,1.09.29.4.83.62,1.11,1.02.28.4.35.97.61,1.39.26.42.64.76.9,1.18.26.42.5.82.78,1.22.28.4.33.98.63,1.36l.9,1.17c.31.38.83.6,1.11,1,.28.4.8.67,1.06,1.09.26.41-.13,1.22.13,1.63.26.41.86.62,1.14,1.02.28.4.65.72.98,1.08.32.37.58.8.91,1.16.33.37.4.92.68,1.32.28.4.73.68,1,1.08l.76,1.24c.26.41.18,1.05.45,1.45.27.4,1.02.47,1.31.87.29.39.78.62,1.06,1.01.28.4,0,1.17.24,1.57.24.4.98.56,1.17.99.2.43.4.84.56,1.26.15.42-.03.93.06,1.23.04.12.12.22.19.25.04,0,.03.02.27.01.14,0,.23,0,.23,0,.05,0,.1.01.14.02l.14.03s.06,0,.09,0c.12.01.31.12.41.16.35.08.62.21,1.01.18.16-.02.32-.4.43-.74.11-.33.2-.66.41-.71.13-.05.72.2.56-.36-.21-.67-.81-1-1.08-1.47-.27-.46-.32-1.06-.61-1.49-.29-.43-.59-.82-.85-1.25-.26-.43-.29-1.02-.57-1.43-.28-.41-1.02-.5-1.3-.91-.28-.41-.8-.66-1.07-1.07-.27-.41-.59-.82-.85-1.24-.26-.42-.38-.92-.64-1.33-.26-.41-.1-1.1-.38-1.51-.28-.4-.87-.58-1.16-.98-.28-.4-.33-.97-.62-1.37-.29-.4-.34-.96-.62-1.36-.28-.4-.84-.61-1.14-1-.3-.39-.33-.99-.63-1.37-.3-.39-1.17-.34-1.45-.74-.28-.4-.59-.8-.86-1.2-.27-.4.03-1.19-.24-1.6-.27-.4-.48-.87-.77-1.27-.28-.4-.9-.56-1.2-.95-.29-.39-.47-.87-.76-1.26-.29-.39-.42-.89-.71-1.29-.28-.4-.72-.68-.99-1.08-.27-.41-1.04-.49-1.31-.9-.27-.41-.36-.92-.64-1.32-.28-.4-.06-1.15-.34-1.55l-.83-1.2c-.28-.4-.78-.64-1.07-1.04-.28-.4-.31-.89-.54-1.33-.23-.43-.84-.69-1.07-1.12-.23-.44-.1-1.11-.38-1.51-.28-.4-.65-.79-.97-1.17-.31-.38-.84-.56-1.15-.94-.31-.38-1.06-.44-1.33-.84-.28-.4-.31-.96-.6-1.35-.29-.39-.39-.93-.69-1.32-.29-.39-.44-.88-.72-1.28-.27-.4-.76-.66-1.04-1.06-.27-.4-.86-.59-1.14-1l-.82-1.22c-.27-.41-.21-1.05-.44-1.48-.23-.43-.38-.9-.6-1.33-.23-.43-.64-.75-.91-1.16-.27-.41-.08-1.17-.37-1.56-.3-.39-.82-.59-1.12-.98-.3-.39-.87-.58-1.14-.98-.27-.41-.1-1.06-.33-1.49-.23-.43-.79-.7-1.02-1.13-.23-.43-.2-1.02-.47-1.43-.26-.41-.44-.87-.71-1.28-.26-.41-.78-.66-1.04-1.07-.26-.41-.46-.86-.73-1.27-.26-.41-.62-.76-.88-1.17l-.77-1.24c-.26-.41-.2-1.03-.46-1.44-.26-.41-.66-.83-.99-1.2-.32-.37-1.16-.23-1.49-.6-.33-.37,0-1.25-.25-1.67-.26-.42-.5-.75-.69-1.21-.19-.45-.49-.87-.68-1.32-.19-.46-.49-.9-.75-1.32-.25-.42-.65-.75-.97-1.13-.31-.37-.67-.71-.99-1.09-.32-.38-.75-.69-1-1.11-.25-.42.08-1.12-.14-1.56-.21-.44-.36-.9-.57-1.34-.21-.44-.8-.73-1.04-1.15-.25-.42-.35-.91-.57-1.34-.22-.43-1.05-.57-1.28-1.01-.22-.43.04-1.11-.2-1.53-.24-.42-.44-.91-.72-1.31-.28-.4-.64-.73-.92-1.13-.28-.4-.52-.81-.76-1.23-.24-.42-.31-.9-.51-1.35-.2-.44-1.05-.63-1.25-1.08-.2-.45-.07-1.01-.31-1.44-.24-.42-.71-.71-.95-1.13l-.7-1.28c-.25-.42-.13-1.05-.36-1.48-.23-.43-.46-.91-.74-1.3-.29-.39-.38-.95-.67-1.35-.29-.4-.56-.7-.79-1.14-.23-.43-.83-.69-.98-1.16-.14-.47-.28-.94-.42-1.41-.15-.47-.06-1.05-.29-1.49-.22-.43-.54-.88-.83-1.27l-.86-1.19c-.29-.4-.77-.65-.99-1.08-.22-.44-.46-.88-.62-1.35-.15-.46-.46-.89-.61-1.36-.15-.47-.23-.92-.44-1.36-.22-.44-.53-.76-.82-1.17-.28-.4-.39-.95-.67-1.35-.29-.4-.42-.88-.63-1.32-.21-.44-.45-.86-.65-1.31-.2-.45-.24-.96-.43-1.4-.19-.45-1.06-.59-1.26-1.03-.21-.44-.02-1.08-.19-1.53-.17-.45-.72-.78-.89-1.24-.17-.46-.17-.94-.37-1.39-.21-.44-.16-1-.37-1.44-.21-.44-.11-1.03-.32-1.47-.21-.44-.31-.91-.51-1.35-.2-.45-.6-.83-.83-1.27-.23-.43-.67-.74-.9-1.17-.23-.43-.54-.82-.73-1.27-.19-.45.14-1.05,0-1.52-.15-.46-.78-.8-.93-1.27-.14-.47-.04-1.03-.23-1.48-.19-.45-.34-.9-.5-1.35-.16-.46-.69-.79-.85-1.25-.16-.46-.57-.81-.75-1.26-.18-.45-.13-.98-.34-1.42-.21-.44,0-1.11-.2-1.54-.22-.44-.32-.87-.5-1.33-.17-.45-.61-.81-.8-1.26-.18-.45-.72-.76-.9-1.21-.18-.45-.47-.87-.63-1.33-.17-.46.28-1.1.16-1.58-.12-.47-.53-.89-.64-1.36-.11-.48.14-1.08-.03-1.53-.17-.46-.35-.96-.56-1.41-.2-.44-1.17-.5-1.37-.94-.21-.44.2-1.16.04-1.62-.16-.46-.49-.86-.63-1.33-.13-.47-.5-.87-.63-1.34-.13-.47-.34-.9-.49-1.36-.15-.46.39-1.17.22-1.63-.17-.46-.75-.76-.91-1.22-.16-.46-.15-.97-.3-1.44-.15-.46-.39-.9-.57-1.36-.17-.45-.74-.75-.92-1.2-.17-.46-.38-.94-.52-1.41-.14-.47-.07-1.01-.19-1.48-.11-.47.33-1.07.22-1.54-.11-.47-.74-.82-.87-1.29-.13-.47.11-1.02.03-1.5-.08-.48-.08-.97-.15-1.45-.08-.48.06-1.05-.06-1.52-.13-.47-.78-.8-.98-1.25-.19-.45-.02-1.08-.21-1.53-.19-.45-1.05-.66-1.16-1.14-.11-.47.25-1.06.15-1.53-.1-.48-.04-.98-.14-1.46-.1-.48-.29-.94-.4-1.41-.1-.48-.41-.91-.48-1.39-.08-.48-.05-.97-.12-1.46-.07-.48.04-1.01-.06-1.48-.1-.47-.1-.98-.2-1.45-.1-.47-.14-.96-.24-1.44-.1-.47-.9-.81-.98-1.29-.09-.48.16-1.02.07-1.5-.09-.48-.1-.97-.19-1.45-.09-.48-.63-.88-.7-1.36-.08-.48.52-1.07.44-1.55-.08-.48-.6-.89-.67-1.37-.07-.48-.04-.98-.11-1.46-.07-.48-.41-.97-.43-1.46-.02-.49.39-.97.37-1.46-.01-.49.08-1,.02-1.48-.06-.48-.47-.91-.54-1.4-.07-.48.37-1.04.3-1.52-.07-.48-.81-.87-.85-1.35-.05-.48-.03-.98-.06-1.46-.04-.48.11-.98.07-1.46-.03-.48-.31-.95-.35-1.43-.04-.48.55-1.01.53-1.49-.03-.48-.79-.93-.82-1.42-.02-.49.64-1.01.61-1.49-.03-.48-.02-1-.07-1.48-.05-.48-.91-.86-.96-1.34-.06-.48.53-1.03.53-1.51,0-.48-.6-.99-.58-1.48.03-.48.12-.96.15-1.45.03-.49.82-.94.82-1.42,0-.48-.31-.97-.34-1.46-.03-.48-.25-.95-.28-1.43-.03-.48.12-.97.16-1.45.02-.48.35-.95.38-1.43.03-.48-.82-1.01-.79-1.5.03-.48.32-.95.35-1.43.02-.48.57-.93.61-1.41.04-.48.15-.96.18-1.44.04-.48.05-.98.07-1.46.03-.48-.51-.99-.51-1.48l.04-1.46c0-.49-.3-1.02-.25-1.5.05-.49.56-.92.64-1.4l.17-1.45c.07-.48-.21-1-.17-1.48.05-.48.28-.94.34-1.42.05-.48.42-.94.48-1.42.05-.48-.06-.98,0-1.46.07-.48.46-.96.48-1.44.03-.48-.35-.98-.32-1.47.03-.49.19-.97.26-1.45.07-.48.13-.97.25-1.44.11-.47.53-.85.67-1.32.14-.47-.15-1.05-.07-1.53.09-.48.3-.94.38-1.41.08-.48.06-.98.14-1.46.08-.48.09-.97.17-1.45.09-.48.33-.93.42-1.41.1-.48.02-.99.12-1.47.09-.48.52-.88.62-1.35.1-.47-.32-1.03-.24-1.51.08-.48.43-.92.51-1.4.08-.48.43-.92.53-1.39.1-.47.06-.98.16-1.46l.3-1.43c.09-.48-.11-1.03,0-1.5.1-.48.76-.83.86-1.3.1-.47-.07-1.01.03-1.48.1-.48.14-.97.26-1.45.12-.47.62-.84.75-1.31.13-.47-.35-1.12-.21-1.59.13-.47.23-.93.35-1.4.12-.47,1.04-.74,1.16-1.21.11-.47.17-.96.31-1.43.13-.47.43-.89.56-1.35.13-.47-.53-1.14-.42-1.61.11-.47.09-.98.2-1.45.11-.48.33-.95.46-1.42.13-.47.4-.91.54-1.38.15-.47.7-.79.84-1.26.15-.46.4-.9.55-1.37.15-.47.1-.98.27-1.44.17-.46.16-.98.33-1.44.17-.46.75-.78.89-1.25.15-.47.1-1.01.21-1.49.11-.47-.1-1.02,0-1.49.11-.48.05-1.03.19-1.5.16-.46.32-.94.48-1.4.17-.46.54-.84.71-1.3.17-.46.54-.84.7-1.3.16-.46.69-.71.91-1.15.22-.44.28-.97.5-1.41.22-.44.46-.92.61-1.39.16-.46.12-1,.23-1.48.11-.47.57-.88.68-1.35.11-.48.18-.91.34-1.37.17-.46.35-.87.55-1.32.2-.44-.28-1.21-.08-1.66.2-.45.9-.67,1.07-1.12.17-.46.4-.89.57-1.35.17-.46-.17-1.1,0-1.56.16-.46.93-.7,1.09-1.15.17-.46.18-1.01.32-1.48.13-.47-.25-1.05-.12-1.52.13-.47.26-.99.43-1.44.18-.46.88-.73,1.04-1.19.15-.46.23-.95.39-1.41.15-.46.08-1,.25-1.46.18-.46.64-.77.86-1.2.22-.43.5-.84.72-1.27.23-.43.32-.97.5-1.42.18-.45.38-.89.58-1.33l.56-1.35c.2-.44.35-.91.53-1.36.18-.45.14-.99.31-1.44.18-.46.27-.94.45-1.39.18-.46.21-.98.39-1.43.18-.46.78-.74.94-1.21.16-.46.75-.79.92-1.26.16-.46-.22-1.12-.03-1.57.19-.45.62-.8.82-1.26.19-.45-.04-1.08.16-1.54s.83-.72,1.02-1.17c.19-.45.63-.76.85-1.2.22-.44.4-.9.63-1.34.23-.44-.02-1.12.17-1.57.2-.45.53-.84.69-1.32.16-.47.42-.9.58-1.37.16-.47-.05-1.08.15-1.53.2-.45.54-.89.8-1.31.26-.42.99-.51,1.25-.93.26-.42-.12-1.21.08-1.66.21-.44.43-.9.64-1.34.21-.44.79-.71,1-1.15.21-.44.12-1.03.33-1.47.21-.45,1.11-.64,1.28-1.11.16-.46.26-.95.42-1.42.17-.47.19-.94.4-1.39.2-.45.07-1.06.3-1.5.23-.44.28-.96.51-1.4.23-.44.82-.68,1.03-1.13.21-.45.53-.87.7-1.34.17-.46-.18-1.09-.01-1.56.17-.46.48-.91.69-1.36s.88-.67,1.1-1.11c.22-.44-.14-1.16.08-1.61.22-.44.69-.76.91-1.2.22-.44.26-1.01.51-1.43.25-.42.96-.56,1.21-.98.25-.42.16-1.05.37-1.49.22-.44.44-.87.61-1.34.17-.46.71-.8.89-1.26.18-.46.3-.9.52-1.34.22-.44-.07-1.22.21-1.63.28-.41,1.22-.33,1.49-.74.28-.41.11-1.13.33-1.57.22-.44.48-.86.65-1.32.18-.46.62-.83.81-1.29.18-.46-.08-1.11.15-1.54.23-.44,1-.54,1.27-.96.27-.41.38-.94.65-1.35.27-.41.18-1.04.4-1.48.23-.44,1-.62,1.2-1.07.2-.45-.38-1.23-.17-1.68.21-.45.51-.88.74-1.32s.75-.72.97-1.16c.22-.44.78-.71,1-1.15s.37-.91.6-1.34.41-.91.63-1.35l.67-1.31c.22-.44.18-1.01.42-1.44.23-.44.95-.64,1.19-1.1.23-.44,0-1.13.23-1.59.23-.44.13-1.07.37-1.52.23-.44.92-.66,1.14-1.12.22-.45.06-1.08.28-1.54.22-.45.67-.81.91-1.26.23-.44.72-.76.95-1.21.23-.44-.09-1.18.15-1.63.24-.45.87-.7,1.11-1.14.24-.45.34-1,.63-1.43.29-.42.41-.96.7-1.38.29-.42.55-.79.79-1.24.24-.45.99-.66,1.19-1.13.2-.47.18-1.02.38-1.48.21-.47.39-.95.63-1.39.24-.45.26-1.01.5-1.46.24-.45.59-.84.82-1.29.23-.45.4-.94.64-1.38.25-.45,1.09-.51,1.38-.92.3-.42.38-1,.67-1.41.3-.42.38-.98.63-1.41.22-.39.65-.69.83-1.1.17-.41.43-.79.61-1.2.17-.41-.03-.98.18-1.37.21-.39.28-.86.5-1.25.22-.39,1.13-.39,1.35-.78.22-.39-.19-1.12.02-1.5.21-.39.76-.6.98-.98.22-.39.35-.82.57-1.21.22-.39.3-.85.51-1.24.22-.39.88-.57,1.07-.97.19-.4-.17-1.04.03-1.44.19-.4.74-.62.96-1.03.14-.25.24-.46.17-.44-.04,0-.15.1-.29.16-.14.07-.31.05-.34.05Z"/>
  </g>
</svg>