<?xml version="1.0" encoding="UTF-8"?>
<svg id="Layer_1" data-name="Layer 1" xmlns="http://www.w3.org/2000/svg" viewBox="0 0 482.32 368.46">
  <defs>
    <style>
      .cls-1 {
        fill: #f7f;
      }

      .cls-2 {
        fill: #6d1631;
      }
    </style>
  </defs>
  <rect class="cls-2" x="2.27" y="2.4" width="477.62" height="363.26" rx="57.91" ry="57.91"/>
  <path class="cls-1" d="M433.67,361.9c1.39-.33,2.08-.06,3.02-.24.59-.11,1.39-.39,2.14-.71.75-.33,1.45-.63,1.92-.69.93-.12,1.47-.11,2.65-.43.93-.25,1.8-.33,3.14-.93,1.74-.88,2.62-1.9,3.59-2.52.7-.41,1.41-.68,2.11-.98.7-.29,1.43-.56,2.08-1.07.46-.35.96-.73,1.54-1.16.56-.45,1.2-.97,1.95-1.58,1.48-1.24,2.44-2.21,3.25-2.99.6-.55,1.04-1.11,1.44-1.7.41-.59.84-1.14,1.37-1.75.74-.84,2.09-1.42,3.27-2.97,1.16-1.55,1.82-2.77,2.41-3.73.89-1.36,1.39-2.39,2.19-3.8.49-1.02,1.29-2.13,2.06-3.9.41-.87.77-1.62,1.08-2.27.32-.65.62-1.21.79-1.75.26-.77.38-1.47.5-2.16.08-.7.17-1.4.39-2.18.17-.54.29-1.15.46-1.85.16-.7.36-1.5.51-2.44.37-1.89.36-3.27.52-4.39.13-1.61.2-2.75.21-4.36.04-1.11.41-2.49.4-4.46,0-1.97.21-3.38.21-4.54,0-1.66-.3-2.82-.3-4.48,0-1.15-.42-2.55-.42-4.51-.01-1.97-.02-3.42-.03-4.58.05-1.66.08-2.82.13-4.48.01-1.16.56-2.5.56-4.47s-.06-3.43-.09-4.59c-.04-1.66-.06-2.84-.1-4.5-.03-1.16-.08-2.47-.08-4.44s-.53-3.33-.54-4.49c-.01-1.66.71-2.9.7-4.56,0-1.16-.17-2.52-.17-4.48s.12-3.18.17-4.34c.08-1.64-.02-2.94.05-4.57.05-1.16.15-2.63.15-4.62s-.3-3.34-.32-4.49c-.05-1.66-.08-2.82-.13-4.48-.02-1.16-.18-2.59-.18-4.56s.19-3.33.16-4.48c-.03-1.66-.05-2.87-.07-4.53-.04-1.16-.13-2.55-.13-4.52s.32-3.25.37-4.41c.07-1.64-.44-3.17-.37-4.81.05-1.16.03-2.33.03-4.31s-.01-3.21-.04-4.37c-.04-1.66.53-3.07.48-4.73-.03-1.16-.2-2.47-.2-4.44s-.39-3.28-.41-4.44c-.03-1.66.6-3.02.57-4.68-.02-1.16-.4-2.45-.4-4.42s-.28-3.32-.29-4.48c-.03-1.66-.04-2.83-.07-4.49-.01-1.16.53-2.59.53-4.56s.02-3.26.05-4.42c.04-1.66-.25-2.96-.2-4.62.03-1.16-.1-2.53-.1-4.5s-.13-3.39-.12-4.55c.01-1.66.54-2.79.55-4.45,0-1.16-.49-2.57-.49-4.53s.62-3.32.63-4.48c.03-1.66.05-2.83.08-4.49.01-1.16-.68-2.6-.68-4.57s.34-3.38.34-4.54c0-1.66-.34-2.84-.33-4.5,0-1.15.15-2.53.15-4.5s.18-3.35.16-4.5c-.02-1.66.15-2.87.12-4.53-.02-1.16.17-2.53.17-4.49s-.03-3.47-.06-4.63c-.04-1.66-.79-2.59-.83-4.25-.03-1.16-.09-2.68-.09-4.65s.02-3.67.07-4.83c.09-1.64.16-2.8.25-4.44.05-1.16.79-2.28.79-4.26-.01-1.98-.5-3.24-.6-4.37-.09-.8-.06-1.54-.04-2.29,0-.74-.02-1.49-.15-2.29-.08-.56-.24-1.14-.42-1.81-.19-.67-.34-1.45-.57-2.38-.4-1.88-1.21-3.04-1.52-4.11-.22-.77-.46-1.42-.67-2.07-.2-.66-.43-1.3-.74-2.05-.39-1.04-.52-2.49-1.33-4.24-.44-.86-.9-1.55-1.32-2.16-.44-.59-.84-1.09-1.11-1.59-.38-.71-.68-1.31-.98-1.92-.31-.6-.58-1.23-1.06-1.89-.32-.47-.71-.95-1.16-1.52-.47-.55-1.02-1.17-1.61-1.92-1.24-1.47-2.27-2.16-3.08-2.94-1.12-1.15-1.99-1.88-3.18-2.95-.86-.71-1.92-1.77-3.44-2.92-1.52-1.14-2.36-2.28-3.31-2.89-1.35-.91-2.61-1.07-4-1.88-.99-.5-1.82-1.8-3.59-2.57-.87-.41-1.69-.61-2.41-.77-.72-.16-1.33-.31-1.87-.49-.76-.27-1.42-.49-2.08-.69-.67-.18-1.34-.35-2.11-.59-.53-.18-1.1-.39-1.76-.64-.66-.25-1.43-.54-2.38-.69-1.9-.37-3.2-.03-4.31-.15-1.6-.1-2.95-.92-4.58-.89-1.12-.01-2.36.16-4.33.17-1.97,0-3.38-.14-4.54-.14-1.66,0-2.82.29-4.48.29-1.16,0-2.55.2-4.51.2-1.97.02-3.35.03-4.51.05-1.66,0-2.87-.49-4.53-.48-1.16,0-2.52.7-4.49.7s-3.46-.14-4.62-.18c-1.66-.02-2.88-.04-4.54-.06-1.16-.04-2.41-.82-4.38-.82s-3.32.61-4.48.63c-1.66.04-2.79.19-4.46.23-1.16.03-2.63-.23-4.6-.23s-3.6.45-4.76.42c-1.66-.06-2.71-.36-4.37-.42-1.16-.04-2.45-.54-4.42-.54s-3.23.72-4.39.74c-1.66.03-2.89-.12-4.56-.09-1.16.02-2.63-.2-4.6-.2s-3.28.29-4.44.32c-1.66.04-2.84.06-4.5.1-1.16.02-2.63-.46-4.6-.46s-3.66.52-4.82.46c-1.63-.09-2.59-.46-4.22-.55-1.16-.06-2.51.14-4.5.14s-3.43-.45-4.58-.42c-1.66.04-2.88-.04-4.54,0-1.16.03-2.44.77-4.41.77s-3.29-.72-4.45-.75c-1.66-.03-2.95.35-4.61.31-1.16-.02-2.51-.42-4.48-.42s-3.42.21-4.58.26c-1.64.07-2.83.12-4.47.19-1.16.05-2.5.36-4.48.36s-3.18-.51-4.34-.57c-1.64-.08-3.28.51-4.91.43-1.16-.06-2.29-.68-4.28-.68s-3.6-.14-4.76-.09c-1.65.07-2.67.42-4.32.48-1.16.05-2.49.52-4.46.52s-3.46-.14-4.62-.17c-1.66-.05-2.6-.66-4.26-.71-1.16-.03-2.69.52-4.66.52s-3.36-.31-4.51-.33c-1.66-.03-2.88.14-4.54.11-1.16-.02-2.52-.52-4.49-.52s-3.25.62-4.41.66c-1.66.04-2.86.07-4.52.1-1.16.04-2.64.28-4.61.28s-3.38-.3-4.53-.32c-1.66-.02-2.87.22-4.53.21-1.16-.01-2.5-.46-4.47-.46s-3.22-.3-4.38-.33c-1.66-.05-3.03.38-4.69.33-1.16-.03-2.5.19-4.47.19s-3.36-.3-4.52-.3c-1.66,0-2.84-.02-4.5-.03-1.16,0-2.55-.15-4.52-.15s-3.19.55-4.35.6c-1.66.06-2.9,0-4.55.05-1.16.04-2.67.17-4.64.17s-3.48-.08-4.64-.11c-1.66-.04-2.56-.81-4.23-.85-1.16-.03-2.71.41-4.68.41s-3.38,0-4.54.04c-1.65.06-2.89,0-4.55.06-1.16.04-2.48.43-4.45.43s-3.4.1-4.56.09c-1.66-.01-2.75-.75-4.42-.76-1.16,0-2.6.69-4.57.69s-3.32-.48-4.48-.51c-1.66-.04-2.78-.22-4.44-.26-1.16-.03-2.65-.04-4.62-.04s-3.38.13-4.54.14c-1.66.01-2.78.47-4.44.49-1.16.01-2.59-.26-4.56-.26s-3.3-.26-4.46-.28c-1.66-.02-2.85-.03-4.52-.05-1.16-.03-2.6-.27-4.56-.27s-3.27.61-4.43.65c-1.66.05-2.92-.06-4.53.05-.56.02-1.19.07-1.91.14-.72.08-1.55.09-2.5.23-.95.13-1.77.21-2.49.34-.71.12-1.33.23-1.89.33-.8.11-1.48.34-2.16.52-.68.19-1.36.38-2.14.6-.54.14-1.17.13-1.89.18-.72.06-1.53.17-2.45.48-1.81.69-3.03,1.38-4.05,1.88-.74.33-1.4.59-2.04.88-.64.29-1.3.54-2.01.95-.99.57-2.04,1.38-3.65,2.45-1.61,1.08-2.37,2.41-3.24,3.1-1.29.97-2.32,1.46-3.56,2.52-.81.78-1.91,1.59-3.22,3.01-.68.69-1.31,1.31-1.88,1.85-.58.53-1.07,1.02-1.39,1.49-.97,1.31-.61,2.41-1.48,3.75-.32.46-.75.98-1.27,1.57-.52.59-1.08,1.28-1.55,2.12-.49.82-.85,1.58-1.13,2.26-.29.68-.56,1.24-.8,1.75-.35.72-.61,1.38-.87,2.03-.25.66-.46,1.32-.78,2.06-.23.51-.61,1-1.03,1.58-.41.59-.89,1.27-1.14,2.21-.56,1.86.02,3.37-.23,4.46-.18.78-.27,1.46-.41,2.14-.14.67-.24,1.35-.33,2.15-.06.56-.32,1.15-.56,1.86-.22.71-.45,1.52-.52,2.48-.06,1.92-.08,3.33-.06,4.49.02,1.66.59,2.75.61,4.41.01,1.16.19,2.6.19,4.57s-.22,3.42-.24,4.57c-.02,1.66.08,2.86.06,4.52-.02,1.16-.77,2.48-.77,4.44s.53,3.33.55,4.49c.03,1.66.33,2.77.35,4.43.02,1.16-.1,2.65-.1,4.62s-.53,3.26-.58,4.42c-.07,1.64-.36,2.68-.43,4.32-.05,1.16-.12,2.82-.12,4.81s.7,3.37.7,4.53c0,1.66-.14,2.83-.14,4.5,0,1.16-.12,2.56-.12,4.52s-.29,3.37-.3,4.52c0,1.66.53,2.84.53,4.5,0,1.16-.59,2.55-.59,4.51s.73,3.36.73,4.52c0,1.66-.7,2.85-.7,4.51,0,1.16.54,2.54.54,4.51s-.45,3.48-.41,4.64c.05,1.66.17,2.8.22,4.46.03,1.16.41,2.47.41,4.44s-.3,3.34-.32,4.5c-.03,1.66-.23,2.79-.26,4.45-.02,1.16.19,2.63.19,4.59s-.13,3.42-.1,4.58c.03,1.66.26,2.78.29,4.44.02,1.16.45,2.55.45,4.52s-.05,3.47-.07,4.63c-.03,1.66-.41,2.74-.44,4.4-.02,1.16-.07,2.54-.07,4.51s-.04,3.39-.02,4.54c.03,1.66.05,2.84.08,4.5.02,1.16.26,2.53.26,4.5s-.2,3.37-.19,4.53c.01,1.66-.19,2.85-.18,4.52,0,1.16.14,2.53.14,4.49s-.07,3.32-.09,4.48c-.02,1.66-.04,2.83-.07,4.49-.02,1.16.07,2.59.07,4.56s.4,3.27.43,4.43c.04,1.66-.28,2.96-.24,4.62.03,1.16.36,2.52.36,4.49s-.21,3.37-.24,4.53c-.03,1.66.36,2.95.33,4.61-.02,1.16-.56,2.43-.56,4.4s.23,3.39.22,4.55c0,1.66-.58,2.8-.59,4.46,0,1.16-.02,2.57-.03,4.53-.01,1.97-.02,3.26-.03,4.42-.03,1.66.42,2.95.39,4.61-.02,1.16.15,2.54.15,4.51s-.62,3.39-.62,4.55c0,.83.2,1.53.4,2.23.22.69.44,1.36.46,2.17,0,.56-.1,1.19-.19,1.92-.09.73-.21,1.57-.07,2.53.21,1.92.66,3.23.84,4.35.13.8.24,1.48.35,2.16.09.68.2,1.36.42,2.15.15.55.35,1.15.61,1.84.28.68.59,1.46.9,2.37.35.9.63,1.69.87,2.39.25.7.51,1.28.75,1.8.35.74.77,1.24,1.21,1.73.44.49.85.99,1.26,1.68.58.95.62,2.69,1.7,4.31,1.09,1.6,1.82,2.66,2.52,3.55.97,1.32,1.9,2.09,2.96,3.34.78.83,1.6,2.02,3.03,3.34.69.68,1.41,1.14,2.02,1.55.61.41,1.16.73,1.62,1.07,1.28,1,2.16,1.85,3.51,2.77.98.58,2.14,1.14,3.82,2.06.83.49,1.61.8,2.31,1.04.7.24,1.29.47,1.8.7.73.34,1.27.76,1.81,1.18.55.4,1.12.79,1.87,1.1.52.23,1.17.33,1.9.45.73.13,1.55.3,2.48.55,1.84.56,3.21,1.18,4.32,1.41,1.6.23,2.77.5,4.39.62,1.12.13,2.34.1,4.25.24,1.92.05,3.29-.38,4.47-.39,1.67,0,2.81.37,4.48.38,1.16,0,2.56.25,4.53.25s3.41-.41,4.57-.38c1.66.05,2.6.63,4.26.68,1.16.04,2.74-.72,4.71-.72s3.25.02,4.41-.01c1.66-.05,2.92.12,4.58.08,1.16-.03,2.58-.2,4.55-.2s3.14.65,4.3.7c1.64.08,2.83.13,4.47.21,1.16.05,2.8-.58,4.78-.58s3.23-.11,4.39-.14c1.66-.04,2.95.23,4.62.18,1.16-.03,2.57-.21,4.54-.21s3.28.54,4.44.56c1.66.03,2.97-.43,4.64-.4,1.16.02,2.5.5,4.47.5s3.37.08,4.53.08c1.66,0,2.84-.77,4.51-.77,1.16,0,2.55.46,4.51.46s3.37.21,4.53.21c1.66,0,2.85-.55,4.51-.55,1.16,0,2.54.14,4.51.14s3.32-.07,4.48-.08c1.66-.02,2.87.15,4.54.13,1.16-.01,2.56-.12,4.53-.12s3.23-.2,4.39-.24c1.66-.06,3.18.53,4.84.47,1.16-.04,2.36-.78,4.33-.78,1.97.01,3.46.02,4.62.03,1.66.03,2.63.82,4.3.85,1.16.02,2.66-.13,4.63-.13s3.53-.46,4.69-.42c1.65.09,2.81.15,4.46.24,1.16.04,2.43.68,4.4.68,1.97-.02,3.35-.03,4.5-.05,1.67,0,2.89-.74,4.56-.73,1.16,0,2.52.78,4.5.78s3.35-.43,4.51-.45c1.66-.04,2.92.17,4.58.13,1.16-.03,2.49-.63,4.46-.63s3.35.31,4.51.26c1.65-.06,2.71-.35,4.37-.41,1.16-.04,2.7.36,4.67.36s3.41-.19,4.57-.15c1.66.06,2.66.47,4.32.52,1.16.04,2.69-.24,4.67-.24s3.52.45,4.68.43c1.66-.04,2.64-.67,4.3-.7,1.16-.03,2.59.45,4.56.45s3.55-.56,4.71-.5c1.64.08,2.59.49,4.22.57,1.16.06,2.63-.36,4.62-.36s3.3-.1,4.46-.11c1.67-.02,2.89.32,4.56.3,1.16-.01,2.57.5,4.54.5s3.36-.49,4.52-.52c1.66-.05,2.78-.22,4.45-.27,1.16-.03,2.62.37,4.59.37s3.39.17,4.55.17c1.66,0,2.82-.63,4.48-.64,1.16,0,2.56-.11,4.53-.11s3.53.09,4.69.14c1.65.07,2.47.74,4.13.81,1.16.05,2.76.14,4.74.14s3.61-.19,4.78-.25c1.63-.09,2.49-.59,4.12-.68,1.17-.06,2.66-.11,4.66-.11s3.3.49,4.46.51c1.67.03,2.93-.37,4.6-.34,1.16.02,2.54-.24,4.52-.24s3.67-.03,4.96,0c1.72.04,3.07.07,4.79.12,1.29.03,2.66.06,4.69.06,1.5,0,2.61.29,3.61.19,1.27-.12,2.31-.26,3.29-.44.98-.18,2.34-.09,3.61-.21,1-.1,1.78-.04,3.28-.04s3.25-.58,4.39-.46c1.38.14,2.79.44,3.67.69.98.28.12.85.59,1.17.57.39,2.61.68,2.61.96s-1.05.7-1.8,1.08c-.6.3-.56.9-1.68,1.16-.98.23-3.72-.24-5.14-.11-1.21.11-2.14.54-3.68.54s-2.52-.22-3.53-.31c-1.3-.11-2.98.08-4-.08-1.02-.16-1.2-.83-2.5-.94-1.02-.09-2.56,0-4.05,0-1.93,0-3.27.17-4.36.19-1.63.04-2.64.23-4.27.27-1.08.02-2.46.28-4.39.28s-3.26-.76-4.41-.79c-1.66-.03-2.96.36-4.62.32-1.16-.02-2.53.18-4.5.18s-3.38-.44-4.53-.44c-1.66,0-2.81.31-4.47.32-1.16,0-2.56-.02-4.53-.04-1.97,0-3.41.32-4.56.31-1.66-.01-2.83-.02-4.49-.03-1.16,0-2.51-.3-4.47-.3s-3.54-.56-4.69-.54c-1.66.04-2.51.95-4.17,1-1.16.03-2.7-.05-4.67-.05s-3.37-.47-4.53-.47c-1.66,0-2.85.56-4.51.56-1.15,0-2.53-.42-4.49-.42s-3.56.3-4.72.26c-1.65-.06-2.62-.51-4.28-.57-1.16-.04-2.57-.39-4.54-.39s-3.41.39-4.57.46c-1.62.09-2.66.37-4.28.46-1.16.07-2.69,0-4.68,0s-3.13-.51-4.29-.55c-1.65-.06-3.31.75-4.96.69-1.16-.04-2.3-.69-4.27-.69s-3.4.11-4.56.14c-1.66.04-2.65.56-4.31.6-1.16.03-2.7.03-4.66.03s-3.33-.64-4.48-.65c-1.66-.01-2.87.24-4.53.23-1.16-.01-2.55-.3-4.52-.3s-3.53.57-4.69.53c-1.65-.06-2.54-.71-4.19-.77-1.16-.04-2.68.46-4.65.46s-3.34-.16-4.5-.12c-1.65.07-2.63.48-4.29.54-1.16.05-2.78-.07-4.75-.07s-3.35-.13-4.51-.11c-1.66.03-2.83.05-4.49.08-1.16.01-2.57-.36-4.54-.36s-3.43.42-4.59.39c-1.66-.03-2.84-.05-4.5-.09-1.16-.03-2.48-.39-4.45-.39s-3.51.42-4.67.39c-1.66-.05-2.65-.54-4.3-.59-1.16-.03-2.6-.17-4.57-.17s-3.64-.14-4.8-.08c-1.64.07-2.28.98-3.91,1.05-1.16.05-2.83-.3-4.82-.3s-3.35-.15-4.5-.16c-1.66,0-2.84,0-4.5,0-1.16-.01-2.56.37-4.53.37s-3.39-.26-4.54-.28c-1.66-.03-2.74-.46-4.4-.49-1.16-.02-2.62.6-4.59.6s-3.47.05-4.63.03c-1.66-.03-2.71-.49-4.37-.52-1.16,0-2.56-.01-4.53-.02-1.97,0-3.55-.4-4.71-.37-1.66.05-2.67.49-4.33.54-1.16.03-2.53.05-4.5.05s-3.34-.04-4.5-.08c-1.66-.05-2.69-.45-4.35-.49-1.16-.03-2.72,0-4.69,0s-3.18.69-4.35.75c-1.63.11-2.78.19-4.4.31-1.16.06-2.8-.14-4.78-.14s-3.25-.38-4.41-.42c-1.66-.05-2.98.2-4.64.15-1.16-.04-2.53-.46-4.49-.46s-3.42.54-4.58.52c-1.66-.03-2.72-.5-4.39-.53-1.15-.01-2.61-.21-4.62-.27-2.01-.1-3.62-.09-4.8-.22-1.69-.12-2.91-.37-4.59-.6-.58-.1-1.18-.17-1.88-.27-.7-.08-1.51-.22-2.48-.51-1.97-.53-3.32-.96-4.44-1.39-1.54-.68-2.89-1.03-4.39-1.82-.54-.26-1.05-.64-1.65-1.07-.59-.44-1.31-.86-2.18-1.39-1.77-.98-2.91-1.86-3.91-2.5-1.39-.96-2.62-1.27-3.96-2.35-.95-.72-2.07-1.62-3.57-2.97-.74-.71-1.35-1.35-1.88-1.92-.51-.59-.94-1.1-1.38-1.5-.62-.56-1.11-1.01-1.64-1.44-.52-.44-1.05-.87-1.6-1.5-.4-.45-.87-.98-1.4-1.6-.5-.64-1.06-1.38-1.66-2.22-.56-.86-1.06-1.61-1.5-2.27-.43-.67-.77-1.27-1.06-1.8-.43-.75-.59-1.44-.74-2.13-.15-.69-.34-1.35-.66-2.14-.23-.55-.64-1.1-1.1-1.76-.45-.66-.9-1.45-1.28-2.39-.7-1.93-.45-3.52-.75-4.66-.49-1.63-1.14-2.71-1.53-4.39-.19-1.18-.27-2.62-.49-4.63-.06-.5-.15-.97-.24-1.41-.08-.44-.15-.86-.22-1.25-.14-.78-.3-1.45-.29-2.05.01-1.71.02-2.94.09-4.58.04-1.16.07-2.45.07-4.42s.55-3.58.5-4.74c-.06-1.65-.6-2.57-.66-4.23-.04-1.16.02-2.59.02-4.56s.35-3.19.39-4.35c.06-1.65.11-2.85.17-4.5.04-1.16-.21-2.71-.21-4.68s-.4-3.36-.4-4.52c0-1.66.35-2.84.34-4.5,0-1.16.41-2.55.41-4.52s-.39-3.37-.42-4.53c-.04-1.66.06-2.89.02-4.55-.03-1.16.1-2.49.1-4.46s.07-3.46.05-4.62c-.05-1.66-.09-2.82-.14-4.48-.02-1.16-.72-2.47-.72-4.44s.73-3.24.76-4.4c.04-1.66-.21-2.93-.17-4.59.03-1.16.16-2.57.16-4.54s-.06-3.4-.08-4.56c-.03-1.66-.04-2.84-.07-4.5-.02-1.16-.36-2.52-.36-4.48s-.24-3.3-.25-4.46c0-1.66.01-2.84.02-4.51-.01-1.16.62-2.61.62-4.57s-.22-3.34-.18-4.5c.05-1.66-.06-2.91,0-4.57.04-1.16.53-2.5.53-4.47s-.08-3.49-.11-4.65c-.05-1.66-.76-2.57-.8-4.23-.03-1.16.75-2.7.75-4.66S0,162.79,0,161.64c0-1.66.39-2.86.38-4.52,0-1.16-.14-2.55-.14-4.52s.52-3.26.55-4.42c.04-1.66-.26-2.94-.22-4.6.02-1.16.1-2.56.1-4.53s-.32-3.47-.29-4.63c.04-1.66-.02-2.87.02-4.53.03-1.16.76-2.41.76-4.38s-.51-3.3-.55-4.46c-.06-1.65.23-3.01.17-4.66-.04-1.16.13-2.45.13-4.42s-.18-3.34-.17-4.5c.01-1.66-.49-2.89-.47-4.55,0-1.16.72-2.52.72-4.49s-.17-3.29-.14-4.45c.04-1.66-.15-2.92-.11-4.58.03-1.16.45-2.54.45-4.51s-.21-3.45-.24-4.61c-.05-1.66-.59-2.63-.64-4.29-.03-1.16.63-2.68.63-4.65s-.73-3.53-.7-4.69c.05-1.66.58-2.63.63-4.29.02-.58-.05-1.23-.13-1.98-.06-.76-.11-1.64-.09-2.66.12-2.02.27-3.42.43-4.6.16-1.71.92-2.93,1.19-4.6.11-.58.23-1.2.37-1.92.12-.73.31-1.54.6-2.51.26-.98.41-1.82.56-2.56.14-.74.22-1.4.41-1.97.29-.8.63-1.5.97-2.19.35-.69.74-1.36,1.06-2.15.22-.55.52-1.1.88-1.74.36-.63.74-1.38,1.26-2.24.98-1.77,1.73-2.84,2.39-3.83.99-1.38,1.18-3.04,2.3-4.36.75-.94,1.6-1.95,2.96-3.47.71-.74,1.43-1.26,2.1-1.68.68-.41,1.28-.74,1.7-1.15.6-.6,1.15-1.07,1.67-1.58.52-.51,1.05-1,1.73-1.52.92-.76,2.17-1.45,3.82-2.6.85-.54,1.51-1.11,2.08-1.62.59-.49,1.1-.91,1.61-1.22.74-.45,1.42-.74,2.1-1.03.68-.3,1.35-.6,2.13-.95.54-.25,1.12-.56,1.79-.91.68-.33,1.48-.68,2.42-1.06,1.92-.69,3.34-1.24,4.51-1.51,1.66-.45,2.82-.44,4.5-.78,1.18-.16,2.56-.65,4.58-.87,1.01-.15,1.96-.08,2.79,0,.83.08,1.56.13,2.15.11,1.68-.11,2.53-.83,4.17-.89,1.16-.05,2.66.37,4.63.37s3.3.02,4.45.04c1.66.03,2.92-.24,4.58-.21,1.16.02,2.54-.27,4.51-.27s3.34.46,4.5.48c1.66.03,2.97-.42,4.64-.39,1.16.02,2.44.72,4.41.72s3.31.12,4.47.13c1.66.02,2.94-.75,4.6-.73,1.16.01,2.5.8,4.47.8s3.3-.54,4.47-.6c1.64-.08,2.93.01,4.57-.07,1.16-.05,2.52.27,4.51.27,1.97,0,3.39,0,4.55,0,1.66,0,2.81-.36,4.48-.36,1.16,0,2.55-.5,4.52-.5s3.35.49,4.51.51c1.66.02,2.87-.13,4.53-.11,1.16,0,2.54.02,4.51.03,1.97,0,3.31.36,4.47.38,1.66.02,2.95-.48,4.61-.45,1.16.02,2.49.08,4.46.08s3.36.68,4.52.68c1.66,0,2.84-.71,4.51-.71,1.16,0,2.55.47,4.51.47s3.37-.29,4.53-.3c1.66,0,2.83.15,4.5.14,1.16,0,2.55.33,4.52.33s3.37-.18,4.53-.18c1.66.02,2.83.03,4.49.04,1.16,0,2.56-.22,4.53-.22s3.4-.31,4.56-.3c1.66.01,2.74.78,4.4.8,1.16.01,2.61-.17,4.58-.17s3.39-.51,4.55-.5c1.66,0,2.8.53,4.46.53,1.16,0,2.56-.13,4.53-.13s3.32.17,4.48.19c1.66.02,2.9-.39,4.56-.37,1.16.01,2.53.58,4.5.58s3.37-.46,4.53-.45c1.67.01,2.82.16,4.48.17,1.16,0,2.56.15,4.53.15s3.48-.17,4.64-.23c1.63-.09,2.52-.54,4.15-.64,1.17-.06,2.76-.17,4.76-.17s3.3.48,4.46.52c1.65.07,2.82.12,4.48.19,1.16.04,2.63.05,4.6.05s3.47.08,4.63.05c1.66-.05,2.83-.08,4.5-.13,1.16-.03,2.45-.48,4.42-.48s3.33.3,4.49.33c1.66.04,2.84.06,4.5.1,1.16.02,2.59-.4,4.56-.4s3.28-.03,4.44-.05c1.66-.03,2.96.46,4.62.43,1.16-.02,2.51-.27,4.48-.27s3.24.41,4.4.44c1.66.05,3.02-.38,4.68-.33,1.16.03,2.48-.09,4.45-.09s3.36.53,4.52.53c1.66,0,2.83-.62,4.5-.62,1.16,0,2.55.41,4.51.41s3.39.42,4.55.42c1.66,0,2.81-.62,4.47-.62,1.16,0,2.56-.09,4.52-.09s3.33.07,4.48.05c1.66-.03,2.89.2,4.55.17,1.16-.02,2.54-.38,4.51-.38s3.36.34,4.52.34c1.66,0,2.82.15,4.49.16,1.16,0,2.57.26,4.54.26s3.45-.28,4.61-.32c1.66-.05,2.58-.65,4.24-.7,1.16-.04,2.72.51,4.68.51s3.46-.39,4.62-.35c1.66.05,2.79.19,4.45.24,1.16.03,2.49.25,4.46.25,1.98,0,3.44.21,4.64.23,1.7-.02,2.91.07,4.61.17.59.05,1.22.11,1.96.18.74.06,1.57.16,2.57.36,2.02.33,3.3.65,4.46.96,1.6.54,2.73.93,4.29,1.57,1.11.42,2.66.74,4.54,1.54.93.43,1.7.71,2.36.97.66.27,1.22.51,1.78.74.78.32,1.44.8,2.12,1.24.68.43,1.35.9,2.07,1.32,1.06.57,2.43.9,4.11,2.12.81.64,1.36,1.28,1.82,1.87.45.6.79,1.14,1.23,1.54.63.57,1.27,1.04,1.9,1.52.64.48,1.29.95,1.85,1.6.4.45.75.99,1.17,1.61.4.64.86,1.35,1.52,2.11,1.27,1.57,2.08,2.7,2.74,3.68.99,1.38,1.93,2.27,2.82,3.73.59,1.04,1.02,2.43,1.91,4.23.88,1.82,1.36,3.2,1.79,4.3.66,1.57,1.37,2.55,1.93,4.17.32,1.15.57,2.57.99,4.54.24.98.45,1.82.63,2.57.18.74.37,1.38.45,1.97.25,1.69.48,2.87.61,4.58.14,1.17.63,2.62.67,4.63,0,1.97-.33,3.37-.33,4.52,0,1.66-.37,2.83-.37,4.5,0,1.16.43,2.55.43,4.52s-.48,3.43-.46,4.58c0,1.67.01,2.84.02,4.51.01,1.16.08,2.49.08,4.46s.71,3.33.72,4.49c.01,1.66-.1,2.85-.09,4.51,0,1.16.01,2.58.02,4.55,0,1.99-.64,3.15-.71,4.32-.08,1.63.14,3.05.06,4.69-.06,1.17-.06,2.56-.06,4.55,0,1.97,0,3.36,0,4.52.03,1.66.28,2.78.31,4.45.02,1.16-.56,2.61-.56,4.58s.21,3.42.23,4.58c.04,1.66.41,2.72.45,4.39.03,1.16-.51,2.61-.51,4.58s0,3.23-.02,4.39c-.05,1.66.46,3.06.42,4.72-.03,1.16-.12,2.47-.12,4.44s-.38,3.39-.38,4.56c0,1.66.65,2.8.66,4.46,0,1.16-.5,2.57-.5,4.54s.51,3.22.54,4.37c.07,1.66.11,2.82.18,4.48.03,1.16-.05,2.72-.05,4.69s-.62,3.37-.62,4.53c0,1.67-.1,2.84-.1,4.5,0,1.16,0,2.56,0,4.53,0,1.97.33,3.39.34,4.55.02,1.67.4,2.78.42,4.44.01,1.16.21,2.6.21,4.57s-.74,3.22-.79,4.38c-.07,1.64.31,3.1.24,4.75-.05,1.16-.29,2.44-.29,4.42s.39,3.33.4,4.48c.01,1.66-.65,2.9-.64,4.57,0,1.16.34,2.52.34,4.49s.3,3.42.29,4.57c0,1.67,0,2.84,0,4.51-.01,1.16-.59,2.5-.59,4.47s.3,3.38.29,4.54c-.01,1.66-.44,2.78-.46,4.45,0,1.16.44,2.59.44,4.56s-.62,3.43-.61,4.59c.02,1.67.65,2.75.67,4.42.01,1.16-.56,2.58-.56,4.55s.5,3.36.55,4.52c.07,1.64.35,2.69.42,4.34.05,1.16-.37,2.71-.37,4.7s.06,3.31-.01,4.47c-.11,1.62-.18,2.81-.29,4.44-.07,1.17-.06,2.65-.06,4.65-.02,1.99-.04,3.45-.06,4.62.03,1.7-.1,2.92-.18,4.62-.13,1.18-.24,2.54-.63,4.53-.16,1-.27,1.85-.37,2.61-.1.76-.14,1.42-.31,2-.23.83-.48,1.52-.74,2.22-.27.69-.57,1.36-.84,2.18-.18.57-.37,1.19-.61,1.91-.24.72-.5,1.55-.93,2.47-.81,1.88-1.6,3.1-2.14,4.16-.85,1.48-1.69,2.36-2.64,3.78-.62,1-.82,2.63-2.04,4.28-.64.8-1.18,1.53-1.7,2.13-.53.6-.99,1.12-1.38,1.56-.58.64-1.16,1.04-1.72,1.47-.55.43-1.12.84-1.76,1.41-.85.81-1.67,2-3.22,3.32-.81.64-1.61,1.04-2.32,1.37-.72.31-1.37.54-1.88.89-.7.5-1.3,1.04-1.9,1.59-.6.56-1.21,1.11-1.98,1.52-.55.3-1.19.49-1.93.7-.75.2-1.57.44-2.48.9-1.4.62-2.3,1.45-3.26,1.9-1.19.6-1.77,1.14-2.73,1.63-.48.25-1.03.51-1.62.77-.6.23-1.23.47-1.87.71-1.01.41-2.46.28-3.97.64-1.58.28-3.05.98-4.33,1-1.49.07-1.82-.44-2.85-.6-.59-.09-1.27-.12-1.88-.17-.61-.07-1.15-.16-1.47-.3-.79-.36-.87-.72-.88-1.01,0-.29-1.26-.84-.38-1.23.67-.32,2.36-.52,3.52-.88.5-.14,1.04-.32,1.63-.5.59-.19,1.22-.41,1.89-.55.58-.11,1.3-.14,2.06-.21.76-.07,1.57-.08,2.27-.26Z"/>
</svg>