<?xml version="1.0" encoding="UTF-8"?>
<svg id="Layer_1" data-name="Layer 1" xmlns="http://www.w3.org/2000/svg" viewBox="0 0 200 200">
  <defs>
    <style>
      .cls-1 {
        fill: #ffc0c4;
      }

      .cls-2 {
        fill: #ffd2d4;
      }

      .cls-3 {
        fill: none;
        stroke: #f7f;
        stroke-linejoin: bevel;
        stroke-width: 2.27px;
      }

      .cls-4 {
        fill: #fdf186;
      }
    </style>
  </defs>
  <path class="cls-2" d="M39.88,153.7c-4.63-3.12-7.66-8.68-8.14-10-1.3-3.57-1.99-10.37-4.26-13.42-.56-.75-4.25-.26-5.52-.61-2.03-.56-4.56-4.66-5.95-6.25-1.02-1.16-1.39-2.74-1.73-4.25-1.57-7.06-1.11-18.29.79-25.35,1.51-5.59,4.48-2.08,8.74-6.06.67-.63,4.65.73,5.27.06,3.96-4.34,5.69-14.08,9.21-18.78,10.79-14.41,29.77-20.07,47.69-21.73,17.9-1.66,38.26-1.95,53.61,7.41,4.61,2.81,11,7.34,15.16,10.77,5.31,4.37,15.78,19.99,16.03,22.1,1.35-.29,3.31-.84,4.75.29,1.57,1.23,1.39,3.26,1.6,3.26,2.96.01,7.03-.23,7.67,2.26,1.16,4.49,1.34,13.29,1.41,15.12.19,4.54.28,9.18-1.13,13.49-.31.93-.71,1.88-1.45,2.52-.38.33-1.2-.39-2.05.11-1.14.67-2.35,2.56-3,2.75-1.41.41-1.04,1.8-2.26,2.56,0,0-2.26-.59-3.32.46-2.42,2.39-4.42,5.34-6.16,8.27-3.25,5.48-6.25,11.43-11.46,15.09-5.6,3.92-12.8,4.53-19.62,4.86-33.25,1.62-86.34,1.51-95.86-4.92Z"/>
  <path id="stroke" class="cls-3" d="M39.88,153.7c-4.63-3.12-7.66-8.68-8.14-10-1.3-3.57-1.99-10.37-4.26-13.42-.56-.75-4.25-.26-5.52-.61-2.03-.56-4.56-4.66-5.95-6.25-1.02-1.16-1.39-2.74-1.73-4.25-1.57-7.06-1.11-18.29.79-25.35,1.51-5.59,4.48-2.08,8.74-6.06.67-.63,4.65.73,5.27.06,3.96-4.34,5.69-14.08,9.21-18.78,10.79-14.41,29.77-20.07,47.69-21.73,17.9-1.66,38.26-1.95,53.61,7.41,4.61,2.81,11,7.34,15.16,10.77,5.31,4.37,15.78,19.99,16.03,22.1,1.35-.29,3.31-.84,4.75.29,1.57,1.23,1.39,3.26,1.6,3.26,2.96.01,7.03-.23,7.67,2.26,1.16,4.49,1.34,13.29,1.41,15.12.19,4.54.28,9.18-1.13,13.49-.31.93-.71,1.88-1.45,2.52-.38.33-1.2-.39-2.05.11-1.14.67-2.35,2.56-3,2.75-1.41.41-1.04,1.8-2.26,2.56,0,0-2.26-.59-3.32.46-2.42,2.39-4.42,5.34-6.16,8.27-3.25,5.48-6.25,11.43-11.46,15.09-5.6,3.92-12.8,4.53-19.62,4.86-33.25,1.62-86.34,1.51-95.86-4.92Z"/>
  <g>
    <path class="cls-1" d="M57.15,83.5c3.26-1.94,55.07-4.35,84.53,0,0,0,13.06,6.15,12.55,23.57-.51,17.42-3.89,20.09-11.01,23.35-7.12,3.26-43.8,5.68-84.28,0,0,0-15.11-4.54-13.32-23.17,1.79-18.63,8.26-21.82,11.53-23.75Z"/>
    <path class="cls-1" d="M57.68,83.38c.26-.07.62-.33.88-.37.27-.05.5-.21.76-.26.27-.05.59.14.84.09.27-.05.52-.06.78-.09.27-.03.53-.06.8-.1.27-.04.55-.08.81-.12.27-.03.5-.22.76-.26.27-.04.54-.05.8-.08.27-.04.54-.08.79-.12.27-.03.57.06.83.03.27-.03.5-.18.76-.21.27-.03.55.03.82,0,.27-.03.56.03.83,0,.27-.03.51-.15.77-.18.27-.03.52-.13.78-.15.27-.02.56.12.83.1.27-.02.53-.1.79-.12.27-.02.54,0,.8-.02.27-.02.51-.28.78-.29.26,0,.54,0,.8,0,.27-.01.52-.05.79-.07.27-.02.52-.03.79-.05.26-.03.53-.06.79-.09.26-.02.56.18.83.17.26-.02.51.01.78,0,.26,0,.54-.2.81-.2.26,0,.52-.1.79-.12.26-.01.55.19.82.17.26-.02.52-.1.79-.11.26-.01.53.06.81.05.26,0,.52,0,.79,0,.26,0,.54.01.8.02.26,0,.53-.28.8-.29.26,0,.51.01.78-.02.26-.03.55-.01.82-.04.26-.03.53-.1.81-.1.26,0,.5.15.78.18.26.03.54.05.8.08.27.02.56-.19.84-.19.26,0,.59.23.86.2.26-.03.44-.29.71-.31.26-.03.56-.06.83-.07.26,0,.55.01.82.02.26.02.54.04.8.05.26,0,.52.14.79.13.26,0,.55-.17.82-.17.26,0,.51.19.78.2.26,0,.54-.18.81-.18.26,0,.53.18.8.18.27,0,.54-.15.81-.15.26,0,.53.01.8.02.27,0,.52.06.79.04.26-.02.57.08.83.06.27-.02.5-.05.77-.05.26-.01.53-.02.8-.03.26,0,.53.11.79.12s.53-.15.8-.14c.26,0,.53-.13.79-.13.26,0,.53.26.8.27.27,0,.53-.06.8-.06.26,0,.53-.01.8-.02.26,0,.53-.09.79-.09l.8.02c.26.01.54.02.81.04.26.02.5.16.77.18.26.02.54-.02.81,0h.8c.27.01.53-.12.79-.12.27,0,.53.2.8.2.27,0,.55.1.82.1.26,0,.53-.02.79-.03.27,0,.52-.25.79-.24.27,0,.54.12.81.15.26.02.55-.01.81.01.26.03.5.18.76.19.27.01.52-.06.79-.06.26,0,.56.14.83.13.27,0,.52-.25.78-.23.27.01.52.12.79.14.27.01.53-.04.8-.03.27.01.53.13.8.14.26.01.53.11.79.12.26.02.54-.12.8-.1l.8.05c.27.02.47.25.73.29.26.04.57-.03.83,0,.26.04.54.11.8.13.27.02.54-.04.81-.05.26,0,.51-.09.77-.1.27,0,.55.22.81.24.27.02.54-.07.8-.04.26.03.52.11.78.14.26.03.53.14.8.16s.54-.08.81-.04c.26.04.53.09.79.13.26.04.54-.07.81-.04.27.03.49.07.76.07.27,0,.58.2.85.21.27,0,.5,0,.77.04.26.03.57-.15.84-.11.26.04.51.16.77.19.27.03.52.06.79.08.27.04.56.09.82.15.26.05.43.32.69.37.26.05.58-.1.85-.06.07,0,.14.03.21.07l.15.05c.18.15.29.35.46.44.23.13.57.1.81.24.23.15.34.49.56.64.23.14.52.2.74.35.22.16.49.24.7.42.21.17.45.32.66.49.21.17.41.35.61.53l.62.53c.21.18.37.42.55.62l.55.6c.18.21.4.37.56.59.17.22.17.56.33.77.17.21.56.29.72.51.16.22.08.56.22.78.14.23.3.48.45.7.15.23.51.27.66.51.15.23.18.57.33.79.15.23.25.48.38.72.14.23.43.4.53.65.11.25-.01.6.09.85s.41.42.52.67c.12.25.09.55.17.81.09.26.12.54.21.79.09.26.13.52.21.78.09.26.44.48.47.76.03.26.06.55.09.81.04.27-.18.56-.12.82.06.26.29.49.35.75.04.27.16.51.19.78.04.27,0,.56.04.83.03.27.16.54.18.81.02.27-.19.54-.2.81,0,.27-.03.55-.03.82,0,.27.15.53.16.8,0,.27.07.54.08.81,0,.27.13.55.11.81-.01.27-.1.52-.09.78.01.27-.06.56-.05.82.01.27.01.52,0,.79,0,.27.13.58.09.85-.04.27-.29.45-.33.72-.04.27-.07.56-.09.82-.02.27-.02.55-.02.82-.01.27.11.52.09.78-.01.27-.08.54-.11.81l-.1.8c-.04.27-.24.49-.29.75-.05.26.09.58.05.84-.04.27-.11.53-.16.79-.05.26-.03.54-.08.81-.05.27-.35.48-.41.74-.05.26-.04.54-.12.8-.08.25-.17.52-.26.77-.08.26-.09.54-.2.8-.1.26-.29.5-.37.76-.08.26-.03.56-.15.81-.11.25-.33.46-.45.71-.11.25-.1.6-.26.83-.16.23-.46.33-.62.56-.16.22-.2.56-.38.78-.18.22-.41.39-.61.58-.2.2-.49.31-.68.5-.19.21-.41.37-.62.55-.22.17-.3.53-.53.68-.23.15-.49.26-.72.41-.23.16-.45.31-.69.45-.24.14-.6.09-.83.23-.23.13-.47.27-.7.4-.24.13-.42.33-.67.44-.24.11-.44.34-.69.45-.24.11-.52.14-.79.22-.26.09-.51.24-.77.33-.27.09-.58,0-.84.04-.26.06-.46.39-.73.45-.26.06-.52.12-.79.19-.27.06-.57-.04-.83,0l-.79.14c-.26.05-.49.29-.76.34-.27.05-.55-.03-.81.03-.26.06-.51.16-.77.21-.26.05-.56-.06-.82-.02-.27.04-.52.13-.79.17-.27.04-.54,0-.81.04-.26.04-.5.31-.76.34-.27.03-.54-.14-.81-.13-.27.02-.53.04-.81.07-.27,0-.53.12-.8.14-.27.03-.55-.08-.81-.05-.27.03-.54,0-.8.02l-.79.06c-.27.02-.53.13-.8.16-.27.03-.55-.03-.81,0-.27.03-.51.16-.77.18-.27.02-.54.17-.81.18-.26,0-.54,0-.8,0-.27,0-.53-.14-.8-.13-.27.01-.5.2-.76.23-.26.04-.57-.02-.83.01-.27.04-.52.2-.79.21-.27.01-.51-.23-.78-.24-.27,0-.56.11-.82.11-.27,0-.54-.03-.8-.02-.27,0-.53.06-.8.08-.27.02-.55-.05-.81-.03-.27.02-.52.1-.78.11-.27,0-.54-.02-.8,0-.27.01-.54-.08-.81-.07-.27.01-.52.31-.78.32-.27,0-.53-.19-.79-.21-.27-.02-.51-.12-.77-.14-.27-.01-.57.07-.83.07-.27,0-.49.2-.76.22-.27,0-.53.02-.81.03-.27.02-.56.07-.83.08-.27,0-.54-.06-.8-.07-.27,0-.54.06-.8.05-.27,0-.52-.04-.79-.05-.27,0-.53-.1-.8-.1-.27,0-.53.08-.79.08-.27,0-.54-.03-.81-.03-.27,0-.54-.04-.81-.06-.27-.02-.5-.15-.77-.17-.27-.02-.55.03-.82.03-.27,0-.52.11-.78.12-.27,0-.57-.17-.83-.16-.27,0-.51.11-.78.1-.27,0-.52-.07-.78-.1-.26-.03-.51-.11-.77-.14-.27-.03-.57.1-.83.1-.27,0-.5.01-.77.03-.27.02-.55-.03-.82,0-.27.02-.55.14-.81.13-.26-.02-.55-.04-.81-.06-.26-.03-.53-.05-.79-.08-.27-.02-.51-.26-.77-.27-.27-.01-.59.2-.85.17-.26-.03-.51-.12-.77-.15-.27-.03-.51-.03-.77-.04-.27,0-.52,0-.79-.01-.27,0-.54-.15-.8-.16-.27-.01-.54.14-.8.12-.27-.02-.52-.16-.79-.17-.27,0-.53.08-.79.07-.27,0-.55.01-.81,0-.27-.02-.54-.09-.8-.11-.27-.02-.5-.24-.77-.26-.27-.02-.54,0-.8-.02-.27-.02-.54.02-.8,0-.26-.03-.55.07-.82.04-.27-.03-.51-.12-.77-.14-.27-.02-.57-.24-.84-.24-.25.01-.54.02-.79.03-.27,0-.49,0-.75-.02-.27-.02-.52,0-.78-.05-.25-.05-.53-.11-.77-.16-.26-.04-.55-.07-.82-.1-.27-.02-.53.13-.8.12-.27-.01-.53-.03-.8-.04-.27-.02-.55.02-.81,0-.25-.03-.5-.12-.77-.14-.25-.02-.51-.04-.78-.06-.25-.03-.51-.05-.78-.08-.25-.03-.51-.1-.77-.14-.25-.04-.51-.08-.77-.13-.25-.04-.52,0-.78-.04-.25-.03-.53-.07-.79-.11-.25-.04-.5-.12-.76-.16-.25-.04-.5-.1-.77-.14-.26-.03-.49.03-.76.02-.26,0-.55-.16-.81-.17-.26-.01-.52.14-.79.11-.26-.03-.5-.18-.76-.22-.26-.03-.52-.01-.79-.05-.26-.03-.49-.24-.75-.28-.26-.03-.55.08-.81.03-.25-.05-.47-.2-.72-.25-.25-.05-.51-.2-.77-.23h-.13s-.01-.01-.01-.01h-.04c-.23-.07-.44-.11-.65-.19l-.73-.32c-.24-.11-.48-.23-.72-.34-.24-.11-.52-.14-.77-.25-.24-.11-.46-.36-.7-.47-.23-.12-.57,0-.8-.15-.23-.15-.37-.42-.58-.58-.21-.17-.5-.26-.71-.43-.21-.17-.4-.32-.61-.49-.2-.17-.28-.5-.48-.67l-.61-.52c-.21-.17-.33-.43-.51-.62-.19-.19-.39-.39-.58-.57-.18-.19-.47-.28-.64-.49-.17-.21-.4-.37-.56-.59-.16-.22-.16-.54-.31-.75-.16-.21-.35-.42-.47-.65-.13-.23-.18-.52-.32-.75-.14-.23-.35-.41-.48-.64-.14-.23-.13-.52-.24-.76-.1-.25-.32-.46-.43-.7-.11-.24-.2-.51-.33-.75-.14-.23-.36-.37-.47-.61-.1-.25-.23-.55-.31-.8-.08-.26.13-.57.06-.83-.08-.25-.42-.5-.45-.76-.04-.27.09-.54.05-.8-.05-.26-.27-.47-.33-.73-.06-.26.05-.58,0-.83-.04-.26-.14-.52-.16-.78-.02-.27-.1-.52-.12-.79-.02-.27-.05-.54-.07-.8-.02-.27.06-.55.06-.81,0-.27.02-.54.02-.8.02-.27.04-.53.05-.79.01-.27-.1-.54-.09-.8.01-.27.13-.54.16-.8.03-.27.22-.47.26-.73.05-.26-.11-.56-.08-.82.03-.27.13-.52.17-.78.04-.26.24-.48.28-.74.03-.27.03-.54.07-.79.05-.27.18-.54.21-.79.03-.27-.08-.52-.05-.78.03-.27.01-.54.05-.79.04-.27.24-.47.31-.71.08-.26.15-.5.22-.75.08-.26.03-.56.08-.81.06-.26.05-.51.1-.76.06-.26.28-.51.33-.76.06-.26-.07-.57,0-.81.08-.26.3-.46.38-.7.1-.25.07-.56.16-.8.1-.26.32-.44.4-.67.1-.25.17-.51.27-.74.09-.25.18-.51.27-.74.1-.25.06-.57.16-.8.1-.25.43-.36.56-.58.14-.22.25-.48.38-.69.14-.22.21-.49.36-.71.14-.22.41-.36.54-.59.13-.22.19-.49.35-.7.15-.21.2-.51.36-.73.15-.21.35-.37.54-.57.17-.19.4-.32.59-.53.17-.19.33-.41.52-.61.19-.17.36-.39.58-.55.2-.14.42-.3.64-.45.2-.15.43-.27.65-.43.21-.15.5-.13.73-.26.22-.13.37-.45.6-.57.22-.12.53-.05.77-.17.15-.08.38-.41.39-.37,0,.03-.28.23-.4.3-.22.15-.43.28-.64.42-.22.14-.57.16-.77.31-.22.16-.27.47-.46.63-.2.17-.61.1-.8.26-.21.18-.21.55-.4.71-.21.17-.52.23-.7.4-.18.2-.29.44-.43.64-.17.21-.33.4-.48.6-.16.21-.34.4-.47.6-.15.22-.34.44-.46.65-.14.22-.14.48-.25.7-.11.23-.31.42-.44.63-.14.22-.16.49-.29.71-.13.22-.35.37-.48.59-.12.22-.16.51-.25.76-.09.23-.1.49-.19.73-.09.23-.25.45-.34.7-.09.23-.1.5-.19.75-.08.23-.28.44-.36.7-.07.24,0,.51-.08.76-.06.24-.12.5-.18.75-.06.24-.28.45-.34.71-.06.24-.03.5-.09.76-.06.24-.12.49-.18.75-.05.24-.27.44-.33.7-.06.24-.03.53-.09.78-.06.24-.16.5-.19.76-.04.25-.12.49-.17.75-.05.25.08.57.03.83-.05.25-.29.48-.34.74-.04.26.19.55.16.81-.03.26-.28.49-.31.76-.04.26-.08.52-.12.78-.03.26.14.54.11.8-.03.26-.08.52-.08.78-.01.26-.12.51-.13.78-.01.26.1.5.12.76.01.26-.06.55-.05.81.02.26-.01.52,0,.78.02.26.03.51.02.78,0,.26-.02.52-.03.78-.01.26-.15.54-.13.8.02.26.04.58.13.83.07.25.25.44.33.69.07.25.04.51.08.77.05.25.21.48.24.74.04.25.2.49.26.74.07.25.02.52.1.77.08.25.2.48.27.73.05.25.06.51.16.75.1.24.29.46.4.69.11.24.33.38.45.61.11.23.15.54.29.76.15.21.22.46.35.69.13.22.26.44.39.66.14.22.27.44.42.65.15.21.53.25.69.46.16.2.21.49.41.66l.56.53c.19.18.3.43.48.61.18.18.5.22.69.39.19.17.34.38.53.56.18.18.36.37.56.53s.49.22.69.37c.2.16.28.48.49.63.22.14.57.08.79.21.21.15.45.22.67.34.23.12.38.4.61.51.23.11.45.26.68.37.23.12.53.12.75.25.22.12.49.2.7.29h.02s-.09-.01-.09-.01c.25.07.43.3.69.34.26.03.53.09.8.12.26.03.54-.16.8-.14.26.03.51.27.77.31l.78.08c.26.05.52.1.78.14.26.04.55-.04.81,0,.26.03.56-.07.82-.04.26.04.51.17.77.21.26.04.53.02.79.05.26.03.51.21.78.24.26.02.53-.07.8-.05.26.03.53.07.79.1.27.03.51,0,.77,0,.26,0,.55.09.82.09.27,0,.54-.14.81-.12.26.03.48.31.75.35.27.03.53.06.79.08.26.04.54.09.8.12.27.02.56-.11.82-.08l.79.1c.26.03.49.28.76.3.27.02.51.08.77.11.26.03.55-.06.81-.03.26.03.54-.05.8-.03.27.02.52.09.79.11.27.01.54.11.8.12.27.01.52-.03.79-.01.27.02.53.05.79.07.27.02.52.12.78.14.27.02.54-.2.81-.18.27.01.54.03.8.04.27.02.52.18.78.2.27.02.53-.02.79,0,.27.02.53.11.79.13.26,0,.54,0,.79.01.27.02.53.14.79.16.27.01.51.08.78.1.27.02.58-.25.83-.23.27.02.5.25.76.26.26.01.53-.03.8-.02.26,0,.52-.12.79-.12.26,0,.54.13.8.15.26.01.53-.04.8-.03.26.01.53-.03.8-.02.26.01.52.25.79.25.26,0,.53-.27.79-.26.26,0,.54.24.8.24.27,0,.53-.1.79-.09.26,0,.53.07.79.08.26,0,.53-.03.8-.02.26,0,.53.09.79.1.27,0,.54-.1.81-.08.26.01.51.17.77.18.27.01.54-.03.81-.03.26,0,.53-.07.79-.07s.53.16.8.16c.26,0,.53-.02.8-.03.27,0,.5-.22.76-.23.26-.02.6.23.86.21.27-.02.5-.04.76-.04.27,0,.51-.03.78-.01.26.02.58-.09.84-.07.27.02.5.2.77.2.27,0,.57.02.84,0,.26-.02.49-.17.75-.2.27-.02.53.09.8.09.27,0,.5,0,.77.01.26.01.55-.06.81-.05.27,0,.54-.02.8-.03.27,0,.54,0,.8-.02.27,0,.53-.02.8-.03.26-.02.52-.02.78-.03.26,0,.52-.14.79-.15s.54.13.8.12c.27-.01.53-.08.79-.09.27-.01.5.09.77.09.27,0,.53,0,.8,0,.27,0,.56-.05.82-.06.27-.01.5-.21.76-.24.26-.03.5-.13.77-.16.26-.03.58.12.84.11.26-.02.53-.09.79-.11.26-.02.53.05.79.03.26-.02.54.06.8.04.26-.02.54-.04.81-.07.26-.03.49-.25.76-.27l.79-.07c.26-.03.5.11.77.11.26,0,.58-.19.85-.19s.52.22.79.19c.26-.03.49-.28.76-.32l.79-.1c.26-.04.56.14.82.11.26-.04.49-.26.75-.32.26-.06.48-.19.74-.24.26-.06.56-.07.82-.1.26-.02.54-.05.8-.08.26-.02.49.15.75.13.26-.02.54-.23.8-.28.26-.05.54.02.8-.02.26-.04.5-.19.75-.25.25-.06.48-.25.73-.31.25-.06.58.13.83.07.26-.05.44-.31.68-.39.24-.09.53-.03.78-.12.25-.08.5-.23.73-.37.23-.13.33-.4.55-.53.23-.13.55-.11.78-.23.23-.12.4-.36.64-.47.22-.12.49-.17.71-.3.23-.13.35-.43.55-.58.21-.14.44-.3.66-.43.21-.13.51-.1.72-.25.2-.16.34-.41.5-.59.18-.18.48-.23.67-.41.19-.17.27-.45.43-.64.15-.2.33-.39.47-.6.13-.21.38-.37.52-.6.14-.22.25-.44.35-.68.11-.24.06-.53.17-.76.12-.22.29-.43.38-.68.09-.24,0-.54.09-.78.09-.24.26-.46.33-.71.07-.25.03-.53.1-.78.07-.25.17-.49.21-.75.05-.25.25-.48.31-.73l.18-.76c.05-.26-.03-.54.01-.8.04-.26.02-.52.06-.78.04-.26.14-.51.18-.77l.07-.79c.03-.26.18-.5.21-.76.03-.26.14-.52.17-.78l.05-.79.05-.79c.02-.26-.14-.54-.12-.8.02-.26.02-.53.03-.79.01-.26.21-.52.22-.78.01-.27-.12-.53-.11-.8,0-.26.1-.53.1-.8.01-.27-.11-.53-.11-.79,0-.26-.09-.51-.1-.77,0-.26.08-.53.07-.79,0-.26.17-.53.16-.8,0-.26-.27-.49-.3-.75-.04-.26-.01-.53-.05-.78-.04-.26.04-.53.01-.79-.03-.26-.28-.51-.32-.77-.04-.25-.08-.51-.12-.76-.04-.25-.01-.5-.07-.76-.06-.25,0-.53-.06-.79-.04-.26-.13-.5-.21-.75-.08-.25-.3-.45-.38-.7-.08-.25-.13-.49-.22-.74-.08-.25-.05-.57-.17-.8-.12-.23-.29-.42-.4-.66-.1-.24-.2-.48-.3-.72-.09-.25-.24-.46-.36-.69-.12-.23-.3-.42-.43-.65-.12-.23-.21-.48-.33-.71-.13-.23-.37-.38-.51-.6-.14-.22-.24-.45-.39-.67-.15-.21-.25-.46-.42-.66-.16-.21-.21-.48-.37-.69-.16-.21-.26-.46-.42-.67-.17-.2-.48-.27-.65-.46-.18-.19-.41-.33-.58-.51-.17-.19-.22-.51-.41-.7-.19-.18-.41-.32-.59-.51-.18-.19-.41-.33-.61-.5-.19-.17-.35-.4-.55-.57-.21-.16-.48-.23-.7-.37-.22-.14-.4-.42-.63-.54-.23-.12-.53-.05-.75-.18-.22-.13-.34-.39-.55-.54-.13-.08-.29-.15-.42-.2l.16.05c-.11,0-.22-.02-.32-.04-.26-.06-.5-.18-.76-.21-.26-.04-.54.03-.8,0l-.79-.09c-.26-.04-.53,0-.8-.04-.26-.03-.48-.34-.75-.37-.26-.04-.54,0-.8-.04-.26-.04-.53-.04-.8-.06-.26-.03-.53-.15-.8-.17-.27-.02-.53.02-.79,0-.27-.02-.52-.04-.79-.06-.27-.03-.52.12-.79.11l-.79-.03c-.27-.01-.53-.28-.79-.31-.26-.02-.54.12-.81.11-.27-.02-.53.1-.79.09-.27-.01-.54-.08-.8-.1-.27-.02-.48-.25-.74-.3-.26-.04-.63.14-.89.1-.26-.04-.45-.36-.72-.37-.27-.02-.54.06-.8.05s-.54.13-.81.12c-.26-.02-.51-.24-.78-.26-.27-.02-.52.12-.79.12-.27,0-.51.11-.77.11-.27,0-.58-.03-.85-.04-.27-.01-.51-.27-.78-.28s-.54.1-.81.09c-.26,0-.53,0-.8,0-.27-.01-.5-.17-.77-.2-.26-.03-.57.08-.84.05-.26-.03-.52-.02-.78-.03-.27-.01-.53.03-.79.03-.27,0-.53-.17-.79-.18-.27,0-.53-.13-.79-.14-.27,0-.55.09-.82.1l-.8.02c-.27.01-.53.19-.79.18-.27,0-.51-.19-.78-.22-.26-.03-.58.06-.84.03-.27-.03-.49-.1-.76-.11-.27,0-.55-.11-.82-.1-.25.02-.54.05-.79.08-.27.01-.53.09-.79.08-.27,0-.55.08-.82.06l-.79-.04c-.27-.01-.51-.23-.77-.23-.27,0-.53-.07-.8-.07s-.54.13-.8.13c-.27,0-.53.06-.79.06-.27,0-.56-.17-.82-.16-.26.01-.48.26-.74.27-.27.01-.56-.02-.83-.02-.27,0-.56.02-.82.01l-.79-.04c-.27-.01-.51,0-.77,0s-.54-.21-.81-.2c-.26.02-.53.04-.79.06-.27.01-.52.02-.79.02-.27,0-.53.05-.8.03-.26-.01-.51-.12-.77-.13-.27-.01-.55-.01-.82-.01-.29,0-.57.11-.84.13-.29.02-.56.07-.83.08-.29.02-.58-.08-.85-.08-.29,0-.57.22-.84.23-.29,0-.57-.11-.85-.11-.29,0-.57-.05-.84-.04-.29,0-.56-.04-.83-.04-.29,0-.58.06-.85.06-.29,0-.57.1-.84.11-.29,0-.58-.12-.85-.1-.28.03-.57.06-.83.08-.29.02-.56-.04-.84-.04-.29,0-.61.2-.88.18-.28-.02-.52-.15-.79-.17-.28-.02-.56.08-.84.09-.27,0-.53,0-.82.03-.27.02-.59-.11-.87-.09-.27.02-.54.21-.83.22-.27.01-.56.03-.85.05-.27,0-.54-.08-.83-.07-.27,0-.55-.04-.84-.03-.27,0-.52-.09-.81-.1-.27,0-.6.19-.88.19-.27,0-.54-.19-.83-.18-.27.01-.53.22-.82.25-.27.02-.57-.07-.86-.04-.27.02-.55-.06-.84-.04-.29.01-.55.2-.82.22-.28.03-.56.07-.82.1-.29.03-.57-.08-.83-.07-.29.02-.57,0-.83.01-.29.02-.56.12-.82.14-.28.02-.55.14-.82.16-.28.02-.56.07-.83.09-.28.02-.55,0-.82,0-.27.02-.54.08-.82.1-.27.02-.54-.11-.82-.09-.26,0-.55.02-.82.03-.27.02-.54.06-.83.1-.26.04-.53.07-.82.11-.26.03-.53.09-.82.13-.27.03-.52.18-.8.24-.17.01-.67.16-.69.12,0-.03.54-.21.69-.22.01,0-.2.13-.13.14Z"/>
  </g>
  <circle class="cls-4" cx="119.34" cy="107.44" r="15.64"/>
  <circle class="cls-4" cx="77.97" cy="107.44" r="15.64"/>
</svg>