<?xml version="1.0" encoding="UTF-8"?>
<svg id="Layer_1" data-name="Layer 1" xmlns="http://www.w3.org/2000/svg" viewBox="0 0 200 200">
  <defs>
    <style>
      .cls-1 {
        fill: #ffc0c4;
      }

      .cls-2 {
        fill: #8973ff;
      }

      .cls-3 {
        fill: #f7f;
      }

      .cls-4 {
        fill: #ffeaa7;
      }

      .cls-5 {
        fill: none;
        stroke: #f7f;
        stroke-linejoin: bevel;
        stroke-width: 1.72px;
      }

      .cls-6 {
        fill: #5e0015;
      }

      .cls-7 {
        fill: #ffd2d4;
      }

      .cls-8 {
        fill: #ffbcc2;
      }

      .cls-9 {
        fill: #ffbbc1;
      }

      .cls-10 {
        fill: #fdf186;
      }
    </style>
  </defs>
  <g>
    <g>
      <path class="cls-7" d="M164.12,157.32c7.55-4.91,14.74-13.41,15.19-22.61.14-2.76-.16-5.29-1.11-7.82-3.2-8.54-13.08-8.71-20.98-5.34-.57-6.96-2.88-13.79-4.83-20.49l-5.48-17.02c-2.22-6.9-5.86-13.1-10.48-18.62-8.42-10.05-20.32-16-33.38-16.99-6.65-.5-13.06.55-19.2,3.27-11.19,4.95-20.34,14.03-26.85,24.32-2.92,4.61-5.51,9.26-7.39,14.42l-11.34,31.11c-5.52-2.85-11.34-2.06-14.74,3.14-1.64,2.57-2.58,5.47-2.94,8.41-.04.37-.11.74-.19,1.12v3.12c.09.48.15.93.2,1.34-.27,4.37,1.71,8.65,3.96,12.32.8,1.3,4.22,6.25,5.32,6.67,0,0,33.94,13.03,68.52,13.3,34.59.27,65.73-13.66,65.73-13.66Z"/>
      <path class="cls-7" d="M164.48,157.16c.36-.24.69-.55,1.04-.79.34-.23.72-.49,1.06-.73.35-.25.69-.52,1.03-.79.33-.27.69-.5,1.01-.8l.97-.87c.32-.29.65-.55.97-.85.32-.3.51-.68.79-1.01.28-.32.74-.62,1.01-.95.28-.34.52-.63.79-.96.29-.32.53-.61.8-.95.26-.34.54-.73.78-1.08.25-.35.46-.78.71-1.13.23-.37.39-.72.61-1.1.22-.37.58-.76.76-1.15.19-.39.38-.73.56-1.13.18-.4.29-.94.47-1.33.16-.39.33-.79.49-1.17.17-.4.37-.7.48-1.13.11-.42.24-.85.32-1.28.08-.43.06-.88.14-1.31.08-.43.23-.84.28-1.27.05-.44-.01-.89,0-1.32.01-.44.06-.87.04-1.31-.02-.44-.04-.87-.08-1.3-.04-.44-.19-.85-.25-1.28-.08-.43-.09-.89-.2-1.32-.11-.43-.29-.83-.42-1.25-.13-.42-.19-.84-.37-1.24-.18-.4-.4-.83-.6-1.21-.23-.38-.44-.73-.67-1.1-.25-.37-.5-.72-.78-1.07-.26-.37-.71-.58-1.02-.89-.31-.32-.58-.65-.95-.9-.19-.12-.38-.23-.58-.32-.21-.08-.42-.15-.62-.24-.4-.19-.81-.4-1.24-.52-.42-.13-.82-.38-1.26-.46-.44-.09-.87-.17-1.31-.22-.44-.06-.9-.1-1.34-.13-.44-.02-.87-.03-1.31-.05-.43,0-.9,0-1.33.01-.44,0-.86.05-1.3.08-.44.03-.89.08-1.32.17-.43.09-.85.24-1.27.36-.42.11-.85.21-1.28.34-.42.14-.87.18-1.29.32-.21.06-.41.15-.62.23l-.54.21s-.09.08-.09.03c-.02-.04-.03-.03-.06-.32-.04-.44-.11-.87-.16-1.31-.05-.44-.14-.85-.21-1.29-.07-.43-.2-.82-.29-1.25-.08-.43-.02-.93-.1-1.36-.08-.43-.25-.84-.33-1.27-.08-.43-.22-.87-.32-1.29-.09-.43-.2-.83-.31-1.25-.11-.42-.19-.85-.3-1.27-.11-.42-.3-.8-.42-1.22-.12-.42-.16-.88-.28-1.3-.12-.42-.25-.85-.37-1.28-.13-.42-.22-.88-.35-1.3-.13-.42-.32-.76-.45-1.18l-.37-1.25-.36-1.26c-.12-.42-.24-.84-.38-1.25-.14-.41-.28-.83-.42-1.24-.14-.41-.2-.88-.34-1.29-.14-.41-.27-.8-.41-1.21-.13-.42-.36-.84-.49-1.26-.12-.42-.1-.76-.22-1.18-.12-.42-.3-.9-.44-1.32l-.37-1.24-.41-1.24c-.13-.42-.39-.8-.52-1.22-.13-.42-.16-.9-.3-1.32-.14-.41-.36-.73-.5-1.14-.14-.41-.26-.86-.39-1.28-.13-.42-.19-.88-.33-1.3-.14-.41-.42-.72-.56-1.13-.14-.41-.17-.9-.31-1.31-.15-.41-.46-.76-.62-1.17-.16-.41-.24-.85-.41-1.26-.17-.4-.39-.78-.57-1.18-.16-.38-.34-.81-.5-1.19-.18-.4-.47-.81-.66-1.2-.19-.39-.32-.78-.54-1.16-.21-.39-.51-.7-.73-1.07-.22-.38-.37-.83-.61-1.2-.23-.37-.44-.75-.68-1.12-.24-.37-.6-.68-.84-1.04-.24-.36-.48-.73-.74-1.08-.25-.36-.38-.78-.65-1.13-.26-.35-.61-.62-.89-.96-.27-.34-.52-.73-.8-1.06-.28-.33-.56-.67-.85-1-.29-.32-.6-.67-.9-.99-.28-.34-.49-.68-.8-.99-.3-.32-.66-.61-.96-.92-.3-.32-.62-.62-.94-.91-.31-.26-.67-.56-.99-.82-.32-.3-.69-.59-1.02-.87-.34-.28-.65-.59-.98-.87-.35-.27-.73-.47-1.07-.73-.35-.26-.7-.55-1.06-.81-.36-.25-.61-.57-.97-.82-.36-.25-.85-.46-1.22-.68-.37-.23-.72-.46-1.08-.69-.37-.23-.74-.48-1.14-.67l-1.17-.59c-.39-.21-.76-.42-1.16-.61-.39-.18-.8-.36-1.2-.54-.39-.19-.83-.31-1.23-.49-.39-.18-.8-.36-1.19-.54-.41-.15-.8-.37-1.22-.52-.41-.14-.83-.26-1.25-.39-.41-.11-.86-.23-1.27-.33-.42-.13-.89-.25-1.31-.36-.42-.12-.77-.28-1.19-.4-.42-.12-.88-.17-1.31-.24-.43-.09-.85-.24-1.28-.33-.43-.09-.87-.11-1.3-.17l-1.3-.21c-.43-.07-.84-.06-1.28-.1-.44-.04-.88-.09-1.32-.13-.44-.03-.9,0-1.33-.03-.44-.02-.87-.14-1.31-.16-.44,0-.88.05-1.32.05-.44.02-.88.04-1.31.06-.44.03-.9-.04-1.34,0-.44.05-.86.12-1.29.18-.43.06-.87.06-1.31.14-.43.07-.86.2-1.29.28-.43.08-.88.12-1.31.22-.43.09-.84.26-1.26.37-.43.1-.84.1-1.26.22-.43.11-.85.26-1.27.39-.42.12-.86.28-1.27.43-.42.14-.85.31-1.26.47-.41.16-.74.4-1.15.58-.4.17-.83.32-1.23.5l-1.19.54-1.16.63c-.39.21-.74.48-1.12.71-.38.22-.78.39-1.16.61-.38.21-.76.42-1.13.65-.37.22-.77.47-1.14.69-.37.24-.71.49-1.07.74-.36.25-.66.64-1.01.89-.35.26-.69.52-1.04.78-.35.27-.77.47-1.1.76-.34.28-.69.56-1.03.84-.34.28-.61.58-.93.88-.33.29-.64.66-.98.95-.33.28-.66.41-.98.7-.32.31-.68.66-1,.96-.31.32-.51.69-.81,1.01-.3.32-.59.63-.88.96-.3.32-.62.67-.91.99-.3.32-.63.62-.9.96-.28.34-.62.65-.9.98-.29.33-.47.71-.75,1.05-.25.34-.52.71-.77,1.05-.26.35-.47.73-.73,1.08-.26.35-.66.62-.91.98-.25.36-.44.79-.71,1.15-.26.35-.55.54-.79.9-.25.36-.43.87-.67,1.23-.24.37-.47.71-.69,1.09-.22.37-.52.75-.74,1.13-.23.37-.46.73-.69,1.1-.23.38-.4.76-.63,1.13-.23.37-.42.84-.65,1.21-.22.38-.42.71-.62,1.1-.21.39-.56.8-.75,1.2-.17.39-.35.79-.52,1.18-.18.4-.35.73-.54,1.13-.18.4-.27.88-.45,1.28-.19.39-.39.75-.56,1.15-.18.4-.32.81-.48,1.22-.16.4-.32.82-.48,1.23-.14.41-.29.85-.42,1.26-.15.41-.43.75-.58,1.16s-.19.84-.34,1.26c-.13.4-.27.83-.4,1.23-.14.41-.38.82-.53,1.23-.15.41-.24.83-.38,1.24-.16.4-.33.83-.48,1.23-.15.41-.33.8-.48,1.21s-.2.87-.35,1.28l-.44,1.23c-.16.39-.33.81-.49,1.2-.15.41-.3.81-.45,1.22l-.43,1.23c-.14.41-.29.84-.43,1.25-.15.41-.36.8-.52,1.21-.16.41-.27.87-.43,1.27-.15.41-.29.78-.44,1.19l-.44,1.23-.45,1.23c-.15.41-.36.8-.51,1.21-.15.41-.25.81-.39,1.22-.13.4-.26.82-.39,1.22-.14.41-.33.86-.48,1.27-.14.41-.29.85-.42,1.25l-.38.99s-.09-.04-.12-.07c-.03-.03-.05-.06-.17-.13-.18-.12-.36-.26-.57-.34-.42-.15-.83-.34-1.26-.46-.43-.13-.89-.15-1.32-.23-.43-.11-.88-.14-1.32-.19-.44-.07-.89-.17-1.34-.19-.45.03-.89.06-1.33.14l-.67.1-.65.16c-.44.09-.86.23-1.29.37-.4.21-.8.45-1.17.7-.19.12-.39.22-.59.33-.18.12-.37.25-.55.38-.37.26-.69.53-1.03.83-.32.32-.58.76-.86,1.1-.26.36-.63.62-.86,1.01-.24.38-.35.84-.56,1.23-.21.39-.44.76-.62,1.17-.18.41-.43.78-.58,1.2-.16.42-.23.87-.35,1.3-.12.43-.22.86-.31,1.29-.09.43-.22.85-.29,1.29-.07.44.02.94-.07,1.35l-.12.67v.67c-.02.43-.03.85-.04,1.27,0,.22-.02.44-.03.66,0,.11-.01.22-.02.33v.16s0,.11,0,.15v.08c.07.4.23.85.28,1.19-.01.44-.13.91-.11,1.36.02.45.08.91.15,1.35.06.44.2.83.3,1.26.11.43.17.89.3,1.31.12.43.32.85.46,1.27.15.42.34.83.51,1.24.17.41.2.83.39,1.23.19.4.38.78.58,1.17.21.39.47.77.69,1.15.21.38.48.74.7,1.12.23.38.41.78.65,1.14.25.36.58.69.83,1.05.25.36.49.72.75,1.07.26.35.51.75.79,1.09.28.34.57.58.87.91.3.33.56.74.9,1.06.18.15.37.3.64.4.23.08.44.12.65.2.41.15.78.36,1.19.5.41.15.85.23,1.26.37.41.15.81.35,1.22.49.42.13.83.34,1.25.47.42.14.85.12,1.27.25.42.13.81.34,1.22.48.42.13.82.31,1.23.43.42.12.85.24,1.26.36.42.13.79.27,1.2.41.41.14.77.31,1.19.44.42.13.94.24,1.36.36s.83.16,1.25.27c.42.12.87.25,1.29.38.43.1.83.27,1.25.38.42.1.84.21,1.26.31.42.12.89.16,1.31.28.42.12.8.34,1.23.44.43.1.88.16,1.31.25.42.09.85.18,1.27.26.43.1.85.2,1.27.31.43.11.78.26,1.2.36.42.1.99.09,1.41.2.42.1.77.3,1.2.39.43.1.85.1,1.28.19.43.09.87.26,1.3.34.43.08.85.16,1.28.24.42.07.87.15,1.29.22.43.08.86.16,1.29.24l1.27.27c.43.08.92.11,1.35.19.42.09.85.17,1.27.26.43.08.82.21,1.25.29.43.06.86.12,1.29.19.43.06.84.08,1.27.13.43.05.89.24,1.32.3.43.06.88.12,1.31.18.43.06.85.02,1.28.07.43.06.87.21,1.3.27.43.07.8.15,1.23.2.43.06.94.04,1.37.1.43.06.86.17,1.29.22.44.05.87,0,1.31.03.42.06.89.12,1.31.18.43.05.87.02,1.31.06l1.3.08c.44.03.88.14,1.32.17.44.03.87,0,1.31.04.43.04.87.08,1.31.12.44.04.85.11,1.28.13.43,0,.91,0,1.34,0l1.31.03,1.31.05,1.32.04c.44,0,.86-.08,1.3-.08.41-.03.88-.06,1.29-.09.44,0,.91,0,1.34-.01.44,0,.87.03,1.31.01.43-.02.87-.04,1.3-.06.44-.02.89.04,1.33.01.43-.04.9-.08,1.33-.12l1.3-.11c.44-.03.86-.02,1.29-.05.44-.03.9-.21,1.33-.25.43-.04.84.01,1.27-.03.44-.04.86-.16,1.3-.21.43-.03.89-.07,1.31-.1.43-.04.87,0,1.3-.04s.86-.21,1.29-.28c.43-.06.88,0,1.32-.07.43-.07.86-.14,1.29-.21.43-.06.85-.22,1.28-.29.42-.05.88-.1,1.3-.14.43-.06.86-.21,1.29-.28l1.28-.2c.43-.08.87-.02,1.3-.1.43-.08.85-.29,1.28-.37.43-.08.87-.05,1.3-.15.42-.08.86-.16,1.28-.23.43-.09.84-.32,1.27-.41.43-.09.86-.12,1.28-.21.43-.09.86-.15,1.29-.25.42-.11.85-.23,1.26-.34.42-.1.84-.26,1.26-.36.42-.1.87-.16,1.3-.26.42-.11.86-.22,1.28-.32.42-.11.83-.22,1.25-.32.42-.11.86-.18,1.28-.3l1.26-.35c.42-.12.82-.28,1.24-.41.42-.12.85-.3,1.27-.42.42-.12.83-.1,1.25-.22.42-.12.84-.31,1.26-.44.42-.13.81-.28,1.23-.42l1.25-.42c.41-.14.85-.24,1.26-.37.42-.13.81-.32,1.23-.45l1.24-.41c.41-.14.85-.21,1.26-.35.41-.15.78-.4,1.19-.55.38-.16.81-.34,1.19-.5.41-.15.88-.21,1.28-.37.41-.16.81-.42,1.21-.57l1.22-.47c.41-.16.81-.24,1.21-.42.33-.14.74-.36.73-.38-.03-.07.23-.26.16-.28-.1-.03-.09-.09-.18-.12-.07-.02-.8.24-.83.17,0-.02.17-.19-.16-.06-.4.17-.76.39-1.16.56-.4.17-.84.31-1.24.47-.4.16-.79.32-1.19.48-.4.16-.84.27-1.25.42-.41.15-.76.39-1.17.54-.41.15-.8.35-1.21.5-.41.14-.84.29-1.25.43-.41.13-.83.26-1.24.38-.41.14-.83.19-1.25.32-.41.13-.8.33-1.22.46-.4.11-.85.24-1.26.35-.41.13-.84.22-1.26.35-.42.12-.82.3-1.24.43-.41.13-.86.2-1.28.33-.41.13-.77.37-1.19.49-.42.13-.84.24-1.26.35-.42.11-.85.1-1.27.21-.42.11-.85.22-1.27.32-.42.11-.82.3-1.24.41-.42.1-.85.2-1.27.29-.42.09-.85.19-1.27.28-.41.11-.84.23-1.25.34-.42.1-.84.31-1.27.41-.42.1-.84.14-1.27.23-.42.09-.87.07-1.29.16l-1.27.27c-.41.1-.86.22-1.27.32-.42.1-.8.11-1.23.18-.43.07-.91.22-1.33.28-.43.07-.87.06-1.3.13-.42.08-.89.18-1.32.26-.42.08-.81.22-1.24.29-.43.07-.83.23-1.26.29s-.86.07-1.29.14c-.42.05-.88.1-1.3.16-.43.05-.86.11-1.29.16-.43.07-.85.16-1.29.2-.43.05-.86.16-1.29.2l-1.3.14c-.43.05-.88.02-1.31.06-.42.03-.86.06-1.28.09-.43.04-.88.08-1.3.11-.43.03-.91-.05-1.35-.01-.43.03-.84.12-1.27.15-.43.03-.85.13-1.28.15-.43.03-.84-.04-1.28-.01-.43,0-.9.07-1.34.07-.43,0-.86-.05-1.29-.05-.43,0-.87,0-1.3,0-.43,0-.87.07-1.3.08h-1.3c-.43,0-.87,0-1.3-.01l-1.3-.04c-.43-.01-.87-.09-1.3-.11-.44-.01-.94,0-1.37,0-.43,0-.73.13-1.16.13-.44-.02-.94-.19-1.37-.22-.44-.03-.8-.05-1.23-.1l-1.32-.11c-.43-.04-.91-.07-1.34-.1-.42-.02-.87-.04-1.31-.06-.42-.03-.86-.06-1.28-.09-.43-.03-.88-.04-1.31-.09-.43-.05-.8-.2-1.24-.26-.42-.06-.85-.12-1.28-.17-.43-.06-.92-.04-1.35-.1-.42-.07-.85-.14-1.27-.21-.43-.07-.92-.02-1.35-.08-.43-.06-.81-.22-1.24-.28-.43-.06-.88-.13-1.32-.19-.43-.05-.85-.09-1.28-.16-.43-.07-.84-.14-1.27-.21-.42-.08-.83-.17-1.25-.25-.42-.08-.95-.05-1.38-.14-.43-.08-.79-.21-1.22-.29-.41-.06-.86-.13-1.27-.2l-1.28-.25c-.43-.08-.85-.24-1.27-.32-.43-.08-.88-.17-1.32-.25-.43-.07-.89-.2-1.31-.29-.43-.08-.78-.15-1.2-.24-.43-.09-.88-.12-1.3-.23-.41-.11-.83-.22-1.25-.33-.4-.12-.86-.25-1.25-.37-.42-.09-.89-.2-1.32-.3l-1.27-.27c-.43-.09-.82-.13-1.24-.23-.42-.1-.86-.21-1.28-.34-.42-.12-.85-.24-1.28-.35-.42-.12-.79-.25-1.21-.36-.42-.11-.8-.19-1.23-.29-.42-.09-.87-.26-1.29-.36-.42-.11-.84-.24-1.26-.36-.42-.12-.83-.24-1.25-.36-.42-.12-.82-.27-1.23-.4-.42-.13-.88-.14-1.29-.26-.42-.13-.82-.33-1.23-.46-.41-.13-.88-.21-1.29-.35-.41-.14-.77-.29-1.19-.43-.4-.14-.83-.3-1.23-.44-.41-.14-.82-.34-1.23-.47-.41-.14-.81-.28-1.22-.43-.41-.14-.86-.26-1.27-.4-.41-.14-.81-.23-1.22-.37-.39-.15-.87-.24-1.12-.46-.32-.25-.5-.6-.78-.91-.27-.32-.65-.65-.91-.99-.26-.34-.47-.71-.73-1.06-.25-.35-.5-.69-.75-1.04-.25-.35-.56-.69-.8-1.05-.24-.36-.51-.69-.75-1.05-.23-.36-.41-.75-.63-1.12-.22-.37-.39-.83-.6-1.2-.21-.38-.39-.73-.57-1.12-.19-.38-.42-.76-.6-1.15-.17-.39-.4-.75-.55-1.16-.16-.4-.31-.81-.45-1.21-.12-.42-.13-.82-.21-1.24-.1-.41-.22-.86-.28-1.28-.06-.42-.02-.85-.06-1.27-.02-.42-.05-.89-.03-1.31,0-.1,0-.2-.02-.3,0-.16-.06-.27-.09-.35-.07-.19-.14-.38-.17-.59-.03-.19-.07-.5-.03-.64.03-.23.05-.46.05-.68,0-.43-.02-.88-.03-1.31.03-.43-.09-.91.02-1.26.08-.44.15-.87.2-1.29.06-.43.26-.84.35-1.26.08-.42.09-.83.2-1.25.11-.42.26-.82.4-1.22.14-.41.27-.82.43-1.22.16-.4.24-.79.43-1.18.18-.39.4-.8.61-1.17.21-.38.49-.72.75-1.06.24-.36.59-.58.87-.89.27-.33.55-.66.86-.96.34-.26.69-.47,1.05-.68.36-.21.72-.41,1.1-.57.37-.19.82-.27,1.21-.42.4-.11.78-.32,1.19-.39.41-.08.91-.08,1.33-.1.42-.05.77-.14,1.21-.13.43.04.84.18,1.25.25.41.1.83.19,1.23.33.41.12.83.24,1.22.4.2.08.41.14.6.22l.3.13.36.17.49.24c.1.1.1-.08.14-.14l.1-.25c.1-.25.19-.49.29-.74.16-.39.33-.83.49-1.22.15-.41.31-.82.46-1.23l.46-1.23c.15-.41.17-.86.32-1.27.15-.41.36-.8.5-1.21l.46-1.23c.15-.41.22-.84.37-1.25.15-.41.41-.78.56-1.18.15-.41.22-.85.37-1.26.15-.4.31-.82.46-1.22.15-.41.27-.87.43-1.28.16-.4.37-.74.52-1.14.16-.4.33-.83.49-1.23.15-.41.24-.84.39-1.25s.39-.81.53-1.22c.15-.41.18-.85.32-1.25.15-.41.31-.82.46-1.23.16-.4.32-.81.48-1.21.13-.4.28-.84.41-1.24.15-.41.4-.77.55-1.18.15-.41.18-.88.33-1.29.15-.41.41-.77.56-1.18.15-.41.31-.84.46-1.25.14-.41.13-.81.28-1.23.14-.41.4-.81.56-1.22.15-.41.23-.88.39-1.28.17-.39.35-.79.52-1.18.18-.39.47-.71.65-1.1.18-.39.32-.82.5-1.21.17-.38.35-.79.52-1.17.19-.39.42-.76.62-1.15.2-.38.45-.73.66-1.11.21-.38.29-.85.51-1.23s.47-.72.69-1.1c.22-.37.51-.69.74-1.06l.69-1.1c.23-.37.47-.75.7-1.12.24-.37.38-.77.61-1.14.23-.36.46-.74.7-1.09.24-.36.45-.76.69-1.12.25-.36.56-.66.83-1.01l.78-1.04c.26-.35.48-.72.75-1.06.27-.33.56-.67.83-.99.27-.34.61-.64.88-.97.28-.33.53-.68.81-1.01.29-.32.65-.63.93-.96.28-.33.49-.67.79-.98.31-.31.61-.63.92-.93.3-.32.62-.62.94-.91.32-.29.65-.52.96-.82.32-.29.63-.65.95-.94.33-.28.66-.57.99-.85.33-.28.66-.57.99-.85.33-.28.65-.57,1-.83.35-.25.71-.52,1.05-.77.34-.27.68-.54,1.04-.79.36-.25.74-.45,1.09-.69.35-.25.65-.54,1.01-.78.36-.24.76-.45,1.12-.68.37-.22.78-.41,1.15-.63.38-.22.73-.47,1.11-.66l1.15-.61c.38-.21.75-.45,1.14-.63.39-.18.83-.28,1.22-.47.39-.19.76-.39,1.15-.57.4-.16.81-.33,1.2-.5.41-.15.83-.22,1.24-.37.41-.13.81-.37,1.22-.5.42-.12.82-.23,1.23-.35.42-.1.88-.07,1.3-.17.42-.09.84-.2,1.26-.28.42-.08.85-.14,1.27-.2.43-.06.81-.28,1.24-.33.43-.06.85-.14,1.28-.18.43-.05.89-.07,1.32-.09.43-.03.88-.03,1.31-.03.43-.02.85.06,1.28.07.43,0,.87.04,1.3.05.43,0,.86,0,1.29.04.43.02.88.05,1.31.1.43.05.85.17,1.28.21.42.04.89.1,1.31.14.43.06.84.05,1.26.11.43.08.88.13,1.3.21.42.09.86.17,1.28.27.4.12.84.24,1.24.36.42.11.83.24,1.24.37.42.13.74.3,1.15.44.41.13.86.25,1.26.41.41.16.85.32,1.25.47.41.14.83.28,1.23.44.4.16.81.39,1.21.54.4.16.75.32,1.14.5.39.19.75.36,1.14.55.38.21.87.33,1.25.54.38.21.68.48,1.05.7l1.1.68c.37.23.79.36,1.14.61.36.24.65.58,1.01.82.36.24.76.48,1.1.74.35.25.7.39,1.05.64.36.25.72.55,1.05.82.33.28.61.64.95.92.33.27.65.56.97.85.32.29.66.54.98.84.31.31.55.64.84.96.29.31.58.63.87.95.29.32.6.67.89.99.28.33.57.64.84.98.27.34.56.67.82,1.01l.8,1.02c.26.35.55.66.81,1.01.26.35.51.7.77,1.04.24.36.52.7.76,1.06.24.37.42.77.65,1.14.23.37.42.81.65,1.18.22.37.52.66.74,1.04.19.38.4.79.59,1.17.2.39.47.73.68,1.12.19.39.31.82.5,1.22.18.4.31.79.48,1.19l.51,1.21c.16.4.41.8.57,1.21.15.41.29.82.44,1.24l.43,1.25c.15.41.35.8.48,1.21.12.42.26.88.38,1.31.12.42.12.78.24,1.2.12.42.39.86.52,1.28.13.42.27.85.4,1.26.13.42.2.85.33,1.27.13.42.32.82.46,1.24.14.42.16.93.3,1.34.14.41.29.82.44,1.23.15.41.28.79.43,1.2.13.42.34.82.47,1.24.14.41.29.84.43,1.25.13.42.19.85.32,1.26.13.42.26.86.39,1.29.13.42.33.74.47,1.16.12.42.26.88.38,1.3.13.42.16.87.29,1.29.12.42.36.81.48,1.23.12.42.2.85.32,1.28.12.42.29.86.4,1.29.11.42.12.82.22,1.25.1.42.29.85.4,1.28.11.43.21.84.32,1.27.11.42.17.91.27,1.33.1.43.21.81.29,1.24.08.43.3.9.36,1.34.06.43-.03.76.03,1.19.05.43.22.91.27,1.34.05.43.1.86.16,1.3.02.28.05.57.07.87l.02.29v.15s0,.06.03.06l.07-.02c.18-.07.36-.14.53-.21.42-.17.49-.23.71-.34.19-.1.37-.2.58-.27.42-.14.83-.15,1.24-.28.41-.13.85-.25,1.27-.35.42-.11.85-.26,1.28-.34.43-.08.9-.07,1.32-.11.43-.05.78-.27,1.22-.3.44-.02.9-.04,1.33-.05.43.02.87.09,1.3.1.43.02.86.16,1.29.21.43.03.83.15,1.26.24.42.08.83.23,1.24.36.41.12.8.3,1.18.5.19.09.39.18.59.26.19.1.37.21.55.33.36.24.68.56,1,.87.32.29.73.48,1,.85.26.34.65.6.87,1,.23.38.42.8.62,1.19.18.4.42.74.61,1.15.18.4.29.87.42,1.3.13.42.19.88.29,1.31.09.43.28.83.35,1.28.06.45.04.91.07,1.36.03.45.08.92.07,1.37,0,.45.01.92-.02,1.37-.05.45-.09.84-.14,1.29-.02.45-.25.91-.3,1.35-.06.44-.1.86-.21,1.29-.12.43-.19.88-.34,1.3-.13.42-.27.87-.4,1.28-.16.42-.37.83-.54,1.24-.17.42-.36.83-.56,1.22-.21.4-.49.73-.74,1.1-.23.39-.47.81-.69,1.19-.26.38-.49.78-.74,1.14-.21.33-.51.64-.74.96-.23.31-.47.64-.71.95-.24.31-.4.62-.65.92-.25.31-.49.62-.76.9-.27.29-.65.51-.92.79-.28.28-.45.62-.73.9-.28.28-.62.51-.92.77-.29.27-.58.54-.86.8-.29.25-.6.52-.89.77-.3.26-.71.46-1.02.7-.31.24-.49.53-.81.76-.32.23-.71.42-1.04.65-.18.12-.31.21-.33.24-.02.04.14,0,.36-.15Z"/>
    </g>
    <circle class="cls-10" cx="73.98" cy="119.37" r="21.77"/>
    <circle class="cls-10" cx="122.48" cy="119.37" r="21.77"/>
    <g>
      <path class="cls-1" d="M92.27,121c.34-1.97.64-9.97,5.95-9.69s2.31,6.55,3.35,8.78,4.27,8.64,4.49,11.11c.72,8.31-.9,7.66-.18,15.97,2.74.19,5.31,2.75,6.72,4.15,3.29,3.28-3.34,7.24-6.11,5.25-2.39-1.71-4.13,2.81-6.75,3.13s-4.09-3.59-6.06-3.48c-1.97.12-4.13.26-5.73-.9s-1.51-3.29-.2-4.6,3.12-2.6,3.78-3.49c.22-.3.75-26.23.75-26.23Z"/>
      <path class="cls-6" d="M92.35,120.9c.02-.12-.02-.25,0-.37.02-.12.07-.23.09-.35.02-.11.04-.25.07-.36.02-.1.06-.25.08-.35.02-.12.03-.24.05-.36.02-.12.09-.23.11-.35.02-.12-.08-.25-.07-.37.01-.12.14-.25.16-.37.01-.12.02-.23.05-.34.03-.12.08-.21.11-.33.03-.11.02-.25.06-.37.04-.11.01-.25.04-.37.03-.12.02-.23.05-.35.02-.12.18-.22.21-.34.03-.12.06-.22.1-.33.04-.11-.02-.29.05-.4.05-.09.13-.22.18-.31.06-.11.19-.16.23-.26.05-.11.1-.22.15-.32.05-.1.03-.25.08-.36.05-.11.22-.14.29-.24.07-.1.06-.24.12-.34.07-.1.16-.18.24-.26l.23-.26c.08-.08.09-.23.17-.32.09-.07.23-.1.32-.17.09-.07.15-.2.24-.27.1-.07.24-.04.34-.09.1-.04.2-.14.3-.19.1-.05.21-.07.32-.1.11-.03.24,0,.34-.03.11-.02.21-.14.33-.13.12,0,.24.12.35.12.11,0,.22-.1.34-.12.12-.03.24,0,.35,0,.12,0,.23.09.34.11.11.02.24-.04.35.01.11.04.23.05.34.09.1.05.22.06.32.12.1.06.18.15.27.21.09.07.17.13.23.23.07.09.12.18.19.26.08.07.2.12.25.22l.17.29c.04.11,0,.25.03.35.03.11.08.21.1.32.02.11.08.22.1.33.02.11.05.23.05.35,0,.12.04.23.05.35.02.12.07.23.08.35,0,.12-.14.25-.14.37,0,.12.06.24.04.36-.01.12.01.25,0,.37,0,.13-.02.24-.02.36,0,.12-.05.24-.05.36,0,.12.06.25.05.37,0,.12-.09.25-.1.37,0,.12-.02.25-.02.38,0,.12-.05.26-.04.38.01.13.09.24.1.36,0,.13,0,.25.02.38.01.13.03.26.04.39.02.13.07.26.11.39.04.14.1.25.16.35.06.11.04.26.1.37.06.1.12.22.17.32.05.11.18.19.23.31.04.11-.02.25.02.36.04.12.13.24.18.35.05.11.08.23.13.34l.16.33c.05.11.21.18.26.29s0,.28.07.39c.06.11.19.16.25.27.06.11.09.24.14.35.05.11.03.26.09.37.05.11.24.14.29.25.05.11-.02.29.03.4.05.11.22.17.27.28.05.11.01.26.06.38.05.11.13.21.18.32.05.11.05.24.09.35.04.11.15.22.19.34.04.12.02.24.07.36.05.11.18.18.23.3.05.11,0,.27.06.38.05.11.07.23.11.35.04.11.19.19.24.31.04.11.08.23.12.35.04.11-.04.27,0,.38.04.11.18.19.22.3.04.11.04.25.08.36.04.12.07.23.11.34.03.12.08.23.1.35.02.12-.01.24,0,.35,0,.11.07.22.09.34s0,.24.03.36c.02.12.07.23.09.35.01.13.02.25.03.37,0,.12-.02.25,0,.37.01.12.07.23.08.36,0,.12,0,.25,0,.37,0,.12-.11.23-.11.36,0,.12.11.26.1.38,0,.12-.02.24-.02.36,0,.12-.02.25,0,.37.01.11.02.25.04.36,0,.12-.03.24-.03.36,0,.12.03.24.02.36,0,.12.03.25.02.37,0,.12-.05.24-.05.36,0,.12-.08.24-.09.36,0,.12.02.24.01.36,0,.12.03.24.02.37-.01.12,0,.26-.03.38-.02.12-.1.22-.12.34-.03.12.02.25,0,.37s-.09.24-.1.36c-.01.12.02.25,0,.37-.02.12-.04.25-.05.37-.01.12,0,.24,0,.36-.01.13-.03.24-.04.37,0,.12.03.26.02.38s-.12.24-.13.36c-.01.12.04.25.03.38,0,.12,0,.25,0,.37,0,.12-.09.25-.08.37,0,.12.04.24.04.37,0,.12-.04.25-.04.37,0,.12.07.25.07.37,0,.12-.03.25-.03.37,0,.12.07.24.07.37,0,.12-.09.24-.09.36,0,.14.01.24.02.37,0,.13,0,.26,0,.38,0,.12,0,.25.02.38.01.12.09.23.11.35.01.12-.04.25-.03.38.01.15,0,.19.01.42,0,.11.02.21.03.33.02.04-.01.13.04.14l.16.02c.11.01.23,0,.33,0,.11,0,.14-.02.21-.02.12.02.22.1.33.13.11.03.22.08.33.12.11.04.21.1.32.14.11.04.21.09.32.13.11.04.28-.02.38.03.1.06.21.11.31.17.1.06.17.19.28.24.11.05.2.14.3.2.1.06.22.08.32.15.1.07.24.09.34.17.09.08.09.24.18.31.09.08.21.15.3.23.09.08.25.07.34.14.09.06.2.15.29.21.1.07.18.17.27.25.09.08.15.19.24.27.09.08.15.2.24.28.09.08.22.11.31.2.09.08.2.14.29.22.09.08.21.13.3.22s.08.27.15.36c.07.09.21.13.27.22.06.1.03.22.07.32.03.1.19.16.24.26.04.1.1.19.11.3.02.11,0,.23.02.33.04.1-.01.21-.03.31-.01.1,0,.21-.01.32-.04.1-.04.23-.09.33-.06.1-.07.19-.14.29-.06.1-.23.15-.27.25-.04.1-.08.21-.15.29-.07.09-.14.16-.22.24-.07.09-.09.25-.19.32-.1.07-.21.1-.3.17-.09.07-.18.15-.28.21-.09.05-.21.12-.31.17-.1.06-.19.15-.3.2-.11.05-.26-.02-.37.03-.1.05-.17.19-.28.23-.11.04-.2.11-.31.16-.11.05-.25.02-.36.03-.11.02-.21.1-.33.13-.11.03-.24.02-.35.02-.11.01-.23-.02-.35,0-.11.02-.23.11-.35.09l-.35-.02c-.12,0-.21-.08-.32-.11-.11-.03-.21-.06-.32-.09-.11-.03-.2-.09-.3-.14-.1-.05-.21-.08-.32-.14-.12-.07-.21-.18-.33-.26-.11-.09-.29-.06-.42-.11-.13-.06-.26-.06-.41-.06-.14,0-.28,0-.42.05-.13.04-.28.05-.4.11-.12.06-.27.06-.39.12-.11.07-.2.17-.3.24-.11.07-.18.18-.27.26-.1.08-.22.15-.31.24-.09.08-.17.19-.27.27-.09.07-.2.16-.29.24-.09.08-.27.07-.36.15l-.27.25c-.09.08-.1.24-.19.33-.09.08-.16.18-.26.26-.09.08-.25.08-.34.15-.09.07-.16.17-.26.24-.09.08-.19.14-.29.2-.1.05-.22.08-.32.12-.1.04-.18.17-.28.21s-.23,0-.34.03c-.11.03-.22,0-.32-.01-.1-.01-.23.09-.34.06-.11-.03-.19-.15-.29-.16-.1-.03-.24.04-.35,0-.11-.03-.19-.13-.28-.18-.1-.05-.16-.18-.25-.24-.09-.06-.22-.08-.32-.15-.09-.06-.19-.14-.29-.2-.09-.07-.15-.19-.24-.26-.09-.08-.27-.07-.35-.16l-.25-.27c-.08-.09-.15-.19-.23-.27-.09-.09-.14-.21-.23-.3-.09-.08-.23-.11-.33-.19-.1-.08-.12-.24-.23-.32-.1-.08-.22-.15-.32-.23-.11-.07-.25-.09-.36-.16-.11-.06-.23-.16-.35-.22-.12-.06-.29-.04-.42-.09-.13-.04-.29,0-.43-.02-.13,0-.24-.13-.37-.12h-.36c-.12.01-.24.06-.37.07-.12,0-.24.04-.36.04-.12,0-.24-.07-.36-.07-.12,0-.24.08-.37.08-.12,0-.24-.03-.36-.03-.12,0-.24-.05-.36-.04-.12,0-.22.06-.34.06-.12,0-.24-.09-.35-.11-.12-.02-.25.04-.37.01-.12-.03-.21-.12-.32-.15-.11-.03-.24-.02-.35-.06-.11-.04-.19-.16-.3-.2-.11-.04-.19-.16-.29-.2-.1-.05-.26,0-.36-.07-.1-.06-.14-.2-.23-.27-.09-.07-.13-.18-.21-.26-.08-.08-.15-.16-.22-.25-.06-.09-.09-.19-.13-.29-.03-.11-.03-.21-.05-.31-.02-.1-.1-.21-.11-.32-.02-.1-.11-.19-.12-.3-.02-.11.01-.23,0-.34-.01-.11.07-.22.08-.32.02-.11.03-.22.06-.32.04-.1.01-.24.06-.34.06-.1.19-.16.25-.25.06-.09.07-.22.13-.32.06-.09.1-.2.18-.29.07-.09.15-.17.24-.26.09-.09.2-.11.3-.19.09-.08.12-.27.22-.34.1-.08.24-.07.33-.15s.12-.22.21-.3c.09-.08.23-.12.32-.21.09-.08.18-.16.27-.24.09-.08.17-.18.26-.26l.27-.25c.09-.07.2-.16.29-.23.09-.08.17-.21.26-.29.1-.08.2-.14.3-.22.09-.08.22-.12.31-.22.09-.09.16-.2.24-.31.04-.05.07-.11.09-.17.01-.1.02-.2.03-.25.03-.18.15-.32.15-.43,0-.12,0-.25.01-.38,0-.12-.08-.24-.08-.37,0-.12.09-.25.1-.37,0-.12.05-.23.06-.35.01-.12-.04-.27-.03-.39.01-.12.08-.24.09-.37,0-.12-.09-.25-.08-.37s.05-.25.05-.37c0-.12-.03-.25-.03-.37,0-.12,0-.25,0-.37,0-.12.08-.25.08-.37,0-.12-.04-.25-.04-.37.01-.11.02-.25.03-.37,0-.12.08-.24.08-.36s-.02-.25-.02-.38c0-.12,0-.25,0-.37,0-.12.02-.25.02-.37v-.37c.02-.12-.04-.24-.04-.37,0-.12-.05-.24-.05-.36,0-.12.02-.25.02-.38,0-.12.04-.24.04-.37,0-.1-.02-.26-.02-.37,0-.12.09-.25.09-.37,0-.12-.02-.25-.02-.38,0-.12,0-.25-.01-.37,0-.12.03-.24.04-.36,0-.12-.14-.26-.13-.38s.1-.23.1-.35c0-.12-.06-.25-.05-.37,0-.12.04-.25.05-.37,0-.12.1-.24.1-.36,0-.12-.1-.25-.1-.37,0-.12.12-.24.12-.37,0-.11,0-.25-.01-.37,0-.12-.09-.25-.08-.37s.05-.24.05-.37c0-.12-.05-.25-.04-.37,0-.11.02-.26.03-.36,0-.12.13-.24.13-.36,0-.12-.12-.25-.11-.38,0-.12.09-.24.1-.36s.04-.24.04-.36c0-.12-.12-.25-.11-.38,0-.12.06-.24.06-.36s.03-.25.03-.37c0-.1-.02-.26-.02-.37,0-.12-.05-.25-.04-.37,0-.12.05-.25.06-.37,0-.13,0-.24,0-.37,0-.12.01-.24.02-.36,0-.12.05-.25.05-.37v-.37c0-.12-.05-.24-.04-.37,0-.12-.04-.25-.03-.38,0-.12.14-.23.14-.35,0-.12-.05-.25-.05-.38,0-.12-.01-.24-.02-.36,0-.14,0-.23,0-.37,0-.12.04-.25.04-.37,0-.12-.03-.25-.02-.37,0-.12.01-.25.02-.37,0-.12.08-.24.08-.37,0-.12-.09-.25-.09-.37,0-.12-.05-.24-.05-.36,0-.12.11-.25.11-.37,0-.12-.08-.25-.07-.38,0-.13.01-.24.02-.37,0-.12.07-.23.07-.36,0-.1-.03-.23-.05-.23-.07,0-.13-.09-.17-.08-.06.02-.11,0-.17.03-.04.01-.09.23-.16.23-.02,0-.1-.07-.1.03,0,.12.06.24.06.37,0,.12-.04.25-.03.37,0,.12,0,.25,0,.36,0,.12-.05.25-.05.37,0,.12.09.24.09.36,0,.12.04.25.04.37,0,.12,0,.25,0,.37-.01.1-.03.26-.04.36,0,.12-.09.24-.1.36,0,.12.06.25.05.37s-.05.24-.05.37c0,.12-.05.24-.05.37,0,.12.05.25.05.37,0,.12-.05.25-.05.37,0,.12.12.24.11.36v.37c-.01.12-.13.24-.13.36,0,.12-.02.26-.03.37,0,.12.06.25.06.37,0,.11-.02.25-.03.37,0,.12-.03.24-.04.36,0,.12.03.24.02.37,0,.12.08.25.08.38,0,.12-.04.24-.05.36s-.1.24-.11.36v.37c-.01.12.03.25.02.37,0,.12-.05.23-.06.35-.01.12.04.26.03.39s-.1.24-.1.36,0,.26.01.38c0,.12.05.24.06.36,0,.12.09.24.09.37,0,.12-.05.24-.05.36s-.04.25-.04.37-.03.24-.03.37c0,.12.04.25.03.37,0,.12.05.25.05.37v.37c-.01.12-.08.24-.09.37-.01.11-.03.25-.05.36-.01.12.01.25,0,.37,0,.12-.1.25-.1.38,0,.12.05.24.05.36,0,.12.06.24.06.36,0,.12-.09.23-.1.36,0,.12.04.26.03.38-.01.12-.07.24-.07.36,0,.11-.02.25-.03.37,0,.12.04.25.04.37,0,.12-.02.25-.02.37,0,.11,0,.25,0,.37v.37c-.02.12-.08.24-.08.37,0,.12.01.26.02.39,0,.12.13.21.14.33,0,.12-.12.26-.12.39s0,.23-.02.35c-.01.14-.02.23-.03.37-.02.12-.02.26-.02.38s.02.25.03.37c.01.11.02.25.03.36,0,.12.04.25.03.37,0,.12-.11.23-.12.35-.01.11-.03.25-.05.36-.01.12.04.26.03.38,0,.12-.04.24-.04.36,0,.12.09.26.08.38-.01.12-.11.23-.12.35,0,.11-.03.28-.02.31,0,.05.08.13-.02.23-.06.09-.14.17-.22.26-.08.08-.18.14-.27.22-.09.08-.12.25-.22.33-.09.08-.22.1-.31.18-.09.08-.15.19-.24.27l-.28.24c-.09.08-.23.11-.32.19s-.2.16-.28.25c-.09.09-.21.15-.29.24-.09.09-.15.17-.25.25-.09.08-.15.21-.25.29-.1.07-.21.15-.3.22-.1.08-.23.12-.32.21-.09.09-.18.19-.26.3-.08.11-.16.21-.23.33-.07.11-.1.24-.16.35-.07.11-.13.23-.2.35-.07.11-.1.25-.16.37-.06.12-.1.24-.13.37-.03.13-.02.25-.02.39.01.13-.03.28,0,.41.02.13.01.27.04.4.02.13.05.26.1.39.03.13.06.26.11.39.05.13.23.19.29.3.07.11.1.25.17.37.08.1.23.17.31.26.1.09.17.19.27.27.11.07.19.18.3.25.11.06.21.17.32.23.12.06.24.12.35.17.12.04.27.06.39.1.13.03.25.02.38.05.12.02.27.04.38.05.12.02.22.13.35.15.13.02.28-.03.4-.01.12.02.24.08.37.09.12,0,.25.02.37.02.13,0,.26-.05.38-.05.12,0,.25-.04.37-.04.12,0,.25.03.37.02.12-.01.26.05.39.04.12-.01.24-.01.36-.02.12,0,.24-.06.37-.07.11,0,.2-.05.31-.05.1.01.21.04.31.06.1.04.15.19.24.24.09.05.21.1.3.17.09.07.13.2.22.27.09.07.18.15.28.23.09.08.26.03.35.11.09.08.12.25.21.33.09.09.2.15.28.24.08.09.2.15.29.24.09.09.18.17.27.25.09.08.11.26.21.34.1.08.24.1.34.17.1.08.19.17.3.25.11.07.22.14.35.19.12.06.26.04.38.1.13.04.27.08.38.12.12.05.25.09.38.12.13.03.25.13.39.13.14,0,.28-.07.41-.1.13-.03.27,0,.41-.02.13-.03.26-.07.39-.11.13-.04.28-.06.39-.13.12-.07.19-.21.29-.29.1-.08.25-.13.35-.22.1-.08.1-.25.19-.33.09-.08.25-.1.34-.18.08-.06.21-.16.3-.23.09-.08.18-.18.27-.26.09-.08.16-.19.25-.27.08-.07.2-.16.29-.22.09-.08.21-.13.3-.21.09-.07.19-.15.28-.22l.28-.21c.09-.07.12-.22.22-.28.1-.07.23-.06.32-.11.1-.05.2-.09.3-.1.1-.01.19-.14.3-.13.11,0,.21.1.3.12.09.03.21-.01.31.01.1.04.18.12.28.17.09.05.23.08.35.15.11.07.18.19.3.27.12.08.25.12.38.16.13.04.27.02.4.05.13,0,.26.1.39.11.14,0,.27-.08.39-.09.12,0,.26-.01.39-.02.13-.01.26.02.39,0,.13-.02.25-.09.37-.12.12-.03.28.05.4,0,.12-.04.21-.2.33-.24.12-.04.28.03.4-.03.12-.06.24-.11.36-.17.11-.06.15-.23.26-.29.1-.07.27-.06.38-.13.11-.07.18-.22.28-.29.1-.07.22-.15.31-.22.1-.08.28-.05.38-.15.09-.1.15-.23.23-.33.08-.1.15-.21.22-.33.07-.11.16-.21.24-.32.07-.11.19-.2.23-.33.05-.13-.03-.31.02-.43.06-.12.1-.25.12-.39.01-.13.12-.26.13-.41-.01-.13-.03-.29-.05-.43-.02-.14-.03-.3-.11-.42-.06-.13-.2-.21-.27-.33-.06-.12-.12-.24-.22-.33-.09-.1-.22-.17-.3-.27-.08-.1-.11-.26-.19-.35-.09-.09-.17-.17-.26-.26-.09-.09-.21-.14-.3-.22-.09-.09-.15-.19-.25-.28-.09-.08-.15-.21-.24-.29-.09-.08-.2-.14-.3-.23-.09-.08-.16-.21-.26-.29-.1-.08-.23-.09-.33-.17-.1-.09-.19-.16-.29-.24-.1-.08-.18-.15-.29-.24-.09-.08-.15-.19-.25-.27-.1-.08-.25-.1-.35-.18-.1-.07-.19-.16-.3-.22-.1-.06-.23-.13-.33-.18-.11-.06-.23-.12-.34-.17-.11-.06-.21-.14-.32-.2-.11-.06-.24-.09-.35-.14-.12-.05-.21-.14-.33-.19-.12-.05-.26,0-.38-.04-.12-.03-.23-.12-.36-.14-.13-.02-.25-.09-.37-.12-.1-.03-.32-.02-.33-.02-.04,0-.1,0-.09-.05,0-.02-.02-.04-.03-.06-.02-.04-.03-.11-.04-.17,0-.12.07-.25.06-.37-.01-.12-.07-.24-.08-.36-.01-.12-.04-.24-.04-.36,0-.12.05-.24.05-.37s-.11-.25-.11-.37c0-.12-.01-.24-.02-.36,0-.12.13-.25.12-.37,0-.12-.01-.25-.02-.36,0-.12.02-.24.02-.36s-.13-.24-.13-.36c0-.1-.02-.26-.03-.36,0-.12.01-.25.02-.37.01-.11.03-.26.04-.37,0-.12.08-.23.09-.36,0-.12.04-.24.05-.36,0-.12-.01-.24,0-.36.01-.12,0-.25.02-.37s.1-.23.11-.35c.01-.12,0-.25,0-.37,0-.12-.04-.24-.03-.36,0-.12-.01-.25,0-.37.02-.12.03-.25.05-.37.02-.12.07-.24.08-.36.01-.12.06-.24.08-.36.01-.12.09-.22.11-.34.02-.12.01-.26.03-.38.02-.12.04-.26.05-.38,0-.12-.02-.25-.02-.38,0-.12.05-.26.05-.38,0-.12-.02-.23-.02-.36,0-.12.01-.24.02-.36,0-.12-.1-.27-.1-.39,0-.12.1-.24.09-.36,0-.12,0-.25,0-.37,0-.12-.09-.24-.09-.37,0-.12.09-.25.08-.37,0-.12-.04-.25-.05-.38-.01-.12-.11-.22-.12-.34-.02-.13-.03-.26-.04-.38,0-.12.07-.26.06-.38-.02-.11-.04-.25-.05-.36-.01-.12-.06-.24-.07-.36,0-.12.02-.25.01-.38-.01-.13,0-.26-.03-.38-.02-.12-.07-.25-.1-.38-.03-.12-.06-.24-.09-.36-.04-.12-.07-.24-.11-.36-.03-.12-.08-.24-.12-.35-.04-.12-.12-.22-.16-.34-.04-.12-.1-.23-.14-.34-.04-.12-.11-.22-.16-.34-.04-.12-.02-.26-.08-.37-.05-.11-.04-.26-.09-.38s-.18-.18-.23-.3c-.05-.11-.06-.25-.1-.36s-.16-.2-.21-.31c-.05-.11-.03-.26-.08-.37-.05-.11-.05-.24-.1-.35-.05-.12-.09-.23-.14-.34-.05-.12-.17-.2-.23-.31s-.08-.24-.14-.35c-.06-.12-.1-.22-.16-.34-.06-.11-.17-.19-.22-.3-.05-.11-.09-.24-.13-.36-.04-.12,0-.25-.03-.36-.04-.12-.2-.2-.25-.31l-.16-.34c-.05-.11-.04-.25-.1-.36-.05-.11-.15-.2-.21-.31-.05-.11,0-.29-.07-.4-.06-.1-.13-.22-.19-.32-.06-.11-.13-.2-.19-.31-.05-.11-.16-.2-.21-.31-.05-.11-.13-.21-.18-.33-.04-.11-.05-.26-.08-.35-.03-.1-.05-.21-.09-.31-.03-.11-.13-.19-.15-.3-.03-.11-.03-.24-.03-.36,0-.12.08-.24.07-.36,0-.12-.1-.24-.09-.37,0-.12.05-.24.06-.36,0-.12-.02-.26,0-.38.01-.12.11-.22.13-.35.02-.12-.03-.26-.02-.38,0-.12.02-.24.02-.37,0-.12.06-.26.06-.38,0-.13,0-.25,0-.37,0-.13-.1-.27-.09-.4,0-.12.16-.22.16-.35,0-.13-.08-.27-.09-.4,0-.13-.01-.25-.05-.38-.03-.13-.02-.27-.05-.4-.02-.13-.15-.22-.19-.34-.04-.12.02-.27-.02-.4-.05-.13-.15-.24-.21-.36-.07-.12-.17-.22-.27-.31-.09-.1-.12-.27-.22-.37-.09-.11-.29-.05-.4-.12-.11-.07-.23-.15-.34-.22-.11-.07-.22-.14-.35-.19-.12-.04-.24-.14-.36-.18-.13-.05-.26-.03-.39-.05-.12-.01-.26-.03-.39-.04-.13-.01-.26-.04-.39-.03-.13,0-.26.06-.39.07-.13,0-.27-.07-.41-.06-.13,0-.24.14-.37.17-.13.04-.24.13-.37.16-.13.02-.28,0-.4.08-.12.06-.2.18-.31.25-.11.06-.26.09-.36.18-.1.08-.23.13-.34.22-.1.09-.14.23-.22.33-.08.1-.23.15-.31.25-.08.1-.16.21-.24.32-.08.1-.13.23-.21.34-.08.1-.15.2-.22.31-.06.12-.2.2-.25.32-.05.12-.06.25-.11.37-.06.12-.08.25-.13.36-.05.12-.05.25-.1.37-.05.12-.11.23-.14.36-.03.12-.07.26-.09.37-.04.12-.18.21-.22.33-.04.12-.04.27-.08.39-.04.12-.04.26-.07.38-.03.11-.08.22-.1.33-.02.13-.03.21-.05.33-.01.11.04.22.02.33-.02.11,0,.22-.02.33-.02.11-.16.21-.18.32-.02.11.09.23.07.34-.01.11-.09.22-.1.33,0,.1-.02.23-.02.33-.01.11,0,.22,0,.33-.01.11-.1.23-.11.34,0,.11.08.21.08.32,0,.11-.08.22-.09.33,0,.06-.02.1,0,.11.02.01.07-.02.09-.1Z"/>
    </g>
    <g>
      <path class="cls-4" d="M69.97,63.23c4.29-3.56,9.81-5.62,15.39-5.73s11.17,1.72,15.61,5.1c-4.09-.72-9.12-.85-7.85.17-4.23-.58-9.95.61-8.7,1.44-2.07.08-4.06-.66-6.09-1.07-2.83-.57-5.79-.5-8.59.22"/>
      <path class="cls-4" d="M70.11,63.19s.06-.18.11-.22c.05-.04.05-.14.1-.18.05-.04.2.04.24,0,.05-.04.1-.07.15-.1.05-.04.1-.08.15-.11.05-.03.1-.09.14-.13.05-.04.03-.16.08-.2.06-.05.09-.07.15-.11.05-.04.09-.1.14-.14.05-.04.15-.01.2-.06.05-.04.05-.15.09-.19.05-.04.14-.03.19-.07.05-.04.14-.03.19-.07.05-.04.06-.13.11-.17.05-.04.07-.12.12-.16.05-.04.16.01.22-.02.05-.04.08-.1.14-.14s.12-.04.17-.08c.05-.04.02-.21.08-.24.06-.03.12-.04.18-.07.06-.03.1-.08.15-.11.05-.03.1-.06.16-.1.04-.03.11-.09.15-.12.05-.04.18.06.24.03.05-.03.12-.04.18-.06.06-.03.06-.17.12-.19.06-.03.08-.11.14-.14.06-.03.18.07.24.04.05-.03.09-.1.14-.13.05-.03.14-.01.19-.04.06-.03.11-.04.17-.07.06-.02.13-.03.18-.05.06-.03.04-.22.1-.25.06-.03.12-.03.17-.07.05-.04.12-.05.17-.09.05-.04.09-.1.15-.13.06-.03.15.05.22.04.06,0,.14-.01.2-.02.06,0,.08-.16.14-.18.06-.02.19.1.24.06.05-.04.03-.21.08-.25.05-.04.11-.08.17-.11.06-.02.13-.04.19-.05.06-.02.13-.01.19-.02.06-.01.15.05.21.03.06-.02.08-.15.15-.17.06-.02.16.08.22.07.06-.02.08-.15.15-.17.06-.02.16.07.22.05.06-.02.09-.14.15-.15.06-.01.13-.03.19-.04.06-.02.13,0,.19-.03.06-.03.14,0,.2-.02.06-.03.1-.07.17-.09.06-.02.11-.06.18-.08.06-.02.14.04.2.03.06-.02.1-.13.16-.15.06-.02.1-.12.16-.14.06-.02.17.14.23.12.06-.02.11-.07.17-.09.05-.02.13-.04.18-.06.06-.01.11-.09.17-.11l.19-.04c.06-.01.13-.02.19-.03.06,0,.14.07.2.07.06,0,.12-.05.19-.06.06-.01.12-.03.19-.04.06-.01.11-.12.17-.13.06-.01.15.1.21.09.06-.01.14.03.2.02.05-.02.13-.05.18-.07.06-.02.09-.2.16-.21.06,0,.14.05.2.05.06,0,.13-.04.19-.04s.13.09.2.08.12-.07.18-.09c.06-.02.14.06.2.04s.1-.19.17-.2c.06,0,.13.05.2.05.06,0,.12-.05.19-.06.06,0,.13.06.2.05.06,0,.13.04.19.04.06,0,.12-.11.18-.12h.19c.06,0,.12.14.19.15.06.01.13-.05.2-.04s.13.04.19.04c.06,0,.13-.06.19-.08.06-.02.12-.09.18-.1.06-.02.14.12.2.12s.13-.08.19-.08c.06,0,.13.04.19.05.06,0,.13.06.19.06.06,0,.13-.09.19-.07.06.01.13.03.19.05.06.01.13-.08.19-.08.06,0,.12.02.18,0,.06-.01.14.1.2.09.06-.01.12-.03.19-.03.06,0,.14-.14.2-.13.06.01.12.07.18.08.06.01.13,0,.19,0,.06,0,.13.02.2.04.06.02.1.18.16.2.06.02.15-.11.21-.1.06,0,.11.16.17.16.06,0,.14-.12.21-.11.06,0,.11.16.17.17.06,0,.14-.08.2-.07s.13-.04.2-.04c.06,0,.13,0,.19,0,.06.01.12.03.19.03.06,0,.13,0,.19,0,.06,0,.12.06.18.07l.19.03c.06.01.13,0,.19.02.06.02.09.17.16.19s.16-.14.23-.12c.06.02.08.19.14.21s.13.04.19.05.15-.15.22-.14c.06,0,.11.1.18.11.06,0,.12.04.18.06.06.02.15-.09.22-.07s.08.2.14.21c.06.02.16-.1.22-.09.06.02.1.12.16.13.06.02.11.07.17.09s.11.06.17.08c.06.02.18-.13.24-.1.04.03.12.08.16.11.06.03.05.22.11.24.06.02.16-.08.22-.06.06.02.14-.02.2,0,.06.02.11.08.17.1.06.02.14-.02.2,0s.06.21.11.23c.06.02.11.07.17.09s.15-.04.21-.02.13,0,.19.03c.06.02.15-.02.21,0,.06.02.09.1.16.1.06,0,.11.07.18.08.06.01.12.02.18.05.06.03.17-.04.22,0,.05.04.03.21.08.24.05.04.11.07.17.1.06.03.13.04.19.06.06.02.15-.05.22-.03.06.02.11.07.17.1.06.03.11.06.17.1.05.03.06.15.11.19.05.03.17-.05.23-.02.06.03.1.08.16.1.06.03.14,0,.2.03.06.03.04.21.09.24.06.03.14,0,.19.04.04.03.11.08.15.11.05.03.13.03.19.06s.08.12.14.14c.06.02.16-.03.22,0,.06.03.08.12.13.15s.18-.04.23,0c.05.04.03.19.08.23.05.04.17-.04.28.03.1.06.14.16.23.22.09.06.08.16.15.21l.24.16c.07.05.38.09.46.16.08.06.1.12.18.18.09.06.2.13.29.18.09.06-.15.06-.07.12.08.05.21.13.29.18.09.06.32.16.4.22.08.06.42.2.49.26.08.06-.03.06.04.11s.29.17.38.23c.08.06-.37-.1-.46-.12-.02,0-.03,0-.04-.01-.09-.02.54.28.4.25-.13-.02-.25-.04-.38-.07-.13-.02-.66-.24-.76-.26l-.33-.06c-.1-.02.12.16-.01.13-.13-.02-.42-.15-.5-.16-.09,0-.14.03-.24.02-.11,0-.36-.15-.45-.16-.1-.01-.17.02-.28,0s-.25-.08-.33-.09c-.09,0-.15.15-.27.13-.11-.01-.23-.16-.28-.18-.06-.02-.13-.01-.19-.03-.06-.02-.13.03-.19.02-.06,0-.11-.1-.18-.11-.06,0-.12-.05-.18-.06l-.19-.02c-.06,0-.13.05-.19.05-.06,0-.12-.06-.18-.06-.06,0-.13.07-.19.06-.06,0-.13.08-.2.07-.05-.01-.13-.04-.18-.05-.06-.01-.11-.12-.18-.12-.06,0-.12.11-.19.12-.06.01-.13-.04-.19-.03-.06.01-.13.11-.19.11-.06,0-.11-.18-.17-.19-.06-.01-.13.05-.19.04-.06-.01-.12-.03-.19-.03-.06,0-.12.03-.18.03-.06,0-.13-.04-.19-.04-.06,0-.12.06-.18.06-.06,0-.12-.02-.18-.02-.06,0-.12-.06-.19-.05-.06,0-.11.21-.17.21-.06,0-.12-.12-.19-.13-.06,0-.12-.08-.18-.08s-.12.06-.18.07c-.06,0-.09.15-.13.17-.05.02-.11.02-.15.05-.04.03-.08.07-.1.08-.06-.02,0,.05-.13-.14-.02-.03-.05-.05-.08-.07-.02-.01-.01-.01-.02-.02h0s0,0,0,0l.24.15h.02s.12.1.12.1l.25.18c.18.12.35.25.52.36.07.05.22.15.22.16h-.07c-.1,0-.2-.02-.31-.03-.2-.03-.21-.03-.32-.05-.05-.01-.06-.02-.09-.02-.05,0-.02-.06-.12-.07-.1,0-.17.03-.29.02-.12,0-.25-.04-.37-.06-.12-.01-.25-.06-.36-.08-.12-.02-.22-.12-.26-.13-.06-.02-.13.02-.19.01-.06,0-.12.07-.19.08-.06,0-.12-.11-.19-.1s-.12.08-.18.07c-.06,0-.12-.04-.18-.06-.06-.02-.12-.07-.18-.09-.06-.02-.13.08-.19.08-.06,0-.12.02-.18.03-.06.02-.13,0-.19,0-.06.02-.12.11-.19.11s-.13,0-.19-.01c-.05,0-.13-.02-.18-.02-.06,0-.12-.15-.19-.15-.06,0-.13.16-.19.15-.06-.01-.12-.06-.18-.07-.06-.01-.12,0-.18,0-.06,0-.12.02-.18.03s-.13-.08-.19-.07c-.06,0-.11.13-.17.13-.06,0-.13-.08-.19-.07-.06.01-.11.09-.17.1-.06.01-.12.04-.18.05-.06,0-.13-.02-.19-.02-.06,0-.13-.13-.2-.12-.06,0-.12.03-.18.04-.06,0-.12.05-.18.06-.06,0-.12.09-.18.09-.06,0-.12-.03-.19-.02-.06,0-.16-.11-.21-.08-.04.03-.12.07-.17.1-.06.03-.1.05-.16.06-.06.01-.11.05-.17.05-.06,0-.13-.02-.19-.02-.06,0-.13,0-.19.02-.06.01-.09.14-.14.17-.06.02-.11.04-.17.06-.06.02-.1.08-.16.1-.05.02-.12,0-.18.01-.05.02-.11.05-.16.07l-.16.06s-.11.01-.16.03c-.05.01-.11.02-.15.04-.05.02-.07.08-.1.1-.04.02-.05.03-.07.04.19.08.52.23.86.38.12.04-.02.02-.05.02-.05,0-.1,0-.15,0-.11,0-.2,0-.27,0-.06,0-.14,0-.21.01-.02,0-.04,0-.05.02,0,.02.19.1.05.11-.09.02-.28-.06-.37-.04-.08.02-.12.14-.24.15-.12,0-.25-.08-.36-.08-.13,0-.17.03-.24.03-.06,0-.12-.13-.18-.13-.06,0-.14.09-.2.07-.06-.02-.11-.11-.17-.13-.06-.02-.12-.1-.18-.11-.06,0-.13.02-.19,0l-.18-.03-.19-.03c-.06-.01-.14.05-.2.06-.06,0-.12-.08-.19-.08-.06,0-.15.18-.22.17-.06-.01-.1-.13-.16-.15s-.14.04-.2.02-.11-.04-.17-.05-.09-.15-.15-.17c-.06,0-.13-.02-.18-.03-.06-.01-.11-.08-.17-.09s-.13-.01-.19-.02c-.06,0-.14.06-.2.05-.06-.01-.14.03-.19.01-.06-.02-.08-.16-.14-.18-.06-.02-.13,0-.18-.03-.06-.02-.1-.1-.16-.12-.06-.01-.13.03-.19.01-.06-.02-.1-.1-.16-.12-.06-.02-.14.04-.2.02-.06-.01-.12-.05-.18-.05-.06,0-.14.12-.2.12-.06,0-.14,0-.19,0-.06-.01-.07-.22-.13-.24-.06-.02-.16.15-.22.13-.06-.02-.09-.15-.15-.16-.06-.01-.14.1-.2.09-.06,0-.11-.13-.17-.13-.06,0-.13.05-.19.04-.06,0-.12.03-.18.02-.06,0-.12,0-.18-.01-.06,0-.11-.08-.17-.09l-.18-.02c-.06,0-.12-.02-.18-.03-.06,0-.13.07-.19.07-.06,0-.12-.09-.17-.1-.06-.02-.1-.12-.16-.14-.06-.02-.13.11-.19.1-.06,0-.12-.05-.18-.06-.06,0-.11-.13-.17-.14-.06,0-.13.02-.19.02-.06,0-.13-.06-.19-.06-.06,0-.12.11-.18.12-.06,0-.12.05-.18.05-.06,0-.12-.1-.17-.12-.07-.01-.11-.02-.18-.03-.06-.02-.13.06-.19.06-.06,0-.12.04-.17.05-.06.01-.13-.08-.19-.07-.06.01-.12.15-.17.15-.06,0-.13-.11-.18-.11-.06,0-.12.09-.18.09-.06,0-.12-.1-.18-.1-.06,0-.12,0-.18,0-.05.01-.13.03-.18.04-.06.01-.11.12-.17.12-.06,0-.13-.15-.19-.15-.06,0-.12.01-.18,0-.06,0-.12.04-.18.04-.06,0-.13-.09-.19-.08-.06.01-.11.07-.17.08-.06.01-.11.12-.17.12-.06,0-.12-.03-.18-.02-.06,0-.13-.04-.19-.04-.06,0-.11.06-.17.07-.06,0-.12.03-.18.03-.06,0-.12-.01-.19,0-.06,0-.12,0-.18,0-.06,0-.14-.1-.2-.1-.06,0-.1.14-.16.15-.06,0-.15-.13-.21-.12-.04,0-.1.13-.1.11,0-.02.07-.05.11-.06.06-.02.11-.04.17-.06.06-.02.16.08.21.06.06-.02.08-.19.13-.2.06-.02.17.15.22.14.06-.01.08-.21.14-.22.06-.02.15.11.21.09.06-.02.1-.1.16-.12.08-.02.1-.03.18-.05.06-.02.12-.02.18-.03.06-.02.13,0,.19-.03.06-.03.1-.11.16-.14.06-.03.13.02.19,0,.06-.01.11-.08.18-.08s.13.08.19.08c.06,0,.12-.08.18-.09.06,0,.11-.07.17-.09.06-.01.13.02.19.01.06-.01.12-.06.18-.06.06,0,.13.08.19.07.06,0,.11-.12.17-.13.06,0,.12-.02.19-.03.06,0,.13.09.19.09.06,0,.12-.07.18-.08.06,0,.12,0,.19,0,.06,0,.12.11.18.12.06,0,.12-.06.19-.06.06,0,.12.03.19.03.06,0,.12.03.18.04.06,0,.14-.12.2-.11.06,0,.12.15.18.15.06,0,.13-.18.2-.18.06,0,.12.15.18.16.06,0,.12.03.19.03.06,0,.13-.13.2-.12.06,0,.13.02.19.02.06,0,.12.08.18.09.06,0,.13-.07.19-.08.06,0,.13.04.19.03.06,0,.13,0,.19,0,.06,0,.12.02.19.05.06.03.12.05.18.08.06.03.11.14.17.15.06,0,.14.02.2,0,.06,0,.13-.09.2-.1.07,0,.11.06.18.07.06.01.14-.05.2-.03.06.02.13,0,.19.01.06.02.1.11.16.13s.13,0,.19.02c.06.02.1.11.16.13.06.02.14-.02.2,0,.06.01.14-.07.2-.06.06,0,.11.11.17.12.06,0,.11.06.17.08.06.02.12.03.18.05.06.02.11.06.17.08.06.02.17-.15.23-.13s.1.11.16.11h.19c.06.02.11.09.17.1.06.01.15-.09.21-.07.06.01.11.07.17.08.06.01.11.07.17.08.06.01.14-.05.2-.04s.09.18.15.19c.06.01.15-.14.21-.13.06.01.12,0,.18,0,.06,0,.1.12.16.13.06,0,.12.04.18.05s.14-.05.19-.02c.06.03.12.02.18.05.06.02.09.18.15.19.06,0,.12.03.18.03.06,0,.13-.15.19-.15.06,0,.11.15.17.15.05,0,.13,0,.17,0,.03,0,.06.03.1.03.04,0,.03-.07.05-.07.03,0-.04-.1-.02-.1.03,0,.09.06.07.05-.01-.01-.06-.06-.06-.08,0,0,.03,0,.05,0,.05-.04.1-.07.13-.12.05-.07.07-.2.14-.25.07-.06.14-.08.2-.12.07-.04.1-.1.16-.14.06-.05.14-.04.2-.08.06-.04.08-.18.14-.2s.18.12.25.11c.07-.01.12-.05.19-.06.06-.01.13-.01.2-.03.06-.02.1-.14.17-.15l.19-.03c.06,0,.16.13.22.11.06-.01.13,0,.19-.01.06,0,.11-.09.18-.1.06,0,.11-.09.18-.1.06-.01.13.01.19,0,.06-.02.13.02.2,0,.06-.02.12-.07.18-.08.06,0,.13-.01.19-.02.06,0,.13.04.2.03.06,0,.11-.17.17-.18.06,0,.13-.02.19-.03.06,0,.14.08.2.08.06,0,.12-.05.19-.05.06,0,.13.04.19.03.06,0,.12-.04.19-.04.06,0,.13.06.19.06.06,0,.13.03.19.03.06,0,.12-.2.19-.19.06,0,.13.15.19.14.06,0,.13-.04.19-.05.06,0,.12-.1.18-.11.06,0,.13.07.2.07.06,0,.12-.05.19-.05.06,0,.13-.04.19-.04.06,0,.13.15.19.15.06,0,.12-.19.19-.19.06,0,.13.15.19.15.06,0,.13-.08.19-.07.06,0,.13.04.19.05.06,0,.13-.02.19-.02.06,0,.12.06.19.06s.13-.07.2-.06c.06.01.12.11.18.12.06.01.13-.02.19-.01.08,0,.09-.04.11-.04.01,0,.07.11.1.11.03,0,.04-.02.07-.02.03,0-.1-.16-.11-.18,0,0,.15.15.12.11-.03-.03-.05-.06-.05-.08,0,0,0-.02,0-.06.03-.07.08-.12.14-.16.1-.07.18-.18.26-.2.09-.02.19.08.26.06.07-.02.15-.02.21-.05.06-.03.1-.13.17-.16.07-.03.14.05.21.04.07,0,.12-.01.19,0,.07,0,.13-.05.2-.04.07,0,.13-.01.2-.01.06,0,.13,0,.19,0,.06-.01.13,0,.19,0,.06-.01.12,0,.19,0,.06,0,.13-.08.19-.08s.13.1.19.1c.06,0,.13-.04.19-.04.06,0,.12.08.18.09.07.01.12.02.19.03.06.01.13,0,.2,0,.06,0,.13-.12.19-.13.06,0,.13-.06.19-.07.06,0,.13.11.19.11.06,0,.13-.03.19-.02s.12.07.18.07c.06,0,.12.07.18.08.06,0,.12,0,.19.01.06,0,.13-.13.2-.13.07,0,.13,0,.19.01.06,0,.11.12.17.14.06.02.15-.07.21-.05.06.02.1.19.16.2.06,0,.14-.14.2-.14h.09s.09.16.13.16c.05,0,0-.13,0-.15,0-.01-.04-.09-.05-.1-.01-.02.02,0,.02.01.02,0,.05.03.07.04.03.02.32.2.39.23.07.02-.14-.11-.12-.1.02,0,.24.11.28.12.04,0-.1-.06-.07-.06.03,0-.24-.12-.23-.12,0,0,.69.28.73.29h0s-.34-.15-.36-.16c-.02-.01.35.12.32.1-.03-.02-.15-.07-.22-.11-.08-.04-.55-.19-.6-.21-.05-.02.28.07.26.06-.02-.01-.28-.08-.28-.08,0,0,.14.02.13,0-.01-.01-.33-.05-.33-.05,0,0,0,0,0,0,.02,0,.27-.02.25-.04-.01-.02-.15,0-.16,0,0,0,.11-.08.08-.1-.02-.02-.09.01-.11,0l-.12-.08c-.05-.03-.06-.14-.12-.17-.05-.03-.11-.06-.17-.08-.06-.03-.17.04-.22.01-.05-.03-.07-.12-.13-.15-.06-.03-.17.05-.22.02-.06-.03-.08-.12-.13-.15-.05-.03-.15.01-.2-.02-.05-.03-.11-.07-.15-.1-.05-.03-.06-.15-.11-.18l-.16-.09c-.05-.03-.15.01-.2-.01-.05-.03-.13-.02-.18-.04-.06-.03-.09-.09-.15-.12l-.17-.07c-.05-.03-.07-.13-.13-.16-.06-.02-.09-.1-.15-.13l-.17-.07-.17-.07c-.06-.03-.16.06-.22.03-.06-.02-.12-.05-.17-.07-.06-.03-.07-.16-.12-.18-.06-.02-.15.04-.21.02-.06-.02-.1-.09-.16-.11-.06-.02-.14.03-.2,0-.06-.02-.13,0-.19-.01-.06-.02-.09-.1-.15-.12-.06-.02-.08-.15-.13-.17s-.17.11-.23.09c-.06-.02-.11-.07-.17-.09-.06-.02-.09-.11-.15-.13s-.17.1-.23.08c-.05-.03-.12-.06-.16-.09-.06-.03-.09-.1-.15-.12-.06-.02-.1-.1-.15-.12l-.17-.06c-.06-.02-.15.06-.21.04-.06-.02-.11-.05-.17-.06-.06,0-.1-.12-.16-.13s-.13.04-.19.02c-.06-.02-.11-.04-.18-.05-.06-.02-.12-.02-.18-.04-.06-.02-.13,0-.19,0-.06-.02-.11-.06-.17-.08-.06-.01-.14.04-.2.03-.06-.01-.11-.06-.17-.07-.06-.01-.12-.05-.18-.07-.06-.02-.1-.11-.16-.13-.06-.02-.11-.08-.17-.1-.06-.01-.14.09-.2.08-.06,0-.13.03-.19.02-.06,0-.1-.16-.16-.17-.06-.01-.13.01-.19,0-.06-.02-.13,0-.19-.02-.06-.02-.11-.08-.17-.09-.06,0-.13.05-.2.06-.06,0-.12-.08-.19-.08-.06,0-.13.16-.2.15-.06,0-.1-.12-.16-.14-.06-.02-.13.02-.19,0-.06-.02-.11-.08-.17-.09-.06,0-.13.06-.19.05-.06,0-.13,0-.19,0-.06,0-.13.03-.19.02-.06,0-.11-.2-.17-.21-.06,0-.13.03-.19.02-.06,0-.13.01-.19.01-.06,0-.12-.07-.19-.06s-.12.04-.19.04c-.06,0-.12,0-.18,0-.06,0-.12.11-.18.12-.06,0-.12.01-.18.02-.06,0-.13-.16-.19-.16-.06,0-.12.12-.19.12-.06,0-.12.1-.18.1s-.13-.03-.19-.03c-.06,0-.12-.15-.18-.16-.06-.01-.14.13-.2.12-.06-.01-.12-.21-.18-.21-.06,0-.12.07-.18.07-.06,0-.12.12-.18.12-.06,0-.13-.14-.19-.13-.06,0-.11.11-.17.13-.06.02-.11.1-.17.12-.06.02-.13.01-.19.02-.06,0-.14-.15-.2-.15-.06,0-.12.1-.18.1s-.12.03-.18.04c-.06,0-.13-.08-.19-.09-.06,0-.12.09-.18.09-.06,0-.12.02-.18.03-.06,0-.12.05-.18.06-.06,0-.14-.09-.2-.08-.06,0-.13-.06-.19-.05-.06.01-.11.09-.17.11-.06.02-.11.04-.18.06-.06.02-.1.15-.16.16-.06.01-.14-.1-.2-.1-.06,0-.12.08-.19.07-.06,0-.12-.04-.19-.02-.06.01-.14-.04-.2-.02-.06.02-.11.07-.17.1-.06.02-.1.09-.17.1-.06.01-.11.08-.17.09-.06,0-.12.01-.18.02-.06,0-.15-.11-.21-.1s-.13,0-.19,0c-.06.02-.1.12-.16.14-.06.02-.11.07-.17.09-.06.02-.16-.08-.21-.05-.06.02-.06.2-.11.23-.06.03-.13.03-.19.04-.06.02-.12.06-.18.06l-.18.02c-.06,0-.11.04-.17.06-.06.02-.17-.1-.22-.07-.04.03-.12.07-.16.1-.06.03-.11.05-.17.07-.06.02-.11.07-.17.08-.06.01-.14-.04-.2-.03s-.13.03-.18.05c-.06.02-.1.11-.16.14-.06.03-.11.09-.16.12-.06.03-.15,0-.2.02-.06.02-.07.18-.13.21-.06.02-.15-.03-.21,0-.06.03-.14.01-.2.04-.06.03-.13.02-.19.04-.06.02-.11.09-.17.11-.07.02-.1.11-.16.13-.06.03-.16-.03-.21,0-.04.03-.12.08-.16.12-.06.04-.13.02-.19.05-.06.03-.07.17-.14.19-.07.01-.16-.05-.22-.04-.07.01-.1.09-.16.12-.06.03-.12.05-.17.08-.05.04-.16-.02-.22.02-.05.04-.05.18-.11.21-.06.03-.11.07-.17.1-.06.03-.14,0-.21.03-.06.03-.13.02-.19.05-.06.03-.15,0-.21.01-.06.02-.07.17-.13.19-.06.02-.18-.06-.24-.03-.06.03-.04.18-.1.22-.05.04-.15.01-.21.05-.05.04-.14.01-.2.05-.06.04-.05.16-.1.2-.04.04-.11.09-.15.13-.05.04-.16,0-.21.03-.06.04-.13.04-.18.08-.06.04-.08.12-.13.15-.06.04-.07.13-.12.16-.06.04-.1.09-.15.12-.06.03-.13.04-.18.07-.06.03-.09.09-.15.12-.05.03-.16-.01-.22.02-.06.03-.12.04-.18.08-.05.03-.1.08-.16.12-.05.04-.1.08-.16.11-.06.04-.1.07-.16.11-.05.03-.07.11-.13.15-.03.02-.17.06-.18.04-.01-.02.12-.07.14-.09,0,0,0,.08.01.08Z"/>
    </g>
    <g>
      <path class="cls-8" d="M69.86,63.61c3.43,4.37,8.88,6.81,14.37,7.65s11.1.22,16.61-.56c5.5-.78,11.03-1.72,16.58-1.55,2.1.07,4.23.3,6.19,1.06,4.63,1.8,7.66,6.21,10.15,10.51,2.49,4.3,4.9,8.91,9.02,11.69.16-.92.04-1.85-.09-2.78-.85-6.36-1.79-12.96-5.33-18.32-4.78-7.24-13.46-10.9-21.94-12.72-5.48-1.17-11.09-1.75-16.7-1.71-4.35.03-8.69.42-13.02.82-3.46.32-6.92.63-10.38.95-1.47.13-3.02.3-4.22,1.16s-1.84,2.68-.95,3.86"/>
      <path class="cls-9" d="M69.81,63.84c.1.14.35.17.46.31.11.14.13.35.25.47.12.13.21.28.32.42.12.13.17.31.3.44l.38.36c.12.13.14.36.28.48.13.12.47-.02.62.07.15.1.12.46.28.55.15.09.29.16.43.28.14.11.21.27.34.39.13.12.34.15.48.27.13.12.38.09.53.19.15.1.33.09.49.17.16.07.17.46.34.53.16.07.31.14.46.23.15.09.48-.06.61.05.12.11.27.25.4.36.14.11.15.43.32.5.16.08.34.12.5.19.16.07.42-.08.58-.02.16.06.21.44.37.5.17.07.42-.09.59-.04.17.05.3.23.47.28l.5.17c.17.05.4-.11.57-.07.17.04.3.28.47.31.17.04.39-.08.56-.04.17.04.29.29.46.34.17.06.39-.03.55.02.17.06.33.1.5.13.17.03.32.21.49.25.17.04.39-.12.56-.09.17.03.29.41.46.44.18.02.38-.19.56-.21.18-.01.36.02.54,0,.18-.01.34.21.52.22.18.01.36-.11.54-.09.18.03.37-.05.54-.03.18.02.35,0,.53.02.18,0,.35.1.53.12.18.02.34.11.52.14.18.02.36.11.54.11.18,0,.36-.22.53-.23h.53c.18-.01.36.22.54.22l.54-.02c.18-.01.35-.14.53-.15l.53-.05c.18-.01.35-.08.52-.11.18-.03.33-.19.5-.22.17-.03.4.35.57.34.18-.01.34-.2.52-.19.18,0,.36-.1.53-.09.18,0,.34-.03.52-.05.18-.02.36.04.53.02.17-.03.32-.23.5-.26.17-.03.38.17.56.15.18-.02.36-.01.53-.06.17-.04.38.05.55.01.17-.04.3-.27.47-.3l.52-.06c.17-.01.35-.02.53-.04l.53-.05c.17-.02.34-.09.51-.12.17-.03.38.14.56.1s.33-.1.5-.12c.17-.02.33-.27.51-.27.18,0,.35.29.53.3.18,0,.37-.09.55-.11.17-.02.35.02.52,0l.52-.09c.17-.02.31-.36.48-.38.17-.02.4.25.57.21.17-.04.28-.33.45-.38s.36,0,.54-.03c.17-.02.39.17.56.14.17-.03.27-.46.44-.5.17-.03.4.32.57.3.17-.02.3-.41.47-.43.17-.02.38.22.55.21.17-.02.33-.14.51-.16.17-.02.35.1.53.1.17,0,.36-.17.53-.16.18,0,.35.17.52.16.17-.01.32-.28.49-.31.17-.02.37.22.55.21.17-.02.35.03.52.02.17-.01.33-.34.51-.34h.52c.17,0,.35.35.52.35.17,0,.33-.3.5-.32.17-.02.35.1.53.08.17-.01.34-.03.52-.03.17,0,.35-.06.53-.04.17.02.32.21.49.23.17.02.35-.09.52-.09.17,0,.34.04.51.04.17,0,.34-.14.51-.14.17,0,.35.02.52.04.17.02.33.13.5.15.17.01.35-.12.52-.11.17.01.34.09.5.12.17.03.25.38.41.43.16.05.41-.19.57-.13.16.06.29.16.45.2.16.05.3.16.46.19.16.03.33.04.49.08.17.03.28.19.43.25.15.06.33.05.48.12.15.08.34.06.49.15.14.09.25.23.39.32.14.09.19.34.33.42.14.08.34.07.48.17.14.09.34.09.48.19.14.09.31.17.43.3.11.13.11.36.22.48.1.13.34.13.46.24.12.11.14.35.25.46.12.12.32.15.44.27.12.12.22.26.33.38.11.12.29.18.42.29.13.11.21.28.33.39.12.12.33.17.44.3.11.13,0,.45.09.58.1.14.32.18.42.32.1.14.24.25.34.39.1.14.04.4.15.53.1.13.3.2.4.34.11.13.12.33.21.47.09.14.33.19.43.33.1.14.1.35.2.49.1.14.33.2.42.34.09.15-.06.42.01.58.07.16.2.29.27.45.07.16.16.32.25.47s.16.32.26.46c.1.14.35.18.45.33s.04.38.13.54c.09.15.13.33.21.48.09.15.21.29.29.44s.36.2.45.35c.09.15.05.37.13.53.08.16.1.35.18.5.08.16.1.36.19.51.09.15.18.3.27.46.09.15.5.12.59.27.09.15.16.31.25.46s0,.43.12.57c.11.14.17.33.28.47.12.14.3.21.4.36.11.15.35.21.44.37.08.16-.13.48-.04.64.09.16.25.31.36.45.11.15.43.11.56.23.13.12.28.25.41.36.13.13.22.3.34.44.12.13.16.35.29.48.14.12.17.36.31.48.14.12.38.12.52.24.07.06.15.1.24.14.12.07.24.14.35.23.21.18.45.2.64.33.17.13.41.78.66.97.25.19.41.02.63.22.19.16.48.63.75.94.03,0,.05-.02.06-.05.07-.25-.13-1.03-.1-1.26.03-.24.09-.44.1-.71,0-.26.15-.45.13-.75-.02-.3.05-.55.02-.87-.03-.31-.17-.66-.16-.79,0-.18-.16-.36-.16-.54,0-.18,0-.33-.03-.51-.02-.17.24-.42.18-.59-.06-.17-.17-.32-.22-.49-.06-.17-.05-.32-.07-.5-.03-.18-.36-.32-.37-.5,0-.18.1-.36.1-.53,0-.18-.07-.34-.1-.52-.03-.17,0-.36-.03-.54-.02-.18-.15-.34-.17-.52-.02-.18.3-.4.27-.58-.03-.18-.32-.3-.37-.47-.05-.17-.17-.32-.22-.49-.04-.17.11-.39.08-.57-.03-.17-.22-.31-.26-.49-.05-.17.02-.37-.03-.54-.04-.17.01-.37-.03-.54-.04-.17-.34-.29-.38-.47-.04-.17-.11-.34-.15-.51-.04-.17.02-.37-.03-.54-.05-.17-.08-.34-.14-.51l-.19-.5c-.06-.17-.17-.33-.22-.5-.05-.17.04-.39,0-.57-.04-.18-.22-.32-.26-.5-.04-.18-.09-.33-.16-.5-.06-.17-.16-.32-.22-.49-.07-.17-.12-.34-.19-.5-.07-.16,0-.39-.08-.56-.07-.17-.23-.28-.32-.44-.09-.16-.26-.27-.35-.42-.1-.15-.13-.36-.21-.52-.08-.16-.24-.29-.32-.45-.08-.16-.13-.34-.21-.5-.08-.16.15-.5.05-.65l-.3-.46c-.1-.16-.45-.14-.55-.29-.11-.15-.28-.25-.38-.4-.1-.15.01-.46-.1-.6-.11-.14-.3-.23-.41-.37-.12-.14-.25-.26-.37-.4-.12-.14-.13-.36-.24-.5-.11-.14-.42-.13-.53-.27-.12-.13-.14-.35-.27-.48-.12-.13-.15-.35-.26-.49-.11-.14-.41-.14-.52-.28-.12-.14-.04-.47-.17-.59-.14-.12-.48-.02-.61-.15-.13-.13-.18-.33-.31-.46-.13-.12-.12-.41-.27-.53-.14-.11-.38-.12-.53-.22-.15-.1-.31-.2-.45-.3-.15-.1-.22-.3-.37-.41-.15-.11-.51.06-.65-.05l-.41-.35c-.14-.12-.24-.26-.39-.36-.15-.1-.22-.33-.38-.41-.16-.09-.41,0-.57-.08-.15-.09-.19-.4-.35-.49-.16-.09-.35-.13-.51-.2s-.39-.01-.55-.08c-.16-.08-.28-.25-.44-.33-.16-.08-.39-.05-.54-.14-.15-.09-.35-.11-.5-.2-.15-.1-.14-.5-.3-.57-.16-.07-.31-.17-.47-.25-.16-.08-.38-.04-.54-.12s-.36-.07-.53-.14c-.17-.07-.25-.31-.42-.38s-.42.07-.58,0c-.16-.07-.31-.19-.47-.25-.17-.06-.32-.21-.5-.24-.18-.03-.38.09-.56.06-.18-.03-.3-.28-.47-.34-.17-.06-.42.12-.59.06-.17-.06-.28-.26-.45-.32-.17-.06-.39.04-.56-.01-.17-.05-.29-.28-.46-.32-.17-.04-.31-.23-.49-.27-.17-.04-.43.27-.6.22-.17-.05-.29-.28-.46-.33-.17-.05-.32-.18-.49-.23-.17-.05-.36-.04-.53-.08-.17-.05-.31-.14-.48-.22-.16-.07-.29-.24-.46-.31-.17-.07-.4-.01-.57-.05-.17-.04-.37.11-.55.1-.18,0-.35-.12-.53-.13-.18,0-.32-.18-.5-.22-.17-.03-.36,0-.53-.04-.17-.04-.39.1-.56.06s-.29-.36-.47-.39c-.18-.03-.38.08-.56.07-.18,0-.36.03-.54.03-.18,0-.35-.04-.52-.07-.18-.03-.3-.22-.48-.27-.17-.05-.44.25-.61.2-.17-.05-.29-.35-.46-.37-.18-.02-.37.18-.55.17-.18,0-.34-.2-.52-.21-.18-.01-.35-.02-.53-.04-.18-.02-.36.04-.54.02-.17-.03-.36,0-.53-.02-.18-.02-.34-.08-.52-.09-.18-.02-.38.09-.56.06-.17-.03-.34-.12-.51-.15-.17-.03-.33-.2-.5-.21s-.35.04-.53.04c-.18,0-.35.15-.53.16-.18,0-.35-.3-.53-.31-.18-.01-.36,0-.54,0s-.35.24-.53.24c-.18,0-.35-.23-.53-.24-.18,0-.33-.11-.5-.14-.18-.03-.38.14-.56.11-.18-.03-.35-.21-.53-.21-.18,0-.35.25-.53.26-.18,0-.36-.1-.54-.1-.18,0-.35.12-.53.12-.18,0-.35.03-.53.04-.18,0-.36-.19-.54-.18s-.35.14-.53.14-.35-.04-.53-.04c-.18,0-.35-.17-.53-.18-.18,0-.36.09-.54.1-.18,0-.35.05-.53.06-.17,0-.36,0-.53,0l-.53.02c-.18.01-.34.18-.51.21-.18.02-.33.17-.51.19-.17.02-.37,0-.54,0-.18.01-.36-.08-.53-.05-.17.02-.34.1-.52.13-.17.03-.37-.2-.55-.19-.18.01-.35.1-.53.13-.17.03-.35.07-.52.1-.17.03-.35-.05-.52-.03s-.33.43-.51.43c-.18,0-.36-.22-.53-.21-.18,0-.34.2-.51.22-.17.02-.36-.06-.53-.05-.17.01-.37-.22-.54-.21-.17.01-.32.33-.5.35-.17.02-.38-.27-.55-.25s-.34.08-.52.1-.32.28-.5.3c-.17.02-.36-.08-.53-.07-.17.01-.34.17-.51.19-.17.01-.35-.04-.53-.02s-.37-.3-.55-.28c-.17.01-.33.37-.5.38-.17.01-.37-.21-.54-.19-.17.02-.35-.06-.53-.04-.17.01-.32.37-.5.39s-.36-.12-.53-.1c-.17.02-.36-.04-.53-.02-.17.02-.34.11-.52.13-.17.02-.34.17-.51.19-.17.02-.36-.09-.54-.09-.18,0-.35.07-.53.07-.18,0-.34,0-.52.02-.17.02-.36-.1-.54-.07-.18.02-.35.05-.52.07-.17.03-.34.18-.51.19-.18.02-.36.15-.54.17-.18.01-.39-.31-.58-.29-.19.02-.36.21-.54.25-.19.04-.36.13-.54.21-.18.08-.38.12-.55.21-.18.09-.41.07-.59.16-.19.09-.32.28-.49.38-.17.1-.36.22-.53.35-.16.14-.46.17-.6.34-.15.18-.06.5-.16.69-.1.19-.08.42-.14.62-.07.19-.41.31-.46.54-.05.22.15.49.13.7-.03.21-.02.44.01.66.02.22-.07.48.04.71.08.19.31.35.36.31.17-.11.38-.08.45-.17.11-.12.22-.19.34-.31.08-.09.04-.35.23-.44.06-.02.27-.08.24-.15-.04-.08-.24-.11-.28-.23-.04-.11.05-.24.04-.36-.01-.12-.03-.24,0-.37.03-.13.19-.22.23-.33.04-.12-.12-.35-.05-.48.07-.12.05-.32.15-.44.1-.11.2-.23.31-.33.12-.09.28-.11.41-.18.14-.07.37.06.5,0,.13-.06.2-.28.35-.33.15-.06.33.02.48-.03.15-.04.33.04.48,0,.15-.03.29-.2.45-.24.16-.04.35.08.51.05.16-.03.29-.37.46-.39l.52-.05c.17-.01.37.28.54.27.17-.01.36.02.53,0,.17-.02.33-.21.51-.23.17-.02.35.02.53,0,.17-.02.35.04.53.03.17-.02.34-.12.51-.13.17,0,.33-.28.51-.29.17,0,.35.07.53.06.17-.02.37.24.55.22l.52-.04c.17-.02.34-.15.51-.17.17-.02.33.09.51.1.18.01.36-.16.54-.15s.37.21.54.2c.17-.02.36-.07.54-.1.17-.03.32-.19.49-.23s.32-.3.49-.32c.17-.02.36.09.53.07.17-.02.36.06.53.03s.35.03.53.01c.17-.02.34-.15.51-.16.17-.02.33-.2.51-.21l.52-.05c.17-.02.37.15.54.16.18,0,.35.05.52.06.18,0,.35-.08.52-.1.17-.01.39.23.56.2.17-.03.32-.19.5-.21s.33-.21.5-.22c.17-.01.35.19.53.2.17,0,.35-.15.53-.14.17,0,.36.14.53.13s.35.02.52.01c.17-.01.34-.16.51-.17.17-.01.35.01.52,0,.17-.01.34-.07.52-.08l.52-.02c.17,0,.35.15.53.14.17,0,.37-.07.54-.11.17-.04.27-.39.45-.43.17-.04.39.28.56.28.17,0,.32-.03.49,0,.17.03.35,0,.53.04.17.03.36.02.54.01.17,0,.35-.08.52-.11.16-.04.35-.08.51-.12.17-.03.35-.13.52-.12.17,0,.32.29.5.31.16.03.35.06.51.09.17.02.37-.13.54-.12.17,0,.34.08.51.1.17.02.37-.26.55-.24.17.02.32.27.49.28.17,0,.35.05.53.04.17-.01.34-.07.52-.08.17,0,.34,0,.51.01.17.01.33.1.5.13.17.03.4-.23.57-.2.17.03.31.21.48.23.17.02.35-.09.52-.08l.52.05c.17.01.33.21.5.23.17.02.36.05.53.05.17,0,.35.1.53.09.18,0,.32-.03.49,0,.17.02.37-.13.54-.07.16.06.33.13.49.19.17.06.31.24.48.27.17.03.36.02.54.02h.52c.18-.01.35-.13.52-.1.17.03.35.06.52.12.16.06.35.06.52.12.16.06.31.15.48.18s.33,0,.51,0c.17,0,.35.1.52.1.18,0,.34.07.51.11.17.04.34.06.51.11.17.04.31.16.48.2.17.05.41-.22.58-.18.17.04.29.27.46.33.16.06.38-.05.55.01.16.06.29.19.46.23.17.05.3.21.47.25.17.04.3.24.46.28.17.04.31.13.48.18.17.05.37.02.54.05.17.04.36-.03.53,0,.17.04.35.03.51.09.17.05.23.33.38.41.15.08.41-.04.56.03s.27.27.43.32c.16.06.31.13.47.2.15.07.38,0,.54.07.15.07.35.04.51.1.16.06.27.23.43.28.16.06.26.32.42.37.16.06.29.14.45.21.15.07.37.02.52.1.15.07.38,0,.54.06.15.07.33.11.49.18.15.08.17.4.3.5.14.1.35.1.48.21.14.1.19.36.33.44.15.08.31.17.47.24.15.07.47-.19.62-.12.16.08.17.4.32.49.14.09.33.11.47.21.13.1.33.13.47.23.13.11.28.18.42.28.14.1.09.46.23.55.14.1.39.04.52.14.14.1.23.26.36.37.13.11.3.18.44.27.14.1.38.05.52.16.14.1.29.21.42.32.13.12.19.3.31.42.12.12.04.42.15.55.11.13.39.1.51.22.12.12.11.35.21.49.1.13.16.3.25.44.09.14.11.36.22.49s.4.1.54.21c.14.1.14.36.26.47.12.12.49.03.59.17s.02.4.11.54c.1.14.12.32.21.47s.21.27.3.42c.09.14.26.24.33.4.07.16.1.33.17.48.07.16.07.35.15.5.07.15.11.32.19.47l.2.46c.08.15.43.17.5.33.07.16,0,.37.07.53.07.15.11.32.17.48.06.16.31.24.37.4.06.16-.15.42-.1.58.05.16.3.26.35.42.05.16.06.34.12.5.05.16.22.31.25.48.03.17-.13.37-.1.54.03.17,0,.36.05.52.04.17.24.29.29.45.05.16-.12.39-.07.56.05.16.38.25.42.42.04.17.05.34.08.51.03.17-.01.35.02.52.03.17.17.32.2.49.04.17-.21.39-.18.56.03.17.38.29.41.46.03.17-.24.39-.21.56.03.17.04.36.08.52.04.17.43.25.47.42.04.17-.19.4-.17.57.03.17.31.32.33.49,0,.17,0,.36,0,.52.01.17-.31.39-.29.56.03.17.18.33.22.5s.15.33.19.5-.02.35,0,.53c.02.17-.09.36-.07.53.02.17.43.3.45.48.02.15-.07.42-.07.42,0,.07-.23.04-.24.03,0,.01-.05-.01-.05-.02,0,0,0,0,0,0,0-.01.29.45.3.56.01.06.01.1-.01.08h-.04s0,.24-.07.18c-.08-.06-.17-.41-.2-.45-.04-.04-.08-.06-.11-.1-.04-.05-.11.08-.23-.03-.13-.11-.19-.29-.31-.4-.12-.11-.15-.33-.27-.44-.13-.11-.29-.18-.41-.31-.11-.13-.13-.35-.26-.46-.12-.11-.37-.11-.49-.23-.12-.12-.21-.28-.31-.41-.1-.14-.21-.27-.3-.42-.09-.15-.06-.36-.14-.51-.08-.15-.33-.2-.43-.34-.1-.14-.15-.31-.25-.45-.1-.14-.24-.25-.33-.39-.1-.14-.22-.27-.32-.41-.09-.15-.13-.33-.22-.47-.09-.15-.24-.26-.33-.41-.09-.15-.06-.37-.15-.52-.09-.15-.38-.16-.47-.31-.1-.14-.1-.35-.2-.5-.1-.15-.1-.35-.18-.5-.09-.15-.23-.27-.32-.42l-.27-.45c-.09-.15-.3-.23-.39-.38-.09-.15.03-.43-.06-.57-.09-.15-.3-.23-.39-.38-.09-.15-.22-.28-.31-.43-.09-.15-.03-.39-.11-.54-.08-.16-.42-.17-.5-.33-.09-.15-.18-.29-.27-.44-.09-.15.12-.49.03-.64-.1-.14-.21-.29-.31-.43-.1-.15-.13-.34-.23-.49-.1-.15-.49-.09-.6-.23-.11-.14-.27-.24-.38-.38-.11-.14-.19-.32-.29-.46-.11-.14-.17-.32-.27-.47-.1-.15-.05-.4-.16-.55-.11-.14-.17-.32-.29-.47-.11-.14-.3-.22-.4-.37-.11-.15-.28-.24-.39-.38-.11-.14-.09-.4-.21-.54-.13-.13-.32-.21-.46-.33-.14-.12-.38-.12-.51-.24-.14-.12-.34-.18-.48-.29l-.4-.37c-.13-.13-.2-.31-.34-.43-.14-.12-.22-.31-.36-.42-.15-.11-.16-.35-.3-.48-.13-.13-.33-.21-.46-.33-.14-.12-.3-.25-.46-.35-.16-.1-.37-.12-.55-.18-.17-.07-.29-.28-.47-.35-.17-.07-.35-.1-.52-.17-.17-.07-.33-.16-.49-.25-.17-.09-.48.14-.65.06-.17-.07-.25-.37-.43-.42-.18-.06-.35-.13-.53-.18-.18-.05-.42.14-.59.1-.18-.04-.3-.35-.48-.38-.18-.04-.39,0-.58,0-.18,0-.37.21-.55.21-.18,0-.38,0-.56-.01-.18-.02-.34-.28-.52-.29-.18,0-.36.03-.54.02-.18,0-.36.11-.54.1-.18,0-.34-.15-.52-.18-.17-.03-.36-.07-.53-.1-.18-.03-.37.02-.55.02-.18,0-.35,0-.53-.01h-.53c-.18,0-.36.02-.53.02-.18,0-.35.12-.53.13-.18.01-.35.06-.53.07-.18.01-.35.09-.53.1-.18.01-.37-.17-.55-.14-.18.03-.38-.14-.56-.12-.18.03-.32.31-.5.32-.18.01-.36-.08-.54-.07-.18.02-.33.23-.51.25-.18.02-.38-.18-.55-.16-.18.02-.35-.08-.53-.08-.18.01-.35.03-.53.04-.18,0-.34.25-.52.27-.18.02-.36-.02-.54.02-.17.04-.36.04-.53.08-.17.04-.32.25-.5.28-.18.02-.38,0-.56-.01-.18,0-.35-.26-.53-.27-.18,0-.34.32-.51.34l-.53.06c-.18.02-.37-.13-.55-.11-.18.02-.33.19-.5.21s-.42-.27-.59-.22c-.16.05-.35.11-.51.17-.17.04-.32.14-.49.17-.17.03-.33.22-.5.24-.17.02-.34.12-.52.14-.18.02-.37-.15-.54-.12-.17.02-.37,0-.54.05-.17.04-.28.32-.45.37-.17.04-.37.03-.54.06-.17.02-.38-.18-.55-.16-.17.02-.31.32-.49.34-.17.02-.36-.08-.54-.06-.17.02-.35.14-.53.14-.18,0-.36-.23-.53-.23-.18,0-.34.18-.52.2-.17.02-.34.03-.52.07-.17.04-.38-.09-.55-.05-.17.04-.33.09-.5.11-.17.01-.35.3-.53.28-.18-.01-.33-.39-.5-.41-.18-.02-.36.2-.53.22-.17.01-.35,0-.52.03-.17.03-.37-.06-.54-.03-.17.03-.33.27-.5.27-.18,0-.34-.27-.51-.29-.17-.02-.35.05-.53.03-.17-.02-.35.14-.53.14-.17,0-.36-.27-.53-.26-.17,0-.33.39-.51.4-.17,0-.36-.03-.53-.04-.17,0-.34-.16-.51-.16-.17,0-.34-.18-.51-.18-.17,0-.34.02-.52,0-.17,0-.35-.01-.52-.02l-.52-.04c-.17,0-.36.1-.53.08-.17-.02-.32-.28-.5-.3-.17-.02-.38.18-.56.16-.17-.02-.38.11-.56.09-.18-.03-.31-.29-.49-.31-.17-.02-.38.13-.56.11-.18-.03-.34-.17-.51-.21-.17-.04-.32-.19-.49-.23-.17-.04-.41.18-.58.13-.17-.05-.3-.28-.47-.33-.17-.05-.37-.04-.54-.11-.16-.08-.37-.06-.53-.15-.16-.08-.3-.16-.47-.21-.17-.06-.27-.35-.43-.4-.17-.05-.37,0-.55-.04-.17-.05-.36-.08-.52-.16-.17-.07-.37-.04-.54-.11-.17-.07-.31-.19-.47-.27-.16-.08-.34-.12-.5-.2-.17-.08-.16-.43-.3-.54-.14-.11-.36-.12-.5-.23-.15-.11-.35-.13-.49-.23-.13-.08-.22-.26-.36-.32-.15-.06-.27-.17-.4-.24-.14-.07-.37.01-.5-.08-.13-.09-.31-.12-.43-.22-.13-.1-.04-.47-.16-.56-.12-.1-.45.06-.57-.05-.12-.1-.13-.33-.25-.44-.12-.1-.27-.17-.39-.28-.11-.11-.27-.17-.39-.28-.12-.11-.09-.38-.21-.48-.12-.1-.41-.02-.53-.12-.12-.11-.11-.34-.22-.46-.06-.06-.09-.12-.13-.11-.05.02-.12.15-.05.24Z"/>
    </g>
    <g>
      <path class="cls-3" d="M151.89,65.42c-.41-2.75-.85-5.54-2.13-8.01-3.54-6.79-12-8.96-19.38-11-2.48-.69-4.96-1.44-7.22-2.67-1.66-.9-3.19-2.06-4.95-2.77-5.87-2.39-12.53.6-18.83-.06-5.78-.61-11.11-4.31-16.9-3.82-7.42.62-16.31,7.68-18.63,10.81-.78,1.06-1.38,1.99-1.86,2.82-1.5.55-2.87,1.05-3.77,1.38,0,0-7.02,3.86-9.94,7.72-2.92,3.87-4.72,8.46-6.18,13.08-4.95,15.59-9.46,46.46-4.23,48.14,2.43.78,11.49-30.21,15.31-37.61,2.84-5.5,11.11-14.99,15.27-20.29.76-.08,1.28-.09,1.29.04,8.84-3.11,5.99,1.47,15.29.3,11.47-1.44,29.9-2.45,40.46,2.22,2.28,1.01,4.52,2.26,6.13,4.15,1.55,1.82,2.42,4.12,3.3,6.35,5.88,14.99,13.3,29.38,22.1,42.87-.77-17.96-2.48-35.89-5.12-53.67Z"/>
      <path class="cls-3" d="M151.82,64.59c-.06-.41-.26-1.01-.33-1.41-.07-.41-.21-.78-.3-1.17-.09-.4-.05-.85-.15-1.24-.11-.4-.2-.77-.33-1.15-.12-.39-.27-.77-.42-1.15-.15-.38-.35-.77-.54-1.12-.21-.36-.49-.63-.7-.97-.22-.34-.47-.66-.71-.98-.23-.34-.55-.6-.81-.9-.27-.31-.53-.65-.83-.92-.3-.28-.63-.46-.95-.69-.33-.24-.62-.56-.96-.76-.35-.22-.67-.52-1.02-.71-.36-.2-.72-.33-1.06-.52-.37-.18-.73-.31-1.09-.48-.36-.18-.72-.43-1.08-.59-.37-.17-.76-.27-1.13-.42-.37-.15-.74-.32-1.12-.45-.38-.13-.8-.13-1.19-.26-.38-.13-.76-.27-1.14-.4-.39-.11-.76-.22-1.15-.34-.39-.11-.76-.22-1.15-.33-.38-.1-.78-.2-1.17-.3-.39-.1-.77-.35-1.17-.46-.38-.11-.75-.23-1.14-.34-.39-.11-.83-.12-1.23-.24-.38-.12-.78-.18-1.18-.3-.38-.12-.75-.38-1.14-.51-.38-.13-.77-.23-1.16-.38-.38-.15-.74-.36-1.12-.52-.37-.17-.71-.35-1.08-.55-.36-.19-.7-.41-1.05-.63-.34-.21-.79-.28-1.14-.5-.34-.21-.64-.42-1-.61-.35-.19-.71-.41-1.07-.57-.36-.16-.73-.3-1.11-.43-.37-.12-.65-.36-1.04-.47-.37-.1-.74-.25-1.14-.32-.39-.07-.85-.04-1.25-.06-.39-.03-.86-.22-1.27-.2-.4.01-.67.16-1.07.19-.4.03-.84.07-1.24.1-.39.03-.82.06-1.23.09-.39.03-.8.06-1.2.09-.4.04-.79,0-1.2.06-.4.05-.81.21-1.22.25-.4.04-.78-.03-1.19,0-.4.04-.81.19-1.22.22-.4.04-.82-.05-1.23-.04-.4.02-.83.12-1.25.11-.41,0-.81-.03-1.23-.06-.41-.02-.8-.11-1.21-.15-.41-.03-.85-.19-1.25-.25-.4-.06-.76-.15-1.16-.24-.39-.1-.79-.2-1.18-.31-.39-.12-.75-.31-1.14-.43-.38-.13-.8-.17-1.19-.3-.38-.13-.78-.18-1.17-.31-.38-.13-.71-.42-1.1-.54-.38-.13-.77-.22-1.16-.33-.38-.12-.77-.21-1.16-.32-.38-.11-.78-.14-1.17-.22-.39-.1-.78-.16-1.17-.23-.39-.07-.8-.1-1.19-.16-.39-.03-.75-.13-1.14-.15-.39.02-.8.03-1.2.08l-1.17.17c-.39.08-.74.26-1.13.35-.39.07-.8.12-1.18.23-.38.11-.8.2-1.17.36-.37.15-.73.29-1.09.47-.36.17-.63.47-1,.63-.36.18-.75.31-1.12.48-.36.16-.71.41-1.06.6-.35.19-.71.29-1.05.51-.34.21-.64.45-.97.68-.32.23-.75.42-1.07.65-.32.23-.52.58-.84.81-.32.23-.67.43-.99.68-.31.25-.6.52-.9.78-.3.26-.66.47-.95.74-.29.27-.63.49-.91.78-.29.28-.5.62-.76.92-.28.29-.51.59-.76.89-.22.33-.51.53-.74.85-.23.32-.43.73-.66,1.06-.12.16-.24.33-.36.49l-.21.3c-.05.16-.3.16-.36.21-.38.14-.74.32-1.12.48-.37.15-.68.34-1.06.49-.37.15-.84.19-1.22.33-.29.11-.64.43-.97.61-.35.2-.7.37-1.04.58-.34.21-.72.39-1.05.61-.34.22-.62.51-.96.73-.33.22-.67.43-1,.66-.33.23-.6.53-.92.78-.32.24-.59.45-.89.71-.3.26-.74.52-1.03.79-.28.28-.53.54-.81.81-.27.29-.47.68-.72.98-.25.29-.53.55-.76.88-.24.31-.44.64-.67.97-.22.33-.46.7-.68,1.04-.21.33-.5.53-.7.87-.21.34-.31.8-.49,1.15-.18.35-.47.66-.64,1.02-.17.36-.22.78-.38,1.14-.16.37-.44.69-.6,1.06-.15.37-.22.78-.36,1.15-.14.38-.23.76-.36,1.14-.12.38-.25.78-.38,1.15-.13.38-.25.75-.38,1.13l-.34,1.15c-.11.39-.27.77-.39,1.16l-.34,1.16c-.12.38-.2.78-.31,1.17-.11.39-.34.73-.44,1.13-.1.39-.06.86-.17,1.24-.11.39-.33.67-.43,1.06-.1.39-.21.81-.3,1.2-.09.39-.02.77-.1,1.16-.08.39-.25.82-.33,1.22-.09.4-.18.78-.26,1.18-.08.39-.05.81-.14,1.21-.08.39-.31.75-.39,1.14-.08.39-.03.82-.11,1.21-.08.4-.23.78-.3,1.18-.07.4-.18.79-.25,1.19l-.23,1.18c-.07.4.02.89-.06,1.28-.08.39-.16.78-.25,1.17-.07.4-.29.72-.35,1.11-.06.4-.01.81-.06,1.21-.03.38-.07.81-.11,1.19-.06.39-.13.82-.2,1.21-.05.4-.05.82-.1,1.22-.05.4-.25.75-.3,1.15-.05.4-.11.81-.16,1.21-.04.4,0,.81-.03,1.21-.02.39-.05.81-.07,1.2-.04.4,0,.81-.02,1.21-.03.4-.11.78-.12,1.18-.02.41-.05.83-.08,1.24,0,.41-.02.79-.02,1.19-.02.4.08.86.06,1.26-.01.4-.17.7-.17,1.1,0,.4,0,.84,0,1.24.03.4.06.82.09,1.23.05.4.17.74.21,1.13.07.39.09.81.16,1.19.09.38.13.78.25,1.14.09.38.13.74.29,1.09.17.34.48.62.72.82.1.13.3.17.37.25.06,0,.05.04.19-.08.24-.22.41-.58.61-.9.2-.33.52-.61.7-.97.18-.36.3-.74.47-1.1.17-.36.34-.73.51-1.09.16-.37.29-.76.44-1.13.15-.37.37-.75.51-1.13.14-.38.19-.76.33-1.13.14-.38.34-.73.49-1.11.14-.38.18-.82.33-1.19.15-.37.39-.67.54-1.04.14-.38.18-.82.32-1.19.14-.38.33-.74.46-1.12.14-.38.35-.74.49-1.12l.4-1.14c.13-.38.15-.81.29-1.19.14-.37.3-.75.44-1.12l.39-1.14c.13-.38.4-.74.53-1.13l.38-1.15c.13-.38.21-.76.34-1.14.13-.38.2-.8.34-1.18.15-.36.31-.75.46-1.11.12-.38.25-.78.38-1.15.14-.38.39-.71.53-1.09.14-.38.12-.83.26-1.21.14-.38.28-.75.42-1.13.14-.38.39-.72.53-1.1l.43-1.14c.14-.38.17-.8.32-1.18.15-.38.37-.73.51-1.11.13-.37.27-.76.4-1.13.15-.38.4-.73.56-1.1.16-.37.31-.76.49-1.13.18-.37.43-.71.62-1.07.19-.36.29-.77.5-1.13.21-.36.52-.61.76-.95.23-.33.45-.69.69-1.02.24-.33.44-.7.67-1.03.24-.33.54-.61.78-.94.23-.33.52-.63.76-.96l.73-.96c.25-.32.45-.68.7-1.01.24-.32.54-.62.79-.94.25-.32.43-.66.68-.98.25-.32.46-.7.72-1.02.26-.3.52-.61.78-.92.26-.31.58-.55.83-.86.26-.32.4-.66.65-.98.24-.32.57-.65.81-.97.24-.32.42-.69.68-1,.26-.31.61-.49.87-.8.26-.31.5-.69.76-1,.26-.31.53-.62.78-.93.25-.31.48-.65.73-.97.09-.12.19-.23.28-.35.15-.03.39-.04.46-.04.22,0,.44,0,.65-.01.08,0,.15,0,.25.01.05,0,.09.01.17.03.03,0,.09.03.13.07.07.05.14.13.16.28l-.45-.29c.25-.1.49-.2.75-.28.39-.12.78-.24,1.19-.34.4-.1.81-.17,1.22-.24.41-.07.77-.34,1.2-.36.43-.05.84.08,1.27.11.42.06.8.18,1.19.31.4.12.85.25,1.23.4.38.15.73.16,1.1.27.37.12.75.22,1.13.29.38.06.81.09,1.2.12.39.01.78.1,1.18.09.39-.01.79-.06,1.19-.07.39-.03.78-.06,1.17-.09.39-.03.81-.03,1.2-.08.38-.06.8-.13,1.19-.19.4-.05.82-.07,1.22-.12.4-.03.82-.06,1.22-.1.4-.03.77.02,1.17,0,.4-.03.83-.1,1.24-.13.4-.04.78-.13,1.18-.17.4-.04.88.03,1.28,0,.4-.04.77-.12,1.17-.14.41-.02.79-.01,1.2-.02.4,0,.78.02,1.18.02.41,0,.86-.11,1.26-.12.4-.02.75-.04,1.17-.07.41,0,.83-.02,1.24-.03.41-.02.83-.11,1.23-.12.41,0,.84.02,1.24.02.4.01.81.02,1.21.03.41,0,.78.16,1.19.18.41.01.88-.11,1.29-.08.4.02.78.09,1.18.13.41.03.77.05,1.17.08.4.02.79.04,1.2.07.4.04.82.16,1.22.19.4.04.82-.03,1.22.01.4.05.79.19,1.2.23.4.05.79.04,1.2.09.41.04.83.12,1.23.18.39.08.81.17,1.21.26.4.07.75.29,1.14.39.4.09.81.18,1.2.27.4.08.8.18,1.18.3.39.12.82.19,1.21.31.39.11.73.32,1.11.46.38.15.8.44,1.18.57.38.15.75.28,1.12.45.38.16.68.31,1.04.5.36.2.71.37,1.05.6.34.22.65.48.97.72.32.26.68.54.98.81.31.27.67.47.95.77.29.3.55.63.8.96.25.33.53.67.73,1.03.2.33.36.7.55,1.08.18.35.35.71.52,1.08.16.36.32.73.47,1.11.15.36.27.74.41,1.12.13.36.27.73.41,1.11.14.36.32.71.47,1.09.14.36.29.75.43,1.12.13.36.27.73.41,1.1.14.36.28.73.42,1.1.15.36.34.66.51,1.02.17.35.29.81.46,1.17.17.35.42.65.58,1.01.16.36.25.74.41,1.11.17.35.34.72.51,1.07.16.36.22.76.39,1.12.16.36.42.7.58,1.06.15.36.23.71.39,1.07.16.36.28.77.45,1.13.18.35.36.7.54,1.05l.51,1.07c.17.35.35.71.53,1.07.17.35.41.68.6,1.03.19.34.34.79.53,1.13.19.35.5.56.68.91.18.35.27.75.45,1.1.18.35.44.7.61,1.05.18.35.34.67.52,1.03.18.35.27.75.46,1.1l.58,1.04c.19.35.33.72.53,1.06.2.34.41.7.6,1.04.2.34.45.63.65.97.19.34.44.67.64,1.01.2.34.28.73.47,1.08.2.34.41.69.61,1.03.2.34.35.72.55,1.06.2.34.45.65.65.99.19.34.34.69.53,1.03.2.34.48.67.68,1.01.21.34.41.7.62,1.03.22.33.49.52.71.85.22.34.48.73.69,1.05.21.34.25.74.46,1.07.1.17.26.34.4.48.07.04.1,0,.11.04.01.03.12.41.23.57v.02c0-.21-.13-.56-.13-.6,0-.03.02-.04.04-.09.01,0,.02-.12.02-.22,0-.1,0-.2,0-.3-.02-.4-.1-.78-.12-1.18-.04-.39-.07-.79-.11-1.17-.02-.4-.05-.79-.07-1.18-.02-.4.02-.81,0-1.2-.03-.4-.05-.79-.08-1.19-.02-.4-.04-.79-.06-1.18-.02-.4-.12-.79-.15-1.18-.03-.4.01-.82,0-1.21-.02-.4.05-.75.04-1.14-.02-.4-.16-.82-.19-1.2-.01-.39-.03-.82-.04-1.2-.02-.4.06-.78.03-1.16-.02-.4-.09-.81-.12-1.19-.03-.41-.01-.85-.05-1.23-.04-.4-.16-.75-.2-1.13-.04-.41-.12-.8-.15-1.17-.03-.4.03-.77,0-1.15-.02-.4-.05-.79-.07-1.18-.02-.4-.13-.83-.17-1.21-.04-.41-.1-.76-.15-1.14-.05-.4,0-.85-.04-1.23-.05-.4-.21-.78-.25-1.16-.04-.41.02-.8,0-1.18-.03-.41-.15-.82-.19-1.2-.04-.41.02-.78-.02-1.15-.04-.41-.08-.8-.12-1.18-.05-.4-.1-.79-.15-1.17-.05-.4-.19-.8-.23-1.18-.04-.4.06-.76.03-1.15-.04-.4-.08-.79-.12-1.18-.03-.39-.11-.79-.16-1.18-.04-.39,0-.79-.04-1.18-.05-.38-.14-.76-.2-1.16-.05-.38-.19-.78-.23-1.18-.03-.37-.07-.77-.1-1.16-.04-.38-.04-.76-.09-1.17-.06-.37-.12-.78-.19-1.18-.05-.38-.1-.78-.16-1.18-.04-.37-.08-.76-.12-1.16-.04-.38-.09-.76-.13-1.16-.05-.38.02-.74-.03-1.14-.05-.38-.23-.81-.27-1.22-.05-.38.04-.75-.01-1.15-.03-.25-.22-.79-.19-.78.02.02.11.53.14.75.06.4.12.77.18,1.15.07.4.02.86.08,1.24.07.4.25.72.31,1.09.06.4-.05.85,0,1.23.06.4.28.76.33,1.13.06.41-.01.83.04,1.2.06.41.18.77.23,1.14.06.41.11.8.17,1.17.05.41.1.8.15,1.17.06.41.1.84.16,1.22.06.4.18.72.24,1.1.06.4.06.8.11,1.18.05.4.15.77.19,1.16.04.39,0,.75.04,1.15.03.39.15.8.2,1.2.04.38.14.74.19,1.14.05.38.06.79.1,1.19.05.37.11.78.17,1.17.04.38,0,.79.05,1.2.05.38.18.73.22,1.14.04.38.09.78.14,1.19.04.38-.01.79.03,1.19.04.38.13.75.18,1.16.03.38.07.78.1,1.18.04.38-.04.76,0,1.16.03.38.12.79.15,1.2.02.38.05.79.08,1.2.02.39.04.77.07,1.18.03.4.17.83.2,1.24.03.4-.07.8-.04,1.2.03.4.23.78.26,1.18.03.4-.08.81-.05,1.22.02.4.05.8.07,1.21.03.4.18.78.21,1.19.02.4.05.8.07,1.21.03.4-.01.81.02,1.21.03.4.12.75.16,1.15.04.4.02.85.06,1.25.04.4.06.8.09,1.2.02.4.04.8.04,1.21,0,.4,0,.8.01,1.21,0,.4-.07.81-.05,1.22.02.4.05.89.08,1.29.04.48.16,1.1.2,1.8.03.45.03.82.03,1.17-.13-.21-.25-.41-.37-.61-.32-.5-.67-.92-1.05-1.52-.21-.34-.3-.45-.42-.63-.12-.17-.24-.34-.34-.51-.21-.34-.35-.71-.56-1.05-.21-.34-.45-.67-.66-1.02-.21-.34-.35-.7-.55-1.05-.2-.35-.47-.68-.68-1.03-.21-.34-.47-.6-.69-.94-.22-.34-.37-.78-.59-1.12-.21-.34-.38-.7-.58-1.05-.2-.35-.4-.69-.6-1.04-.19-.35-.38-.71-.57-1.06-.2-.35-.55-.62-.75-.97-.2-.35-.33-.74-.54-1.09l-.61-1.04c-.2-.35-.36-.73-.55-1.08-.19-.35-.48-.66-.67-1.01-.18-.35-.36-.73-.54-1.08-.19-.35-.34-.73-.53-1.09-.19-.36-.44-.69-.63-1.04-.19-.36-.24-.77-.42-1.13-.18-.36-.5-.66-.69-1.02-.19-.35-.37-.7-.56-1.05-.19-.36-.28-.78-.46-1.14-.17-.36-.34-.73-.51-1.09-.18-.36-.43-.73-.59-1.1l-.51-1.12c-.16-.37-.18-.74-.36-1.1-.17-.37-.34-.75-.51-1.12-.17-.36-.45-.64-.62-1.01-.17-.37-.23-.8-.39-1.17-.17-.37-.33-.73-.5-1.09-.15-.37-.31-.74-.47-1.11-.16-.37-.38-.73-.54-1.09-.16-.37-.41-.72-.56-1.09-.16-.37-.26-.75-.41-1.13-.16-.37-.33-.74-.49-1.1-.15-.37-.22-.79-.38-1.16-.16-.37-.37-.71-.52-1.08-.15-.38-.3-.76-.44-1.13-.15-.38-.32-.7-.48-1.07-.16-.37-.29-.8-.46-1.16-.17-.37-.42-.69-.58-1.05-.16-.36-.17-.76-.35-1.12-.17-.36-.38-.71-.58-1.04-.2-.34-.41-.69-.65-1-.23-.32-.58-.57-.83-.86-.27-.28-.54-.56-.83-.82-.29-.26-.5-.6-.82-.83-.32-.23-.62-.46-.96-.67-.34-.21-.73-.36-1.08-.55-.35-.19-.74-.31-1.1-.49-.36-.17-.71-.37-1.08-.51-.36-.15-.76-.32-1.12-.47-.38-.14-.74-.25-1.12-.35-.38-.12-.77-.24-1.15-.36-.38-.12-.75-.29-1.14-.37-.39-.09-.81-.05-1.2-.14-.39-.1-.79-.18-1.18-.25-.4-.07-.77-.23-1.16-.3-.4-.07-.79-.12-1.19-.17-.39-.07-.81-.14-1.18-.21-.4-.04-.8-.09-1.19-.13-.4-.04-.8-.14-1.19-.18-.4-.05-.79-.1-1.17-.15-.4-.04-.86.11-1.25.08-.4-.03-.77-.19-1.16-.22-.4-.03-.81,0-1.21-.02-.4,0-.78.06-1.18.06-.4,0-.82-.1-1.22-.1-.39.01-.81.02-1.2.03-.4,0-.81.02-1.2.03-.4,0-.81-.12-1.21-.12-.4,0-.79.18-1.19.19-.4,0-.83-.11-1.23-.1-.4.02-.79.1-1.2.12-.4.01-.8,0-1.21.02-.4.03-.81.06-1.21.09-.4.02-.81,0-1.21.03-.4.03-.81.13-1.21.15-.4.03-.78-.04-1.19,0-.4.04-.82.09-1.22.13-.4.04-.79.11-1.19.16-.4.04-.81,0-1.21.03-.4.05-.8.1-1.2.15-.4.05-.73.22-1.13.28-.4.06-.92-.03-1.33.02-.4.05-.76.1-1.17.14-.41.01-.79.05-1.21.04-.41-.01-.9.02-1.31-.01-.41-.08-.76-.21-1.17-.3-.41-.08-.86-.22-1.26-.34-.39-.12-.75-.17-1.13-.3-.38-.13-.72-.35-1.09-.45-.37-.12-.71-.16-1.09-.21-.19-.01-.39-.01-.59,0-.2.02-.4.05-.59.06-.39,0-.78.13-1.17.18-.39.07-.78.18-1.16.29-.38.1-.77.23-1.15.36-.22.07-.43.14-.65.22l-.16-.31s-.02,0-.06.07c-.02.03-.02.05-.05.1-.02.05-.04.1-.03.08,0,0-.03,0-.06-.01-.06,0-.14,0-.21,0-.19,0-.38.04-.57.07-.03.02-.05.02-.06.04,0,.02,0,0-.02.04l-.09.12c-.25.32-.57.58-.83.9-.24.32-.49.65-.73.97-.26.31-.53.54-.8.85l-.78.93c-.26.31-.53.67-.79.98-.26.31-.4.67-.65,1-.22.31-.46.65-.68.96-.25.32-.62.62-.87.93-.24.32-.49.65-.74.96-.25.29-.54.62-.79.91-.25.31-.55.6-.8.92-.25.32-.51.65-.76.97-.24.32-.37.69-.61,1.02l-.73.97c-.24.32-.53.53-.78.85-.25.31-.47.79-.72,1.1-.24.32-.57.53-.8.86-.23.33-.32.74-.54,1.07-.22.33-.44.67-.64,1.02-.2.34-.54.62-.73.97-.19.35-.28.74-.44,1.1-.16.36-.26.71-.41,1.08-.16.37-.34.78-.5,1.15-.16.36-.33.76-.49,1.13-.16.37-.39.6-.55.97-.16.37-.24.85-.38,1.22-.14.38-.35.72-.49,1.1-.14.38-.24.78-.38,1.15-.14.38-.2.78-.34,1.16-.14.38-.43.71-.57,1.09-.13.38-.18.79-.31,1.17s-.35.73-.49,1.11c-.13.38-.27.82-.39,1.21-.12.38-.11.72-.23,1.11-.12.39-.36.76-.49,1.14-.13.38-.19.79-.33,1.17-.14.38-.32.73-.46,1.11s-.15.81-.29,1.19c-.14.38-.29.8-.42,1.18-.14.38-.39.66-.53,1.03-.14.38-.21.8-.34,1.18-.14.38-.38.72-.51,1.1-.14.38-.23.78-.37,1.16l-.42,1.14c-.14.38-.36.75-.5,1.13l-.41,1.14c-.14.38-.18.78-.32,1.15-.15.38-.35.74-.5,1.11-.15.38-.19.78-.35,1.15s-.37.73-.53,1.11c-.16.37-.26.77-.43,1.14-.17.37-.36.73-.54,1.1-.19.37-.46.69-.68,1.04-.23.35-.44.7-.81,1.02-.13.14-.51.37-.82.27-.13-.06-.27-.12-.39-.17-.13-.05-.24-.12-.32-.22-.37-.32-.63-.69-.83-1.08-.08-.2-.16-.4-.24-.61-.06-.21-.11-.42-.17-.62-.13-.4-.19-.81-.29-1.22-.07-.41-.04-.82-.1-1.22-.04-.41-.02-.82-.06-1.23l-.06-1.22-.03-1.22c-.01-.41-.1-.82-.1-1.22,0-.41,0-.81.02-1.22.02-.41.14-.8.16-1.21.02-.4-.04-.81-.03-1.21.02-.41.1-.82.13-1.22.02-.4-.01-.81.02-1.21.04-.4.02-.8.05-1.2.04-.4.14-.81.18-1.21.04-.4.19-.8.24-1.2.05-.4-.05-.81,0-1.21.04-.4.14-.81.18-1.21.05-.4.16-.8.22-1.2.06-.4-.02-.86.04-1.26l.21-1.19c.07-.4.18-.76.24-1.16.07-.4.19-.79.26-1.19l.21-1.2c.07-.4.05-.82.12-1.22.08-.4.15-.78.23-1.18.07-.4.24-.83.31-1.22.07-.4.09-.78.17-1.18.08-.4.17-.79.25-1.19l.24-1.2c.09-.4.14-.8.22-1.19.1-.39.2-.79.3-1.18.09-.39.12-.81.22-1.2.1-.39.21-.78.32-1.17.11-.39.22-.79.32-1.18.1-.39.28-.75.38-1.14.1-.39.26-.77.37-1.17.11-.39.11-.81.23-1.2.09-.38.2-.8.29-1.18.12-.39.36-.74.48-1.13.12-.39.22-.77.34-1.16.13-.38.24-.79.38-1.17.15-.36.31-.77.46-1.13.14-.38.23-.78.35-1.17.14-.38.38-.8.52-1.18.14-.38.14-.75.31-1.12.16-.38.41-.68.6-1.04.19-.36.35-.79.55-1.14.21-.34.43-.7.63-1.03.19-.36.36-.74.56-1.09.22-.34.42-.7.65-1.04.23-.34.43-.7.68-1.03.23-.34.64-.53.9-.85.28-.3.53-.64.82-.92.3-.28.58-.59.89-.85.31-.27.67-.51.98-.77.31-.27.6-.54.92-.79.32-.26.64-.49.96-.73.33-.24.58-.54.91-.78l1-.69c.34-.23.79-.33,1.13-.55.35-.21.64-.51.99-.72.17-.1.34-.22.5-.34.1-.07.11-.1.3-.2.1-.04.19-.08.29-.12.38-.13.79-.27,1.17-.4.38-.14.76-.13,1.14-.26.19-.06.4-.17.61-.28.19-.1.5-.24.45-.22.02-.02-.01.03.02-.01.03-.03.06-.07.1-.11.06-.06.14-.13.21-.2.14-.13.28-.26.39-.43.22-.34.4-.71.62-1.06.23-.34.34-.75.61-1.08.26-.33.62-.56.91-.85.27-.31.49-.63.77-.93.28-.3.51-.58.8-.87.29-.29.68-.58.99-.85.31-.27.73-.39,1.04-.64.32-.25.6-.56.93-.8.33-.24.65-.5.99-.72.34-.23.7-.36,1.04-.58.35-.2.7-.52,1.05-.72.36-.21.69-.4,1.04-.6.35-.21.69-.42,1.06-.61.37-.18.77-.3,1.14-.46.37-.17.77-.27,1.14-.44.38-.16.76-.36,1.14-.52.37-.17.77-.28,1.15-.41.39-.14.73-.36,1.14-.44.41-.08.81-.09,1.22-.13.41-.04.88-.18,1.29-.2.41,0,.79.01,1.19.02.42.02.85.08,1.26.13.41.03.81.04,1.21.11.41.05.81.08,1.21.18.4.09.84.15,1.23.27.4.11.78.25,1.17.37.39.13.7.37,1.09.5.37.14.77.29,1.14.43.38.13.79.19,1.17.31.38.13.77.22,1.15.34.38.12.77.36,1.16.46.39.1.73.05,1.12.13.39.09.81.21,1.2.28.39.09.82.13,1.21.19.39.08.78.1,1.17.14.39.05.75.02,1.15.03.4.01.82.11,1.21.1.4-.02.79-.08,1.19-.11.4-.04.79-.08,1.18-.12l1.2-.16c.4-.04.78-.02,1.18-.06.41-.05.83-.1,1.23-.14.44-.06.86-.16,1.28-.21.43-.05.86-.1,1.27-.15.44-.04.89.02,1.3,0,.44,0,.88-.13,1.31-.12.45.04.88.13,1.3.19.45.08.88.15,1.28.26.44.12.85.21,1.24.38.42.16.87.26,1.25.45.41.19.82.34,1.19.55.39.22.73.52,1.09.73.38.22.75.43,1.1.63.37.22.71.47,1.07.66.38.21.86.33,1.23.51.37.19.66.41,1.04.58.38.17.8.27,1.2.42.39.14.75.27,1.17.39.39.12.82.34,1.24.46.4.11.83.12,1.25.24.4.11.82.22,1.24.34.4.11.77.28,1.2.41.38.12.8.26,1.21.39.4.12.74.29,1.15.43.39.13.91.17,1.32.32.39.14.72.37,1.13.52.39.14.82.17,1.24.31.39.15.79.38,1.2.54.39.15.75.39,1.15.57.4.17.82.29,1.19.47.4.19.77.38,1.12.58.39.21.71.5,1.04.73.36.25.71.5,1.02.76.34.28.73.47,1.02.76.32.3.69.54.97.84.29.33.6.64.86.96.24.35.48.7.72,1.04l.66,1.08c.21.36.28.77.45,1.15.15.38.28.77.41,1.18.12.39.25.79.36,1.21.1.39.2.79.29,1.22.08.39.16.81.23,1.24.06.4.18.82.24,1.25.04.25.1,1.06.08,1.05-.02-.01-.11-.85-.15-1.07,0-.02.1.35.1.24Z"/>
    </g>
    <circle class="cls-2" cx="122.48" cy="119.37" r="3.29"/>
    <circle class="cls-2" cx="74.59" cy="119.37" r="3.29"/>
  </g>
  <path id="stroke" class="cls-5" d="M178.47,126.9c-3.2-8.54-13.08-8.71-20.98-5.34-.07-.87-.17-1.74-.29-2.61.03.04.06.09.08.13-.77-17.96-2.48-35.89-5.12-53.67-.41-2.75-.85-5.54-2.13-8.01-3.54-6.79-12-8.96-19.38-11-2.48-.69-4.96-1.44-7.22-2.67-1.66-.9-3.19-2.06-4.95-2.77-5.87-2.39-12.53.6-18.83-.06-5.78-.61-11.11-4.31-16.9-3.82-7.42.62-16.31,7.68-18.63,10.81-.79,1.06-1.38,1.99-1.86,2.82-1.5.55-2.87,1.05-3.77,1.38,0,0-7.02,3.86-9.94,7.72-2.92,3.87-4.72,8.46-6.18,13.08-4.95,15.59-9.46,46.46-4.23,48.14.2.07.46-.11.75-.46l-.36.98c-5.52-2.85-11.34-2.06-14.74,3.14-1.64,2.57-2.58,5.47-2.94,8.41-.04.37-.11.74-.19,1.12v3.12c.09.48.15.93.2,1.34-.27,4.37,1.71,8.65,3.96,12.32.8,1.3,4.22,6.25,5.32,6.67,0,0,33.94,13.03,68.52,13.3,34.59.27,65.73-13.66,65.73-13.66,7.55-4.91,14.74-13.41,15.19-22.61.14-2.76-.16-5.29-1.11-7.81Z"/>
</svg>