<?xml version="1.0" encoding="UTF-8"?>
<svg id="Layer_1" data-name="Layer 1" xmlns="http://www.w3.org/2000/svg" viewBox="0 0 200 200">
  <defs>
    <style>
      .cls-1 {
        fill: #ffc0c4;
      }

      .cls-2 {
        fill: #8973ff;
      }

      .cls-3 {
        fill: #f7f;
      }

      .cls-4 {
        fill: #ffa3b0;
      }

      .cls-5 {
        fill: #5e0015;
      }

      .cls-6 {
        fill: #ffd2d4;
      }

      .cls-7 {
        fill: none;
        stroke: #f7f;
        stroke-miterlimit: 10;
        stroke-width: 1.73px;
      }

      .cls-8 {
        fill: #ffbbc1;
      }

      .cls-9 {
        fill: #fdf186;
      }
    </style>
  </defs>
  <path class="cls-6" d="M164.37,159.44c7.56-4.92,14.76-13.43,15.21-22.65.14-2.77-.16-5.3-1.11-7.83-3.21-8.56-13.1-8.72-21.02-5.34-.58-6.97-2.89-13.81-4.84-20.52l-5.49-17.05c-2.23-6.91-5.87-13.13-10.5-18.65-8.44-10.07-20.36-16.03-33.43-17.02-6.66-.5-13.08.56-19.24,3.28-11.21,4.96-20.38,14.05-26.9,24.36-2.92,4.62-5.52,9.27-7.41,14.45l-11.36,31.16c-5.53-2.85-11.36-2.06-14.76,3.15-1.64,2.57-2.59,5.48-2.94,8.43-.04.37-.11.74-.19,1.12v3.12c.09.48.15.93.2,1.34-.27,4.38,1.71,8.66,3.97,12.34.8,1.3,4.22,6.26,5.33,6.68,0,0,32.43,7.03,67.08,7.29,34.65.27,67.41-7.66,67.41-7.66Z"/>
  <g id="stroke">
    <path class="cls-7" d="M164.37,159.44c9.8-6.24,18.53-18.67,14.1-30.48-3.2-8.56-13.1-8.72-21.02-5.34-.57-6.97-2.89-13.81-4.84-20.52,0,0-5.49-17.05-5.49-17.05-2.23-6.91-5.87-13.13-10.5-18.65-12.4-14.94-34.55-21.76-52.67-13.74-16.21,7.29-27.87,22.54-34.3,38.81,0,0-11.36,31.16-11.36,31.16-11.84-5.96-18.43,5.23-17.9,15.82.09.48.15.93.2,1.34-.27,4.38,1.71,8.66,3.97,12.34.8,1.3,4.22,6.26,5.33,6.68,39.75,8.98,94.64,9.82,134.49-.37h0Z"/>
  </g>
  <path class="cls-8" d="M104.18,105.49c-.78,2.79-.65,5.74-.37,8.62.43,4.41,1.22,8.88,3.26,12.81,1.56,3.01,3.81,5.61,6.13,8.08,2.25,2.4,4.6,4.71,7.27,6.63,1.54,1.11,3.21,2.09,5.04,2.59,1.85.5,3.8.5,5.7.21,2.36-.36,4.66-1.15,6.73-2.33,1.61-.91,3.15-2.14,3.82-3.86.57-1.48.42-3.12.27-4.7-.29-2.97-.68-6.16-2.67-8.39-.92-1.03-2.12-1.78-3.3-2.5-8.62-5.28-17.59-10.59-27.59-12.01"/>
  <path class="cls-8" d="M87.99,112.86c3.19,4.9,3.01,11.49.52,16.77-2.5,5.29-7.02,9.38-11.99,12.46-3.37,2.08-7.16,3.8-11.12,3.66-4.31-.15-8.42-2.64-10.7-6.29-.71-1.13-1.26-2.39-1.4-3.73-.14-1.38.16-2.77.5-4.12.62-2.49,1.37-4.96,2.59-7.22,2.44-4.48,6.57-7.74,10.64-10.82,1.8-1.36,3.64-2.73,5.78-3.46,2.82-.97,6.04-.7,8.66.72"/>
  <path class="cls-3" d="M56.16,93.54c-.27-.06-.69-.03-.95-.07-.27-.04-.53,0-.79-.01-.27-.02-.55-.15-.81-.15-.27,0-.52-.01-.79,0-.27,0-.54.02-.8.05-.27.02-.55.06-.81.11-.27.05-.5.16-.76.22-.26.06-.53.1-.78.17-.26.08-.52.15-.77.22-.26.08-.55.1-.8.19-.25.1-.46.24-.7.34-.25.1-.52.17-.76.26-.25.1-.52.19-.76.3-.24.11-.44.28-.67.4-.24.12-.44.28-.67.41-.23.13-.52.19-.74.33-.23.14-.44.3-.65.45-.22.15-.46.27-.67.43-.22.16-.35.41-.57.57-.21.15-.44.31-.65.46-.2.17-.4.33-.61.5-.2.17-.4.33-.6.51-.19.17-.39.36-.58.54-.2.17-.48.28-.68.46-.19.17-.39.34-.59.51-.2.18-.33.44-.52.63-.19.18-.34.4-.53.59-.18.19-.46.3-.65.5-.18.19-.34.4-.52.6-.18.19-.4.35-.58.55-.18.19-.36.37-.55.57-.18.18-.38.38-.56.57-.18.19-.26.49-.44.69-.18.19-.35.36-.53.57l-.15.17-.48-.38c.11-.16.22-.32.34-.49.14-.22.28-.47.43-.69.15-.22.37-.35.54-.56.17-.2.35-.41.52-.61.17-.2.27-.51.44-.73.16-.21.46-.38.62-.6.15-.21.16-.45.32-.66.16-.21.33-.46.51-.67.17-.2.36-.41.54-.62.17-.19.37-.39.55-.59.18-.2.4-.34.58-.55.17-.2.29-.47.48-.67.18-.19.42-.31.61-.5.18-.19.3-.46.49-.66.18-.19.44-.32.62-.51.18-.19.32-.45.51-.64.19-.19.38-.37.57-.56.19-.19.4-.34.58-.54.18-.19.43-.37.62-.56.19-.19.35-.37.54-.55.19-.18.37-.38.57-.56.2-.18.44-.31.63-.49.2-.18.34-.42.54-.6.2-.17.35-.4.55-.58.2-.17.5-.25.7-.41.19-.17.4-.37.59-.54.2-.17.41-.35.61-.52.1-.08.2-.18.29-.27.05-.05.1-.1.14-.14.05-.04.02-.03.04-.05l.12-.09.17-.11c.12-.06.22-.14.14-.14-.1.01-.26.07-.35.09l-.45.12c-.25.07-.49.2-.74.28-.25.08-.54.05-.79.13-.25.07-.54.12-.79.21-.24.09-.5.19-.74.28-.25.09-.43.32-.67.41-.25.09-.52.14-.77.23l-.74.32c-.24.1-.5.11-.73.23-.24.11-.45.26-.68.38-.23.12-.54.19-.76.32-.23.13-.38.36-.61.48-.23.12-.48.21-.71.34-.21.13-.45.29-.66.42-.22.14-.48.23-.7.37-.22.14-.47.24-.69.39-.22.15-.39.36-.6.51-.22.15-.43.3-.65.46-.21.16-.46.19-.68.34-.22.14-.42.38-.63.53-.21.16-.45.3-.65.47-.2.17-.37.38-.56.56-.19.18-.33.37-.51.56-.18.19-.47.31-.67.49-.11.11-.14.15-.3.33-.14.16-.29.33-.45.48-.28.26-.61.55-.89.81-.22.29-.1-.12-.07-.31.04-.23.07-.44.1-.63.06-.36.02-.72.17-1.18.07-.26.18-.51.27-.77.11-.25.12-.54.23-.78.11-.25.2-.45.31-.71.1-.25.34-.51.45-.76.12-.24.21-.46.35-.7.13-.23.18-.54.32-.77.15-.23.32-.42.47-.65.15-.23.29-.44.43-.67.15-.22.32-.46.49-.68.16-.21.38-.31.55-.52.16-.21.25-.52.41-.73.16-.22.41-.36.57-.57.16-.21.24-.49.4-.7.17-.21.43-.34.61-.55.17-.2.29-.45.47-.66.18-.2.32-.42.51-.62.18-.19.37-.4.54-.6.19-.19.37-.37.56-.56l.55-.58c.18-.19.4-.36.59-.55l.56-.57.56-.57c.19-.19.46-.29.65-.47.2-.18.31-.48.52-.66.2-.18.45-.23.65-.4.21-.18.42-.36.63-.53.2-.18.29-.43.49-.61.2-.18.48-.31.68-.49.21-.17.43-.31.65-.48.22-.16.37-.41.59-.56.22-.15.52-.19.74-.34.22-.15.39-.39.62-.53.23-.14.5-.22.73-.36.23-.14.49-.23.72-.37.24-.13.47-.24.72-.35.24-.11.47-.38.72-.48.25-.11.5-.17.76-.26.26-.09.53-.03.78-.13.26-.08.48-.25.74-.33.26-.08.49-.21.76-.26.26-.06.55-.09.81-.15.26-.06.54-.13.81-.17.27-.03.53.06.8.06.26,0,.55,0,.82,0,.27-.02.54-.07.81-.05.27.02.54,0,.81.02.27.04.55.03.82.08.16.03.31.07.47.11l-.12.65c-.1-.02-.21-.03-.31-.04-.26-.02-.55-.08-.81-.1-.27-.02-.52-.04-.78-.06-.26-.02-.57.05-.83.02-.26-.03-.45-.18-.72-.19-.27-.01-.55-.03-.82-.04-.27,0-.55,0-.81,0-.26,0-.5.09-.76.1-.26,0-.54-.02-.8,0l-.79.02c-.26,0-.51-.07-.78-.05-.26.02-.54.14-.8.16-.26.02-.53.02-.79.05-.26.03-.52.11-.78.14-.26.03-.54-.08-.81-.03-.26.04-.51.12-.77.16-.26.04-.53.05-.78.11-.25.06-.53.12-.78.18-.26.05-.55.05-.81.11-.26.06-.48.2-.73.26-.26.06-.53.06-.78.13-.26.07-.5.24-.76.3-.25.06-.51,0-.77.08-.25.07-.49.25-.74.33-.25.08-.52.1-.77.19-.25.09-.52.1-.77.19-.25.09-.5.17-.74.27-.25.1-.46.3-.71.39-.25.09-.5.15-.75.26l-.72.32c-.27.12-.49.07-.88.27-.35.18-.71.36-1.07.53-.18.09-.38.2-.58.31-.09.05-.23.13-.29.14.05-.09.09-.17.13-.25.19-.35.29-.66.52-1.06.22-.38.5-.82.66-1.07.16-.22.29-.46.44-.68.16-.22.4-.37.56-.59.18-.2.25-.51.42-.72l.53-.61c.18-.2.46-.31.65-.5l.59-.56c.19-.19.35-.43.55-.6.21-.17.47-.28.68-.46.2-.18.41-.34.63-.5.22-.15.5-.24.73-.39.22-.15.44-.32.68-.44.23-.11.5-.24.73-.35.24-.13.41-.38.67-.47.25-.11.53-.11.78-.21.25-.09.5-.23.76-.3.26-.07.51-.2.76-.29.26-.08.53-.1.79-.18.25-.05.54-.1.8-.15l.78-.18c.24-.05.56-.12.8-.17.27-.04.55-.04.81-.08.27-.04.52-.1.79-.12.27-.01.56-.1.83-.11.27-.02.54.03.81.04.27.02.52.11.79.12.27,0,.52-.06.79-.03.27.02.57.11.84.13.27.02.55-.02.81.06.27.07.47.26.73.33.26.08.57.08.82.19.15.06.3.13.45.19.05.02.08.02.11.03.04,0,.06,0,.01-.05-.04-.06-.02-.11-.08-.21-.05-.08-.1-.17-.16-.26-.07-.11-.14-.23-.19-.35-.12-.24-.22-.49-.33-.74-.11-.24-.18-.52-.29-.76-.1-.25-.35-.43-.45-.68-.11-.25-.09-.53-.18-.79-.08-.25-.11-.5-.19-.76-.07-.26-.21-.53-.3-.78-.09-.25-.25-.44-.33-.7-.08-.25-.16-.52-.23-.78-.08-.26-.18-.54-.24-.8-.06-.26-.08-.54-.14-.8-.06-.26-.15-.52-.19-.79l-.12-.79c-.04-.27-.03-.54-.07-.8-.05-.26-.11-.52-.15-.79-.03-.27-.06-.54-.08-.81-.01-.26-.03-.55-.04-.81-.01-.27.05-.51.05-.78,0-.27-.05-.56-.05-.82,0-.27-.07-.52-.08-.79,0-.27.09-.58.09-.84,0-.09,0-.18-.02-.27l-.28-3.01.9,2.97c.05.16.1.31.13.48.04.26.07.5.12.76.04.26.07.5.13.75.06.26.22.51.31.75.09.25.17.46.3.69.12.23.2.5.33.73.13.23.3.44.43.66.13.22.25.48.38.69.14.22.26.45.4.66.15.21.19.49.34.7.16.21.45.37.6.57.14.19.32.42.46.61.17.19.35.36.53.54.19.18.38.34.58.51.19.17.37.39.57.55.2.17.48.23.68.39.05.04.1.08.15.12.04.03.02.03.04.06.02.04.07.08.1.1.1.1,0-.16,0-.24,0-.04-.02-.09-.02-.14,0-.03,0-.02-.01-.08,0-.07,0-.14-.01-.2,0-.26,0-.55,0-.81,0-.27.1-.52.09-.79-.01-.27-.02-.54-.03-.81,0-.27-.04-.54-.03-.8,0-.27-.05-.55-.05-.81,0-.27.05-.52.06-.78,0-.27.12-.59.12-.85,0-.25-.01-.54-.02-.79,0-.27,0-.49.02-.76.02-.27.02-.52.05-.78.04-.25.08-.53.11-.78.03-.27.06-.56.09-.82.03-.27-.04-.53-.02-.79.03-.27.05-.53.08-.8.02-.27.03-.55.07-.81.04-.24.1-.51.14-.77.04-.25.07-.51.11-.78.04-.25.09-.51.13-.78.04-.25.11-.51.17-.77.06-.25.12-.51.18-.76.06-.25.09-.52.17-.79.07-.26.17-.53.29-.78.12-.25.26-.48.43-.71.19-.24.32-.4.65-.64.17-.11.32-.22.49-.3.09-.05.18-.09.27-.14l.15-.07c.05-.02.03.07.05.1.03.19.07.39.06.66,0,.12,0,.24,0,.35,0,.07,0,.14.01.2.02.25.16.48.19.74.03.25-.01.51.03.77.05.24.1.51.15.76.03.25,0,.52.05.78.06.25.18.5.24.75.05.25.05.48.1.74.05.25.08.53.16.78.08.24.17.48.26.73l.26.73c.08.24.2.48.29.72.1.24.24.46.37.68.12.23.19.52.31.75.12.23.37.34.49.57.12.22.16.5.29.72.12.22.32.43.44.66.12.22.26.42.4.63.14.21.19.49.35.69l.47.62c.15.21.29.43.45.63.16.2.34.41.52.59.17.19.39.32.56.51.08.1.19.18.29.26.07.05.06.02.08.05,0-.01.13.34.15.18.01-.05.02-.11.02-.16v-.08s.04-.2.04-.2c.05-.26.15-.51.21-.76.05-.26.05-.52.11-.78.05-.26.17-.48.23-.74.07-.25.07-.54.13-.79.06-.26.16-.52.21-.77.06-.26,0-.48.07-.74.07-.26.14-.56.22-.81.08-.25.3-.43.39-.68.09-.25.05-.59.14-.83.09-.25.26-.44.36-.68.09-.25.09-.51.18-.75.09-.25.28-.48.38-.72.1-.25.15-.5.25-.74.1-.25.18-.49.28-.73.11-.24.21-.48.32-.72.11-.24.29-.46.4-.69.12-.24.23-.48.35-.71.13-.23.26-.46.38-.69.13-.23.19-.5.32-.72.13-.23.32-.44.46-.66.14-.23.32-.38.47-.59.15-.22.21-.51.35-.73.14-.23.32-.43.47-.64.15-.22.37-.37.51-.58.15-.22.3-.45.44-.66.16-.22.36-.43.51-.64.19-.26.38-.64.62-.96.12-.17.26-.36.39-.54.07-.1.13-.19.2-.28l.1-.13s.02-.01.02.02v.08c0,.46-.08.98-.09,1.35,0,.39-.02.81-.01,1.01,0,.26.09.54.1.79,0,.27.08.49.11.74.04.26,0,.56.03.8.05.26.21.49.25.73.05.26,0,.53.05.77.06.26.19.51.25.75.06.26.04.51.11.75.08.26.16.5.23.74.08.26.19.48.28.72.1.25.27.47.36.7.1.24.08.5.17.73.1.24.2.49.31.71.11.23.25.45.37.68.11.23.16.49.3.72.13.22.3.41.43.64.12.22.35.39.49.62.12.2.26.44.39.65.15.2.26.43.42.64.15.2.33.4.51.6.16.19.33.39.51.59.15.2.31.39.49.59.17.18.34.37.51.57.17.18.28.4.47.59.18.17.47.31.66.48.19.16.29.4.5.57.13.11.47.27.45.28-.02,0-.3-.2-.41-.29-.21-.16-.41-.32-.61-.47-.21-.17-.36-.45-.55-.61-.2-.18-.46-.23-.64-.41-.19-.19-.28-.5-.45-.68-.19-.19-.47-.27-.63-.46-.18-.21-.27-.48-.44-.67-.18-.2-.37-.37-.53-.56-.17-.22-.33-.42-.48-.62-.16-.22-.29-.44-.44-.65-.15-.23-.3-.46-.44-.68-.15-.22-.32-.38-.45-.59-.15-.22-.24-.48-.36-.7-.12-.23-.29-.44-.4-.67-.12-.23-.14-.49-.24-.73-.1-.24-.27-.47-.38-.72-.09-.24-.22-.45-.32-.7-.09-.24-.17-.5-.25-.76-.08-.24-.19-.48-.27-.74-.08-.24-.08-.52-.15-.78-.06-.24-.21-.46-.28-.72-.07-.24-.11-.51-.17-.78-.05-.25-.02-.53-.07-.79-.04-.25-.12-.49-.16-.76-.03-.25-.07-.52-.08-.79-.02-.25.06-.51.05-.78,0-.11-.03-.3-.04-.35-.01-.07-.02-.12-.02-.19,0-.12.02-.3.02-.44,0-.06-.02-.01-.04,0l-.06.06-.14.15c-.05.06-.1.16-.13.25-.05.11-.02.1-.12.24-.16.21-.4.35-.55.57-.15.21-.19.5-.33.73-.14.22-.39.37-.54.59-.15.22-.3.43-.44.66-.14.22-.18.5-.32.73-.14.22-.27.45-.41.68-.13.23-.31.43-.45.66-.13.23-.18.47-.29.71-.11.23-.28.48-.39.72-.1.24-.22.47-.34.71-.12.23-.23.45-.36.7l-.37.7c-.13.23-.31.44-.41.69-.1.24-.22.54-.31.79-.09.24-.09.48-.17.73-.08.25-.21.47-.31.72-.09.25-.11.51-.21.76-.09.25-.15.52-.24.77-.08.25-.22.47-.3.72-.07.25-.14.51-.21.77-.08.25-.2.47-.27.73-.08.25-.1.53-.16.79-.06.26-.04.5-.09.76-.06.25-.19.54-.23.79-.04.26-.13.51-.18.76-.05.29-.1.57-.15.86-.04.19-.07.39-.11.59l-.06.28-.03.14s-.07-.07-.1-.1c-.14-.14-.26-.22-.43-.33-.15-.1-.37-.28-.5-.41-.19-.19-.32-.44-.5-.63-.18-.2-.37-.38-.55-.59-.18-.2-.31-.44-.48-.65-.17-.2-.4-.37-.56-.59-.16-.22-.3-.45-.44-.68-.13-.22-.28-.47-.42-.69-.15-.22-.33-.43-.47-.66-.14-.23-.16-.52-.28-.75-.12-.24-.37-.42-.5-.65l-.36-.71c-.12-.24-.16-.53-.26-.78-.1-.25-.2-.5-.29-.75-.09-.25-.24-.51-.32-.77-.08-.25-.18-.52-.24-.78-.07-.26-.02-.51-.1-.77-.06-.26-.13-.53-.2-.79-.08-.26-.24-.47-.3-.73-.06-.26,0-.56-.05-.82l-.14-.79c-.05-.26-.05-.53-.08-.8-.02-.27-.13-.53-.14-.8,0-.11-.04-.33-.06-.33-.02-.04-.04-.05-.04-.08.03-.1-.07-.07-.14-.04-.02.01-.03.02-.06.05-.04.04-.08.08-.12.13-.08.09-.14.18-.21.28-.14.19-.33.38-.43.61-.1.23-.12.49-.19.73-.07.25-.14.5-.19.75-.05.26-.07.5-.1.76-.04.26-.12.54-.15.8-.03.26.01.54-.03.8-.04.26-.22.48-.27.74-.04.27-.08.53-.11.79-.05.26-.09.53-.12.79-.03.26.02.55-.01.81l-.1.78c-.03.26-.17.5-.2.76l-.09.77c-.02.26.01.54,0,.8-.02.26.02.53.01.8-.01.27-.05.53-.05.79,0,.26-.05.54-.05.8,0,.25.02.54.03.78,0,.27,0,.53-.01.79,0,.27-.04.53-.04.79,0,.27.13.53.14.79.01.27.02.54.03.8.01.27-.05.53-.04.79.03.38.07.79.1,1.15.01.21.02.41.02.6,0,.02,0,.06,0,.06l-.07-.05-.15-.1c-.1-.06-.19-.12-.28-.18-.35-.22-.81-.48-.96-.6-.22-.16-.41-.36-.61-.53-.21-.18-.4-.35-.59-.53-.2-.19-.53-.27-.72-.46-.19-.2-.29-.46-.46-.65-.18-.19-.38-.4-.56-.59-.17-.21-.39-.36-.56-.57-.16-.22-.28-.49-.43-.71-.15-.22-.32-.43-.47-.66-.14-.23-.29-.46-.43-.69-.14-.23-.14-.54-.26-.78-.12-.24-.35-.42-.47-.67-.12-.25-.09-.57-.18-.82-.1-.25-.23-.49-.31-.75-.08-.26-.12-.53-.18-.79-.07-.26-.15-.52-.19-.79-.03-.16-.04-.31-.06-.47l.6-.03c-.01.11-.02.22-.02.33,0,.26.05.53.04.8,0,.26-.07.51-.08.77,0,.26.03.54.05.8.01.26.06.52.08.78.02.26-.04.53-.02.8.02.26.08.52.11.79.03.26.17.47.23.73.05.26-.03.61.02.87.06.26.12.48.16.74.05.25.1.49.16.76.05.26.16.55.22.81.05.26.02.51.08.77.06.26.14.55.23.8.09.25.22.44.32.69.09.25.12.52.2.77.09.25.16.47.25.72.08.25.22.5.31.75.09.25.2.49.31.74.11.24.22.48.33.73.11.24.22.49.34.72.06.12.12.23.17.35l.09.18.16.29c.2.38.52.84.76,1.28.03.05.05.1.08.16.03.04-.01.02-.05,0l-.09-.04c-.12-.05-.25-.11-.38-.17-.25-.11-.47-.21-.68-.29-.2-.06-.4-.13-.62-.2-.14-.04-.28-.09-.41-.13-.24-.1-.45-.19-.71-.27-.25-.07-.5-.14-.76-.21-.25-.08-.54-.11-.8-.14-.26-.04-.51.03-.77,0-.26-.03-.5-.01-.76,0-.26,0-.55-.1-.82-.12-.26,0-.52,0-.78.02-.26.01-.52-.02-.78,0-.26.02-.53-.04-.79,0-.26.04-.53.08-.79.12-.26.04-.48.18-.74.23l-.76.18c-.25.06-.49.03-.75.07-.25.05-.55.25-.8.31-.25.07-.52.01-.77.1-.25.08-.43.32-.67.42l-.72.32c-.24.1-.53.13-.76.25-.23.12-.41.34-.63.47-.23.13-.4.29-.61.45-.21.15-.47.3-.68.44-.22.14-.46.28-.67.44-.21.15-.44.18-.65.34-.21.16-.41.4-.59.59-.19.18-.42.31-.61.49-.19.18-.36.38-.53.58-.17.2-.29.44-.46.64-.17.2-.46.3-.62.51-.15.22-.23.48-.38.69-.15.21-.37.38-.52.6-.12.19-.16.32-.22.45-.06.14.1.07.1.1,0,.01-.02.04-.05.07v.03s.02.04.07.01c.12-.06.25-.2.3-.22.08-.02.16-.05.25-.08.13-.04.25-.08.38-.13.25-.1.45-.31.7-.42.25-.11.53-.21.78-.3.25-.09.51-.06.76-.15.25-.09.49-.24.74-.33.25-.09.54-.08.79-.17.25-.09.5-.2.76-.28l.77-.23c.25-.08.55-.08.8-.15l.77-.22c.26-.08.48-.22.74-.28.26-.06.54-.07.8-.13.26-.06.5-.2.76-.25.26-.05.54-.05.81-.1.26-.05.52-.15.78-.19l.8-.11c.26-.04.54.01.81-.02l.8-.08c.27-.03.53-.11.8-.13.27-.02.53-.08.8-.1.27-.02.54,0,.81,0l.8-.04c.27-.01.53.06.8.06.27,0,.54.05.8.05.27,0,.53,0,.8.02l.8.02c.27,0,.54-.07.81-.05l.8.05c.27.02.52.15.79.18s.54-.02.8,0c.1,0,.2.03.3.04l-.11.63c-.16-.04-.32-.08-.48-.11-.26-.04-.52-.02-.77-.07-.26-.02-.51.01-.77,0-.26-.02-.52-.09-.78-.07-.26.01-.52-.08-.79-.07-.26,0-.5.18-.75.22-.25.04-.53.02-.78.09-.25.06-.52.06-.78.11-.26.05-.5.26-.75.33-.25.07-.5.13-.75.21-.24.09-.48.13-.73.23-.24.09-.51.13-.74.25l-.72.33c-.24.11-.43.32-.66.44-.23.13-.46.23-.68.37-.22.14-.51.22-.73.37-.22.14-.4.31-.62.46l-.65.44c-.22.14-.42.32-.64.47-.21.16-.4.34-.61.5-.2.15-.43.32-.63.48-.21.16-.38.38-.58.55-.2.16-.41.33-.61.49-.2.17-.41.35-.6.52-.19.18-.43.3-.62.48-.19.18-.41.34-.6.53-.19.19-.31.44-.5.63-.19.19-.34.41-.53.6s-.46.3-.65.49c-.19.19-.35.39-.55.58l-.56.58c-.19.19-.4.35-.59.54-.18.19-.32.42-.49.63-.17.2-.42.39-.58.6-.16.21-.2.46-.36.67-.16.21-.38.35-.55.55-.17.2-.31.47-.48.67-.17.21-.35.39-.5.6-.15.22-.26.47-.41.68l-.44.66c-.15.22-.26.46-.4.68-.14.22-.4.36-.54.58-.14.23-.24.48-.37.7-.13.23-.24.47-.36.71-.12.24-.29.46-.39.7-.11.24-.18.49-.27.73-.09.25-.17.49-.26.73-.04.12-.06.25-.07.38,0,.07-.01.13-.02.19,0,.07-.02.13-.01.12,0,.04,0,.09,0,.11,0,0-.05.09-.1.22-.02.05-.07.16-.07.17,0,.02,0,.02.03,0,.1-.1.21-.35.23-.37.03-.03.02-.05.05-.1.08-.1.16-.21.26-.3.2-.18.42-.37.61-.55.2-.19.46-.24.67-.41.21-.16.4-.49.62-.65.22-.16.49-.17.7-.33.21-.17.38-.38.6-.54.22-.16.38-.39.59-.55.21-.16.5-.22.72-.37.22-.15.38-.36.6-.52.21-.16.39-.33.61-.48.22-.15.5-.32.73-.45.23-.13.53-.15.76-.28.23-.13.43-.33.67-.45.23-.13.47-.26.71-.39.24-.13.5-.16.74-.26.25-.1.49-.3.74-.4.25-.11.48-.21.72-.31.25-.1.48-.24.73-.34.25-.1.54-.11.79-.21.25-.1.52-.13.77-.21.26-.09.5-.23.75-.32.25-.1.51-.18.76-.26.25-.08.47-.25.73-.33.26-.07.54-.04.8-.09.09-.02.39-.1.61-.17.23-.06.48-.13.7-.16.43-.08.72-.1,1.13-.18.21-.04.38-.06.54-.08.16-.05-.07.08-.13.14-.09.07-.17.13-.25.19-.26.22-.56.48-.82.7-.3.26-.68.58-.98.83-.23.19-.41.39-.62.55l-.62.49c-.21.17-.47.23-.67.4-.2.16-.43.34-.63.49-.2.17-.35.4-.55.58-.2.17-.37.38-.57.56-.2.18-.47.3-.67.49-.19.19-.25.43-.43.62-.19.19-.42.37-.61.56-.19.19-.39.4-.58.58l-.58.54c-.19.19-.35.36-.54.55-.19.19-.46.3-.64.5-.17.19-.35.4-.52.59-.18.2-.35.39-.53.58-.18.2-.34.41-.52.6-.18.19-.39.33-.57.53-.18.2-.37.41-.54.61-.19.22-.32.47-.5.69-.17.22-.35.45-.5.66-.18.23-.4.42-.57.63-.18.23-.27.51-.43.73-.18.23-.4.41-.57.62-.18.23-.37.43-.53.65-.18.22-.35.44-.52.65-.18.23-.32.49-.48.7-.17.23-.29.49-.45.71l-.06.08-.5-.4c.18-.18.39-.33.55-.51.18-.21.37-.43.54-.64.19-.22.41-.39.59-.59.19-.21.35-.52.55-.71.2-.19.42-.31.62-.5.2-.19.37-.43.57-.63.19-.2.37-.38.58-.58.19-.2.47-.36.67-.57.19-.2.32-.46.54-.66.2-.19.4-.39.63-.58.2-.18.44-.32.67-.51.21-.16.45-.35.67-.52.21-.17.44-.29.68-.46.22-.16.42-.45.66-.61.23-.15.49-.23.73-.39.23-.15.39-.41.63-.57.23-.15.51-.27.75-.43.24-.15.5-.25.75-.39.25-.14.45-.35.69-.48.25-.13.5-.27.73-.39.26-.12.54-.17.79-.28.27-.11.54-.19.78-.29.27-.11.52-.24.77-.33.27-.1.53-.22.79-.3.27-.09.55-.16.82-.23.27-.07.55-.09.82-.15.27-.06.54-.12.82-.15.27-.04.54,0,.82,0,.27-.02.54-.02.82-.02.27,0,.55-.03.83-.01.27.01.54,0,.83.04.26.03.54.03.82.09.26.05.55.03.83.1.16.04.68.19.66.21-.01.01-.55-.13-.7-.16-.01,0,.24,0,.17-.02Z"/>
  <path class="cls-3" d="M115.65,57.8c.24.02.61-.02.83,0,.24.03.46-.04.69-.04.23,0,.48.12.72.11.24,0,.46.01.69-.02.24-.03.47-.05.7-.08.24-.03.48-.06.71-.11.23-.05.43-.19.65-.24.23-.05.46-.1.68-.15.23-.06.44-.16.66-.23.22-.07.48-.09.7-.16.23-.07.4-.23.6-.32.21-.1.45-.15.67-.24.22-.09.47-.15.66-.27.2-.12.37-.27.57-.38.2-.12.38-.25.58-.37.19-.13.44-.19.64-.32.18-.13.39-.28.56-.41.19-.13.38-.27.56-.41.18-.15.28-.39.46-.53.19-.13.37-.28.54-.44l.49-.48c.16-.16.34-.3.48-.48.14-.17.29-.36.43-.53.15-.17.41-.28.56-.46.14-.17.28-.35.42-.53.14-.18.2-.44.34-.62.14-.18.2-.41.32-.6.11-.19.34-.34.45-.55.12-.19.19-.41.28-.63.09-.21.23-.4.33-.61.09-.21.21-.4.28-.62.08-.21.17-.43.25-.65.04-.11.04-.23.04-.35,0-.08.06-.39.09-.56.09-.35.18-.64.26-1.03.09-.38.18-.73.28-1.12.02-.09.05-.23.07-.28l.08.23c.05.16.11.33.16.52.11.39.15.91.2,1.26.06.36.12.69.15,1.02.01.24.15.49.18.74.02.24-.11.53-.09.77.03.23.15.4.16.64,0,.24.02.51-.01.75-.03.24-.06.49-.09.73-.05.22-.1.47-.16.7-.04.23-.18.44-.23.67-.05.23-.03.5-.11.73-.08.22-.23.4-.32.63-.09.22-.09.48-.18.71-.09.22-.29.39-.39.61-.1.21-.14.47-.26.68-.12.21-.23.41-.37.61-.13.2-.28.38-.41.58-.13.19-.34.38-.47.57-.13.2-.27.36-.43.54-.15.18-.3.37-.48.53-.14.14-.32.25-.47.37l-.24-.39s.07-.02.1-.04c.21-.09.4-.24.6-.33.2-.1.37-.26.58-.36.19-.11.46-.1.66-.21.2-.12.37-.27.56-.39.19-.12.36-.28.54-.41.19-.13.32-.33.49-.47.18-.14.34-.3.51-.45.17-.15.34-.32.5-.48.16-.16.36-.26.51-.43.15-.17.29-.36.42-.55.13-.18.28-.36.39-.56.12-.19.19-.41.3-.61.11-.2.32-.34.42-.55.1-.2.25-.4.35-.61.09-.24.19-.5.28-.74.11-.34.16-1,.31-1.52.15-.49.27-.76.39-1.13h0c.03.11.08.3.12.49.04.2.08.39.12.58.07.42.1.9.16,1.23.06.28.14.66.2.96.05.23,0,.51.02.74.03.23.18.44.19.68,0,.24-.05.47-.04.71,0,.24.04.47.03.71-.01.24-.08.47-.09.71,0,.24-.09.47-.11.7-.03.23.03.48,0,.71l-.13.7c-.04.23-.19.4-.26.63-.07.22-.08.5-.15.72-.07.23-.17.45-.24.68-.07.22-.09.47-.16.69-.07.22-.09.44-.16.67-.07.23-.28.43-.37.64-.1.21-.13.46-.23.67-.11.19-.25.42-.36.61-.11.21-.26.4-.39.6-.12.2-.18.44-.31.64-.13.2-.28.38-.42.57-.14.19-.21.43-.35.62-.15.19-.28.34-.42.54-.13.2-.4.36-.55.54-.15.18-.28.35-.44.53l-.02.02-.45-.45c.16-.16.26-.41.42-.57.17-.16.38-.27.55-.43.18-.16.35-.31.52-.46.18-.15.39-.32.58-.45.19-.14.41-.15.61-.28.19-.13.34-.37.53-.51.19-.13.45-.17.65-.31.19-.13.33-.35.53-.47.2-.13.47-.14.67-.26.2-.12.37-.3.58-.41.21-.11.39-.26.6-.36.21-.1.42-.23.64-.32.22-.09.43-.18.65-.27.22-.09.44-.18.66-.26.22-.08.47-.12.7-.19.23-.08.46-.12.69-.18.23-.06.46-.12.7-.17.23-.05.48.03.72,0,.23-.03.47-.22.71-.22.24,0,.44.1.68.1.24,0,.49,0,.73,0,.24,0,.45-.12.69-.12.24,0,.5.11.74.12.24.01.47.07.7.12.23.04.49-.02.72.05.23.06.43.24.65.31.22.07.49.04.72.11.22.09.42.24.64.33.22.09.42.23.64.33.22.09.4.24.61.36.21.11.52.14.71.29.19.14.37.29.55.45.18.16.26.39.43.55.17.16.42.25.59.41.16.17.36.31.52.49.16.18.28.41.43.6.22.29.5.67.73,1.02.05.09.09.17.12.23.01.03.02.06.03.1,0,.02-.11-.02-.16-.03-.24-.06-.45-.13-.62-.15-.32-.04-.73-.12-.94-.13-.23-.02-.46.05-.69.03-.23-.02-.46.02-.69.02-.23,0-.46.05-.69.07-.23,0-.45-.02-.67,0-.22.03-.48.03-.7.06-.24.04-.44.07-.67.1-.23.04-.47.15-.69.19-.22.04-.42-.06-.65-.02-.23.03-.47.1-.69.16-.22.06-.46.13-.67.21-.22.08-.38.21-.6.29-.22.08-.44.16-.66.23-.22.08-.43.16-.64.25-.21.09-.44.09-.65.19-.21.1-.38.3-.58.41-.21.1-.41.2-.61.32-.2.12-.37.26-.56.39-.19.12-.46.14-.65.27-.19.13-.34.31-.53.44-.12.08-.25.17-.37.25-.06.06-.12.11-.1.14.1.01.14.07.28.08.07,0,.15,0,.21-.02.06-.02.09-.04.23-.01.23.03.46.12.69.16.23.04.5-.03.73.03.23.05.41.21.64.26.23.05.5,0,.72.07.23.06.44.17.67.23.23.06.44.19.66.26l.67.2c.23.07.49.05.71.13.2.09.44.19.65.27l.66.25c.22.09.4.3.62.38.21.09.43.19.64.28.21.1.43.15.65.25.21.11.45.17.66.28.21.12.39.26.59.38.2.12.42.22.62.34.2.12.34.33.53.47.19.13.48.14.68.27.2.13.39.26.58.4.19.14.32.36.51.5.19.14.38.28.56.43.18.15.44.21.62.36.19.15.32.36.5.51.17.13.38.29.55.43.19.15.3.38.47.55.19.18.32.27.57.51.28.29.49.58.75.85.24.26.84.71,1.15,1.05-.46-.11-1.08-.36-1.45-.46-.39-.1-.75-.18-1.14-.28-.31-.08-.49-.08-.73-.13-.23-.05-.44-.18-.66-.23-.21-.06-.46-.12-.68-.18l-.68-.15c-.23-.05-.47-.04-.7-.08s-.46-.13-.69-.17c-.23-.04-.45-.01-.68-.05-.23-.04-.48-.01-.71-.05-.22-.04-.46-.09-.68-.13-.23-.04-.44-.15-.66-.18-.23-.03-.45.04-.68.03-.23-.01-.49-.08-.71-.09-.23-.02-.46.06-.69.04-.23-.01-.42-.17-.66-.19-.23-.03-.49.03-.72.02-.23-.01-.47-.02-.69-.04-.23,0-.46.04-.69.05-.23.01-.47-.02-.7,0-.23,0-.44.09-.67.11-.23.02-.46.03-.69.05-.23.02-.47.02-.69.06-.23.04-.42.24-.64.27-.22.04-.46,0-.68.04-.22.05-.44.04-.66.08-.22.05-.45.18-.67.25-.22.07-.37.24-.58.32-.22.1-.41.18-.63.28-.2.1-.44.23-.62.31-.03.02-.12.02-.18.05-.06.03-.04.06-.07.07,0,0-.02.02,0,.02,0,0,0,.02.02.03.04.02.2.08.3.1.23.05.46.07.68.13.23.07.46.13.68.2.23.07.45.15.67.22.22.08.4.21.62.28.23.07.47.14.69.2.22.07.45.08.68.15.22.07.45.24.67.32.22.08.44.1.66.18.22.09.41.2.63.3.21.1.4.22.6.33.21.11.48.14.7.24.21.1.41.17.63.26.23.11.42.21.65.32.22.1.46.15.67.26.21.11.42.25.63.37.2.12.4.25.6.38.2.13.32.35.52.48.2.13.49.18.68.32.19.14.34.31.52.45.2.15.36.27.54.42.19.15.37.27.55.43.18.15.33.36.5.51.18.16.41.25.59.41.18.16.29.38.46.54.17.16.37.28.53.45.16.17.36.34.51.52.14.18.3.39.44.57.14.19.2.43.34.62s.29.38.43.57c.14.19.3.37.42.57.12.2.32.38.43.58.11.21.2.42.31.62.11.21.15.51.27.72.11.19.23.42.34.61.11.21.2.39.28.61.08.22.19.42.25.65.06.23.13.5.18.73.09.35.18.72.27,1.06.02.09.05.18.09.28,0,.06-.1-.01-.14-.01-.12-.03-.25-.07-.41-.15-.33-.16-.65-.32-.97-.49-.19-.1-.27-.12-.39-.16-.11-.04-.22-.08-.32-.13-.19-.09-.38-.22-.59-.32-.2-.08-.41-.17-.62-.26-.2-.09-.41-.18-.62-.27-.2-.08-.41-.19-.62-.28-.2-.09-.41-.18-.62-.27-.21-.08-.43-.13-.65-.21-.21-.08-.43-.16-.65-.24-.19-.08-.43-.17-.63-.25-.21-.07-.41-.16-.64-.22-.22-.06-.42-.07-.65-.12-.22-.05-.46-.18-.69-.22-.22-.04-.45,0-.67-.05-.22-.06-.42-.17-.64-.22-.21-.04-.45-.08-.67-.12-.22-.05-.42-.19-.65-.23-.22-.04-.47,0-.69-.05-.22-.05-.41-.14-.63-.19-.22-.04-.45-.14-.68-.17-.22-.04-.45-.02-.68-.05l-.68-.08c-.23-.02-.45-.04-.68-.06-.23-.02-.46.02-.68.02-.22,0-.49-.07-.71-.07-.23,0-.42.15-.65.14-.23,0-.45-.09-.68-.1-.23,0-.47.04-.7.04-.23,0-.43,0-.66,0-.17,0-.34-.05-.51-.08l.02-.53c.06.02.11.03.17.03.23.02.46.04.69.06.23.03.45.11.68.14.23.03.47.06.7.1.23.04.46,0,.68.04.23.04.46.05.69.1.23.05.42.21.64.27.22.06.46.09.68.16.22.07.43.19.65.25.22.07.45.09.67.17.22.08.41.2.62.29.21.09.47.11.68.2.21.09.43.2.65.28.22.07.42.06.64.15.22.09.47.19.68.3.21.11.32.35.52.46.2.12.51.13.71.25.2.12.32.32.52.44.19.13.43.15.62.28.19.13.35.35.54.48.19.13.4.24.58.38.19.14.39.26.56.41.18.15.36.3.53.45.17.16.3.37.47.53.17.16.33.33.49.5.16.17.32.34.46.52.15.18.35.32.5.49.15.19.24.42.38.61.14.19.19.4.3.6.12.2.35.35.47.54.12.2.21.43.32.62.12.2.13.44.23.64.1.21.25.41.33.62.1.22.16.47.26.67.09.22.24.38.33.59.1.22.2.43.27.64.07.23.06.45.11.67.05.23.09.45.14.67.05.23.15.47.19.69.04.24.12.44.15.66.04.24,0,.5.02.72.02.24.14.46.16.68.02.24-.08.47-.08.69,0,.12.01.24.03.36.02.18.01.38,0,.55-.04.4-.13.59-.16.88v.12s-.06-.06-.09-.08l-.16-.19c-.11-.12-.21-.25-.31-.37-.2-.22-.41-.45-.6-.66-.15-.18-.38-.29-.52-.46-.15-.17-.19-.41-.34-.58-.16-.18-.3-.33-.46-.51-.15-.17-.33-.31-.49-.48-.16-.16-.26-.38-.42-.54-.16-.15-.35-.27-.52-.43-.16-.15-.39-.25-.56-.41-.16-.15-.3-.32-.47-.47-.16-.15-.29-.33-.47-.48-.17-.14-.36-.27-.54-.42-.17-.14-.35-.28-.53-.43-.16-.14-.34-.3-.5-.44-.17-.14-.34-.28-.52-.42-.17-.13-.28-.33-.46-.47-.17-.14-.45-.2-.64-.34-.18-.13-.27-.35-.47-.48-.12-.08-.44-.19-.42-.2.02,0,.28.15.38.22.2.13.38.24.57.37.2.13.35.36.54.48.19.13.43.14.61.27.19.14.29.41.47.54.19.14.45.16.62.29.19.15.3.38.47.52.19.15.39.24.56.37.19.15.35.29.53.44.18.15.35.31.51.45.18.16.35.32.52.48.18.15.36.24.53.38.17.15.31.35.47.5.17.16.36.29.51.46.16.17.24.37.39.54.15.17.36.31.52.48.15.16.33.29.49.46.18.21.18.25.27.35.06.05.14.14.15.08,0-.07.08-.07.08-.22,0-.06-.02-.12-.04-.18-.02-.11-.04-.22-.04-.33,0-.21,0-.44-.02-.67-.01-.21.05-.45.04-.68-.03-.21-.11-.42-.14-.65-.02-.21-.06-.44-.1-.66-.04-.21.02-.44-.04-.66-.05-.21-.16-.43-.21-.65-.05-.21-.11-.44-.18-.66-.07-.21-.11-.42-.19-.64-.08-.21-.26-.41-.34-.63-.09-.21-.08-.45-.18-.67-.09-.21-.34-.34-.44-.54-.1-.2-.1-.46-.23-.66-.11-.2-.23-.4-.34-.6-.13-.19-.34-.32-.47-.51-.12-.19-.26-.38-.4-.56-.14-.18-.22-.4-.38-.58-.15-.17-.33-.29-.49-.45-.15-.16-.31-.37-.47-.53-.16-.16-.32-.32-.49-.48-.16-.16-.31-.31-.49-.48l-.49-.48c-.16-.16-.3-.36-.48-.51-.18-.14-.4-.31-.6-.43-.19-.12-.39-.17-.59-.28-.2-.11-.36-.27-.55-.39-.19-.13-.42-.18-.62-.3-.19-.12-.42-.21-.62-.32-.2-.11-.36-.27-.57-.38-.21-.1-.43-.17-.63-.27-.2-.11-.38-.24-.59-.34-.21-.09-.45-.15-.67-.23-.22-.08-.43-.08-.65-.15-.22-.07-.44-.22-.66-.29-.22-.07-.42-.17-.65-.23-.22-.06-.44-.12-.66-.19-.21-.06-.45-.13-.66-.19-.22-.06-.49.04-.71,0-.22-.05-.43-.16-.66-.19l-.68-.1c-.23-.02-.45-.1-.68-.14-.23-.04-.47.04-.69.01-.15-.02-.3-.05-.45-.07l.02-.73c.08,0,.16,0,.23,0,.22,0,.48.01.7.02.23,0,.47-.08.71-.07.23,0,.46.13.69.14.23,0,.48-.12.71-.11.23,0,.46,0,.69,0,.23,0,.47.12.71.13.23.02.47.05.7.08.23.02.49,0,.73.04.25.03.46.06.71.1.23.05.41.2.64.23.23.04.47.08.7.11.23.04.46-.04.69,0,.23.04.45.19.68.24l.68.14c.22.06.46.12.68.18.23.06.47.06.7.12.23.05.48.04.71.11.22.07.43.18.65.25.23.06.45.11.67.18.22.07.42.23.65.3.22.07.46.09.68.16.22.08.44.17.66.25.22.08.43.13.65.21.22.07.45.2.67.27.22.08.47.09.69.18.22.1.36.31.57.41.22.1.42.2.64.3.19.1.38.2.56.29.12.06.19,0,.26.04.08.05.2.13.16.05,0-.02.13-.03.09-.17-.06-.21-.12-.41-.18-.62-.07-.22-.22-.42-.29-.63-.08-.22-.22-.41-.32-.61-.1-.21-.16-.43-.27-.63-.11-.2-.18-.43-.3-.63-.12-.2-.26-.37-.38-.56-.11-.2-.24-.39-.36-.58-.12-.2-.22-.41-.35-.59-.14-.19-.36-.3-.51-.48-.14-.18-.29-.36-.43-.54-.15-.18-.24-.4-.38-.57-.15-.18-.33-.32-.48-.49-.16-.17-.29-.36-.45-.52-.17-.15-.34-.31-.51-.46-.17-.15-.3-.35-.47-.51-.16-.15-.34-.32-.5-.46-.17-.16-.48-.19-.65-.33-.18-.15-.28-.37-.46-.5-.19-.13-.39-.25-.58-.38-.19-.12-.42-.18-.61-.3-.19-.12-.37-.3-.56-.42-.19-.12-.41-.2-.61-.32-.2-.11-.41-.21-.62-.31-.2-.11-.35-.33-.56-.43-.21-.1-.47-.06-.68-.17-.21-.1-.38-.31-.59-.41-.21-.1-.44-.13-.65-.22-.21-.09-.41-.21-.62-.3-.21-.08-.44-.16-.65-.24-.22-.08-.42-.2-.63-.28-.22-.08-.46-.1-.68-.18-.21-.08-.4-.22-.61-.3-.22-.08-.45-.13-.67-.2-.22-.07-.45-.1-.67-.16-.22-.06-.42-.21-.65-.27-.22-.05-.45-.11-.68-.17-.22-.06-.45,0-.68-.04-.06-.01-.11-.03-.17-.06-.05-.02-.11-.06-.24-.1-.22-.09-.39-.16-.58-.2-.37-.08-.77-.15-1.1-.25.32-.17.58-.34.93-.52.32-.16.68-.43.99-.57.22-.08.46-.08.67-.17.22-.09.45-.19.69-.29.22-.09.38-.22.6-.31.22-.08.47-.11.7-.17.23-.05.43-.1.67-.15.23-.04.47-.16.7-.18.23-.03.47-.08.7-.12.23-.04.47-.08.71-.1.24-.02.47-.05.71-.07.23-.03.46-.06.69-.06.23,0,.47-.09.7-.09.24,0,.47.06.71.06.22,0,.48-.02.71-.02.24,0,.44.06.67.09.24.02.47.04.7.06.23.02.5.02.73.04.23.02.46-.06.69-.04.23.02.46-.02.69,0,.23.02.49.15.72.18.23.03.47.03.7.07.23.04.45.12.68.16.23.04.46.13.68.17.23.04.47.09.7.13.23.04.47-.03.7.02l.69.14c.23.05.4.18.63.24.22.07.53.05.75.12.21.06.44.25.58.28.16.04.15-.09.18-.09.05,0,.12.03.14.02-.03-.03.21.04.1-.06-.1-.1-.3-.17-.34-.19-.11-.1-.34-.24-.5-.38-.17-.15-.34-.35-.52-.5-.17-.15-.35-.32-.51-.49-.16-.16-.22-.37-.39-.52-.17-.15-.44-.26-.62-.4-.18-.15-.32-.33-.51-.47-.19-.14-.4-.24-.58-.38-.18-.14-.42-.21-.61-.33-.19-.13-.31-.38-.5-.5-.19-.13-.44-.17-.63-.29-.2-.12-.36-.3-.56-.42-.2-.12-.45-.22-.66-.32-.21-.1-.42-.08-.63-.18-.21-.09-.4-.27-.61-.37-.21-.1-.45-.14-.66-.23-.21-.09-.4-.22-.61-.31-.21-.09-.47-.08-.68-.16-.21-.08-.45-.17-.67-.25-.21-.08-.35-.27-.57-.35-.22-.07-.47-.08-.69-.15-.22-.07-.41-.23-.63-.29-.22-.06-.46-.07-.68-.13-.22-.06-.45-.11-.67-.16-.22-.05-.45-.17-.67-.21-.23-.05-.46-.07-.68-.1-.23-.03-.46.03-.69,0-.14-.02-.3-.05-.47-.08-.17-.03-.33-.06-.51-.08-.33-.04-.85,0-1.26-.04-.02,0-.06,0-.06-.01l.07-.05s.09-.07.14-.11c.09-.07.19-.14.29-.21.19-.14.37-.27.52-.4.16-.13.29-.26.45-.41.13-.12.19-.18.29-.25l.58-.41c.2-.13.44-.19.64-.32.2-.13.41-.24.61-.36.21-.11.38-.3.6-.4.21-.11.4-.25.62-.35.21-.1.45-.17.67-.26.22-.1.43-.2.66-.28.22-.08.46-.1.68-.18.23-.07.47-.1.69-.17.22-.08.45-.13.68-.19.23-.06.45-.13.68-.17.23-.05.45-.19.68-.24l.7-.12c.24-.04.48.03.71.01.23-.02.46-.12.7-.15.24-.01.48.02.72,0,.24-.02.47-.07.71-.07.24,0,.47-.05.71-.03.24.01.48.08.71.09.16,0,.12.03.18.06.05.03.12.06.17.07.05,0,.06-.02.03-.06-.04-.05-.14-.1-.14-.11-.03-.03.03-.02-.04-.1-.14-.17-.22-.4-.37-.57-.15-.17-.41-.26-.56-.43-.15-.15-.32-.32-.47-.47-.16-.15-.3-.31-.48-.45-.17-.15-.33-.31-.52-.44-.18-.13-.38-.25-.58-.36-.2-.11-.43-.16-.64-.25-.21-.09-.39-.21-.6-.29-.21-.07-.42-.25-.63-.32-.22-.06-.44-.08-.65-.15-.22-.06-.44-.12-.66-.18-.22-.07-.45-.08-.67-.13-.22-.05-.45-.04-.68-.07-.22-.03-.45-.09-.68-.09-.23,0-.46.02-.68.02-.22,0-.46-.01-.67-.02-.22,0-.46.02-.68.03-.23.01-.45-.01-.68.01-.23.02-.46.03-.69.08-.23.04-.43.18-.65.24-.22.06-.43.15-.65.22-.22.07-.47.02-.69.1-.22.08-.42.18-.63.25l-.64.28c-.21.09-.44.15-.64.25-.21.09-.39.26-.58.37-.2.11-.47.19-.66.32-.19.13-.29.33-.48.46-.19.12-.42.16-.62.28-.2.12-.39.3-.58.42-.19.13-.4.22-.58.36-.19.14-.33.33-.51.47-.18.14-.35.3-.52.45-.18.15-.33.32-.5.48-.17.15-.44.19-.61.35-.14.13-.27.29-.4.42l-.32-.32.08-.09c.15-.17.3-.35.45-.53.16-.17.35-.32.49-.51.12-.18.27-.39.39-.56.13-.19.25-.38.38-.57.13-.19.18-.41.28-.62l.34-.6c.12-.19.34-.35.45-.56.1-.21.13-.45.23-.66.09-.21.11-.44.2-.65.09-.21.21-.42.28-.64.08-.21.26-.36.35-.57.09-.21.06-.54.14-.75.08-.22.3-.34.35-.57.05-.23.06-.46.11-.69.06-.22,0-.47.05-.69.04-.22.2-.43.23-.66.03-.23-.03-.45-.02-.68.01-.23-.02-.43-.02-.66,0-.23.03-.5.04-.73.01-.23.13-.45.13-.68,0-.23-.06-.46-.08-.69-.02-.23-.04-.46-.06-.68,0-.23.04-.44.02-.67-.02-.21-.08-.17-.08-.25,0-.08-.03-.12-.04-.18-.01-.03-.03-.09-.04.02v.04s-.04-.13-.08-.03c-.03.07-.09.1-.15.23-.08.18-.13.46-.22.67l-.3.65c-.11.21-.14.46-.26.67-.13.2-.34.34-.48.53-.14.19-.27.44-.42.62-.15.18-.32.31-.47.49-.15.19-.38.32-.53.5-.15.18-.3.36-.47.52-.16.17-.31.36-.5.51-.18.15-.35.35-.55.49-.2.14-.39.27-.6.39-.21.12-.45.15-.66.26-.21.11-.43.21-.64.31-.21.1-.4.28-.62.37-.21.08-.42.2-.63.29l-1.46.59,1.15-1.12h.01c.16-.17.41-.28.56-.44.16-.16.17-.4.32-.57.15-.17.33-.35.46-.53.13-.18.28-.38.41-.57l.39-.55c.13-.19.21-.38.32-.57.12-.19.32-.36.41-.57.09-.21.18-.42.25-.63.08-.22.16-.42.24-.63.07-.22.12-.44.19-.66.08-.21.18-.4.24-.62.06-.22.13-.46.16-.69.04-.25.03-.49.05-.73.01-.23.02-.49.03-.71.01-.25.07-.49.08-.72.02-.25-.12-.49-.13-.72,0-.25.05-.49.02-.72-.01-.12-.02-.25-.02-.37,0-.14,0-.12,0-.18-.02-.08-.01-.21-.03-.33-.03-.13-.07-.11-.08-.22-.01-.1-.02.02-.03.11,0,.09-.01.17-.02.19-.01.05-.06-.02-.09.1-.03.14,0,.13-.1.43-.08.24-.2.46-.28.69-.07.24-.1.55-.22.77-.12.22-.28.38-.4.59-.12.22-.17.47-.32.68-.13.21-.24.4-.37.63-.12.21-.31.42-.47.62-.14.2-.2.45-.36.66-.15.19-.28.41-.45.61-.16.18-.36.32-.54.51-.16.16-.35.36-.52.53-.17.17-.38.27-.57.44-.18.16-.33.43-.52.6-.18.16-.44.2-.63.36-.19.15-.31.38-.51.54-.18.16-.44.25-.65.4-.2.14-.43.22-.65.36-.21.14-.37.35-.59.45-.22.12-.43.25-.63.36-.23.12-.46.19-.68.27-.23.09-.48.18-.69.26-.23.09-.44.24-.66.32-.24.08-.46.2-.69.27-.24.08-.48.16-.71.23-.24.06-.48.08-.72.12-.24.06-.47.11-.71.16-.23.06-.48-.02-.72,0-.22.01-.48.03-.72.04-.23.03-.48.05-.73.04-.23,0-.47,0-.72,0-.23,0-.47.01-.72-.03-.23-.03-.48-.01-.73-.04-.14-.02-.61-.11-.59-.13.01-.02.49.06.62.07.01,0-.21.02-.15.04Z"/>
  <circle class="cls-9" cx="75.84" cy="115.38" r="21.11"/>
  <circle class="cls-9" cx="122.87" cy="115.38" r="21.11"/>
  <g>
    <path class="cls-1" d="M97.37,112.18c3.25-.64,3.97,1.52,5.19,3.18,1.03,1.38,1.33,3.16,1.51,4.87.67,6.39.03,12.84-.61,19.23-.35,3.48-.69,6.96-1.04,10.44-.03.3-.07.61-.25.85-.29.38-.84.43-1.32.45-2.28.08-4.56.16-6.83.24-2.11.07-4.39.1-6.12-1.11-2.14-1.5-2.75-4.52-2.15-7.07.6-2.55,2.15-4.75,3.63-6.91s2.96-4.44,3.36-7.02c.36-2.33,1.39-16.5,4.64-17.15Z"/>
    <path class="cls-5" d="M97.57,112.19c.09-.02.23-.11.32-.13.09-.02.18-.07.28-.08.1,0,.2.1.29.09.1,0,.18.02.27.02.09.01.19,0,.28.03.09.02.19.02.28.04.09,0,.2-.03.29,0,.09.03.19.06.27.1.08.03.19.08.27.1.09.04.14.15.23.2.09.04.19.05.27.1.08.06.13.15.2.21.07.07.12.17.19.23.07.06.16.1.23.17.07.07.16.12.21.19.06.08.06.2.12.27.06.08.13.14.19.21.06.08.09.17.15.24.05.08.2.09.25.17.04.07.1.17.14.25.05.07.11.15.16.22.05.07.1.14.16.22.05.06.13.15.18.21.06.08.03.22.09.3.05.08.08.17.13.25.04.08.17.13.21.22.04.08.12.15.16.24.04.09-.01.22.03.31.04.09.11.16.14.25.04.09.03.19.06.28.02.09.05.18.08.27.02.08.04.2.06.28.02.09.17.15.2.25.02.09.03.18.06.27.03.09.04.19.07.28.03.09.07.18.09.28.02.09-.05.19-.05.29,0,.08,0,.2,0,.29,0,.09.11.19.12.28.01.09-.09.22-.07.31.02.09.15.14.17.24.02.09.04.19.05.29,0,.09,0,.19.01.29,0,.08,0,.2,0,.28,0,.09-.05.19-.04.28,0,.09.1.19.1.28,0,.09-.08.19-.08.28,0,.09.1.18.1.28,0,.09-.07.19-.07.29,0,.09.09.19.09.28,0,.09,0,.19,0,.28,0,.09-.02.19,0,.28.01.09-.03.2-.01.29s.03.18.04.27c0,.08.02.2.03.28,0,.09-.05.19-.05.28,0,.09.08.19.08.28,0,.09.07.18.07.28,0,.09-.12.19-.12.28,0,.09.03.19.03.28,0,.09.01.19.02.28,0,.09.05.19.05.28v.28c0,.09-.01.18-.02.28,0,.09-.07.18-.08.27s.01.19.01.28c0,.09,0,.19,0,.28,0,.09.07.19.06.28,0,.09-.09.19-.09.28,0,.09-.05.19-.04.29,0,.08.01.2.02.28,0,.09.12.18.12.28,0,.09-.06.19-.07.28-.01.09,0,.19,0,.28-.01.09-.08.17-.09.27,0,.09.03.18.03.28,0,.09-.07.2-.06.29,0,.09.12.18.11.28,0,.09-.06.18-.06.28s.02.19.02.28c0,.09-.06.18-.07.28,0,.09-.05.18-.06.28,0,.09.06.19.06.28l-.02.28c0,.09-.12.16-.14.25-.02.09.02.2,0,.29-.02.09-.05.19-.05.28,0,.09.03.19.03.28,0,.09.05.18.05.27,0,.09-.1.19-.11.28,0,.09.04.19.03.28-.01.09-.05.18-.06.27-.01.09-.06.19-.07.28,0,.09.05.19.03.28-.02.09-.04.19-.05.27-.02.09.04.19.04.28,0,.09-.03.17-.02.27,0,.09-.09.2-.08.3,0,.09,0,.18,0,.27,0,.09.09.2.08.29-.01.09-.06.18-.07.27,0,.1-.01.18-.02.28,0,.09-.03.19-.04.29-.02.09-.14.15-.16.24-.02.09.07.2.06.3s-.12.18-.13.27c0,.09.08.19.07.29s-.12.18-.13.27c0,.09.05.19.04.29,0,.09.02.19.02.28s0,.19,0,.28c0,.09-.02.18-.03.27,0,.09,0,.19-.01.28,0,.09-.04.19-.05.28l-.03.28c0,.09-.01.19-.02.28-.01.09-.12.17-.13.27,0,.09.1.21.09.3-.02.09-.14.16-.15.25-.01.1-.03.19-.04.28,0,.09.11.19.11.28,0,.09-.07.19-.07.29,0,.09-.02.18-.03.28,0,.09.07.19.06.29,0,.09-.14.17-.15.26,0,.09.08.2.07.29,0,.09-.08.18-.09.27,0,.09-.04.18-.05.28s-.04.18-.05.27.11.21.09.31c-.02.08-.05.19-.07.27-.02.09-.16.16-.17.25s.07.19.06.29c0,.09.03.19.02.28,0,.09-.05.19-.06.28,0,.09.03.19.02.29-.01.09-.15.17-.16.26-.01.09-.04.19-.05.28,0,.09.05.19.04.29,0,.09,0,.19,0,.28,0,.09.04.19.03.28s-.06.18-.05.27c0,.09-.04.19-.03.29,0,.09,0,.18-.01.28s.06.21.04.3c-.02.09-.14.15-.16.24-.02.09-.03.19-.04.29,0,.09,0,.19-.01.29,0,.1.06.19.04.3-.01.11-.06.22-.1.33-.04.11-.11.22-.19.32-.08.1-.22.12-.31.18-.09.06-.17.19-.27.23-.11.04-.22.05-.32.07s-.2.07-.3.08c-.1.01-.21-.1-.3-.1-.09,0-.18.05-.28.05-.08,0-.2,0-.28,0-.09,0-.19.03-.28.04-.09,0-.19-.04-.29-.03-.09,0-.18.08-.27.09-.09,0-.19-.04-.28-.04-.09,0-.19.1-.28.1-.09,0-.18-.1-.27-.1s-.19.09-.28.1c-.09,0-.19-.04-.28-.03-.09,0-.19-.06-.28-.05h-.28c-.09.02-.19.12-.28.12s-.19-.02-.28-.02c-.09,0-.19.01-.28.02-.09,0-.2-.1-.29-.09-.09,0-.19.02-.28.03-.09,0-.18.05-.27.05s-.19.07-.28.07c-.09,0-.19-.04-.28-.04-.09,0-.19.03-.28.03-.09,0-.19-.1-.28-.1-.09,0-.19.14-.28.14h-.28c-.09.01-.19-.08-.28-.07h-.28c-.09,0-.19.11-.28.11-.09,0-.19-.06-.28-.05-.09,0-.18.04-.28.05-.09,0-.19-.06-.29-.06-.09,0-.19.03-.28.02-.09,0-.19-.03-.28-.04-.09,0-.19.11-.29.1-.1,0-.18-.11-.27-.12-.09-.02-.19-.01-.29-.03-.09-.02-.19,0-.29,0-.1-.01-.18-.09-.28-.11-.09-.01-.18-.06-.28-.08l-.28-.06c-.09-.02-.2,0-.29-.02-.09-.02-.18-.09-.27-.11-.09-.02-.2,0-.29-.04-.09-.03-.21-.01-.3-.05-.07-.04-.18-.1-.26-.15-.09-.04-.14-.16-.22-.2-.08-.05-.2-.01-.29-.06-.09-.04-.16-.13-.25-.18-.09-.04-.21-.05-.29-.11-.08-.06-.07-.21-.14-.28-.06-.07-.18-.11-.24-.19-.06-.08-.14-.16-.19-.23-.06-.07-.14-.13-.21-.21-.07-.07-.1-.18-.16-.25-.06-.08-.15-.13-.2-.21-.05-.08-.09-.18-.14-.26-.05-.08-.07-.19-.11-.28-.04-.09-.21-.11-.26-.2-.05-.09,0-.21-.02-.31-.03-.09-.01-.19-.04-.29-.03-.09-.09-.18-.12-.28-.03-.09-.14-.14-.18-.23-.03-.09-.05-.19-.08-.29-.03-.09-.08-.19-.1-.29-.02-.1,0-.2-.01-.3-.01-.1-.06-.19-.07-.29,0-.09,0-.2-.01-.29-.01-.1.04-.2.03-.29,0-.1-.05-.19-.05-.29,0-.1.01-.2.01-.29,0-.1.02-.2.03-.29.01-.1.08-.18.1-.27.02-.09,0-.2.01-.29.01-.1-.03-.19-.03-.29,0-.1.1-.19.12-.29.01-.1-.02-.19,0-.29.02-.1.07-.18.1-.27.03-.06.1-.19.13-.25.04-.09,0-.21.03-.3.03-.09.04-.18.06-.27.02-.09.07-.19.09-.28.02-.1,0-.21.03-.3.04-.08.08-.18.12-.27.04-.08.09-.18.13-.25.04-.09.18-.12.22-.21.04-.08,0-.23.04-.31.05-.08.12-.15.17-.22.05-.08.09-.16.13-.24.04-.08.08-.17.12-.25.04-.08.15-.14.19-.22.04-.08.02-.2.07-.29.05-.08.15-.13.19-.21.05-.08.05-.19.09-.27.05-.08.08-.18.13-.26.05-.08.12-.15.18-.23.05-.08.18-.1.24-.18.05-.08.1-.17.14-.24.05-.08.08-.17.14-.25.06-.08.07-.19.12-.26.06-.08.13-.13.18-.21.05-.08.19-.12.24-.2.03-.07.08-.18.12-.25.04-.08.08-.15.13-.23.05-.08.09-.16.15-.23.05-.05.14-.15.19-.2.06-.07.12-.15.17-.23.05-.08.03-.2.08-.28.05-.08.09-.15.14-.24.05-.08.07-.18.12-.25.05-.07.12-.13.17-.21.04-.07.09-.15.14-.23.05-.08.1-.15.14-.23.05-.07.11-.14.17-.22.05-.07.11-.15.16-.22.05-.07.07-.17.12-.24.04-.07.1-.15.15-.23.05-.07.11-.14.16-.21.05-.08.1-.15.15-.23.04-.08.04-.17.07-.26.03-.08.13-.16.16-.24.03-.08-.01-.2.02-.28.04-.08.13-.14.16-.22.04-.08.05-.17.08-.26.03-.08.15-.13.18-.21.03-.08,0-.2.04-.28.04-.08.12-.13.16-.21.04-.08.12-.15.15-.24.03-.08.03-.18.06-.26l.08-.26c.03-.09.04-.18.06-.26.02-.09-.01-.19,0-.27,0-.09.08-.18.08-.27,0-.09-.12-.19-.1-.27.01-.09.1-.16.12-.25.02-.09-.02-.19,0-.28.01-.1.03-.18.04-.26.01-.09.11-.17.12-.26,0-.09.01-.19.02-.27.01-.09.06-.18.07-.27,0-.08.01-.19.02-.28,0-.09-.05-.18-.04-.28,0-.09-.02-.19-.01-.28.01-.09.11-.17.13-.26s0-.19.02-.28c.01-.09.08-.18.09-.27.01-.09-.02-.19,0-.28.02-.09.07-.17.09-.26.02-.09-.03-.19-.01-.28.01-.09.04-.18.04-.28,0-.09-.08-.17-.08-.27,0-.09,0-.2.01-.29.01-.09.16-.16.18-.25.02-.09-.1-.22-.08-.3.02-.09.12-.16.13-.25.01-.09-.06-.19-.05-.28,0-.09.1-.18.11-.27,0-.09-.02-.19,0-.28.01-.09,0-.19,0-.28.01-.09.02-.18.03-.27.01-.09.08-.18.09-.27l.04-.27c.02-.09.04-.18.05-.27.02-.09-.03-.19-.01-.28.02-.09.08-.18.1-.27.02-.09.11-.16.13-.24.02-.09-.05-.2-.03-.29.02-.09.06-.18.08-.27.02-.09.12-.16.14-.25.02-.09.01-.19.03-.28.02-.09.08-.18.09-.27.01-.09-.04-.19-.03-.28.01-.09,0-.19.02-.28.02-.09.11-.16.13-.24.03-.09.05-.17.08-.26.03-.09,0-.2.02-.29.02-.09.01-.18.03-.27.02-.09.11-.18.12-.26.01-.09-.06-.21-.03-.29.03-.09.12-.16.15-.24.03-.09,0-.2.02-.29.03-.09.12-.15.15-.24.03-.09.05-.18.08-.27.02-.08.04-.19.06-.27.03-.09-.02-.21.01-.29.03-.09.16-.13.2-.21.05-.11.06-.15.11-.26.04-.08.05-.18.08-.27.04-.08.14-.14.17-.23.03-.08.03-.18.07-.27.03-.08.02-.2.06-.28.04-.08.1-.15.15-.23.05-.08.13-.14.18-.22.05-.08.06-.18.12-.26.05-.07.1-.16.16-.23.05-.07.13-.13.19-.2.06-.06.14-.14.2-.19.07-.06.19-.05.26-.1.06-.06.11-.18.19-.23.08-.05.2.02.28,0,.05-.01.15-.13.15-.11,0,.02-.11.06-.16.08-.09.03-.16.06-.23.12-.07.05-.22.03-.27.1-.07.07-.05.2-.11.26-.06.07-.22.05-.28.12-.06.07,0,.22-.05.29-.05.08-.18.1-.23.18-.05.08-.04.19-.08.26l-.12.24c-.03.09-.08.16-.11.24-.04.09-.09.17-.11.25-.02.09,0,.18-.02.27-.02.09-.09.16-.12.24-.03.09-.02.19-.05.27-.04.08-.12.14-.16.22-.04.08-.01.19-.04.28-.02.08,0,.18-.03.27-.02.08-.08.16-.1.25-.02.08-.02.18-.04.27-.02.08-.11.16-.13.25-.02.08.03.19.01.28-.02.08-.04.18-.06.27-.02.08-.11.16-.13.25-.02.09,0,.18-.01.27-.02.09-.04.17-.07.26-.02.09-.12.15-.14.24-.02.09,0,.19-.02.28-.02.09-.06.17-.08.26-.02.09-.05.17-.08.26-.02.09.04.21.02.3-.02.09-.14.16-.15.25-.02.09.09.2.08.3-.02.09-.14.16-.16.25-.02.08-.04.19-.06.27-.02.09.06.2.05.29-.02.09-.03.18-.05.27-.01.09-.08.17-.09.27-.01.09.03.18.03.28,0,.09-.05.19-.05.28,0,.09-.02.18-.03.28-.01.09-.03.18-.06.27-.03.09-.05.18-.08.27-.03.09-.12.17-.13.26-.01.09-.03.2-.03.3,0,.09.06.18.06.27,0,.09-.05.18-.07.27-.01.09.03.19.01.28-.02.09,0,.19-.02.28-.02.09-.09.17-.1.26-.01.09,0,.19-.02.28-.02.09-.08.17-.1.26-.02.09.01.19,0,.29-.01.09.05.18.05.27,0,.09-.08.19-.09.28,0,.09-.05.18-.06.27-.01.09-.02.18-.03.27-.02.08-.04.2-.05.27-.01.09.11.2.1.29-.01.09-.08.18-.08.27v.28c-.01.09-.06.18-.07.27-.01.09.06.19.05.29-.01.09-.05.18-.06.27-.01.09-.05.18-.06.27-.01.09.03.19.02.29-.01.09-.13.17-.15.26-.01.09.09.21.07.3,0,.08-.02.2-.03.28-.01.1-.12.18-.13.27-.02.09-.06.18-.08.27-.03.09,0,.21-.05.29-.04.09-.06.19-.1.27-.04.09-.17.13-.2.22-.03.09-.07.18-.1.27-.03.09.04.21,0,.3-.03.09-.17.14-.2.23l-.1.26c-.04.07-.1.17-.14.25-.04.08-.03.2-.08.28-.04.08-.02.2-.07.29-.04.08-.13.14-.18.22-.05.08-.07.18-.11.26-.04.08-.16.13-.2.21-.04.08-.04.19-.08.27-.05.08-.1.16-.15.24-.05.08-.07.17-.11.25-.04.09-.12.16-.16.25-.04.09-.02.21-.07.29-.05.08-.2.09-.26.16-.06.09-.1.15-.15.24-.06.08-.12.16-.17.23-.05.08-.04.2-.1.28l-.17.22c-.06.08-.2.09-.25.16-.05.08-.12.14-.17.21-.06.08-.07.18-.12.26-.06.08-.07.18-.12.26-.05.08-.12.14-.17.22-.05.08-.13.14-.18.22-.05.08-.07.17-.12.25l-.16.23c-.05.08-.14.13-.19.21-.05.08,0,.22-.06.29-.05.08-.1.16-.15.24-.05.08-.16.12-.21.19-.05.08-.07.17-.12.25-.05.08-.13.14-.17.22-.04.07-.09.18-.12.25-.05.08-.14.13-.18.21-.04.08-.11.14-.16.22-.05.08.02.23-.02.31-.05.08-.18.11-.22.19-.04.08-.06.18-.1.26-.04.08-.01.19-.05.27-.03.08-.12.15-.16.23-.04.08-.05.18-.08.26-.02.07-.06.19-.08.26-.03.08-.17.13-.2.22-.03.09.07.21.04.3-.03.08-.16.14-.19.23-.02.09,0,.19-.03.27-.02.09-.07.17-.1.25-.02.09-.03.18-.05.27-.02.09-.07.17-.09.26-.02.09.02.19,0,.28-.02.09-.1.16-.11.25-.02.09,0,.19,0,.28,0,.09.02.18.02.27,0,.09-.08.18-.08.27,0,.08.01.19.01.27,0,.09.11.17.13.25.01.09-.1.21-.08.3.02.09.04.17.05.26,0,.09.04.17.04.26,0,.09.07.19.08.28,0,.09-.06.18-.04.27.02.09.03.19.07.28.04.08.13.14.16.22.04.08,0,.19.04.27.03.08.06.16.09.25.02.09.1.16.13.24.03.08.08.16.12.24.04.08.08.16.13.23.05.07.08.16.14.23.06.07.1.14.15.21.05.07.15.11.21.17.06.06.06.18.12.25.06.07.15.1.21.17.06.06.08.15.14.22.07.06.13.12.2.18.07.06.15.11.23.16.08.05.19.02.27.06.08.04.17.04.25.07.08.03.13.15.21.19.08.04.17.05.25.09.08.03.15.1.23.13.08.03.16.1.24.13.09.03.18.06.26.07.09.02.19-.06.28-.04.09.02.18.03.26.05.09.02.15.11.24.13.09.03.21-.03.3,0,.09.02.15.15.25.16.09.01.19-.1.28-.09h.27c.09.01.18.12.27.13.09,0,.18-.09.28-.1.09,0,.18-.05.27-.06.09,0,.19,0,.29,0s.19.01.28.02c.09,0,.16.11.26.12.09,0,.2-.07.29-.07.09,0,.19.05.28.05s.19-.04.28-.04c.09,0,.18-.07.28-.07.09,0,.19.12.28.12s.18-.08.28-.09.19.06.28.06c.09,0,.2-.02.29-.04.09-.01.16-.11.25-.13.09-.01.2.06.29.06.09,0,.18-.07.28-.07.09,0,.19.04.28.04.09,0,.18-.1.28-.11.09,0,.19,0,.29,0,.09,0,.18.11.27.11.09,0,.19-.06.28-.07.09,0,.19.08.28.08.09,0,.19-.05.28-.05h.28c.09,0,.19.05.29.04.09,0,.19-.01.28-.02.09,0,.18-.09.27-.1.09,0,.19.04.28.03s.18-.09.27-.1.19.04.28.04c.09,0,.18-.06.28-.07h.28c.09,0,.18.06.27.06.09,0,.17-.01.25-.03.08-.01.15-.09.21-.11.07-.02.12-.08.16-.12.05-.03.11-.05.15-.1.04-.04.06-.1.08-.17.03-.06.1-.12.12-.2.02-.08.07-.16.08-.25l.03-.28.03-.28c0-.09-.07-.19-.06-.29l.02-.28c.01-.09.11-.18.12-.27s-.05-.19-.04-.28c0-.09.05-.19.06-.28,0-.09-.04-.19-.03-.28s-.02-.19-.01-.28c0-.09.06-.18.07-.28,0-.09.1-.18.11-.27s-.09-.19-.09-.29.04-.19.05-.28c0-.09.07-.18.08-.27,0-.09-.09-.21-.08-.3.02-.08.04-.19.05-.27.01-.09.06-.17.07-.27s.07-.18.08-.27l.03-.28c.01-.09-.05-.19-.04-.29,0-.09.03-.18.04-.27s.09-.19.09-.28c0-.09-.03-.18-.02-.28.01-.09.02-.18.03-.28,0-.1.02-.18.02-.28.01-.09-.01-.19,0-.28,0-.09.04-.18.05-.28.01-.09-.03-.19-.02-.28.01-.09.04-.18.05-.27.01-.08.03-.2.05-.28.01-.09.08-.18.09-.27.01-.09.06-.18.07-.28s-.06-.19-.05-.29c0-.09-.02-.19-.01-.28,0-.09.12-.18.13-.27,0-.09,0-.19.01-.28,0-.1.01-.18.02-.28.01-.09.06-.18.07-.27,0-.09-.03-.19-.03-.28,0-.09.07-.2.07-.29,0-.09-.11-.18-.1-.27,0-.09.09-.17.11-.26.02-.09,0-.2.02-.29.02-.09.07-.18.08-.27,0-.09-.03-.19-.02-.28,0-.09.01-.19.02-.28,0-.09-.01-.19,0-.28,0-.09.15-.17.16-.26.01-.09-.01-.19,0-.28.01-.09,0-.19.01-.28s.06-.19.07-.28c0-.09-.02-.19-.01-.28,0-.1,0-.19.01-.28,0-.09-.07-.19-.07-.28,0-.09,0-.18,0-.28,0-.09.13-.18.14-.28,0-.09-.07-.19-.06-.29,0-.09-.06-.19-.05-.28,0-.09.03-.19.04-.28,0-.09.12-.17.14-.26.02-.09-.07-.22-.06-.31.02-.09.17-.15.17-.25,0-.09-.03-.19-.03-.28,0-.09-.07-.19-.06-.28,0-.09.11-.18.12-.27,0-.09-.06-.18-.07-.28,0-.09-.05-.18-.06-.27,0-.09.01-.2.02-.3,0-.09.12-.18.13-.27,0-.09-.05-.19-.05-.28,0-.09,0-.19,0-.28,0-.09.08-.17.1-.27.01-.09-.04-.2-.03-.29.01-.09,0-.18,0-.27,0-.09-.02-.19-.01-.28s.08-.18.09-.28c0-.09.06-.18.06-.28,0-.09-.05-.19-.05-.29,0-.1,0-.18-.01-.28,0-.09-.09-.18-.09-.28,0-.09.09-.18.1-.27.01-.09-.04-.2-.02-.29.01-.09.05-.17.05-.27,0-.09.05-.19.05-.29-.01-.07-.03-.2-.04-.27,0-.09-.05-.18-.05-.28,0-.09-.04-.19-.04-.29v-.28c.02-.09.12-.18.12-.27,0-.09.03-.19.02-.28,0-.09-.07-.19-.07-.28,0-.09-.04-.18-.04-.28,0-.09.08-.2.07-.29-.01-.09-.13-.16-.14-.25-.01-.09,0-.2,0-.29,0-.09-.02-.19-.02-.29v-.28c.01-.09,0-.18,0-.27,0-.09.09-.2.08-.29-.01-.08-.03-.19-.05-.27,0-.1-.02-.18-.02-.27,0-.09-.03-.18-.03-.28,0-.09.05-.18.05-.27,0-.1-.01-.19-.02-.28,0-.1-.07-.19-.08-.29-.02-.08-.04-.21-.06-.29-.01-.1.02-.2.01-.3-.01-.1-.12-.19-.14-.28-.01-.1.04-.2.02-.3-.01-.1,0-.2-.01-.29-.01-.1,0-.2-.02-.29-.01-.1-.06-.19-.07-.29-.01-.1-.08-.19-.1-.28-.02-.1.02-.21,0-.3-.03-.1-.07-.18-.1-.27-.03-.09-.02-.19-.05-.28-.02-.1-.14-.17-.16-.27-.02-.09.02-.19,0-.28-.02-.09-.09-.17-.13-.26-.04-.09-.06-.17-.11-.25-.05-.08-.02-.21-.08-.29-.05-.08-.17-.12-.22-.2-.05-.08-.1-.15-.15-.24-.05-.08-.06-.18-.11-.26-.05-.08-.09-.18-.14-.26-.06-.08-.06-.18-.11-.27-.05-.08-.19-.13-.23-.22-.05-.08-.01-.21-.07-.3-.05-.08-.18-.11-.24-.19-.06-.08-.07-.19-.13-.27-.06-.08-.07-.18-.13-.26-.06-.08-.18-.11-.24-.18-.06-.06-.14-.14-.2-.2-.06-.07-.09-.18-.15-.24-.07-.07-.12-.15-.19-.21-.08-.06-.17-.1-.25-.14-.08-.05-.18-.06-.26-.11-.08-.05-.17-.07-.25-.12-.08-.05-.16-.1-.24-.13-.09-.03-.18-.05-.27-.07-.09-.02-.16-.11-.25-.13-.09-.03-.18-.05-.28-.06-.1,0-.19-.01-.29-.02-.09,0-.18,0-.29,0-.09,0-.19,0-.29,0-.09,0-.19.06-.28.07-.06,0-.25,0-.25-.02,0-.02.2-.02.25-.03,0,0-.07.05-.05.06Z"/>
  </g>
  <g>
    <path class="cls-4" d="M103.19,136.73c1.85,1.8,3.6,3.71,5.22,5.72.69.86,1.4,1.81,1.45,2.91.05,1.13-.6,2.19-1.47,2.91s-1.94,1.14-2.98,1.56c-1.05.42-2.1.84-3.15,1.25-.32.13-.68.25-.98.11-.24-.11-.38-.36-.49-.61-1.06-2.29-.78-4.96-.37-7.45.36-2.23,1.04-4.74,3.07-5.72"/>
    <path class="cls-5" d="M103.21,136.81s.12.01.14.03c.03.02.09,0,.12.03.03.02-.02.13,0,.15.03.02.04.05.07.08.03.03.04.05.07.08.02.03.06.04.09.07.03.02.11,0,.13.01.04.04.04.04.08.07.03.02.06.04.09.06.03.02.01.09.04.11.03.02.1,0,.13.02.03.02.03.08.05.1.03.02.03.08.06.1.03.02.09.01.12.03.03.02.08.02.11.04.03.02,0,.1.02.13.03.02.07.03.1.05s.04.06.06.09c.03.02.14-.03.16,0,.02.03.04.06.06.09.02.03.06.04.08.07.03.02.04.04.08.07.02.01.07.05.09.06.03.02-.02.12,0,.15.03.02.03.06.06.09.02.03.11,0,.13.02.02.03.08.02.1.05.02.02-.02.12,0,.15.03.02.08.02.1.05.03.02.02.08.05.1.02.02.04.06.06.08.02.03.03.07.05.09.02.03.14-.04.17,0,.02.03.04.06.07.08.03.02.05.05.08.07.03.02.08.03.1.05.02.03-.01.1,0,.14.01.03.03.08.04.11.01.03.11,0,.14.03.02.03-.04.14,0,.15.03.02.14-.05.17-.03.03.02.07.04.09.07.02.03.04.06.06.09.02.03.03.07.05.1.02.03,0,.1.02.12.02.03.11,0,.13.03.02.03-.03.11,0,.14.02.03.11,0,.13.03.02.03-.02.11,0,.14.02.03.1,0,.12.03.02.03.05.06.06.09.02.03.02.07.06.09.03.02.02.08.05.1s.06.03.09.06c.02.03.06.04.08.07.02.03,0,.09.03.12.02.03.1,0,.12.03.02.03.1.01.12.04s-.05.13-.03.16c.02.03.07.03.09.06.02.03.06.04.08.07.02.03.08.02.11.05l.07.08s.04.06.06.09c.02.03-.01.1,0,.13.02.03.06.05.08.07.02.02.05.05.07.08.02.03.1,0,.12.03.02.03-.02.11,0,.14s.02.08.04.11c.02.01.07.05.09.06.03.02.14-.03.17,0s0,.09.02.12c.02.03.06.05.07.08s-.02.1,0,.13.07.03.1.05c.03.02,0,.09.03.12.03.02.14-.02.17,0,.02.03,0,.09.03.11.02.03.07.04.09.07.02.03,0,.09.02.12.02.03,0,.08.03.11.02.03.1.02.12.05l.06.09s-.05.11-.04.15c.01.04.07.05.08.08.01.04,0,.08.03.11.02.03.07.04.1.07.03.03.09.03.12.06.03.03-.04.11-.02.14.02.03.08.04.1.08.01.04,0,.08.02.12.01.04,0,.09,0,.12.01.03.09.04.09.08,0,.03,0,.08.01.12,0,.04.08.05.1.09.01.04.01.07.03.1.02.03-.04.1-.02.13.02.03.04.06.05.1,0,.04.12.06.12.1,0,.04-.03.08-.03.12,0,.04.02.07.02.11,0,.04,0,.08,0,.12,0,.04-.12.08-.13.11,0,.04.09.08.09.12,0,.04-.1.08-.1.11,0,.04.09.08.09.12,0,.04-.11.07-.12.1,0,.04.06.08.05.12,0,.04.03.08.02.12,0,.04,0,.08,0,.12,0,.04-.01.06-.03.11,0,.03-.01.08-.01.12,0,.04-.05.07-.06.1-.01.04-.03.07-.04.11-.01.04-.01.08-.03.11-.02.03-.13.03-.14.06-.01.03.08.12.06.16-.02.03-.14,0-.16.04-.03.05-.04.07-.06.1-.02.03.07.12.06.16-.01.04-.09.04-.1.08-.01.04-.05.06-.07.09-.02.03.03.11,0,.14-.02.03-.14,0-.16.02-.02.03.04.12.01.15-.02.03-.1.02-.12.05-.02.03-.07.04-.09.07-.02.03-.06.04-.09.07-.02.03.04.15,0,.17-.03.01-.08.04-.11.05-.03.02-.15-.05-.17-.02-.03.02,0,.11-.02.14-.02.03-.02.08-.05.11-.03.03-.08.03-.1.05-.03.02-.03.08-.06.11-.03.02-.14-.06-.17-.03-.03.02-.07.03-.1.05-.03.02-.02.1-.05.12s-.04.07-.07.09c-.03.02-.03.09-.06.11s-.08,0-.11.04c-.02.03-.07.03-.1.06-.03.03-.05.05-.08.07-.03.02-.03.11-.06.12-.04.01-.12-.07-.15-.06-.04,0-.07.03-.1.04s-.06.05-.09.07c-.03.02-.02.1-.05.12s-.07.02-.1.04c-.03.02-.07.03-.1.04-.03.01-.1-.04-.13-.03-.03.01-.03.11-.06.13-.03.02-.07.02-.1.03-.03.02-.05.07-.08.08-.03.02-.11-.08-.15-.06-.03.01-.05.07-.08.08-.03.01-.07.01-.11.03-.03.01-.06.05-.09.07-.03.01-.09-.01-.12,0-.03.02-.03.1-.06.12-.03.02-.08-.01-.12,0-.03.01-.03.11-.07.12-.03,0-.1-.07-.14-.06-.03,0-.03.11-.07.12-.03.01-.08-.01-.11,0-.03.01-.09-.03-.12-.02-.03.01-.07.03-.1.04-.03.01-.03.12-.06.13-.03.01-.08,0-.11,0-.03.01-.06.04-.09.05-.03.01-.11-.07-.14-.05-.02.01-.07.04-.09.06-.03.02-.05.07-.08.08s-.04.08-.08.09-.08-.02-.11,0-.06.05-.09.06c-.03.01-.1-.07-.14-.06s-.02.15-.05.16l-.1.04s-.1-.06-.13-.04l-.1.04s-.03.12-.06.13c-.03.01-.09-.03-.12,0s-.05.06-.08.08c-.03.02-.09-.03-.12-.02s-.06.05-.09.07c-.03.01-.08,0-.11.01-.03.01-.02.13-.05.15-.03.01-.1-.06-.13-.06-.04,0-.07.03-.1.03-.04,0-.06.05-.09.07-.03.01-.09-.03-.12-.02s-.08,0-.11.01l-.1.04s-.05.07-.08.08c-.03.02-.08,0-.11.01-.03.02-.04.08-.08.09s-.04.08-.08.09c-.02,0-.08.01-.11.01-.04,0-.1-.05-.13-.04-.03.01-.04.1-.07.12-.03.02-.09,0-.12.02-.03.02-.06.1-.1.11-.04,0-.1-.11-.15-.11-.04,0-.09.05-.13.05-.05,0-.09-.02-.14-.02-.05,0-.1.01-.15,0-.05,0-.09-.06-.13-.07-.05-.01-.11,0-.15-.03-.04-.03-.07-.07-.11-.1-.04-.03-.04-.1-.07-.13-.03-.03-.17.03-.2-.01-.03-.04.03-.13.01-.17-.02-.04.01-.1,0-.14-.01-.04-.07-.06-.08-.09-.02-.03-.12-.02-.14-.05-.02-.03-.03-.07-.05-.1-.02-.03-.06-.06-.07-.09s0-.08-.01-.12c-.01-.04-.06-.06-.07-.09-.01-.03,0-.07-.02-.11-.01-.04.02-.09,0-.12-.01-.03-.06-.06-.08-.09-.02-.03-.02-.07-.03-.11-.01-.04,0-.08-.01-.11,0-.04.05-.09.05-.12,0-.04-.04-.07-.05-.1s-.07-.05-.09-.09.05-.09.03-.13c-.02-.03-.07-.05-.08-.09,0-.04,0-.08.01-.11s.03-.08.03-.12c0-.04-.07-.06-.08-.1,0-.04-.03-.06-.05-.1-.02-.03,0-.08-.03-.11-.02-.03-.09-.06-.09-.1s0-.08,0-.11c0-.03,0-.08,0-.11,0-.04.1-.08.1-.12,0-.04-.12-.06-.11-.1,0-.04.04-.08.04-.11,0-.04,0-.07,0-.1,0-.03-.02-.07-.02-.11,0-.04.06-.08.05-.11,0-.04-.09-.07-.09-.1s.06-.08.05-.11-.06-.07-.07-.1c0-.04-.02-.07-.03-.11s.02-.07.02-.11.1-.07.1-.11-.02-.07-.02-.11c0-.04-.03-.07-.02-.11,0-.04-.05-.07-.04-.11,0-.04.04-.07.04-.1,0-.04.09-.08.08-.11-.01-.03-.04-.08-.05-.11-.01-.04-.02-.07-.02-.1,0-.04-.02-.07,0-.11.01-.04.04-.07.05-.1s.02-.07.02-.11c0-.04-.08-.07-.08-.11,0-.04,0-.06,0-.11,0-.04-.03-.08-.03-.11,0-.03.03-.07.03-.1,0-.03,0-.07,0-.11v-.1s.04-.07.05-.1c0-.03.02-.07.03-.1,0-.03-.02-.07-.01-.11,0-.03.01-.07.02-.1,0-.03.04-.06.05-.1,0-.03.03-.07.03-.1,0-.03-.04-.07-.05-.11,0-.04.05-.07.04-.11,0-.04-.09-.08-.09-.11,0-.03.06-.06.07-.1s-.02-.07-.01-.11c0-.03.09-.06.1-.09,0-.03-.06-.08-.05-.11.01-.03.08-.05.09-.09.01-.03.07-.06.08-.1,0-.03-.02-.07,0-.11l.02-.1v-.1s-.03-.08-.03-.11c0-.04.05-.07.05-.1,0-.04-.14-.09-.13-.12,0-.03.08-.06.1-.09.01-.03-.03-.08-.02-.11.01-.03.02-.06.03-.1,0-.03.1-.05.11-.09,0-.03,0-.08,0-.1,0-.03.05-.06.06-.1,0-.03,0-.07,0-.11,0-.03-.05-.08-.05-.11,0-.04-.03-.08-.02-.11,0-.03.11-.05.12-.08.01-.03,0-.07,0-.11s.07-.06.08-.09c0-.03-.03-.08-.02-.11.01-.03.06-.05.08-.09.01-.03-.03-.08-.02-.12,0-.03.03-.07.03-.1s-.09-.09-.09-.12c0-.04,0-.08,0-.12,0-.03.15-.03.17-.06.01-.03-.1-.11-.09-.14s.11-.04.12-.07c0-.03-.07-.09-.06-.12,0-.04.1-.05.1-.08,0-.04-.03-.08-.01-.11.01-.03-.01-.08,0-.11,0-.03.02-.07.02-.1,0-.04.07-.05.08-.09l.03-.1s.03-.07.04-.1c.01-.03-.03-.09-.02-.12.01-.03.07-.05.1-.08.02-.03.1-.03.12-.06.02-.03-.05-.1-.03-.13.01-.03.06-.05.07-.08.02-.03.11-.03.13-.06.02-.03.01-.07.03-.1.02-.03.07-.05.08-.08.01-.03-.04-.1-.03-.13.01-.04,0-.08.02-.11.02-.03.1-.03.12-.05.03-.03.05-.05.07-.08.03-.03,0-.09.02-.12.02-.03.01-.07.02-.11.02-.03.1-.03.11-.06.01-.03-.05-.12-.03-.15.02-.03.11-.01.13-.04.02-.03,0-.1.02-.12.03-.03.11,0,.13-.03.02-.03.05-.05.07-.08.01-.02.04-.08.05-.1.02-.03-.02-.11.01-.13.03-.03.13.02.16,0,.03-.02.05-.05.08-.07.03-.02.04-.06.06-.09.03-.02.1,0,.13-.02.02-.02.03-.07.05-.1.02-.02,0-.1.04-.12.03-.02.07-.02.1-.04.03-.02.08-.01.11-.03.03-.02.04-.06.07-.08.03-.02.05-.05.09-.06.03-.01.07-.02.1-.03.03-.01.08-.03.1-.04.03-.01.1.05.14.04.03-.01.02-.11.06-.12.03-.01.11.07.14.06.02,0,.03-.1.03-.09,0,.01-.03.04-.05.05-.02.02-.05.04-.08.06-.03.02-.1-.04-.13-.01-.03.02,0,.13-.02.15-.03.02-.13-.08-.16-.05-.03.02.02.15,0,.17-.03.02-.11-.04-.14-.02-.03.02-.02.09-.04.11-.02.02-.05.04-.07.07-.02.03-.05.04-.08.07-.02.03-.06.04-.08.07-.02.03,0,.09-.02.12-.02.03-.06.03-.09.05-.02.03-.01.08-.04.1s-.09,0-.12.02c-.03.02-.01.08-.03.11-.02.02,0,.08-.02.11-.02.03-.06.04-.08.06-.02.03-.01.07-.03.1-.02.03-.09.01-.11.04-.02.03.03.1.01.13-.01.03-.03.07-.04.09-.02.03-.1.01-.11.04-.02.03,0,.08,0,.11-.02.03-.04.06-.05.08-.01.03-.1.01-.12.04-.02.03,0,.08-.02.11-.02.03-.05.05-.07.08-.02.03-.05.05-.07.08-.02.03.04.1.02.13-.02.03-.12.01-.14.05-.01.03.09.12.07.15-.01.03-.12.02-.14.05-.01.03-.04.06-.05.09-.01.03.06.1.05.13-.01.03-.03.06-.04.09-.01.03-.07.05-.08.08-.01.03.03.08.03.12,0,.04-.04.06-.04.1,0,.04-.01.07-.02.1-.01.03-.02.06-.05.09-.02.03-.04.06-.07.09-.02.03-.11.04-.12.07-.01.03-.02.07-.02.11,0,.04.06.08.06.12,0,.04-.05.06-.05.09,0,.03.03.08.02.11-.01.03,0,.07,0,.11-.01.03-.08.05-.09.08,0,.03,0,.07,0,.11-.01.03-.07.05-.09.08s.02.08.01.11c0,.03.05.08.05.11,0,.04-.07.06-.07.09s-.04.06-.04.1c0,.03-.01.06-.02.1,0,.03-.04.06-.04.1,0,.03.11.09.11.13,0,.03-.07.06-.07.09v.11s-.04.06-.05.1c0,.03.07.08.06.12s-.04.06-.05.1-.04.06-.05.1c0,.03.05.08.04.11,0,.03-.12.05-.13.08,0,.03.11.09.1.12,0,.03,0,.07,0,.1,0,.03-.09.06-.09.09,0,.04-.03.07-.03.1,0,.03.04.08.02.11-.02.03-.01.07-.03.1-.02.03-.13.05-.13.08,0,.03-.02.07-.02.1,0,.04.1.08.1.12,0,.04-.11.06-.11.09,0,.03,0,.07,0,.1,0,.02-.03.08-.03.1,0,.03.04.08.04.11,0,.03.06.08.05.11,0,.03-.06.06-.06.1,0,.03.02.07.01.11s-.08.06-.09.1c0,.04.05.07.05.11,0,.03-.01.07-.02.1s.02.07.03.1c0,.04-.02.07-.01.11s.09.08.09.11-.13.06-.14.09c0,.03,0,.07,0,.1,0,.03-.02.07-.02.1s.07.08.07.11l-.02.1s-.11.06-.12.1-.02.07-.02.1c0,.04.05.07.04.11,0,.03.04.07.04.11,0,.03-.02.07-.02.1s-.03.07-.02.1c0,.04.04.07.04.1,0,.03,0,.07,0,.1,0,.03-.04.07-.04.1,0,.04.11.07.11.1,0,.03,0,.07,0,.1,0,.03-.07.07-.07.1,0,.03.03.07.03.1,0,.03-.03.07-.03.1,0,.03.02.07.03.1,0,.03-.05.07-.04.11,0,.03-.02.07-.02.1,0,.04.14.06.14.09,0,.03-.1.08-.1.11,0,.03.03.07.04.1s.08.06.09.09c0,.03-.04.08-.04.11,0,.03.04.06.05.1,0,.03.04.06.04.1,0,.03-.09.08-.09.12,0,.03.14.04.15.08,0,.03-.09.09-.08.12,0,.03.07.05.08.09s-.01.07,0,.11c0,.03.03.06.04.1,0,.03-.02.08-.01.11,0,.03.07.05.07.09s-.05.08-.05.12c0,.03.04.06.05.09,0,.03.05.05.06.09.01.03-.05.09-.04.12.01.03.04.06.05.09.01.03.12.02.14.05.02.03-.08.11-.06.14.02.03.04.05.06.08.01.03.04.05.04.09,0,.04.07.05.07.09,0,.04-.07.1-.05.13.01.03.02.07.04.1.02.03.1.02.12.04.02.02-.01.08,0,.1.02.03.03.05.04.08s.06.04.07.06c.01.03.04.04.05.06.02.02.03.04.05.05.02,0,.03.03.06.04.02,0,.04.02.06.02.02,0,.06-.04.07-.04.02,0,.03.08.05.08.02,0,.05-.03.07-.03.02,0,.05.05.08.05.03,0,.06,0,.09,0,.03,0,.06-.02.09-.03.03,0,.03-.1.06-.12.03-.02.04-.07.07-.09.03-.02.09.04.12.03.03-.01.06-.05.09-.06.03-.01.08.01.11,0s.08.02.12,0c.03-.01.06-.03.1-.04.03-.02.03-.12.06-.13.04-.02.07-.03.1-.04.03-.01.09.05.13.05.04,0,.05-.09.09-.09.04,0,.11.1.14.08s.02-.13.05-.15c.03-.02.06-.03.1-.05.03-.02.1.07.14.06.03-.01.03-.11.06-.13.03-.02.04-.08.07-.1s.07-.02.1-.04c.03-.01.07-.02.11-.02.04,0,.1.08.14.08.04,0,.05-.09.08-.1.03-.01.09.03.12.01.03-.01.05-.06.09-.07.03-.01.04-.08.08-.1s.11.09.15.08c.03-.01.04-.1.07-.11s.09.04.12.03c.03-.01.06-.04.09-.07s.02-.12.05-.15.09.04.13.02c.03-.01.04-.09.08-.1s.08.02.11,0,.03-.12.06-.13.07-.03.1-.04c.03,0,.1.08.14.08.03,0,.05-.08.08-.09.03-.01.1.06.13.04.03-.01.05-.06.08-.08l.1-.04s.09.03.12.01c.03-.02.06-.04.09-.05.03-.02.03-.11.06-.12.03-.01.08.02.11,0s.03-.11.06-.12.08.02.11,0c.03-.01.04-.08.07-.09.03,0,.07-.02.1-.03.03-.01.09.04.12.02.03-.01.06-.02.1-.04.03-.01.04-.08.07-.09s.05-.06.08-.07c.03-.01.07,0,.11-.02l.09-.05s.09.02.12,0c.03-.02.08,0,.11-.01l.09-.05.09-.05s.02-.11.05-.12c.03-.02.06-.04.08-.06.03-.02.1.04.13.02.03-.02.02-.09.05-.11.03-.02.08,0,.1-.03.03-.02.02-.08.05-.1.03-.02.03-.07.06-.09.03-.02.08,0,.11-.03.03-.02.1.03.13,0s-.02-.13,0-.15c.02-.02.07-.02.09-.05.02-.02.08,0,.11-.03.03-.02-.02-.13,0-.15.02-.01.06-.04.09-.05.03-.02.08-.01.1-.03.02-.02.08-.01.11-.03l.07-.07s-.01-.1.01-.12c.02-.02.05-.04.07-.07.02-.03.1-.01.11-.04.02-.03,0-.08.02-.11.02-.02.04-.05.06-.08.02-.02.03-.06.05-.08.02-.03.01-.07.03-.1.02-.03.05-.04.07-.07s0-.08,0-.11c.02-.03.05-.04.07-.07.01-.03.05-.05.06-.08.02-.03.09-.03.1-.06.01-.03.06-.04.08-.08.01-.03-.05-.09-.04-.12.01-.03-.01-.07,0-.1.01-.03.11-.03.12-.06s0-.07.01-.1c.01-.03,0-.07.02-.1.01-.03.06-.05.06-.09,0-.03-.04-.07-.04-.11,0-.03.06-.06.05-.1,0-.03-.12-.07-.12-.1,0-.03.08-.05.09-.09.01-.03-.02-.07-.01-.1.01-.03.05-.06.05-.1,0-.03-.05-.06-.06-.09,0-.03-.01-.07-.02-.09,0-.03-.04-.06-.04-.09,0-.03.12-.08.12-.12,0-.03-.04-.06-.05-.09,0-.03-.03-.06-.04-.09,0-.03.02-.08.01-.11-.01-.03-.05-.05-.06-.08-.02-.03-.03-.06-.04-.09-.01-.03-.1-.03-.12-.06-.02-.03-.03-.05-.05-.08-.02-.03.08-.11.06-.14-.01-.03-.1-.03-.12-.05-.02-.03-.09-.03-.11-.05-.02-.03-.02-.07-.03-.1-.02-.03.06-.1.06-.14,0-.04-.12-.02-.12-.06,0-.03.1-.13.08-.16-.02-.03-.08-.03-.09-.06-.02-.03-.1-.01-.12-.04-.02-.03.05-.11.03-.14-.02-.03-.1-.01-.13-.04-.03-.02-.09-.02-.12-.04-.03-.02-.04-.06-.06-.09-.02-.03.05-.12.03-.15s-.09-.02-.11-.05-.05-.05-.07-.07c-.02-.03.02-.1,0-.13-.01-.03-.09-.03-.1-.06-.01-.03-.04-.05-.07-.08-.02-.03-.06-.04-.09-.06s.01-.1,0-.13c-.02-.03,0-.09-.02-.12-.02-.03-.09-.02-.11-.05-.03-.02-.05-.04-.08-.07-.03-.02-.12,0-.14-.02-.02-.03.02-.11,0-.14-.01-.03-.08-.03-.09-.07-.01-.03,0-.08-.03-.1-.02-.03,0-.09-.04-.11-.03-.02-.07-.03-.1-.05-.03-.02-.08-.02-.1-.05-.02-.03-.08-.03-.1-.06l-.06-.09s.04-.12.02-.15c-.02-.03-.02-.07-.05-.1-.02-.03-.1-.01-.12-.04s-.07-.03-.09-.06c-.02-.03.01-.11-.01-.13-.03-.02-.14.03-.17.01-.03-.02-.04-.06-.06-.09-.02-.03-.06-.05-.08-.08l-.05-.09s-.05-.05-.07-.07c-.02-.03.03-.12,0-.14-.02-.01-.07-.05-.09-.06-.03-.02-.05-.05-.07-.07-.02-.03-.06-.04-.08-.07s0-.09-.02-.12c-.02-.03-.04-.06-.06-.09-.03-.03-.09-.02-.12-.05-.03-.02-.07-.04-.1-.06-.03-.02-.02-.08-.04-.11-.03-.03-.13.01-.15-.01-.03-.03,0-.1-.03-.12-.03-.03-.03-.08-.05-.1-.03-.03-.03-.07-.05-.1-.02-.03-.07-.04-.09-.07-.02-.03-.08-.03-.11-.05-.03-.03,0-.1-.03-.12-.02-.02-.07-.05-.1-.06-.03-.02-.03-.07-.05-.1-.02-.03-.12,0-.13-.04-.01-.04.01-.1,0-.14-.01-.04-.07-.03-.1-.06-.02-.03-.04-.06-.07-.08-.03-.02,0-.1-.04-.12-.03-.02-.12.01-.14-.02-.02-.03-.06-.05-.08-.08-.02-.03-.01-.09-.04-.12-.02-.03-.03-.08-.05-.1-.02-.03,0-.09-.03-.12-.02-.03-.11,0-.13-.04-.02-.03.03-.12,0-.15-.02-.03-.12.01-.15-.01-.03-.02-.02-.09-.05-.11-.03-.02-.02-.08-.04-.11-.03-.03-.11,0-.13-.02-.02-.01-.07-.05-.09-.06-.03-.03,0-.1-.03-.12-.03-.03-.03-.07-.06-.1-.03-.03-.08-.03-.1-.05-.03-.03-.08-.02-.11-.05-.02-.03-.06-.05-.08-.08-.02-.03-.03-.07-.05-.1-.02-.03-.06-.04-.08-.07-.02-.03,0-.1-.02-.13-.02-.03-.03-.07-.05-.1-.02-.03-.05-.05-.08-.08-.02-.03-.05-.05-.07-.08-.03-.04-.04-.05-.07-.08-.02-.03-.07-.03-.1-.06-.01-.02-.04-.1-.02-.11.01,0,.05.06.06.07,0,0-.05,0-.05.02Z"/>
  </g>
  <circle class="cls-2" cx="121.83" cy="115.38" r="3.16"/>
  <circle class="cls-2" cx="75.84" cy="115.38" r="3.16"/>
</svg>