<?xml version="1.0" encoding="UTF-8"?>
<svg id="Layer_1" data-name="Layer 1" xmlns="http://www.w3.org/2000/svg" viewBox="0 0 200 200">
  <defs>
    <style>
      .cls-1 {
        fill: #f7f;
      }

      .cls-2 {
        fill: #ffd2d4;
      }

      .cls-3 {
        fill: none;
        stroke: #f7f;
        stroke-linejoin: bevel;
        stroke-width: 2.07px;
      }

      .cls-4 {
        fill: #ff5fff;
      }
    </style>
  </defs>
  <path class="cls-2" d="M180.45,123.92c-5.83-5.18-8.82-12.69-13.28-20.73-.03,2.57,1.2,5.2.57,7.52-7.01-11.07-19.8-21.33-32.98-19.27,3.58,1.39,7.15,3.19,9.12,6.25-6.13-.78-12.84-1.87-16.89-6.54-4.32-5-5.19-13.6-11.51-15.51,1.57,1.59,2.26,4,1.77,6.17-4.25-8.89-14.53-12.86-23.86-16.02.8,1.28,1.6,2.56,2.39,3.84-4.1.4-7.91-2.26-10.58-5.41-2.66-3.15-4.61-6.87-7.48-9.83-3.67-3.78-8.59-6.05-13.39-8.23,2,2.53,5.86,4.53,7.08,7.95-10.02-6.73-20.04-13.46-30.06-20.19,1.49,3.44,3.75,6.56,6.55,9.05-7.45-4.15-11.77-12.45-18.95-17.05-8.08-5.17-13.11-6.7-24.32-13,4.56,4.72,9.23,11.43,19.02,16.91-2.38.51-4.92.26-7.15-.7,11.86,12.53,22.85,25.89,32.87,39.94-2.55-1.46-5.1-2.93-7.66-4.39,6.61,9.08,12.36,18.77,17.17,28.92-2.29-.31-4.35-1.96-5.16-4.13,2.87,10.1,10.44,18.76,20.06,22.97-2.72-1.09-8.36-1.48-11.43-2.91.75,3.71,8.84,5.24,10.87,7.11,1.72,1.58,2.82,3.69,4.15,5.6,3.53,5.06,8.88,8.82,14.84,10.41-2.68.87-3.45,6.32-8.72,2.36.05,3.27,11.05,8.57,13.46,10.03,4.5,2.72,8.57,6.16,12.01,10.13-2.18-.54-4.62.1-6.26,1.64,6.03,4.16,7.72,14.33,14.99,15.24-1.72.86-4.64,1.71-5.6.48,5.86,2.81,11.73,5.63,17.59,8.44,4.74,2.27,9.56,4.57,14.73,5.48,7.2,1.26,14.71-.29,21.26-3.54,11.05-5.48,20.27-15.75,22.61-27.85,3.64-18.76-7.82-31.16-7.82-31.16Z"/>
  <path id="stroke" class="cls-3" d="M180.45,123.92c-5.83-5.18-8.82-12.69-13.28-20.73-.03,2.57,1.2,5.2.57,7.52-7.01-11.07-19.8-21.33-32.98-19.27,3.58,1.39,7.15,3.19,9.12,6.25-6.13-.78-12.84-1.87-16.89-6.54-4.32-5-5.19-13.6-11.51-15.51,1.57,1.59,2.26,4,1.77,6.17-4.25-8.89-14.53-12.86-23.86-16.02.8,1.28,1.6,2.56,2.39,3.84-4.1.4-7.91-2.26-10.58-5.41-2.66-3.15-4.61-6.87-7.48-9.83-3.67-3.78-8.59-6.05-13.39-8.23,2,2.53,5.86,4.53,7.08,7.95-10.02-6.73-20.04-13.46-30.06-20.19,1.49,3.44,3.75,6.56,6.55,9.05-7.45-4.15-11.77-12.45-18.95-17.05-8.08-5.17-13.11-6.7-24.32-13,4.56,4.72,9.23,11.43,19.02,16.91-2.38.51-4.92.26-7.15-.7,11.86,12.53,22.85,25.89,32.87,39.94-2.55-1.46-5.1-2.93-7.66-4.39,6.61,9.08,12.36,18.77,17.17,28.92-2.29-.31-4.35-1.96-5.16-4.13,2.87,10.1,10.44,18.76,20.06,22.97-2.72-1.09-8.36-1.48-11.43-2.91.75,3.71,8.84,5.24,10.87,7.11,1.72,1.58,2.82,3.69,4.15,5.6,3.53,5.06,8.88,8.82,14.84,10.41-2.68.87-3.45,6.32-8.72,2.36.05,3.27,11.05,8.57,13.46,10.03,4.5,2.72,8.57,6.16,12.01,10.13-2.18-.54-4.62.1-6.26,1.64,6.03,4.16,7.72,14.33,14.99,15.24-1.72.86-4.64,1.71-5.6.48,5.86,2.81,11.73,5.63,17.59,8.44,4.74,2.27,9.56,4.57,14.73,5.48,7.2,1.26,14.71-.29,21.26-3.54,11.05-5.48,20.27-15.75,22.61-27.85,3.64-18.76-7.82-31.16-7.82-31.16Z"/>
  <g>
    <path class="cls-1" d="M132.34,122.75c-5.11,3.39-9.5,7.88-12.78,13.07-1.2,1.9-2.25,3.89-3.08,5.97-1.12,2.83-1.83,5.85-1.76,8.89.11,5.11,2.36,9.93,4.94,14.34,2.02,3.45,4.32,6.82,7.43,9.34,3.53,2.86,7.89,4.47,12.16,6.02,5,1.82,10.57,3.64,15.5,1.63,2.76-1.13,4.97-3.35,7.73-4.47,1.47-.59,3.06-.86,4.46-1.59,1.46-.75,2.64-1.95,3.78-3.12,3.08-3.16,6.25-6.45,7.82-10.57,1.12-2.96,1.41-6.31,3.28-8.86.55-.75,1.24-1.44,1.44-2.34.19-.82-.06-1.67-.31-2.47-.95-3.07-1.9-6.14-2.85-9.21-.93-3.01-1.87-6.04-3.45-8.77-4.13-7.14-12.12-11.25-20.14-13.18-4.38-1.06-8.97-1.58-13.39-.7-4.42.89-10.79,6.03-10.79,6.03Z"/>
    <path class="cls-4" d="M171.96,154.14c2.83-2.19,4.35-5.97,3.83-9.51-.52-3.54-3.07-6.72-6.42-8,5.77,1.27,9.46,6.76,12.54,11.81.43.7.87,1.43.9,2.25.05,1.11-.63,2.09-1.14,3.08-1.19,2.31-1.48,4.97-2.29,7.44-2.3,7.05-8.54,12-14.74,16.07-4.6,3.02-9.65,5.87-15.15,5.88-5.83.01-11.13-3.17-16.09-6.25-2.33-1.45-4.66-2.89-6.98-4.34,4.09.12,8.18.23,12.27.35-2.98-1.32-5.96-2.63-8.94-3.95,2.61-1,5.52-.06,8.14.92s5.46,2.02,8.14,1.2c2.67-.82,4.51-4.5,2.57-6.51,4.18.03,9.26-1.08,10.53-5.06.64-2,.07-4.17-.51-6.19-.9-3.17-1.79-6.34-2.69-9.52-.24-.85-1.07-6.2-.56-5.47,5.19,7.51,10.13,10.24,14.15,14.52.68.73,1.57,1.49,2.56,1.32.58-.1-.11-.04-.11-.04Z"/>
    <path class="cls-4" d="M175.79,127.76c-2.64-4.34-7.77-7.03-12.84-6.73,6.29,2.73,11.46,7.94,14.14,14.26-.9-.39-1.8-.78-2.7-1.17,3.13,4.66,5.54,9.8,7.11,15.18.18.62,1.17.52,1.67.94s-2.11-11.06-4.59-16.22c-2.48-5.16-5.73-10.44-10.97-12.74"/>
  </g>
</svg>