<?xml version="1.0" encoding="UTF-8"?>
<svg id="tongue" xmlns="http://www.w3.org/2000/svg" viewBox="0 0 390.66 215.84">
  <defs>
    <style>
      .cls-1 {
        fill: #fed5d6;
      }

      .cls-2 {
        fill: #fec4c6;
      }

      .cls-3 {
        fill: #fec4c6;
      }

      .cls-4 {
        fill: #fe80fe;
      }
    </style>
  </defs>
  <g>
    <path class="cls-1" d="M244.98,155.24c-2.39-.42-3.78-.67-3.78-.67,4.17-15.86,9.86-36.64-7.45-48.13,16.57-12.04,15.48-35.53,1.61-49.33,0,0,4.87-15.97,2.12-25.36-2.75-9.39-14.62-16.64-19.44-17.9-25.62-9.55-43.85-10.64-67.21-12.1-36.98.72-74.19,5.25-98.38,32.31-11,12.3-43.61-4.22-49.69,44.27-6.08,48.49,11.69,64.68,54.56,83.42,20.25,8.85,41.27,14.92,72.93,23.15,62.81,20.94,160.3,25.11,175.43,26.42,15.13,1.31,81.19,9.33,83.42-10.83,2.88-21.4-30.32-28.44-71.4-32.35-10.71-1.9-21.42-3.8-32.14-5.7-8.17-1.45-16.34-2.9-24.51-4.35-6.71-1.19-14.14-3.98-20.62-4.68-8.1-.87-16.19-1.74-24.29-2.61"/>
    <path class="cls-4" d="M228.42,149.43c2.21.24,3.86.73,5.23.91,1.86.25,3.43.19,5.29.44.69.1,1.34.23,2.19.41.83.17,1.77.36,2.91.6,2.24.43,3.56,1.26,4.83,1.61,1.79.5,3.44.45,5.2.96,1.24.36,2.51,1.11,4.6,1.59,1.04.24,1.92.38,2.7.5.81.12,1.5.21,2.13.32,1.81.31,3.1.32,4.91.64,1.25.24,2.78.53,4.91.94,2.14.38,3.76.5,5.02.74,1.8.35,2.75,1.28,4.56,1.63,1.25.24,2.9.38,5.03.76,2.15.38,3.67.49,4.92.76,1.79.35,3.11.62,4.91.97,1.25.27,2.77.28,4.91.66,2.14.38,3.55.66,4.81.86,1.81.28,3.2,1.02,5.01,1.31,1.26.2,2.68.46,4.82.84.27.04.55.1.68.1.25.02.5.03.73.05.47.02.91.04,1.31.06.82.03,1.52.05,2.16.13,1.82.24,3.05.51,4.86.77,1.27.17,2.88.2,5.04.46,2.19.28,3.78.57,5.07.68,1.8.17,2.75-.29,4.55-.1,1.29.13,3.06,1.12,5.23,1.49,2.17.39,3.77.34,5.03.66,1.78.42,2.72,1.08,4.48,1.53,1.24.35,2.94.89,5.06,1.47,2.11.58,3.72.86,4.95,1.25.89.26,1.65.37,2.41.5.76.12,1.53.23,2.41.58,1.22.46,2.67,1.29,4.67,2.27.5.24.97.47,1.41.68.43.22.84.43,1.22.63.77.37,1.4.75,1.96,1.11,1.62,1.06,2.26,2.36,3.68,3.61.93.94,2.15,2.08,3.37,4.03.34.47.58.96.82,1.43.25.46.47.9.62,1.34.17.43.33.84.47,1.21.11.39.21.75.3,1.08.31.93.41,1.73.62,2.52.11.79.26,1.62.22,2.59-.01.34-.03.69-.04,1.06,0,.36-.02.77-.09,1.23-.1.9-.36,1.98-.97,3.1-1.24,2.25-2.58,3.56-3.72,4.39-1.69,1.15-2.96,1.63-4.75,2.36-1.26.5-2.91.56-5.04,1.13-2.14.56-3.58,1.06-4.86,1.27-1.84.29-3.18.74-5.04.93-1.29.12-2.84.05-5.02.21-2.19.16-3.49.77-4.78.87-1.84.14-3.41-.15-5.25-.06-1.28.06-2.8.37-4.99.35-2.2-.02-3.75-.39-5.03-.42-1.84-.05-3.13-.36-4.97-.44-1.28-.08-2.8-.17-4.97-.3-2.18-.13-3.75.18-5.03.06-1.83-.17-3.26-.06-5.08-.26-1.27-.13-2.64-.87-4.8-1.06-2.17-.2-3.73-.13-5-.25-1.83-.17-3.12.18-4.94.03-1.26-.11-2.79-.45-4.95-.61-2.17-.15-3.48-.79-4.76-.91-1.82-.19-3.09-.33-4.91-.52-1.27-.12-3.07.61-5.24.45-2.17-.15-3.62-.33-4.9-.4-1.83-.12-3.13-.21-4.96-.33-1.27-.08-2.84-.77-5-.93-2.17-.17-3.75.14-5.03.04-1.83-.16-3.06-.74-4.88-.9-1.27-.1-2.87.4-5.03.19-2.17-.21-3.73-1.12-5-1.22-1.83-.15-3.06.17-4.89,0-1.27-.12-2.83-.07-4.99-.3-2.17-.23-3.71-.33-4.98-.46-1.82-.18-3.09-.51-4.92-.72-1.27-.15-2.84-.03-4.99-.29-2.16-.26-3.56-.38-4.83-.52-1.82-.21-3.23-.83-5.05-1.03-1.27-.14-2.76-.4-4.92-.69-2.18-.28-3.64-.47-4.9-.72-1.78-.35-3.49-.19-5.27-.53-1.26-.25-2.37-1.13-4.54-1.46-2.17-.31-3.73-.32-5.01-.48-1.8-.24-3.28-.8-5.08-1.04-1.27-.17-2.6-.08-4.76-.45-2.16-.39-4-.32-5.25-.61-1.78-.42-2.38-1.43-4.16-1.85-1.24-.3-3.1-.2-5.24-.65-2.13-.48-3.64-1.09-4.89-1.35-1.8-.38-3.05-.4-4.85-.77-1.25-.28-2.74-.7-4.84-1.28-2.11-.55-3.56-.99-4.8-1.32-1.78-.48-3.23-.36-5.01-.84-1.25-.31-2.65-.81-4.73-1.45-2.08-.64-3.28-1.69-4.5-2.08-1.75-.55-3.06-.85-4.81-1.36-1.22-.34-2.68-.99-4.77-1.54-2.11-.56-3.64-.27-4.9-.55-1.77-.39-3.08-.77-4.84-1.17-1.25-.28-2.71-1.08-4.82-1.66-2.11-.54-3.6-.93-4.84-1.25-1.76-.49-3.1-.56-4.86-1.08-1.23-.35-2.56-1.27-4.64-1.89-2.1-.62-3.36-.94-4.58-1.36-1.71-.6-2.92-1.07-4.62-1.69-1.21-.43-3.02-.63-5.11-1.32-2.07-.69-3.49-1.33-4.7-1.72-1.74-.6-2.99-.85-4.73-1.47-1.2-.44-2.63-1.1-4.66-1.89-2.04-.79-3.46-1.48-4.65-1.95-1.72-.67-2.98-.82-4.68-1.52-1.19-.48-2.39-1.7-4.38-2.58-1.99-.9-3.57-1.31-4.75-1.82-1.67-.77-2.89-1.08-4.56-1.87-1.16-.55-2.62-1.09-4.56-2.12-1.95-1-3.17-1.98-4.29-2.61-1.59-.95-2.83-1.5-4.39-2.51-1.09-.69-2.28-1.69-4.1-2.93-.92-.6-1.71-1.09-2.44-1.47-.73-.38-1.36-.72-1.87-1.12-.74-.57-1.35-1.12-1.93-1.7-.58-.58-1.15-1.17-1.87-1.77-.5-.42-1.05-.88-1.71-1.4-.66-.51-1.38-1.15-2.15-1.96-.79-.79-1.35-1.57-1.84-2.26-.49-.68-.91-1.27-1.29-1.81-.57-.76-1.02-1.41-1.42-2.11-.39-.7-.78-1.39-1.31-2.17-.66-1.12-2.12-2.14-3.13-4.17-.55-.99-.76-1.94-1-2.75-.24-.81-.37-1.53-.59-2.14-.68-1.75-1.35-2.97-1.89-4.78-.3-1.28-.73-2.79-1.12-4.98-.22-1.09-.41-2-.57-2.8-.16-.8-.34-1.48-.41-2.13-.22-1.86-.28-3.23-.39-5.09-.12-1.3.24-2.92.22-5.12.02-2.2-.02-3.69.06-4.98.15-1.84-.05-3.28.17-5.12.14-1.28.45-2.77.71-4.95.22-2.18.13-3.89.35-5.17.28-1.84.73-3.06,1.12-4.88.13-.64.28-1.32.46-2.11.19-.79.36-1.71.68-2.77.34-1.08.67-1.96.95-2.73.3-.77.6-1.41.81-2.04.15-.44.31-.86.48-1.27.19-.41.41-.79.61-1.19.41-.79.82-1.57,1.25-2.39.3-.59.62-1.19,1.01-1.87.44-.65.94-1.42,1.61-2.35.73-.87,1.3-1.64,1.9-2.22.6-.59,1.09-1.11,1.59-1.56,1.44-1.26,2.26-2.63,3.94-3.66.58-.35,1.17-.81,1.92-1.24.37-.22.77-.46,1.19-.71.44-.22.93-.45,1.45-.68,2.16-.9,3.75-.49,5.01-.82,1.82-.43,3.13-.7,4.96-1,1.27-.22,2.85-1.23,4.99-1.61,2.13-.37,3.69.02,4.92-.24,1.75-.4,2.95-.87,4.57-1.49,1.1-.5,2.22-1.51,3.6-2.76.64-.61,1.4-1.27,2.04-1.8.64-.54,1.2-.99,1.64-1.46.64-.68,1.11-1.29,1.6-1.9.47-.62,1.04-1.15,1.72-1.79.98-.86,2.6-1.53,4.3-2.91,1.77-1.3,2.46-2.73,3.5-3.54.37-.28.73-.55,1.1-.77.38-.2.75-.4,1.13-.6.75-.39,1.49-.78,2.27-1.29.54-.36,1.12-.78,1.81-1.26.68-.48,1.52-.92,2.5-1.45.98-.51,1.79-1.01,2.5-1.46.35-.22.68-.43.99-.63.32-.17.63-.32.93-.46,1.71-.75,2.92-1.28,4.63-2.04,1.2-.5,2.76-.86,4.83-1.63,2.08-.8,3.69-.87,4.94-1.23,1.79-.46,3.09-1.09,4.92-1.45,1.26-.27,2.69-.52,4.83-1.05,2.15-.45,3.93-.23,5.18-.51,1.8-.41,2.72-1.28,4.54-1.6,1.27-.2,2.93-.34,5.1-.59,2.19-.26,3.77.05,5.05-.1,1.83-.19,3.12-.37,4.95-.53,1.28-.12,2.82-.48,4.99-.6,2.18-.13,3.77-.77,5.05-.81,1.85-.06,3.07.43,4.91.37,1.28-.05,2.84-.21,5.02-.27,1.09-.03,1.98-.14,2.76-.26.96-.14,1.58-.12,2.23-.12,1.83.07,3.4.78,5.23.85,1.28.05,2.71-.48,4.88-.33,2.18.16,3.87.26,5.15.39,1.83.21,2.76,1.05,4.59,1.28,1.27.17,2.97.3,5.14.59,2.17.25,3.71.31,4.98.5,1.83.26,3.24.07,5.07.37,1.27.24,2.62,1.26,4.76,1.69,2.14.47,3.81.07,5.07.39,1.8.43,2.96,1.28,4.73,1.77,1.24.33,2.79.48,4.87,1.13,2.11.62,3.62,1.38,4.86,1.75,1.77.52,2.97.5,4.72,1.08.61.2,1.28.45,2.06.75.18.06.36.12.55.18.24.08.49.16.72.26.48.19,1,.39,1.51.64,2.1.99,3.11,2.07,4.19,2.81,1.56,1.05,2.83,1.77,4.26,3.01.99.86,2.47,1.72,4.03,3.41.74.88,1.35,1.66,1.79,2.43.23.37.44.72.64,1.04.18.34.36.65.54.94.55.8.82,1.68,1.15,2.49.12.43.25.86.37,1.29.07.22.14.44.21.66.06.23.11.46.17.7.17.66.55,1.3.82,2.08.15.39.32.82.44,1.29.1.47.18.99.22,1.57.09,2.31-.31,3.89-.41,5.2-.17,1.88-.16,3.24-.47,5.1-.2,1.29-.6,2.8-1.06,4.96-.24,1.08-.56,1.99-.87,2.78-.08.2-.15.39-.22.57l-.11.27-.07.15c-.09.2-.17.4-.21.55-.02.05-.03.11-.04.15.14.16.29.31.42.45.24.25.46.48.69.72.53.55,1.07,1.11,1.58,1.84.4.53.89,1.06,1.46,1.69.57.63,1.09,1.45,1.69,2.41.62.96,1,1.85,1.36,2.63.35.78.69,1.44.93,2.06.64,1.81,1.18,3.06,1.6,4.94.15.65.37,1.36.47,2.21.1.85.22,1.81.39,2.94.09,1.15.04,2.06.02,2.85,0,.79-.13,1.45-.2,2.12-.11.93-.1,1.79-.2,2.64-.13.85-.25,1.7-.45,2.61-.1.66-.44,1.36-.72,2.18-.3.82-.58,1.76-1.07,2.79-.22.52-.41,1.01-.58,1.46-.16.46-.33.89-.54,1.26-.38.77-.7,1.44-1.02,2.02-.22.43-.43.81-.67,1.16-.22.36-.43.7-.64,1.04-.21.34-.42.69-.64,1.05-.12.18-.24.36-.36.55-.15.17-.3.34-.46.52-.83.89-2.29,2.72-2.75,2.97-.18.15-.35.3-.5.43l-.05.05s.03.02.05.03l.1.07c.07.04.13.08.19.12.2.11.54.37.81.57l.14.11s.08.07.18.17c.16.17.32.33.48.5.3.34.6.66.87,1.02.53.71,1.06,1.41,1.67,2.16.86,1.03,2.23,2.03,3.3,4.15,1.06,2.1,1.62,3.75,1.99,5.07.49,1.92.31,3.27.52,5.18.11,1.33.09,2.95.06,5.19-.04,2.3.48,3.41.46,4.8-.06,1.85-.72,3.85-.92,5.65-.15,1.36-.6,2.76-1.1,4.98-.37,1.64-.15,3.79-.58,5.09-.06.19-.13.37-.2.55l-.11.26-.05.13s-.02.02-.03.03c-.08.06-.18.14-.28.24-.11.11-.21.2-.31.29-.1.1-.2.22-.28.34-.08.09-.03.12,0,.16.02.04.03.08.03.13,0,.09-.04.18-.08.28-.08.19-.2.38,0,.55.5.44,1.58.81,1.54,1.1-.08.28.13.68-1.06.8-.48.05-1.33-.04-2.3-.15-.49-.06-1.02-.12-1.53-.18l-.4-.04c-.06-.01-.14,0-.19-.03l.03-.18c.04-.24.08-.48.12-.71.11-.77.29-1.6.49-2.45.1-.42.2-.85.31-1.32.07-.33.14-.67.22-1.05.24-1.23-.11-2.33.25-3.85.36-1.54.5-2.99.75-4.08.33-1.45.8-2.54,1.05-3.71.23-1.18.28-2.42.45-3.88.14-1.1.29-2.21.33-3.74.03-2.07.48-3.43.39-4.67-.15-1.75-.64-3.06-1.03-4.73-.3-1.15-.44-2.64-1.35-4.49-.94-1.87-2.21-2.52-2.95-3.41-.28-.31-.53-.62-.77-.93-.26-.3-.51-.58-.76-.87-.24-.3-.51-.57-.8-.84-.14-.14-.29-.27-.43-.41l-.23-.21c-.08-.07-.26-.19-.38-.29-.39-.29-.79-.6-1.23-.93-.45-.35-.93-.72-1.45-1.12-.27-.21-.55-.42-.83-.64-.14-.11-.29-.22-.44-.33l-.22-.17-.11-.09s-.09-.06-.02-.09c.58-.47,1.21-.98,1.89-1.53.66-.54,1.29-1.04,1.87-1.48.29-.22.57-.43.84-.63.16-.13.31-.26.45-.39.57-.49,1.08-.91,1.5-1.34.64-.6.96-1.33,1.31-2.01.17-.34.35-.68.54-1.02.1-.17.2-.34.31-.51.1-.18.19-.36.3-.55.58-1.03,1.69-2.05,2.41-3.99.19-.48.39-.92.47-1.37.08-.45.14-.87.2-1.27.09-.8.24-1.46.33-2.05.3-1.67,1.24-2.56,1.32-4.33.02-.61.16-1.32.1-2.13-.04-.82-.08-1.74-.12-2.78-.15-1.04-.29-1.99-.42-2.83-.13-.84-.38-1.55-.53-2.14-.44-1.71-1.5-2.26-2.12-3.85-.19-.57-.45-1.21-.69-1.99-.27-.76-.51-1.67-1.08-2.54-.54-.89-.92-1.64-1.3-2.27-.41-.61-.75-1.13-1.09-1.64-.23-.34-.48-.66-.73-.97-.27-.29-.56-.55-.85-.82l-.43-.4-.21-.2-.33-.33c-.48-.5-.97-1.01-1.44-1.55.04-.12.08-.24.12-.37.34-1.03.74-2.16.98-2.75.28-.73.57-1.58.8-2.63.46-2.09.4-3.66.59-4.89.3-1.77.64-2.97.81-4.75.11-1.24,0-2.73-.06-4.79-.06-1.03-.05-1.93-.14-2.69-.03-.79-.16-1.43-.32-1.99-.09-.4-.24-.76-.39-1.08-.15-.33-.29-.64-.42-.96-.38-.6-.65-1.22-1.14-1.9-.33-.49-.71-1.01-1.24-1.56-.48-.58-1.1-1.19-1.75-1.96-1.37-1.5-2.58-2.56-3.5-3.35-1.29-1.14-1.91-2.09-3.34-3.11-1.01-.69-2.4-1.28-4.23-2.15-.91-.44-1.69-.77-2.33-1.01-.13-.05-.26-.1-.39-.15l-.27-.11c-.18-.07-.34-.15-.51-.21-.33-.14-.64-.26-.94-.37-1.72-.62-2.98-.9-4.71-1.46-1.2-.39-2.68-.76-4.74-1.36-2.05-.64-3.44-1.38-4.65-1.72-1.74-.52-2.9-.99-4.66-1.45-1.22-.33-2.69-.88-4.8-1.34-2.12-.44-3.63-.08-4.87-.28-1.8-.24-3.07-.47-4.88-.68-1.26-.14-2.88-.23-5.01-.48-2.13-.28-3.58-.38-4.84-.51-1.81-.18-3.17-.94-4.99-1.1-1.27-.08-2.74-.07-4.89-.23-2.16-.15-3.75.11-5.02.02-1.82-.14-3.05-.46-4.88-.59-.32-.02-.65-.04-1.01-.06-.18,0-.36-.01-.55-.02h-.29c-.08-.01-.05,0-.16,0-.81.05-1.74.1-2.82.12-2.17.06-3.8.31-5.07.36-1.82.04-2.9-.63-4.73-.59-1.27.01-2.89.65-5.04.78-1.08.07-2,.18-2.82.28-.81.12-1.51.23-2.14.29-1.81.16-3.09-.38-4.91-.22-1.26.15-2.75.83-4.88,1.09-2.15.23-3.89-.02-5.14.19-1.79.34-2.75,1-4.51,1.42-1.23.28-2.75.75-4.85,1.17-2.08.5-3.88.23-5.11.56-1.76.44-2.79,1.13-4.52,1.67-1.19.42-2.46,1.2-4.43,1.97-2,.73-3.53.55-4.73.96-1.67.69-2.82,1.63-4.48,2.31-1.18.44-2.44,1.24-4.33,2.21-.95.5-1.79.96-2.52,1.41-.71.48-1.32.89-1.87,1.2-.77.44-1.44.77-2.11,1.09-.66.34-1.36.63-2.08,1.15-1.03.7-2.25,1.4-3.97,2.66-.44.31-.81.62-1.11.95-.31.31-.59.61-.84.88-.5.55-.92,1.03-1.38,1.46-.65.6-1.22,1.12-1.78,1.64-.54.55-1.05,1.13-1.65,1.78-.42.47-.95.97-1.57,1.55-.31.29-.63.6-.98.93-.38.37-.78.76-1.2,1.17-1.84,1.73-3.46,2.55-4.74,3.1-1.85.73-3.23,1.37-5.1,1.78-1.3.27-2.82-.06-4.97.32-2.15.38-3.74.48-4.98.73-1.78.37-2.92.89-4.63,1.37-1.2.33-2.44,1.24-4.34,1.99-.93.41-1.79.6-2.51.83-.37.11-.72.2-1.05.3-.31.12-.6.25-.86.41-.37.23-.73.42-1.06.62-.32.22-.63.42-.93.63-.63.39-1.2.87-1.87,1.43-.49.37-.84,1.01-1.27,1.7-.46.66-.86,1.49-1.51,2.27-.64.8-1.25,1.5-1.87,2.08-.57.62-1.05,1.18-1.34,1.73-.44.76-.53,1.48-.69,2.15-.14.68-.3,1.34-.57,2.18-.2.58-.39,1.26-.63,2.03-.2.79-.41,1.69-.73,2.68-.34.99-.57,1.9-.86,2.67-.27.78-.54,1.45-.66,2.06-.38,1.73-1.01,2.74-1.3,4.52-.22,1.24-.08,2.81-.29,4.96-.26,2.13-1,3.66-1.08,4.93-.14,1.81.56,2.93.49,4.73-.07,1.25-.7,2.87-.75,5.02.04,2.14.28,3.65.39,4.9.07.9.12,1.66.18,2.43.09.76.17,1.52.27,2.41.06.62.22,1.29.39,2.07.16.78.33,1.66.54,2.69.37,2.08,1.01,3.49,1.3,4.68.21.86.35,1.58.44,2.33.09.75.23,1.49.55,2.32.41,1.17,1.44,2.35,2.33,4.22.49.92.83,1.71,1.19,2.38.36.67.67,1.24,1,1.76.98,1.44,1.43,2.82,2.56,4.19.38.49.78,1.02,1.28,1.61.5.59,1.03,1.31,1.78,2.05,1.44,1.58,2.23,2.44,3.08,3.36,1.26,1.22,2.41,2.11,3.76,3.25.94.85,2.63,1.38,4.39,2.62.89.59,1.55,1.24,2.13,1.83.59.57,1.1,1.08,1.63,1.41,1.53.98,2.95,1.06,4.5,1.98,1.11.6,2.1,1.96,4.02,2.95,1.91,1.01,3.6,1.12,4.73,1.69,1.62.83,2.46,1.91,4.1,2.71,1.15.55,2.82.62,4.79,1.52,2.01.88,3.27,1.72,4.47,2.15,1.68.61,2.81.8,4.49,1.37,1.2.42,2.66,1.49,4.7,2.28,2.02.8,3.66.75,4.85,1.19,1.7.63,2.93,1,4.64,1.61,1.2.41,2.66.91,4.69,1.61,2.07.68,3.1,1.74,4.3,2.18,1.68.62,3.57.7,5.25,1.3,1.21.43,2.21,1.37,4.31,1.98,2.08.62,3.6.91,4.82,1.25,1.76.49,2.97,1.03,4.74,1.51,1.23.33,2.84.16,4.93.72,2.09.57,3.48,1.32,4.71,1.67,1.76.5,2.85,1.15,4.62,1.64,1.23.34,2.94.16,5.03.71,2.16.56,3.74,1.47,5.01,1.73,1.76.37,3.06.77,4.8,1.19,1.25.31,2.42.77,4.53,1.41,2.09.64,3.97.5,5.2.84,1.72.53,2.65,1.17,4.37,1.69,1.22.37,2.7.71,4.81,1.26,2.1.58,3.56.89,4.81,1.13,1.78.33,3.06.56,4.85.89,1.25.24,2.79.53,4.89,1.01,2.14.46,4.02.56,5.26.88,1.74.43,2.69,1,4.43,1.44,1.25.31,2.58,1.09,4.74,1.5,2.15.37,3.63-.02,4.9.16,1.8.23,3.08.4,4.89.64,1.26.19,2.92.45,5.07.78,2.14.33,3.68,1.09,4.94,1.26,1.81.24,3.02-.02,4.83.22,1.26.17,2.8.48,4.95.76,2.17.29,3.84.38,5.1.6,1.78.31,2.88.74,4.66,1.06,1.26.23,2.82.18,4.99.44,2.15.26,3.58.9,4.85,1.07,1.82.23,3.2.11,5.02.33,1.27.15,2.72.7,4.88.92,2.19.23,3.51-.22,4.8-.15,1.78.1,3.13.16,4.91.23,1.29.05,3.04.15,5.23.36,2.17.21,4.02.21,5.29.36,1.8.22,2.4,1.25,4.19,1.47,1.27.16,3.11.25,5.29.43,2.16.17,3.69.15,4.96.26,1.83.15,3.22-.29,5.04-.14,1.27.1,2.73.68,4.9.83,2.17.16,3.69.04,4.97.1,1.83.09,3.12.15,4.95.24,1.28.06,2.82.45,4.99.59,2.18.15,3.72.38,5,.49,1.83.17,3.12.28,4.95.45,1.27.12,2.84-.15,4.99.05,2.16.2,3.67.56,4.94.66,1.82.15,3.14-.14,4.97-.01,1.27.09,2.74.9,4.9,1.03,2.17.13,3.65-.03,4.92.05,1.82.11,3.32-.39,5.14-.31,1.27.06,2.66.49,4.82.52,2.17.02,3.84.25,5.11.19,1.81-.08,2.83-.63,4.63-.75,1.26-.09,2.92.42,5.07.26,2.17-.16,3.5-.44,4.76-.52,1.78-.13,3.21-.51,4.96-.73,1.25-.17,2.66-.65,4.71-1.18,2.04-.53,3.75-.6,4.88-1.13,1.57-.75,2.44-1.48,3.74-2.46.9-.72,1.74-1.77,2.61-3.24.84-1.5.74-2.69.83-3.9.05-.42.06-.8.07-1.16.03-.37.05-.72.08-1.08-.05-.7.03-1.44-.23-2.21-.08-.27-.16-.55-.25-.85-.13-.29-.27-.59-.42-.91-.07-.16-.15-.33-.22-.5-.1-.17-.2-.34-.3-.52-.22-.35-.38-.76-.67-1.15-1-1.64-2-2.66-2.81-3.5-1.24-1.14-2.07-2.03-3.52-3-1.01-.67-2.22-1.56-4.11-2.48-1.88-.94-3.36-1.3-4.5-1.77-.82-.35-1.55-.6-2.27-.85-.72-.25-1.45-.5-2.31-.78-1.18-.41-2.58-.99-4.64-1.56-2.07-.56-3.53-1.19-4.76-1.48-1.78-.39-3.08-.15-4.86-.49-1.24-.25-2.76-.48-4.88-.86-2.13-.35-3.67-.6-4.92-.81-1.8-.3-3.07-.5-4.87-.77-1.25-.19-2.7-.71-4.85-.98-2.15-.26-3.7-.32-4.96-.48-1.81-.24-3.24-.01-5.06-.23-.63-.08-1.28-.31-2.05-.56-.38-.12-.79-.25-1.24-.36-.22-.05-.46-.1-.71-.15-.15-.02-.3-.05-.46-.07-.14-.03-.27-.05-.41-.08-2.15-.38-3.61-.07-4.88-.26-1.81-.24-3.08-.41-4.9-.65-1.26-.18-2.89-.84-5.03-1.22-2.16-.38-3.41-.86-4.66-1.14-1.76-.39-3.42-.36-5.19-.75-1.25-.28-2.61-.87-4.77-1.26-2.15-.38-3.74-.66-5-.86-1.81-.28-2.97.15-4.78-.13-1.26-.2-2.86-.89-5-1.27-2.15-.38-3.65-.42-4.92-.62-1.81-.29-3.16-.96-4.97-1.25-.63-.1-1.31-.17-2.1-.26-.81-.1-1.74-.24-2.82-.48-2.17-.5-3.66-.87-4.89-1.21-1.78-.5-3.17-.56-4.93-1.03-1.22-.32-2.49-1.32-4.59-1.72-2.15-.42-3.77-.16-5.13-.23-1.8-.08-3.05.03-4.84-.05-1.34-.06-2.95-.17-5.18-.41-1.63-.18-3.68-.04-4.93-.27-1.52-.28-2.44-.9-3.45-1.22-1.18-.37-1.21-.8-1.79-1.15-.72-.43-2.14-.88-2.11-1.16.03-.28-.12-.76.59-1,.6-.2,3.22.19,4.46.11,1-.06,1.49-.45,2.99-.38,1.18.06,2.65-.2,4.19-.03Z"/>
  </g>
  <g>
    <path class="cls-2" d="M221.85,21.3c-3.01,3.47-7.64,5.17-12.2,5.65-4.57.48-9.17-.13-13.74-.56-31.3-2.97-62.73,2.32-93.73,7.59-8.4,1.43-16.84,2.86-24.94,5.51-7.9,2.58-15.44,6.3-22.29,11.01-1.92,1.32-3.84,2.74-6.07,3.42-2.23.68-4.91.45-6.55-1.2,7.27-13.68,18.98-24.78,32.54-32.29,13.56-7.5,28.9-11.51,44.34-12.71,6.68-.52,13.4-.53,20.1-.55,8.73-.01,17.46-.03,26.19-.04,7.38-.01,14.78-.02,22.12.78,12.66,1.39,25.05,5.23,36.28,11.25"/>
    <path class="cls-2" d="M220.89,22.9c-.97.92-2.26,1.74-3.65,2.36-1.39.62-2.85,1.06-4.18,1.4-2.59.67-4.99,1.47-7.77,1.44-2.76-.04-5.44-.51-8.08-.73-2.61-.21-5.14-.08-7.79-.24-2.61-.09-5.38-.44-8.05-.44-2.62-.06-5.29-.09-7.96-.05,0,0-.78-.15-2.14-.25-1.37-.1-3.33-.22-5.68-.12-2.34.11-5.21.4-8.08.64-2.56.17-5.07.9-7.75,1.17-3.47.4-6.62.3-8.6.64-2.74.45-4.73.82-7.46,1.31-1.98.34-3.98.6-7.44,1.13-3.24.53-6.24,1.38-9.48,1.94-3.24.56-6.49,1.12-9.74,1.68-3.24.58-6.54,1.04-9.77,1.63-3.22.59-6.47,1.18-9.65,1.92-3.18.73-6.31,1.56-9.39,2.57-3.09,1-5.84,2.6-8.77,3.91-2.94,1.33-6.09,3-8.88,4.64-1.38.81-2.72,1.44-4.05,2.11-1.33.65-2.66,1.43-4.19,2.29-1.5.84-3.26,1.75-5.31,1.97-1.01.12-2.07.08-3.12-.2-1.05-.27-2.08-.83-2.89-1.64l-.32-2.15.05-.09c1.6-2.98,3.19-5.83,5.16-8.59,1.97-2.76,4.51-5.2,6.81-7.64,2.3-2.46,4.81-4.66,7.38-6.8,2.56-2.15,5.15-4.8,8-6.61,2.84-1.82,5.78-3.26,8.77-4.76,3-1.5,6.04-2.46,9.15-3.66,3.12-1.19,6.34-2.17,9.55-3.07,3.21-.91,6.4-1.91,9.68-2.54,3.28-.64,6.71-1.42,10.03-1.75,3.33-.33,6.41.31,9.71.19,3.31-.12,6.79-.78,10.09-.78,3.31,0,6.34.58,9.63.59,3.3.02,7.3-.58,10.56-.49,3.24.09,6.07.41,9.29.5,3.26.09,6.29.45,9.58.52,2.94.07,5.78.23,8.46.42,2.96.2,5.75.55,8.37.94,2.97.44,5.81.76,8.34,1.36,2.99.71,5.76,1.41,8.12,2.21,3.18,1.07,6.56,2.05,8.68,3.03,4.42,2.01,7.49,4.3,7.65,4.53.15.29-3.33-1.07-8.05-2.93-2.1-.84-4.92-1.81-8.1-2.81-2.34-.75-5.52-1.71-8.53-2.43-2.5-.59-4.85-1.71-7.83-2.19-2.62-.42-5.61-.35-8.56-.54-2.68-.19-5.28,0-8.21-.04,0,0-3.38-.47-8.06-.38-2.32.04-4.65.53-7.51.57-2.54.04-5.39-.04-8.08-.01-3.45.03-6.03-.59-8.06-.59-2.92,0-4.99,0-7.91.01-2.03.01-4.42.49-7.84.62-3.48.13-7.13.12-10.57.51-3.44.39-6.96.82-10.36,1.51-3.4.69-6.63,1.56-9.95,2.53-3.33.97-6.52,1.76-9.78,3.03-3.24,1.27-6.38,2.89-9.45,4.49-3.08,1.6-6.03,3.61-8.86,5.59-2.84,1.99-4.7,4.17-7.23,6.47-2.5,2.3-5.09,4.82-7.26,7.43-2.19,2.61-4.72,5.52-6.56,8.41-.53.84-1.06,1.66-1.62,2.46-.53.82-1.05,1.63-1.58,2.45l-.29-1.99c.56.71,1.58,1.19,2.77,1.24,1.43.08,2.87-.58,4.25-1.54,1.37-.94,2.74-2.19,4.27-3.17,3.02-1.97,6.07-3.58,9.27-5.2,3.22-1.62,6.66-2.84,10.03-4.09,3.36-1.26,7.02-2.02,10.46-2.89,3.46-.86,6.65-1.6,10.12-2.22,3.5-.62,7.51-1.96,10.98-2.48,3.44-.5,6.77-.87,10.21-1.35,3.46-.49,6.48-.46,9.95-.96,2.46-.34,5.41-.49,8.76-.92,2.73-.38,5.8-1.13,8.94-1.5,2.86-.31,5.86-.67,8.91-.93,1.47-.14,2.99-.35,4.52-.54,1.53-.19,3.07-.41,4.57-.47,1.5-.05,3.01-.11,4.5-.16,1.5-.02,2.98-.04,4.45-.06,1.53-.05,3.06-.04,4.56-.04,1.5.01,2.98-.02,4.41.05,1.58.05,3.15.07,4.68.08,1.52.06,2.99.12,4.36.2,1.7.08,3.19.36,4.56.59,1.37.24,2.62.45,3.84.59,1.69.16,5.56.82,9.87.85,1.66,0,3.59-.24,5.39-.71,1.8-.47,3.46-1.16,4.75-1.77,2.41-1.13,3.86-2.39,4.49-2.79.32-.2.43-.18.29.1-.15.28-.53.85-1.36,1.6-.67.66.94-.51.55-.13Z"/>
  </g>
  <g>
    <path class="cls-3" d="M354.46,182.39c-1.51,1.86-1.81,22.18-.65,23.12s23.96,1.48,26.34-2.84c2.38-4.32,1.82-5.51,1.38-7.46-.41-1.79-1.13-5.21-2.61-6.31-3.8-2.82-7.76-4.6-12.42-5.45-4.09-.75-10.54-2.93-12.05-1.06Z"/>
    <path class="cls-3" d="M353.83,182.24c-.19.29-.14.56-.27.79-.14.24.07.58-.06.8-.11.22-.13.48-.22.7-.09.23-.63.36-.68.6-.05.24.6.6.55.83-.05.23-.83.36-.88.6-.05.24-.25.46-.29.7-.04.24.74.58.71.81-.03.24,0,.48-.02.72-.03.24-.51.44-.53.68l-.06.72c-.02.24.13.49.11.73-.02.24-.23.47-.23.71,0,.24.04.48.05.72,0,.24.32.48.33.72,0,.24.04.49.02.73-.01.29-.57.54-.61.83-.04.29.29.6.25.89-.04.29-.27.56-.28.85,0,.29-.04.59.04.88.08.29.55.52.62.8.08.29-.37.61-.37.9,0,.29.68.61.63.9-.05.28-.34.56-.39.84-.05.29-.39.57-.38.86,0,.29.46.55.5.83s.17.57.21.85c.06.29-.33.64-.29.95.05.41-.28.95-.17,1.46.06.24.29.4.55.48.24.1.48.18.65.28.32.22.72.29,1.13.37.2.03.38.27.58.49.14.21.26.42.42.43l.9.05c.3,0,.59-.2.89-.18.29.02.63-.44.92-.4.28.06.57.11.86.17.29.04.55.24.84.25.29.01.57,0,.86-.06.29-.06.57-.15.86-.22.29-.06.59.35.88.35.29,0,.58-.31.87-.23.29.07.59.03.88.11.29.07.56.01.85,0,.29,0,.6.28.89.2.29-.07.5-.64.78-.71.28-.08.65.48.94.47.29-.01.56.09.86.12.29.03.59-.4.88-.38.29.02.57.02.86,0,.29-.03.62.41.91.4.29-.01.53-.74.81-.76.29-.02.62.29.91.25.29-.04.53-.27.81-.39.28-.11.49-.45.77-.57.27-.12.73.41,1.03.36.3-.07.59-.05.9-.08.31-.03.63-.02.94-.06.32-.04.56-.45.85-.54.3-.11.77.09,1.08-.09.32-.21.5-.53.81-.79.3-.22.56-.55.87-.85.16-.16.21-.47.24-.73.04-.27-.05-.41.06-.55.17-.24.39-.45.56-.71.16-.25.94-.19,1.07-.49.14-.29-.3-.81-.2-1.11.1-.29.72-.44.81-.79.09-.33.33-.64.4-1.02.06-.39-.68-.83-.69-1.17,0-.33.65-.79.58-1.16-.06-.37-.79-.54-.85-.83-.07-.3.57-.73.48-1-.09-.27-.34-.51-.43-.79-.1-.28-.81-.4-.88-.68-.07-.29-.13-.63-.14-.94,0-.31.21-.66.18-.98-.03-.32.21-.74.08-1.06-.13-.32-.58-.48-.81-.75-.22-.27-.39-.63-.69-.9-.14-.14-.34-.25-.51-.37-.18-.11-.41-.25-.53-.35-.24-.17-.39-.47-.61-.68-.22-.2-.6-.2-.82-.4-.23-.19-.51-.28-.76-.44-.25-.16-.38-.51-.66-.64-.28-.12-.49-.37-.76-.49-.28-.11-.65-.04-.92-.18-.27-.13-.58-.18-.84-.33-.26-.14-.43-.48-.69-.62-.27-.14-.58-.18-.85-.29-.28-.11-.57-.19-.85-.29-.28-.1-.55-.23-.84-.32-.29-.09-.62-.02-.91-.11-.29-.08-.48-.5-.75-.63-.28-.12-.63-.03-.91-.15-.28-.12-.5-.43-.79-.5-.3-.06-.66.33-.95.3-.28-.03-.43-.78-.7-.81-.27-.03-.59.21-.86.15-.27-.06-.61.17-.89.11-.28-.06-.45-.59-.72-.65l-.84-.17c-.28-.07-.54-.24-.82-.31-.28-.07-.62.07-.9,0-.28-.07-.57-.17-.87-.22-.29-.06-.61-.04-.9-.1-.29-.07-.62-.04-.93-.09-.3-.06-.65.06-.97.04-.32-.03-.68.19-1.01.19-.37.05-.74-.34-1.21-.2-.43.09-.69.68-1.09.91-.1.13-.42-.1-.53.07.25.36.2.81.4.98.28.24.67.27.91.56.19.18.42.23.64.6.06.03-.02,0,.04.04.13-.03.26.19.38.2.13,0,.26-.13.42-.09.13.03.3-.24.54-.21.15.01.34-.06.59-.04.26.01.4.83.56.83.25,0,.46-.23.66-.25.2-.02.39-.07.66-.06.18.01.47-.38.74-.33.27.05.39.56.57.61.26.08.45.15.64.24.19.08.49-.23.75-.15.18.06.27.65.54.71.28.06.64-.64.83-.62.28.03.45.17.67.16.22-.01.47-.11.75-.09.2.02.39.34.67.4.28.05.58.15.85.25.25.1.51.21.76.31.25.1.58-.16.84-.11.26.06.45.32.73.32.28,0,.5.32.77.33.27.01.53.07.78.15.26.08.34.48.56.65.21.16.82-.37,1.04-.2.22.18.24.67.49.77.24.1.55.04.82.1.26.06.58-.02.85.05.27.07.35.56.58.68.23.13.6.01.84.14.24.14.17.77.4.9.23.14.64-.01.87.13.22.14.66,0,.88.17.22.17.17.68.37.85.05.04.1.1.12.16,0,.04,0,.09,0,.13-.01.07-.02.19.03.24.09.1.32.19.46.36.13.16.74.09.88.32.14.22-.4.73-.32.96.09.23.73.3.77.57.04.26.05.54.08.81.03.27.39.45.45.72.07.27-.57.73-.47.99.1.26.74.37.85.63.11.26-.11.61-.06.84.05.24.09.46.1.68,0,.22,0,.44-.02.66-.03.22.22.51.16.75-.06.25-.2.5-.36.72-.14.22-.6.28-.75.49-.17.21-.64.28-.76.51-.11.23.2.67.1.92-.05.12-.03.28,0,.44.02.16.03.33,0,.37-.04.13-.32.14-.44.26-.19.12-.53-.09-.73,0-.18.1-.44.09-.66.18-.2.09-.3.55-.55.63-.24.09-.5.13-.74.25-.23.12-.5.18-.75.29-.24.11-.4.62-.67.67-.27.06-.64-.42-.91-.37-.26.05-.42.72-.7.77-.27.05-.64-.48-.9-.43-.27.04-.55.02-.82.06-.27.04-.53.18-.81.21-.27.03-.51.4-.79.42-.28.03-.58,0-.86-.03-.28-.03-.56-.18-.84-.21-.28-.04-.55.02-.82.03-.28.02-.55.22-.83.22s-.56-.2-.84-.2c-.28,0-.55.12-.82.13-.28.01-.56-.28-.84-.28-.28,0-.56-.42-.83-.42-.28,0-.55.64-.83.64-.28,0-.5.24-.78.32-.28.08-.56.12-.84.19-.28.08-.6-.44-.87-.45-.28,0-.55.06-.83.04-.28-.02-.57.2-.84.18-.28-.02-.54-.24-.82-.25-.27-.02-.54-.24-.81-.25-.27-.01-.58.49-.86.47-.33-.02-.38-.42-.52-.44-.14-.03-.39.08-.52-.03-.09-.13-.36-.15-.39-.37-.01-.23.07-.37.04-.63-.04-.26-.27-.52-.29-.79-.02-.28-.1-.55-.11-.82-.02-.28.53-.58.51-.86-.02-.28-.14-.55-.15-.82,0-.28.06-.56.06-.83,0-.28-.17-.55-.17-.83,0-.28.13-.57.11-.84-.03-.28-.41-.54-.44-.82-.03-.28-.29-.56-.3-.84,0-.28.56-.56.56-.84,0-.28-.3-.56-.29-.84s.34-.55.34-.83c0-.24-.56-.47-.57-.7-.02-.24.33-.48.31-.71-.02-.24-.21-.47-.23-.71-.01-.24.55-.47.56-.7,0-.23-.74-.49-.74-.73,0-.24.06-.47.05-.71,0-.24.55-.46.55-.7,0-.24-.25-.48-.25-.72,0-.24.05-.47.1-.71.06-.23.05-.48.12-.71.08-.23.41-.41.47-.64.06-.23.33-.46.34-.69,0-.23-.54-.52-.54-.76,0-.23-.21-.49-.2-.73.01-.24.14-.46.17-.7.03-.24.27-.43.34-.63.04-.09-.09-.25-.13-.32-.05-.09-.34-.26-.5-.04Z"/>
  </g>
  <g>
    <path class="cls-1" d="M233.08,107.26c-2.28-2.78-5.41-4.84-8.86-5.84"/>
    <path class="cls-4" d="M232.7,107.51c-.12,0,.03-.24-.04-.27-.07-.03-.6.33-.65.29-.06-.04.04-.22-.04-.25-.07-.03-.36.14-.42.1-.06-.03.02-.21-.05-.25-.06-.04-.06-.14-.12-.17,0,0,.36-.46.3-.58-.03-.06-.19,0-.25-.06-.05-.05-.42.23-.48.2-.09-.04.15-.41.06-.39-.13.04-.25.07-.37.11-.09.02-.09-.05-.18-.09-.08-.04-.4.2-.48.17-.08-.03-.15-.08-.23-.12-.08-.04-.09-.15-.17-.19-.08-.04-.13-.1-.21-.14l-.23-.11c-.08-.04-.44.31-.51.27-.07-.04-.16-.07-.2-.15-.04-.08.31-.7.27-.78-.05-.09-.4.27-.46.22-.07-.05-.23.05-.31.02-.08-.03.08-.43,0-.47-.08-.04-.09-.18-.15-.23-.07-.05-.45.41-.5.34-.06-.06-.01-.3-.07-.37-.06-.07.04-.4-.03-.46-.07-.05-.09-.2-.16-.23-.08-.04-.26.13-.34.09-.08-.04-.28.17-.34.11-.06-.06.24-.86.16-.92-.07-.05-.41.47-.48.42-.07-.05.09-.6.02-.66-.07-.06-.4.44-.44.32-.04-.12.01-.44-.03-.57-.04-.12.01-.49-.06-.55-.07-.05-.12-.14-.18-.17-.07-.04-.13-.11-.2-.15-.08-.04-.22.15-.28.11-.07-.04-.18.03-.23-.03-.07-.08-.26.19-.3.11-.09-.16-.04-.68-.01-.82.04-.16.29-.65.48-.74.08-.04.21-.14.32-.16.08-.01.17.05.25.11.07.04-.07.68,0,.73.06.05.28-.3.36-.26.07.03.24-.19.33-.18,0,0-.05.42.1.4.08,0,.32-.43.41-.43.08,0,.13.1.22.12.11.02-.07.63-.02.65.08.04.13.06.21.1.05.03.31-.37.42-.35.11.02.11.27.22.27.11,0,.17.12.29.13.11.01.25-.04.36-.01.1.03.06.32.14.38.08.06.26-.03.34.04.08.07.27-.04.36,0,.1.04.45-.38.59-.39.13-.01.21.09.34.08.13,0,.1.27.19.33.09.06-.06.47,0,.55.07.08.54-.39.61-.3.07.09.07.27.16.34.08.07.03.33.13.37.11.04.03.32.13.36.1.05.24.03.31.11.07.08.6-.36.63-.22.03.13-.01.34.02.47.03.13-.23.56-.17.65.04.07-.1.35-.03.43.05.06.38-.15.44-.08.05.07.14.11.19.18.05.07.36-.1.4-.02.05.08.03.23.07.31.04.09.09.17.12.26.03.1.16.1.19.19.03.11-.27.48-.24.56.01.05,0,.21.03.36.01.11.4-.04.39.08-.02.23-.43.65-.67.69-.07.03-.15.16-.19.17Z"/>
  </g>
  <g>
    <path class="cls-1" d="M237.21,61.58c-4.21-4.72-10.16-7.86-16.43-8.67"/>
    <path class="cls-4" d="M236.82,61.82c-.15-.03-.06-.33-.18-.4-.11-.07-.65.28-.75.2-.1-.08-.05-.31-.17-.37-.12-.06-.43.08-.53.01-.1-.07-.08-.29-.18-.36-.1-.07-.14-.21-.25-.28,0,0,.29-.53.14-.71-.07-.09-.28-.07-.38-.16-.09-.08-.48.18-.59.12-.15-.08.02-.51-.11-.51-.17.01-.32.02-.49.03-.12,0-.16-.1-.31-.18-.14-.07-.49.15-.63.08-.14-.07-.27-.15-.4-.22-.13-.07-.22-.22-.35-.3-.14-.07-.26-.17-.39-.24l-.41-.21c-.14-.07-.53.28-.66.2-.13-.07-.29-.13-.4-.24-.1-.11.14-.78.03-.9-.11-.11-.5.24-.63.16-.13-.08-.34,0-.48-.05-.14-.05-.09-.5-.23-.56-.14-.06-.22-.23-.36-.31-.14-.08-.53.39-.66.3-.12-.09-.17-.35-.29-.44-.12-.09-.13-.46-.26-.53-.14-.07-.24-.24-.38-.29-.15-.06-.37.11-.51.06-.15-.05-.39.16-.52.09-.13-.07,0-.93-.14-.99-.14-.07-.49.47-.63.41-.14-.06-.11-.65-.26-.72-.15-.07-.48.45-.61.32-.12-.13-.17-.47-.3-.6-.13-.13-.18-.52-.33-.59-.13-.06-.26-.15-.38-.19-.14-.04-.26-.12-.39-.15-.14-.04-.32.15-.44.11-.14-.05-.3.03-.41-.02-.15-.07-.37.21-.47.13-.21-.16-.33-.69-.32-.84,0-.16.26-.67.54-.77.12-.04.3-.15.48-.18.13-.02.3.05.45.1.13.04.14.71.28.76.13.05.35-.31.5-.27.13.03.32-.2.47-.18,0,0,.08.44.32.43.12,0,.36-.45.51-.44.14,0,.26.11.4.13.18.02.13.67.23.7.14.04.24.08.38.12.1.03.36-.38.53-.35.18.03.29.3.47.32.18.02.33.15.52.17.18.03.38-.02.56.03.18.05.23.36.39.45.16.08.39,0,.55.1.16.09.4,0,.57.06.17.06.54-.38.74-.36.2.01.35.14.55.15.2.02.27.33.44.42.16.09.11.55.26.66.14.11.64-.36.79-.24.15.12.22.34.38.44.16.1.19.4.36.48.17.07.19.39.35.48.17.08.36.09.51.21.14.12.71-.31.82-.13.1.17.13.43.23.6.1.17-.08.66.05.79.09.09.02.43.14.55.1.1.47-.1.58.02.1.1.25.18.35.29.1.11.45-.03.55.09.1.12.14.31.23.44.1.13.19.25.27.38.09.14.27.19.34.32.09.16-.15.59-.08.69.04.08.1.3.19.51.07.17.51.07.55.24.07.32-.29.79-.59.77-.08.02-.13.18-.18.19Z"/>
  </g>
  <g>
    <path class="cls-2" d="M243.22,126.21c-2.37-2.8-2-4.9-3.76-8.11-6.43-11.75-20.74-16.12-33.06-24.54-1.11-.76-3.09-.26-3.56,1-.17.44-.11.93-.02,1.39.82,4.26,4.3,7.45,7.69,10.16,10.19,8.17,21.64,15.43,28.6,26.49.75,1.19,2.14,2.58,3.28,1.77.77-.56.67-1.71.48-2.64-.63-3.15-1.29-6.3-1.99-9.44"/>
    <path class="cls-2" d="M242.51,126.03c-.62-.64-.94-1.76-1.29-2.57-.36-.8-1.18-1.37-1.47-2.17-.28-.8-.4-1.63-.8-2.34-.39-.7-1.13-1.2-1.56-1.89-.43-.68-.87-1.45-1.36-2.12-.52-.63-1.06-1.28-1.62-1.9,0,0-.06-.28-.27-.68-.2-.41-.55-.95-1.08-1.49-.56-.5-1.36-.98-2.07-1.58-.66-.5-1.59-.63-2.29-1.11-.94-.6-1.51-1.54-2.1-1.81-.82-.37-1.42-.64-2.24-1.01-.6-.26-1.13-.64-2.11-1.19-.94-.5-1.99-.67-2.93-1.16-.94-.5-1.88-1-2.83-1.51-.95-.5-1.85-1.1-2.79-1.62-.94-.51-1.87-1.07-2.82-1.6-.94-.52-1.87-1.1-2.8-1.65-.47-.28-.98-.48-1.5-.66-.26-.1-.52-.19-.77-.3-.13-.06-.25-.11-.37-.18l-.18-.1-.04-.03h-.02s0-.01,0-.01c-.19.28.26-.38.21-.31h0s0,0,0,0h0s0,.01,0,.01l-.03.05c-.03.06-.09.17-.11.26-.02.05-.01.01-.03.03-.03,0-.1,0-.17.01-.07.02-.14.04-.18.06-.02.01-.04.02-.04.02-.01,0,0,.02-.02-.02-.03-.04-.09-.09-.11-.12-.07-.07-.15-.12-.2-.16-.1-.05,0-.01-.2-.09.04.01.1.03.17.04l.21.03s-.09.03-.14.08c-.19.21-.24.76-.16,1.19.22.93,1.09,1.62,1.57,2.39.49.79,1.2,1.41,1.87,2.11.66.7,1.12,1.72,1.91,2.4.78.67,1.5,1.41,2.34,2.07.82.67,2.09.92,2.91,1.59.82.67,1.51,1.47,2.33,2.15.83.67,1.43,1.55,2.26,2.22.84.67,1.62,1.41,2.47,2.08.85.65,1.84,1.14,2.68,1.82.84.68,1.89,1.19,2.7,1.9.81.73,1,2,1.78,2.75.79.72,2.04,1.06,2.81,1.84.78.76,1.05,1.91,1.78,2.69.7.83,2.05,1.39,2.65,2.31.62.88.94,1.82,1.48,2.74.59.91.79,1.97,1.37,2.86.47.78,1.02,1.54,1.74,1.92.39.21.83.25,1.18.04.37-.18.58-.57.65-.97.14-.94-.38-1.79-.51-2.62-.19-.97-.47-1.86-.6-2.65-.17-1.07-.71-2.11-.8-2.86-.2-1.55.05-2.86.18-2.97.14-.12.92.94,1.4,2.55.21.71.55,1.64.82,2.71.2.78.39,1.86.58,2.86.08.42,0,.85-.07,1.33-.08.51-.17,1.02-.25,1.61-.06.5-.19,1.22-.78,1.74-.27.25-.66.44-1.08.49-.42.05-.81-.04-1.13-.18-1.1-.56-1.89-1.14-2.55-2.07,0,0-.24-1.12-1.15-2.31-.47-.57-1.29-.88-1.87-1.57-.54-.59-1.03-1.35-1.61-1.97-.75-.78-.82-1.84-1.28-2.3-.66-.67-1.09-1.16-1.78-1.81-.48-.45-1.33-.66-2.17-1.37-.84-.74-1.58-1.68-2.46-2.37-.88-.7-1.72-1.48-2.62-2.16-.92-.65-1.81-1.29-2.73-1.94-.9-.68-1.59-1.55-2.48-2.26-.89-.71-1.91-1.27-2.8-1.98-.89-.71-1.94-1.28-2.85-1.97-.91-.69-1.98-.85-2.93-1.49-.95-.66-1.88-1.49-2.82-2.24-.95-.76-1.74-1.94-2.53-2.92-.8-.99-1.12-2.24-1.64-3.4-.27-.58-.66-1.16-1.01-1.79-.32-.67-.69-1.18-.69-2.28,0-.51.17-1.23.49-1.76.31-.54.73-.94,1.16-1.24.87-.58,1.77-.82,2.72-.85.48,0,.98.05,1.48.25.49.17,1.08.6,1.18.71.44.36.88.71,1.35,1,.94.6,1.81,1.41,2.78,1.98.99.55,1.93.99,2.9,1.56.98.58,2.48.66,3.43,1.27.94.61,1.8,1.31,2.75,1.93.95.62,1.55,1.55,2.53,2.13.69.43,1.36,1.18,2.3,1.76.75.5,1.84.7,2.69,1.3.77.56,1.63,1.06,2.42,1.7.77.59,1.83.96,2.57,1.65.77.65,1.42,1.44,2.1,2.15.74.71,1.35,1.55,1.98,2.27.64.84,1.34,1.65,1.85,2.42.56,1.02.63,1.98.98,2.73.25.52.7,1.79,1.04,3.18.26,1.09,1.09,2.24,1.47,3.02.34.76.6,1.33.59,1.64,0,.3-.25.32-.78-.19-.24-.2.03.41-.11.29Z"/>
  </g>
  <g>
    <path class="cls-2" d="M243.96,78.96c-4.02-5.51-3.12-11.06-8.1-15.72-1.39-1.3-5.67-3.08-7.32-4.04-2.88-1.68-6.82-3.63-10.1-4.21s-5.56-.73-8.25,1.23c-.36.26-.72.57-.83,1-.11.42.05.86.23,1.25,1.34,3,3.89,5.27,6.48,7.29,7.97,6.2,17.43,11.26,22.3,20.1.34.61.67,1.27,1.26,1.65,1.01.65,2.43.22,3.22-.69s1.05-2.14,1.15-3.34c.33-3.86-.04-4.54-.04-4.54Z"/>
    <path class="cls-2" d="M243.32,78.81c-.47-.51-.7-1.42-1.06-2.05-.36-.61-1.2-.94-1.5-1.63-.29-.68-.36-1.43-.63-2.1-.26-.65-.78-1.19-1.02-1.85-.24-.64-.32-1.38-.59-2-.27-.61-.49-1.24-.82-1.82,0,0,.03-.23-.01-.61-.03-.38-.19-.87-.52-1.39-.36-.49-.94-.96-1.47-1.47-.45-.48-1.2-.4-1.8-.74-.77-.42-1.3-1.18-1.81-1.34-.71-.21-1.23-.37-1.94-.59-.52-.17-.97-.44-1.86-.88-.82-.43-1.66-.48-2.44-.85-.76-.37-1.52-.74-2.3-1.07-.77-.33-1.52-.73-2.3-1-.78-.27-1.56-.53-2.33-.69-.74-.15-1.62-.27-2.42-.36-.81-.08-1.55.39-2.17.45-.64.08-1.25.28-1.84.55-.29.12-.65.12-1.03.16-.41.04-.73.08-.76.1-.08-.05-.22-.12-.25-.12-.05-.01.06.02.19.02.21,0,.18-.01.22.01.03.02.07.05.12.1.09.08.24.25.36.4.12.15.24.31.33.47.36.66.92,1.16,1.42,1.75.49.58.76,1.47,1.37,2.03.6.55,1.16,1.18,1.81,1.72.65.54,1.76.64,2.42,1.18.67.53,1.21,1.21,1.9,1.74.68.53,1.16,1.29,1.86,1.8.7.52,1.35,1.13,2.07,1.64.71.52,1.57.83,2.28,1.36.71.52,1.62.87,2.31,1.44.69.56.78,1.75,1.45,2.32.66.59,1.78.74,2.43,1.38.66.62.83,1.63,1.43,2.28.58.68,1.78,1.08,2.25,1.87.24.38.42.77.59,1.16.15.4.3.8.51,1.19.44.78.51,1.7.94,2.46.34.69.67,1.36,1.26,1.65.64.32,1.42.24,2.02-.06.71-.36.97-1.1,1.23-1.66.33-.69.35-1.44.45-2.06.13-.87-.12-1.81-.05-2.4.17-1.25.56-2.19.59-2.43.21-.1.96.96,1.04,2.4.05.64.14,1.46.11,2.39-.03.72-.21,1.76-.66,2.72-.39.83-1.46,1.21-2.27,1.62-.37.2-.76.45-1.25.61-.48.16-1.09.21-1.65-.05-1.01-.46-1.72-1.22-2.12-1.9,0,0-.02-.25-.12-.6-.11-.36-.3-.85-.64-1.34-.38-.47-1.1-.69-1.55-1.25-.43-.48-.79-1.11-1.27-1.6-.6-.64-.57-1.56-.95-1.93-.52-.55-.9-.93-1.47-1.44-.38-.37-1.16-.44-1.85-1-.7-.58-1.31-1.34-2.05-1.88-.75-.53-1.44-1.16-2.21-1.67-.76-.52-1.55-.94-2.31-1.47-.77-.52-1.32-1.26-2.08-1.82-.75-.55-1.62-.98-2.37-1.54-.74-.58-1.64-.99-2.4-1.56-.76-.56-1.71-.6-2.52-1.16-.8-.56-1.56-1.29-2.32-1.95-.78-.67-1.36-1.72-1.97-2.58-.63-.88-.75-1.94-1.16-2.95-.11-.29-.28-.63-.38-1.12-.12-.48-.07-1.21.17-1.75.23-.54.53-.92.78-1.2.26-.29.45-.44.7-.6.95-.6,2.06-.97,3.2-1.25,1.17-.28,2.35-.08,3.38-.03,1.06.05,2,.47,2.97.62,1.02.17,1.94.33,2.87.67.93.33,2.27.16,3.14.64.86.47,1.6,1.05,2.41,1.57.8.51,1.31,1.37,2.05,1.83.52.31,1.09.92,1.88,1.32.65.33,1.57.35,2.33.76.69.38,1.43.74,2.17,1.25.18.12.38.25.59.37.22.14.46.29.62.42.36.27.76.52,1.03.87.56.68.99,1.47,1.4,2.21.43.77.81,1.56,1.08,2.31.32.83.69,1.6.9,2.32.25.88,0,1.68.19,2.3.12.43.35,1.44.71,2.51.28.85,1.15,1.69,1.47,2.37.64,1.3.53,2.13-.31,1.28-.2-.16-.03.34-.15.25Z"/>
  </g>
  <g>
    <path class="cls-2" d="M236.08,40.8c1-3.06.58-6.48-.72-9.42-1.3-2.95-4.22-4.46-6.62-6.6-4.54-4.06-9.14-7.57-15.31-9.19-.57-.15-1.21-.22-1.73.06-.54.3-.78.93-.98,1.51-.44,1.28-.89,2.63-.72,3.97.43,3.33,4.15,4.92,7.03,6.65,3.01,1.81,5.52,4.35,7.98,6.86l9.81,9.99,1.25-3.83Z"/>
    <path class="cls-2" d="M235.76,40.31c.06-.53.47-1.15.49-1.73.03-.57-.58-1.09-.61-1.62-.02-.53.11-1.09,0-1.62-.11-.53-.54-.96-.69-1.46-.16-.5-.17-1.08-.39-1.58-.22-.5-.37-.96-.65-1.38,0,0,.04-.2.01-.51-.03-.31-.16-.72-.48-1.1-.32-.37-.86-.68-1.32-1.07-.41-.36-1.13-.33-1.59-.67-.61-.44-.89-1.2-1.28-1.42-.54-.29-.98-.53-1.49-.84-.38-.23-.66-.55-1.25-1.02-.55-.43-1.3-.56-1.86-.97-.56-.41-1.11-.83-1.68-1.22-.57-.39-1.08-.86-1.66-1.22-.58-.37-1.15-.74-1.75-1.05-.6-.32-1.2-.62-1.81-.9-.62-.28-1.41-.09-2.02-.32-.62-.22-1.31-.45-1.93-.67-.31-.11-.54-.37-.79-.64-.18-.24-.35-.46-.5-.48-.07-.01-.11.03-.1.06,0,.02,0,.01-.01-.02l-.04-.08s.03.05.09.12c.02.02.07.08.11.11.02.02.02.02.04.04.02.03.03.05.03.09.01.07,0,.16-.05.27-.09.21-.17.6-.23.92-.06.32-.11.63-.17.92-.13.55-.63,1.02-.58,1.51.07.45.07.94.32,1.39.26.47,1.08.51,1.47.89.4.39.76.92,1.29,1.3.53.38.93.99,1.53,1.36.61.37,1.19.82,1.83,1.22.64.4,1.39.63,1.99,1.09.6.45,1.38.74,1.93,1.25.55.51.46,1.59.97,2.1.51.51,1.49.61,1.98,1.13.5.52.55,1.4,1.03,1.92.48.53,1.51.73,1.94,1.3.42.57.62,1.23,1.04,1.79.42.57.62,1.29,1.1,1.82.43.47.81.95,1.21,1.37.43.47.84.93,1.22,1.35.45.47,1.04.75,1.42,1.16.42.45.88.8,1.22,1.17l-.6.14s.03-.08.05-.12c.27-.67.21-1.49.43-1.94.44-.95,1.18-1.57,1.34-1.58.17,0,.44.93.23,2.03-.09.49-.17,1.15-.34,1.86-.02.08-.05.17-.08.28l-2.22.52c-.34-.33-.75-.79-1.13-1.21-.38-.42-.31-1.26-.75-1.75-.39-.43-1.12-.61-1.57-1.08-.41-.42-.99-.64-1.45-1.08,0,0-.22-.81-.98-1.48-.38-.33-1.07-.35-1.53-.77-.41-.37-.78-.86-1.21-1.26-.54-.51-.48-1.35-.79-1.67-.44-.45-.75-.77-1.19-1.22-.31-.31-1-.34-1.54-.83-.55-.5-.97-1.18-1.55-1.64-.58-.45-1.1-.99-1.7-1.39-.6-.41-1.24-.71-1.85-1.07-.61-.36-1.1-.94-1.75-1.34-.65-.4-1.43-.65-2.09-1.12-.66-.46-1.46-.83-2.11-1.45-.62-.61-1.56-.9-2.1-1.86-.52-.93-.72-2.14-.73-3.19-.03-1.08.5-2.04.75-2.82.13-.41.33-.68.59-1.07.27-.38.57-.85,1.07-1.39.49-.56,1.33-1.08,2.06-1.25.72-.2,1.41-.19,1.81-.06.78.25,1.49.62,2.25.89.77.29,1.44.82,2.18,1.12.75.31,1.37.92,2.08,1.28.71.37,1.39.66,2.05,1.1.65.44,1.82.43,2.42.97.59.53,1.07,1.14,1.62,1.68.56.55.74,1.35,1.31,1.87.4.37.69,1.02,1.22,1.52.43.4,1.16.51,1.68.93.47.39,1.01.76,1.53,1.19.5.41,1.28.62,1.78,1.14.5.51.92,1.13,1.33,1.73.42.63.79,1.33,1.03,1.98.26.69.58,1.35.72,1.98.17.78-.17,1.47-.12,2.02.04.39.05,1.29-.04,2.27-.06.75.22,1.8-.01,2.47-.45,1.24-1.2,1.48-1.11.54-.01-.2-.27.15-.28.03Z"/>
  </g>
</svg>