<?xml version="1.0" encoding="UTF-8"?>
<svg id="tongue" xmlns="http://www.w3.org/2000/svg" viewBox="0 0 1454.52 1117.34" overflow="visible">
  <defs>
    <style>
      .cls-1 {
        stroke-width: .61px;
      }

      .cls-1, .cls-2 {
        stroke: #fef7b3;
        stroke-miterlimit: 10;
      }

      .cls-1, .cls-3 {
        fill: #fef7b3;
      }

      .cls-4 {
        fill: #fed5d6;
      }

      .cls-5 {
        opacity: .2;
        stroke-width: .67px;
      }

      .cls-5, .cls-6 {
        fill: #ffb81c;
      }

      .cls-5, .cls-6, .cls-7 {
        stroke: #feebaf;
        stroke-linejoin: bevel;
      }

      .cls-8 {
        fill: #fec4c6;
      }

      .cls-9 {
        fill: #f56bf9;
      }

      .cls-10 {
        fill: #ffffe8;
      }

      .cls-2 {
        stroke-width: .54px;
      }

      .cls-2, .cls-11 {
        fill: #ffffbf;
      }

      .cls-6 {
        opacity: .3;
        stroke-width: .69px;
      }

      .cls-12 {
        fill: #fffff9;
      }

      .cls-7 {
        fill: #feebaf;
        stroke-width: .75px;
      }

      /* Hand: enters from bottom after 1s delay, then loops up and back */
      #hand-wrap { animation: hand-entry 0.45s cubic-bezier(0.25,0.46,0.45,0.94) 1s forwards; opacity: 0; animation-fill-mode: forwards; }
      @keyframes hand-entry { 0% { opacity: 0; transform: translate(0, 100px); } 100% { opacity: 1; transform: translate(0, 0); } }
      #hand { animation: hand-loop 1.1s ease-in-out 1.45s infinite; }
      @keyframes hand-loop { 0%,100% { transform: translate(0, 0); } 50% { transform: translate(0, 38px); } }
    </style>
  </defs>
  <polygon class="cls-5" points="603.06 .38 396.57 1116.99 1105.64 1116.99 866.08 .38 603.06 .38"/>
  <polygon class="cls-6" points="646.38 .38 426.36 1116.99 1091.53 1116.99 836.26 .38 646.38 .38"/>
  <polygon class="cls-7" points="668.35 .38 458.81 1116.23 1041.69 1116.23 819.16 .38 668.35 .38"/>
  <polygon class="cls-1" points="700.16 .38 494.81 1116.23 994.52 1116.23 804.3 .38 700.16 .38"/>
  <polygon class="cls-2" points="719.59 .38 550.06 1116.23 939.28 1116.23 783.87 .38 719.59 .38"/>
  <polygon class="cls-10" points="725.08 .38 592.67 1116.23 896.66 1116.23 775.29 .38 725.08 .38"/>
  <polygon class="cls-12" points="732.01 .38 646.42 1116.23 842.91 1116.23 764.46 .38 732.01 .38"/>
  <path class="cls-3" d="M575.35.38S159.78,68.2,161.26,76.16c1.48,7.96,394.26-36.04,394.26-36.04,0,0-500.61,185.1-500.61,194.3S616.41,40.12,616.41,40.12c0,0-535.96,384.65-531.86,390.12,4.1,5.46,580.39-390.12,580.39-390.12,0,0-303.2,433.45-293.32,437.26,9.87,3.81,322.77-421.22,322.77-421.22,0,0-66.28,474.19-55.65,474.19s84.66-464.1,84.66-464.1c0,0,63.42,427.03,78.7,426.26,15.28-.76-48.77-426.26-48.77-426.26,0,0,402.84,403.19,411.07,394.18,8.23-9.01-381.66-406.79-381.66-406.79,0,0,348.17,203.79,355.11,194.21,6.94-9.58-316.85-207.73-316.85-207.73,0,0,425.57,145.2,431.33,137.11,5.76-8.09-395.58-151.34-395.58-151.34,0,0,379.17,75.01,384.97,65.92,5.81-9.09-330.15-83.58-330.15-83.58,0,0,260.79,39.2,270.67,31.88,9.87-7.32-190.6-39.74-190.6-39.74h-416.29Z"/>
  <path class="cls-10" d="M575.35.38l-249.44,17.95h257.31S0,172.88,0,184.93,610.3,25.94,610.3,25.94c0,0-427.98,165.07-420.99,173.37,7,8.3,451.44-170.39,451.44-170.39,0,0-519.33,561.51-511.1,570.29,8.24,8.78,522.09-559.48,522.09-559.48l-250.64,386.4L677.69,48.38s-346.44,644.26-337.07,649.29c9.37,5.03,356.09-652.36,356.09-652.36,0,0,20.78,426.16,33.51,426.98,12.73.82-14.66-432.17-14.66-432.17,0,0,55.02,370.54,65.48,368.05,10.46-2.49-42.73-362.87-42.73-362.87,0,0,244.36,525.81,258.35,519.69,13.99-6.12-240.93-524.88-240.93-524.88,0,0,309.52,335.65,318.74,327.32,9.22-8.32-288.26-322.99-288.26-322.99,0,0,341.57,277.71,349.63,270.5,8.06-7.21-327.83-272.12-327.83-272.12,0,0,351.42,157.44,356.9,146.15,5.48-11.29-335.1-161.49-335.1-161.49,0,0,624.71,181.34,624.71,169.38S869.29,14.37,869.29,14.37c0,0,230.54,60.03,233.44,47.46,2.9-12.57-195.66-53.6-195.66-53.6,0,0,141.31,21.94,144.81,12.43,3.5-9.5-134.64-20.3-134.64-20.3h-341.89Z"/>
  <g id="hand-wrap">
  <g id="hand">
    <g>
      <path class="cls-8" d="M732.54,773.07v4.2c17.92-1.51,41.43-3.74,50.56,17.13,16.13-15.62,41.28-10.01,53.56,7.57,0,0,18.16-2.25,27.78,2.49s15.2,18.93,15.66,24.36c5.47,29.46,3.22,49.34.38,74.83-7.75,39.79-19.66,79.1-53.44,100.11-15.35,9.55-3.67,47.88-57.17,45.29s-67.62-24.82-79.76-74.64c-5.73-23.53-8.32-47.37-11.24-83.1-10.75-71.76,3.13-177.79,4.57-194.37,1.44-16.58,5.25-89.41,27.43-88.01,23.65.93,24.98,38.1,21.45,83.18.03,11.92.06,23.85.09,35.77.02,9.09.05,18.19.07,27.28.02,7.47,1.63,16.02,1.16,23.15-.59,8.91-1.18,17.81-1.77,26.72"/>
      <path class="cls-9" d="M730.75,791.72c.16-2.43.52-4.27.64-5.77.17-2.05.11-3.76.28-5.81.12-1.54.47-2.98.43-5.34-.04-2.33.19-3.93.12-5.34-.12-2-.65-3.68-.79-5.7-.1-1.43.06-3.03-.07-5.45-.06-1.2-.1-2.24-.13-3.15-.02-.89-.03-1.66-.05-2.36-.01-2.01-.18-3.4-.19-5.42.01-1.4.02-3.1.04-5.48,0-2.38-.13-4.16-.12-5.56.01-2.01.58-3.22.6-5.23,0-1.4-.11-3.2-.12-5.58,0-2.39-.13-4.05-.1-5.46.02-2,.04-3.48.06-5.48.03-1.4-.16-3.04-.17-5.42,0-2.39,0-3.95,0-5.35-.03-2.01.33-3.65.3-5.66,0-1.4-.02-2.98-.03-5.36,0-.3-.02-.56,0-.93.01-.28.03-.54.04-.8.02-.51.04-.99.05-1.43.03-.89.05-1.66.11-2.35.17-1.99.39-3.35.54-5.34.11-1.39.09-3.14.21-5.52.12-2.4.25-4.16.25-5.57,0-1.96-.4-2.93-.43-4.89,0-1.4.53-3.45.54-5.86-.01-2.39-.28-4.09-.29-5.48.02-1.97.26-3.12.24-5.1-.05-1.4-.04-3.32-.26-5.7-.22-2.36-.56-4.08-.78-5.45-.14-.99-.37-1.77-.62-2.55-.25-.78-.47-1.56-.69-2.52-.29-1.34-.48-3.08-1.14-5.32-.17-.56-.34-1.07-.49-1.55-.18-.47-.35-.91-.51-1.31-.3-.82-.63-1.5-.9-2.12-.75-1.79-.98-3.15-2-4.83-.77-1.11-1.7-2.53-3.41-4.06-.4-.41-.85-.73-1.26-1.04-.41-.32-.8-.61-1.2-.82-.39-.23-.76-.45-1.1-.65-.36-.16-.7-.3-1.01-.43-.44-.2-.84-.35-1.25-.43-.4-.09-.78-.18-1.17-.27-.38-.07-.78-.09-1.19-.15-.41-.05-.83-.14-1.31-.15-1.36-.06-2.82-.26-4.79.41-2,.68-3.15,1.88-4.09,2.73-1.33,1.28-2.22,2.27-3.29,3.87-.74,1.12-1.89,2.34-2.88,4.48-.98,2.14-1.4,3.69-1.89,4.99-.7,1.86-.99,3.33-1.58,5.23-.41,1.32-1.05,2.85-1.63,5.15-.58,2.31-.49,3.8-.75,5.17-.37,1.95-.95,3.55-1.27,5.52-.23,1.37-.3,3.03-.69,5.36-.39,2.34-.88,3.98-1.08,5.36-.29,1.98-.67,3.36-.93,5.34-.17,1.38-.42,3.03-.69,5.38-.27,2.37-.13,4.08-.3,5.47-.24,1.99-.22,3.54-.43,5.53-.15,1.39-.75,2.89-.95,5.26-.2,2.37-.17,4.07-.27,5.47-.15,2.01.1,3.4-.05,5.41-.11,1.4-.47,3.11-.71,5.48-.25,2.38-.83,3.81-1,5.2-.26,1.99-.45,3.37-.72,5.36-.17,1.39.26,3.35.02,5.72-.26,2.36-.44,3.96-.59,5.35-.18,2-.31,3.41-.49,5.41-.12,1.39-.71,3.11-.94,5.47-.22,2.38-.02,4.1-.15,5.49-.18,2-.66,3.35-.84,5.36-.13,1.39.23,3.12.04,5.49-.19,2.37-.9,4.12-1,5.51-.13,2,.06,3.33-.05,5.33-.08,1.4-.04,3.09-.2,5.46-.14,2.38-.24,4.06-.32,5.46-.14,2-.31,3.41-.42,5.41-.07,1.39.06,3.09-.07,5.46-.13,2.38-.2,3.9-.23,5.3-.05,2-.44,3.59-.49,5.6-.04,1.4-.14,3.05-.24,5.42-.09,2.4-.15,4.01-.2,5.41-.1,1.98.17,3.81.07,5.78-.07,1.4-.64,2.74-.69,5.14-.07,2.4.19,4.08.21,5.48.05,1.98-.18,3.68-.13,5.66.03,1.4.27,2.81.26,5.21.02,2.39.42,4.35.41,5.75,0,1.99-.65,2.86-.65,4.86,0,1.4.36,3.36.43,5.73.12,2.37.01,4.13.1,5.53.12,2,.38,3.33.51,5.32.1,1.39.01,3.08.24,5.45.18,2.37.3,4.01.41,5.4.16,2,.65,3.46.8,5.46.08,1.39.27,3.01.56,5.37.3,2.36,0,3.98.16,5.37.22,2,.54,3.43.72,5.44.1,1.4.05,3.16.25,5.54.2,2.39.84,3.88,1,5.27.21,1.97.37,3.45.58,5.42.16,1.39.03,3.18.26,5.56.22,2.37.46,4.04.6,5.43.19,1.99.57,3.38.78,5.37.14,1.39-.06,3.1.22,5.45.27,2.38.5,3.78.64,5.18.19,1.96.33,3.38.52,5.34.14,1.4.7,3.28,1.05,5.65.35,2.35.53,4.03.76,5.41.35,1.97.71,3.31,1.08,5.28.27,1.37.46,3.07.93,5.39.46,2.33.73,4.03,1.05,5.39.44,1.96,1.01,3.19,1.48,5.13.32,1.35.3,3.14.87,5.45.59,2.31,1.26,3.94,1.63,5.29.57,1.92,1.06,3.18,1.66,5.08.44,1.32.97,2.91,1.72,5.15.7,2.26,1.11,3.86,1.54,5.18.67,1.88,1.23,3.21,1.97,5.06.25.64.5,1.36.79,2.2.31.83.68,1.76,1.16,2.83.47,1.08,1.01,1.92,1.45,2.67.44.75.85,1.37,1.19,1.97.48.86.82,1.66,1.21,2.43.39.77.79,1.53,1.3,2.38.36.59.84,1.18,1.35,1.88.51.71,1.13,1.49,1.82,2.42.68.94,1.26,1.75,1.77,2.46.5.71.93,1.34,1.41,1.84.67.72,1.17,1.4,1.73,2.02.56.62,1.12,1.24,1.83,1.93,1.04.9,2.61,1.67,4.48,3.03.9.73,1.71,1.3,2.36,1.88.66.58,1.26,1.04,1.85,1.39,1.68,1.05,3.08,1.46,4.83,2.36,1.26.55,2.72,1.3,4.92,2.1,1.09.44,2.03.7,2.85.93.82.23,1.53.43,2.19.61,1.91.5,3.27.99,5.21,1.39,1.34.32,2.96.94,5.28,1.37,2.33.39,3.92.58,5.29.78,1.98.25,3.5.31,5.48.49,1.38.14,2.99.47,5.36.59,2.37.17,4.17-.07,5.55-.02,1.98.12,3.33.13,5.32.13.69.01,1.43-.07,2.29-.15.85-.09,1.84-.15,3-.29,1.17-.16,2.15-.26,3.01-.35.85-.11,1.57-.26,2.25-.42.47-.11.93-.21,1.39-.29.45-.11.9-.22,1.34-.33.89-.23,1.8-.4,2.68-.79.64-.25,1.28-.5,2.03-.79.73-.35,1.58-.71,2.63-1.22.99-.58,1.88-.99,2.57-1.46.7-.47,1.33-.84,1.87-1.25,1.54-1.2,2.37-2.47,3.66-3.88.44-.5.92-1.05,1.37-1.77.24-.35.5-.72.78-1.12.26-.42.54-.86.85-1.34.63-.95,1.2-1.7,1.75-2.33.51-.65.99-1.2,1.3-1.81.87-1.76,1.46-3.06,2.22-4.9.54-1.28.65-3.23,1.46-5.48.8-2.25,1.91-3.61,2.45-4.92.83-1.86,1.39-3.24,2.5-5.01.83-1.17,1.56-2.92,3.63-4.54,1.09-.79,1.93-1.27,2.69-1.71.76-.44,1.43-.82,2-1.22.81-.57,1.46-1.08,2.1-1.6.65-.5,1.21-1.12,1.98-1.74,1.04-.9,2.75-1.62,4.52-3.17,1.71-1.65,2.4-3.08,3.37-4.05.36-.34.69-.67,1.02-.98.32-.33.63-.64.94-.96.62-.63,1.25-1.27,1.9-2.02.45-.52.92-1.12,1.48-1.8.55-.69,1.1-1.53,1.82-2.46.72-.93,1.28-1.76,1.77-2.49.25-.36.47-.7.69-1.02.2-.33.38-.64.57-.93,1.09-1.65,1.86-2.81,2.95-4.47.74-1.16,1.64-2.58,2.82-4.61,1.22-2.02,2.12-3.44,2.78-4.66.91-1.77,1.55-3.14,2.35-4.97.58-1.26,1.28-2.65,2.23-4.82.87-2.2,1.9-3.77,2.38-5.08.72-1.87.53-3.15,1.15-5.04.41-1.33,1.18-2.95,1.85-5.22.69-2.28,1.53-3.76,1.94-5.1.56-1.92.84-3.31,1.37-5.24.37-1.34.65-3.02,1.19-5.33.55-2.31.62-4.1.92-5.46.44-1.95,1.13-3.14,1.57-5.1.32-1.36.55-3.06,1.03-5.38.24-1.17.36-2.14.46-2.98.01-.11.02-.21.04-.31.01-.12.02-.18.01-.21,0-.2.01-.39.02-.57.01-.38.03-.73.06-1.08.19-2,.84-3.7,1.01-5.7.13-1.39-.19-2.95.05-5.31.22-2.37.4-4.2.53-5.59.19-1.99.87-3.02,1.04-5.02.11-1.39.25-3.24.36-5.61.14-2.37.04-4.04.09-5.43.09-2-.29-3.48-.25-5.48,0-1.39.55-3.03.49-5.4-.1-2.39-.68-4.02-.8-5.41-.14-1.98.2-3.45,0-5.44-.13-1.38-.46-3.01-.76-5.35-.26-2.36-.38-4.18-.6-5.55-.31-1.97-.85-3.13-1.23-5.1-.13-.69-.25-1.44-.4-2.37-.03-.23-.06-.47-.09-.72-.02-.22-.05-.44-.1-.68-.09-.48-.19-.99-.34-1.54-.61-2.2-.84-3.68-1.35-4.95-.72-1.83-1.51-3.12-2.45-4.84-.65-1.2-1.78-2.52-3.17-4.33-.74-.88-1.32-1.68-1.91-2.31-.29-.32-.54-.64-.81-.91-.27-.26-.54-.5-.79-.71-.71-.65-1.42-1.12-2.07-1.69-.35-.24-.71-.47-1.09-.71-.19-.11-.38-.23-.57-.35-.21-.09-.43-.18-.65-.28-.62-.25-1.3-.4-2.12-.48-.41-.05-.83-.12-1.3-.2-.48-.06-.98-.14-1.54-.28-2.23-.48-3.84-.89-5.21-1.03-1.96-.18-3.38-.15-5.36-.19-1.37-.04-3.02-.11-5.37-.02-1.17.05-2.19.04-3.09.03-.45,0-.87,0-1.26,0-.1,0-.19,0-.29,0-.14,0-.28.02-.42.03-.27.03-.54.05-.8.08-.17.02-.34.04-.46.05-.4-.53-.77-1.02-1.12-1.5-.24-.33-.49-.64-.75-.94-.51-.61-1.02-1.22-1.65-1.89-.92-1.01-2.22-1.98-3.98-3.47-1.77-1.49-3.13-2.4-4.27-3.12-1.66-1.02-2.88-1.64-4.65-2.46-1.25-.51-2.72-1.24-4.95-1.85-2.24-.6-3.55-1.02-4.9-1.24-1.9-.29-3.49-.29-5.41-.28-1.36,0-3.11-.05-5.41.43-2.28.5-3.83,1.14-5.08,1.67-1.81.75-2.88,1.52-4.52,2.54-.57.35-1.19.78-1.88,1.33-.35.26-.72.54-1.1.87-.19.16-.39.33-.6.5-.15.13-.31.26-.47.39-.18.16-.36.32-.54.49-.73.67-1.4,1.28-2.01,1.85l-.23.21c-.06-.04-.09-.17-.14-.24-.09-.18-.17-.36-.26-.53-.17-.35-.33-.68-.48-1-.32-.64-.59-1.24-.9-1.82-.2-.35-.39-.68-.58-1-.99-1.63-1.58-3.11-2.89-4.54-.91-1-2.25-1.85-4.04-3.19-1.81-1.34-3.32-2.09-4.5-2.68-1.73-.81-2.83-1.56-4.7-2.14-1.31-.37-2.88-.9-5.19-1.27-2.39-.37-3.56.06-4.97.01-1.9-.03-4.06-.35-5.98-.24-1.43.08-2.98,0-5.42.11-1.8.09-3.94.8-5.42.85-.86.03-1.63-.02-2.34-.07-1.28,0-2.36-.04-3.36-.03-.07,0-.14,0-.21,0h-.1s0-.07,0-.11c.01-.15.03-.28.04-.41.03-.25.06-.46.09-.64.06-.36.14-.59.21-.78.15-.38.3-.62.4-1.2l.09-.54c.03-.14.05-.28.08-.42.05-.28.1-.54.15-.78.09-.46.18-.79.29-.79.22,0,.49-.18.73.77.05.19.09.45.12.76.01.15.03.32.04.49.01.09.02.19.04.29.09.34-.07.96.48.66.15-.05.29-.08.42-.11l.19-.04.17-.02.24-.03c.65-.07,1.37-.15,2.21-.24,1.38-.16,2.43-.7,4.19-.8,1.77-.1,3.41-.3,4.69-.31,1.7-.02,3.02.2,4.4.27,1.38.08,2.8.03,4.51.2,1.28.12,2.58.33,4.37.6,2.44.39,3.89,1.19,5.27,1.6,1.96.62,3.57,1,5.45,1.92,1.3.67,2.72,1.67,4.71,3.13,1.98,1.47,3.35,2.26,4.39,3.32,1.45,1.52,2.29,3.06,3.41,4.79.18.32.37.66.57,1.01l.08.15.04.08c.03.06.05.12.08.19.06.12.11.3.19.42.12-.11.26-.23.4-.35.07-.07.15-.12.22-.17.23-.17.45-.34.66-.5.42-.32.82-.59,1.21-.82.77-.48,1.44-.88,2.06-1.24,1.76-1.08,3.02-2.15,4.98-2.93,1.36-.55,3.09-.84,5.5-1.38,2.41-.52,4.25-.99,5.72-1.04.52,0,.99.02,1.43.06.44.06.85.15,1.26.23.82.14,1.62.38,2.64.48,1.42.21,3.29.48,5.64,1.12,2.37.65,4.23,1.45,5.56,1.98.93.42,1.7.59,2.43.84.75.22,1.5.47,2.4,1,1.26.73,2.69,2.05,4.58,3.62,1.91,1.59,2.9,2.74,3.86,3.82.65.74,1.29,1.4,1.9,2.1.31.34.62.69.91,1.06l.25.3.14.19h.08s.18,0,.18,0c.07,0,.08.01.33,0,.39,0,.8,0,1.25-.01.89,0,1.89-.01,3.1-.07,2.4-.1,4.13-.37,5.56-.34,2.04.04,3.45.27,5.49.46,1.42.14,3.15.19,5.56.68,1.21.28,2.25.57,3.14.93.9.3,1.65.67,2.34.95.49.18.93.39,1.34.61.42.21.82.42,1.21.62.73.5,1.53.93,2.33,1.61.57.47,1.25.94,1.94,1.6.73.62,1.46,1.4,2.27,2.37,1.53,1.98,2.62,3.61,3.31,4.89,1,1.82,1.28,3.1,2.07,4.99.53,1.33,1.35,2.88,2.02,5.28.33,1.2.51,2.27.58,3.26l.02.18c.01.11-.01-.05,0,.06.01.11.03.21.04.32.03.21.06.41.08.6.06.39.11.75.17,1.1.34,1.99.73,3.36,1.01,5.37.2,1.39.59,3.05.85,5.44.31,2.38.21,4.12.31,5.52.19,2.01.13,3.4.24,5.42.1,1.4-.02,3.14.08,5.53.08,2.4.54,3.96.59,5.37,0,2.02.04,3.47.01,5.49-.02,1.41.07,3.22-.06,5.61-.11,2.39-.22,4.01-.3,5.41-.11,2.02-.77,3.55-.91,5.56-.12,1.4-.16,3.01-.4,5.39-.24,2.37-.14,4.12-.3,5.51-.23,2-.56,3.34-.79,5.34-.04.35-.08.71-.12,1.1-.02.2-.04.4-.06.61,0,.1-.02.21-.03.32,0,.06-.04.36-.06.43-.17.88-.36,1.89-.58,3.06-.48,2.34-.65,4.16-.98,5.52-.46,1.96-1.24,2.98-1.7,4.94-.3,1.37-.39,3.22-.95,5.54-.28,1.16-.49,2.17-.67,3.06-.2.89-.37,1.65-.55,2.33-.54,1.95-1.34,3.13-1.89,5.07-.41,1.34-.54,3.1-1.24,5.39-.66,2.31-1.76,3.93-2.17,5.27-.63,1.91-.57,3.18-1.29,5.08-.48,1.32-1,3.02-1.86,5.26-.96,2.21-2.21,3.73-2.75,5.02-.75,1.88-1.21,3.12-2.07,4.96-.31.64-.56,1.36-.87,2.19-.29.84-.71,1.77-1.32,2.81-1.21,2.1-2.43,3.18-3.15,4.39-1.14,1.67-1.78,3.18-2.93,4.87-.76,1.2-1.79,2.54-3.24,4.46-.73.97-1.38,1.85-1.96,2.63-.63.74-1.17,1.39-1.66,1.91-.69.74-1.29,1.33-1.89,1.92-.61.58-1.17,1.21-1.94,1.87-1.05.96-2.27,1.97-4,3.63-.43.43-.83.8-1.21,1.13-.37.34-.7.65-1.01.93-.61.58-1.12,1.09-1.66,1.55-.77.65-1.44,1.22-2.11,1.79-.7.53-1.43,1.02-2.25,1.62-.58.42-1.28.88-2.1,1.4-.41.26-.84.54-1.3.84-.23.15-.46.3-.7.46-.21.15-.42.3-.64.45-1.71,1.27-2.66,2.58-3.41,3.64-1.04,1.57-1.56,2.96-2.36,4.73-.55,1.24-1.54,2.46-2.35,4.69-.81,2.23-1.53,3.85-2.02,5.16-.72,1.89-1.04,3.27-1.9,5.13-.59,1.29-1.02,3-2.31,5.11-.68,1.04-1.34,1.84-2.01,2.48-.32.32-.62.63-.9.91-.29.27-.57.53-.81.8-.35.38-.67.74-.99,1.07-.34.31-.66.61-.99.9-.63.61-1.34,1.14-2.15,1.78-.54.47-1.16,1.02-1.88,1.66-.7.67-1.6,1.28-2.69,1.9-1.09.6-2.19.89-3.12,1.2-.95.25-1.79.41-2.46.67-.95.4-1.68.67-2.41,1.02-.73.33-1.46.69-2.47.89-.7.16-1.5.38-2.43.62-.93.2-2,.38-3.21.55-1.22.19-2.3.16-3.25.2-.95.02-1.78.04-2.49.03-2.03-.03-3.3-.16-5.32-.3-1.41-.08-3.18.23-5.57.06-2.4-.13-4.13-.75-5.53-.87-2.01-.14-3.26.24-5.28.02-1.41-.13-3.16-.93-5.53-1.29-2.36-.46-4.08-.57-5.46-.91-.99-.22-1.84-.4-2.69-.61-.84-.23-1.68-.45-2.67-.72-.69-.17-1.44-.38-2.32-.63-.87-.26-1.88-.5-3.01-.96-2.28-.84-3.97-1.42-5.27-2.01-.94-.42-1.65-.94-2.38-1.41-.73-.46-1.44-.97-2.31-1.51-1.24-.71-2.89-1.35-4.89-2.78-.97-.75-1.79-1.37-2.45-1.97-.66-.6-1.23-1.12-1.78-1.58-1.53-1.39-2.49-2.72-3.87-4.24-.5-.52-1-1.1-1.55-1.82-.55-.71-1.22-1.49-1.91-2.48-1.48-1.96-2.06-3.17-2.81-4.39-.98-1.73-1.92-3.1-2.78-4.89-.65-1.26-1.86-2.77-2.9-4.98-.49-1.1-.79-2.1-1.04-2.97-.23-.88-.4-1.65-.67-2.31-.78-1.86-1.65-3.04-2.37-4.94-.45-1.34-.57-3.1-1.28-5.37-.74-2.27-1.7-3.78-2.09-5.13-.58-1.94-.45-3.39-.99-5.33-.37-1.35-1.25-2.89-1.85-5.21-.58-2.35-.82-3.98-1.19-5.35-.51-1.9-1.03-3.05-1.51-4.97-.36-1.37-.45-3.34-.92-5.71-.49-2.35-1.21-3.93-1.48-5.31-.36-1.98-.62-3.37-.98-5.36-.22-1.39-.48-3.08-.85-5.43-.35-2.39-.06-3.89-.2-5.29-.19-1.96-.85-3.91-1.02-5.87-.12-1.41.13-2.8-.13-5.2-.28-2.37-.57-4.04-.72-5.43-.22-2-.24-3.44-.45-5.45-.14-1.39-.78-3-1-5.37-.22-2.37-.12-4.09-.23-5.48-.16-2-.03-3.36-.18-5.37-.11-1.39-.72-3.11-.92-5.48-.2-2.39,0-4.34-.17-5.74-.25-1.93-.52-3.42-.82-5.36-.23-1.4-.33-2.77-.63-5.17-.29-2.38-1.1-4.25-1.14-5.67-.11-1.99.08-3.19-.04-5.18-.08-1.41-.26-3.08-.46-5.48-.23-2.39-.26-4.04-.37-5.45-.16-1.99-.27-3.42-.43-5.42-.1-1.4-.23-3.12-.35-5.51-.1-2.41-.29-4.46-.28-5.87.02-1.97.28-3.13.31-5.1.02-1.41.35-3.02.31-5.43,0-2.4-.47-3.93-.5-5.33-.05-2-.09-3.42-.14-5.42-.01-1.4-.08-3.26,0-5.65.05-2.39.49-4.18.5-5.58.02-2.01-.28-3.29-.26-5.3,0-1.4.1-3.13.21-5.51.09-2.4.06-4.25.16-5.65.13-1.98.4-3.23.53-5.21.08-1.4.03-3.11.15-5.51.13-2.38.57-4,.66-5.4.13-2.01-.03-3.52.12-5.53.11-1.4.51-3.03.67-5.41.16-2.41-.18-3.83-.14-5.24.05-1.96.12-3.44.21-5.4.06-1.41.16-3.34.35-5.75.19-2.39.21-4.42.38-5.82.23-1.98,1.02-2.66,1.25-4.64.16-1.4.29-3.42.51-5.81.23-2.37.29-4.04.43-5.43.2-2-.07-3.52.14-5.52.15-1.39.67-2.99.91-5.36.24-2.37.25-4.04.38-5.43.19-2,.32-3.41.51-5.42.13-1.39.52-3.07.77-5.44.24-2.37.49-4.03.62-5.42.15-2,.26-3.41.42-5.41.11-1.39-.07-3.1.12-5.48.2-2.38.52-4.05.65-5.45.19-2,.02-3.45.23-5.46.14-1.4.85-3.02,1.12-5.38.27-2.37.3-4.01.49-5.4.28-1.99.08-3.67.39-5.66.22-1.39.75-2.88,1.13-5.24.39-2.37.89-4.16,1.12-5.55.33-1.98.17-3.18.54-5.17.27-1.39,1.09-3.08,1.67-5.41.59-2.35.91-3.84,1.35-5.19.63-1.9,1.01-3.52,1.74-5.39.52-1.33.97-2.96,1.98-5.2,1.02-2.24,2.32-3.74,3.07-4.97,1.07-1.74,1.73-2.94,3.18-4.49,1.05-1.05,2.28-2.46,4.87-3.46,1.28-.47,2.46-.61,3.46-.68,1.02-.04,1.79.05,2.54.1.53.03,1.03.13,1.51.25.48.12.94.23,1.39.36.88.37,1.8.61,2.77,1.09.35.15.71.3,1.1.47.37.2.76.41,1.19.64.21.12.43.24.65.36.21.14.43.3.65.46.44.34.96.65,1.41,1.11,1.94,1.71,2.91,3.25,3.77,4.44,1.14,1.79,1.72,3.14,2.55,5.05.57,1.33,1.15,3,1.83,5.33.69,2.33,1.22,3.97,1.5,5.36.21,1,.37,1.86.52,2.72.16.86.31,1.72.43,2.73.2,1.41.28,3.1.51,5.49.22,2.4.11,4.15.2,5.56.1,2.02.58,3.36.62,5.39.05,1.41.11,3.12.12,5.52,0,2.4,0,4.13-.05,5.54-.05,2.02-.11,3.44-.19,5.46-.05,1.41-.38,3.05-.49,5.44-.12,2.39-.12,4.09-.23,5.49-.14,2.01.02,3.57-.13,5.58-.05.7-.24,1.43-.44,2.28-.1.43-.2.88-.28,1.38-.04.25-.08.51-.12.78-.01.11-.03.23-.04.35,0,.14,0,.28,0,.43,0,2.4.43,3.91.46,5.31.07,2,.11,3.4.18,5.41.04,1.4-.24,3.28-.23,5.67,0,2.41-.18,3.84-.22,5.25-.06,1.98.19,3.76.14,5.74-.04,1.41-.3,2.99-.29,5.39.02,2.39.03,4.16.04,5.56.03,2.01.51,3.17.55,5.18.02,1.4-.28,3.25-.27,5.64,0,2.39.18,4.02.2,5.42.03,2.01-.29,3.59-.26,5.6.03,1.41.12,2.98.23,5.31.12,2.35.29,4,.4,5.39.16,2,.53,3.48.67,5.5.09,1.41-.25,3.09-.2,5.51.05,2.49.19,4.4.16,5.84-.04,1.97.05,3.33,0,5.3-.03,1.46-.1,3.24-.27,5.68-.12,1.79,0,4.02-.16,5.4-.2,1.68-.66,2.73-.89,3.85-.27,1.31-.59,1.37-.85,2.03-.32.81-.65,2.4-.86,2.39-.21-.01-.57.18-.76-.58-.16-.64.11-3.53.04-4.88-.06-1.09-.35-1.59-.31-3.24.03-1.3-.17-2.88-.06-4.57Z"/>
    </g>
    <g>
      <path class="cls-4" d="M872.77,823.3c-4.31,2.6-7.02,7.27-8.4,12.11-1.38,4.84-1.59,9.92-1.98,14.94-2.7,34.35-14.34,67.29-25.87,99.75-3.13,8.8-6.27,17.64-10.65,25.89-4.27,8.05-9.71,15.48-16.09,21.99-1.79,1.83-3.69,3.63-4.84,5.91s-1.41,5.21.06,7.3c16.14-5.26,30.34-15.82,41-29.04,10.66-13.22,17.87-29.02,22.09-45.47,1.83-7.12,3.1-14.36,4.38-21.6,1.66-9.42,3.33-18.85,4.99-28.27,1.41-7.97,2.81-15.95,3.33-24.03.89-13.93-.92-28.03-5.3-41.29"/>
      <path class="cls-4" d="M871.51,824.85c-1.03.9-2.15,1.98-3.14,3.22-.98,1.25-1.83,2.63-2.41,3.99-1.12,2.68-.97,5.35-1.4,8.18-.42,2.85-.85,5.74-1.02,8.66-.18,2.87-.06,5.69-.34,8.63-.34,2.88-.9,5.92-1.37,8.84-.39,2.88-1.02,5.77-1.53,8.68,0,0-.31.81-.81,2.25-.5,1.43-1.09,3.51-1.69,6.03-.61,2.5-1.12,5.64-1.93,8.71-.68,2.74-.9,5.61-1.65,8.48-1.03,3.72-2.49,6.86-3.06,8.99-.76,2.96-1.29,5.13-2.1,8.07-.57,2.14-1.34,4.22-2.52,7.89-1.12,3.42-1.77,6.81-2.93,10.23-1.17,3.41-2.35,6.84-3.53,10.26-1.18,3.42-2.49,6.81-3.7,10.23-1.22,3.41-2.52,6.84-3.9,10.23-1.37,3.39-2.88,6.73-4.57,10.01-1.69,3.27-3.03,6.68-5.1,9.77-2.08,3.08-4.55,6.4-7.04,9.18-1.23,1.38-2.55,2.48-3.89,3.54-1.34,1.07-2.69,2.02-3.78,3.28-1.09,1.25-1.83,2.71-2,4.14-.2,1.46.15,2.75.73,3.53l-2.53-.84.1-.04c3.33-1.1,6.38-2.59,9.53-4.12,3.13-1.54,6.57-2.87,9.51-4.84,2.94-1.96,5.83-3.94,8.55-6.21,2.73-2.27,5.02-5.44,7.42-7.98,2.42-2.54,4.82-4.99,6.98-7.78,2.15-2.79,4.35-5.36,6.22-8.38,1.85-3.03,3.71-6.11,5.25-9.34,1.55-3.22,2.68-6.61,3.94-9.94,1.28-3.34,2.13-6.99,3.13-10.39,1-3.4,2.82-6.3,3.59-9.82.78-3.51.74-7.39,1.4-10.92.66-3.54,1.92-6.71,2.58-10.24.66-3.56.7-8,1.44-11.5.73-3.47,1.66-6.46,2.39-9.92.74-3.5,1.76-6.68,2.36-10.23.53-3.17,1.04-6.24,1.37-9.16.38-3.21.64-6.28.73-9.17.11-3.29-.22-6.39-.36-9.21-.17-3.34-.62-6.42-.95-9.11-.44-3.64-1.56-7.3-2.06-9.77-1.03-5.14-1.79-9.24-1.69-9.57.06-.35,2.1,3.31,3.57,8.83.66,2.45,1.51,5.69,2.11,9.4.46,2.73.82,6.47.98,9.94.13,2.91-.6,5.74-.72,9.07-.1,2.94.18,6.27-.2,9.54-.33,2.97-.4,5.86-.88,9.08,0,0-1.08,3.62-1.9,8.69-.4,2.51-.26,5.13-.76,8.23-.45,2.75-1.08,5.81-1.57,8.72-.62,3.73-1.88,6.38-2.27,8.57-.56,3.15-.96,5.38-1.52,8.54-.4,2.2-.3,4.9-1.03,8.63-.74,3.8-1.93,7.69-2.93,11.43-1,3.74-2.32,7.48-3.64,11.13-1.32,3.64-2.67,7.15-4.34,10.68-1.68,3.53-3.74,6.61-5.81,9.93-2.06,3.3-4.14,6.69-6.55,9.76-2.41,3.07-4.89,6.26-7.63,9.06-2.75,2.79-4.68,5.42-7.7,7.99-3,2.53-6.45,4.89-9.76,7.01-3.34,2.15-7.46,3.92-11.12,5.45-1.07.44-2.15.81-3.21,1.17-1.08.32-2.17.6-3.25.9l-2.35-.78c-.59-.93-.94-1.98-1.1-3-.15-1.03-.12-2.03.02-3.01.18-1.16.5-2.31.98-3.43.47-1.08,1.06-2.1,1.7-3.03,1.29-1.88,2.68-3.4,3.95-4.73,2.6-2.69,5.07-5.33,7.32-8.33,2.26-3,4.6-6.04,6.45-9.35,1.84-3.27,3.85-6.67,5.34-10.17,1.49-3.51,2.64-6.83,3.99-10.42,1.35-3.6,2.09-8.2,3.47-11.79,1.35-3.55,2.8-6.92,4.14-10.48,1.35-3.57,2.98-6.45,4.24-10.07.88-2.56,2.25-5.5,3.38-9.01.95-2.86,1.48-6.28,2.5-9.57.9-3,1.79-6.16,2.67-9.38.44-1.54.77-3.18,1.08-4.83.31-1.65.66-3.29,1.03-4.87.38-1.58.79-3.16,1.2-4.73.39-1.57.75-3.14,1.1-4.69.37-1.62.69-3.24.99-4.84.3-1.6.64-3.16.88-4.69.29-1.69.53-3.37.77-5,.19-1.64.37-3.22.58-4.68.28-1.82.56-3.42.87-4.9.29-1.48.6-2.83.71-4.16.21-1.84.47-6.16,1.46-10.92.39-1.83.84-3.98,1.57-6.02.72-2.04,1.71-3.95,2.79-5.29,2.01-2.51,4.1-3.62,4.91-3.85.41-.12.52-.05.29.22-.23.28-.81.73-1.67,1.55-.69.69,1.02-.5.6-.09Z"/>
    </g>
    <g>
      <path class="cls-8" d="M832.18,799.12c4.3,5.44,6.57,12.45,6.26,19.37"/>
      <path class="cls-9" d="M832.6,798.92c.16.06.05.37.16.47.11.09.71-.19.82-.08.1.11.04.34.15.44.11.1.46.03.57.14.1.11.04.34.15.45.1.11.13.27.23.39,0,0-.41.47-.31.71.05.12.27.17.35.31.07.12.56,0,.65.12.12.16-.18.53-.05.59.18.07.33.13.5.2.13.06.14.18.25.34.11.15.53.13.64.28l.31.47c.11.16.11.37.2.53.09.16.16.34.25.5.09.16.19.32.28.49.09.17.62.15.7.32.08.18.19.36.22.55.03.19-.6.59-.58.78.02.19.56.21.62.39.06.18.29.29.36.47.07.18-.29.49-.23.67.06.18,0,.39.05.57.04.18.67.23.68.42.02.19-.16.42-.14.61.02.19-.28.44-.26.62.02.19-.06.39-.02.57.04.18.32.32.35.5.03.18.34.33.34.52,0,.19-.83.49-.82.67.02.18.66.29.66.48,0,.19-.56.43-.56.61,0,.18.63.35.54.54-.08.19-.4.38-.49.56-.09.19-.45.38-.46.56,0,.16-.07.32-.08.46,0,.16-.06.31-.06.46,0,.16.22.31.21.45,0,.17.08.32.04.46-.06.18.26.38.19.5-.14.26-.66.44-.81.45-.16,0-.72-.21-.85-.48-.06-.12-.2-.28-.24-.45-.04-.13.02-.3.03-.46.01-.13.67-.27.69-.43.02-.14-.39-.29-.38-.44,0-.14-.27-.26-.3-.41,0,0,.41-.2.32-.44-.05-.12-.54-.2-.59-.34-.04-.13.03-.28,0-.41-.05-.17.58-.37.57-.48-.02-.15-.03-.26-.04-.41-.01-.11-.49-.17-.55-.34-.06-.17.14-.39.06-.57-.07-.17-.02-.37-.09-.54-.08-.17-.23-.32-.28-.49-.06-.17.18-.4.16-.58-.01-.18-.23-.32-.25-.5-.02-.18-.25-.32-.31-.49-.06-.17-.63-.17-.76-.31-.13-.14-.14-.33-.26-.48-.13-.14.07-.41.01-.58-.06-.16.3-.46.27-.64-.03-.18-.72-.14-.75-.32-.02-.18.04-.38-.02-.55-.06-.17.1-.42,0-.58-.09-.15.08-.43-.02-.58-.1-.15-.26-.26-.32-.43-.06-.17-.76-.08-.77-.26,0-.19.09-.42.09-.62,0-.19.38-.56.32-.74-.04-.12.15-.4.08-.56-.06-.13-.48-.08-.55-.23-.06-.14-.16-.26-.23-.4-.07-.14-.45-.1-.51-.24-.06-.14-.04-.34-.09-.48-.06-.15-.11-.3-.17-.44-.06-.16-.22-.24-.27-.37-.06-.17.27-.56.22-.69-.02-.09-.06-.32-.13-.55-.06-.18-.51-.13-.54-.31-.04-.33.35-.81.66-.75.09,0,.14-.18.19-.18Z"/>
    </g>
    <g>
      <path class="cls-4" d="M779.07,819.56c-3.66-6.66-6.92-13.55-10.82-20.08-3.1-5.19-7.74-12.02-14.21-13.07-1.6-.26-3.24-.12-4.86.01-3.76.3-6.05,1.32-9.82,1.48-.44.02-.91.03-1.28-.21-.66-.43-.65-1.39-.56-2.17.13-1.18.27-2.37.4-3.55.05-.43.11-.89.38-1.23.37-.46,1.01-.56,1.59-.63,10.72-1.24,22.96-1.05,31.7,5.93,11.47,9.16,13.49,25.43,20.26,40.32.61,1.35-.3,3.38-1.75,3.66-.51.1-1.02-.05-1.51-.24-4.45-1.69-7.23-6.05-9.52-10.22Z"/>
      <path class="cls-4" d="M778.22,819.15c-.64-.93-1.01-2.34-1.6-3.36-.57-1-1.74-1.55-2.3-2.58-.56-1.03-.89-2.16-1.46-3.16-.56-.98-1.42-1.77-1.99-2.77-.56-.99-.94-2.15-1.52-3.14-.57-.98-1.06-2.02-1.67-3,0,0-.04-1.52-1.08-3.27-.52-.86-1.35-1.79-2.08-2.78-.65-.89-1.77-1.39-2.53-2.19-.97-1.06-1.56-2.31-2.28-2.76-.97-.62-1.74-.95-2.76-1.36-.75-.24-1.43-.68-2.74-.91-1.22-.25-2.41.26-3.76.38-1.43.13-2.66.27-4.01.56-1.33.28-2.78.52-4.3.77-.75.12-1.53.2-2.3.25-.39.01-.73.07-1.43,0-.34-.04-.75-.13-1.19-.36-.43-.23-.82-.57-1.09-.96-.55-.8-.62-1.51-.66-2.06-.03-.54.02-1.05.06-1.38l.21-2.13c.04-.36.03-.71.01-1.07-.01-.33-.09-.84.14-1.67.12-.41.36-.91.72-1.31.35-.4.77-.7,1.14-.9.75-.39,1.34-.49,1.77-.55,1.47-.17,3.08-.38,4.56-.43,1.47-.05,2.73.77,4.19.8,1.46.04,3.05-.54,4.54-.45,1.48.1,2.94.02,4.44.23,1.5.21,2.93,1.02,4.38,1.4,1.46.38,2.85.98,4.23,1.58.7.3,1.5.44,2.28.67.4.11.8.21,1.18.34.37.15.73.33,1.06.54.33.21.65.43.95.67l.87.77c.28.26.58.51.85.77.27.27.54.54.82.8,1.17,1.01,1.83,2.37,2.84,3.48.92,1.18,1.77,2.43,2.57,3.69l1.31,1.8c.43.61.9,1.2,1.22,1.86.34.66.75,1.29,1.17,1.93.39.65.77,1.3,1.06,1.98.58,1.36.09,2.98.6,4.32.5,1.35,1.74,2.51,2.2,3.87.47,1.36.23,2.84.67,4.19.44,1.36,1.7,2.75,2.06,4.11.35,1.36.42,2.62.79,3.97.42,1.34.44,2.73.99,4.04.23.59.46,1.17.68,1.74.28.61.28,1.32.12,1.92-.17.66-.54,1.26-1.05,1.66-.5.42-1.2.57-1.79.44-1.29-.33-2.51-.71-3.47-1.38-1.11-.79-2.1-1.59-2.8-2.44-.94-1.14-2.13-2.18-2.62-3.08-1.02-1.88-1.23-3.62-1.13-3.8.12-.21,1.46.91,2.75,2.62.58.76,1.42,1.69,2.35,2.67.68.72,1.58,1.68,2.54,2.38.4.29.7.72,1.07,1.14.18.22.39.41.62.6.23.19.48.35.73.41.89.25,1.21-.75,1.41-1.49.1-.36-.01-.7-.17-.84-.31-.51-.64-1.04-.91-1.63,0,0-.03-.39-.18-1.02-.14-.62-.36-1.49-.78-2.42-.43-.92-1.31-1.67-1.8-2.83-.42-1.03-.74-2.23-1.16-3.32-.52-1.4-.16-2.71-.45-3.54-.42-1.19-.71-2.03-1.13-3.22-.3-.82-1.18-1.61-1.74-2.96-.55-1.39-.9-2.93-1.53-4.28-.33-.66-.63-1.35-.93-2.04-.32-.67-.66-1.34-1.01-1.98-.34-.66-.78-1.23-1.17-1.83l-.6-.9c-.21-.29-.42-.58-.64-.87-.8-1.21-1.41-2.47-2.33-3.61-.49-.54-1.03-1.04-1.56-1.54-.57-.46-1.15-.9-1.68-1.39-.52-.51-1.17-.84-1.77-1.24-.62-.37-1.29-.67-1.89-1.04-.64-.32-1.29-.47-1.94-.59-.67-.08-1.32-.16-1.98-.37-1.33-.38-2.73-.88-4.12-1.09-.7-.11-1.42-.33-2.16-.5-.73-.2-1.48-.38-2.2-.45-1.43-.16-2.76-.76-4.24-.84-1.48-.08-3.09.76-4.55.78-1.47.04-2.89-.04-4.37.1-.37.04-.74.06-1.12.07h-.91c-.18.01-.02,0,.18-.28.18-.29.08-.31.07,0-.06.71-.23,1.51-.38,2.26-.15.73-.36,1.66-.32,1.97.01.18.09.17-.05-.05-.06-.1-.18-.19-.28-.24-.09-.05-.12-.05-.06-.05.61-.06,1.22-.11,1.85-.17,1.41-.13,2.89-1.31,4.49-1.53.78-.11,1.59-.16,2.4-.18.4-.01.81,0,1.22,0,.38,0,.76,0,1.15,0,1.58,0,3.09.53,4.76.94,1.22.25,2.43,1.11,3.77,1.88,1.1.63,2.57,1.12,3.64,2.13.97.91,1.94,1.89,2.8,2.97.82,1.03,2.02,1.94,2.74,3.07.72,1.13,1.31,2.33,1.93,3.45.65,1.17,1.29,2.33,1.85,3.44.63,1.22,1.37,2.36,1.89,3.43.64,1.33.64,2.6,1.1,3.55.3.67.99,2.23,1.76,3.95.6,1.33,1.93,2.82,2.44,4,.96,2.2.82,3.44-.31,1.9-.27-.31-.02.52-.18.34Z"/>
    </g>
    <g>
      <path class="cls-4" d="M814.48,789.1c2.66,1.06,4.95,3.14,7.5,4.53,3.16,1.73,6.13,3.55,8.14,6.64,1.14,1.75,2.25,6.7,2.98,8.66,1.27,3.42,2.64,8.05,2.64,11.7,0,3.65-.26,6.14-2.88,8.68-.35.34-.76.67-1.24.7-.47.04-.91-.22-1.31-.48-2.99-2.01-4.96-5.19-6.65-8.37-3.43-6.47-6.09-13.37-10.13-19.51-1.02-1.55-2.12-3.06-3.34-4.46-.74-.85-2.15-3.11-3.06-3.53-2.89-1.32-8,1.62-9.82,3.57-4.31,4.61-13.91,4.38-11.21-1.62.3-.66,8.03-6.04,8.66-6.4,7.5-4.3,9.86-2.47,18.22-.57.51.12,1.01.28,1.49.47Z"/>
      <path class="cls-4" d="M815.37,788.89c1.04.35,2.01,1.35,2.93,1.92.91.56,2.13.47,3.01,1.01.44.27.85.57,1.27.87.45.31.9.61,1.38.86.94.5,2.05.71,3,1.37.93.64,1.73,1.58,2.54,2.41.4.41.78.86,1.11,1.34.18.23.33.48.5.73.15.22.36.58.49.84,0,0,0,.41.06,1.01.05.61.13,1.42.39,2.34.26.91.76,1.97,1.08,3.08.14.49.42.94.71,1.37.28.41.61.85.81,1.37.51,1.34.37,2.72.69,3.48.44,1.05.77,1.83,1.14,2.93.26.8.36,1.64.55,3.12.08.68.24,1.41.35,2.07.12.66.24,1.34.21,2.06-.06,1.43-.32,3.05-1.04,4.56-.35.75-.82,1.43-1.34,2.04-.26.3-.53.59-.81.85-.25.25-.59.59-1.12.93-.27.17-.6.33-1,.43-.4.1-.87.12-1.26.06-.79-.13-1.29-.45-1.66-.68-.66-.45-1.25-.89-1.82-1.39-1.13-.98-2.1-2.09-2.95-3.24-.85-1.14-2.08-2.01-2.76-3.22-.68-1.21-1.39-2.52-1.95-3.75-.55-1.22-.24-2.6-.76-3.81-.52-1.22-1.68-2.23-2.24-3.41-.57-1.17-1.31-2.21-1.92-3.34-.6-1.13-.77-2.55-1.43-3.65-.65-1.1-1.19-2.25-1.89-3.31-.71-1.07-2.09-1.73-2.84-2.69l-.58-.78c-.26-.36-.42-.66-.6-.95-.33-.58-.63-1.12-.97-1.56-.17-.21-.31-.42-.41-.57l-.05-.09v-.02s-.02.03.03-.05c.05-.07.11-.18.15-.23.09-.12.16-.24.23-.37.03-.07.06-.13.09-.2h0s0-.02,0-.02h0c-.79,1.73-.22.48-.4.86h0s0,0,0,0h-.01s-.08-.07-.08-.07c-.21-.2-.63-.37-1.12-.33-.97.05-2.16.33-3.23.84-1.06.54-1.95,1.44-2.76,2.16-.11.09-.2.18-.28.28l-.31.36c-.26.32-.54.62-.83.91-.59.58-1.24,1.08-1.94,1.44-.71.36-1.51.4-2.27.36-.77-.04-1.49-.14-2.21-.05-.72.09-1.45.32-2.28.43-.81.12-1.74.11-2.61-.33-.86-.42-1.6-1.35-1.81-2.37-.23-1.02,0-1.9.2-2.66.11-.38.2-.78.31-1.19-.01-.05.12-.32.27-.52l.25-.33.39-.5c.5-.62,1-1.19,1.56-1.54,1.13-.69,2.28-1.03,3.41-1.69,1.15-.66,2.38-.98,3.52-1.69,1.06-.58,2.1-1.03,3.11-1.45,1.1-.47,2.22-.73,3.27-.92,1.18-.21,2.36-.48,3.42-.33,1.24.16,2.39.3,3.36.58,1.29.38,2.73.37,3.61.66.91.32,1.7.65,2.27,1.06.56.38.86.69.87.79.02.11-.39.21-.99.24-.55.02-1.51.04-2.53-.13-.91-.15-2.14-.29-3.44-.55-.96-.19-2.2-.53-3.31-.68-.9-.13-1.8-.94-2.96-.79-1.01.14-1.93.91-2.95,1.36-.95.39-1.68,1.15-2.65,1.72.13-.1-1.33.26-2.79,1.4-.73.57-1.14,1.59-2.03,2.29-.79.62-1.76,1.22-2.53,1.87-.23.2-.51.38-.68.44l-.07.03s.05-.08.07-.12c.02-.05.04-.11.04-.16,0-.05-.03.02-.05.03-.08.08-.17.16-.25.24-.3.31-.59.63-.58.91.01.78.25,1.14,1.01,1.55.58.27,1.45-.12,2.55-.23,1.14-.1,2.48-.18,3.57-.77.53-.29,1.06-.6,1.54-.96.52-.38.8-.69,1.46-1.36,1.16-1.1,2.32-1.99,3.7-2.71,1.41-.69,2.92-.9,4.62-.98.43,0,.87-.02,1.34.06.23.03.46.06.71.14l.36.11.18.06c.07.03.16.08.24.12.6.34.87.64,1.18.94.29.3.54.59.76.89.44.59.91,1.17,1.34,1.63l.72.74c.26.27.5.55.73.83.91,1.14,2.15,1.73,3.04,2.91.88,1.17,1.62,2.53,2.41,3.74.8,1.22,1.26,2.81,1.91,4.09.65,1.28.75,2.71,1.33,4,.58,1.29,1.96,2.34,2.53,3.6.57,1.27,1,2.53,1.63,3.75.63,1.22,1.03,2.55,1.77,3.64.73,1.07,1.28,2.32,2.19,3.2.45.43.92.79,1.4,1.12.23.14.52.34.69.43.17.1.2.05-.03.04-.27,0-.4.08-.33-.06.04-.12.24-.47.38-.74.27-.58.41-1.1.67-1.48.5-.74.96-1.63,1.15-2.85.1-.6.28-1.2.46-1.83.18-.64.32-1.18.28-1.84-.05-.91.14-2.08-.13-3.37-.21-1.05-.98-2.11-1.33-3.28-.31-1.08-.71-2.14-1.12-3.32-.4-1.22-1.12-2.31-1.43-3.46-.3-1.13-.5-2.3-.85-3.31-.18-.52-.38-1.03-.57-1.34-.28-.44-.57-.88-.88-1.27-.69-.89-1.62-1.55-2.39-2.19-.96-.79-1.5-1.81-2.31-2.33-.28-.18-.74-.49-1.32-.87-.59-.38-1.31-.87-2.02-1.4-1.1-.82-2.81-1.45-3.74-2.11-.86-.63-1.44-1.13-1.62-1.46-.18-.33.1-.5.96-.23.38.08-.27-.42-.05-.37Z"/>
    </g>
    <g>
      <path class="cls-4" d="M854.44,803.82c3.51.26,7.03,1.01,10.01,3,2.94,1.96,4.02,5.39,5.88,8.39,3.52,5.66,6.45,11.3,7.04,18.26.05.64.01,1.35-.39,1.85-.43.52-1.15.66-1.82.77-1.47.24-3,.47-4.43.03-3.51-1.1-4.53-5.41-5.85-8.84-1.31-3.4-3.73-6.04-5.3-9.25-.49-1-.71-2.01-1.42-2.89-1.07-1.32-2.5-2.45-3.82-3.51-.8-.64-1.65-1.27-2.63-1.58-1.34-.43-2.8-.23-4.2-.1-1.76.16-3.52.2-5.29.11-.54-.03-1.11-.08-1.53-.42-.3-.25-.47-.61-.62-.97-.77-1.76-1.45-3.55-2.04-5.38,4.95.11,9.9.26,14.84.44.52.02,1.05.05,1.58.09Z"/>
      <path class="cls-4" d="M855.02,803.31c.81-.04,1.77.41,2.59.52.8.1,1.7-.5,2.55-.27.84.22,1.58.73,2.37,1.03.78.3,1.7.34,2.48.8.78.46,1.44,1.28,2.06,1.94.63.65,1.08,1.43,1.56,2.15,0,0-.08,1.22.53,2.5.31.64.88,1.32,1.3,2.07.37.65,1.27,1.01,1.73,1.71.59.91.6,2,.99,2.49.54.68.95,1.16,1.47,1.87.37.51.59,1.1,1.08,2.08.44.92,1.26,1.64,1.65,2.63.4.97.71,1.99,1.02,3,.3,1.02.42,2.09.61,3.14.09.52.17,1.05.22,1.58l.09.8c.03.33.04.69,0,1.1-.03.4-.12.86-.33,1.35-.2.48-.58.99-1.03,1.34-.91.69-1.71.81-2.28.93-1.02.18-1.97.98-3.34.97-1.33.02-3.14-.38-4.36-1.29-.61-.44-.97-1.06-1.21-1.66-.25-.6-.4-1.18-.69-1.69-.58-.99-1.62-1.83-2.02-2.84-.39-.99-.91-1.85-1.26-2.75-.09-.22-.14-.45-.18-.69-.04-.21-.06-.44-.09-.67-.07-.45-.15-.92-.38-1.32-.44-.79-.82-1.66-1.34-2.49-.52-.83-1.73-1.35-2.26-2.28-.26-.46-.47-.96-.66-1.47l-.59-1.61c-.2-.53-.24-.98-.3-1.35-.03-.18-.06-.35-.1-.5-.04-.14-.11-.27-.26-.46-.54-.66-1.12-1.39-1.86-2.01-.72-.59-1.75-1.06-2.41-1.53-.34-.24-.72-.36-1.04-.41-.32-.05-.59-.03-.93-.09-.62-.1-1.55-1.08-2.56-1-1.01.08-2.06.9-3.11.89-1.07,0-1.95-.72-3.04-.83-.3-.04-.65-.05-1.09-.16-.43-.1-.96-.41-1.28-.75-.66-.72-.89-1.08-1.06-1.59-.28-.98-.23-1.94-.46-2.91-.17-.72-.14-1.47-.22-2.19l.44-.59c.25.06.51.11.78.13.89.05,1.75.16,2.56.2.89.06,1.74.11,2.54.17.91.04,1.77-.21,2.56-.17.93.05,1.79-.05,2.54.02,1.01.09,2.08-.26,2.78-.16,1.45.19,2.57.91,2.63,1.08.05.21-1.06.78-2.62.92-.69.06-1.61.2-2.63.23-.75.02-1.77-.06-2.71-.11-.79-.05-1.53-.86-2.45-.92-.81-.05-1.72.41-2.62.37-.82-.03-1.61.27-2.5.27,0,0-.33-.18-.89-.32l1.22-1.64c.03.41.13.93.36,1.48.27.64,1.07,1.07,1.42,1.83.16.34.29.71.43,1.08.13.35.32.84.41.96.06.09,0,.06-.1.07-.09.02-.11.13-.05.24.12.23.45.45.75.46.86.04,1.47.05,2.33.04.6-.01,1.28-.61,2.27-.72.99-.11,2.19-.02,3.46.02.63.02,1.32.15,1.97.41.64.26,1.2.6,1.71.92,1.03.67,1.83,1.18,2.72,1.87.87.71,1.45,1.69,2.19,2.61.42.5.82,1.12,1.09,1.65.28.54.5,1.02.67,1.42.38.87,1.12,1.66,1.68,2.51.57.87,1.61,1.21,2.29,2.09.67.88,1.25,1.95,1.86,2.99.3.51.53,1.18.68,1.77.15.59.27,1.15.45,1.65.36.98.19,2.05.57,2.94.38.91,1.58,1.28,1.96,1.72.4.47.77.85,1.35,1.01.56.14,1.42.39,2.4.21.48-.09,1.1-.11,1.33-.11.13,0,.18,0,.16.05-.03.04-.07.14-.08.14-.01.01,0-.25-.07-.62-.09-.47-.15-.94-.21-1.44-.11-1.01-1.16-1.99-1.29-2.94-.16-.95-.19-1.92-.44-2.87-.23-.96,0-1.98-.39-2.93-.27-.67-.32-1.61-.76-2.5-.37-.73-1.22-1.32-1.67-2.14-.41-.74-.9-1.5-1.36-2.28-.44-.74-1.35-1.48-1.75-2.29-.41-.83-.69-1.69-1.07-2.43-.4-.77-.82-1.48-1.25-2.08-.48-.67-1.13-1.12-1.65-1.52-.71-.54-1.08-1.4-1.71-1.72-.43-.23-1.42-.79-2.63-1.21-.95-.34-2.32-.1-3.17-.31-1.58-.39-2.27-1.13-.92-1.29.29-.06-.29-.29-.12-.33Z"/>
    </g>
    <g>
      <path class="cls-4" d="M703.6,612.58c4.57-1.33,9.67-2.62,13.9-.44,2.4,1.24,4.15,3.45,5.53,5.76,5.18,8.69,5.98,19.22,6.51,29.32.76,14.62-.91,29.18-.84,43.82.03,6.97,2.1,14.11.22,20.83-.24.85-.74,1.87-1.62,1.83-.88-.04-1.29-1.08-1.47-1.94-5.22-24.68,4.81-51.09-2.39-75.27-2.04-6.86-5.85-13.72-12.29-16.85-3.47-1.68-8.36-3.36-8.02-7.2.85-.15,1.69-.3,2.54-.45"/>
      <path class="cls-4" d="M704.49,611.75c1.49-.54,3.53-.7,5.17-.96,1.59-.24,3.09-1.11,4.92-.84,1.79.27,3.45,1.17,4.89,2.2,1.41.99,2.83,2,3.85,3.42.5.69.93,1.46,1.29,2.24l.57,1.16c.17.39.35.78.54,1.16.74,1.48,1.28,3.08,1.83,4.67,0,0-.02.52.06,1.38.05.87.2,2.07.49,3.49.29,1.4.8,3.11,1.05,4.86.23,1.55.96,3.05,1.15,4.7.23,2.14-.18,4.07,0,5.29.24,1.68.44,2.9.64,4.6.15,1.23.12,2.47.18,4.6.05,2,.51,3.9.51,5.92,0,2.01-.06,4.02-.1,6.03-.04,2.01-.23,4.02-.3,6.02-.08,1.99-.16,4-.23,5.99-.05,1.99-.09,3.97-.14,5.96-.03,1.99.54,3.93.54,5.89,0,.49,0,1,0,1.52.02.49.03.98.05,1.47.06,1.01.13,2.02.19,2.98.12,1.94-.54,3.69-.43,5.72.12,2.02.83,4.25.68,6.43-.06,1.08-.16,2.16-.31,3.24-.07.54-.2,1.08-.3,1.63-.17.67-.38,1.38-1.04,2.24-.34.42-.85.92-1.66,1.2-.81.28-1.66.26-2.45-.06-.79-.33-1.31-.89-1.6-1.34-.3-.47-.46-.88-.57-1.27-.11-.38-.17-.74-.21-1.08l-.06-.79c-.04-.52-.1-1.04-.19-1.55-.17-1.01-.36-2.02-.43-3.04-.07-1.02-.14-2.03-.24-3.05-.12-1.02-.34-2.06-.57-3.12-.22-1.05-.46-2.12-.47-3.14.05-2.04.24-4.02.37-6.03.09-2.02.57-3.91.72-5.91.12-2.01.41-4.01.55-6.01.14-2,0-4.01.15-6,.13-1.99-.03-4.1.1-6.07.15-1.97,1.3-3.72,1.36-5.71.11-1.99-.68-4.08-.66-6.04-.02-1.96.58-3.8.49-5.77-.19-1.98-1.1-4.27-1.37-6.16-.11-.95-.11-1.87-.18-2.77-.1-.9-.19-1.8-.37-2.75-.31-1.92-.48-3.77-1.19-5.62-.64-1.64-1.33-3.21-2.16-4.6-.9-1.53-1.87-2.93-2.95-4.11-1.22-1.35-2.72-2.22-4-3.04-1.52-.98-3.18-1.5-4.52-2.22-.91-.48-1.88-.9-2.75-1.41-.87-.5-1.65-1.13-2.06-1.82-.68-1.02-.74-2.26-.52-3.05l.3-.33c1.52-.03,2.53.09,2.64.19.14.11-.8.64-2.4,1.2l.85-.93c.09.59.28,1.15.7,1.7.6.8,1.98,1.61,3.75,2.41,1.28.62,3.18,1.39,4.98,2.54,1.47.95,2.25,2.6,3.52,3.99,1.12,1.22,2.65,2.44,3.62,4.06.88,1.46,1.9,2.78,2.65,4.49,0,0,.1.54.3,1.42.21.88.54,2.1.95,3.49.38,1.37,1.35,2.62,1.78,4.37.29,1.56.56,3.32.79,4.97.24,2.13-.31,3.78-.26,5.02.07,1.79.18,3.05.19,4.84-.01,1.24.61,2.71.59,4.83-.03,2.15-.37,4.38-.46,6.51-.05,2.13-.32,4.29-.42,6.42-.1,2.12-.13,4.18-.25,6.29-.13,2.12-.61,4.1-.74,6.21-.16,2.11,0,4.26-.09,6.37-.05,1.05.04,2.12.09,3.19.06,1.06.13,2.12.19,3.17.06,1.05.28,1.98.51,2.91.22.93.56,1.83.7,2.85.25,2.03.63,4.15,1.06,6.13.11.58.19.83.22.91,0,.04-.02-.04-.27-.23-.12-.09-.31-.18-.52-.23-.21-.04-.39-.05-.59-.02-.44.07-.74.34-.78.42-.06.1,0,.06.05-.02.06-.09.11-.21.17-.4.06-.23.12-.46.18-.69.42-1.8,1.06-3.6,1.06-5.65,0-2.04-1.03-4.24-1.21-6.36-.18-2.12-.23-4.23-.28-6.48-.04-2.24.3-4.36.3-6.54.01-2.15.4-4.36.46-6.5.05-2.14.01-4.11.13-6.24.12-2.14-.59-4.7-.42-6.81.17-2.09.48-4.09.61-6.17.14-2.09.77-3.87.78-5.98.01-1.49.35-3.26.28-5.29-.04-1.65-.64-3.52-.74-5.41-.09-1.72-.29-3.51-.46-5.33-.17-1.75-.85-3.55-1.13-5.28-.3-1.73-.54-3.48-.97-5.13-.47-1.71-1-3.4-1.64-4.92-.69-1.68-1.64-3.25-2.44-4.56-.99-1.61-1.53-3.07-2.6-3.96-.69-.62-2.53-1.9-5.07-2.2-1.96-.28-4.51.6-6.23.91-3.24.61-4.83.38-2.34-.61.51-.23-.67-.09-.37-.23Z"/>
    </g>
    <g>
      <path class="cls-11" d="M723.89,649.76c-2.3,1.28-24.28-2.24-25.08-3.66-.8-1.43,2.92-26.14,8.04-27.9,5.11-1.76,6.29-.92,8.31-.08,1.86.78,5.41,2.21,6.32,4,2.33,4.63,3.5,9.25,3.54,14.43.04,4.56,1.17,11.93-1.13,13.21Z"/>
      <path class="cls-11" d="M723.51,649.31c-.16.03-.37.18-.62.14-.23-.02-.52.22-.77.17-.25-.07-.51-.02-.76-.08-.26-.06-.46-.52-.71-.55-.25-.03-.57.59-.83.55-.26-.04-.43-.73-.68-.77-.25-.04-.49-.22-.74-.26-.25-.04-.6.65-.86.62-.26-.03-.52-.01-.77-.05-.26-.04-.46-.48-.71-.52l-.77-.1c-.25-.04-.53.08-.79.04-.26-.04-.49-.25-.74-.27-.26-.03-.52,0-.78-.03-.26-.02-.55.23-.8.21-.26-.03-.53-.03-.79-.08-.31-.05-.52-.58-.82-.66-.3-.08-.67.17-.97.09-.3-.08-.56-.34-.86-.39-.3-.06-.62-.14-.94-.12-.31.01-.64.38-.96.39-.32.01-.58-.46-.89-.52-.3-.06-.77.46-1.07.34-.29-.11-.51-.44-.8-.55-.29-.11-.5-.48-.8-.56-.3-.07-.67.24-.98.19-.3-.05-.62-.04-.92-.1-.3-.06-.51-.5-.78-.6-.35-.11-.25-.48-.29-.55,0-.05-.44.25-.61.17-.02-.01-.04-.03-.04-.06.02-.17-.02-.29-.02-.45,0-.2.73-.53.74-.8l.04-.89c.02-.3-.16-.61-.12-.91.04-.3-.36-.68-.29-.98.08-.3.16-.6.24-.89.07-.3.28-.56.33-.87.05-.3.09-.6.08-.91-.02-.31-.03-.63-.05-.94,0-.32.41-.57.47-.87.06-.3-.17-.66-.04-.95.13-.29.16-.61.28-.9.13-.29.14-.58.21-.88.06-.3.39-.56.4-.87.01-.31-.43-.66-.41-.98.02-.31.6-.54.67-.84.07-.3.25-.55.36-.83.11-.29-.16-.71-.04-.99.12-.29.21-.57.29-.86.09-.29.57-.46.67-.75.1-.29-.4-.77-.3-1.06.1-.29.5-.47.59-.76.1-.29,0-.61.06-.91.05-.3-.12-.66-.07-.96.06-.31.7-.43.81-.71.12-.27.3-.5.45-.75.15-.25.37-.46.53-.7.16-.24.08-.62.22-.87.15-.24.58-.3.69-.52.12-.19.1-.55.24-.71.13-.2.23-.35.38-.47.07-.05.07-.15.1-.3.02-.15.2-.3.33-.33.3-.06.61-.08.9-.13.3-.05.73.49,1,.43.27-.07.42-.65.71-.72.28-.06.64.37.88.34.26-.04.5.11.73.11.21,0,.5-.67.76-.64.26.04.34.69.56.76.22.06.7-.39.98-.27.27.12.35.86.65.96.3.1.64.06.93.15.29.09.79-.34,1.07-.21.28.13.58.31.82.5.24.19.33.57.55.76.22.2.27.62.49.76.22.14.6.04.84.15.24.11.39.31.58.42.1.06.18.1.29.15.08.06.15.08.21.2.13.27.14.6.24.89.09.29.4.5.49.79.08.29.27.52.38.8.11.28.02.64.16.9.13.27.13.6.26.86.12.27.42.48.51.77.08.29.26.56.33.85.06.3-.07.63-.01.92.05.29.19.57.25.86l.2.87.12.89c.04.3.24.57.27.87.03.3-.24.63-.26.93-.02.3.17.6.14.9-.03.3-.25.59-.24.88,0,.3.42.56.45.87.03.32-.6.7-.56,1.02.04.32.32.61.34.93.02.32.31.62.33.93.02.31-.39.65-.37.96l.07.92c.01.31-.07.61-.06.92,0,.31.2.6.21.91,0,.31-.03.6-.03.9,0,.3.06.59.04.89-.01.3.02.58,0,.87-.02.29.06.56.03.84-.03.28.08.54.05.81-.07.22-.44.41-.52.52-.05.17.21.44.14.57,0,.06-.24-.2-.21-.17.26.3.34.58.43.8.14.31.43.4.64.66.12.2.52.1.84.34.15-.09-.07.07.08-.02.28-.35.72-.52.84-.77.23-.39.22-.71.34-.96.13-.27-.05-.59.04-.93.07-.24.02-.49.05-.82.04-.33.77-.57.76-.81,0-.34-.23-.59-.27-.83-.04-.24-.11-.47-.14-.79-.02-.22-.42-.46-.42-.78,0-.32.4-.57.41-.79.01-.32.03-.54.05-.77.02-.23-.32-.47-.32-.78,0-.21.49-.47.47-.79-.02-.31-.72-.49-.75-.69-.05-.3.03-.52-.03-.74-.06-.22-.22-.45-.27-.75-.03-.21.2-.49.19-.79,0-.3.02-.61.05-.91.04-.32.08-.64.12-.95.03-.32-.29-.61-.31-.93-.02-.32.13-.62.04-.94-.09-.31.08-.69,0-1-.1-.31-.16-.61-.21-.92-.05-.32.21-.61.23-.95.02-.33-.71-.65-.7-.97,0-.32.33-.67.26-.98-.08-.31-.33-.56-.46-.86-.13-.29-.41-.53-.54-.81-.14-.29.08-.73-.02-1.03-.1-.3-.46-.51-.56-.81-.11-.29.25-.78.13-1.08-.12-.3-.54-.47-.67-.76-.13-.29-.57-.45-.68-.74-.12-.29.1-.73-.02-1.03-.03-.08-.04-.15-.07-.24-.03-.11-.06-.23-.1-.35-.06-.25-.15-.44-.29-.62-.28-.33-.67-.52-.98-.73-.31-.2-.85.02-1.14-.13-.29-.15-.27-.87-.56-1.03-.3-.17-.84.14-1.11-.03-.27-.17-.53-.37-.8-.53-.28-.16-.66-.04-.95-.17s-.35-.86-.65-.94c-.3-.08-.74.32-1.03.24-.3-.08-.5-.46-.83-.58-.32-.12-.67-.21-1.01-.29-.35-.08-.71-.12-1.07-.15-.36-.03-.7.25-1.03.27-.33.03-.7.01-1.04,0-.33-.01-.68-.29-1.02-.28-.33.02-.77-.26-1.08-.16-.32.1-.51.59-.8.71-.15.06-.27.19-.39.32-.12.13-.23.24-.44.36-.4.19-.8.32-1.13.58-.24.26-.81.3-1.01.6-.23.29-.53.52-.71.82-.2.3-.05.77-.2,1.06-.17.29-.32.58-.43.9-.1.31-.23.61-.31.92-.09.31.18.75.08,1.04-.11.29-.69.42-.79.72-.1.3.33.77.24,1.07-.09.3-.67.44-.77.74-.09.3-.22.59-.31.89-.09.3-.07.63-.15.93-.08.3.12.68.05.98-.08.3-.2.61-.33.9-.13.29-.33.54-.46.83-.12.29-.16.59-.23.9s.02.65-.06.95c-.08.3-.32.56-.4.86-.08.3-.04.62-.1.93-.06.3-.39.56-.45.86-.06.3-.49.54-.56.84-.06.31.45.72.4,1.02-.05.31.12.59.14.91.02.31,0,.63.03.95.03.32-.49.61-.53.92-.04.31-.03.62-.07.93-.05.31.12.65.07.95-.04.31-.26.6-.29.91-.03.31-.25.61-.26.93-.01.32.43.65.43.97,0,.33-.36.57-.35,1.07.02.21.04.41.1.6.07.18.12.36.19.54l.03.07c.12.17.33.28.53.35.21.07.43.1.6.2.18.08.34.18.52.27.14.07.28.14.44.19.31.09.66,0,.96.08.3.08.61.11.92.19.3.08.49.64.79.7.31.06.63.03.93.1.3.07.59.2.9.26.3.06.64-.01.94.04.31.05.59.24.9.28.31.03.66-.25.96-.22.31.03.66-.15.96-.11.31.04.53.59.84.64.31.05.65-.17.96-.13s.57.39.87.43c.26.03.57-.43.83-.41.26.02.49.36.75.37.26.01.53-.14.79-.13.26.01.47.55.73.57.26.02.58-.62.84-.6.26.01.51.09.77.1.26.01.49.52.75.53.26.01.53-.2.79-.19.26.01.52.06.78.11.26.05.53.04.79.11.26.07.48.36.74.41.26.05.55.27.82.26.27,0,.52-.54.78-.56.26-.02.5-.26.76-.3.26-.05.53.02.79-.04.25-.06.55.06.81-.05.13-.06.1-.24.08-.3-.02-.08-.21-.33-.3-.32Z"/>
    </g>
    <g>
      <path class="cls-8" d="M782.09,794.97c2.57,2.98,4.2,6.76,4.63,10.67"/>
      <path class="cls-9" d="M782.47,794.71c.12,0-.02.26.06.3.08.04.63-.31.69-.25.07.06-.02.24.06.29.08.04.39-.09.46-.04.07.05-.02.23.05.29.07.06.07.16.13.22,0,0-.42.43-.37.58.03.07.21.06.25.13.04.07.48-.13.55-.07.09.08-.23.41-.13.42.14,0,.27.01.42.02.1.01.1.09.18.17.08.08.46-.04.55.04.08.08.14.17.22.25.08.08.06.22.12.31.07.09.11.19.18.28.07.09.14.17.2.26.06.09.56-.04.62.05.06.1.15.19.16.31.01.12-.61.51-.6.63,0,.12.51.01.55.12.04.1.25.13.31.22.06.1-.3.37-.25.47.05.1-.02.24.01.35.03.1.63,0,.64.12.01.11-.16.29-.16.41,0,.11-.28.32-.27.43.02.11-.06.25-.02.35.04.1.3.13.34.23.03.1.33.13.34.25,0,.11-.81.45-.79.55.02.1.65.05.66.16.01.11-.53.35-.54.45,0,.11.62.1.55.22-.07.13-.38.28-.45.4-.08.12-.42.29-.43.39,0,.09-.05.19-.05.28,0,.09-.04.19-.03.27,0,.09.24.14.24.23,0,.1.11.17.08.25-.04.11.29.18.24.26-.11.17-.61.34-.76.36-.16.03-.73-.02-.89-.15-.07-.06-.22-.13-.28-.21-.05-.06-.01-.17,0-.26,0-.07.65-.25.66-.34,0-.08-.4-.1-.41-.19,0-.08-.29-.1-.33-.18,0,0,.39-.18.29-.3-.05-.06-.55-.02-.6-.09-.05-.06.02-.16-.02-.23-.05-.09.56-.31.55-.37-.02-.08-.03-.14-.05-.23-.01-.06-.49,0-.54-.09-.06-.09.13-.25.06-.33-.07-.08-.02-.2-.09-.29-.07-.08-.21-.14-.26-.23-.05-.09.18-.27.17-.37-.01-.1-.21-.14-.22-.24-.01-.1-.23-.13-.27-.22-.05-.09-.59.04-.71-.02-.11-.06-.11-.17-.22-.23-.11-.06.09-.26.05-.35-.04-.09.32-.35.3-.45-.02-.1-.67.08-.67-.02,0-.1.08-.25.04-.34-.04-.09.14-.29.06-.36-.07-.07.12-.29.05-.36-.07-.07-.21-.1-.24-.2-.04-.1-.68.14-.66.02.02-.12.14-.3.16-.42.02-.12.41-.46.38-.56-.02-.07.19-.3.15-.4-.03-.08-.41.06-.45-.02-.03-.08-.1-.13-.14-.21-.04-.08-.37.04-.4-.04-.03-.08.02-.22,0-.31-.02-.09-.05-.18-.07-.26-.02-.1-.15-.11-.17-.2-.02-.11.32-.47.3-.54,0-.06,0-.21-.01-.37-.01-.12-.41.03-.39-.09.02-.23.43-.68.68-.71.07-.03.15-.17.19-.18Z"/>
    </g>
  </g>
  </g>
</svg>