<?xml version="1.0" encoding="UTF-8"?>
<svg id="Layer_1" data-name="Layer 1" xmlns="http://www.w3.org/2000/svg" viewBox="0 0 200 200">
  <defs>
    <style>
      .cls-1 {
        fill: #ffd2d4;
      }

      .cls-2 {
        fill: none;
        stroke: #f7f;
        stroke-linejoin: bevel;
        stroke-width: 2px;
      }
    </style>
  </defs>
  <path class="cls-1" d="M103.41,62.3c-29.92,0-97.21,7.87-97.34,13.6s64.01-3.33,64.01-3.33c0,0-69.65,40.03-66.79,45.57s80.13-45.2,80.13-45.2c0,0-57.72,51.36-51.62,56.32,3.84,3.13,59.59-51.7,59.59-51.7,0,0-48.39,87.1-42.33,88.6s50.23-85.61,50.23-85.61c0,0,2.1,68.61,8.35,68.87s-.12-68.65-.12-68.65c0,0,50.34,85.13,56.75,82.22s-48.57-85.47-48.57-85.47c0,0,56.89,48.86,60.38,43.49s-49.76-46.92-49.76-46.92c0,0,66.56,33.22,68.04,27.64s-58.11-31.28-58.11-31.28c0,0,63.78,7.26,63.78,2.06s-66.68-10.22-96.59-10.22Z"/>
  <g id="stroke">
    <path class="cls-2" d="M103.41,62.3c-29.92,0-97.21,7.87-97.34,13.6s64.01-3.33,64.01-3.33c0,0-69.65,40.03-66.79,45.57s80.13-45.2,80.13-45.2c0,0-57.72,51.36-51.62,56.32,3.84,3.13,59.59-51.7,59.59-51.7,0,0-48.39,87.1-42.33,88.6s50.23-85.61,50.23-85.61c0,0,2.1,68.61,8.35,68.87s-.12-68.65-.12-68.65c0,0,50.34,85.13,56.75,82.22s-48.57-85.47-48.57-85.47c0,0,56.89,48.86,60.38,43.49s-49.76-46.92-49.76-46.92c0,0,66.56,33.22,68.04,27.64s-58.11-31.28-58.11-31.28c0,0,63.78,7.26,63.78,2.06s-66.68-10.22-96.59-10.22Z"/>
  </g>
</svg>