<?xml version="1.0" encoding="UTF-8"?>
<svg id="Layer_1" data-name="Layer 1" xmlns="http://www.w3.org/2000/svg" viewBox="0 0 114.83 131.1">
  <defs>
    <style>
      .cls-1 {
        fill: #ffc0c4;
      }

      .cls-2 {
        fill: #ffd2d4;
      }

      .cls-3 {
        fill: #550017;
      }
    </style>
  </defs>
  <g>
    <path class="cls-2" d="M1.25,53.68c.77-3.73,1.99-7.47,4.29-10.5,3.17-4.18,8.38-6.48,13.5-4.68.56.2,1.12.44,1.59.81,1.33,1.04,1.77,2.88,1.75,4.57,0,.49-.04.99.08,1.46s-1.51,11.87-1.03,11.99c1.66.4,4.98-16.33,5.38-17.47,2.43-6.9,5.66-19.92,8.16-26.88,2.21-6.17,3.24-10.61,5.93-11.75.93-.39,1.99-.31,2.99-.35,2.36-.1,12.43.48,13.09,7.14.66,6.66-8.76,26.63-3.59,27.44,1.92.55,9.73-16.75,10.26-19.2.53-2.45,1.57-7.75,2.54-9.37.44-.73.89-1.47,1.33-2.2.17-.27.33-.55.58-.76.31-.27.72-.39,1.12-.47,1.73-.34,3.53.07,5.12.82s3,1.84,4.39,2.91c7.32,5.64,1.36,13.92-1.6,20.4-1.4,3.07-4.88,13.15-2.7,13.78,2.06.59,5.3-7,5.93-8.25,1.02-2.02,1.94-4.07,2.85-6.14,1.13-2.54,3.26-10.06,3.88-11.05.78-1.24,2.39-1.75,3.84-1.62s3.07-.38,4.38.28c2.34,1.17,5.93,3.58,6.19,6.19.17,1.72-2.34,12.75-3.91,16.37-1.66,3.82-5.29,7.69-6.46,11.68-.27.94-2.51,5.34-1.76,6.27,1,1.24,10.97-14.02,11.68-14.18s4.3-1.46,4.58-.8c.11.26,4.74,1.4,5.95,2.82,7.73,9.11-7,21.28-11.56,28.06-.87,1.29-5.72,5.89-6.57,7.19-5.21,8-6.04,12.95-10.32,21.48-4.36,8.7-10.73,21.71-15.43,24.68s-16.36,5.01-20.21,5.66c-8.79,1.48-19.47-3.26-27.05-7.94C6.93,113.74,4.48,89.7,1.17,81.97c-.28-.66-1.44-20.98.08-28.29Z"/>
    <path class="cls-3" d="M1.6,52.63c.11-.54.13-1.4.27-1.92.15-.53.16-1.08.33-1.6.17-.53.67-.96.87-1.46.2-.51.44-.96.68-1.44.26-.49.5-.97.79-1.42.29-.47.57-.97.89-1.4.33-.44.47-.99.83-1.39.36-.43.79-.79,1.18-1.17.42-.37.83-.75,1.28-1.06.47-.32,1.05-.49,1.53-.74.48-.28.89-.62,1.4-.83.53-.21,1.13-.24,1.66-.37.56-.1,1.16-.08,1.7-.12.55-.03,1.08-.18,1.63-.12.56.03,1.11.05,1.66.16.55.16,1.05.52,1.56.75.52.22,1.06.48,1.48.92.42.43.67.98.89,1.5.22.52.68,1,.76,1.6.07.58.04,1.19.01,1.73,0,.26,0,.5.04.7l.03.15s0,.01.03.1c.02.1.02.22.02.24,0,.18,0,.31-.02.46-.05.54-.1,1.07-.15,1.62-.04.53-.07,1.08-.11,1.62-.05.53-.42,1.08-.47,1.63-.06.53-.17,1.03-.24,1.57-.07.53.12,1.13.05,1.67-.06.53.01,1.06-.03,1.6-.02.26-.11.52-.19.79-.08.24-.16.58-.13.69.13-.06-.36.15-.35.12-.02.01-.04.04-.04.06l.06-.23s0-.03,0-.04c0-.03-.01-.01-.03-.07-.04-.12-.04-.11-.03-.11,0,0,.02-.02.04-.06.02-.04.04-.06.07-.11.1-.19.19-.41.3-.65.21-.45.5-.91.68-1.42.17-.49.35-.98.52-1.5.16-.5.36-1,.52-1.53.15-.51-.07-1.14.07-1.67.13-.52.29-.98.39-1.52.1-.52.27-1.07.36-1.61.09-.53.14-1.08.27-1.62.12-.52.45-.94.61-1.47.16-.5.32-1.02.49-1.54.15-.52.02-1.18.15-1.72.06-.26.21-.55.4-.85.17-.25.34-.51.41-.78.14-.51-.08-.98.06-1.5.14-.51.27-1.1.43-1.63.17-.51.35-1.05.52-1.57.18-.5.36-1.01.54-1.52.17-.51.48-.96.63-1.49.15-.52.09-1.13.25-1.65.16-.51.54-.92.7-1.44.16-.51.07-1.12.22-1.65.15-.52.53-.97.69-1.49.15-.52.1-1.11.26-1.64.16-.51.31-1.02.47-1.55.15-.52.37-1,.5-1.53.13-.52.42-1.08.55-1.6.13-.52.22-1,.39-1.52.16-.51.27-1.05.44-1.56.17-.51.48-.98.66-1.49.18-.51.16-1.11.34-1.61.18-.5.18-1.06.35-1.57.17-.5.68-.91.86-1.42.17-.51.27-1.05.45-1.57.18-.51.32-1.04.52-1.55.19-.51.27-1.07.49-1.59.23-.51.48-1.03.78-1.54.28-.51.67-1.01,1.09-1.47.46-.44,1.03-.68,1.62-.92.59-.27,1.24-.42,1.81-.46.54-.02,1.09-.04,1.64-.06.57-.02,1.12-.2,1.68-.17.56.03,1.1.33,1.65.41.55.06,1.12.29,1.67.37.54.12,1.09.17,1.62.33.54.13,1.15-.02,1.69.19.54.22,1.03.6,1.52.92.24.16.5.31.77.46.25.18.5.36.72.56.23.18.39.44.54.68.15.25.33.46.49.72.16.25.35.48.53.71.18.24.3.51.43.79.06.14.11.29.16.44.03.16.04.32.05.48.02.33.05.64.1.93.07.58.4,1.11.36,1.69-.04.58-.25,1.12-.33,1.67-.08.55-.1,1.1-.21,1.65-.11.54-.37,1.05-.5,1.58-.13.53-.37,1.03-.5,1.55-.14.52-.07,1.1-.22,1.62l-.44,1.57c-.15.52-.56.86-.73,1.38-.18.51-.23,1.13-.4,1.64-.18.51-.39,1.03-.53,1.55-.14.52-.18,1.07-.28,1.6-.1.52-.08,1.02-.17,1.54-.09.52-.5,1.04-.61,1.56-.11.52-.04,1.06-.14,1.58-.09.51-.23,1.01-.28,1.52-.05.51-.17,1.03-.12,1.51.05.49.35.88.5,1.14.11.21.28.29.51.39l-.02.41c.03-.08.03-.15,0-.2-.01,0-.03-.18-.04-.19h.01c.07-.01.23-.22.35-.4.12-.21.24-.42.39-.62.3-.4.57-.76.83-1.21.25-.46.79-.91,1.02-1.39.24-.48.43-.91.68-1.38.25-.47.25-1.12.51-1.58.25-.47.59-.87.84-1.35.25-.47.45-.95.68-1.43.23-.48.5-1.01.76-1.49.25-.47.72-.71.96-1.19.24-.48.25-1.13.46-1.62.21-.49.69-.87.9-1.36.21-.49.15-1.09.34-1.59.19-.49.67-.89.84-1.39.08-.26.1-.48.11-.75,0-.27.02-.55.07-.81.1-.53.11-1.07.21-1.6.11-.53.18-1.08.3-1.62.13-.53.25-1.04.38-1.57.13-.53.24-1.07.39-1.61.15-.54.41-1.07.65-1.62.1-.26.28-.59.42-.83l.42-.69c.27-.47.54-.94.81-1.41.14-.23.38-.48.69-.7.32-.23.69-.36.99-.47.61-.22,1.18-.64,1.82-.64.62,0,1.08.37,1.63.48.56.12,1.15.29,1.69.48.53.19,1.12.08,1.65.33.52.24.98.73,1.46,1.02.48.29.9.64,1.34.97.44.33,1.02.44,1.46.81.44.4.65,1.01,1.04,1.42.34.46,1,.69,1.3,1.23.29.53.47,1.12.63,1.69.1.28.19.57.25.86.03.3.06.59.12.88.14.58,0,1.15.04,1.72-.04.56.26,1.28.12,1.85-.16.55-.31,1.09-.51,1.61-.19.54-.68.88-.88,1.39-.18.52-.16,1.11-.38,1.62-.2.51-.32,1.04-.55,1.54-.22.5-.56.97-.8,1.45-.24.49-.38,1.04-.63,1.52-.25.48-.79.77-1.03,1.24-.23.48-.53.95-.74,1.44-.21.48-.24,1.05-.42,1.55-.19.5-.3,1.02-.48,1.52-.17.5-.21,1.06-.37,1.57-.17.51-.42.95-.54,1.47-.12.51-.35,1.06-.45,1.57-.11.52-.2,1.01-.31,1.52-.1.51.02,1.13-.06,1.62-.07.48-.43.84-.41,1.3,0,.22.06.44.11.56.08.12.03.08.14.1.18.03.61-.3.91-.66.32-.36.43-.84.7-1.26.27-.43.6-.86.87-1.31l.78-1.38c.26-.46.66-.81.91-1.28.25-.48.25-1.1.48-1.59.24-.5.52-.98.74-1.46.22-.49.34-1.02.57-1.51.22-.49.75-.84.98-1.32.23-.49.34-1.02.57-1.51.23-.49.5-.95.69-1.43.19-.49.31-1.02.48-1.53.18-.5.48-1.01.64-1.52.16-.51.12-1.05.27-1.57.15-.52.46-.99.62-1.5.17-.52.09-1.14.28-1.66.18-.51.61-.88.81-1.39.11-.26.14-.54.2-.85.02-.14.07-.32.15-.51.07-.18.16-.33.27-.47.45-.56,1.1-.86,1.68-1.12.6-.27,1.26-.23,1.86-.27.3-.02.61-.02.9,0,.23.02.48.01.73,0,.51-.02,1.04-.36,1.64-.36.59,0,1.23.11,1.89.35.16.05.34.14.47.2l.38.18c.25.13.5.25.74.39.49.28.83.86,1.3,1.17.46.31.92.62,1.36.98.43.36.91.65,1.29,1.1.38.44.89.86,1.16,1.46.27.59.36,1.26.32,1.95-.03.63-.04,1.17-.12,1.73-.09.55-.47,1.02-.58,1.56-.1.53.15,1.17.03,1.7-.12.53-.24,1.05-.36,1.58-.12.53-.49,1-.62,1.53l-.4,1.58c-.14.53-.01,1.12-.15,1.65-.15.53-.45,1.01-.6,1.54-.13.53-.21,1.06-.37,1.59-.16.53-.53,1.01-.75,1.53-.21.52-.38,1.07-.64,1.57-.26.5-.62.94-.9,1.41-.28.47-.3,1.1-.59,1.56-.3.46-.8.74-1.12,1.18-.32.44-.59.92-.9,1.36-.31.44-.49.96-.76,1.41-.26.45-.67.83-.91,1.3-.22.47-.51.92-.69,1.4l-.24.74c-.1.31-.21.54-.31.8-.21.5-.31,1.06-.5,1.55-.19.5-.49.97-.64,1.47-.15.5-.15,1.01-.2,1.44-.01.1,0,.2.01.28.02.02.03.05.04.07,0,.02.04.01-.01.01-.05,0-.1.03-.15.06-.02.01-.05.03-.07.05l-.03.03h0s0,.01,0,.01l-.2.16h0s-.02.01-.02.03c0,0,.01-.02.01-.03,0,0,.02-.11,0-.16,0-.11-.04-.18-.08-.31-.02-.06-.05-.14-.07-.19,0,0,0,0,0,0l.03-.02.1-.07c.32-.23.73-.58,1.08-.95.36-.38.85-.62,1.18-1.04.34-.42.45-.94.76-1.38.3-.44.75-.86,1.04-1.31.3-.45.45-.99.77-1.43.32-.44.89-.61,1.22-1.03.33-.42.57-.99.91-1.41.33-.42.69-.84,1-1.28.32-.44.59-.91.9-1.36.31-.45.73-.84,1.05-1.29.16-.22.3-.45.45-.69.07-.12.15-.23.24-.35.11-.13.15-.22.4-.42.04-.03.05-.05.19-.11.06-.03.12-.05.18-.06h.02s.08-.02.08-.02l.18-.05.39-.1c.27-.07.53-.15.79-.22.53-.16,1.11-.18,1.67-.31.28-.06.55-.21.86-.34.18-.05.33-.13.61-.12.07,0,.11-.01.21.01.1.02.21.06.31.1l.15.07c.07.05.15.11.22.18.07.07.13.15.19.23l.07.12.02.03v.02s0,0,0,0h0c-.43.18.96-.39-.96.4h.01s.06-.02.08-.04c.1-.05.19-.15.23-.26.02-.05.04-.11.04-.17.03-.08.12-.21.18-.31.04-.08.04-.07.04-.07h0s0,0,0,0h.01s.07.06.11.09c.1.07.2.14.31.22.22.15.44.31.7.41.5.2.92.51,1.42.73.5.22,1.13.37,1.64.63.51.27,1.08.27,1.64.76.32.28.42.48.63.73.18.24.37.47.52.73.35.48.7,1.06.95,1.62.2.58.31,1.19.4,1.79.07.29.11.59.16.89.06.3.09.6.08.9,0,.6-.11,1.16-.18,1.74-.1.58-.35,1.12-.51,1.67-.16.55-.23,1.11-.45,1.64-.2.54-.48,1.04-.73,1.55-.26.5-.56.99-.87,1.46-.29.47-.71.8-1.02,1.25-.32.45-.58.98-.9,1.43-.32.45-.49.96-.8,1.41-.31.45-.88.81-1.2,1.25-.32.44-.52.92-.87,1.34-.35.42-.73.77-1.11,1.17-.37.39-.78.71-1.15,1.1-.38.39-.62.98-.97,1.39-.35.41-.63.79-.94,1.23-.32.43-.72.85-1.02,1.28-.31.44-.49.98-.79,1.4-.16.22-.32.44-.48.66-.22.29-.41.5-.61.71-.38.42-.78.79-1.16,1.18-.39.39-.96.54-1.33.93-.38.39-.59,1.05-.98,1.42-.39.37-.82.65-1.2,1.02-.39.37-.7.74-1.03,1.12-.17.2-.3.38-.42.56-.13.22-.27.45-.4.68-.28.45-.73.83-.99,1.29-.27.46-.34,1.04-.59,1.5-.26.46-.67.84-.9,1.32-.24.48-.34,1-.56,1.48-.23.48-.42,1.02-.64,1.5-.23.48-.51.96-.73,1.44-.22.49-.67.84-.89,1.34-.21.5-.39,1.02-.59,1.52-.21.5-.34,1.03-.56,1.52-.22.5-.3,1.08-.52,1.57-.22.5-.51.93-.72,1.42-.22.5-.73.99-.92,1.5-.18.5-.37,1.01-.55,1.51-.2.51-.38.92-.61,1.41-.24.49-.42.96-.69,1.44-.27.45-.55.91-.82,1.36-.27.47-.54,1-.78,1.48-.25.48-.26,1.05-.49,1.54-.24.49-.47.98-.71,1.46-.23.49-.42,1.03-.66,1.51-.23.45-.55.87-.81,1.36-.23.46-.48.93-.73,1.42-.25.45-.51.93-.77,1.41-.25.45-.57.89-.85,1.36-.28.44-.56.89-.85,1.35-.28.44-.47.95-.77,1.41-.28.45-.59.91-.9,1.36-.32.42-.64.84-.96,1.27-.31.43-.66.82-.98,1.27-.31.43-.52.88-.83,1.33-.3.45-.88.82-1.21,1.25-.37.4-.56.96-1.02,1.34-.47.36-1.03.58-1.53.83-.48.29-.96.57-1.46.82-.5.21-1.1.2-1.6.39-.5.18-.97.58-1.49.71-.52.14-1.02.13-1.54.25-.52.12-1.1.15-1.62.28-.51.14-1,.35-1.52.47-.52.12-1.03.24-1.55.37-.52.12-1.04.24-1.56.36-.52.12-1,.37-1.52.51-.51.14-1.15.11-1.67.24-.51.13-.88.6-1.41.7-.52.09-1.08-.02-1.61.06-.53.07-1.06.33-1.6.39-.55.06-1.06.11-1.61.16-.55.02-1.11-.21-1.65-.19l-1.63-.02c-.54-.03-1.07-.2-1.61-.25-.54-.04-1.1-.13-1.63-.2-.54-.06-1.07,0-1.6-.11-.53-.1-1.09-.11-1.61-.26-.52-.14-.95-.52-1.46-.7-.51-.18-1.06-.27-1.56-.46-.5-.19-.97-.51-1.47-.69-.5-.2-1.04-.27-1.53-.49-.49-.21-.9-.55-1.38-.77-.49-.22-1.07-.33-1.55-.56-.49-.23-.97-.51-1.46-.73-.49-.22-.99-.15-1.47-.39-.49-.23-1.07-.49-1.53-.76-.47-.27-.69-.85-1.14-1.14-.45-.29-1.19-.3-1.63-.59-.45-.33-.73-.8-1.17-1.11-.43-.34-.99-.44-1.42-.79-.42-.37-.73-.92-1.11-1.3-.39-.39-.88-.66-1.22-1.08-.36-.42-.8-.75-1.13-1.18-.34-.43-.7-.84-1.01-1.29-.32-.45-.53-.98-.81-1.44-.3-.46-.61-.91-.87-1.38-.28-.47-.53-.95-.78-1.42-.26-.48-.67-.88-.9-1.36-.25-.49-.36-1.06-.56-1.56-.21-.5-.22-1.01-.39-1.5-.19-.51-.66-.94-.84-1.43-.2-.51-.32-1.05-.49-1.55-.18-.51-.13-1.06-.29-1.55-.17-.52-.42-1.02-.57-1.51-.17-.52-.24-1.12-.41-1.61-.18-.52-.52-.91-.68-1.4-.18-.52-.41-1.01-.54-1.5-.15-.53-.09-1.04-.2-1.54-.12-.53-.23-1.04-.34-1.54-.11-.53-.41-1.05-.54-1.54-.14-.53-.34-.97-.48-1.47-.15-.52-.11-1.14-.26-1.63-.16-.52-.56-.95-.69-1.44-.14-.53-.06-1.08-.19-1.57-.13-.53-.47-1.01-.6-1.49-.15-.51-.1-1.03-.27-1.5-.15-.52-.43-.92-.49-1.62-.07-.56-.15-1.08-.2-1.59-.05-.54-.3-1.08-.32-1.59-.02-.55.26-1.03.27-1.55,0-.53-.05-1.08-.04-1.59,0-.52-.09-1.06-.1-1.59,0-.52.18-1.05.16-1.59-.02-.52-.14-1.03-.16-1.57C.2,69.94,0,69.39,0,68.85c0-.51.07-1.02.08-1.56,0-.51.12-1.02.13-1.57.01-.51-.07-1.05-.06-1.6.01-.51,0-1.06.03-1.6.04-.5.09-1.02.14-1.56.04-.51.09-1.02.14-1.56.03-.51.32-.96.38-1.49.05-.51-.15-1.14-.07-1.68.08-.51.42-.94.53-1.46.06-.32-.04-1.11,0-1.08.04.03-.05.73-.09,1.01-.09.53-.12,1.04-.16,1.55-.05.53-.34,1.12-.36,1.63-.02.54.25,1.02.25,1.52-.01.54-.42,1.09-.44,1.6-.01.55.36,1.06.35,1.57-.01.54-.29,1.09-.28,1.6,0,.55.16,1.05.17,1.55.01.55.03,1.08.04,1.58.03.54,0,1.07.02,1.58.02.55,0,1.13.04,1.64.05.54.22.98.27,1.48.05.53-.03,1.08,0,1.59.03.53.17,1.04.18,1.56,0,.52-.15,1.01-.15,1.54,0,.52.19,1.08.23,1.61.04.51.19.99.24,1.52.05.5,0,1.05.08,1.57.01.14.04.2.05.27,0,.04.08.2.14.31.12.24.25.49.35.76.18.49.19,1.07.37,1.59.16.48.51.9.67,1.42.15.49.32,1.01.47,1.54.14.49.08,1.07.23,1.59.14.49.39.95.54,1.47.13.5.26,1.01.39,1.54.13.49.03,1.03.16,1.56.12.5.39,1,.53,1.52.13.5.23,1.03.38,1.55.14.51.23,1,.37,1.53.14.51.55,1,.7,1.52.14.51.04,1.09.21,1.6.16.5.69.88.87,1.39.17.5.08,1.1.27,1.61.18.5.35,1.01.55,1.51.19.49.66.87.87,1.36.2.49.42.97.64,1.46.21.48.34,1.01.57,1.5.23.48.62.8.9,1.26.27.45.51.99.8,1.43.29.44.58.87.87,1.32.29.44.59.86.87,1.32.27.44.59.87.88,1.31.31.42.5.96.86,1.37.38.37.82.84,1.24,1.17.42.32.86.48,1.29.77.44.28.74.71,1.19.99.44.29.93.45,1.39.73.45.28.96.51,1.42.78.45.27.81.68,1.28.93.47.25.97.45,1.44.71.46.25.84.61,1.31.87.47.25,1.03.38,1.52.6.48.23.99.22,1.49.42.49.2.98.6,1.48.77.5.18.95.45,1.46.62.5.17.99.36,1.5.52.5.16.99.38,1.5.53.51.14,1.13-.08,1.64.05.51.11.99.38,1.51.47.52.08,1.04.13,1.56.2.52.07,1.03.21,1.55.27.52.07,1.06-.17,1.57-.15.52.03,1.03.09,1.54.06.52,0,1.04.02,1.55-.05.51-.05,1.01-.29,1.54-.39.53-.09,1.09.13,1.62.04.53-.09,1-.53,1.53-.63.53-.1,1.02-.25,1.54-.36.52-.12,1.12-.01,1.64-.13.52-.12,1.05-.17,1.57-.3.52-.12,1.06-.38,1.58-.48.52-.09,1.07-.26,1.58-.37.52-.1,1.04.07,1.56-.08.51-.15,1.05-.28,1.56-.46.51-.17.87-.62,1.36-.81.5-.18,1.1-.13,1.59-.33.48-.21.93-.45,1.39-.69l.68-.36c.22-.12.42-.28.63-.42.43-.27.68-.8,1.06-1.14.35-.38.57-.92.91-1.31.33-.41.75-.72,1.07-1.14.31-.43.56-.89.86-1.32.29-.44.77-.78,1.06-1.22.29-.45.41-.98.69-1.44.28-.46.57-.92.85-1.37.27-.46.45-.92.68-1.4.23-.48.6-.96.82-1.44.23-.49.27-1.07.53-1.54.26-.47.8-.75,1.07-1.21.27-.47.49-.97.75-1.44.26-.47.55-.95.79-1.43.25-.48.31-1.08.56-1.55.25-.47.51-.95.76-1.42.26-.48.76-.8,1-1.28.24-.48.52-.92.76-1.39.25-.48.37-1.05.61-1.52.24-.48.36-1.02.58-1.51.23-.49.52-.94.72-1.43.2-.5.53-.97.72-1.46.2-.5.32-1.01.52-1.5.21-.5.43-.99.64-1.48.21-.5.52-.95.72-1.44.21-.5.12-1.12.33-1.61.21-.51.43-1.02.63-1.51.23-.5.62-.91.85-1.4.24-.5.39-1.02.64-1.5.24-.5.58-.94.84-1.41.25-.49.47-.99.73-1.46.26-.49.67-.88.95-1.34.28-.48.62-.87.91-1.32.15-.23.22-.52.31-.82.12-.34.24-.63.43-.84.38-.43.95-.6,1.32-.98.37-.4.7-.84,1.07-1.24.37-.4.58-.89.95-1.29.36-.39.87-.69,1.24-1.08.37-.39.66-.84,1-1.23.16-.19.31-.4.41-.58.14-.23.29-.48.45-.71.33-.45.91-.71,1.25-1.14.34-.42.37-1.07.72-1.5.34-.42.96-.66,1.3-1.08.35-.42.57-.92.92-1.33.35-.41.76-.76,1.11-1.17.35-.41.65-.86.99-1.28.34-.41.75-.77,1.09-1.18.33-.42.55-.94.87-1.37.33-.42.78-.71,1.09-1.13.32-.43.57-.92.86-1.37.28-.44.47-.94.73-1.4.27-.45.69-.82.93-1.29.23-.48.4-.97.59-1.46.2-.49.05-1.01.17-1.5.12-.48.57-1.04.63-1.55.03-.51.04-.94.02-1.44.01-.25-.03-.49-.06-.72-.03-.24-.06-.47-.1-.72-.05-.49-.38-1-.52-1.45-.09-.23-.12-.47-.16-.71-.06-.23-.13-.47-.26-.69-.12-.22-.29-.44-.45-.66-.16-.22-.33-.45-.49-.56-.36-.27-.83-.31-1.28-.5-.46-.2-.88-.55-1.37-.74-.5-.19-.94-.36-1.44-.56-.25-.1-.52-.17-.8-.25-.14-.04-.28-.08-.43-.14-.06-.02-.18-.07-.26-.11.01.02-.23-.12-.35-.3-.03-.04-.06-.09-.08-.13,0,0,0,.03.01.04.01.03.04.07.06.1.23.18.19.09.12.11-.07,0-.17,0-.29.02-.22.02-.47.08-.72.14-.5.11-1.02.23-1.53.41-.25.09-.51.16-.78.24l-.41.12-.21.06c.06,0,.18-.08.17-.07l.02-.02-.03.03c-.27.31-.61.75-.93,1.16-.32.42-.5.96-.82,1.39s-.8.75-1.11,1.19-.56.93-.88,1.37c-.32.44-.72.73-1.06,1.16l-1,1.28c-.34.42-.66.93-.99,1.37-.33.43-.43.99-.74,1.44-.31.44-.53.92-.86,1.36-.33.44-.92.78-1.3,1.2-.4.42-.69.87-1.3,1.3-.19.1-.31.23-.81.29-.24.04-.71-.12-.91-.42-.08-.14-.15-.29-.21-.44-.12-.52-.05-.87-.01-1.19.1-.64.39-1.15.57-1.68.18-.53.39-1.07.59-1.58.2-.51.15-1.08.34-1.57.1-.25.19-.48.25-.67l.28-.83c.21-.55.6-.9.88-1.39.28-.48.43-1.21.74-1.67.31-.46.85-.7,1.14-1.16.29-.46.31-1.07.6-1.53l.86-1.36c.28-.45.83-.75,1.11-1.21.28-.46.3-1.03.51-1.5.22-.47.29-.94.45-1.42.17-.47.4-1.02.56-1.52.17-.5.37-1.03.54-1.53.18-.5.56-.81.74-1.32.17-.51.13-1.17.26-1.69.13-.52.42-.99.54-1.52.13-.52.15-1.07.27-1.6.13-.52.06-1.08.18-1.61.1-.52.58-.98.67-1.51.1-.53-.02-1.08.06-1.6.07-.51.35-1.03.36-1.5,0-.44-.19-.95-.45-1.35-.26-.41-.69-.56-1.03-.89-.33-.34-.56-.88-.95-1.21-.39-.34-.92-.5-1.33-.8-.42-.29-.78-.67-1.23-.94-.22-.13-.49-.2-.75-.26-.13-.03-.27-.06-.39-.09-.1-.01-.17-.03-.26-.06-.32-.12-.8-.15-1.29-.15-.49,0-.98-.27-1.55-.27-.29,0-.59.04-.91.05-.24.02-.46.07-.69.08-.43.03-.94-.11-1.37.08-.43.19-.71.56-.96.87-.14.19-.2.28-.3.54-.1.22-.19.48-.28.72-.18.5-.52.97-.69,1.49l-.47,1.54c-.16.52-.09,1.08-.26,1.59-.17.51-.46,1-.63,1.51-.17.52-.1,1.09-.28,1.61-.17.52-.5,1-.7,1.52-.21.53-.29,1.1-.52,1.58l-.71,1.47c-.23.49-.64.9-.87,1.39-.23.49-.47.97-.7,1.46-.24.5-.32,1.06-.55,1.53-.23.48-.38,1.01-.62,1.51-.24.49-.56.96-.82,1.44-.26.48-.5.99-.79,1.47-.29.48-.72.85-1.04,1.32-.33.47-.77.85-1.19,1.28-.21.21-.44.42-.74.6-.29.17-.65.35-1.12.33-.46,0-.99-.38-1.15-.75-.18-.36-.25-.69-.28-1-.07-.62-.26-1.21-.19-1.79.07-.57.14-1.13.26-1.68.12-.55.49-1.02.62-1.55.14-.53.1-1.1.24-1.63.15-.53.42-1.04.58-1.56.16-.52.19-1.08.38-1.6.18-.52.27-1.05.46-1.57.2-.52.53-.99.75-1.51.23-.51.69-.9.93-1.39.24-.48.19-1.1.43-1.58.23-.49.56-.95.78-1.43.23-.48.61-.9.83-1.39.23-.48.19-1.14.4-1.62.23-.47.44-.94.64-1.42.21-.48.44-.89.59-1.39.16-.49.37-.96.49-1.46.06-.5.16-1.01.17-1.51-.02-.5-.19-1-.3-1.46-.04-.24-.06-.47-.11-.7-.07-.22-.14-.44-.23-.67-.12-.46-.28-.99-.52-1.42-.29-.4-.71-.66-1-1.04l-1.1-1.01c-.41-.34-.87-.64-1.29-.97-.42-.32-.9-.55-1.33-.83-.43-.28-.84-.6-1.29-.84-.45-.24-.97-.31-1.42-.47-.46-.16-.9-.35-1.38-.43-.47-.08-.95-.16-1.42-.13-.45.02-.99-.07-1.33.07-.18.08-.29.13-.44.26-.15.13-.3.35-.44.58-.28.46-.36,1.04-.64,1.51-.14.23-.26.48-.36.71-.08.19-.15.41-.24.64-.18.46-.61.87-.77,1.38-.15.51-.22,1.03-.37,1.54-.14.51-.22,1.06-.36,1.58-.13.52-.35,1.02-.47,1.55-.11.53-.09,1.08-.18,1.62-.04.27-.13.54-.24.85-.12.33-.25.6-.33.87-.16.54-.02,1.07-.22,1.59-.2.51-.6.9-.84,1.39-.24.49-.39,1.09-.64,1.57-.25.49-.56.91-.79,1.4-.22.5-.33,1.04-.56,1.54l-.68,1.48c-.24.49-.4,1.02-.65,1.5-.24.49-.82.78-1.08,1.26-.26.48-.44,1.01-.7,1.49-.27.47-.5.98-.77,1.45-.28.47-.68.9-.97,1.37-.29.47-.52.96-.87,1.42-.18.23-.35.45-.58.67-.23.2-.44.48-1.06.58-.12,0-.23,0-.34-.02l.08.02c-.64-.06-1.44-.35-1.81-1-.41-.68-.48-1.32-.56-1.93-.05-.62.3-1.23.36-1.78.05-.56-.1-1.14-.02-1.69.08-.55,0-1.1.11-1.65.11-.54.3-1.09.43-1.62.13-.54.54-.92.71-1.44.17-.51.08-1.29.26-1.8.18-.52.68-.82.83-1.34.15-.52.17-1.08.32-1.6.15-.52.08-1.1.22-1.62.15-.52.57-.95.71-1.47.14-.52.07-1.06.18-1.58.1-.52.08-1.02.17-1.54.09-.53.26-1.14.36-1.65.11-.52.52-.97.6-1.49.08-.52-.04-1.06,0-1.56.02-.5,0-.99-.1-1.44-.05-.23-.04-.46-.03-.69.01-.24-.06-.45-.12-.69-.07-.23-.2-.45-.39-.64-.18-.19-.32-.39-.47-.58-.31-.37-.62-.69-1.03-.97-.36-.33-.85-.48-1.26-.75-.45-.2-.81-.65-1.31-.81-.48-.19-.93-.48-1.43-.63-.51-.13-1.08-.13-1.6-.19-.52-.08-1.04-.13-1.56-.17-.53-.03-1.04.17-1.56.15-.52-.03-.98-.27-1.53-.29-.56-.02-1.18.12-1.64.14-.47.03-.84.02-1.22.25-.37.21-.85.43-1.14.84-.3.39-.48.85-.71,1.3-.22.47-.33.96-.54,1.44-.2.48-.3,1.05-.5,1.54l-.58,1.49c-.19.5-.62.88-.8,1.39-.18.51-.43,1-.61,1.51-.18.51-.18,1.09-.36,1.6-.18.51-.27,1.04-.44,1.54-.17.51-.57,1-.71,1.52-.14.52.05,1.03-.09,1.54-.14.52-.36,1.08-.51,1.59-.16.52-.29,1.1-.46,1.61-.17.51-.34,1.02-.51,1.53-.17.51-.28.99-.43,1.51-.15.52-.58.98-.72,1.5-.12.52-.25,1.05-.37,1.57-.14.52-.28,1.02-.42,1.54-.15.52-.24,1.06-.41,1.57-.17.51-.45.95-.62,1.46-.16.52-.33,1.07-.49,1.59-.17.57-.19,1.16-.34,1.7-.15.57-.25,1.12-.41,1.65-.16.57-.47,1.08-.64,1.61-.18.56-.09,1.2-.27,1.73-.18.47-.44.98-.58,1.52-.13.57-.34,1.11-.46,1.65-.13.58-.32,1.1-.46,1.64-.15.57-.2,1.17-.34,1.7-.15.57-.16,1.16-.29,1.7-.14.58-.46,1.1-.58,1.65-.12.57-.24,1.13-.36,1.67-.14.57-.39,1.08-.55,1.62-.17.56-.13,1.28-.36,1.82-.22.54-.58.93-.85,1.45-.14.28-.27.56-.41.85-.08.15-.17.31-.33.48-.04.07-.22.19-.35.26-.05.04-.18.07-.3.08-.06,0-.12,0-.19,0-.08-.02-.05.03-.29-.08-.09-.05-.17-.13-.23-.21-.03-.04-.05-.08-.07-.12-.02-.03-.01-.03-.02-.04l-.04-.13c-.03-.1-.03-.15-.03-.19-.01-.1-.02-.19-.01-.26,0-.16,0-.3,0-.45.01-.28.03-.57.04-.87.02-.57.28-1.18.32-1.77.04-.56-.14-1.14-.07-1.73.06-.55.12-1.13.19-1.72.07-.55.27-1.07.35-1.66.07-.55.22-1.09.29-1.68.06-.54.28-1.04.34-1.58,0-.02,0-.08,0-.07,0,.01,0,0-.01-.06-.02-.08-.04-.16-.07-.24-.04-.16-.08-.33-.11-.5-.06-.34-.1-.66-.09-.93.02-.51.24-1.03.13-1.6-.11-.54-.55-.94-.81-1.38-.25-.42-.49-.93-.94-1.23-.42-.27-.86-.62-1.41-.8-.27-.08-.56-.11-.83-.14-.28,0-.55,0-.81-.05-.55-.08-1.08-.1-1.6-.09-.28-.01-.55-.04-.82-.06-.27-.03-.54-.06-.8,0-.56.07-1.11.13-1.62.28-.55.16-1.02.47-1.5.68-.51.25-.93.62-1.37.89-.47.3-.91.65-1.32.98-.44.33-.86.65-1.24,1.03-.39.38-.7.83-1.04,1.25-.33.42-.79.72-1.1,1.19-.3.45-.62.89-.9,1.39-.26.47-.48,1-.72,1.52-.21.49-.41,1.01-.61,1.55-.19.5-.36,1.04-.53,1.59-.17.51-.21,1.1-.35,1.66-.09.32-.43,1.36-.47,1.33-.04-.03.28-1.12.35-1.41,0-.03,0,.49.06.36Z"/>
  </g>
  <g>
    <path class="cls-1" d="M10.7,41.53c1.12-.69,2.67-.28,3.62.63s1.44,2.2,1.82,3.46c2.41,8.14,1.3,16.85,1.85,25.32.05.74.14,1.55.67,2.06,3.11-3.2,4.47-7.7,5.29-12.08.2-1.08,1.36-3.79.83-4.76s-3.65,2.94-4.37,3.78c-.23-4.44.16-11.74-.07-16.18-.07-1.32-.22-2.81-1.26-3.63-.65-.51-1.51-.64-2.34-.73-2.54-.27-5.62-.01-6.87,2.22"/>
    <path class="cls-1" d="M11.01,41.16c.62-.3,1.48-.13,2.08.09.59.2,1.28.3,1.77.82.48.51.75,1.14,1.03,1.72.28.57.61,1.11.8,1.72.17.6.28,1.26.42,1.88.14.61.26,1.23.36,1.86,0,0-.11.77,0,1.87.07.55.21,1.21.27,1.89.06.6.3,1.19.36,1.82.06.82-.1,1.56-.05,2.03.07.65.14,1.12.2,1.77.04.47.03.95.05,1.77.02.77.19,1.5.21,2.27l.04,2.31c0,.77,0,1.54.01,2.31.02.76.04,1.53.09,2.3.06.74.06,1.58.2,2.17.07.33.26.54.43.62l-1.25.02c.18-.28.37-.54.58-.8.47-.55.9-1.22,1.3-1.83.38-.61.96-1,1.29-1.68.33-.68.42-1.5.65-2.21.24-.71.37-1.42.55-2.15.19-.72.54-1.45.69-2.19.07-.37.14-.73.27-1.16l.36-1.12c.23-.73.2-1.59.27-2.19.01-.15.02-.28.02-.38,0-.03,0-.1,0-.09h0s0,0,.03-.02l.03-.02h.01s.36-.2.36-.2c.05-.01.11-.09.1-.07,0,0-.05.12.02.41l.03.09s.02.08.02.06h-.01s-.04.01-.06.02c-.1.04-.23.12-.36.22-.53.41-1.14.83-1.65,1.38-.51.56-1.04,1.11-1.54,1.7l-.13.16-1-.34c-.05-.71-.16-1.42-.17-2.13-.01-.78-.14-1.59-.12-2.36.01-.77.41-1.47.43-2.24.02-.77-.25-1.59-.23-2.36.02-.77.29-1.48.3-2.24.02-.77-.25-1.7-.22-2.46.04-.75.17-1.41.18-2.16.01-.75.13-1.46-.04-2.2-.16-.65-.45-1.25-.94-1.63-.53-.42-1.18-.59-1.78-.68-.69-.1-1.36-.04-1.96-.06-.71-.01-1.36.08-1.92.17-.77.11-1.47.52-1.91.76-.96.46-1.56,1.16-1.66,1.18-.05.01-.02-.21.15-.57.17-.35.53-.83,1.08-1.21.49-.34,1.19-.69,2.02-.88.61-.15,1.45-.2,2.21-.19.64.01,1.23.35,1.94.45.61.1,1.43.06,2.11.57.59.45,1.07,1.05,1.3,1.79,0,0,.06.88.14,2,.04.55.29,1.09.32,1.77.03.6,0,1.27,0,1.9.01.81-.28,1.41-.28,1.89,0,.68-.02,1.17-.02,1.85,0,.48.2,1.04.2,1.84,0,.82-.11,1.67-.09,2.49.02.81-.02,1.65.01,2.46.02.73.09,1.44.14,2.17l-1.07-.37.14-.18c.52-.63,1.12-1.15,1.69-1.77.58-.61,1.08-1.28,1.87-1.81.23-.12.39-.29.87-.33.24-.03.64.17.75.42.08.16.15.32.18.45.12.57.07,1.03,0,1.47-.16.86-.14,1.59-.34,2.38-.05.19-.1.38-.15.57-.05.2-.07.31-.11.54-.08.42-.15.84-.23,1.25-.15.83-.47,1.72-.71,2.53-.24.81-.66,1.51-.98,2.29-.31.78-.42,1.76-.85,2.52-.42.75-.91,1.43-1.43,2.12-.41.56-.93,1.05-1.42,1.54l-1.1.02c-.18-.18-.32-.38-.44-.58-.29-.51-.35-1.03-.38-1.49-.02-.47,0-.87-.04-1.29-.06-.83-.13-1.59-.15-2.42,0-.83-.33-1.81-.3-2.63.02-.82.11-1.6.15-2.41.03-.81.26-1.51.26-2.33,0-.58.13-1.26.13-2.05,0-.64-.2-1.36-.23-2.1-.03-.66-.07-1.36-.12-2.07-.03-.68-.27-1.4-.32-2.08-.07-.68-.11-1.38-.2-2.04-.1-.69-.21-1.38-.34-2.02-.12-.71-.36-1.39-.5-2-.18-.75-.17-1.37-.38-1.89-.14-.35-.47-1.19-1.15-1.88-.53-.55-1.54-.76-2.13-.76-.57-.04-.98.07-1.16.08-.18.02-.16-.16.32-.39.2-.1-.27-.01-.15-.07Z"/>
  </g>
  <g>
    <path class="cls-1" d="M106.44,56.98c-1.98,4.03-5.01,7.42-7.83,10.91s-7.27,6.36-8.34,10.72c3.66-3.01,7.21-7.73,10.44-11.21,2.93-3.16,5.8-5.52,8.21-9.09,2.24-3.32,3.34-5.49,3.39-9.49.03-2.62-.78-4.75-4.13-6.05-.84-.33-3.82-.96-4.38-.25s1.42,3.14,2.18,3.63c0,0,2.43,6.8.45,10.82Z"/>
    <path class="cls-1" d="M106.43,57.45c-.24.58-.75,1.21-1.07,1.78-.32.55-.4,1.19-.76,1.74-.37.54-.81,1.03-1.19,1.55-.37.52-.63,1.09-1.02,1.61-.39.51-.87.98-1.28,1.49-.4.49-.82.99-1.23,1.48,0,0-.67.41-1.42,1.28-.37.43-.8.99-1.29,1.5-.43.44-.73,1.03-1.18,1.5-.59.6-1.26.99-1.57,1.36-.42.51-.72.9-1.11,1.43-.28.38-.61.73-1.06,1.41-.43.64-.63,1.34-.89,2.02-.16.38-.26.77-.38,1.16l-1.16-.73.77-.67c.57-.53,1.16-1.04,1.71-1.6.54-.56,1.09-1.13,1.61-1.72l1.55-1.78c.51-.6.85-1.33,1.36-1.94.52-.61,1.08-1.29,1.63-1.88.54-.59,1.23-.87,1.78-1.45.56-.57,1-1.35,1.56-1.92.56-.57,1.05-1.16,1.6-1.73.55-.56,1.26-1.01,1.79-1.59.53-.57,1.08-1.12,1.58-1.71.5-.6.8-1.42,1.24-2.05.45-.63.95-1.21,1.37-1.86.41-.65.89-1.21,1.21-1.9.32-.69.62-1.39.79-2.13.18-.74.17-1.51.22-2.27.05-.77-.06-1.57-.14-2.27-.08-.69.1-1.42-.27-2.08-.39-.64-1.13-.98-1.72-1.36-.58-.39-1.14-.93-1.84-1.16-.74-.22-1.72-.12-2.43-.19-.35-.03-.68-.06-.92-.03-.11.03-.14.03-.16.03-.02.05-.05.19,0,.35.18.65.49,1.36.97,1.97.3.36.62.72.95.97l.04.05c.07.23.13.43.19.62.2.69.35,1.35.48,1.97.16.71.36,1.37.44,1.99.09.74.18,1.42.18,2.03-.02.81.08,1.68-.07,2.24-.25,1.19-.89,1.92-.96,1.94-.11.01.09-.85.22-2.01.07-.52.07-1.21.04-1.99-.01-.57-.05-1.36-.14-2.09-.08-.6.12-1.25-.03-1.96-.12-.63-.47-1.27-.67-1.94-.07-.22-.15-.43-.24-.63l.19.24c-.45-.28-.78-.56-1.11-.92,0,0-.12-.2-.3-.51-.19-.32-.45-.74-.75-1.29-.13-.29-.33-.52-.41-1,0-.14-.03-.26.05-.44.06-.18.16-.32.28-.44.25-.22.49-.3.71-.36.78-.15,1.49-.02,2.17.07.87.13,1.42.56,1.92.75.67.28,1.15.5,1.77.9.42.29,1.07.5,1.66,1.24.58.77.84,1.75.99,2.63.17.9.1,1.8.08,2.66-.03.87-.09,1.72-.29,2.58-.2.87-.6,1.62-.98,2.41-.37.79-.75,1.59-1.21,2.32-.47.73-.88,1.5-1.38,2.21-.5.7-.75,1.41-1.28,2.1-.53.68-1.16,1.34-1.73,1.98-.57.65-1.33,1.24-1.93,1.84-.6.6-1.29,1.02-1.89,1.62-.6.59-1,1.47-1.57,2.08-.57.61-1.15,1.18-1.7,1.82-.55.64-1.2,1.22-1.74,1.88-.55.65-1.22,1.24-1.78,1.88-.56.64-1.06,1.25-1.67,1.87-.61.61-1.12,1.55-1.8,2.11-.32.28-.67.52-1.01.77l-1.47-.92c.16-.43.31-.87.51-1.29.38-.84.96-1.39,1.46-2.11.36-.51.92-1,1.46-1.62.45-.5.85-1.18,1.39-1.72.49-.49,1.01-1,1.53-1.52.5-.49.93-1.14,1.41-1.65.49-.51.96-1.01,1.42-1.55.48-.56.95-1.12,1.4-1.64.49-.57.93-1.18,1.35-1.68.52-.62,1.07-.98,1.43-1.44.26-.32.85-1.04,1.47-1.89.48-.65.89-1.66,1.26-2.25.7-1.12,1.17-1.52.78-.54-.07.21.2-.18.16-.05Z"/>
  </g>
  <g>
    <path class="cls-1" d="M88.19,16.33c2.26-2.13,5.96-1.4,8.73,0,1.15.58,2.32,1.32,2.86,2.49.35.75.49,1.61.41,2.44-.59,5.98-2.18,12.99-4.96,17.1-3.05,4.49-6.24,9.79-8.02,15.65-1.63-4.62,1.9-7.88,3.74-12.43,1.33-3.31,2.32-6.74,3.3-10.17,1-3.5,2.01-7.18,1.27-10.74-.12-.56-.3-1.14-.72-1.52-.32-.28-.74-.42-1.15-.55-1.89-.6-5.45-2.27-5.45-2.27Z"/>
    <path class="cls-1" d="M88.38,15.92c.56-.51,1.35-.72,2.02-.89.64-.16,1.24-.49,1.95-.47.7.04,1.37.24,2.03.39.65.15,1.31.23,1.95.49.63.26,1.23.64,1.82,1,.58.36,1.14.82,1.61,1.41,0,0,.38.83.58,2.01.13.58.15,1.36.06,2.06-.07.63.06,1.29-.03,1.96-.11.87-.43,1.6-.48,2.09-.08.69-.12,1.19-.21,1.88-.06.5-.2.98-.39,1.83-.19.79-.22,1.59-.45,2.39-.23.79-.49,1.58-.79,2.36-.29.78-.66,1.54-1.03,2.29-.36.75-.81,1.49-1.27,2.19l-1.31,2.03c-.43.68-.66,1.47-1.07,2.15-.4.7-.85,1.46-1.25,2.16-.4.69-1,1.13-1.38,1.83-.38.71-.55,1.58-.88,2.31-.33.73-.55,1.47-.83,2.21-.28.74-.73,1.46-.97,2.22l-.12.37-1.39.03c-.21-.71-.36-1.44-.39-2.19-.07-.88-.19-1.91.08-2.77.26-.86.68-1.59,1.07-2.33.38-.75.9-1.35,1.3-2.06.4-.71.84-1.39,1.19-2.1.36-.72.55-1.47.85-2.23.29-.75.46-1.59.73-2.34.27-.76.86-1.34,1.11-2.11.25-.77.23-1.67.46-2.44.23-.78.69-1.42.93-2.2.24-.78.24-1.8.48-2.55.24-.75.54-1.39.73-2.15.19-.77.46-1.48.54-2.28.07-.71.1-1.41.07-2.07-.03-.72-.12-1.41-.26-2.04-.09-.35-.24-.69-.46-.93-.22-.25-.49-.39-.78-.51-.68-.25-1.4-.43-1.95-.68-.76-.32-1.61-.54-2.12-.79-.53-.27-.99-.55-1.31-.78-.16-.11-.29-.21-.38-.29-.04-.04-.08-.07-.11-.1-.04-.04.03,0,.01.02,0,.01.03,0,.03-.05-.06-.08.02-.03.06-.04.1,0,.25.04.44.08.38.09.9.24,1.49.47.53.19,1.23.44,2,.72.28.11.61.23.96.36.34.14.69.23,1.12.4.34.14.7.44.9.82.21.37.28.76.38,1.14.16.67.45,1.38.5,2.15.04.69.16,1.35.11,2.1,0,0-.24.85-.4,2.01-.08.57.01,1.19-.13,1.9-.13.63-.35,1.3-.52,1.95-.22.83-.67,1.36-.81,1.84-.2.69-.34,1.18-.55,1.88-.14.48-.11,1.11-.35,1.93-.24.83-.61,1.67-.87,2.5-.26.83-.59,1.66-.89,2.47-.29.81-.58,1.64-.96,2.43-.39.8-.9,1.46-1.33,2.22-.42.75-.79,1.55-1.15,2.31-.37.76-.59,1.58-.76,2.36-.17.8.08,1.44.19,2.17.07.42.2.85.33,1.28l-1.8.04c.11-.37.22-.73.33-1.09.26-.85.71-1.75,1.04-2.56.33-.82.85-1.5,1.24-2.29.38-.79.56-1.79.99-2.56.43-.77.9-1.47,1.34-2.23.45-.76,1-1.46,1.46-2.21.46-.75,1.05-1.44,1.53-2.17.49-.75.85-1.38,1.25-2.12.4-.74.54-1.77.87-2.54.34-.75.68-1.49.96-2.28.28-.79.69-1.43.91-2.26.15-.58.45-1.25.62-2.06.14-.66.11-1.44.24-2.2.12-.69.22-1.42.32-2.16.09-.69.05-1.55.09-2.17.02-.62-.07-1.28-.33-1.83-.26-.56-.73-1.03-1.24-1.41-.57-.43-1.27-.73-1.84-1.01-.72-.35-1.23-.75-1.8-.91-.39-.12-1.3-.4-2.34-.44-.82-.06-1.83.33-2.44.61-.3.11-.53.26-.74.33-.11.05-.28.05-.39.1-.22.08-.25.09.18-.37.09-.08.02-.07-.06-.03-.09.04-.19.11-.13.04Z"/>
  </g>
  <g>
    <path class="cls-1" d="M69.19,5.47c.52-1.07,1.47-.86,2.64-.64s2.61.31,3.54,1.04c2.38,1.87,4.87,3.31,5.28,6.3.29,2.14.45,2.86-.3,4.88-1.83,4.97-3.14,7.64-5.73,12.26-1.4,2.5-1.91,10.66-2.59,10.66s.48-6.88,1.25-10.22c.69-2.95,1.77-5.8,2.44-8.76s.93-6.11-.05-8.98-3.38-5.39-6.38-5.83l-.12-.72Z"/>
    <path class="cls-1" d="M69.24,5.02c.17-.27.53-.48.89-.51.36-.04.69.02.98.06.59.08,1.12-.1,1.69-.03.58.09,1.16.27,1.75.46.57.15,1.22.47,1.64.79.45.33.89.76,1.36,1.11.46.34.9.75,1.34,1.15,0,0,.35.64.94,1.5.29.43.66.97.86,1.6.19.55.44,1.11.54,1.67.12.75-.01,1.48,0,1.93.02.64-.04,1.11-.17,1.73-.1.45-.28.86-.53,1.57-.24.67-.32,1.36-.57,2.03-.25.67-.53,1.33-.81,2-.28.66-.61,1.31-.92,1.96-.3.65-.63,1.29-.96,1.93l-.99,1.9c-.33.63-.49,1.36-.81,1.96-.25.48-.46,1.21-.64,1.86-.18.65-.62,1.15-.77,1.83-.15.69-.06,1.47-.17,2.17-.12.7-.15,1.39-.26,2.1-.06.36-.17.71-.29,1.07-.13.37-.24.7-.42,1.17-.08.12-.06.27-.46.56-.16.08-.34.13-.51.1-.18-.02-.41-.15-.45-.21-.08-.07-.16-.19-.19-.25l-.07-.16c-.11-.36-.08-.53-.09-.75,0-.4.04-.77.07-1.13.06-.73-.1-1.54.01-2.25.11-.71.32-1.38.46-2.08.14-.7.41-1.34.55-2.04.15-.7.34-1.4.5-2.1.16-.7.24-1.43.43-2.12.19-.69.29-1.45.51-2.12.22-.68.78-1.18.98-1.86.21-.68.14-1.47.31-2.14.17-.67.57-1.25.7-1.93.14-.69-.03-1.56.06-2.23.09-.67.24-1.26.25-1.94,0-.68.09-1.34-.05-2.03-.12-.61-.26-1.21-.47-1.74-.23-.59-.49-1.13-.79-1.62-.34-.55-.8-.96-1.17-1.36-.44-.48-.94-.83-1.36-1.13-.58-.42-1.3-.61-1.75-.78-.4-.15-.78-.3-1.08-.41l-.09-.08c0-.45.05-.69.08-.71.04-.03.2.26.36.64l-.29-.29c.32,0,.74.02,1.2.14.51.14,1.18.36,1.85.77.5.29,1.1.8,1.58,1.33.41.45.55,1.07.9,1.64.31.5.78,1.01,1.03,1.63.22.57.5,1.09.66,1.74,0,0,0,.78.11,1.81.06.51.29,1.02.3,1.67,0,.57-.08,1.2-.14,1.8-.08.77-.46,1.28-.54,1.71-.12.63-.23,1.07-.38,1.68-.11.43-.04.99-.23,1.71-.2.74-.52,1.47-.72,2.19-.2.73-.46,1.45-.64,2.18-.19.72-.32,1.43-.48,2.16-.16.73-.42,1.4-.57,2.14-.15.74-.21,1.5-.35,2.24-.13.74-.17,1.52-.26,2.26-.09.74.08,1.38.08,2.08v.51c0,.13.05.36.03.26,0-.03-.02-.04-.04-.07-.05-.09-.12-.18-.21-.23-.14-.13-.41-.19-.58-.17-.09,0-.2.03-.28.07-.1.05-.16.11-.17.11-.05.03-.09.08-.12.13-.02.02-.01.01-.02.02-.01.02,0,0,0-.02.03-.09.08-.26.11-.42.13-.67.38-1.49.5-2.24.12-.75.42-1.42.57-2.17.14-.75,0-1.64.19-2.4.18-.76.42-1.47.7-2.25.13-.37.38-.83.59-1.14.21-.32.41-.64.59-.98.35-.67.83-1.3,1.17-1.97.32-.68.63-1.3.95-1.98.34-.67.44-1.61.77-2.27.33-.66.69-1.28.99-1.95.31-.67.75-1.19,1.03-1.89.19-.5.56-1.04.75-1.7.16-.56.08-1.17.04-1.79-.02-.57-.13-1.21-.21-1.86-.07-.59-.39-1.12-.63-1.62-.24-.51-.55-1.01-.94-1.45-.41-.46-.87-.88-1.33-1.26-.5-.43-1.07-.79-1.53-1.16-.6-.49-.81-.95-1.28-1.13-.3-.15-1.08-.38-2.01-.55-.72-.13-1.72-.22-2.19-.13-.43.04-.7.38-.83.42-.08.04-.13.05-.13-.01,0-.06.03-.23.18-.43.12-.18-.23.12-.17.01Z"/>
  </g>
  <g>
    <path class="cls-1" d="M44.55,4.13c2.98-.45,5.68,2.26,6.4,5.2s.02,6-.51,8.97c-.72,4.03-1.12,8.12-1.21,12.22-.05,2.33-.53,4.19.24,4.19.34,0,.93-3.94,1.96-8.19,1.32-5.46,3.17-11.9,4.23-16.21.25-1,.3-2.1-.08-3.06-.29-.75-.87-1.37-1.48-1.9-2.96-2.56-7.21-3.53-10.98-2.51.2.81,1.17,1.32,1.95,1.04"/>
    <path class="cls-1" d="M44.9,3.89c.56-.08,1.26.12,1.8.3.52.17,1.13.15,1.63.49.49.35.88.8,1.26,1.23.38.42.83.79,1.12,1.31.3.5.47,1.11.63,1.67.18.56.24,1.13.32,1.7,0,0-.17.69-.2,1.67-.01.49.01,1.1-.05,1.7-.06.53.07,1.09,0,1.65-.1.73-.42,1.32-.45,1.74-.05.57-.08.99-.13,1.56-.03.41-.13.82-.22,1.53-.09.67,0,1.32-.07,1.99l-.2,2.01c-.05.67-.15,1.35-.19,2.02-.04.67-.09,1.35-.11,2.02l-.05,2.02c0,.7.16,1.4.11,2.08-.03.34-.05.69-.06,1,0,.15,0,.31,0,.4-.02.07.05.05-.03.1-.12.02-.24.06-.35.12-.11.06-.12.05-.18.12-.04.05-.02,0-.03.03,0,0,.03-.09.02-.13v-.02s0,0,0,0h0c0,.86,0,.24,0,.43h0s0,0,0,0h0s0-.03-.03-.05c-.05-.08-.08-.08-.19-.17-.1-.08-.18-.11-.33-.19l-.17-.09h0c.05-.03.14-.17.22-.28.16-.25.31-.53.4-.85.17-.65.09-1.41.23-2.08.14-.67.2-1.33.33-2,.14-.67.48-1.32.63-1.99.15-.67.38-1.31.55-1.96.18-.66.1-1.43.29-2.09.18-.65.45-1.27.63-1.92.18-.65.5-1.24.67-1.9.18-.66.4-1.31.57-1.97s.24-1.34.41-2c.17-.66.23-1.38.41-2.03.18-.66.71-1.16.89-1.82.09-.33.11-.68.13-1.04.02-.34,0-.66.04-.96.06-.59.29-1.18.1-1.78-.19-.6-.87-1.02-1.29-1.46-.43-.45-.79-.91-1.3-1.31-.52-.39-.98-.83-1.6-1.11-.54-.25-1.08-.47-1.61-.63-.58-.16-1.14-.31-1.68-.38-.61-.09-1.2-.01-1.73-.02-.63,0-1.2.1-1.7.16-.42.05-.84.2-1.19.31l.16-.27c.07.19.17.33.26.45.25.33.62.55.92.64.3.1.54.08.58.1.04.01-.11.19-.49.28-.38.08-1.01.01-1.51-.49-.19-.19-.38-.44-.49-.8l.38-.65c.32-.1.7-.23,1.11-.3.53-.12,1.26-.16,1.94-.17.57.01,1.1.32,1.73.42.55.08,1.21.03,1.83.2.55.16,1.12.23,1.71.47,0,0,.6.45,1.47.94.43.24.97.34,1.47.73.45.33.89.78,1.29,1.27.53.64.49,1.38.58,1.8.14.64.15,1.11.09,1.75-.04.43.04,1.02-.13,1.69-.17.7-.46,1.41-.62,2.12-.18.7-.37,1.41-.55,2.11-.16.7-.31,1.39-.46,2.09-.17.7-.47,1.34-.66,2.04-.19.7-.3,1.43-.5,2.13-.19.7-.3,1.44-.48,2.14-.18.7-.09,1.33-.23,2.04-.15.71-.35,1.44-.47,2.14-.12.71-.41,1.47-.56,2.18-.15.71-.47,1.34-.64,2.05-.17.72-.03,1.54-.27,2.33-.03.1-.07.2-.12.33-.02.06-.05.13-.1.21-.06.08-.08.21-.38.44-.13.09-.35.17-.54.18-.09,0-.09,0-.14,0-.08,0-.15-.02-.23-.04-.14-.02-.32-.13-.45-.24-.13-.11-.21-.22-.29-.34-.07-.12-.09-.19-.13-.3-.17-.67-.08-1-.08-1.41.05-.77.23-1.47.25-2.18.02-.68.15-1.47.17-2.19.02-.73,0-1.41.07-2.14.06-.73-.17-1.63-.07-2.35.1-.72.27-1.4.39-2.12.12-.72.43-1.3.55-2.02.09-.51.31-1.09.44-1.78.1-.56.05-1.23.17-1.87.11-.58.2-1.19.3-1.8.09-.59.01-1.24.06-1.83.05-.59.11-1.18.09-1.75-.02-.6-.09-1.19-.2-1.72-.12-.59-.38-1.13-.6-1.6-.27-.58-.4-1.11-.7-1.5-.21-.26-.7-.87-1.41-1.37-.56-.4-1.44-.54-1.99-.62-.52-.1-.91-.13-1.07-.2-.16-.07-.08-.17.38-.26.19-.05-.22-.08-.11-.11Z"/>
  </g>
  <g>
    <path class="cls-1" d="M66.78,110.09c9.15-8.79,16.2-19.52,22.65-30.45-5.45,12.15-10.91,24.32-17.27,36.02-2.1,3.87-4.09,6.03-7.92,8.21-2.37,1.34-6.98,3.08-9.66,3.59-7.75,1.48-14.9,2.34-22.07-.94,0,0,25.11-7.63,34.26-16.43Z"/>
    <path class="cls-1" d="M67.16,109.43c.74-.78,1.78-1.66,2.55-2.5.75-.82,1.2-1.74,1.94-2.58.73-.85,1.52-1.63,2.21-2.5.69-.84,1.22-1.76,1.9-2.64.65-.87,1.43-1.74,2.08-2.65.64-.88,1.32-1.77,1.95-2.69,0,0,.96-.9,2.08-2.52.55-.81,1.16-1.84,1.81-2.85.59-.89.97-1.91,1.56-2.87.76-1.24,1.61-2.25,2-2.98.55-1.02.95-1.76,1.49-2.78.09-.15.17-.31.27-.49l.88.46c-.27.6-.58,1.3-1.05,2.35-.55,1.25-.92,2.5-1.47,3.76-.56,1.25-1.12,2.51-1.67,3.76-.58,1.25-1.16,2.5-1.74,3.75-.58,1.24-1.16,2.5-1.73,3.75-.58,1.24-1.16,2.49-1.74,3.73-.59,1.24-.97,2.55-1.57,3.78-.61,1.24-1.27,2.61-1.91,3.84-.63,1.22-1.45,2.09-2.1,3.29-.65,1.21-1.15,2.62-1.81,3.83-.65,1.22-1.28,2.45-2.13,3.61-.85,1.17-2.03,2.13-3.13,3.03-1.12.9-2.32,1.61-3.56,2.29-1.25.67-2.54,1.5-3.85,2-1.31.49-2.62.84-3.97,1.2-.67.18-1.38.3-2.05.38-.67.08-1.33.17-2.01.28-1.36.23-2.75.39-4.13.54-1.38.16-2.76.38-4.16.4-1.4.04-2.88.1-4.28-.08-1.41-.17-2.59-.8-3.92-1.19-1.19-.32-2.48-.6-3.66-1.06l.08-1.2.43-.14c1.3-.4,2.58-.56,3.88-.98,1.3-.43,2.78-1.25,4.06-1.67,1.27-.44,2.43-.7,3.69-1.16,1.28-.45,2.5-.77,3.77-1.29,1.14-.45,2.22-.93,3.24-1.36,1.13-.5,2.18-.99,3.18-1.46,1.12-.56,2.12-1.19,3.08-1.68,1.11-.63,2.14-1.21,3.01-1.75.59-.36,1.18-.76,1.72-1.14.53-.39.99-.78,1.39-1.04.84-.54,1.55-1.06,2.09-1.44.54-.37.91-.59.98-.6.07-.01-.15.28-.59.76-.44.48-1.08,1.18-1.96,1.81-.38.3-.82.64-1.31,1.02-.51.34-1.07.72-1.66,1.11-.86.6-2.13,1.24-3.27,1.88-.97.51-2.05.72-3.18,1.29-1.01.46-2.06,1.17-3.19,1.68-1.04.45-1.97,1.02-3.11,1.5,0,0-1.38.39-3.18,1.14-.89.37-1.72.94-2.83,1.37-.99.39-2.12.77-3.17,1.16-1.35.5-2.46.58-3.27.85-1.16.38-1.98.65-3.14,1.02-.11.04-.23.08-.35.12l.05-.72c.71.26,1.59.47,2.74.83,1.36.41,2.8.83,4.22,1,1.41.18,2.88.27,4.31.23,1.43-.04,2.82-.19,4.25-.37,1.44-.18,2.81-.26,4.25-.51.72-.12,1.44-.27,2.15-.43.69-.16,1.39-.36,2.08-.56,1.38-.41,2.76-.99,4.09-1.54,1.33-.57,2.29-1.26,3.47-2,1.19-.74,2.41-1.57,3.37-2.54.98-.96,2.03-2.11,2.78-3.31.75-1.18,1.54-2.32,2.25-3.6.69-1.28,1.18-2.85,1.86-4.14.68-1.29,1.37-2.51,2.02-3.82.66-1.31,1.4-2.59,2.03-3.92.62-1.32,1.38-2.64,2-3.97.6-1.33,1.16-2.56,1.76-3.89.62-1.33,1.07-3.04,1.71-4.35.64-1.29,1.27-2.54,1.91-3.83.63-1.31,1.34-2.34,1.95-3.67.32-.69.74-1.45,1.18-2.31l.77.4c-.18.29-.37.59-.57.9-.59.99-1.12,2.19-1.8,3.31-.63,1.02-1.3,2.08-1.97,3.16-.66,1.03-1.25,2.23-1.95,3.27-.7,1.04-1.44,2.05-2.15,3.04-.74,1.04-1.48,2.07-2.19,3.02-.79,1.05-1.54,2.12-2.25,3.01-.89,1.1-1.73,1.82-2.4,2.59-.46.54-1.55,1.76-2.78,3.1-.96,1.03-2.11,2.51-3.01,3.37-1.7,1.58-2.58,2.07-1.35.73.25-.29-.37.23-.23.06Z"/>
  </g>
</svg>