<?xml version="1.0" encoding="UTF-8"?>
<svg id="Layer_1" data-name="Layer 1" xmlns="http://www.w3.org/2000/svg" viewBox="0 0 129.53 157.75">
  <defs>
    <style>
      .cls-1 {
        fill: #ffc0c4;
      }

      .cls-2 {
        fill: #ffd2d4;
      }

      .cls-3 {
        fill: #550017;
      }
    </style>
  </defs>
  <g>
    <path class="cls-2" d="M26.99,120.06C16.48,106.22-1.06,77.78.53,72.99s6.66-3.11,7.33-3.25c4.32-.9,5.92,1.22,9.12,4.31s5.78,7.88,9.27,10.63,5.39,7.86,9.22,5.68c4.11-2.34,5.35-9.76,5.65-14.52.38-5.98.28-11.99-.29-17.97-.54-5.67-.61-11.4-1.04-17.05-.35-4.61-1.53-11.22-.92-15.8.87-6.55.85-15.58,3.56-20.78s6.81-3.36,9.11-2.26,2.88,11.66,3.07,14.2c.8,10.5,3.18,20.82,5.54,31.09,1.11,4.8,1.6,14.08,4.3,14.1s3.71-3.15,4.05-5.69c1.27-9.55.5-19.29,1.52-28.88.67-6.34,2.28-10.23,3.21-16.53,1.24-8.48,11.43-11.09,14.33-4.46.93,2.13.54,8.87.32,11.18-1.23,12.54-1.43,22.11-3.36,34.55-.5,3.23-1.09,13.54,1.09,13.57s4.6-15.56,4.63-18.43c.09-9.06,2.15-10.82,2.78-19.85.24-3.46,2.39-12.47,5.24-14.41,2.56-1.74,6.32-.46,8.2,2.03,1.89,2.49.09,10.67.09,13.79,0,8.24-.34,15.84-2.08,23.9-.95,4.41-1.4,11.18-1.44,15.68-.01,1.35-.52,3.95,1.37,4.21s2.58-1.31,3.47-2.48c4.4-5.74,5.67-12.24,8.75-18.8.54-1.15,3.11-5.29,4.05-6.14s3.96-.85,5.59.67c2.86,2.67,2.45,5.58,2.08,9.48-.37,3.91-2.44,7.32-4.71,13.18-6.41,16.53-11.54,32.58-14.78,49.47-1.77,9.25-4.57,19.36-10.25,26.84-3.18,4.19-14.31,9.14-17.71,10.73-7.76,3.63-17.28,2.38-24.63-2.13-6.98-4.28-24.21-26.12-29.28-32.79Z"/>
    <path class="cls-3" d="M26.2,118.83c-.44-.58-1.25-1.34-1.66-1.91-.43-.58-.95-1.06-1.36-1.63-.43-.59-.61-1.38-1.02-1.95-.42-.59-.78-1.15-1.17-1.74-.41-.6-.8-1.19-1.2-1.77-.41-.59-.85-1.22-1.25-1.79-.41-.6-.95-1.04-1.35-1.62-.4-.61-.79-1.21-1.17-1.79-.41-.6-.81-1.19-1.2-1.77-.4-.61-.66-1.34-1.05-1.92-.4-.6-.88-1.07-1.27-1.65-.4-.6-.68-1.3-1.06-1.9-.38-.61-.69-1.33-1.06-1.92-.38-.61-.83-1.12-1.21-1.71-.38-.61-.8-1.15-1.17-1.76-.37-.62-.55-1.38-.91-1.99-.36-.62-.76-1.2-1.12-1.82-.34-.62-.64-1.28-.97-1.9-.33-.63-.95-1.1-1.27-1.75-.32-.64-.59-1.3-.9-1.95-.31-.64-.61-1.27-.93-1.92-.29-.66-.57-1.29-.84-1.97-.28-.66-.57-1.32-.8-2.02-.23-.7-.16-1.54-.26-2.29-.04-.18-.03-.38-.03-.57,0-.19,0-.38.06-.59.06-.43.26-.71.4-1.08.33-.65.6-1.52,1.29-2.02.63-.49,1.33-.93,2.13-1.1.79-.18,1.6.09,2.34.14.35.02.71.04,1.07.06.41.03.44,0,.91-.09.73-.13,1.51-.08,2.28,0,.75.08,1.47.32,2.15.67.67.34,1.24.83,1.79,1.32.54.47,1.33.72,1.85,1.23.51.5.93.95,1.48,1.46.54.48,1.03,1.1,1.53,1.63.48.53,1.01,1.06,1.45,1.64.44.56.64,1.2,1.06,1.79.39.57.78,1.16,1.19,1.74.42.56,1.13,1.01,1.6,1.52.45.51.82,1.31,1.37,1.76.52.4,1.16.46,1.74.97.57.48,1.14,1.07,1.63,1.62.45.53.93,1.1,1.4,1.65.45.5.87,1.02,1.37,1.39.48.36.92.75,1.51.78.58.05,1.09-.44,1.61-.72.51-.31,1.13-.5,1.58-1.02.46-.48.63-1.21.96-1.79.32-.57.81-1.1,1.07-1.75.25-.64.27-1.39.46-2.06.18-.66.36-1.32.49-2.01.13-.68.32-1.33.39-2.03.07-.69.28-1.46.31-2.16.03-.7.02-1.32.06-2.03.04-.7.02-1.4.04-2.11.02-.7.19-1.4.2-2.1.01-.71-.18-1.41-.19-2.12,0-.7-.19-1.39-.21-2.09-.02-.7.3-1.42.27-2.13-.03-.7-.15-1.4-.19-2.11-.04-.7-.13-1.4-.19-2.1-.06-.7-.25-1.38-.32-2.08-.06-.71-.12-1.43-.17-2.14-.05-.71-.09-1.45-.12-2.16-.03-.71.12-1.37.1-2.08-.02-.71-.11-1.44-.15-2.15-.04-.7-.08-1.41-.12-2.12-.04-.7-.26-1.38-.3-2.09-.04-.7.16-1.44.12-2.14-.04-.7.01-1.47-.05-2.17-.07-.69-.18-1.38-.27-2.08-.09-.7-.5-1.31-.58-2.02-.08-.7-.03-1.45-.08-2.17-.05-.7-.19-1.45-.23-2.16-.04-.71.09-1.37.05-2.08-.04-.72-.17-1.4-.2-2.13-.03-.72.17-1.55.2-2.27.05-.74-.2-1.41-.12-2.1.08-.69.28-1.37.34-2.08.06-.7.04-1.4.1-2.11.06-.7.26-1.41.32-2.12.06-.7.24-1.4.31-2.11.08-.71-.05-1.43.04-2.15.08-.71.2-1.43.31-2.14.13-.71.51-1.24.7-1.94.17-.69.27-1.52.51-2.21.23-.69.55-1.38.84-2.06.29-.67.54-1.38.94-2.04.42-.63.75-1.28,1.39-1.81.64-.55,1.62-.73,2.41-.86.79-.15,1.6-.27,2.38-.12.77.15,1.45.48,2.13.77.34.15.66.33.98.51.06.03.21.13.31.2.12.08.19.17.28.26.16.18.29.35.4.53.45.69.84,1.35,1.04,2.07.19.71.32,1.43.44,2.14.12.71.42,1.39.52,2.11.1.71.15,1.33.26,2.04.11.7-.02,1.62.07,2.32.09.71.18,1.33.23,2.04.05.71.4,1.43.45,2.13.04.7,0,1.38.06,2.08.06.7.17,1.37.25,2.07.08.7.16,1.47.24,2.18.07.7-.16,1.28-.08,1.98.08.7.47,1.44.58,2.13.12.69-.03,1.44.09,2.13.13.69.52,1.33.66,2.02.14.69-.02,1.45.13,2.14.14.69.46,1.35.62,2.04.16.69.4,1.34.56,2.03.17.68.34,1.39.51,2.07.15.69.3,1.35.46,2.04l.52,2.05c.17.69.26,1.42.41,2.12.16.68.33,1.4.45,2.11.13.71.29,1.41.39,2.11.11.7-.07,1.44.04,2.14.11.7.57,1.4.68,2.09.11.69-.09,1.31.04,1.99.14.68.32,1.41.54,2.05.22.65.78,1.05,1.1,1.43.17.18.29.32.38.36.02.03.19.04.33.04.15.02.27-.04.4-.06.49-.16.94-.48,1.31-.95.36-.49.41-1.17.61-1.77.2-.6.67-1.16.78-1.84.1-.67-.1-1.43-.01-2.11.07-.7.31-1.38.36-2.08.04-.7.19-1.4.22-2.11.04-.7.14-1.38.16-2.09.03-.71-.29-1.54-.24-2.24l.17-2.08c.04-.71.41-1.31.43-2.02.01-.71-.21-1.41-.2-2.12,0-.71-.1-1.4-.08-2.11,0-.71.11-1.45.14-2.16.02-.71-.07-1.45-.03-2.16.03-.71.43-1.36.47-2.06.05-.71.16-1.44.22-2.14.07-.71-.06-1.44.02-2.15.08-.71.1-1.43.21-2.14.11-.71.09-1.45.23-2.15.14-.71.38-1.34.51-2.05.13-.7.38-1.44.51-2.13.13-.7.28-1.35.43-2.04.16-.69.12-1.51.29-2.19.16-.67.58-1.14.72-1.82.17-.7.23-1.42.42-2.16.08-.37.16-.74.24-1.12.13-.37.25-.74.38-1.09.1-.36.26-.68.38-1.03.14-.33.23-.7.48-1,.23-.31.47-.63.72-.93.29-.27.58-.55.86-.81.59-.49,1.21-.98,1.92-1.31.34-.19.69-.31,1.07-.37.37-.06.71-.19,1.09-.24.38-.06.74-.24,1.14-.33.4-.08.8-.18,1.2-.17.4.04.79.09,1.18.16l1.14.36c.36.16.73.33,1.1.5.35.19.68.45,1,.7.59.58.86,1.41,1.18,2.09l.29.5c.08.19.17.38.24.57.13.37.23.74.28,1.11.1.74.12,1.47.14,2.19.03.72.11,1.45.1,2.17,0,.72-.15,1.48-.17,2.2-.02.71.14,1.38.1,2.1-.04.72-.25,1.43-.31,2.13-.07.71.12,1.47.04,2.18-.07.7-.4,1.31-.47,2.01-.07.7.11,1.47.06,2.17-.06.71-.23,1.4-.29,2.11-.05.71-.28,1.4-.33,2.11-.05.71-.1,1.41-.15,2.12-.05.71.17,1.45.11,2.16-.06.71-.19,1.4-.26,2.11-.05.71-.1,1.41-.15,2.12-.06.71-.42,1.44-.47,2.15l-.16,2.12c-.06.71-.02,1.38-.1,2.09-.08.71,0,1.46-.1,2.16-.1.71-.29,1.38-.4,2.08-.11.7-.12,1.42-.23,2.13-.1.7-.49,1.36-.6,2.04-.1.69.19,1.45.12,2.14-.06.69-.11,1.38-.14,2.08-.03.7-.3,1.39-.31,2.09,0,.7,0,1.4.02,2.09.03.7.35,1.36.44,2.02.09.65.07,1.36.32,1.83.06.11.13.19.17.21.01.02.05-.01,0,.04-.04.1-.02.06-.03.05h0s0,0,0,0c0,.47,0,.13,0,.23h0s0,0,0,0v-.02s0-.04,0-.06c0-.05-.02-.04-.05-.1-.1-.27-.08-.13-.07-.18.02-.04.05-.07.07-.1l.1-.16c.28-.45.73-1.05.96-1.69.23-.65.35-1.34.53-2.01.18-.67.43-1.34.59-2.02.15-.69,0-1.43.13-2.11.14-.69.51-1.29.66-1.99.15-.69.24-1.41.37-2.1.13-.69.13-1.42.23-2.11.09-.7.36-1.38.42-2.07.08-.7.17-1.35.19-2.08,0-.72.06-1.42.09-2.14.06-.72,0-1.46.07-2.18.07-.72.29-1.44.41-2.15.11-.71.11-1.4.26-2.1.15-.7.16-1.47.32-2.16.17-.68.36-1.35.5-2.03.15-.68.46-1.3.57-1.99.1-.7-.03-1.34,0-2.04.05-.69.21-1.47.24-2.17.03-.73-.08-1.49.04-2.21.12-.73.58-1.29.76-1.98.17-.69.23-1.5.44-2.19.21-.69.45-1.38.68-2.06.22-.69.42-1.39.68-2.07.27-.68.67-1.34,1.02-1.99.34-.66.65-1.33,1.2-1.94.59-.62,1.36-1.05,2.13-1.3.79-.27,1.64-.2,2.41-.13.77.06,1.62-.1,2.37.22.75.33,1.27.96,1.85,1.47.59.54.96,1.08,1.36,1.84.36.74.65,1.58.71,2.32.08.74.35,1.36.37,2.1.01.73-.05,1.49-.08,2.2-.03.72-.05,1.52-.12,2.23-.08.71-.25,1.42-.34,2.12-.09.7-.07,1.42-.12,2.08-.04.62-.07,1.34-.08,2.04,0,.71-.14,1.42-.14,2.13,0,.71.08,1.41.07,2.12,0,.71-.07,1.44-.1,2.15-.03.72-.11,1.44-.17,2.15-.06.71-.28,1.34-.35,2.04-.08.71-.06,1.48-.14,2.19-.07.71.01,1.39-.05,2.11-.07.71-.39,1.5-.48,2.21-.08.71-.05,1.38-.17,2.08-.12.71-.32,1.36-.48,2.06-.17.69-.41,1.33-.57,1.99-.17.68-.11,1.49-.21,2.18-.1.7-.15,1.31-.19,2.01-.05.7-.17,1.45-.2,2.15-.03.71.09,1.44.04,2.14-.05.7-.11,1.45-.16,2.15l-.14,2.09c-.04.7-.35,1.35-.36,2.05,0,.75.2,1.6.21,2.19-.01.61.03,1.11.24,1.29.17.2.84.23,1.22.07.43-.16.79-.59,1.17-1.14.19-.27.43-.55.7-.84.26-.28.49-.52.69-.81.4-.57.59-1.27.94-1.85.36-.59.83-1.11,1.15-1.72.3-.63.47-1.28.74-1.92.28-.64.52-1.34.79-1.98.27-.65.59-1.3.85-1.95.26-.66.74-1.19,1-1.84.24-.67.49-1.36.73-2.02.26-.67.45-1.36.73-2.01.29-.65.44-1.41.76-2.06.29-.64.72-1.27,1.07-1.87.37-.63,1.04-1.23,1.4-1.84.36-.62.69-1.23,1.08-1.83.2-.31.39-.58.59-.86.21-.26.45-.6.92-.85.85-.42,1.59-.51,2.39-.46.79.06,1.51.29,2.22.62.36.16.72.38,1.06.64.35.27.59.56.86.83.5.56,1.12,1.04,1.48,1.76.35.71.57,1.5.69,2.26.12.77.21,1.56.18,2.29-.03.7-.17,1.39-.23,2.11-.03.33-.06.67-.08,1.02-.04.37-.07.74-.14,1.11-.11.71-.3,1.43-.51,2.14-.2.68-.51,1.33-.78,2.01-.27.64-.56,1.27-.85,1.92-.28.63-.49,1.29-.77,1.94-.28.62-.57,1.28-.86,1.92-.28.62-.59,1.21-.86,1.86-.27.62-.54,1.25-.8,1.9-.25.64-.35,1.25-.57,1.92-.21.65-.64,1.37-.85,2.03-.21.65-.2,1.34-.44,2-.23.64-.62,1.23-.85,1.89-.23.65-.4,1.33-.63,1.99-.23.65-.68,1.22-.91,1.88-.22.65-.28,1.4-.53,2.06-.24.64-.59,1.17-.83,1.82-.24.65-.62,1.3-.83,1.96-.21.66-.35,1.33-.57,1.99-.21.66-.42,1.32-.63,1.98-.2.66-.4,1.33-.61,2-.2.66-.26,1.37-.43,2.04-.17.66-.53,1.41-.69,2.08-.16.67.04,1.33-.14,2-.18.67-.56,1.28-.76,1.94-.2.66-.24,1.43-.43,2.09-.19.66-.36,1.28-.53,1.95-.16.67-.57,1.28-.73,1.95-.17.67-.29,1.35-.45,2.03-.15.68-.41,1.33-.56,2-.13.68-.27,1.39-.4,2.07-.14.68-.1,1.36-.22,2.04-.13.68-.16,1.39-.29,2.07-.14.68-.52,1.29-.67,1.97-.16.68-.24,1.4-.41,2.07-.17.68-.45,1.34-.62,2.02-.16.68-.21,1.38-.41,2.05-.19.67-.49,1.27-.7,1.94-.2.67-.29,1.43-.5,2.09-.21.67-.49,1.35-.69,2.03-.21.67-.16,1.27-.37,1.93-.24.67-.5,1.46-.79,2.11-.29.65-.89,1.08-1.22,1.7-.31.63-.37,1.54-.72,2.15-.34.63-.87,1.05-1.23,1.65-.35.62-.53,1.28-.89,1.89-.39.6-1.03,1.1-1.44,1.67-.24.29-.45.6-.69.89-.24.27-.48.55-.75.8-.56.47-1.05,1-1.63,1.41-.57.44-1.16.83-1.74,1.23-.61.38-1.29.66-1.89,1-.61.36-1.22.72-1.83,1.06-.62.34-1.25.65-1.86.97-.63.32-1.18.79-1.8,1.1-.64.32-1.36.51-1.99.79-.64.28-1.28.36-1.9.63-.65.28-1.22.82-1.84,1.1-.68.27-1.38.52-2.05.72-.35.11-.7.17-1.04.22-.35.03-.69.06-1.03.14-.7.2-1.41.35-2.09.49-.73.08-1.51.1-2.2.14-.72.06-1.35.29-2.04.29-.74.03-1.45.04-2.13,0-.73-.07-1.34-.35-2.01-.48-.7-.17-1.4-.28-2.04-.49-.69-.19-1.47-.25-2.12-.47-.7-.2-1.32-.39-1.98-.61-.67-.27-1.33-.74-1.94-1.04-.66-.3-1.4-.38-1.99-.74-.65-.35-1.1-.96-1.65-1.36-.6-.43-1.25-.81-1.78-1.25-.56-.47-.87-1.08-1.37-1.53-.54-.49-1.02-1-1.5-1.47-.51-.51-1.04-.96-1.5-1.44-.5-.51-1.15-.89-1.61-1.39-.49-.52-.67-1.19-1.11-1.71-.44-.53-.95-1.04-1.38-1.57-.43-.54-.96-1.02-1.41-1.54-.45-.51-.74-1.17-1.21-1.7-.45-.51-.97-.96-1.43-1.49-.44-.51-1.05-.95-1.5-1.5-.42-.51-.8-1.07-1.24-1.63-.42-.52-.76-1.11-1.21-1.67-.42-.52-.93-1.02-1.38-1.58-.41-.52-.89-1.06-1.32-1.63-.39-.53-.79-1.08-1.21-1.65-.4-.53-.8-1.07-1.23-1.64-.41-.53-.59-1.15-1.02-1.73-.4-.54-1.09-1.02-1.51-1.59-.4-.54-.54-1.21-.96-1.78-.26-.35-1.04-1.01-.98-1.01.05,0,.63.72.87,1.02.45.56.86,1.07,1.28,1.6.45.55.75,1.32,1.18,1.84.45.55,1.06.83,1.48,1.35.45.55.62,1.37,1.05,1.89.45.56,1.15.84,1.57,1.36.45.56.7,1.28,1.13,1.79.46.55.99.97,1.43,1.46.47.55.92,1.08,1.35,1.58.46.55.9,1.08,1.33,1.59.47.55.94,1.15,1.39,1.64.48.51.99.86,1.44,1.34.48.51.87,1.12,1.32,1.61.47.52,1.01.94,1.45,1.47.44.53.74,1.1,1.19,1.63.45.51,1.05.97,1.54,1.48.46.48.99.87,1.49,1.37.46.48.92,1.03,1.42,1.53.47.46,1.01.88,1.54,1.36.49.43.87,1.07,1.43,1.51.51.4,1.11.69,1.67,1.07.53.35,1.07.74,1.7,1.07.55.33,1.08.82,1.71,1.12.59.29,1.25.41,1.89.69.62.21,1.24.5,1.91.69.62.19,1.17.6,1.85.76.64.19,1.37.18,2.05.32.65.11,1.34.25,2.03.32.68.04,1.32.16,2.02.16.69.04,1.44-.25,2.13-.28.67-.04,1.37.14,2.07.04.68-.13,1.27-.58,1.93-.78.65-.15,1.4-.1,2.06-.33.65-.23,1.29-.48,1.94-.76.63-.3,1.15-.83,1.8-1.13.63-.29,1.27-.59,1.91-.89.63-.3,1.32-.49,1.96-.81.63-.31,1.1-.75,1.71-1.1.59-.35,1.33-.64,1.92-1.02.6-.36,1.19-.71,1.8-1.07.59-.36,1.18-.71,1.79-1.07.59-.34,1.18-.72,1.75-1.11.56-.39,1.25-.66,1.74-1.15.26-.23.52-.5.75-.8.25-.28.46-.6.65-.9.38-.58.56-1.15.9-1.76.36-.59.79-1.11,1.14-1.71.36-.59.53-1.28.88-1.89.33-.61.56-1.31.88-1.92.29-.63.72-1.17.98-1.82.26-.65.47-1.32.72-1.98.26-.64.62-1.21.85-1.87.24-.66.36-1.4.56-2.07.21-.67.19-1.31.36-1.99.17-.67.55-1.4.71-2.08.15-.68.4-1.33.56-2.02.15-.68.3-1.35.46-2.04.15-.69.35-1.36.49-2.05.14-.69-.07-1.46.06-2.16.14-.7.43-1.36.55-2.06.13-.69.26-1.39.38-2.09.12-.7.39-1.37.55-2.06.16-.69.09-1.43.25-2.12.17-.69.41-1.35.58-2.04.17-.69.41-1.36.59-2.04.18-.69.2-1.42.38-2.11.19-.68.66-1.26.85-1.95.19-.68.06-1.47.26-2.15.18-.69.34-1.34.52-2.03.19-.68.61-1.34.81-2.02.19-.68.45-1.34.66-2.02.21-.68.31-1.46.56-2.13.23-.67.47-1.38.7-2.05.25-.67.71-1.15.94-1.82.23-.67.47-1.37.7-2.04.22-.67.15-1.38.38-2.06.22-.67.72-1.28.96-1.94.23-.67.46-1.32.68-1.99l.77-1.97c.25-.66.36-1.4.61-2.06.25-.66.33-1.42.58-2.08.25-.66.62-1.26.88-1.92.26-.66.44-1.33.7-2,.26-.67.73-1.26.99-1.91.27-.66.39-1.35.67-2,.29-.65.58-1.3.86-1.95.28-.65.44-1.26.67-1.92.21-.65.55-1.35.71-2.01.16-.67.1-1.36.2-2,.07-.33.17-.62.3-.94.12-.33.24-.67.28-1.01.08-.7.11-1.41.14-2.08.04-.68.04-1.38-.06-2.02-.1-.66-.49-1.23-.75-1.77-.27-.55-.63-1.06-1.06-1.53-.11-.12-.21-.24-.3-.38-.09-.1-.16-.24-.26-.34-.19-.23-.43-.44-.72-.56-.59-.25-1.2-.4-1.85-.44-.65-.03-1.34.23-1.73.47-.16.09-.37.4-.55.68-.18.28-.35.59-.55.87-.4.57-.83,1.11-1.2,1.71-.36.6-.83,1.18-1.16,1.78-.35.62-.53,1.2-.82,1.85-.29.64-.58,1.28-.84,1.93-.27.65-.63,1.26-.88,1.91-.25.66-.22,1.43-.46,2.08-.25.67-.5,1.35-.75,2.01-.26.67-.69,1.25-.96,1.9-.28.66-.49,1.35-.79,2-.3.66-.71,1.26-1.04,1.9-.34.64-.65,1.29-1.02,1.91-.39.62-.89,1.16-1.32,1.73-.45.61-.86,1.05-1.29,1.64-.22.3-.4.67-.67,1.04-.26.37-.66.73-1.12.87-.48.15-.97.1-1.37-.03-.43-.13-.88-.35-1.24-.7-.72-.75-.79-1.65-.84-2.39-.02-.76-.12-1.43-.13-2.09,0-.71.17-1.46.19-2.17.02-.71-.03-1.42,0-2.13.03-.71.01-1.42.06-2.14.05-.71.4-1.41.46-2.12.07-.71-.23-1.43-.15-2.14.08-.71.48-1.43.58-2.14.1-.71.07-1.43.21-2.14.14-.72.36-1.37.51-2.06.13-.69.21-1.39.32-2.08.12-.69.32-1.37.43-2.06.1-.7.05-1.43.14-2.13.09-.69.35-1.33.43-2.03.08-.7.07-1.43.13-2.13.05-.7,0-1.4.03-2.1.04-.7.27-1.4.3-2.11l.02-2.12c.02-.71-.26-1.32-.28-2.03-.01-.7.31-1.59.29-2.3-.02-.7-.07-1.32-.02-2.08.05-.73.07-1.4.18-2.11.11-.7.06-1.54.17-2.24.11-.7.4-1.29.46-1.99.05-.7.13-1.49.1-2.19-.03-.69-.23-1.27-.34-1.9-.09-.64-.1-1.31-.36-1.81-.26-.47-.71-.94-1.18-1.36-.49-.43-1.14-.71-1.72-.96-.58-.27-1.23-.4-1.85-.44-.62-.04-1.26,0-1.82.23l-.41.18-.39.23c-.23.19-.46.34-.65.6-.4.46-.73,1.02-1.06,1.6-.32.6-.44,1.28-.7,1.91-.25.63-.67,1.22-.88,1.89-.21.66-.33,1.35-.51,2.03-.18.67-.47,1.23-.64,1.91-.17.67-.31,1.37-.44,2.05-.14.69-.18,1.44-.24,2.14-.06.71.14,1.39.08,2.12-.05.71-.03,1.39-.1,2.11-.09.72-.45,1.5-.59,2.2-.14.7-.22,1.42-.38,2.12-.16.69-.42,1.35-.57,2.03-.15.68-.41,1.35-.53,2.04-.12.69-.23,1.41-.3,2.11-.08.69.14,1.36.1,2.05-.03.69-.07,1.4-.08,2.09-.01.67-.24,1.37-.36,2.06-.1.71-.01,1.64-.14,2.34-.13.71-.54,1.28-.65,1.98-.11.7.08,1.43-.04,2.14l-.38,2.11c-.13.7-.58,1.36-.73,2.05-.16.7-.08,1.43-.24,2.14-.17.7-.22,1.37-.44,2.08-.24.72-.54,1.48-1.07,2.24-.13.19-.31.4-.58.6-.18.1-.29.21-.58.27-.27.07-.51.05-.71,0-.44-.11-.75-.39-.93-.62-.19-.24-.3-.47-.39-.68-.32-.84-.13-1.45-.21-2.18-.07-.73-.34-1.56-.37-2.29-.03-.72.12-1.44.13-2.15.01-.72-.07-1.44-.03-2.16.04-.71-.08-1.44-.02-2.16.06-.72.49-1.4.59-2.12.1-.71,0-1.42.11-2.12.1-.7.39-1.37.48-2.07.1-.7.14-1.51.2-2.21.06-.7-.15-1.28-.1-1.98.06-.7.34-1.44.42-2.14.08-.7-.04-1.43.04-2.13.08-.7.25-1.38.32-2.08.07-.7-.15-1.44-.09-2.15.06-.71.13-1.48.19-2.19.07-.7.42-1.28.49-1.99.07-.7-.05-1.45,0-2.16.05-.71.35-1.38.41-2.09.06-.71,0-1.43.06-2.14l.18-2.12c.06-.71.29-1.43.35-2.14l.16-2.12c.06-.71-.11-1.39-.06-2.08.05-.7.22-1.4.24-2.1.02-.7-.19-1.38-.19-2.08,0-.69.13-1.41.1-2.1-.02-.69-.24-1.36-.33-2.01-.05-.33-.11-.63-.17-.92-.05-.13-.07-.25-.13-.38l-.22-.4c-.26-.55-.51-1.14-.96-1.58-.25-.18-.47-.41-.73-.57-.28-.14-.54-.3-.82-.43-.3-.09-.62-.14-.92-.2-.32,0-.64,0-.94-.03-.31,0-.62.05-.93.08-.31.04-.6.16-.91.22-.31.04-.6.18-.91.26-.32.07-.6.22-.89.37-.29.14-.56.3-.81.52-.24.21-.53.36-.75.6-.23.22-.49.41-.74.61-.22.23-.45.46-.65.72-.22.25-.36.55-.56.82-.19.27-.38.55-.48.87l-.35.94-.21.98c-.16.64-.22,1.39-.36,2.08-.12.7-.03,1.46-.18,2.16-.15.7-.28,1.41-.44,2.1-.16.7-.56,1.32-.72,2.01-.16.69-.14,1.41-.28,2.1-.15.69-.4,1.37-.52,2.06-.12.69-.1,1.4-.21,2.08-.1.69-.09,1.37-.16,2.06-.07.69-.26,1.4-.32,2.1-.04.7-.34,1.39-.38,2.1-.04.71.22,1.4.2,2.1-.02.7-.13,1.42-.14,2.13-.02.71-.18,1.42-.2,2.12-.02.71.27,1.49.24,2.2l-.11,2.12c-.03.71-.16,1.36-.17,2.07-.02.71-.17,1.41-.2,2.12l-.1,2.13c-.03.71.12,1.44.08,2.16-.04.72-.14,1.39-.17,2.11-.05.71-.32,1.49-.39,2.2-.08.72-.01,1.37-.14,2.12-.12.74-.3,1.47-.57,2.19-.27.72-.59,1.47-1.13,2.13-.51.65-1.26,1.29-2.19,1.49-.23.06-.45.08-.68.08-.18.01-.56,0-.84-.11-.59-.22-.95-.62-1.22-.97-.53-.72-.92-1.4-1.16-2.13-.23-.72-.34-1.44-.5-2.15-.16-.71-.25-1.44-.36-2.15-.12-.71-.06-1.42-.17-2.12-.11-.7-.11-1.43-.23-2.13-.11-.7-.45-1.35-.58-2.04-.13-.68-.39-1.32-.55-2.02-.16-.69-.05-1.45-.21-2.14-.16-.69-.37-1.35-.52-2.05-.14-.69-.35-1.4-.49-2.09-.14-.7-.19-1.41-.34-2.11-.15-.7-.42-1.36-.6-2.05-.17-.69-.18-1.55-.35-2.23-.17-.69-.59-1.21-.72-1.91-.13-.7-.05-1.39-.14-2.1-.09-.7-.33-1.48-.41-2.18-.08-.71-.09-1.39-.19-2.1-.1-.71-.35-1.39-.44-2.1-.1-.71-.22-1.41-.3-2.12-.09-.71-.25-1.41-.32-2.12-.08-.71.23-1.43.18-2.14-.06-.71-.19-1.43-.24-2.13-.05-.71-.15-1.42-.21-2.12-.06-.7-.02-1.46-.11-2.16-.09-.7-.26-1.37-.37-2.06-.11-.69-.25-1.36-.38-2.04-.14-.68-.52-1.25-.73-1.87-.21-.62-.48-1.24-.79-1.61-.19-.21-.07-.23-.48-.5-.29-.22-.58-.44-.9-.57-.64-.25-1.33-.23-1.94-.31-.62-.09-1.19.11-1.7.26-.52.15-1.07.35-1.51.75-.23.18-.45.36-.72.51-.23.19-.49.38-.68.65-.38.54-.53,1.46-.79,2.07-.28.61-.82,1-1.02,1.68-.18.68-.24,1.38-.37,2.06-.16.68-.04,1.42-.16,2.1-.11.69-.48,1.34-.57,2.04-.09.7.04,1.37,0,2.08-.04.7.04,1.34.01,2.04-.04.71-.13,1.55-.2,2.25-.06.71-.44,1.38-.51,2.08-.07.71.03,1.45-.06,2.16-.09.73-.14,1.38-.17,2.07-.05.68-.25,1.31-.26,2.01-.02.69.19,1.49.21,2.18.02.7.11,1.36.17,2.06.06.7.21,1.38.28,2.08.08.7-.05,1.44.04,2.14.08.71,0,1.43.08,2.13.07.71.28,1.45.35,2.16.07.71.14,1.42.2,2.12.07.71.35,1.38.38,2.08.04.71-.16,1.4-.16,2.11,0,.71.18,1.53.18,2.23,0,.71-.05,1.33-.02,2.03.04.71-.05,1.47.01,2.18.07.7.19,1.37.27,2.07.08.7.25,1.37.31,2.08.07.71.24,1.46.28,2.18l.1,2.14c.03.72-.22,1.39-.2,2.1.02.72-.03,1.43-.02,2.14.01.71.2,1.43.2,2.14s.08,1.42.06,2.13c-.01.72-.26,1.49-.27,2.2,0,.71.29,1.29.27,2-.02.71-.12,1.51-.19,2.23-.07.72-.13,1.52-.26,2.23-.13.71-.27,1.42-.44,2.13-.17.71-.3,1.36-.51,2.06-.2.71-.72,1.34-.98,2.02-.26.68-.54,1.36-.91,2.01-.36.66-.81,1.25-1.33,1.81-.26.28-.56.54-.85.81-.33.22-.62.49-1,.65-.72.38-1.58.41-2.38.29-.84-.12-1.62-.57-2.19-1.05-.64-.52-1.27-.99-1.78-1.54-.53-.55-1.04-1.08-1.53-1.6-.51-.55-.93-1.17-1.45-1.62-.52-.45-1.39-.77-1.92-1.29-.58-.57-.99-1.25-1.47-1.81-.52-.6-.93-1.24-1.38-1.82-.48-.62-.87-1.23-1.3-1.82-.46-.62-1-1.18-1.43-1.75-.47-.6-1.04-1.09-1.52-1.6-.5-.55-.92-1.18-1.46-1.7-.56-.53-1.11-1.01-1.64-1.47-.56-.48-1.03-1-1.61-1.36-.61-.38-1.4-.42-2.01-.54-.62-.12-1.2-.29-1.9-.24-.17.02-.35.05-.52.09-.08.02-.15.04-.36.05-.19.01-.24,0-.37,0-.38-.02-.75-.05-1.12-.07-.69-.06-1.33-.07-2,.07-.62.13-1.38.23-1.91.69-.51.42-.68,1.1-.95,1.71-.06.15-.12.3-.18.45-.05.15-.04.25-.07.38,0,.3,0,.62.07.97.09.64.16,1.35.38,2.07.22.67.39,1.38.68,2.09.27.66.39,1.32.68,2.03.27.67.87,1.36,1.18,2.06.3.66.37,1.37.71,2.06.33.64.89,1.17,1.27,1.84.35.64.6,1.4.98,2.06.36.64.61,1.34.98,2.01.37.67.93,1.2,1.29,1.82.4.65.78,1.27,1.15,1.87.39.65.63,1.37.98,1.98.37.66.74,1.31,1.09,1.93.4.65.88,1.22,1.25,1.83.4.65.9,1.21,1.28,1.81.41.63.82,1.27,1.21,1.87.38.64.74,1.26,1.11,1.88.39.62.83,1.21,1.23,1.82.39.6.6,1.29,1,1.91.39.6.73,1.23,1.15,1.86.4.59.82,1.2,1.25,1.83.4.58.81,1.18,1.25,1.81.4.58.82,1.18,1.26,1.81.4.58.93,1.13,1.38,1.75.26.36,1.03,1.56.97,1.57-.05,0-.88-1.23-1.12-1.54-.02-.03.46.44.37.28Z"/>
  </g>
  <g>
    <path class="cls-1" d="M33.62,91.77c.83.37,5.58-2.42,6.38-3.78,3.05-5.18,3.25-20.94,3.64-20.41s.53,1.2.64,1.85c1.1,6.32.53,12.8-.04,19.2-.18,1.97-.48,4.18-2.06,5.37-2.15,1.62-5.43,2.83-7.5,1.12s-7.24-6.52-6.93-7.05,5.04,3.34,5.87,3.71Z"/>
    <path class="cls-1" d="M33.97,91.58c.46-.11,1.15-.28,1.64-.55.49-.26.78-.75,1.24-1.04.47-.29.97-.53,1.4-.86.42-.33.73-.77,1.05-1.13.27-.28.59-.81.79-1.29.2-.49.4-1,.56-1.52,0,0,.45-.53.7-1.49.12-.47.18-1.07.3-1.66.1-.53,0-1.09.07-1.64.1-.72.39-1.33.41-1.75.02-.58.03-1.01.05-1.59.01-.42.09-.84.15-1.56.06-.68-.05-1.34,0-2.03l.15-2.06c.06-.69.13-1.38.19-2.07l.09-1.05.07-.56.03-.17c.03-.08,0-.09.12-.33l.06-.09s.04-.06.12-.12c.07-.06.16-.11.26-.13.2-.06.33-.04.49.02.14.04.32.22.33.25l.05.07.09.14c.48.77.58,1.56.7,2.23.12.69.43,1.34.52,2.04.08.7.17,1.48.19,2.19.02.7-.27,1.3-.27,1.99,0,.7.23,1.45.22,2.14,0,.7.06,1.37.04,2.07-.02.7-.24,1.41-.28,2.1-.03.69-.14,1.38-.19,2.07-.06.69.15,1.46.08,2.15-.07.69-.23,1.35-.31,2.03-.07.69-.29,1.34-.41,2.05-.13.71-.36,1.42-.66,2.12-.3.69-.68,1.43-1.33,1.94-.59.46-1.17.96-1.84,1.29-.68.32-1.44.2-2.14.36-.69.16-1.47.53-2.27.41-.8-.12-1.41-.66-1.97-1.15-.53-.45-1.34-.81-1.82-1.3-.48-.49-.82-1-1.28-1.49-.47-.5-.81-1.06-1.29-1.55-.43-.44-.83-.89-1.21-1.3-.41-.46-.8-.91-1.08-1.4-.03-.08-.08-.15-.06-.26.03-.13.19-.13.26-.12.17.03.31.09.45.14.28.12.54.25.76.4.54.36,1.05.67,1.46.98.56.43,1.23.75,1.6,1.05.78.64,1.29,1.26,1.34,1.33,0,.11-.83-.11-1.73-.7-.41-.26-.95-.58-1.53-.97-.42-.3-.99-.69-1.52-1.06-.22-.15-.4-.35-.59-.53-.09-.09-.2-.18-.28-.24-.04-.04-.09-.02,0-.07.09-.04.11-.13.1-.18,0,0-.01,0,0,.02.18.4.78.78,1.17,1.22.38.41.84.71,1.28,1.14,0,0,.37.63,1.1,1.28.36.32.87.49,1.32.88.4.35.82.77,1.24,1.13.54.45.78,1.05,1.08,1.24.46.29.84.42,1.38.5.39.06.85-.15,1.48-.28.65-.13,1.37-.27,1.99-.59.62-.31,1.25-.66,1.79-1.09.49-.4.81-.93,1.06-1.53.25-.6.53-1.21.65-1.92.12-.7.1-1.44.18-2.17.07-.73.06-1.49.11-2.22.06-.73-.15-1.34-.13-2.08.02-.72.08-1.49.09-2.21,0-.73.15-1.54.17-2.27.01-.73.22-1.41.23-2.14,0-.73-.3-1.52-.33-2.24-.01-.72,0-1.42-.07-2.13-.06-.72-.04-1.46-.16-2.17-.13-.7-.1-1.51-.33-2.04-.06-.14-.12-.25-.2-.36l-.06-.07h0s.17.19.3.22c.14.05.27.06.46,0,.17-.04.35-.26.32-.23.03-.04.06-.09.08-.13h0s-.01.07-.02.14c-.03.34-.06.67-.09,1.02-.07.73.16,1.62.07,2.35-.09.72-.24,1.42-.34,2.14-.1.73-.39,1.33-.48,2.06-.06.52-.27,1.12-.36,1.82-.08.57.01,1.25-.09,1.91-.09.6-.18,1.23-.3,1.86-.11.61-.09,1.3-.24,1.92-.15.62-.35,1.23-.53,1.83-.19.62-.4,1.24-.64,1.82-.28.64-.48,1.24-.92,1.82-.56.65-1.14.78-1.56,1.09-.3.21-1,.65-1.82,1.09-.62.34-1.39.94-2.02,1.13-.57.19-1.07.21-1.27.04-.08-.06-.07-.1.01-.13.08-.02.2-.04.42-.1.17-.06-.21-.07-.11-.1Z"/>
  </g>
  <g>
    <path class="cls-1" d="M45.07,2.93c4.22,4.43,5.58,9.9,6.76,15.91,1.87,9.5,3.73,19,5.02,28.6.73,5.43.66,11.71,4.9,16.29-.57-3.73-1.52-7.32-2.09-10.79-.95-5.77-1.43-11.73-2.85-17.48-2.2-8.9-2.19-18.19-3.66-27.23-.37-2.25-1.63-4.09-3.35-5.59s-4.73.29-4.73.29Z"/>
    <path class="cls-1" d="M45.67,3.32c.28.22.57.65.88,1.06.29.42.57.85.83,1.24.51.75,1.18,1.32,1.6,2.17.43.84.71,1.73,1.05,2.58.33.84.74,1.63,1,2.52.26.87.42,1.83.63,2.73.21.88.37,1.79.56,2.69,0,0-.05,1.09.24,2.68.15.79.4,1.74.59,2.71.17.86.54,1.69.72,2.59.24,1.17.24,2.26.41,2.93.23.92.39,1.6.62,2.52.16.67.26,1.35.48,2.53.21,1.1.56,2.12.76,3.23.19,1.11.38,2.22.58,3.34.19,1.11.32,2.24.5,3.36.16,1.12.32,2.24.48,3.36.16,1.13.28,2.25.41,3.37.13,1.12.48,2.16.66,3.24.18,1.08.44,2.27.74,3.3.3,1.01.3,1.98.79,2.94.49.97,1.3,1.81,2.01,2.58l.15.18-1.43.69c-.16-1.01-.41-1.98-.62-2.99-.22-1.09-.28-2.27-.52-3.37-.24-1.1-.42-2.21-.62-3.33-.2-1.12-.65-2.29-.8-3.42-.15-1.12-.2-2.22-.34-3.33-.14-1.12-.13-2.19-.28-3.3-.15-1.11-.27-2.23-.46-3.34-.18-1.11-.5-2.18-.73-3.27-.23-1.09-.64-2.19-.88-3.31-.23-1.12-.05-2.21-.23-3.32-.19-1.11-.64-2.26-.78-3.38-.14-1.12,0-2.19-.12-3.31-.11-1.12-.52-2.46-.58-3.57-.06-1.1,0-2.08-.07-3.18-.06-1.11,0-2.15-.11-3.27-.1-1-.19-1.96-.3-2.87-.12-1-.24-1.96-.38-2.85-.14-1.02-.55-1.9-.95-2.67-.47-.92-1.11-1.64-1.68-2.25-.39-.4-.83-.82-1.27-1.01-.45-.2-.92-.21-1.28-.22-.77,0-1.49.17-2.01.3-.26.07-.47.13-.63.17-.17.07-.22.01-.33.13,0-.11.21-.29.67-.59.47-.28,1.19-.65,2.17-.75.43-.03.97-.03,1.55.18.29.1.57.28.83.48.22.18.44.37.66.58.65.61,1.42,1.57,1.94,2.59.45.85.48,1.83.64,2.87.13.9.46,1.89.59,2.9.12.92.35,1.79.46,2.8,0,0-.06,1.18.14,2.77.09.79.39,1.56.5,2.53.08.87.17,1.83.26,2.75.13,1.17-.06,2.07.02,2.76.12.99.21,1.69.33,2.67.09.69.41,1.47.61,2.62.2,1.17.34,2.41.6,3.57.27,1.16.54,2.35.81,3.52.27,1.17.54,2.31.74,3.5.21,1.19.25,2.33.42,3.53.16,1.19.4,2.39.55,3.58.15,1.19.4,2.4.59,3.58.19,1.19.58,2.09.84,3.25.26,1.15.5,2.38.78,3.54.28,1.17.45,2.52.66,3.72.11.6.16,1.19.2,1.79l-1.37.66c-.36-.5-.73-.99-1.08-1.52-.71-1.02-1.64-2.14-2.07-3.33-.43-1.19-.68-2.37-.93-3.58-.25-1.22-.31-2.46-.47-3.66-.16-1.2-.16-2.46-.31-3.64-.18-1.18-.34-2.27-.52-3.45-.16-1.19-.67-2.55-.83-3.74-.15-1.17-.25-2.31-.41-3.48-.16-1.18-.11-2.22-.31-3.39-.14-.83-.18-1.84-.38-2.98-.17-.93-.53-1.94-.73-3-.18-.96-.38-1.97-.57-2.99-.18-.99-.54-2.02-.73-3.02-.17-1-.34-2.02-.51-3-.19-1.02-.39-2.03-.57-2.98-.21-1.05-.5-2.06-.72-2.95-.29-1.1-.34-2-.62-2.78-.18-.54-.61-1.8-1.26-3.12-.5-1.03-1.47-2.2-2.06-3-.28-.4-.53-.74-.73-1.02-.21-.31-.31-.52-.35-.62-.08-.2.13-.01.66.47.22.19-.13-.27,0-.15Z"/>
  </g>
  <g>
    <path class="cls-1" d="M80.63,7.31c.86,1.59.93,3.48.97,5.29.25,10.19.5,20.42-.69,30.54-.74,6.27-2.03,12.53-1.77,18.85.08,1.92.32,3.89,1.31,5.54s2.91,2.86,4.79,2.5c1.25-.23,2.98-1.84,2.37-2.95-.42-.76-2.84.15-3.55-.34-1.19-.83-1.31-3.47-1.3-4.93.14-17.1,4.05-32.11,3.9-49.17-.02-2.43.82-6.72-1.25-8.01-1.75-1.09-4.47-.99-6.46-.48,0,0,.82,1.57,1.69,3.16Z"/>
    <path class="cls-1" d="M81.11,7.85c.44.94.51,2.24.57,3.27.07,1.02.36,1.92.4,2.96.03,1.03-.03,2.06,0,3.08.04,1,.2,1.97.23,2.99.02,1.01-.04,2.08-.02,3.11.02,1.01-.01,2.04,0,3.07,0,0-.26,1.19-.31,3-.03.9.02,2-.02,3.11-.03.98.13,1.98.09,3.01-.06,1.34-.34,2.53-.37,3.3-.03,1.07-.06,1.85-.11,2.91-.05.77-.15,1.54-.31,2.88-.15,1.25-.14,2.45-.3,3.7-.16,1.24-.32,2.49-.48,3.74-.15,1.25-.33,2.5-.43,3.74-.1,1.24-.19,2.49-.2,3.74,0,1.24,0,2.49.12,3.7.12,1.21.56,2.3,1.02,3.28.45,1,1.27,1.87,2.19,2.33.44.23.86.42,1.3.52.47.1.89.11,1.36-.16.46-.25.88-.71,1.05-1.14.09-.21.08-.39.04-.45,0-.02-.02-.03-.03-.05h0s0-.01,0-.01h0c.65-.36.18-.1.33-.18h0s-.01,0-.01,0c-.01.01-.02.02-.02.03-.05.05-.08.1-.11.15,0,.03-.08.18-.07.14,0,0-.03,0-.07-.01-.38-.05-1.03.06-1.68.13-.35.02-.69.08-1.23-.05-.12-.02-.31-.11-.47-.2-.11-.08-.2-.15-.29-.23-.17-.16-.33-.34-.44-.51-.48-.72-.6-1.46-.69-2.15-.08-.7-.08-1.37-.1-2.03-.02-1.31.09-2.54.11-3.81.06-1.26-.15-2.65-.06-3.92.1-1.26.27-2.48.4-3.74.12-1.26.38-2.43.52-3.69.13-1.26.33-2.51.47-3.77.14-1.26.19-2.52.33-3.77.15-1.25.19-2.58.35-3.83.16-1.25.68-2.34.83-3.59.16-1.25.01-2.6.15-3.85.14-1.25.5-2.38.62-3.63.1-1.26-.03-2.8.07-4.03.12-1.23.32-2.3.39-3.53.1-1.24.27-2.39.28-3.65,0-1.12.06-2.22.14-3.24.07-1.13.14-2.2.02-3.2-.11-1.13-.62-2.19-1.45-2.64-.99-.58-2.09-.69-3.01-.74-1.18-.07-2.39.24-3.2.45l.16-.36c.03.07.06.12.09.17.81,1.65,1.29,3.03,1.28,3.15-.01.13-.9-1.01-1.88-2.72-.04-.08-.09-.15-.15-.26l.32-.71c.81-.24,1.88-.48,3.12-.49,1-.01,2.42.16,3.6.85.51.29.94.84,1.12,1.39.19.56.25,1.12.33,1.71.13,1.04.27,2.21.2,3.36-.07,1.06.02,1.98.03,3.13,0,0-.05.33-.09.88-.05.55-.08,1.33-.1,2.23-.02.89.19,1.79.14,2.89-.05.98-.12,2.07-.2,3.1-.09,1.32-.44,2.29-.52,3.06-.11,1.11-.18,1.9-.29,3.02-.09.77.04,1.71-.1,3.02-.14,1.34-.4,2.72-.54,4.05-.16,1.33-.32,2.69-.48,4.01-.13,1.33-.26,2.62-.39,3.95-.14,1.33-.41,2.58-.55,3.92-.15,1.33-.19,2.7-.31,4.03-.12,1.34-.12,2.72-.2,4.05-.05,1.34.12,2.43.14,3.77.02,1.32-.09,2.75.07,3.95.08.61.17,1.26.36,1.77.09.26.21.47.33.6.03.02.06.06.08.07-.02-.03-.07-.03-.03-.02.03.02.16.03.28.03.55,0,1.21-.09,1.99-.03.21.02.42.04.7.15.13.04.29.13.44.25.13.11.32.37.34.46.23.53.15,1.11-.03,1.53-.36.84-.92,1.44-1.59,1.96-.35.25-.73.48-1.22.61-.44.1-.87.15-1.29.1-1.69-.19-2.99-1.15-3.95-2.33-.98-1.24-1.35-2.74-1.6-4.14-.25-1.41-.16-2.84-.18-4.2-.01-1.37,0-2.63.11-3.98.11-1.36-.02-3,.18-4.34.2-1.32.46-2.58.68-3.89.22-1.31.6-2.41.79-3.73.13-.93.39-2.03.53-3.31.11-1.05.04-2.25.13-3.44.08-1.09.14-2.23.2-3.4.06-1.12-.05-2.33-.01-3.47.04-1.14.11-2.28.14-3.39.02-1.16.03-2.32.05-3.4.01-1.2-.04-2.39-.04-3.43,0-1.29.2-2.29.19-3.22,0-.65,0-2.15.01-3.82,0-1.29-.2-2.99-.38-4.06-.15-1.01-.39-1.7-.44-1.99-.06-.28.15-.18.51.59.16.32-.05-.41.04-.22Z"/>
  </g>
  <g>
    <path class="cls-1" d="M98.75,13.13c1.74-.75,4.6-.4,5.89.99s1.14,3.68,1.47,5.55c.42,2.38.46,4.83.13,7.23-.3,2.16-1.03,4.98-1.45,7.12-.66,3.35-.68,5.06-.9,8.47-.45,7.08-2.55,15.52-3,22.6-.18,2.77.32,6.45,2.33,8.37.42.4,1.97-.15,2.25.35s.23,1.27-.3,1.52c-.36.17-.8.03-1.16-.14-2.59-1.22-4.21-3.95-4.81-6.75s-.34-5.7-.08-8.55c1.28-14.13,2.37-28.28,3.25-42.45.05-.85.09-1.77-.37-2.49-.99-1.53-3.26-1.83-3.26-1.83Z"/>
    <path class="cls-1" d="M99.3,12.73c.94-.3,2.17-.16,3.13.07.92.21,1.92.33,2.68,1.2.71.87.87,1.94,1.03,2.89.16.95.35,1.85.52,2.75.17.95.21,1.98.26,2.96.06.96.01,1.95-.05,2.92,0,0-.32,1.12-.66,2.78-.16.83-.31,1.86-.54,2.87-.2.9-.2,1.84-.38,2.78-.23,1.22-.6,2.29-.65,3-.07.99-.08,1.71-.1,2.7-.01.72-.08,1.44-.14,2.7-.07,1.18,0,2.32-.12,3.51-.12,1.18-.29,2.36-.45,3.54-.17,1.17-.39,2.35-.57,3.52-.19,1.16-.37,2.34-.56,3.5-.17,1.16-.33,2.33-.5,3.49-.15,1.17-.07,2.32-.18,3.48-.06.58-.09,1.19-.14,1.8-.03.58-.03,1.17-.02,1.73.04,1.1-.14,2.07.15,3.16.3,1.08,1.03,2.06,1.73,2.73l.03.03.02.02h0s0,0,0,0c-.67.7-.19.19-.34.35h0s0,0,0,0h.01c.05-.06.04-.07.09-.16.05-.09.06-.16.09-.27,0,0,.01,0,.02,0,.06,0,.15.01.28,0,.25-.01.54-.05.91-.06.19,0,.4,0,.74.12.16.06.38.18.55.42.1.14.11.17.14.23.03.06.05.11.08.17.17.45.23.93.07,1.46-.08.26-.24.54-.49.77-.25.22-.57.35-.87.39-.61.06-1.02-.14-1.35-.3-.6-.33-1.13-.72-1.64-1.13-1.02-.81-1.76-1.87-2.36-2.97-.59-1.09-1.3-2.32-1.52-3.57-.23-1.24-.2-2.45-.19-3.66.02-1.22.24-2.34.35-3.52.12-1.18.26-2.36.35-3.54.09-1.18.07-2.36.16-3.54.09-1.18.06-2.42.16-3.6.1-1.17.57-2.21.67-3.39.1-1.18-.08-2.44.01-3.62.1-1.18.44-2.24.54-3.41.1-1.18-.06-2.63.08-3.79.13-1.15.35-2.15.49-3.3.13-1.16.38-2.23.48-3.4.1-1.05.19-2.06.28-3.02.09-1.06.18-2.06.26-3,.09-1.07.06-2.09.14-3.02.09-1.09.12-2.11.21-3,.05-.59.05-1.21-.1-1.72-.14-.51-.44-.87-.71-1.15-.55-.58-1.23-.94-1.74-1.19-.25-.12-.47-.21-.63-.28-.08-.03-.14-.06-.19-.08-.06,0-.08-.08,0,.02,0,.02.01.03.02,0,.03-.02-.08-.12-.07-.1.03,0,.09-.02.16-.02.15,0,.38,0,.66.05.56.1,1.42.31,2.22,1,.34.3.74.74.95,1.36.2.6.22,1.26.2,1.88-.04.9-.16,2.1-.25,3.22-.08.93-.44,1.82-.54,2.9-.08.95.01,2.03-.07,3.1-.08.97-.03,1.91-.1,2.96,0,0-.28,1.2-.37,2.88-.05.83.11,1.68.04,2.7-.07.91-.16,1.93-.23,2.89-.08,1.23-.44,2.13-.49,2.86-.08,1.04-.14,1.78-.22,2.83-.06.73.09,1.6,0,2.83-.08,1.25-.28,2.56-.36,3.81-.09,1.25-.19,2.53-.29,3.78-.07,1.25-.14,2.47-.2,3.72-.08,1.26-.3,2.44-.42,3.69-.11,1.25-.11,2.51-.09,3.74.02,1.23.24,2.48.54,3.63.33,1.16.93,1.96,1.56,2.9.64.93,1.45,1.82,2.41,2.33,1.49.73.4.32,1.05.45.01,0-.1-.02-.21-.02h-.42c-.33-.03-.63.04-1.25-.18-.08-.03-.16-.07-.26-.15l-.13-.11-.05-.05-.17-.2c-.12-.13-.22-.27-.32-.42-.21-.28-.38-.58-.55-.88-.68-1.19-1.35-2.57-1.53-3.91-.17-1.33-.14-2.62-.02-3.91.09-1.28.35-2.55.49-3.82.15-1.26.46-2.55.64-3.8.18-1.25.33-2.41.54-3.65.21-1.25.15-2.77.37-4,.21-1.22.47-2.38.65-3.6.19-1.22.5-2.25.6-3.49.07-.88.26-1.93.35-3.14.08-.99.01-2.14.19-3.27.16-1.03.35-2.11.6-3.18.23-1.03.34-2.17.57-3.21.23-1.04.48-2.07.62-3.07.14-1.05.2-2.11.2-3.11,0-1.1-.15-2.18-.28-3.13-.2-1.21-.03-2.2-.14-3.04-.1-.56-.14-2.05-1.21-3.07-.41-.38-1.05-.65-1.68-.8-.64-.14-1.28-.17-1.78-.19-.47-.01-.88,0-1.19.04-.16.02-.29.03-.41.05-.08.02-.1-.04-.19-.06-.16-.03-.23.02-.16-.02.05-.04.31-.21.68-.31.32-.11-.39,0-.2-.07Z"/>
  </g>
  <g>
    <path class="cls-1" d="M126.47,47.14c.76,1.79,2.04,5.78.22,10.03-1.99,4.63-11.18,30.79-12.76,35.6-1.22,3.73-4.86,17.61-6.87,26.07-1.17,4.9-6.42,18.9-9.39,22.97-3.67,5.03-13.87,10.1-14.67,9.66s8.21-6.92,10.76-11.81c2.66-5.12,5.32-10.26,7.31-15.68,3.51-9.57,4.87-19.86,8.67-29.32,1.59-3.97,3.61-7.76,5.4-11.65,3.84-8.32,6.69-17.09,8.47-26.08.41-2.05.76-4.15.45-6.22s-1.38-4.12-3.21-5.13c0,0,4-2.3,5.64,1.56Z"/>
    <path class="cls-1" d="M127.06,48.12c.59,1.54.79,3.65.66,5.36-.05.84-.13,1.64-.28,2.44-.14.81-.43,1.59-.72,2.36-.61,1.56-1.28,3.1-1.84,4.67-.55,1.54-.96,3.08-1.52,4.66-.57,1.54-1.19,3.18-1.77,4.75-.55,1.55-1.12,3.13-1.69,4.71,0,0-.9,1.74-1.9,4.53-.47,1.39-1.04,3.1-1.62,4.81-.53,1.52-.86,3.11-1.39,4.71-.71,2.07-1.43,3.87-1.74,5.09-.41,1.69-.7,2.92-1.11,4.61-.29,1.22-.64,2.44-1.18,4.56-.51,1.99-.82,3.91-1.31,5.91-.49,2-.98,4-1.46,6-.24,1-.47,2.01-.77,3.03-.3,1.01-.62,2-.94,2.99-.65,1.97-1.36,3.93-2.09,5.87-.73,1.94-1.5,3.86-2.32,5.77-.83,1.91-1.46,3.84-2.51,5.7-.51.92-1.17,1.94-1.94,2.81-.77.86-1.61,1.64-2.44,2.32-1.65,1.34-3.28,2.06-5.06,3.14-1.81,1.06-3.64,2.34-5.69,3.11-.26.09-.53.18-.86.26-.1.02-.15.04-.29.04h-.19c-.05.01-.25-.03-.37-.07-.06.02-.47-.26-.55-.56-.07-.22-.05-.4-.01-.59.05-.16.14-.33.18-.4.22-.33.4-.51.58-.72l.55-.57c.74-.73,1.48-1.42,2.23-2.12,1.51-1.39,3.18-2.69,4.55-4.19.68-.75,1.34-1.5,1.93-2.29.61-.78,1.04-1.62,1.53-2.56.95-1.83,1.74-3.93,2.64-5.77.91-1.83,1.83-3.59,2.64-5.46.81-1.87,1.62-3.62,2.27-5.56.66-1.94,1.27-3.91,1.81-5.9.54-1.99.93-4.01,1.44-6.01.51-2,.92-4.14,1.48-6.13.57-2,1.49-3.69,2.16-5.64.67-1.96,1.23-4.1,2.08-6,.86-1.89,1.93-3.49,2.83-5.34.92-1.85,1.74-4.22,2.58-6.06.84-1.83,1.64-3.41,2.39-5.28.75-1.89,1.53-3.62,2.17-5.57.57-1.74,1.09-3.44,1.53-5.06.49-1.78.93-3.49,1.28-5.1.4-1.83.68-3.59.88-5.19.24-1.89.09-3.68-.44-5.11-.5-1.48-1.62-2.73-2.75-3.3v-.43c.41-.23.79-.38,1.15-.48.75-.21,1.52-.27,2.19-.1.67.15,1.2.52,1.53.9.67.77.76,1.43.8,1.49,0,.04-.08-.04-.21-.24-.12-.2-.35-.49-.66-.8-.33-.29-.77-.59-1.34-.71-.56-.12-1.25-.08-1.95.13-.34.1-.74.25-1.13.48v-.9c1.11.56,2.25,1.72,2.9,3.24.35.76.61,1.73.71,2.74.1,1.02.06,2.08-.06,3.08-.2,1.68-.84,3.17-1.24,5.02-.36,1.63-.63,3.5-1.12,5.3-.44,1.64-.78,3.25-1.33,5.02,0,0-.8,1.98-1.78,4.76-.48,1.37-.81,2.82-1.47,4.49-.59,1.49-1.35,3.11-2.04,4.65-.9,1.97-1.88,3.29-2.43,4.44-.79,1.64-1.36,2.81-2.1,4.47-.52,1.16-.9,2.61-1.63,4.62-.73,2.04-1.5,4.2-2.07,6.3-.57,2.1-1.16,4.26-1.68,6.38-.52,2.12-.98,4.19-1.55,6.32-.57,2.13-1.27,4.1-1.98,6.2-.71,2.09-1.45,4.22-2.34,6.24-.89,2.03-1.79,4.11-2.77,6.09-.98,1.98-1.58,3.67-2.57,5.65-1.11,2.11-2.77,3.83-4.29,5.44-1.55,1.61-3.49,3.19-5.09,4.66-.39.37-.8.73-1.13,1.07l-.22.24s-.06.07-.05.06c0-.01.01-.03.01-.04.02-.03.06-.24,0-.34-.01-.07-.07-.24-.17-.34-.1-.11-.23-.16-.23-.17-.06-.04-.19-.05-.2-.05,0,0-.02.01.03,0,.07,0,.18-.03.29-.05.92-.24,1.92-.65,2.88-1.13,1.94-.97,3.84-2.46,5.59-3.69,1.74-1.24,3.39-2.51,4.7-4.1.63-.79,1.19-1.69,1.72-2.65.53-.94,1.04-1.92,1.48-2.92.9-1.98,1.88-4.04,2.68-6.08.79-2.05,1.45-3.96,2.17-6.02.36-1.04.67-2.2.94-3.36.28-1.16.49-2.28.76-3.37.55-2.11,1.14-4.12,1.7-6.22.57-2.11,1.25-3.86,1.82-5.97.4-1.5,1-3.24,1.56-5.28.46-1.66.8-3.6,1.37-5.5.51-1.74,1.13-3.53,1.75-5.33.6-1.74,1.11-3.66,1.74-5.42.64-1.75,1.29-3.52,1.92-5.23.65-1.79,1.3-3.57,1.91-5.25.66-1.85,1.32-3.69,1.89-5.3.74-1.98,1.5-3.44,2.04-4.87.39-.99,1.26-3.28,2.33-5.8.42-.95.74-2.12.81-3.29.09-1.16,0-2.3-.13-3.2-.23-1.68-.62-2.84-.71-3.3-.11-.45.14-.22.63,1.07.21.54-.1-.65.01-.33Z"/>
  </g>
  <g>
    <path class="cls-1" d="M44.37,5.99l-.93,8.57c-.02.2,0,.47.19.54.07.02.14.01.21,0,2.04-.29,4.09-.59,6.13-.88.59-.08,1.28-.24,1.53-.78.14-.3.11-.64.07-.96-.2-1.7-.51-3.4-.95-5.06-.21-.83-.53-1.74-1.3-2.11-.37-.18-.79-.2-1.2-.22-.73-.02-1.48-.01-2.16.24s-1.3.79-1.47,1.51"/>
    <path class="cls-1" d="M44.55,6.16c.02.22-.13.47-.14.69,0,.22.26.44.24.67-.02.22-.12.43-.13.65,0,.22.11.44.1.66-.01.22-.12.44-.13.66-.01.22-.07.43-.08.65,0,0-.29.23-.35.61-.03.19.01.43-.01.67-.02.21.16.44.15.66-.02.29-.24.52-.22.69.03.23.05.41.08.64.02.17-.02.33-.04.62,0,.13.02.27.06.41.01.07.03.14.04.2.01.03.02.06.03.08h0s-.14.03-.14.03c-.09.02-.15.04-.21.07-.11.05-.11.1-.09.05,0,.03.02-.05.01-.18,0-.05,0-.21-.02-.29h.02s.2-.04.2-.04c.27-.05.54-.05.81-.1l.8-.13.8-.14c.27-.05.5-.31.76-.35.27-.04.56-.1.84-.12.27-.02.54.27.81.25.27-.02.53-.28.8-.32.28-.04.51-.15.7-.2.19-.05.42.06.51-.01.07-.07.13-.06.16-.19.03-.14-.27-.36-.29-.63-.02-.26.05-.53.02-.79-.02-.26.09-.53.05-.8-.04-.26-.03-.54-.08-.8-.05-.26-.21-.5-.26-.76-.05-.26-.24-.51-.29-.77-.05-.26.27-.59.21-.85-.06-.26-.4-.45-.47-.67-.07-.22.08-.53-.04-.74-.12-.22-.49-.22-.6-.33-.11-.13-.22-.32-.45-.4-.22-.08-.46-.25-.73-.27-.24-.02-.47-.05-.69-.04-.24,0-.47,0-.68.04-.24.04-.44.19-.63.26-.23.08-.4.22-.56.32-.23.13-.31.42-.43.54-.25.23-.53.47-.61.48-.07.03-.27-.41,0-.9.11-.2.28-.48.54-.7.19-.17.5-.32.79-.42.25-.09.55.14.81.1.23-.03.47-.24.73-.24.23,0,.46-.13.71-.13,0,0,.27.18.7.19.21,0,.48-.17.8-.06.28.1.55.32.76.52.29.27.18.66.26.81.13.24.2.41.28.65.06.17.32.31.41.59.09.28.06.6.15.88.09.28.12.58.2.86.08.28.18.55.25.83.06.29-.01.58.03.87.04.29.16.57.19.86.03.29.15.58.19.87.03.3.34.58.24,1.13-.1.56-.61,1.04-.99,1.25-.41.25-.85.22-1.17.28-.32.05-.59-.11-.89-.08-.29.03-.56.37-.85.39-.29.03-.57,0-.86.04-.29.04-.59-.03-.88.03-.28.05-.6-.02-.88.03-.29.05-.54.14-.83.17-.29.03-.59.38-.88.39-.07,0-.14,0-.22,0-.05-.01-.2.02-.5-.04-.31-.06-.63-.31-.75-.56-.13-.24-.14-.43-.15-.57,0-.15.02-.26.06-.37.04-.09.07-.13.11-.2.08-.12.15-.25.17-.39.03-.2.19-.43.23-.7.03-.22-.12-.5-.08-.76.03-.23.05-.48.08-.73.03-.24-.09-.52-.05-.76.04-.24.12-.48.16-.72.04-.25.08-.49.12-.72.05-.25.03-.51.07-.73.05-.27.29-.46.33-.66.03-.13.11-.46.19-.8.06-.27-.08-.66-.01-.9.12-.45.41-.61.46-.24.02.08.11-.07.12-.03Z"/>
  </g>
  <g>
    <path class="cls-1" d="M75.79,14.42c-.17-2.46.64-4.92,1.93-7.02.38-.61.81-1.22,1.41-1.62s1.39-.57,2.05-.27c.46.21.79.61,1.11,1,.86,1.05,1.72,2.14,2.2,3.41.64,1.69.54,3.56.43,5.37,0,.09-.02.2-.08.26-.07.07-.19.07-.29.07-2.97-.12-5.94-.44-8.87-.95"/>
    <path class="cls-1" d="M75.58,14.29c-.06-.22.06-.5.05-.73,0-.22-.29-.44-.27-.68.01-.24.12-.46.14-.69.02-.23-.08-.47-.05-.7.04-.23.17-.45.23-.67.05-.22.15-.44.21-.66,0,0,.33-.17.49-.54.08-.18.11-.43.21-.66.09-.2,0-.49.09-.7.12-.28.43-.42.48-.58.08-.23.12-.4.21-.64.06-.17.18-.3.35-.57.16-.24.22-.58.45-.82.23-.24.49-.45.8-.63.31-.18.66-.27,1.01-.33.36-.07.74-.05,1.13.04.39.1.74.3,1.01.53.27.22.64.32.83.54.18.22.39.44.55.68.16.23.05.62.2.86.15.24.51.37.67.62.16.25.38.46.52.73.15.27.11.64.22.92.12.28.16.59.23.88.07.29.39.56.43.87.03.3-.04.6-.03.89,0,.29-.14.57-.14.86,0,.29-.06.57-.07.85,0,.28.09.57.07.84,0,.14.02.28.04.43,0,.08.03.11.02.27,0,.13-.07.45-.35.68-.28.22-.54.2-.67.17-.14-.04-.18-.09-.25-.14-.13-.11-.26-.21-.39-.22-.28-.02-.58.24-.86.22-.28-.02-.51-.3-.79-.33-.28-.03-.63.21-.9.14-.27-.07-.49-.23-.76-.3-.27-.07-.5-.26-.77-.3-.24-.04-.48-.09-.7-.12-.24-.04-.48-.08-.69-.12-.25-.04-.5.03-.71,0-.25-.04-.49-.03-.7-.08-.27-.06-.58.03-.77-.03-.39-.12-.66-.4-.67-.47-.01-.08.34-.27.77-.26.19,0,.45-.02.73,0,.21.02.48.07.73.12.21.04.38.36.63.4.22.04.49-.11.73-.08.22.03.45-.07.69-.05,0,0,.26.22.65.22.19,0,.41-.2.64-.19.21,0,.44.06.67.07.28,0,.48.31.65.32.24.02.41.03.66.05.17.01.38-.19.66-.19.15,0,.29.03.44.06.13.03.38.04.23.05-.08,0-.2.17-.19.19,0,.03,0-.03.01-.11.01-.15.03-.29.02-.44,0-.29-.04-.57-.04-.86,0-.29.13-.55.13-.84,0-.29-.08-.57-.09-.85-.01-.28-.13-.55-.18-.82-.05-.27-.34-.43-.44-.66-.1-.23-.17-.49-.3-.71-.13-.22-.16-.52-.29-.76-.13-.23-.11-.55-.26-.78-.15-.24-.57-.31-.73-.54-.16-.23-.28-.49-.46-.71-.19-.23-.28-.52-.45-.68-.17-.15-.26-.37-.43-.43-.16-.05-.33-.03-.52-.02-.21.01-.34.37-.5.42-.17.05-.38.1-.57.23-.18.13-.5.15-.67.36-.12.14-.36.26-.51.49-.12.19-.1.49-.23.71-.12.2-.21.42-.33.64-.11.21-.07.5-.17.72-.1.21-.24.42-.33.63-.1.22-.18.45-.26.66-.08.24-.11.49-.17.69-.08.25-.33.42-.37.62-.03.13-.12.44-.19.79-.05.28.12.64.08.88-.06.44-.31.67-.42.31-.04-.08-.09.09-.11.05Z"/>
  </g>
  <g>
    <path class="cls-1" d="M96.37,21.89c-.3-1.63.13-3.39,1.16-4.69s2.64-2.12,4.3-2.2c.2,0,.41,0,.6.06.25.09.46.27.64.47.94,1.03,1.4,2.43,1.52,3.82s-.06,2.79-.27,4.17c-.02.12-.04.25-.13.33-.12.11-.3.08-.45.05-2.68-.49-5.37-.99-8.05-1.48"/>
    <path class="cls-1" d="M96.15,21.79c-.08-.19.02-.46,0-.66-.03-.2-.31-.38-.31-.61,0-.22.11-.42.13-.63.01-.21-.09-.43-.04-.65.04-.21.19-.4.25-.61.07-.2.18-.39.26-.59,0,0,.34-.11.54-.41.1-.15.17-.37.31-.55.12-.15.1-.45.24-.61.19-.22.51-.23.6-.36.14-.18.23-.32.39-.48.11-.12.26-.19.5-.34.22-.14.38-.4.63-.52.25-.12.51-.2.77-.29.27-.08.55-.1.82-.14.28-.04.53-.06.86-.06.33-.01.83.15,1.1.38.29.22.62.28.82.5.19.23.38.49.52.75.13.26-.05.62.04.87.09.25.4.45.48.72.08.26.22.5.28.77.06.27-.09.58-.05.84.04.27,0,.53,0,.79,0,.26.27.54.25.81-.02.26-.14.51-.17.76-.03.25-.21.48-.25.73-.04.25-.12.49-.15.74-.03.25.04.5,0,.76-.01.08-.02.2-.08.35-.05.16-.19.37-.39.49-.41.24-.7.19-.86.17-.27-.06-.4-.48-.64-.53-.24-.05-.55.18-.79.12-.24-.05-.42-.35-.65-.4-.24-.06-.58.15-.81.07-.23-.09-.41-.27-.64-.35-.23-.09-.42-.29-.66-.35-.21-.05-.42-.11-.61-.16-.21-.05-.42-.1-.61-.15-.22-.04-.45.02-.63-.03-.22-.05-.44-.04-.62-.09-.24-.07-.52.02-.69-.04-.34-.12-.58-.4-.58-.47,0-.08.31-.27.7-.26.17,0,.4-.02.66,0,.19.02.43.08.66.13.19.04.32.37.54.42.19.05.44-.09.66-.05.2.04.41-.04.63-.01,0,0,.22.23.56.26.17.02.38-.17.6-.15.19.02.39.09.59.12.26.03.39.35.54.38.21.04.36.07.58.11.15.03.36-.15.62-.11.26.03.51.18.77.21.12.02.19,0,.1.03-.04.01-.11.08-.12.11-.02.03,0,.02,0-.02.02-.23,0-.51.03-.75.03-.26.18-.48.22-.74.04-.25-.01-.52.01-.77.03-.25-.04-.52-.05-.76,0-.25-.25-.45-.3-.68-.05-.23-.05-.48-.11-.71-.06-.22,0-.5-.06-.72-.06-.22.07-.49,0-.71-.07-.23-.44-.35-.53-.54-.09-.2-.14-.42-.26-.59-.12-.17-.19-.43-.34-.56-.15-.12-.15-.26-.25-.27-.11-.01-.35.05-.57.06-.24.02-.44.36-.65.38-.22.02-.44,0-.66.05-.22.05-.49-.07-.71.03-.15.07-.39.06-.59.19-.16.11-.22.38-.38.51-.15.12-.28.28-.42.42-.14.15-.15.4-.26.56-.12.15-.27.29-.37.46-.11.17-.2.35-.29.52-.1.19-.12.4-.18.57-.08.21-.33.34-.37.51-.04.11-.11.38-.17.69-.03.24.15.55.14.76-.03.39-.25.62-.4.31-.04-.06-.08.09-.11.06Z"/>
  </g>
  <g>
    <path class="cls-1" d="M119.16,50.51c.36-.78.92-1.45,1.5-2.08.37-.4.76-.81,1.25-1.06s1.09-.33,1.59-.09c.57.28.86.91,1.06,1.51.71,2.14.8,4.48.25,6.67-2-1.09-4.18-1.85-6.42-2.24,0,0,.42-1.94.78-2.72Z"/>
    <path class="cls-1" d="M119.03,50.32c.04-.17.25-.3.33-.45.08-.15-.08-.44.02-.59.1-.15.27-.24.37-.38.09-.14.09-.36.2-.5.1-.14.28-.22.39-.35.11-.13.25-.24.37-.37,0,0,.33.04.58-.14.13-.09.24-.26.42-.35.15-.08.24-.35.44-.42.26-.09.53.08.67.05.21-.05.38-.08.61-.06.17.02.34.1.58.27.22.15.53.23.69.46.16.22.28.44.38.66.1.22.14.45.21.65.08.21.12.42.19.63.06.21.12.42.17.64.05.21.31.39.34.61.03.22.09.47.08.69,0,.23-.31.43-.32.65-.01.22.22.45.21.67,0,.22.07.44.06.66,0,.22-.22.44-.24.65-.02.22-.1.43-.14.64-.04.21.17.5.12.71-.04.12-.1.24-.16.35l-1.23.54c-.06-.06-.13-.12-.2-.16-.17-.11-.27-.32-.44-.42-.18-.09-.34-.23-.52-.31-.18-.08-.41-.06-.59-.14-.19-.08-.42-.04-.61-.12-.18-.08-.22-.51-.41-.58-.19-.07-.48.12-.67.05-.19-.07-.29-.37-.48-.44-.19-.07-.5.13-.68.04-.18-.09-.31-.27-.5-.36-.19-.09-.34-.29-.53-.34-.13-.04-.27-.08-.4-.11l-.07-.11s.02-.08.03-.12c.05-.18.1-.35.15-.51.05-.18,0-.38.04-.54.06-.19.06-.37.12-.52.08-.2.01-.45.09-.58.15-.28.46-.41.53-.39.07.02.21.31.17.61-.02.14-.01.33-.05.53-.03.15-.1.34-.16.52-.05.15-.37.23-.43.41-.05.16.08.38.04.56-.01.04-.01.08,0,.13l-.37-.55c.13,0,.27-.05.41-.03,0,0,.18.23.48.26.15.02.34-.16.53-.13.16.03.33.1.5.14.22.05.3.37.42.4.18.06.3.1.48.15.12.04.33-.11.55-.05.22.06.41.24.62.3.22.06.42.18.63.25.21.07.43.11.64.2.21.08.35.29.55.4.2.11.44.14.63.26.05.03.1.05.16.07l-.81.35c.01-.16,0-.32.03-.48.04-.21-.18-.42-.18-.62,0-.2.04-.41.03-.62-.01-.2.11-.42.12-.63,0-.2.2-.39.21-.6.01-.21-.3-.42-.29-.62,0-.2.05-.4.02-.61-.02-.2.05-.42,0-.63-.05-.2.02-.43-.04-.63-.06-.2-.16-.37-.21-.57-.06-.21-.41-.34-.45-.5-.03-.17-.02-.35-.07-.48-.04-.13.05-.37-.06-.47-.07-.06-.1-.24-.26-.29-.13-.04-.28.13-.4.14-.13,0-.26.05-.39.1-.13.04-.19.25-.31.32-.12.07-.28.13-.41.23-.13.1-.26.22-.39.33-.14.12-.24.3-.36.41-.15.14-.42.12-.52.22-.08.07-.26.23-.44.42-.14.15-.14.47-.25.6-.22.25-.52.28-.48,0,0-.07-.12.02-.12-.02Z"/>
  </g>
  <g>
    <path class="cls-1" d="M2.68,74.39c-.42,3.76,1.54,7.33,3.43,10.6,1.17-1.4,2.58-2.61,4.13-3.56.25-.16.55-.38.49-.68-.02-.08-.06-.16-.11-.23-1.23-1.98-2.55-3.89-3.95-5.74-.35-.46-.72-.93-1.21-1.24s-1.13-.45-1.66-.21c-.5.23-.81.74-1.28,1.01"/>
    <path class="cls-1" d="M2.88,74.54c.03.2-.12.44-.11.65.02.21.3.38.31.58.02.2-.05.41-.02.6.04.19.21.36.25.56.03.19,0,.41.05.6.04.19.07.39.13.59,0,0-.2.3-.11.65.04.17.17.37.25.57.07.19.32.3.41.48.11.24.01.54.11.67.13.17.24.3.37.47.1.12.14.27.27.51.12.22.39.35.51.57l.38.66c.13.22.22.46.35.68l.39.66.35.56-1.22-.11.07-.08c.17-.21.17-.55.36-.76.18-.2.38-.43.59-.61.21-.18.59-.1.8-.26.21-.16.28-.52.49-.69.21-.17.36-.39.58-.56.21-.17.55-.17.77-.33.22-.15.47-.25.7-.39.09-.05.13-.16.1-.23-.01-.02-.03-.04.06.04.06.05.12.09.16.11.09.05.16.06.16.06,0,0,0,0,0,0l-.29.06-.24.05s0,0,0,0h0s0,.01,0,.01h0s.06.07.04,0c-.04-.12-.08-.24-.15-.35-.12-.22-.12-.51-.25-.72s-.23-.46-.37-.67c-.14-.21-.37-.36-.51-.58-.14-.21-.4-.36-.53-.58-.14-.21.05-.63-.09-.84-.14-.21-.52-.27-.67-.48-.14-.21-.07-.55-.21-.77-.14-.21-.54-.3-.66-.53-.12-.23-.13-.49-.25-.71-.12-.22-.14-.5-.31-.69-.15-.16-.3-.32-.47-.43-.18-.12-.37-.23-.57-.29-.22-.06-.44.02-.62.04-.22.02-.38.14-.53.22-.22.12-.3.41-.45.51-.32.24-.72.22-.76.16-.04-.06.02-.37.23-.68.11-.14.23-.36.5-.58.19-.16.57-.33.91-.35.3-.03.53.28.78.36.22.06.54,0,.78.16.2.13.46.19.66.37,0,0,.09.34.35.61.13.14.42.15.57.32.13.15.24.35.37.51.17.21.06.54.16.67.13.19.23.32.36.5.09.13.37.16.54.37.17.22.25.51.42.73.17.21.3.47.47.68s.36.41.52.63c.16.23.2.51.34.75.14.24.36.43.49.67.08.15.14.16.28.43.06.12.13.2.14.41.01.18-.04.37-.11.5-.14.26-.25.42-.35.59-.1.16-.21.31-.3.38-.2.17-.44.3-.63.47-.19.18-.49.25-.7.42-.2.16-.52.16-.73.33-.21.16-.23.57-.42.74-.2.17-.42.29-.6.48-.18.18-.44.31-.6.51-.07.09-.15.16-.24.23l-1.21-.11c-.05-.16-.1-.31-.19-.45-.15-.23-.31-.43-.44-.68-.13-.24-.55-.39-.66-.65-.1-.26-.15-.54-.24-.8-.09-.27,0-.58-.11-.83-.07-.18-.06-.45-.16-.7-.08-.2-.35-.36-.44-.59-.08-.22-.18-.43-.26-.67-.07-.22-.31-.41-.37-.65-.06-.24-.09-.48-.14-.72-.05-.25-.1-.49-.13-.71-.03-.26-.13-.5-.14-.72-.02-.28.17-.52.16-.71,0-.13.03-.46.05-.8.03-.27-.16-.63-.09-.87.11-.45.38-.59.45-.24.03.07.1-.07.12-.03Z"/>
  </g>
  <g>
    <path class="cls-1" d="M58.71,60.05c-.13-.14-.04-.38.12-.48s.36-.08.55-.05c.96.15,1.86.65,2.5,1.39.53.62.89,1.4,1.55,1.87,1.09.77,2.72.37,3.57-.65.16-.19.3-.41.51-.55s.51-.19.7-.02c-.42,1.66-.87,3.4-2.03,4.67-.32.35-.69.65-1.13.82-.47.18-.99.18-1.49.09-1.5-.26-2.77-1.32-3.62-2.59s-1.24-4.51-1.24-4.51Z"/>
    <path class="cls-1" d="M58.45,59.96c-.05-.18.04-.35.17-.45.14-.11.29-.12.41-.14.23-.04.47-.27.69-.23.23.04.42.19.62.25.21.06.46.02.67.12.2.1.36.3.54.43.18.13.33.3.5.46,0,0,0,.37.2.67.1.15.29.29.41.47.11.16.39.19.51.33.16.18.16.46.29.52.17.08.3.11.47.13.12.02.22.09.43.12.2.02.39-.14.57-.17.18-.03.37-.07.54-.15.17-.08.36-.13.52-.24.15-.11.3-.23.41-.38.12-.14.26-.41.6-.68.18-.14.39-.31.65-.41.26-.1.65-.14,1.03.09.06.03.11.08.17.12l.31.98c-.05.23-.1.48-.18.71-.08.24-.45.37-.54.61-.09.24.04.58-.05.83-.09.25-.11.52-.21.78-.11.26-.4.43-.53.67-.12.25-.32.45-.48.68-.16.22-.15.63-.36.84-.22.21-.51.34-.77.51-.27.17-.63.18-.93.27-.31.09-.63.07-.92.07-.29,0-.6.08-.88.01-.28-.05-.61-.03-.88-.14-.27-.12-.33-.58-.56-.72-.22-.14-.62-.07-.84-.25-.22-.18-.23-.54-.41-.73-.17-.19-.6-.25-.73-.49-.13-.24-.15-.5-.25-.75-.11-.27-.07-.55-.15-.79-.08-.21-.12-.43-.18-.63-.06-.22-.1-.43-.15-.63-.05-.22-.2-.41-.24-.6-.04-.23-.13-.43-.15-.62-.03-.25-.21-.49-.21-.67,0-.39.2-.66.25-.75.09.03.35.23.48.61.05.16.15.37.22.61.05.18.08.43.12.65.03.19-.21.44-.16.66.04.2.27.36.33.57.06.19.23.33.32.51,0,0-.09.3.1.56.09.12.36.14.49.28.12.13.21.31.34.44.16.17.09.49.2.6.15.14.26.24.43.37.12.09.37.02.58.13.21.11.38.32.61.39.22.07.44.18.67.21.23.03.46,0,.67,0,.21-.01.42.09.62.03.2-.06.35-.23.53-.35.18-.13.29-.35.44-.53.15-.18.07-.48.16-.69.1-.2.23-.4.31-.63.07-.22.29-.42.38-.65.09-.23.35-.38.44-.62.09-.24-.11-.59-.03-.84.08-.24.21-.47.27-.72.02-.08.05-.15.08-.23l.27.85c.21.12.3,0,.28.02.06-.03-.17-.01-.32.22-.17.24-.38.52-.64.71-.26.19-.47.66-.83.76-.34.09-.69.08-1.03.09-.35,0-.63-.24-.94-.31-.23-.06-.45-.26-.71-.41-.21-.12-.55-.15-.75-.36-.18-.19-.35-.38-.5-.58-.14-.2-.4-.31-.52-.5s-.19-.38-.31-.53c-.12-.16-.25-.3-.38-.43-.15-.15-.34-.23-.48-.33-.18-.13-.25-.4-.4-.47-.1-.05-.35-.2-.65-.29-.12-.04-.27-.03-.36.02-.1.04-.11.1-.11.08-.04,0-.15-.01-.19.08-.02.09-.17.14-.25-.07-.04-.1-.09.12-.11.07Z"/>
  </g>
</svg>