<?xml version="1.0" encoding="UTF-8"?>
<svg id="Layer_1" data-name="Layer 1" xmlns="http://www.w3.org/2000/svg" viewBox="0 0 200 200">
  <defs>
    <style>
      .cls-1 {
        fill: #ffc0c4;
      }

      .cls-2 {
        fill: none;
        stroke: #ff5fff;
        stroke-linejoin: round;
        stroke-width: 2.31px;
      }

      .cls-3 {
        fill: #ffd2d4;
      }

      .cls-4 {
        fill: #ff5fff;
      }
    </style>
  </defs>
  <path class="cls-3" d="M100.26,104.11c0,25.77-24.49,46.66-39.64,46.66s-36.23-16.14-36.23-41.91,5.08-48,35.29-48c21.89,0,40.58,17.48,40.58,43.25Z"/>
  <ellipse class="cls-4" cx="40.41" cy="107.98" rx="6.93" ry="13.97"/>
  <ellipse class="cls-4" cx="62.32" cy="107.98" rx="6.93" ry="13.97"/>
  <path class="cls-3" d="M171.27,105.42c0,2.6-.36,5.09-1,7.46-4.52,16.55-23.23,26.95-33.67,26.95-11.94,0-32.96-13.58-32.96-34.41s10.82-37.71,32.96-37.71c18.3,0,30.03,11.53,33.55,27.28.74,3.31,1.12,6.81,1.12,10.43Z"/>
  <ellipse class="cls-4" cx="155.27" cy="108.41" rx="5.89" ry="11.87"/>
  <ellipse class="cls-4" cx="136.13" cy="108.41" rx="7.41" ry="11.87"/>
  <path class="cls-1" d="M190.61,101.11c-.25-13.27-13.52-22.82-16.44-35.76-.72-3.2-.8-6.59-2.19-9.56-2.45-5.24-8.55-7.97-14.33-8.09-5.78-.12-11.37,1.9-16.8,3.88l-.2-1.45c-11.09-3.5-24.6-6.54-33.2,1.29-4.06,3.69-5.69,7.06-6.31,13.14-1.99-2.67-3.45-2.27-5.4-5.4-2.88-4.61-7.39-7.95-11.94-10.92-3.62-2.36-7.43-4.6-11.67-5.43-4.24-.83-9.01-.03-12.06,3.03l-.71.63c-.78-3.61-5.53-4.51-9.2-4.07-8.73,1.06-17.18,5.63-22.03,12.97-2.64,4-4.15,8.62-5.62,13.18-2.67,8.25-6.57,15.78-10.1,23.64-3.12,6.94-3.87,14.92-2.09,22.32.91-4.57,3.26-8.83,6.63-12.04-1.53,4.33-1.06,9.17.48,13.5,1.54,4.32,4.08,8.21,6.71,11.98-.45-11.19.24-22.42,2.08-33.46.99-5.93,2.34-11.91,5.27-17.16,3.17-5.67,6.94-12.43,13.91-11.3,3.61.59,4.63,6.06,5.61,5.86.89-.18,3.67-3.06,4.41-3.59,4.52-3.21,19.23-2.69,23.53.82,5.55,4.53,8.37,7.43,12.27,13.44,1.26,1.94,2.11,4.11,2.82,6.37-.17.09-.32.19-.5.28-10.72,5.25-5.68,26.68-3.48,32.72,2.19,6.03-6.15,15.58-4.69,20.63,1.06,3.65,3,8.61,6.51,10.06,7.96,3.28,15.09,8.99,19.1,16.61,4.01,7.62,4.57,17.21.53,24.81,8.2-7.45,13.52-17.98,14.65-29,.31-3.02.26-6.27-1.42-8.8-1.58-2.37-4.34-3.68-6.3-5.76-4.97-5.25-3.6-13.14-3.77-19.7-.21-8.15-1.78-16.08-2.5-24.21-.25-2.8-.41-5.65-.25-8.45.97-2.54,1.62-5.18,1.64-7.86,1.97-4.97,5.69-9.16,9.98-12.39,3.44-2.6,8.78-6.64,13.11-7.42,4-.72,9.17,1.97,12.57,3.94,9.89,5.75,16.87,11.99,18.03,23.38.41,3.98-.33,12.83-2.07,16.44-1.24,2.57-3.21,8.91-4.69,11.35-2.35,3.86-5.79,3.89-5.56,8.41.04.79,2.45,1.97,2.85,2.65.92,1.6,3.05,1.9,4.88,2.13,5.76.75,9.06,1.08,16.41,5.52-2.77-7.12.25-15.11,3.83-21.87s7.87-13.65,7.72-21.29Z"/>
  <g id="stroke">
    <path class="cls-2" d="M101.36,65.73c-2.52-4.03-3.04-2.55-5.56-6.58-2.88-4.61-7.39-7.95-11.94-10.92-6.72-4.71-16.87-8.9-23.73-2.39,0,0-.71.63-.71.63-.78-3.61-5.53-4.51-9.2-4.07-8.73,1.06-17.18,5.63-22.03,12.97-2.64,4-4.15,8.62-5.62,13.18-2.67,8.25-6.57,15.79-10.1,23.64-3.12,6.94-3.87,14.92-2.09,22.32.91-4.56,3.26-8.83,6.63-12.04-1.53,4.33-1.06,9.17.48,13.5s4.08,8.21,6.71,11.98c-.64-7.97,1.09-19.11,1.09-19.11,0,25.77,20.84,41.91,35.82,41.91,6.74,0,16.8-4.89,24.92-13.41-.21.62-.81,5.07-.26,6.96,1.06,3.65,2.59,6.82,6.1,8.26,16.27,6.23,28.12,24.71,19.63,41.42,8.2-7.45,13.52-17.98,14.65-29,.31-3.02.26-6.27-1.42-8.8-1.58-2.37-4.34-3.68-6.3-5.76-5.13-5.44-3.49-13.57-3.8-20.33,6.4,6.17,14.3,9.92,19.99,9.67,12.49-.55,18.58-7.48,20.29-5.86,2.85,2.69,4.61,4.19,6.44,4.43,5.76.75,12.65,2.99,17.7,5.87-2.77-7.12.25-15.11,3.83-21.87,3.57-6.75,7.87-13.65,7.72-21.29-.25-13.27-13.52-22.82-16.44-35.76-.72-3.2-.8-6.59-2.19-9.56-2.45-5.24-8.55-7.97-14.33-8.09-5.78-.12-11.37,1.9-16.8,3.88,0,0-21.71-11.09-33.4-.17-3.26,3.04-5.13,8.92-6.31,13.19"/>
  </g>
</svg>