<?xml version="1.0" encoding="UTF-8"?>
<svg id="Layer_1" data-name="Layer 1" xmlns="http://www.w3.org/2000/svg" viewBox="0 0 67.49 68.02">
  <defs>
    <style>
      .cls-1 {
        fill: #f7f;
      }

      .cls-2 {
        fill: #fff6a9;
      }
    </style>
  </defs>
  <path class="cls-1" d="M67.32,30.48c0,9.61-1.37,21.67-11.11,28.7-9.75,7.03-17.03,8.53-25.7,8.53C12.23,67.71.21,50.3.21,32.02.21,21.83,5.76,14.41,12.98,8.7,18.72,4.15,25.16.2,33.25.2c18.28,0,34.06,11.99,34.06,30.27Z"/>
  <g>
    <path class="cls-2" d="M10.89,59.53c4.07,3.72,8.13,6.28,14.51,7.65,3.51.76,7.59.13,11.31.04-1.12-.82-2.25-.84-3.12-1.92-.69-.85-1.19-1.83-1.69-2.8-1.06-2.06-2.12-4.11-3.18-6.17-.38-.73-.75-1.62-.33-2.32.24-.41.69-.63,1.04-.95.96-.86,1.1-2.41.55-3.58s-1.66-2-2.85-2.51c-1.23-.53-2.59-.78-3.94-.7-.58.03-1.17.13-1.69.38-2.47,1.2-2.46,5.23-4.97,6.34-.86.38-1.87.32-2.75.68-1.14.47-1.9,1.61-2.2,2.8s-.7,3.06-.7,3.06Z"/>
    <path class="cls-2" d="M10.97,59.64c.06.05.19.1.24.15.06.05.14.07.19.12.05.05.05.15.11.19l.16.15c.06.05.11.09.17.14.06.05.12.09.18.14.06.05.14.05.2.09.06.05.1.09.17.14.05.04.13.09.18.13.06.05.09.13.15.17.06.04.14.05.2.09.06.04.1.11.16.16.06.04.1.12.16.16.06.04.14.06.2.1.06.04.13.06.19.11.06.04.09.13.15.17.04.02.15.09.19.11.06.04.11.1.17.14.06.04.17.02.22.06.05.04.12.1.17.14.06.04.12.08.18.12.06.04.11.08.18.12.05.03.14.08.19.11.06.04.09.14.15.18.06.04.11.09.17.13.06.04.16.03.22.08.06.04.13.06.2.09.06.04.09.14.15.17.06.04.13.05.2.09.06.04.11.1.17.14.06.04.12.08.18.12.05.03.13.09.18.12.06.04.17,0,.24.03.06.04.11.08.18.11.1.05.1.05.2.1.07.03.14.05.21.08.06.03.09.11.16.15.05.04.12.09.18.13.06.04.16.02.23.05.06.03.1.15.17.17.07.02.15-.03.22,0,.07.02.15.05.21.08.06.03.13.07.2.1.05.03.14.08.19.11.06.03.11.1.18.13.07.03.16,0,.23.04.06.03.1.11.17.15.06.03.16,0,.22.03.07.03.11.11.18.14.06.03.16,0,.22.04.06.03.13.06.2.08.07.03.13.07.2.09.07.02.13.08.2.1s.13.03.2.06c.07.03.14.04.21.06.07.02.12.08.19.11.07.02.15,0,.22.02.07.02.15,0,.22.03.07.02.11.13.18.15.07.02.14.02.21.04.06.02.15.04.21.05.07.02.15,0,.22.03l.21.07c.06.02.13.05.21.07.07.03.12.08.19.11.07.02.15.03.22.05.07.02.14.03.21.05.07.02.15-.01.22,0,.07.02.13.1.2.11.07.02.14.07.21.08.06,0,.16.02.21.03.07.01.16-.06.23-.04.07.02.14.07.21.09.07.02.15.02.22.04.07.02.12.08.19.1.07.01.14,0,.22,0,.07,0,.14.07.22.07.07,0,.15-.06.22-.05.07.01.14.05.21.06.05,0,.17,0,.22,0,.07,0,.14.05.21.06.07.01.14.04.21.05.07,0,.15-.04.22-.03l.21.02c.07,0,.12.09.2.1.07.01.16-.01.23,0s.15.03.22.04c.07,0,.15-.02.22-.02.07,0,.14-.04.21-.04.07,0,.15.07.22.07.07,0,.14-.03.22-.03.05,0,.17.02.21.03.07,0,.15.03.22.03s.15-.04.22-.04c.07,0,.15.01.22.02.07,0,.14-.04.22-.04s.13,0,.21,0c.07,0,.16.04.24.03.07-.01.14-.02.21-.02.07,0,.15-.08.22-.08.07,0,.14.03.22.03.08,0,.14,0,.21-.01.06,0,.14,0,.23,0,.07,0,.13.08.2.08.07,0,.15-.07.22-.07s.15.06.22.06c.07,0,.14-.08.21-.08s.15.06.22.06c.07,0,.14-.06.21-.06.07,0,.14-.04.21-.04.06,0,.16-.02.22-.03.07,0,.13,0,.21-.01.07,0,.15-.02.22-.03.07,0,.15,0,.22,0h.22c.07-.02.15-.03.22-.03.07,0,.15.06.22.06.07,0,.15-.09.22-.09.07,0,.14.08.21.08.09,0,.15,0,.22,0,.07,0,.13-.09.2-.1.07,0,.16.03.23.02.07,0,.15,0,.22,0s.14-.07.22-.07c.07,0,.15.08.22.08s.14-.07.22-.08c.07,0,.15.04.22.03h.03s-.11.34-.11.34c-.05-.04-.09-.08-.14-.12-.05-.03-.12-.09-.17-.12-.06-.04-.18,0-.23-.04-.05-.03-.12-.09-.17-.12-.06-.04-.08-.15-.14-.18-.06-.03-.15,0-.22-.03-.07-.03-.14-.03-.21-.06-.07-.03-.13-.08-.19-.11s-.15-.03-.22-.07c-.07-.03-.09-.14-.16-.18-.05-.03-.14-.09-.19-.12-.06-.04-.15-.03-.22-.07-.06-.04-.14-.06-.2-.11-.06-.04-.15-.06-.21-.11-.06-.05-.1-.11-.16-.16-.06-.05-.11-.12-.17-.17-.06-.05-.11-.11-.16-.16-.05-.06-.14-.09-.18-.16-.04-.06,0-.16-.05-.22-.05-.08-.09-.14-.13-.19-.04-.05-.09-.12-.14-.18-.04-.06-.12-.09-.17-.15-.04-.06-.07-.13-.11-.2-.04-.06-.07-.12-.11-.19-.03-.06-.03-.15-.06-.21-.03-.06-.13-.1-.16-.17-.03-.06-.07-.14-.1-.2-.04-.06-.09-.11-.13-.18-.04-.06,0-.17-.03-.23-.03-.06-.09-.12-.13-.18-.02-.06-.06-.14-.09-.2-.03-.05-.09-.14-.12-.19-.03-.06-.04-.15-.08-.21-.04-.06-.11-.1-.15-.16s-.04-.14-.07-.21c-.03-.06-.13-.1-.16-.17-.03-.07,0-.16-.03-.22s-.12-.1-.15-.17c-.03-.06-.04-.14-.07-.21-.03-.06-.03-.15-.06-.21l-.1-.19c-.03-.06-.13-.1-.16-.16-.02-.05-.06-.16-.08-.2-.03-.06-.07-.13-.11-.19-.03-.06,0-.17-.04-.23-.03-.06-.08-.13-.11-.19-.04-.06-.09-.11-.13-.18-.03-.06-.1-.11-.14-.18s-.04-.14-.07-.21c-.03-.07-.08-.12-.12-.19-.03-.06,0-.16-.03-.23-.03-.06-.15-.09-.18-.16l-.1-.19c-.03-.06-.01-.16-.04-.22l-.1-.19c-.03-.06-.13-.1-.16-.16s-.03-.15-.07-.21c-.03-.04-.1-.14-.12-.18-.04-.06-.03-.15-.06-.22-.03-.04-.09-.14-.12-.19-.03-.06-.05-.14-.08-.2-.03-.06-.14-.09-.17-.16-.03-.07,0-.16-.04-.22-.04-.09-.05-.11-.1-.2-.03-.07-.09-.12-.12-.19-.03-.07-.02-.15-.05-.22-.03-.07-.04-.15-.07-.21l-.08-.21c-.03-.07-.08-.14-.1-.21-.02-.07-.02-.16-.03-.23-.02-.07-.06-.14-.07-.22,0-.08-.05-.16-.04-.25,0-.08.03-.16.04-.24.02-.08.09-.15.12-.22.03-.08,0-.17.04-.25.03-.08.11-.14.15-.21.05-.07.06-.16.12-.22.06-.06.17-.04.23-.08.06-.04.11-.12.17-.16.06-.04.13-.08.18-.12.06-.04.1-.1.15-.14.05-.05.12-.07.17-.12.04-.05.08-.11.12-.16.04-.05.1-.09.13-.15.04-.06.1-.09.14-.15.03-.06-.02-.17,0-.22.03-.06.11-.09.15-.15.03-.06.08-.11.11-.17.03-.06.02-.15.04-.21.02-.07-.04-.14-.03-.2,0-.07.02-.14.02-.2,0-.06,0-.17,0-.21,0-.07.03-.14.02-.2,0-.07-.02-.14-.03-.2,0-.07,0-.13-.01-.2-.01-.07,0-.14,0-.21-.02-.07-.06-.12-.08-.19s-.04-.14-.06-.2c-.02-.05-.04-.13-.06-.2-.02-.06-.01-.14-.04-.2-.03-.06-.08-.12-.11-.18-.04-.06-.1-.1-.15-.15-.04-.05-.04-.15-.09-.2-.05-.05-.11-.08-.16-.13-.05-.05-.07-.12-.11-.17-.03-.04-.08-.14-.11-.18-.04-.06-.14-.08-.19-.12-.05-.05-.1-.08-.16-.12-.06-.04-.11-.09-.17-.13-.06-.04-.15-.04-.2-.09-.05-.04-.11-.09-.17-.13-.05-.04-.12-.09-.17-.13-.06-.04-.07-.14-.14-.17-.06-.03-.17-.01-.23-.05-.06-.04-.1-.09-.16-.13-.06-.04-.12-.06-.18-.09-.06-.02-.13-.05-.19-.08-.06-.03-.12-.09-.18-.12-.07-.03-.15,0-.22-.02-.07-.03-.12-.09-.19-.11s-.14,0-.21-.03c-.06-.01-.16-.04-.21-.05-.05-.02-.15-.06-.2-.08-.07-.02-.12-.1-.19-.12-.07-.02-.14-.02-.21-.04-.07-.02-.14,0-.21-.03s-.15,0-.22,0c-.07-.02-.13-.05-.2-.06-.07,0-.15-.09-.22-.08-.06,0-.16,0-.21.01-.07,0-.13,0-.2,0-.07,0-.14,0-.21,0-.05,0-.16-.03-.21-.04-.07,0-.15,0-.22,0-.07,0-.14.06-.21.07-.08,0-.13.01-.21.02-.07,0-.14.04-.21.04-.06,0-.13,0-.21,0-.06.01-.13.02-.2.04l-.2.04s-.14.02-.2.03c-.06.01-.14.03-.2.04-.06.02-.12.06-.18.09-.06.03-.13.05-.19.08-.04.02-.14.06-.18.08-.05.03-.13.07-.18.09-.06.03-.08.1-.13.15-.05.05-.13.07-.18.12-.05.05-.05.13-.1.19-.04.05-.12.07-.17.12-.05.05-.08.11-.12.16-.04.05-.13.07-.17.13-.04.06-.04.14-.09.19-.05.05-.11.08-.15.14-.04.06-.11.1-.15.16-.04.06-.06.13-.09.19l-.1.18-.1.19c-.03.06-.03.14-.06.21-.02.07-.1.12-.12.19s.03.16,0,.23c-.03.06-.11.1-.14.17-.03.06-.03.15-.07.21-.04.07-.07.13-.1.19-.03.06-.12.1-.15.17-.03.06-.06.14-.09.2-.03.06-.09.12-.12.18-.03.06-.06.14-.09.2-.03.06-.03.15-.06.21-.03.06-.05.14-.08.21-.04.06-.13.09-.17.15-.04.06-.08.13-.11.19-.04.06-.11.1-.15.16-.04.06-.06.13-.11.19-.05.06-.12.09-.16.15-.04.06-.08.14-.13.19-.05.05-.11.1-.16.16-.05.06-.04.15-.1.2-.06.05-.12.12-.18.16-.06.05-.17.01-.23.05-.07.03-.1.15-.17.19-.07.03-.16.01-.22.05-.06.04-.11.11-.18.15-.07.03-.17,0-.24.03-.07.02-.13.08-.2.09-.07.02-.14.06-.21.07-.07.02-.15.03-.21.05-.07.02-.15,0-.22,0l-.21.04c-.07,0-.14.02-.21.03-.07.01-.13.06-.2.08-.07.01-.15,0-.22,0-.07,0-.14-.02-.21-.01-.07.01-.12.09-.19.11-.06.02-.14.02-.2.04-.06.02-.15,0-.21.02-.06.03-.12.07-.18.1-.06.03-.14.04-.2.09-.06.04-.08.12-.13.16-.04.04-.12.12-.15.14-.05.04-.13.05-.19.09-.06.05-.1.08-.16.13-.05.05-.07.13-.12.18-.05.05-.07.12-.11.17-.04.06-.12.09-.16.15-.04.06-.02.16-.05.21-.04.06-.12.09-.15.15-.04.06-.03.15-.07.2-.04.06-.11.1-.13.16-.03.07-.06.13-.08.19-.02.06-.04.14-.06.2-.02.07,0,.15-.01.22-.02.07-.11.1-.14.17-.03.1-.03.11-.06.2-.02.07-.02.14-.04.21-.02.07-.08.13-.1.2-.01.07,0,.14-.02.21-.01.07.02.14,0,.21-.02.04-.05.15-.07.2-.02.07-.06.13-.08.2-.02.07-.01.14-.03.21-.02.07-.03.12-.05.21-.02.05-.05.15-.07.21-.02.06-.04.15-.06.21-.02.07-.09.14-.11.21-.02.07.02.13,0,.21-.02.07-.11.15-.12.22-.01.05.02.13,0,.13,0,0,0-.09.01-.13.01-.07.02-.13.04-.2.01-.07.09-.16.1-.23.01-.07-.05-.12-.04-.18.01-.07.12-.16.14-.23.02-.07-.06-.13-.05-.19.02-.07.1-.15.11-.22.01-.07,0-.14,0-.2.02-.09.02-.13.04-.21.01-.07.03-.14.05-.21.01-.07.04-.15.05-.22,0-.07-.02-.14-.01-.21,0-.07.05-.14.06-.21.01-.07,0-.15.02-.22s.08-.12.1-.19c.02-.07,0-.15.03-.22.02-.07.01-.14.03-.21.02-.07.07-.13.09-.2.02-.07.03-.14.06-.21.03-.07.1-.12.13-.18.03-.06.01-.15.05-.22.03-.06.06-.13.1-.2.04-.06.12-.1.16-.16.04-.06.05-.14.1-.2l.14-.17c.05-.05.14-.07.19-.12.05-.05.09-.12.14-.18.05-.04.13-.1.18-.14.06-.05.12-.08.18-.12.06-.04.1-.14.16-.18.06-.04.17-.01.23-.05.06-.04.09-.15.16-.18.07-.03.17,0,.24-.02.07-.03.14-.04.22-.06.07-.02.12-.11.2-.12.07-.02.15-.03.22-.05.07-.02.15,0,.22,0,.07-.01.13-.06.2-.09.07-.02.15-.01.22-.03.07-.02.14-.03.21-.04.07-.01.14-.02.21-.03.07,0,.14-.01.21-.02.07,0,.15.03.22,0,.07-.02.15-.04.21-.08.06-.03.1-.09.16-.13.06-.03.13-.04.19-.07.06-.03.1-.1.16-.13.06-.03.12-.07.17-.12.06-.04.13-.05.19-.09s.1-.1.16-.14c.05-.05.12-.07.17-.11.05-.05.08-.12.13-.17.05-.05.05-.13.09-.19.04-.06.12-.09.16-.15.04-.06.1-.1.14-.16l.12-.18s.1-.13.13-.17c.04-.06,0-.17.03-.23.03-.06.1-.1.13-.17l.09-.2c.03-.07.09-.12.12-.18.03-.06.01-.15.04-.22.03-.04.09-.14.11-.19.03-.04.09-.14.11-.19.03-.06.03-.15.06-.21.03-.07.13-.1.16-.16.03-.06-.01-.17.02-.23.02-.05.06-.14.08-.2.03-.07.11-.11.15-.18.03-.07.08-.12.12-.19.04-.06.05-.15.09-.21.04-.06.07-.13.12-.19.05-.06.14-.07.18-.14.04-.06.08-.12.12-.19.04-.06.02-.16.07-.22.04-.06.15-.08.19-.14.04-.06.09-.12.14-.17.04-.04.12-.11.16-.15.05-.05.08-.14.14-.18.06-.05.09-.14.15-.18.06-.05.14-.07.2-.11.07-.04.12-.09.19-.13.07-.04.16-.03.22-.07.06-.04.12-.1.19-.14.07-.03.15-.05.22-.08.07-.03.13-.06.2-.09.07-.03.16-.03.23-.05.07-.02.14-.1.21-.11.08-.01.16.06.23.06.07,0,.15-.02.22-.03.08,0,.16,0,.23,0,.07,0,.15-.06.22-.06h.22c.07,0,.15.08.22.08.07,0,.14.01.22.02.07,0,.15-.03.23-.02.07,0,.15-.02.22-.02.07,0,.15.03.22.04.07,0,.15.04.22.04.07,0,.15,0,.22,0,.07.01.15.03.22.04.07.01.14.05.21.07.07.02.16-.04.23-.03.07.02.15.03.22.05.07.02.13.09.2.11.05.01.17.04.22.05.07.02.13.07.2.09.06.02.16.05.21.06.07.03.13.09.19.11.07.03.13.07.19.1.07.03.18-.02.25.01.07.04.1.13.16.16.05.02.15.06.21.09.07.03.15.03.22.06.07.03.11.11.18.15.06.04.14.06.2.1.06.04.13.07.19.12.06.04.08.15.14.2.06.05.17.02.23.07.06.05.07.16.12.21.05.05.13.08.19.13.03.04.11.14.14.18.04.04.12.12.16.16.05.06.07.14.12.2.05.06.12.1.16.17.04.06.04.15.07.22.04.07.09.13.12.2.03.07.09.12.12.19.03.07.02.16.04.23.02.07.06.14.08.21.02.07.11.12.13.19.02.08-.04.19-.02.26.02.07.03.14.04.22,0,.08.02.15.02.22,0,.08.03.17.02.24,0,.08-.07.14-.08.22,0,.07-.02.13-.03.24,0,.08.03.15.02.23-.01.08-.06.14-.09.22-.03.07-.05.14-.08.21-.04.07-.05.15-.08.22-.04.07-.07.14-.11.21-.04.06-.08.12-.13.2-.04.07-.1.12-.15.18-.04.06-.1.11-.16.17-.05.06-.09.14-.15.19-.06.05-.15.06-.21.1-.04.03-.13.12-.16.15-.06.04-.13.05-.19.09-.06.05-.1.08-.16.13-.05.04-.09.11-.14.16-.04.05-.02.13-.05.19-.02.06-.02.12-.03.17-.02.05-.08.11-.1.17-.01.06,0,.13,0,.19,0,.06-.03.13-.02.19,0,.06-.02.14,0,.2.01.07.03.14.05.2.02.07.1.11.13.17.03.07.05.13.07.19.03.06,0,.14.02.21.02.07.11.13.13.19.02.07-.02.16.01.22.03.06.13.09.17.16l.1.19c.04.06,0,.16.04.23s.12.1.16.16c.04.06.1.1.14.17.04.06.07.14.1.2.03.06.06.14.09.21.03.07-.01.15.02.22.03.07.11.12.14.19.03.06.03.15.06.21.03.06.09.12.12.18s.1.11.14.17-.01.17.02.24.11.1.15.17.02.15.06.22c.03.06.08.13.12.19.04.06.13.08.17.14.04.06.03.16.06.22.03.06.11.11.14.17.03.06.04.14.07.21.03.07.13.1.16.16.03.06.06.13.1.2.03.07-.01.16.02.22s.1.11.14.18c.03.06.01.16.04.22.03.06.09.12.12.18l.1.19c.03.06.03.15.07.22.03.06.07.13.11.19.04.06.12.1.15.16.03.06.04.15.07.21.03.06.12.1.15.16.03.06.04.15.07.21.03.06.1.11.14.17.03.06.06.13.09.2.03.06.02.15.06.21l.1.19c.03.06.1.11.14.17.03.06.09.11.12.18.02.04.07.15.09.2l.11.18c.04.06.04.14.08.2.04.06.05.14.09.2l.12.18.13.17c.04.06.13.08.17.14l.14.16c.04.05.04.14.09.19.05.05.13.06.18.11.05.05.09.11.14.15.05.04.13.05.19.09.05.04.13.05.18.09.06.04.1.1.17.13.06.03.1.12.16.15.06.03.16,0,.22.02.06.03.13.08.19.1.07.03.12.09.19.12.07.03.17,0,.24.03.06.03.14.08.19.11.07.03.11.09.18.13.07.03.12.1.18.14.07.04.13.08.19.12.06.04.16.04.22.08.05.03.1.08.15.11l.48.36-.6.04s-.02,0-.04,0c-.07,0-.15-.04-.23-.04s-.14.04-.21.04c-.07,0-.14,0-.22,0-.08,0-.14,0-.22.01-.07,0-.14.03-.22.03-.05,0-.17,0-.22,0-.07,0-.14.04-.22.04-.05,0-.16,0-.22,0-.06,0-.16,0-.22,0-.07,0-.15-.04-.22-.03s-.15-.02-.22-.01c-.07,0-.14.07-.21.07-.07,0-.14.03-.22.04-.07,0-.15-.06-.22-.06s-.14.02-.22.03c-.08,0-.14.01-.22.02-.07,0-.15-.02-.22-.02s-.14.04-.22.05c-.07.01-.16-.02-.23-.01-.07.01-.13.09-.2.1-.07,0-.14-.04-.22-.05-.07,0-.15.02-.23.02-.07,0-.14-.03-.22-.02-.07,0-.14.04-.22.04-.07,0-.15.01-.22.02-.05,0-.17.02-.22.03-.07,0-.15-.09-.22-.09-.07,0-.15.02-.22.03-.07,0-.16.01-.22.02-.07,0-.15-.03-.22-.02-.05,0-.17.02-.22.03-.08,0-.15,0-.22.01-.07,0-.14.06-.21.06-.08,0-.14,0-.22,0-.07,0-.15-.08-.22-.08-.07,0-.15.06-.22.06-.07,0-.14.04-.22.04-.07,0-.15-.02-.22-.02-.07,0-.13-.08-.21-.09-.07-.01-.17.05-.25.04-.07-.01-.12-.12-.2-.12-.07,0-.15.02-.22.02-.07,0-.15.04-.22.04-.07,0-.14-.08-.21-.09-.07,0-.15.04-.22.04-.07,0-.14.03-.22.03-.07,0-.16-.02-.23-.03-.07-.01-.13-.1-.21-.11-.07-.01-.15.02-.23,0-.06,0-.15-.02-.22-.03-.07-.01-.13-.08-.2-.09-.07-.02-.16,0-.23-.02-.07-.02-.14-.03-.21-.05-.05,0-.16-.02-.22-.03-.07-.02-.13-.08-.2-.1-.07-.02-.13-.07-.2-.09-.07-.02-.15,0-.23-.01-.08-.01-.14-.03-.22-.04-.07-.01-.16.03-.23,0-.07-.02-.12-.09-.19-.12-.07-.03-.16-.02-.23-.04-.07-.03-.12-.06-.19-.08-.07-.02-.14-.07-.21-.09-.05,0-.16-.03-.21-.03-.07-.02-.15-.01-.22-.03s-.15-.02-.22-.04l-.21-.07c-.07-.02-.11-.11-.18-.13-.05-.02-.16-.07-.2-.09-.07-.02-.15,0-.22-.03-.07-.02-.15-.03-.21-.05-.07-.02-.13-.1-.2-.12-.07-.02-.15.04-.22.02-.07-.02-.14-.06-.21-.09-.07-.03-.15-.05-.21-.08l-.2-.09c-.07-.03-.13-.05-.2-.08-.07-.03-.11-.12-.18-.15-.06-.02-.15-.05-.21-.07-.08-.03-.13-.06-.2-.08-.07-.03-.14-.05-.21-.08-.07-.03-.11-.09-.18-.13-.08-.04-.14-.07-.2-.1-.07-.03-.16-.04-.23-.07-.05-.02-.16-.06-.22-.08-.07-.03-.13-.09-.2-.13-.07-.04-.17,0-.24-.04-.07-.04-.12-.11-.19-.15-.07-.04-.13-.09-.2-.13-.07-.04-.13-.09-.19-.12-.07-.04-.15-.06-.21-.1-.07-.04-.15-.05-.22-.09-.07-.04-.12-.12-.18-.15-.06-.03-.15-.07-.21-.1-.07-.04-.12-.09-.19-.13-.07-.04-.18-.04-.24-.08-.06-.05-.09-.12-.15-.17-.06-.05-.14-.06-.21-.11-.06-.04-.12-.08-.19-.12-.07-.04-.11-.12-.18-.16-.06-.04-.16-.03-.23-.08-.06-.04-.12-.08-.2-.13-.06-.04-.1-.11-.17-.16-.04-.03-.14-.12-.18-.15-.06-.04-.09-.12-.15-.17-.06-.05-.17-.05-.23-.1-.06-.05-.07-.14-.14-.19-.06-.04-.16-.04-.23-.08-.06-.04-.1-.12-.17-.17-.06-.04-.1-.12-.16-.17s-.16-.05-.21-.1c-.06-.04-.14-.09-.19-.13-.06-.05-.1-.13-.15-.17-.04-.04-.13-.12-.17-.16-.06-.05-.14-.08-.19-.12-.06-.05-.14-.07-.2-.12-.06-.05-.13-.09-.18-.14-.04-.04-.12-.12-.16-.16-.06-.05-.12-.09-.18-.14-.05-.05-.07-.13-.13-.19-.04-.04-.12-.12-.15-.16-.06-.06-.11-.1-.17-.15-.06-.05-.1-.09-.17-.16-.06-.06-.1-.1-.16-.16-.05-.05-.13-.09-.19-.15-.03-.03-.12-.14-.1-.14.01,0,.11.11.14.13,0,0-.07-.03-.06-.02Z"/>
  </g>
  <g>
    <path class="cls-2" d="M51.94,4.65c1.48.8,5.09,3.53,7.32,5.61,1.93,1.8.6,4.01,0,6.3-.47,1.78-.39,3.7.23,5.43.86,2.4,2.72,4.47,2.97,7.01.13,1.31-.2,2.66.04,3.96.11.57.5,1.11.56,1.66.07.65-.31,1.52-.45,2.15-.47,2.03-.62,4.14-.46,6.21.12,1.46.66,3.2,2.09,3.51.24.05.67-.05.71.2s-.34,1.09-.63,1.66c-.77,1.54-1.37,2.97-2.14,4.51-.02-.86.42-1.55.1-2.35s-1.01-1.5-1.86-1.59c-.86-.09-1.65.43-2.35.94-.53.39-1.06.8-1.42,1.34-.38.58-.54,1.28-.9,1.87-3.04,5.08-5.93-2.34-7.28-4.18-.96-1.31-2.28-2.3-3.58-3.26-1.14-.85-2.33-1.72-3.73-1.98-.79-.15-1.6-.09-2.39-.24-1.26-.23-1.39-1.1-2.35-1.64-.37-.21-.8-.37-1.06-.72-.12-.17-.2-.36-.27-.56-1.03-2.72-1.22-8.29,3.1-8.29.73-.11,1.48-.08,2.2-.23s1.46-.56,1.73-1.24c.14-.35.15-.74.1-1.11-.34-2.83-2.51-3.37-4.97-3.57-1.37-.11-2.59-.18-3.85-.77-1.74-.82-3.3-1.96-4.85-3.08-.9-.65-1.88-1.43-2-2.54-.12-1.05.58-2,1.04-2.96,1.41-2.93.8-6.39,1.81-9.45.31-.94.43-2.13,1.14-2.85,1.09-1.09,3.02-1.25,4.46-1.27,2.15-.02,4.3.22,6.4.72,1.66.39,4.71,1.27,5.02.73s-2.34-1.86-4.07-2.15c-.56-.09-1.35-.3-1.88-.5s-.83-.67-.86-1.23c0,0,6.92,1.05,12.3,3.95Z"/>
    <path class="cls-2" d="M52.23,4.85c.15.09.41.19.55.28.15.09.31.16.45.25.15.1.26.27.4.36.14.1.27.2.41.3.14.1.28.21.42.31.14.1.3.21.43.31.14.11.3.16.44.26.14.11.28.21.42.32.14.1.29.21.42.31.14.11.26.25.4.36.14.11.29.17.43.28.14.11.26.25.4.35.12.11.28.25.4.36.14.11.28.19.42.3.14.11.28.2.41.31.13.12.24.28.36.39.13.12.27.21.4.34.12.13.25.26.35.41.11.14.28.24.36.41.09.16.14.34.2.51.05.18.09.35.12.53.02.18.03.36.02.54,0,.18-.01.36-.03.54-.02.18-.13.35-.17.53-.04.17-.09.33-.14.5-.05.17-.04.36-.1.53-.04.14-.09.36-.13.5-.05.16-.17.31-.23.48-.03.14-.09.36-.12.5-.04.16-.12.32-.16.49-.04.16-.08.33-.11.49-.03.17-.07.33-.1.51-.03.17.05.35.04.53,0,.17-.03.32-.02.5,0,.17,0,.35.01.52.02.16.05.37.06.51.01.17-.02.32,0,.5.02.17.03.34.06.51.02.17.14.34.18.51.05.16.03.38.09.54.06.16.19.24.25.4.07.16.16.34.22.48.07.15.14.32.21.48.07.14.15.32.21.47.08.15.12.32.2.48.08.15.22.28.3.44.08.15.1.32.18.48.08.15.22.28.3.44.08.15.11.33.18.5.08.16.2.3.27.46.07.16.14.32.2.49.07.16.1.33.17.5.07.16.09.37.14.53.05.17.09.32.13.5.03.17.06.36.09.52.02.18-.01.35,0,.53,0,.18.05.35.05.53,0,.17.03.35.02.52,0,.17-.11.34-.11.52,0,.17,0,.34,0,.52,0,.17,0,.34.01.51,0,.17.05.33.07.5s.04.33.08.48c.04.15.1.31.17.47.06.16.09.32.15.49.06.17.13.35.15.54.02.19.01.38-.01.56-.03.18-.02.36-.06.53-.04.17-.15.33-.2.49-.05.17-.13.33-.17.5-.04.16-.06.33-.1.5-.03.17.02.34,0,.51-.03.17-.1.34-.13.51-.03.17-.04.35-.07.52-.03.17-.09.32-.11.49-.02.17,0,.34-.01.51,0,.17-.06.36-.07.53,0,.17.07.33.07.5,0,.17-.04.34-.04.51,0,.17.02.34.03.51,0,.17-.02.35-.02.52,0,.17-.01.34,0,.51.01.17.08.33.1.5.02.17.05.33.08.5.03.16,0,.31.03.48.04.16.12.34.18.49.05.16.11.32.19.47.08.15.19.27.3.39.1.12.23.2.35.29.12.09.23.25.38.31.14.07.32.08.44.09.16.02.32,0,.58.1.16.07.21.32.17.4-.02.11-.05.19-.08.28-.05.17-.08.35-.15.51-.08.15-.16.32-.23.47-.08.16-.12.33-.19.49-.07.16-.14.29-.21.45-.07.16-.21.33-.28.49-.07.17-.14.31-.2.46-.07.16-.09.36-.17.51-.07.12-.18.33-.25.45-.07.16-.14.31-.22.47-.08.15-.16.32-.24.48-.08.15-.21.24-.29.39-.08.15-.1.36-.18.51-.03.06-.06.11-.1.16l-.43.59.11-.67c.02-.12.05-.23.06-.35.02-.18-.02-.36.01-.54.03-.17.14-.32.17-.49.03-.17-.01-.33-.03-.49-.02-.16-.08-.29-.14-.43-.06-.15-.15-.29-.24-.42-.09-.14-.18-.26-.29-.38-.11-.11-.23-.22-.36-.3-.13-.09-.26-.18-.41-.24-.14-.06-.3-.09-.45-.1-.15-.02-.31,0-.46.03-.15.03-.33,0-.48.07-.15.06-.28.22-.42.3s-.3.09-.45.18c-.14.09-.29.2-.43.3-.14.1-.21.26-.33.37-.13.11-.3.2-.42.32-.12.12-.24.23-.34.36-.11.13-.15.29-.23.43s-.23.25-.3.4c-.07.15-.07.34-.14.5s-.18.31-.25.47c-.08.16-.19.32-.28.46-.1.15-.19.29-.31.43-.1.14-.17.36-.3.49-.12.13-.28.23-.42.35-.16.1-.33.13-.5.19-.16.08-.33.19-.52.21-.19.03-.38.04-.57,0-.19-.04-.37-.13-.54-.21-.16-.09-.34-.16-.49-.27-.15-.11-.22-.29-.34-.41-.13-.12-.24-.26-.36-.39-.12-.13-.27-.24-.38-.37-.11-.14-.23-.26-.33-.41-.1-.14-.23-.27-.33-.41-.1-.15-.16-.3-.26-.44-.1-.14-.18-.32-.28-.46-.1-.15-.18-.29-.27-.44-.09-.15-.23-.29-.31-.45-.08-.15-.08-.31-.16-.46-.09-.16-.18-.32-.26-.47-.09-.15-.19-.3-.28-.44-.1-.14-.22-.24-.32-.37-.11-.14-.21-.28-.31-.41l-.33-.38c-.11-.13-.19-.27-.31-.4-.12-.12-.3-.2-.42-.31-.12-.11-.26-.23-.38-.34-.13-.11-.28-.2-.41-.3-.13-.11-.22-.28-.36-.38-.12-.08-.31-.21-.43-.29-.13-.1-.28-.22-.41-.32-.13-.09-.3-.2-.43-.3-.14-.1-.27-.24-.41-.33-.14-.1-.3-.15-.44-.24-.14-.09-.27-.21-.41-.3-.15-.09-.33-.12-.48-.2-.15-.08-.25-.21-.4-.28-.15-.07-.34-.08-.5-.13-.16-.05-.31-.13-.47-.17-.16-.04-.32-.11-.49-.13-.17-.02-.34-.03-.51-.05-.17-.01-.35.05-.53.04-.16-.02-.36-.04-.52-.06-.18-.02-.35-.03-.53-.06-.18-.03-.36-.15-.53-.22-.17-.06-.34-.15-.49-.26-.15-.11-.3-.2-.42-.33-.13-.13-.27-.23-.39-.35-.11-.12-.21-.25-.34-.35-.13-.1-.27-.17-.42-.24-.15-.08-.27-.22-.43-.31-.15-.09-.37-.13-.51-.29-.14-.16-.23-.34-.3-.51-.07-.17-.06-.36-.12-.52-.06-.17-.11-.34-.15-.51-.04-.17-.16-.32-.19-.5-.03-.17-.03-.35-.06-.53-.03-.15-.07-.36-.1-.51-.03-.17.01-.36,0-.54-.02-.18-.04-.35-.04-.53,0-.18.01-.35.02-.53.01-.18-.05-.36-.04-.53.01-.18.11-.34.14-.51.03-.17.06-.36.12-.53.06-.17.06-.36.14-.52.07-.17.17-.32.25-.48.09-.14.2-.32.29-.46.1-.15.23-.28.34-.42.1-.15.25-.27.38-.39.13-.13.31-.2.48-.28.16-.08.29-.21.47-.25.18-.05.35-.15.53-.18.17,0,.37-.02.54-.03.08,0,.16,0,.23,0h-.03c.1,0,.2,0,.3,0,.18-.02.33-.09.5-.11.17-.02.37,0,.54-.03.17-.02.33-.09.49-.11.16-.02.32.04.49,0,.16-.04.32-.13.47-.19.15-.06.3-.13.43-.22.13-.09.24-.21.34-.33.1-.12.2-.25.25-.39.05-.15.06-.3.07-.45.01-.16.02-.32,0-.48-.02-.16-.02-.34-.05-.5-.03-.17-.18-.29-.22-.45-.06-.15-.05-.32-.12-.47-.08-.14-.1-.3-.2-.43-.09-.14-.23-.26-.35-.38-.11-.12-.27-.15-.4-.25-.14-.08-.27-.19-.42-.25-.15-.07-.32-.13-.47-.19-.15-.06-.31-.13-.47-.18-.16-.04-.33-.07-.5-.1-.16-.03-.32-.08-.49-.1-.17-.03-.33-.08-.5-.1-.17-.02-.34,0-.51-.02-.17-.02-.35-.03-.52-.05-.16-.02-.35-.04-.52-.06-.17-.02-.33-.08-.5-.11-.17-.02-.37-.04-.54-.06-.17-.03-.34-.02-.52-.05-.17-.03-.36-.14-.53-.19-.17-.05-.34-.07-.5-.13-.17-.06-.32-.15-.47-.23-.13-.08-.31-.19-.44-.26-.15-.09-.35-.14-.5-.22-.14-.08-.28-.15-.45-.24-.15-.08-.31-.19-.46-.27-.15-.09-.33-.14-.48-.24-.14-.1-.3-.2-.44-.3-.14-.1-.28-.21-.42-.3-.14-.1-.23-.26-.37-.36-.14-.1-.35-.16-.49-.26-.11-.09-.28-.24-.39-.33-.15-.11-.27-.2-.41-.3l-.42-.3c-.14-.11-.25-.26-.39-.37-.13-.12-.3-.2-.43-.33-.13-.13-.21-.3-.32-.44-.1-.15-.23-.28-.31-.45-.08-.17-.16-.36-.2-.55-.04-.19-.04-.39-.02-.58.01-.19.1-.35.15-.53.04-.18.1-.35.16-.52.07-.16.13-.34.21-.49.08-.16.14-.34.22-.49.08-.15.18-.28.26-.43.08-.15.22-.31.28-.47.06-.16.11-.32.16-.48.05-.17.09-.31.14-.46.04-.16.08-.31.13-.48.04-.14.1-.34.14-.48.04-.17.07-.35.1-.52.03-.17,0-.34.01-.51.02-.17.04-.34.06-.51,0-.15.02-.37.03-.52.02-.16.05-.32.07-.5.01-.16.03-.33.04-.51.02-.16.03-.34.05-.51.02-.15.05-.34.07-.51.02-.16.05-.34.07-.51.02-.17.02-.34.05-.51.03-.17.05-.34.09-.52.04-.15.08-.34.12-.5.04-.16.09-.34.13-.49.02-.12.07-.35.1-.49.04-.17.14-.34.17-.51.04-.16.02-.33.06-.5.04-.16.12-.32.17-.48.05-.17.08-.34.15-.51.06-.17.19-.31.27-.46.08-.16.15-.34.27-.49.12-.14.27-.22.41-.33.14-.1.32-.18.47-.27.15-.09.29-.18.46-.25.16-.07.32-.13.49-.18.17-.05.33-.1.5-.14.17-.04.33-.11.5-.14.17-.04.37-.02.54-.05.17-.03.31-.13.48-.14.17-.01.35.03.52.03.17,0,.36-.04.53-.04.17,0,.33,0,.5,0,.17,0,.34.07.51.07.17,0,.34,0,.51.01.15.02.36.04.51.06.17.01.35.02.52.03.17.01.33-.01.51,0,.17.02.35.01.52.03.17.02.32.11.49.14.17.02.34.05.51.07.17.03.33.1.5.13.17.03.34.03.51.07.17.04.32.1.48.15.17.04.35.05.52.09.17.04.34.09.5.13.17.03.31,0,.47.04.17.04.37.08.53.11.17.04.29.17.46.21.16.04.38,0,.54.03.16.04.3.13.46.16.17.03.33,0,.49.02.16.02.34.1.5.1.16,0,.32-.03.45-.05.05-.01.12-.05.1-.05.06.02-.03.02-.02,0-.03-.07-.14-.19-.26-.28-.12-.1-.24-.22-.38-.31-.14-.09-.29-.17-.43-.24-.15-.08-.3-.15-.44-.23-.15-.07-.32-.1-.47-.16-.16-.07-.31-.16-.46-.22-.16-.06-.28-.15-.43-.21-.16-.05-.35-.05-.51-.08-.16-.04-.32-.1-.48-.13-.17-.03-.32-.12-.48-.16-.17-.04-.35-.08-.51-.11-.17-.05-.34-.13-.51-.17-.17-.05-.33-.05-.49-.11-.18-.07-.35-.17-.49-.3-.14-.15-.19-.32-.25-.49-.07-.18-.1-.36-.1-.53v-.03s0-.14,0-.14l.13.02c.17.03.34.02.5.05.15.02.34.05.49.07.17.03.35.11.51.14.17.03.35,0,.51.03.17.04.32.13.48.16.17.04.36.04.51.08.17.04.31.13.47.17.17.04.34.09.5.13.16.04.34.08.49.12.17.04.35.04.51.08.17.05.29.16.45.22.18.06.31.1.49.15.17.05.33.1.49.14.16.05.3.15.47.2.16.05.32.08.49.13.16.05.34.07.5.12.13.06.32.13.46.19.12.05.33.15.46.21.15.06.32.1.48.17.15.06.31.13.47.2.14.06.31.15.45.21.14.07.3.15.45.22.15.07.26.19.41.26.15.07.35.1.5.19.15.08.24.21.4.29.1.05.34.11.32.12-.01,0-.22-.09-.3-.13-.15-.08-.3-.15-.45-.22-.16-.07-.3-.22-.45-.28-.16-.07-.33-.06-.47-.12-.16-.07-.29-.23-.44-.3-.16-.07-.35-.04-.5-.1-.16-.07-.3-.19-.45-.25-.16-.06-.33-.08-.48-.14-.17-.06-.32-.11-.48-.17-.18-.06-.32-.12-.48-.17-.17-.06-.32-.11-.5-.17-.17-.05-.31-.06-.47-.1-.17-.04-.32-.12-.48-.17-.14-.03-.35-.09-.49-.12-.16-.05-.29-.14-.46-.19-.16-.05-.34-.07-.51-.11-.12-.02-.35-.07-.49-.1-.16-.04-.32-.11-.49-.14-.14-.03-.35-.07-.5-.1-.16-.04-.32-.12-.49-.16-.16-.03-.32-.02-.49-.06-.16-.03-.33-.07-.5-.1-.16-.03-.32-.12-.49-.15-.16-.03-.33-.03-.5-.06-.16-.03-.33-.06-.5-.09-.16-.03-.31-.11-.48-.14h0s.14-.13.14-.13c0,.15.07.31.12.45.05.14.12.28.24.39.11.11.22.2.37.27.15.06.35.07.51.12.16.05.3.16.47.21.16.04.35,0,.51.03.16.04.32.14.49.17.17.03.34.08.51.12.17.04.35.03.52.08.16.06.33.12.5.18.16.06.31.16.48.22.16.07.32.09.48.16.16.07.33.17.48.25.16.07.31.17.46.26.15.1.29.2.43.34.12.14.29.27.3.57-.01.16-.16.26-.26.28-.11.03-.2.03-.29.04-.18.02-.4,0-.57,0-.17-.01-.32.02-.5,0-.17-.02-.33-.08-.51-.11-.17-.03-.35-.03-.52-.07-.17-.04-.35-.06-.52-.1-.17-.04-.32-.12-.49-.16-.16-.04-.34-.08-.51-.11-.17-.05-.31-.12-.48-.17s-.35-.06-.52-.1c-.17-.04-.32-.03-.49-.06-.17-.03-.35-.12-.52-.15-.16-.04-.35-.08-.5-.11-.17-.03-.33-.06-.5-.09-.16-.03-.35-.06-.51-.09-.17-.02-.35.04-.53.02-.17-.02-.33-.08-.51-.09l-.51-.03c-.17,0-.34-.05-.51-.06-.17-.01-.35.04-.52.03-.16-.01-.35-.03-.51-.04-.16,0-.36-.02-.51-.03-.17,0-.34.04-.51.04-.17,0-.34-.07-.51-.06-.17,0-.34.1-.51.12-.17.02-.33.05-.49.07-.17.03-.35,0-.51.04-.16.04-.33.06-.49.11-.16.05-.32.14-.48.19-.15.05-.31.13-.46.2-.14.07-.31.08-.44.19-.13.1-.27.21-.38.33-.11.12-.13.29-.21.43-.08.14-.21.27-.28.42-.06.16-.11.31-.16.48-.05.16-.1.33-.15.49-.04.17-.05.35-.1.52-.04.17-.06.37-.11.52-.05.16-.13.31-.18.47-.03.16-.07.34-.1.5-.04.17-.12.33-.15.5-.03.17-.01.34-.04.51-.02.17-.05.34-.07.51-.02.17-.02.33-.03.5,0,.17-.05.36-.06.53,0,.17.04.35.02.52-.02.17-.12.33-.14.5-.02.18-.03.34-.05.52-.02.17-.05.36-.07.52-.02.17.01.36-.02.53l-.09.52c-.04.17-.13.32-.17.49-.04.16-.09.34-.13.5-.05.17-.06.35-.11.52-.05.17-.08.35-.14.51-.05.17-.15.32-.21.48-.06.16-.17.32-.24.48-.08.16-.14.31-.22.46-.08.15-.16.3-.24.45-.08.15-.17.29-.23.45-.06.16-.04.34-.08.49-.04.16-.06.32-.06.47,0,.16-.03.31,0,.47.04.16.1.3.17.44.07.15.13.3.23.43.1.13.21.25.33.37.11.12.21.26.34.37.13.11.24.23.37.33.13.11.34.15.48.25.14.1.23.26.36.36.13.09.3.2.43.29.14.1.3.15.44.25.14.1.27.23.41.33.13.08.31.19.44.27.14.08.3.19.44.27.14.09.25.25.4.34.15.09.33.1.48.18.15.09.27.24.42.32.15.08.32.13.47.21.14.07.31.17.45.25.15.07.31.13.47.19.16.06.31.14.47.19.16.05.34.06.5.09.16.04.31.11.48.14.17.03.34.04.52.06.17.02.34.01.51.03.17.02.34.08.51.09.17.01.35.02.52.03.17.02.33-.05.51-.03.17.01.39.12.56.15.17.02.33.04.5.08.17.03.34.07.51.12.17.07.38.08.54.17.17.07.29.19.44.28.16.07.32.21.48.3.14.11.3.16.43.29.14.12.23.29.33.44.12.14.18.3.27.46.07.17.17.34.22.51.04.18.11.35.14.53.03.18.06.35.08.54.02.18.01.37,0,.56-.02.19-.06.37-.13.54-.07.18-.14.37-.27.51s-.31.24-.46.34c-.15.1-.31.21-.48.29-.17.07-.33.09-.51.13-.18.04-.35.07-.53.09-.18.02-.37.04-.54.06-.17.01-.33.08-.5.1-.17.02-.33.06-.49.08-.09.01-.18.01-.27.01h-.04c-.08,0-.17,0-.25,0-.15.02-.34.04-.49.06-.13.03-.34.07-.48.1-.16.03-.31.1-.46.17-.15.06-.29.16-.42.27-.13.11-.21.24-.3.37-.1.13-.22.24-.3.38-.08.14-.2.23-.29.37-.08.15-.1.37-.17.51-.07.15-.17.28-.22.44-.05.16,0,.34-.02.51-.02.17-.06.33-.06.5,0,.17-.1.34-.11.51,0,.17.06.34.07.51,0,.17.05.32.07.49.02.17.01.36.04.53.02.16.04.34.05.52.02.17-.02.31,0,.47.02.17.13.35.17.52.04.17.05.34.11.5.05.16.13.32.19.47.06.15.17.26.27.36.09.1.17.27.32.35.14.08.32.11.48.2.16.08.29.23.43.33.14.11.3.24.43.36.13.12.27.17.39.29.12.11.21.27.34.36.13.09.29.13.43.18.14.06.29.12.45.15.16.03.34-.02.51,0,.17.01.35.03.53.04.17.01.32.1.49.11.17.02.36-.01.54.01.18.02.34.12.51.16.17.04.35.07.52.13.17.06.33.13.5.2.16.07.31.19.47.27.16.08.31.16.46.25.15.09.32.13.47.23s.27.23.42.33c.14.1.31.15.45.25.14.1.26.24.4.34.14.1.3.18.44.28l.41.32c.14.11.24.25.38.36l.4.33c.13.11.29.2.42.32.13.12.27.22.4.34.13.12.24.26.36.4.12.13.24.26.36.39.11.14.19.3.29.44.11.14.18.31.28.46l.27.45.26.45c.09.15.22.27.31.42l.26.45c.09.15.12.33.21.47.09.15.22.27.31.41.09.14.17.31.26.45.1.14.22.26.32.4.1.14.22.25.32.39.11.13.19.28.31.41.11.12.19.29.31.4.12.11.29.16.43.25.13.1.26.19.4.27.14.06.28.15.43.18.16.03.32-.05.46-.06.14-.02.28-.05.42-.12.14-.06.27-.12.4-.22.12-.1.27-.18.38-.31.12-.12.22-.25.32-.38.11-.13.15-.31.24-.45.1-.14.17-.27.24-.42.07-.15.19-.31.25-.47.06-.16.1-.32.17-.49.07-.16.15-.32.25-.48.1-.16.2-.32.32-.45s.23-.28.36-.41c.13-.12.28-.23.42-.33.14-.11.26-.24.4-.35.14-.09.3-.2.44-.29.15-.1.31-.19.47-.27.16-.09.34-.12.51-.19.17-.06.36-.09.54-.12.18-.03.37-.09.56-.07.19.02.38.05.56.12.18.07.31.23.46.34.15.11.29.22.41.36.12.14.24.28.33.44.09.16.15.33.22.5.07.17.14.36.15.55.02.19-.05.41-.07.58-.02.18.02.33,0,.5-.03.17-.11.31-.13.47-.01.08,0,.17,0,.26l-.35-.08c.03-.08.07-.16.11-.24.08-.15.18-.29.25-.45.07-.16.12-.33.19-.48.07-.16.15-.32.22-.47.06-.15.14-.33.21-.48.07-.16.23-.27.3-.42.06-.15.15-.33.21-.48.07-.16.15-.32.22-.48.07-.16.18-.31.25-.47.06-.14.14-.34.2-.48.07-.16.14-.31.22-.46.07-.16.08-.32.14-.48.06-.16.12-.32.16-.47.02-.07.06-.15.08-.19.01-.02.06-.02,0-.05-.12-.03-.29.05-.51.02-.21-.04-.38-.05-.57-.14-.18-.08-.34-.21-.49-.34-.15-.13-.2-.3-.31-.45-.11-.15-.29-.32-.37-.49-.07-.17-.04-.34-.1-.5-.06-.17-.15-.33-.19-.5-.05-.17-.14-.33-.17-.51-.03-.18.01-.36,0-.53-.02-.18-.08-.33-.1-.51-.02-.17-.06-.33-.08-.5-.01-.18-.02-.38-.02-.56,0-.18.08-.35.08-.52,0-.17-.04-.35-.03-.53,0-.17.01-.35.02-.52.01-.18.07-.33.09-.51.02-.17,0-.38.02-.55.02-.19.04-.34.06-.51.02-.16.04-.36.06-.52.03-.17.11-.34.14-.51.03-.17.1-.33.14-.5.04-.17.04-.36.08-.53.04-.17.09-.33.13-.5.04-.17.03-.34.07-.5.04-.16.13-.3.16-.46.03-.16,0-.34-.03-.49-.02-.15-.05-.29-.11-.45-.06-.16-.11-.34-.18-.5-.07-.16-.15-.32-.2-.5-.04-.18-.09-.35-.11-.53-.02-.18-.06-.37-.06-.55l.02-.53c0-.18.09-.33.1-.51.01-.16.03-.36.05-.52,0-.17-.03-.35-.02-.52,0-.17-.02-.34-.02-.51,0-.17.04-.36,0-.52-.03-.17-.12-.29-.16-.45-.04-.16-.06-.35-.12-.51-.04-.16-.11-.34-.16-.5-.05-.16-.11-.32-.17-.48-.06-.16-.13-.3-.2-.45-.07-.16-.09-.35-.17-.5-.08-.14-.17-.3-.25-.45-.08-.16-.16-.3-.25-.45-.08-.15-.17-.3-.26-.45-.08-.15-.12-.31-.2-.47-.08-.16-.17-.32-.24-.47-.09-.17-.2-.32-.28-.48-.08-.17-.18-.32-.25-.49-.08-.17-.12-.36-.19-.53-.07-.18-.2-.33-.25-.5-.06-.19-.07-.38-.11-.55-.05-.19-.06-.37-.1-.55-.04-.19-.05-.37-.07-.55-.02-.19-.06-.38-.07-.56-.01-.19-.05-.38-.05-.56,0-.19.05-.38.05-.56,0-.19.01-.37.03-.56.02-.19.07-.37.1-.54.03-.19.01-.41.07-.59.05-.18.14-.31.2-.49.05-.18.1-.38.14-.54.06-.17.1-.32.16-.51.05-.17.16-.35.21-.53.05-.17.04-.36.09-.54.05-.17.08-.35.13-.53.03-.17.11-.33.13-.51.03-.17.06-.34.06-.52,0-.17.02-.33.01-.51-.03-.17-.13-.36-.19-.53-.04-.16-.07-.33-.15-.5-.1-.15-.25-.25-.37-.39-.12-.12-.22-.29-.36-.41-.13-.12-.24-.27-.38-.39-.14-.12-.31-.21-.44-.32-.14-.11-.29-.23-.41-.34-.14-.12-.25-.27-.38-.38-.13-.12-.28-.25-.4-.36-.14-.12-.3-.21-.44-.32-.15-.12-.31-.21-.44-.32-.15-.11-.29-.22-.43-.33-.13-.11-.28-.24-.41-.34-.15-.11-.29-.21-.43-.32-.14-.11-.24-.25-.39-.36-.13-.1-.28-.23-.42-.33-.15-.1-.29-.21-.44-.32-.14-.1-.28-.2-.44-.31-.15-.1-.29-.2-.44-.3-.14-.1-.31-.17-.47-.27-.09-.06-.38-.25-.37-.26.01,0,.32.19.4.24,0,0-.14-.06-.11-.03Z"/>
  </g>
  <g>
    <path class="cls-2" d="M9.01,14.58c.58.56.91,1.32,1.15,2.09.66,2.06.97,4.47,2.7,5.78.98.75,2.26.98,3.33,1.59s1.97,1.94,1.41,3.04c-.15.29-.37.52-.58.77-1.14,1.39-1.54,3.39-.95,5.09.46,1.32,1.46,2.48,1.56,3.87.09,1.3-.66,2.56-1.71,3.35s-2.33,1.17-3.62,1.41c-1.08.2-2.17.31-3.27.33-.55,0-1.13,0-1.64.22-1.04.44-1.47,1.65-1.91,2.69s-1.22,2.18-2.35,2.15c-.25,0-.5-1.52-.57-1.71-1.57-4.85-2.08-9.67-2.09-14.77,0-3.29,1.13-9.26,4.32-13.24.89-1.11,1.46-2.61,2.83-2.99,0,0,.79-.23,1.37.33Z"/>
    <path class="cls-2" d="M9.1,14.71c.06.06.17.12.22.18.05.06.13.1.17.17.05.07.03.18.07.24.04.07.07.13.11.2.04.07.07.14.1.21.03.07.08.15.11.22.03.07.11.12.14.19.03.08.05.14.08.22.03.07.07.16.09.22.03.08.01.17.04.24.03.08.09.13.12.2.03.08.02.16.05.24.02.08.02.17.05.24.02.08.08.14.1.21.03.08.07.14.09.22.02.08,0,.17.02.25.02.05.07.17.09.22.02.07.04.16.05.23.02.08.12.13.15.2.01.06.04.17.05.23.02.07.05.15.08.22.03.07.05.14.08.22.03.06.07.15.09.21.03.07-.01.17.02.25.02.06.05.15.07.22.03.07.12.12.15.2.03.07.08.13.12.2.03.07,0,.17.05.24.03.07.09.12.14.19.04.06.06.14.1.21.04.06.08.13.12.19.04.06.07.14.12.2.05.06.17.06.22.12.05.06.08.12.15.16.08.08.09.08.17.16.06.05.13.08.19.13.06.05.07.13.13.19.05.05.12.11.17.16.06.05.17.04.23.08.07.04.1.16.18.18.07.03.16-.02.23,0,.08.03.17.06.22.09.06.03.14.07.21.1.05.03.15.08.21.11.07.03.12.1.2.13.07.03.17,0,.24.04.07.03.12.12.19.15.07.03.17,0,.24.04.07.03.12.11.2.15.07.03.17.02.24.05.07.04.14.07.21.11.07.04.13.09.21.12.07.03.14.1.21.14.07.04.14.07.21.12.07.05.14.08.2.14.06.05.1.13.16.19.06.06.16.07.21.14.06.06.15.09.2.16.05.07.04.18.08.25.05.07.11.12.15.19.04.07.09.14.13.21.04.07.1.14.13.22.03.08.06.16.08.25.02.08.04.17.04.26.01.09-.03.17-.04.25,0,.08,0,.17,0,.26,0,.09-.03.17-.05.25-.02.08-.01.18-.05.26-.03.08-.13.13-.18.2-.05.07-.12.13-.17.19-.04.05-.1.14-.14.2-.05.06-.03.17-.08.23-.05.06-.12.1-.17.16-.05.06-.09.13-.13.19-.05.06-.12.09-.16.15-.04.06-.05.14-.09.21-.03.07-.12.12-.14.19-.03.07.02.17-.02.23-.03.07-.09.12-.12.19-.03.07-.04.15-.06.22-.02.07-.08.13-.11.2-.02.07-.07.14-.09.21-.02.07.01.16,0,.23l-.05.22c-.01.07-.09.12-.11.2-.02.07,0,.16-.01.24-.01.07-.04.15-.04.23,0,.08.02.15.03.23,0,.08.05.14.06.22.01.07-.06.16-.05.24,0,.08.05.15.06.22,0,.05,0,.17.01.23,0,.07,0,.16.02.23.02.07.08.14.09.21.02.07.03.15.05.22.02.07.09.13.11.2.03.07.04.13.08.2.04.07.02.18.06.24.04.08.08.14.11.19.03.07.14.11.17.18s.04.15.07.22c.04.07.07.14.11.2.03.06.06.14.1.22.03.07-.01.16.02.24s.13.12.16.19c.04.07,0,.17.04.24.03.07.13.11.16.19.03.07,0,.18.02.25.03.07.1.13.13.21.03.08.08.14.1.22.02.07.06.17.08.24.02.08.03.15.05.24.02.08.03.16.04.25.02.08,0,.17,0,.25,0,.08,0,.17,0,.25,0,.08,0,.17-.02.25,0,.08-.1.15-.11.23-.01.08.04.19.02.27-.02.08-.12.12-.15.19-.04.09-.07.16-.09.23-.03.07.02.17-.01.25-.03.08-.11.14-.15.21-.04.07-.08.14-.13.21-.04.07-.04.17-.09.24-.05.07-.16.08-.21.14-.05.06-.05.17-.1.23-.06.06-.14.09-.2.15s-.13.1-.19.16c-.06.05-.13.1-.19.15-.06.05-.08.18-.15.22-.06.03-.15.08-.21.12-.07.04-.18,0-.25.05-.07.04-.1.13-.17.18-.07.04-.12.1-.19.14-.07.04-.16.06-.23.09-.07.04-.14.1-.21.13-.07.03-.18-.02-.25,0-.06.02-.17.05-.23.07-.07.03-.13.1-.21.13s-.14.07-.22.09c-.08.03-.14.08-.22.11s-.16.02-.23.04c-.07.03-.16.03-.24.06-.08.03-.15.05-.23.06-.08.02-.15.09-.23.1s-.15-.06-.23-.05c-.1.02-.17.03-.24.04-.07.02-.15.04-.24.05-.08.02-.14.08-.21.09-.08.02-.16.02-.24.03-.08,0-.15.02-.24.03-.08,0-.16-.03-.24-.03-.08,0-.16.08-.23.09-.07,0-.17,0-.24.01-.08,0-.15.04-.23.05-.08,0-.17-.07-.24-.06-.08,0-.15.04-.23.04-.07,0-.17,0-.24,0-.06,0-.18.02-.24.03-.08,0-.16-.03-.24-.02-.08,0-.15.06-.23.06-.08,0-.16-.03-.23-.03s-.16.07-.23.07-.15-.06-.22-.06c-.08,0-.15.07-.22.08-.07,0-.15,0-.22,0-.07.02-.15,0-.22.02-.07.02-.14.05-.2.08-.07.03-.1.12-.16.16-.06.03-.13.06-.19.1-.06.04-.1.1-.16.14-.05.04-.16.06-.21.11-.04.05-.09.13-.13.18-.04.06-.06.14-.1.2-.04.06-.05.15-.09.21s-.1.11-.14.18c-.04.07-.06.14-.09.21-.03.07-.13.1-.16.18-.03.07.02.18-.02.25l-.09.21c-.03.07-.12.12-.15.19l-.09.22c-.03.07,0,.17-.04.25-.03.07-.11.13-.14.2-.02.05-.07.17-.09.23-.04.07-.12.12-.16.19-.04.07-.07.15-.12.22-.05.07-.11.12-.16.19-.05.06-.04.18-.1.24-.06.06-.15.08-.22.13-.06.05-.12.12-.19.17-.07.05-.12.12-.19.17-.07.05-.17.05-.24.09-.08.04-.16.05-.24.08-.08.02-.16.05-.24.07-.08.01-.16.06-.25.06-.04,0-.09,0-.13,0-.01,0-.1-.02-.14-.05-.03-.02-.05-.05-.07-.07-.07-.08-.13-.14-.16-.23-.03-.08-.1-.15-.12-.23-.01-.07-.03-.17-.05-.24-.02-.08.02-.17,0-.24-.02-.08-.09-.13-.11-.21-.02-.08-.02-.17-.04-.24-.02-.07-.09-.14-.11-.21-.01-.06.05-.14.03-.23-.02-.08-.08-.15-.09-.23-.02-.08-.03-.16-.06-.23-.02-.08-.06-.15-.09-.22-.03-.07-.03-.16-.05-.23-.02-.07-.07-.14-.09-.22-.02-.07-.04-.16-.05-.23-.02-.08-.01-.16-.04-.24-.02-.08-.14-.12-.16-.2-.02-.08.02-.17.01-.24-.01-.08,0-.16-.01-.23-.01-.08-.06-.16-.08-.23-.02-.08-.1-.12-.12-.2-.03-.1-.03-.13-.06-.23-.02-.08-.06-.16-.08-.23-.02-.08-.01-.16-.03-.24-.02-.08-.05-.15-.07-.23-.01-.07-.02-.17-.04-.23-.02-.08,0-.16-.02-.24-.02-.08-.06-.15-.08-.22-.02-.08-.02-.16-.04-.23-.01-.08-.02-.16-.03-.24,0-.08.02-.16.01-.23,0-.08-.04-.16-.06-.23-.02-.08-.07-.14-.08-.22-.02-.08.02-.18,0-.25-.02-.08-.06-.14-.08-.22s0-.15-.01-.23c0-.08,0-.15,0-.23,0-.08-.06-.16-.07-.24-.01-.08-.03-.15-.05-.22-.02-.12-.02-.12-.04-.24-.02-.08-.07-.15-.08-.23,0-.07-.01-.16-.02-.24,0-.07-.01-.16-.02-.23,0-.08.06-.16.05-.24-.01-.08-.09-.16-.1-.24,0-.05.01-.18.02-.23,0-.08-.01-.15-.02-.23-.01-.07-.02-.16-.03-.23-.01-.08.03-.16.02-.24,0-.08-.07-.15-.08-.23,0-.08.03-.16.02-.24,0-.08-.05-.15-.06-.23,0-.07-.02-.18-.03-.24,0-.06,0-.18,0-.24,0-.08.06-.16.06-.23,0-.07-.02-.17-.03-.24,0-.08-.03-.16-.03-.23,0-.08-.04-.16-.04-.24,0-.08.02-.15.01-.23,0-.08.06-.18.04-.25-.01-.06-.03-.17-.04-.23-.01-.08-.02-.14-.02-.22,0-.08-.02-.15-.01-.23,0-.06.02-.17.02-.23,0-.1,0-.17,0-.24,0-.08-.06-.15-.07-.23,0-.08,0-.15-.01-.23,0-.08-.03-.16-.03-.24,0-.07.02-.15.02-.23,0-.07,0-.15,0-.23,0-.08,0-.15,0-.23,0-.07.01-.15.02-.23,0-.07.01-.16.02-.23,0-.08-.01-.15-.01-.23,0-.07,0-.15.01-.24,0-.06.03-.17.04-.23,0-.07.02-.17.03-.23,0-.08-.02-.15-.03-.23,0-.08.04-.17.04-.24,0-.08-.06-.15-.05-.23,0-.08.05-.15.06-.23,0-.08,0-.16,0-.23.01-.08.08-.15.09-.22,0-.08-.03-.16-.01-.24.02-.08.06-.14.08-.21.02-.08.07-.15.08-.23,0-.06.01-.17.02-.23l.04-.23.04-.23c.01-.08,0-.16,0-.24,0-.08.06-.16.07-.23,0-.08-.07-.16-.06-.24.01-.08.08-.14.1-.21.02-.07,0-.16.02-.24.02-.08.04-.15.06-.22.02-.08.09-.14.11-.21.02-.07.03-.16.05-.23.02-.07.06-.14.08-.22.01-.07.03-.16.05-.23.02-.08,0-.16.01-.23.02-.08.01-.16.04-.23.02-.07.11-.13.13-.2.02-.07.04-.15.06-.23.03-.07.08-.14.1-.21.02-.07.02-.16.04-.23.03-.07.08-.13.11-.2.03-.07.02-.16.05-.23.03-.07.06-.15.08-.22.02-.08-.02-.16,0-.23.02-.08.05-.16.07-.24.03-.07.15-.1.18-.17.03-.07-.02-.19.01-.26.03-.07.11-.11.14-.18.03-.07,0-.16.03-.23.03-.07.11-.13.14-.2.03-.07.03-.15.06-.23.03-.07.04-.15.07-.22.03-.07.07-.14.1-.21.03-.07.1-.13.14-.19l.1-.21c.04-.07.08-.14.11-.2.03-.07.04-.16.08-.22.04-.07.11-.12.15-.19.04-.06.12-.1.16-.16.04-.06.03-.17.07-.24.04-.07.1-.12.14-.19.05-.06.13-.09.18-.16.05-.06.08-.14.12-.2.04-.07.11-.12.15-.19.04-.07.03-.16.08-.22.04-.07.07-.14.12-.2.05-.06.13-.09.18-.15.06-.06.1-.11.15-.17.05-.06.07-.15.12-.21.05-.06.07-.13.12-.19.04-.06.13-.1.17-.17.04-.07.03-.17.07-.23.05-.06.13-.1.17-.15.05-.06.06-.16.1-.22.05-.06.13-.1.17-.16.05-.07.09-.13.13-.19.04-.06.09-.14.12-.2.04-.07.05-.16.1-.22.05-.06.15-.07.21-.13.05-.06.1-.12.16-.17.06-.05.09-.13.15-.18.06-.05.14-.08.2-.13.06-.05.09-.12.16-.17.06-.04.1-.14.17-.18.05-.02.16-.08.21-.1.07-.03.15-.04.23-.07.07-.03.14-.07.22-.09.07-.03.16-.05.24-.05.08,0,.15,0,.24,0,.08,0,.15.02.23.03.08.01.13.09.2.12.07.02.17,0,.24.04.07.04.08.14.14.19.03.03.15.06.14.07-.01,0-.09-.06-.12-.08-.06-.04-.12-.08-.19-.11-.07-.03-.13-.12-.2-.14-.08-.02-.16.04-.23.03-.07-.01-.15-.11-.22-.11-.08,0-.15.1-.22.11-.07.01-.16-.04-.23-.01-.07.03-.13.08-.19.12-.08.04-.12.06-.2.1-.06.05-.13.08-.19.12-.06.05-.13.09-.19.14-.06.05-.08.13-.12.18-.05.05-.12.09-.17.15-.05.05-.08.13-.13.18-.05.05-.13.08-.18.13-.05.06-.07.14-.12.2-.04.06-.06.13-.1.2-.04.06-.1.11-.14.18-.04.06-.06.14-.11.2-.04.06-.12.1-.16.17-.04.06-.03.15-.08.22-.04.06-.08.14-.12.2-.04.06-.13.1-.17.17-.04.06-.06.14-.1.21-.05.06-.1.12-.15.19-.04.06-.13.08-.18.14-.05.06-.07.14-.12.2-.04.05-.11.13-.15.18-.04.06-.1.11-.15.17-.05.06-.04.17-.09.23-.04.06-.14.09-.18.15-.04.06,0,.18-.05.24-.04.06-.15.09-.19.16-.04.06-.09.13-.13.19-.04.07-.02.17-.06.23l-.12.2c-.04.07-.11.12-.15.19-.04.07-.04.15-.06.22-.03.07-.09.14-.11.21-.03.07-.06.14-.1.21-.03.07-.07.14-.11.2-.04.07-.08.13-.13.2-.04.07-.12.12-.15.19-.03.07-.07.16-.09.23-.02.07,0,.15-.03.23-.02.07-.08.13-.11.2-.03.07-.02.16-.05.23-.03.07-.04.15-.07.22-.03.07-.1.12-.12.2s-.04.15-.07.22c-.03.07-.09.13-.12.2-.03.07-.03.16-.05.23-.03.07,0,.15-.02.23-.02.07-.09.14-.11.22-.02.07-.06.14-.08.22-.02.07-.04.15-.07.22-.02.06-.06.16-.08.22-.02.07.04.17.02.25-.02.07-.08.14-.09.22l-.04.23c-.01.08-.06.14-.08.22-.02.07.02.16,0,.24-.02.05-.05.17-.07.22s-.05.17-.07.22c-.02.08,0,.16-.01.24-.02.08-.11.13-.13.21-.02.08.05.17.04.25,0,.06-.02.16-.03.23-.01.08-.08.15-.09.22-.01.08-.04.15-.05.23-.01.08,0,.17-.01.24-.02.11-.02.12-.05.23-.02.08-.1.13-.12.21-.01.07-.02.16-.04.23,0,.08.06.16.05.23,0,.08-.09.15-.1.23,0,.07-.01.15-.02.23,0,.06-.03.17-.04.23,0,.08.02.16.01.24,0,.08.03.16.02.24,0,.08-.04.15-.05.23s0,.15,0,.23c0,.08-.06.15-.06.23,0,.08.04.15.04.23,0,.08,0,.16,0,.23,0,.08.02.15.02.23,0,.08,0,.16,0,.24,0,.08.07.15.07.23,0,.08-.09.15-.09.23,0,.09,0,.14,0,.24,0,.08,0,.17,0,.24,0,.08.06.16.06.24v.23c0,.08-.08.15-.08.23,0,.06,0,.16,0,.23,0,.08.04.16.04.24,0,.08.04.16.04.23,0,.08-.01.16,0,.23,0,.08-.01.16,0,.24,0,.08.03.15.04.23,0,.08,0,.16,0,.23,0,.08-.02.16-.02.23,0,.08.09.15.09.23,0,.08.01.16.02.23,0,.08-.04.16-.03.23,0,.08.03.15.03.23,0,.08-.01.16,0,.23,0,.06.02.17.03.23,0,.08-.02.16-.02.24,0,.08,0,.15,0,.23,0,.08.11.16.11.23,0,.08-.06.16-.05.23,0,.08.03.15.04.23.01.08.06.14.08.22.01.08-.02.16,0,.24,0,.08.04.15.05.23.01.06.03.17.05.23.01.08-.05.17-.04.24.01.08.11.14.13.22s-.05.17-.04.25c.01.08.06.15.07.22.01.08,0,.16.01.23.01.06.04.17.05.23.01.08,0,.16.01.23.01.08.06.15.07.23,0,.08-.02.16-.01.23.01.08.04.15.06.23.01.08.05.15.07.22.01.08-.02.16,0,.24.02.06.04.16.06.23.02.08.1.13.12.2.02.07-.04.19-.02.26s.04.14.06.22c.02.08.04.15.05.22,0,.08.07.16.08.24,0,.08-.03.16-.02.23.02.08.03.16.06.24.02.07.09.13.11.2.03.07,0,.16.03.23.02.07.03.13.05.22.01.08.06.15.07.23.01.08.04.15.06.23.02.08.04.15.06.23.03.09.04.13.06.23.03.09.04.15.06.22.02.07.08.14.11.21.02.07,0,.16.02.24.02.05.07.17.09.22.02.07,0,.15.02.23.02.07.04.16.06.24.01.08.04.16.06.24.02.08.09.13.12.21.02.07.07.14.09.21.02.07,0,.17.01.25.02.07.06.14.08.21.02.07.02.15.04.21.02.06.03.15.05.17,0,0,.01.01-.01,0-.03,0-.03,0,0,0h.11c.07,0,.12-.09.19-.1.07-.02.13-.04.19-.06.06-.03.14,0,.21-.02.07-.03.12-.11.18-.15.06-.03.16,0,.22-.06.06-.05.06-.15.11-.21.05-.05.1-.11.15-.16.05-.05.15-.07.2-.13.05-.06.03-.16.07-.22.04-.07.04-.14.08-.21.03-.07.08-.14.12-.2.03-.07.08-.13.12-.2.04-.06.13-.09.17-.15.04-.07.03-.17.06-.24.03-.07.1-.13.13-.2.03-.07.04-.15.07-.23.03-.07.02-.16.05-.23.03-.07.15-.11.18-.18.03-.07.02-.17.06-.24.03-.07.12-.12.15-.19.02-.05.07-.15.11-.23.03-.07.01-.16.05-.24.04-.07.14-.11.19-.18.05-.06.07-.16.13-.22.06-.06.13-.1.2-.16.06-.06.08-.17.15-.22.07-.06.15-.11.23-.15.08-.05.18,0,.26-.04.08-.04.15-.11.23-.13.08-.03.18.01.26,0,.08-.02.16-.06.24-.07l.24-.02c.08,0,.17.03.25.03.08,0,.16-.01.24-.02.08,0,.15-.06.23-.06.08,0,.16.03.23.03s.15-.06.23-.07c.08,0,.16.03.23.02.08,0,.15-.05.23-.05.07,0,.16,0,.23,0,.08,0,.16.04.24.03l.23-.02c.08,0,.15-.05.23-.06.08,0,.15-.04.23-.05.05,0,.18,0,.23,0l.23-.04c.08,0,.16.02.23,0s.16,0,.23,0l.23-.04.23-.04c.08-.01.14-.09.22-.1.07-.02.15-.04.23-.05.08-.02.16.02.24,0,.08-.02.14-.08.21-.1.07-.02.16-.02.23-.04.07-.02.14-.08.21-.1.07-.02.14-.07.21-.1.07-.03.16-.02.23-.05.07-.03.17,0,.24-.03.07-.03.11-.13.18-.16.07-.03.15-.05.21-.08.07-.04.15-.04.22-.07.07-.04.1-.14.17-.18.06-.03.14-.07.2-.1.06-.04.14-.05.2-.09.06-.04.14-.06.2-.1l.18-.14c.06-.05.08-.14.14-.19.05-.05.11-.1.16-.15.05-.06.14-.08.19-.14.05-.06.07-.13.12-.19.05-.06.09-.11.14-.18.05-.06.08-.13.12-.19.04-.06.06-.14.1-.2.04-.06.08-.12.12-.19.04-.07.03-.15.06-.22.03-.07.07-.13.09-.2.03-.07.06-.14.08-.21.02-.07.08-.13.09-.2.02-.07.06-.14.06-.22.01-.07-.04-.15-.04-.23,0-.07-.02-.15-.02-.22,0-.07.07-.15.06-.23l-.04-.22c-.01-.07-.03-.15-.05-.22-.02-.07,0-.15-.03-.23-.02-.07-.08-.13-.11-.2-.03-.07-.03-.17-.06-.24-.04-.07-.13-.09-.16-.16-.03-.07-.01-.16-.04-.23-.02-.07-.09-.14-.11-.21-.03-.07-.04-.15-.07-.22-.04-.07-.1-.12-.14-.19-.04-.06-.08-.14-.12-.2-.04-.07-.09-.13-.13-.2-.04-.07.01-.18-.02-.25-.03-.07-.09-.13-.12-.21-.03-.07-.08-.15-.11-.21-.03-.07-.04-.16-.07-.24-.04-.07-.08-.14-.11-.21-.03-.07-.06-.15-.08-.22-.02-.08-.1-.13-.13-.21-.02-.08-.04-.16-.07-.24-.02-.08.04-.18.03-.26-.01-.08-.08-.15-.09-.23,0-.08-.06-.15-.07-.24-.01-.08,0-.17,0-.25,0-.08.06-.15.08-.23.01-.08-.06-.19-.04-.27.02-.08.12-.14.13-.22,0-.08-.02-.16,0-.24.01-.08-.03-.17-.02-.25.02-.08.1-.14.12-.22.02-.08-.01-.16,0-.24.02-.08,0-.16.02-.24.02-.08.06-.17.09-.25.03-.08.13-.12.16-.2.03-.07.02-.17.06-.24.03-.07.07-.16.1-.22.04-.07.12-.11.17-.18.05-.07.06-.17.11-.23.05-.06.09-.13.13-.2.03-.05.1-.15.13-.2.05-.07.14-.1.19-.16.05-.06.13-.09.18-.15.05-.06.07-.14.11-.21.04-.06.08-.12.11-.19.03-.06,0-.15.03-.21.03-.06.11-.1.13-.17.03-.06,0-.15.02-.22.02-.07.04-.13.04-.2,0-.07.02-.15,0-.22-.01-.07-.06-.13-.08-.2-.02-.07-.08-.12-.1-.19-.02-.07-.09-.12-.11-.19l-.1-.19c-.03-.06-.02-.16-.06-.22-.04-.06-.08-.13-.12-.19-.05-.06-.14-.08-.19-.14-.05-.06-.12-.09-.18-.14-.05-.05-.08-.14-.14-.19-.06-.04-.16,0-.22-.05-.07-.05-.13-.09-.19-.13-.06-.03-.12-.07-.2-.11l-.2-.12c-.07-.04-.13-.06-.2-.09-.07-.03-.12-.13-.19-.16-.06-.02-.16-.05-.22-.07-.08-.03-.14-.06-.22-.08-.07-.03-.15-.04-.22-.08-.07-.03-.12-.09-.2-.13-.08-.04-.15-.07-.22-.1-.08-.03-.17-.03-.25-.06-.06-.02-.18-.06-.24-.08-.08-.03-.14-.1-.22-.14-.08-.04-.19-.01-.26-.06-.08-.05-.13-.12-.2-.17-.07-.05-.14-.11-.2-.16-.07-.05-.13-.11-.19-.17-.07-.06-.15-.1-.21-.16-.07-.06-.15-.1-.21-.16-.06-.07-.1-.15-.15-.22-.05-.05-.13-.13-.18-.19-.06-.06-.09-.15-.13-.22-.05-.07-.16-.12-.2-.2-.04-.08-.03-.16-.07-.24-.03-.08-.1-.14-.14-.21-.04-.07-.07-.13-.11-.22-.04-.07-.03-.18-.07-.25-.04-.07-.13-.12-.16-.21-.03-.08-.06-.15-.09-.24-.03-.08-.02-.16-.05-.25-.02-.08-.03-.16-.06-.24-.02-.08-.01-.16-.03-.24-.02-.08-.11-.15-.12-.24-.02-.08.02-.17,0-.25-.02-.08-.11-.14-.13-.22-.02-.08-.01-.17-.04-.25-.02-.08-.01-.16-.04-.25-.02-.08-.1-.15-.12-.22-.02-.07-.06-.17-.08-.23-.02-.08,0-.17-.03-.25-.01-.06-.04-.18-.05-.24-.02-.08-.07-.15-.1-.23-.02-.08-.08-.15-.1-.22-.03-.08-.05-.15-.08-.23-.02-.06-.04-.17-.06-.23-.02-.08-.07-.15-.09-.22-.03-.07-.01-.16-.04-.24-.02-.06-.06-.17-.08-.23-.04-.08-.07-.14-.12-.21-.04-.07-.08-.12-.13-.21-.05-.07-.09-.13-.14-.2-.05-.06-.12-.11-.17-.17-.03-.04-.12-.17-.11-.17,0,0,.11.12.14.16,0,0-.07-.03-.06-.01Z"/>
  </g>
</svg>