<?xml version="1.0" encoding="UTF-8"?>
<svg id="Layer_1" data-name="Layer 1" xmlns="http://www.w3.org/2000/svg" viewBox="0 0 600 600">
  <defs>
    <style>
      .cls-1 {
        fill: #f7f;
      }

      .cls-1, .cls-2 {
        stroke: #5e0015;
        stroke-miterlimit: 10;
        stroke-width: 3px;
      }

      .cls-2 {
        fill: #ff5fff;
      }
    </style>
  </defs>
  <path class="cls-2" d="M207.62,314.94c3.42,5.17,6.84,10.35,10.26,15.52,6.34,9.59,17.16,19.95,17.35,31.44.02,1.08-2.4,6.65-2.86,7.62-.85,1.83-4.85,4.58-6.86,4.57s-73.89-.48-80.36-3.03c-9.79-3.86-10.19-54.81-13.92-63.69-1.65-3.92-3.24-8.1-2.63-12.3,2.38-16.66,17.82-35.4,34.61-45.4,10.01-5.96,22.38-6.09,34.02-6.39,33.18-.84,79.71,11.28,77.02,36.5-1.25,11.72-18.55,14.46-27.58,16.18-7.18,1.37-14.42,2.33-21.61,3.61s-31.29.49-29.32,2.15c.5.42,9.69,9.87,10.04,10.41.61.93,1.23,1.86,1.84,2.78Z"/>
  <path class="cls-1" d="M-334.65,533.9c43.62-20.75,120.7-78.48,168.73-114.46,48.03-35.97,122.51-109.53,153.43-154.28,24.48-35.43,8.34-44.12-8.94-41.2-17.28,2.92-120.34,110.56-128.54,97.99-8.2-12.56,179.45-149.2,127.58-183.74-18.36-12.23-161.48,149.87-169.43,142.08-7.95-7.79,167.84-187.44,134.95-211.46-43.25-31.58-166.46,177.02-173.02,171.33-6.56-5.7,114.31-180.11,94.43-193.56-34.88-23.6-101.64,79.36-133.7,119.48-26.62,33.32-37.59,64.87-56.61,79.64-15.43,11.98,1.12-29.73-2.38-62.39-2.79-26-7.93-65.67-30.72-83.4-23.07-2.36-26.68,31.85-27.79,69.82-1.23,42.44-27.78,78.47-34.27,99.56-10.92,35.47-95.6,51.05-62.53,152.94,33.07,101.89,105.18,132.39,148.8,111.64Z"/>
  <path class="cls-1" d="M484.94,335.21c-18.93-44.44-73.43-123.84-107.39-173.31-33.96-49.47-44.2-33.73-87.64-66.47-34.39-25.92-63.46-7.09-65.94,10.28-1.21,8.47,60.06,35,56.83,36.22s-67.72-54.37-88.9-25.94c-13.03,17.8,52.33,62.28,45.54,66.02s-47.87-73.2-81.02-40.75c-21.33,20.88,45.03,72.45,39.35,77.13s-35.93-55.82-46.82-55.82c-23.44,0-25.06,15.18-24.7,38.08.86,53.48,97.75,119.14,90.42,146.93-4.15,15.73-13.79,1.14-41.43-6.74-16.49-4.7-26.25-71.12-59.74-49.26-20.38,47.87,24.53,105.2,72.75,123.87,62.85,24.33,73.56,48.81,183.1,42.83,91.37-4.99,134.5-78.63,115.58-123.07Z"/>
  <path class="cls-2" d="M339.85,124.09c-1.29,5.93-3.57,5.15-7.12,10.07-12.7,17.6-51.94,110.78-26.38,123.83s56.45-79.17,62.1-76.56-69.85,117.08-42.54,132.49,86.61-91.66,90.03-89.65-53.66,93.28-33.61,104.17,63.69-52.42,67.05-51.21-35.44,61.87-19.26,69.22,46.72-22.92,60.25-47.55c5.06-9.22,16.62-32.17,12.47-45.14-6.2-19.37-13.1-20.76-20.53-27.56-4.33-3.96-2.62-16.72-8.67-23.95s-17.43-21.25-21.7-24.76-5.86-15.99-14.67-26.3c-7.6-8.9-26.43-22.69-29.23-25.11s-9.66-19.69-24.12-27.93c-14.46-8.24-32.64-7.73-48.37-2.3,0,0-21.06,13.56-20.02,15.97,2.05,4.76,25.51,6.72,24.3,12.26Z"/>
  <path class="cls-2" d="M149.97,259.62c3.8-3.4,9.55-7.98,13.23-9.94,10.27-5.49,22.38-6.09,34.02-6.39,33.18-.84,89.96-2.21,77.02,36.5-6.76,20.21-41.29,29.82-48.48,31.1s-45.19.17-48.71,7.12"/>
</svg>