<?xml version="1.0" encoding="UTF-8"?>
<svg id="Layer_1" data-name="Layer 1" xmlns="http://www.w3.org/2000/svg" viewBox="0 0 200 200">
  <defs>
    <style>
      .cls-1 {
        fill: #ffc0c4;
      }

      .cls-2 {
        fill: #f7f;
      }

      .cls-3 {
        fill: #ffd2d4;
      }

      .cls-4 {
        fill: none;
        stroke: #f7f;
        stroke-miterlimit: 10;
        stroke-width: 2.1px;
      }
    </style>
  </defs>
  <g>
    <path class="cls-1" d="M46.86,106.45c.09.58.15.92.15.92-2.3.32-4.96.62-7.24,1.53-2.29.92-4.11,2.46-4.68,5.39-2.47-1.5-5.25-1.66-7.66-.71-2.39.94-4.45,3.07-5.35,5.96,0,0-1.19.11-2.64.45-1.45.35-3.16.92-4.19,1.92-1.02.99-1.6,2.69-1.83,4.34-.22,1.63-.13,3.24.07,4.09.78,4.62,1.95,8.33,3.37,11.65.71,1.68,1.5,3.23,2.32,4.82.85,1.54,1.73,3.14,2.69,4.73,6.79,9.75,14.6,17.52,24.88,18.19,4.71.35,6.65,10.41,18.59,3.35,5.98-3.53,9.1-7.01,10.29-11.24,1.2-4.23.44-9.2-1.15-15.54-.74-2.99-1.64-5.87-2.72-9-1.07-3.03-2.26-6.39-3.69-10.43-1.07-4.07-2.47-8.3-3.75-12.3-1.29-4.01-2.46-7.78-3.31-11.08-.2-.81-.4-1.61-.59-2.38-.05-.19-.08-.38-.12-.57l-.44-2.03c-.17-1.04-.39-2.08-.49-3.1-.3-2.05-.38-4.04-.4-6.02.04-3.96.48-7.87,1.56-11.9.29-1.01.51-2.01.88-3.04l.49-1.54c.16-.44.32-.78.47-1.17l.43-1.15.57-1.16c.19-.39.35-.78.55-1.17l.68-1.17c3.56-6.28,9.49-12.4,16.06-16.82,3.28-2.22,6.72-4.05,10.06-5.37l1.25-.47c.41-.16.83-.34,1.22-.43l1.18-.36c.41-.12.72-.26,1.28-.37,1.01-.24,2.02-.49,3.03-.73,1.02-.2,2.04-.39,3.06-.59,8.13-1.4,15.94-1.45,23.04-.21,7.09,1.26,13.45,3.73,18.88,7.06,10.84,6.76,17.95,16.96,21.62,28.21.27.68.45,1.41.65,2.12.2.71.43,1.41.61,2.12.17.72.34,1.44.5,2.16.08.36.18.7.25,1.08l.21,1.18c.14.78.29,1.56.43,2.33.11.72.17,1.29.26,1.94.09.63.19,1.25.28,1.87.01.57.03,1.13.06,1.69.22,4.48-.36,8.63-1.48,12.34-2.26,7.44-6.51,13.02-10.96,16.78-.57.46-1.12.92-1.65,1.38-.56.42-1.16.78-1.7,1.17-1.05.84-2.24,1.4-3.29,2.03-.26.16-.52.31-.77.47-.26.12-.52.23-.78.35-.51.23-.99.46-1.46.69-.47.23-.93.48-1.27.56-.36.12-.71.24-1.03.37-.28.13-.65.21-1,.3-.36.09-.72.2-1.09.31-.76.18-1.57.31-2.4.49-.43.04-.87.09-1.32.15-.22.03-.45.06-.68.1-.24,0-.47.02-.71.02-.48.02-.97.05-1.46.09-.51-.02-1.03-.03-1.56-.03-4.22-.08-9.37-1.1-14.93-3.4-5.52-2.36-11.42-6.08-16.49-11.1-5.08-4.98-9.21-11.26-11.21-17.61-.54-1.59-.86-3.18-1.14-4.76-.15-.79-.15-1.58-.28-2.37l-.03-1.18v-.22s-.02-.12-.02-.12c-.01-.1-.02-.12,0-.11.01.01.02.03.01.04v-.29c0-.22.1-.41.11-.61l.03-.31c.04-.1.07-.2.1-.3.07-.19.05-.41.16-.6.21-.81.66-1.63,1.19-2.53.24-.46.63-.9.95-1.39.21-.23.42-.46.61-.71.18-.25.47-.47.68-.71.96-.95,2.08-1.93,3.41-2.81,1.33-.88,2.81-1.69,4.38-2.38,1.57-.71,3.25-1.21,4.91-1.62,3.34-.83,6.65-.85,9.1-.41,1.23.21,2.25.54,3.01.92.38.21.68.32,1.18.69.11.08.25.14.34.22.08.07.16.14.24.21.08.06.17.12.26.18l.14.08.1.12c.14.16.29.29.47.42.17.19.36.45.56.65.1.12.21.18.31.34l.32.45.34.44.18.21.17.28c.23.37.47.74.71,1.1.25.37.47.86.72,1.27l.37.65c.12.22.24.49.36.73l.73,1.47c1.9,4.22,3.64,9.35,5.02,14.98,1.67,4.53,3.81,9.27,6.91,8.75,4.26-.59,5.35-5.31,4.53-11.56-1.72-7.24-4.03-14.23-7.05-20.12-1.5-2.95-3.24-5.47-5.01-7.46-.42-.57-.91-.92-1.34-1.37-.41-.47-.94-.82-1.43-1.21-.26-.19-.47-.4-.75-.59l-.84-.57c-.56-.43-1.11-.65-1.65-.98-4.41-2.41-10.55-3.32-16.94-2.53-6.39.76-12.95,3.34-18.26,7.12-5.38,3.77-9.16,8.83-10.85,14.14-.16.68-.37,1.35-.52,2.04l-.17,1.04c-.07.34-.14.69-.14,1.05-.03.4-.05.63-.08.88-.02.12-.04.26-.03.4l.02.5.03,1.22c.01.43,0,.86.07,1.3.23,3.46,1,6.95,2.14,10.39,4.52,13.82,16.2,26.67,30.46,33.89,3.17,1.61,6.44,3,9.78,4.03,3.34,1.01,6.72,1.73,10.08,2.12,3.37.39,6.7.34,9.95,0,.8-.12,1.63-.14,2.42-.32l2.39-.46c1.55-.43,3.14-.8,4.57-1.37l1.11-.38c.38-.16.77-.36,1.15-.53l2.32-1.07c.79-.31,1.51-.81,2.27-1.22l2.26-1.27,2.12-1.45,1.06-.72.53-.36.49-.41,1.98-1.62c.32-.27.68-.52.98-.82l.91-.89,1.84-1.76c.58-.62,1.11-1.28,1.67-1.91,1.18-1.23,2.1-2.65,3.12-4,.54-.66.93-1.41,1.37-2.13l1.32-2.16,1.12-2.27.57-1.13c.19-.38.31-.79.47-1.18l.94-2.36c.33-.78.5-1.62.76-2.42.22-.82.55-1.6.7-2.44l.52-2.49c.08-.42.2-.83.26-1.25l.15-1.27.32-2.53c.06-.85.06-1.71.1-2.56,0-.85.14-1.7.05-2.56l-.12-2.57c-.03-.43,0-.85-.07-1.29l-.18-1.33-.34-2.66c-.13-.91-.33-1.91-.49-2.86-.3-1.97-.78-3.72-1.18-5.56-.23-.9-.5-1.79-.75-2.68l-.38-1.34-.44-1.31c-2.3-7.03-5.64-13.57-9.9-19.37-4.28-5.77-9.48-10.81-15.45-14.79-4.55-3.03-9.48-5.53-14.72-7.34-5.24-1.8-10.74-2.98-16.37-3.54-5.63-.56-11.37-.49-17.11.16l-4.3.6-4.29.82c-1.4.34-2.86.66-4.21,1.01l-1.9.57c-.63.19-1.27.36-1.9.62-10.21,3.6-20,10.2-27.51,18.38-3.75,4.1-6.9,8.63-9.22,13.33l-.86,1.77c-.27.59-.47,1.2-.72,1.79-.23.61-.49,1.17-.71,1.82l-.66,2.03c-.48,1.35-.77,2.7-1.17,4.05-.31,1.36-.65,2.71-.88,4.07-.83,4.46-1.18,9.01-1,13.63.02,1.15.16,2.31.22,3.48.15,1.16.25,2.33.45,3.5.2,1.17.37,2.35.64,3.52l.19.88.02.12h0s0,.03,0,.03v.08c0,.43.03.87.06,1.31.06.88.11,1.75.33,2.52l.84,2.88.95,2.89"/>
    <g id="stroke">
      <path class="cls-4" d="M46.86,106.45c.09.58.15.92.15.92-2.3.32-4.96.62-7.24,1.53-2.29.92-4.11,2.46-4.68,5.39-2.47-1.5-5.25-1.66-7.66-.71-2.39.94-4.45,3.07-5.35,5.96,0,0-1.19.11-2.64.45-1.45.35-3.16.92-4.19,1.92-1.02.99-1.6,2.69-1.83,4.34-.22,1.63-.13,3.24.07,4.09.78,4.62,1.95,8.33,3.37,11.65.71,1.68,1.5,3.23,2.32,4.82.85,1.54,1.73,3.14,2.69,4.73,6.79,9.75,14.6,17.52,24.88,18.19,4.71.35,6.65,10.41,18.59,3.35,5.98-3.53,9.1-7.01,10.29-11.24,1.2-4.23.44-9.2-1.15-15.54-.74-2.99-1.64-5.87-2.72-9-1.07-3.03-2.26-6.39-3.69-10.43-1.07-4.07-2.47-8.3-3.75-12.3-1.29-4.01-2.46-7.78-3.31-11.08-.2-.81-.4-1.61-.59-2.38-.05-.19-.08-.38-.12-.57l-.44-2.03c-.17-1.04-.39-2.08-.49-3.1-.3-2.05-.38-4.04-.4-6.02.04-3.96.48-7.87,1.56-11.9.29-1.01.51-2.01.88-3.04l.49-1.54c.16-.44.32-.78.47-1.17l.43-1.15.57-1.16c.19-.39.35-.78.55-1.17l.68-1.17c3.56-6.28,9.49-12.4,16.06-16.82,3.28-2.22,6.72-4.05,10.06-5.37l1.25-.47c.41-.16.83-.34,1.22-.43l1.18-.36c.41-.12.72-.26,1.28-.37,1.01-.24,2.02-.49,3.03-.73,1.02-.2,2.04-.39,3.06-.59,8.13-1.4,15.94-1.45,23.04-.21,7.09,1.26,13.45,3.73,18.88,7.06,10.84,6.76,17.95,16.96,21.62,28.21.27.68.45,1.41.65,2.12.2.71.43,1.41.61,2.12.17.72.34,1.44.5,2.16.08.36.18.7.25,1.08l.21,1.18c.14.78.29,1.56.43,2.33.11.72.17,1.29.26,1.94.09.63.19,1.25.28,1.87.01.57.03,1.13.06,1.69.22,4.48-.36,8.63-1.48,12.34-2.26,7.44-6.51,13.02-10.96,16.78-.57.46-1.12.92-1.65,1.38-.56.42-1.16.78-1.7,1.17-1.05.84-2.24,1.4-3.29,2.03-.26.16-.52.31-.77.47-.26.12-.52.23-.78.35-.51.23-.99.46-1.46.69-.47.23-.93.48-1.27.56-.36.12-.71.24-1.03.37-.28.13-.65.21-1,.3-.36.09-.72.2-1.09.31-.76.18-1.57.31-2.4.49-.43.04-.87.09-1.32.15-.22.03-.45.06-.68.1-.24,0-.47.02-.71.02-.48.02-.97.05-1.46.09-.51-.02-1.03-.03-1.56-.03-4.22-.08-9.37-1.1-14.93-3.4-5.52-2.36-11.42-6.08-16.49-11.1-5.08-4.98-9.21-11.26-11.21-17.61-.54-1.59-.86-3.18-1.14-4.76-.15-.79-.31-3.54-.31-3.54v-.22s-.02-.12-.02-.12c-.01-.1-.02-.12,0-.11.01.01.02-.25.02-.25,0-.22.09-.41.11-.61l.03-.31c.04-.1.07-.2.1-.3.07-.19.05-.41.16-.6.21-.81.66-1.63,1.19-2.53.24-.46.63-.9.95-1.39.21-.23.42-.46.61-.71.18-.25.47-.47.68-.71.96-.95,2.08-1.93,3.41-2.81,1.33-.88,2.81-1.69,4.38-2.38,1.57-.71,3.25-1.21,4.91-1.62,3.34-.83,6.65-.85,9.1-.41,1.23.21,2.25.54,3.01.92.38.21.68.32,1.18.69.11.08.25.14.34.22.08.07.16.14.24.21.08.06.17.12.26.18l.14.08.1.12c.14.16.29.29.47.42.17.19.36.45.56.65.1.12.21.18.31.34l.32.45.34.44.18.21.17.28c.23.37.47.74.71,1.1.25.37.47.86.72,1.27l.37.65c.12.22.24.49.36.73l.73,1.47c1.9,4.22,3.64,9.35,5.02,14.98,1.67,4.53,3.81,9.27,6.91,8.75,4.26-.59,5.35-5.31,4.53-11.56-1.72-7.24-4.03-14.23-7.05-20.12-1.5-2.95-3.24-5.47-5.01-7.46-.42-.57-.91-.92-1.34-1.37-.41-.47-.94-.82-1.43-1.21-.26-.19-.47-.4-.75-.59l-.84-.57c-.56-.43-1.11-.65-1.65-.98-4.41-2.41-10.55-3.32-16.94-2.53-6.39.76-12.95,3.34-18.26,7.12-5.38,3.77-9.16,8.83-10.85,14.14-.16.68-.37,1.35-.52,2.04l-.17,1.04c-.07.34-.14.69-.14,1.05-.03.4-.05.63-.08.88-.02.12-.04.26-.03.4l.02.5.03,1.22c.01.43,0,.86.07,1.3.23,3.46,1,6.95,2.14,10.39,4.52,13.82,16.2,26.67,30.46,33.89,3.17,1.61,6.44,3,9.78,4.03,3.34,1.01,6.72,1.73,10.08,2.12,3.37.39,6.7.34,9.95,0,.8-.12,1.63-.14,2.42-.32l2.39-.46c1.55-.43,3.14-.8,4.57-1.37l1.11-.38c.38-.16.77-.36,1.15-.53l2.32-1.07c.79-.31,1.51-.81,2.27-1.22l2.26-1.27,2.12-1.45,1.06-.72.53-.36.49-.41,1.98-1.62c.32-.27.68-.52.98-.82l.91-.89,1.84-1.76c.58-.62,1.11-1.28,1.67-1.91,1.18-1.23,2.1-2.65,3.12-4,.54-.66.93-1.41,1.37-2.13l1.32-2.16,1.12-2.27.57-1.13c.19-.38.31-.79.47-1.18l.94-2.36c.33-.78.5-1.62.76-2.42.22-.82.55-1.6.7-2.44l.52-2.49c.08-.42.2-.83.26-1.25l.15-1.27.32-2.53c.06-.85.06-1.71.1-2.56,0-.85.14-1.7.05-2.56l-.12-2.57c-.03-.43,0-.85-.07-1.29l-.18-1.33-.34-2.66c-.13-.91-.33-1.91-.49-2.86-.3-1.97-.78-3.72-1.18-5.56-.23-.9-.5-1.79-.75-2.68l-.38-1.34-.44-1.31c-2.3-7.03-5.64-13.57-9.9-19.37-4.28-5.77-9.48-10.81-15.45-14.79-4.55-3.03-9.48-5.53-14.72-7.34-5.24-1.8-10.74-2.98-16.37-3.54-5.63-.56-11.37-.49-17.11.16l-4.3.6-4.29.82c-1.4.34-2.86.66-4.21,1.01l-1.9.57c-.63.19-1.27.36-1.9.62-10.21,3.6-20,10.2-27.51,18.38-3.75,4.1-6.9,8.63-9.22,13.33l-.86,1.77c-.27.59-.47,1.2-.72,1.79-.23.61-.49,1.17-.71,1.82l-.66,2.03c-.48,1.35-.77,2.7-1.17,4.05-.31,1.36-.65,2.71-.88,4.07-.83,4.46-1.18,9.01-1,13.63.02,1.15.16,2.31.22,3.48.15,1.16.25,2.33.45,3.5.2,1.17.37,2.35.64,3.52l.19.88.02.12h0s0,.03,0,.03v.08c0,.43.03.87.06,1.31.06.88.11,1.75.33,2.52l.84,2.88.95,2.89"/>
    </g>
  </g>
  <path class="cls-2" d="M139.81,98.26c-.63-.19-6.13,1.54-6.29,1.88-.08.18.29,1.6.86,3.01.54,1.44,1.29,2.87,1.97,3,1.36.25,1.64.02,2.14-.24.46-.24,1.34-.69,1.52-1.14.47-1.15.65-2.29.51-3.5-.14-1.05-.06-2.82-.71-3.01Z"/>
  <path class="cls-3" d="M53.14,167.98c-.09-.25-.22-.48-.38-.69-.18-.24-.4-.47-.65-.66-.24-.19-.5-.35-.76-.49-.53-.27-1.03-.45-1.48-.6-.93-.3-1.82-.61-2.7-1.03-.89-.42-1.8-.84-2.63-1.39-.83-.54-1.71-1.1-2.49-1.74-.78-.65-1.46-1.3-2.21-1.99-.76-.69-1.5-1.71-2.26-2.42-.75-.7-1.51-1.34-2.25-2.06-.75-.72-1.48-1.24-2.22-1.99-.52-.54-1.19-1.12-1.89-1.88-.57-.61-1.11-1.41-1.74-2.15-.56-.68-1.15-1.4-1.75-2.12-.14-.18-.28-.37-.42-.56-.13-.2-.27-.39-.4-.59-.27-.4-.54-.8-.82-1.17l-.84-1.12c-.27-.39-.54-.77-.8-1.15-.27-.4-.53-.8-.79-1.2-.25-.4-.52-.78-.74-1.18-.25-.44-.5-.88-.74-1.31-.23-.43-.45-.85-.65-1.24-.27-.48-.52-.9-.74-1.29-.23-.39-.44-.75-.61-1.12-.12-.25-.32-.67-.56-1.19-.25-.52-.56-1.14-.92-1.79-.26-.48-.58-1.03-.94-1.55,0-.05-.01-.11-.01-.16,0-.25-.12-.5-.13-.73-.01-.24-.06-.47-.05-.69,0-.22.1-.42.13-.64.02-.22.15-.42.18-.63.03-.21-.2-.52-.16-.74.04-.22.29-.37.34-.58.05-.22-.08-.5-.03-.72.05-.22.31-.4.33-.63.03-.23-.02-.46,0-.68.03-.23-.02-.48.03-.71.05-.2.09-.39.13-.57.05-.2.1-.39.14-.56.06-.2.18-.35.23-.52,0-.02.01-.04.02-.06,0,0,.01,0,.02,0,.02,0,.05,0,.08,0l-.07-.1c.04-.12.09-.23.11-.34l-.13-.19h-.04c-.1.02-.22,0-.32-.01l-.04-.06s-.01.04-.02.05c-.07-.01-.15-.03-.2-.01-.2.05-.35.15-.44.23h-.08s-.02,0-.02.01c-.03-.03-.06-.05-.13-.06-.06-.02.05-.09.01-.1-.18-.02-.36.12-.52.16-.16.04-.39-.13-.56-.06-.17.07-.29.23-.44.32-.15.09-.35.09-.49.21-.14.12-.23.31-.35.45-.12.13-.22.32-.32.49,0,0,.01.09.02.21,0,.12,0,.29-.05.45-.04.16-.14.35-.18.56-.03.18-.21.32-.25.51-.05.25.06.51.02.65-.07.18-.13.29-.2.48-.05.13-.06.28-.11.52-.05.23-.21.4-.25.64-.04.23-.07.48-.1.72-.03.24-.02.5-.04.75h0c-.04.37-.06.99-.03,1.76-.03.18-.09.36-.06.55.04.26.08.55.16.81,0,.03.02.05.04.07.08.67.19,1.46.36,2.33.16.86.48,1.98.81,3.01.29.86.77,1.64,1.17,2.57.36.83.67,1.8,1.13,2.7.42.83.78,1.6,1.27,2.45,0,0,.68.91,1.49,2.21.4.64.68,1.36,1.18,2.14.44.7.96,1.45,1.44,2.16.61.92,1.23,1.48,1.59,2.01.53.75.9,1.28,1.42,2.03.37.51.68,1.23,1.32,2.09.65.87,1.42,1.71,2.12,2.54.7.81,1.48,1.57,2.25,2.32.77.75,1.52,1.43,2.35,2.08.83.65,1.7,1.15,2.59,1.68.89.53,1.79,1.08,2.73,1.52.94.43,1.9.87,2.88,1.19.98.31,1.75.69,2.75.91,1,.22,2.08.34,3.1.42,1.03.08,2.19-.01,3.21-.11.3-.03.59-.08.88-.13.29-.06.57-.13.85-.19l.44-.47c.02-.29-.03-.57-.12-.82Z"/>
</svg>