<?xml version="1.0" encoding="UTF-8"?>
<svg id="Layer_1" data-name="Layer 1" xmlns="http://www.w3.org/2000/svg" viewBox="0 0 68.6 69">
  <defs>
    <style>
      .cls-1 {
        fill: none;
        stroke: #5e0015;
        stroke-miterlimit: 10;
        stroke-width: 1.5px;
      }
    </style>
  </defs>
  <path class="cls-1" d="M67.85,31.02c0,9.61-1.37,21.67-11.11,28.7-9.75,7.03-17.03,8.53-25.7,8.53C12.76,68.25.75,50.84.75,32.56.75,22.38,6.3,14.96,13.52,9.24,19.26,4.7,25.7.75,33.79.75c18.28,0,34.06,11.99,34.06,30.27Z"/>
  <path class="cls-1" d="M11.5,59.7c4.07,3.72,8.05,6.65,14.43,8.03,3.51.76,9.24.89,8.37-.19-.69-.85-1.37-3.52-1.87-4.49-1.06-2.06-2.12-4.11-3.18-6.17-.38-.73-.75-1.62-.33-2.32.24-.41.69-.63,1.04-.95.96-.86,1.1-2.41.55-3.58-.55-1.17-1.66-2-2.85-2.51-1.23-.53-2.59-.78-3.94-.7-.58.03-1.17.13-1.69.38-2.47,1.2-2.46,5.23-4.97,6.34-.86.38-1.87.32-2.75.68-1.14.47-1.9,1.61-2.2,2.8-.31,1.19-.62,2.68-.62,2.68Z"/>
  <path class="cls-1" d="M59.65,11.05c1.93,1.8.75,3.77.15,6.05-.47,1.78-.39,3.7.23,5.43.86,2.4,2.72,4.47,2.97,7.01.13,1.31-.2,2.66.04,3.96.11.57.25,3.17.1,3.8-.47,2.03-.62,4.14-.46,6.21.12,1.46.66,3.2,2.09,3.51.24.05.67-.05.71.2s-.34,1.09-.63,1.66c-.77,1.54-1.72,2.96-2.04,2.17s-1.01-1.5-1.86-1.59c-.86-.09-1.65.43-2.35.94-.53.39-1.06.8-1.42,1.34-.38.58-.54,1.28-.9,1.87-3.04,5.08-5.93-2.34-7.28-4.18-.96-1.31-2.28-2.3-3.58-3.26-1.14-.85-2.33-1.72-3.73-1.98-.79-.15-1.6-.09-2.39-.24-1.26-.23-2.69-1.25-3.69-2.92s-1.22-8.29,3.1-8.29c.73-.11,1.48-.08,2.2-.23s1.46-.56,1.73-1.24c.14-.35.15-.74.1-1.11-.34-2.83-2.51-3.37-4.97-3.57-1.37-.11-2.59-.18-3.85-.77-1.74-.82-3.3-1.96-4.85-3.08-.9-.65-1.88-1.43-2-2.54-.12-1.05.58-2,1.04-2.96,1.41-2.93.8-6.39,1.81-9.45.31-.94.43-2.13,1.14-2.85,1.09-1.09,3.02-1.25,4.46-1.27,2.15-.02,5.87,1.55,7.92,1.68s4.86-1.8,6.5-1.2c3.3,1.22,8.18,5.49,9.67,6.88Z"/>
  <path class="cls-1" d="M9.54,15.13c.58.56.91,1.32,1.15,2.09.66,2.06.97,4.47,2.7,5.78.98.75,2.26.98,3.33,1.59s1.97,1.94,1.41,3.04c-.15.29-.37.52-.58.77-1.14,1.39-1.54,3.39-.95,5.09.46,1.32,1.46,2.48,1.56,3.87.09,1.3-.66,2.56-1.71,3.35s-2.33,1.17-3.62,1.41c-1.08.2-2.17.31-3.27.33-.55,0-1.13,0-1.64.22-1.04.44-1.47,1.65-1.91,2.69s-1.22,2.18-2.35,2.15c-.25,0-.5-1.52-.57-1.71-1.57-4.85-2.08-9.67-2.09-14.77,0-3.29,1.13-9.26,4.32-13.24.89-1.11,1.46-2.61,2.83-2.99,0,0,.79-.23,1.37.33Z"/>
</svg>