<?xml version="1.0" encoding="UTF-8"?>
<svg id="Layer_1" data-name="Layer 1" xmlns="http://www.w3.org/2000/svg" viewBox="0 0 91.14 166.29">
  <defs>
    <style>
      .cls-1 {
        fill: #ffc0c4;
      }

      .cls-2 {
        fill: #ffd2d4;
      }

      .cls-3 {
        fill: #550017;
      }

      .cls-4 {
        fill: #ffc1c5;
      }
    </style>
  </defs>
  <g>
    <g>
      <path class="cls-2" d="M24.52,67.5c.1,1.1,1.26,5.86,1.26,5.86,6.58-5.09,11.51-6.47,15.38-4.95,2.53,1,3.8,6.61,6.4,6.52.97-.03,4.31-3.92,7.21-4.62,4.82-1.18,11.91,1.28,15.47,5.53,0,0,5.59-1.76,9.72-.15,4.13,1.61,6.94,7.25,7.32,9.47,3.31,11.93,3.1,20.2,2.84,30.79-1.76,16.66-3.78,28.39-18.4,43.13-8.32,8.38-38.29,10.13-54.66-6.71-6.14-6.32-10.31-13-12.74-23.9-.33-1.48,1.68-13.07,1.39-14.82-2.8-14.24-3.01-29.92-3.01-36.8,0-6.88-6.82-75.38,7.02-76.14,14.83-.82,11.65,14.79,11.82,33.47.44,4.91.88,9.81,1.32,14.72.34,3.74.67,7.49,1.01,11.23.28,3.07.81,8.98.87,11.93.08,3.69.59,4.93.67,8.62l-.88-13.18Z"/>
      <path class="cls-3" d="M26.09,72.85c.07,1-.02,1.78,0,2.4.03.85.18,1.54.22,2.39.03.62-.06,1.27.01,2.27.02.25.02.48.01.7l-1.87.08c.05-.61.15-1.08.13-1.51-.03-.82-.32-1.48-.4-2.3-.05-.58.04-1.25-.05-2.25-.09-1-.16-1.71-.18-2.29-.03-.83-.14-1.38-.19-2.21-.04-.57-.04-1.27-.11-2.25-.07-.98-.2-1.7-.24-2.27-.06-.82.25-1.35.19-2.18-.04-.57-.18-1.31-.26-2.28-.09-.98-.22-1.66-.25-2.24-.06-.83-.1-1.43-.16-2.26-.03-.58-.2-1.24-.29-2.22-.09-.98-.14-1.62-.19-2.2-.09-.82.07-1.52-.02-2.34-.05-.58-.11-1.22-.21-2.2-.09-.98-.25-1.66-.29-2.24-.03-.82-.05-1.4-.09-2.22-.04-.58-.17-1.29-.26-2.27-.09-.99-.12-1.72-.2-2.3-.11-.81-.41-1.17-.52-1.98-.08-.59.16-1.43.06-2.47,0-1.05-.16-1.72-.14-2.31.04-.82.23-1.3.27-2.11.03-.58.11-1.38.13-2.37.02-.98-.05-1.71-.05-2.29,0-.83-.23-1.35-.23-2.18,0-.58.12-1.3.13-2.28,0-.98-.06-1.68-.06-2.25,0-.82.26-1.38.24-2.21-.01-.57-.04-1.28-.1-2.25-.07-.98-.15-1.76-.24-2.32-.13-.8-.33-1.3-.52-2.08-.06-.28-.15-.56-.26-.89-.1-.33-.22-.7-.37-1.15-.29-.9-.68-1.46-.91-1.94-.37-.66-.6-1.14-1.11-1.7-.18-.19-.32-.46-.56-.7-.11-.13-.23-.27-.38-.41-.16-.12-.33-.25-.52-.37-.81-.47-1.45-.56-1.96-.74-.38-.09-.72-.16-1.06-.2-.35-.02-.69-.05-1.08-.1-.55-.04-1.21-.2-2.17-.16-.93.04-1.29.5-1.7.72-.57.36-1.11.71-1.56,1.32-.32.42-.53,1.04-.96,1.86-.4.84-.79,1.42-.97,1.95-.27.76-.55,1.27-.76,2.06-.15.55-.33,1.2-.54,2.15-.21.95-.14,1.67-.25,2.23-.16.8-.15,1.44-.29,2.25-.09.56-.45,1.16-.56,2.13-.11.97-.08,1.67-.13,2.25-.07.82.09,1.4.04,2.23-.04.57-.2,1.27-.25,2.25-.06.98-.34,1.58-.38,2.15-.06.82-.11,1.4-.17,2.22-.04.58.33,1.37.3,2.35-.02.98-.06,1.64-.06,2.21,0,.83,0,1.41,0,2.24,0,.57-.25,1.3-.25,2.28,0,.98.22,1.68.22,2.26,0,.83-.2,1.4-.19,2.23,0,.58.32,1.27.34,2.25.03.98-.3,1.73-.28,2.31.04.83.24,1.36.28,2.19.03.58.15,1.27.19,2.25.05.98.09,1.68.13,2.25.04.82,0,1.41.04,2.24.03.58.2,1.26.25,2.24.06.98.11,1.61.14,2.18.06.82-.09,1.5-.03,2.32.03.58.07,1.26.12,2.24.06.99.11,1.65.12,2.23.02.82.25,1.56.27,2.38.01.58-.27,1.16-.21,2.15.06.99.24,1.68.29,2.25.08.82-.02,1.53.04,2.36.04.61.17,1.17.18,2.16,0,.99.22,1.79.21,2.37-.02.82-.41,1.18-.42,2-.01.58.21,1.38.24,2.36.03.98-.06,1.71-.03,2.28.05.83.19,1.37.24,2.2.04.57.01,1.27.07,2.25.05.98.09,1.66.12,2.23.04.83.32,1.42.38,2.25.04.57.07,1.24.17,2.22.09.97-.14,1.65-.09,2.23.08.82.2,1.42.28,2.24.06.57.03,1.3.15,2.27.14.98.53,1.56.63,2.13.15.8.26,1.4.4,2.2.11.56.05,1.31.24,2.28.1.48.18.89.25,1.25.09.32.11.84.1,1.09-.03.87.04,1.46-.04,2.3-.06.58-.37,1.25-.49,2.22-.12.98-.17,1.57-.26,2.14-.14.8-.24,1.38-.38,2.19-.1.57-.03,1.39-.13,2.37-.1.96-.22,1.66-.22,2.2-.01.21,0,.36.03.48.01.13.09.33.14.48.1.33.21.66.3,1.06.13.56.27,1.24.52,2.18.28.93.44,1.62.62,2.16.29.77.59,1.24.91,1.99.21.53.2,1.29.6,2.18.37.9.84,1.48,1.08,1.99.4.71.72,1.16,1.15,1.86.29.49.69,1.04,1.21,1.85.52.81.83,1.42,1.14,1.89.48.66.86,1.11,1.37,1.75.34.46.7,1.04,1.33,1.78.65.73,1.22,1.1,1.62,1.5.57.59.89,1.12,1.49,1.67.41.39.97.78,1.71,1.39.72.64,1.18,1.15,1.63,1.5.64.51,1.03.92,1.71,1.39.46.34,1.22.45,2.05.94.81.52,1.32,1,1.81,1.28.71.41,1.32.5,2.05.87.5.26,1.14.51,2.03.89.9.36,1.54.49,2.07.68.77.25,1.33.47,2.11.7.55.14,1.18.51,2.12.76.95.21,1.59.35,2.15.47.8.16,1.43.21,2.24.34.56.09,1.21.32,2.17.41.97.12,1.72.03,2.28.07.81.09,1.37.18,2.18.23.57.04,1.22,0,2.19,0,.98,0,1.63.03,2.21,0,.8-.09,1.53-.02,2.33-.13.57-.1,1.14-.13,2.11-.28.96-.13,1.61-.23,2.17-.33.81-.13,1.35-.54,2.15-.71.54-.16,1.16-.4,2.06-.72.91-.29,1.58-.17,2.12-.36.75-.3,1.3-.5,2.01-.88.51-.24,1-.91,1.75-1.45.75-.54,1.4-.75,1.82-1.15.56-.61.96-1.04,1.52-1.65.4-.41.74-1.05,1.36-1.8.64-.74,1.21-1.15,1.58-1.59.52-.64.73-1.16,1.23-1.81.34-.46,1.03-.85,1.58-1.66.56-.8.64-1.5.95-1.97.42-.7.87-1.18,1.29-1.89.3-.48.56-1.13,1.01-1.98.47-.85.68-1.51.9-2.03.34-.74.6-1.25.92-1.99.21-.52.53-1.14.89-2.03.34-.91.68-1.51.89-2.05.3-.76.38-1.39.64-2.17.17-.54.4-1.14.62-2.09.22-.95.65-1.63.74-2.2.15-.81-.09-1.34.05-2.14.09-.57.29-1.28.45-2.24.16-.97.47-1.62.55-2.19.12-.82.16-1.4.26-2.22.07-.57.06-1.28.17-2.25.11-.98-.04-1.72.03-2.3.02-.1.03-.2.05-.29l.03-.14s.01-.01.02-.07l.1-.52c.07-.34.14-.68.16-1.1,0-.58,0-1.28,0-2.26.01-.98-.14-1.61-.15-2.18-.02-.82.27-1.55.24-2.37-.01-.58-.31-1.2-.33-2.17-.03-.98-.06-1.73-.08-2.3-.03-.82.3-1.28.26-2.11-.04-.57-.08-1.33-.19-2.3-.09-.97-.26-1.64-.33-2.21-.09-.82-.4-1.39-.52-2.2-.07-.57.13-1.28-.04-2.25-.19-.97-.66-1.57-.77-2.13-.19-.8-.08-1.43-.27-2.23-.15-.56-.43-1.19-.68-2.13-.2-.97-.37-1.61-.6-2.14-.35-.72-.74-1.07-1.16-1.74-.29-.47-.63-1.07-1.21-1.81-.57-.74-.86-1.28-1.24-1.68-.57-.54-1.08-.87-1.74-1.27-.45-.3-1.12-.42-1.99-.65-.88-.23-1.54-.38-2.09-.41-.79,0-1.43-.15-2.24-.07-.56.07-1.1.47-2.03.64-.4.08-.76.13-1.08.17-.11.01-.4.07-.64.12-.23.06-.45.11-.66.16-.09-.11-.18-.2-.26-.29-.21-.23-.41-.44-.61-.65-.12-.13-.25-.24-.38-.34-.26-.21-.5-.44-.82-.69-.42-.35-.91-.79-1.71-1.29-.4-.25-.73-.49-1.03-.69-.29-.21-.56-.39-.81-.5-.73-.34-1.27-.51-2.03-.76-.53-.17-1.2-.22-2.12-.4-.92-.19-1.58-.26-2.13-.28-.79-.04-1.34-.02-2.11.07-.54.09-1.18.11-1.96.47-.81.38-1.33.63-1.81.92-.67.43-1.14.89-1.79,1.38-.48.34-1.11.78-1.92,1.36-.23.17-.63.38-.95.41-.84.03-1.31-.31-1.71-.57-.73-.6-1.17-1.02-1.66-1.72-.34-.49-.77-1.08-1.29-1.88-.53-.79-.91-1.25-1.28-1.56-.26-.23-.46-.41-.68-.57-.29-.15-.61-.33-.98-.4-.52-.13-1.17.02-2.05.01-.9,0-1.56.17-2.08.27-.75.16-1.31.15-2.07.41-.52.2-1.17.4-2.03.83-.88.46-1.13.95-1.6,1.29-.63.45-1.47.81-2.07,1.31l-.18.14c-.09.06-.18.13-.28.2-.23.16-.47.34-.73.52-.25.18-.53.37-.82.58-.15.11-.3.22-.46.33-.14.07-.39.4-.38.04-.15-.62-.38-1.2-.62-1.88-.12-.35-.23-.68-.34-.98-.07-.17-.12-.34-.14-.49-.12-.72-.03-1.29-.05-1.83-.03-.64.25-.53.3-.91.06-.48.07-1.04.2-1.05.13-.01.28-.09.48.25.16.27.31,1.05.53,1.6.18.46.27.93.47,1.6.04.14.09.26.15.38.05.1.09.07.13.1.08.03.14,0,.15.03,0,.02.01.03.02.04.02-.01.03-.04.05-.06.03-.04.04-.07.05-.07.02-.01,0,.02.06,0,.14-.08.27-.15.41-.22.27-.14.51-.27.76-.42.5-.29.95-.67,1.58-1.01.46-.27.96-.5,1.62-.85.92-.46,1.63-.49,2.19-.7.81-.28,1.42-.6,2.28-.77.6-.1,1.34-.12,2.37-.13,1.04,0,1.72-.19,2.36-.05.45.08.83.24,1.22.39.2.09.43.23.64.34.19.14.38.29.58.44.52.45.98,1.09,1.54,1.94.55.85.77,1.48,1.08,1.95.44.67.99,1.02,1.46,1.43.22.17.5.45.74.48.11,0,.12.03.36-.13.72-.49,1.17-1.18,1.62-1.52.66-.52,1.24-.58,1.93-1.07.49-.34,1.13-.79,2.07-1.25.98-.46,1.88-.57,2.46-.67.85-.12,1.27-.46,2.16-.46.62.01,1.41.26,2.41.46,1.02.2,1.61.43,2.17.63.4.14.79.24,1.17.37.39.11.77.24,1.15.44.54.27,1.08.7,1.96,1.23.87.53,1.55.85,2.01,1.24.34.27.59.55.85.82.25.25.54.62.61.7.03.03.06.07.1.09.05-.02.11-.04.17-.07.07-.03.06-.03.26-.09.32-.09.67-.19,1.08-.27,1.01-.19,1.76-.16,2.35-.24.84-.1,1.43-.18,2.29-.18.61.02,1.37-.08,2.43.18,1.05.25,1.88.6,2.42.95.79.48,1.1.98,1.75,1.57.43.43,1.04.88,1.68,1.69.64.81.95,1.48,1.27,1.99.44.74.79,1.25,1.15,2.04.23.56.6,1.2.83,2.3.22.84.27,1.65.4,2.18.18.82.23,1.39.41,2.21.11.57.16,1.29.35,2.26.17.98.58,1.56.68,2.14.14.82.26,1.41.38,2.24.09.58.27,1.31.36,2.3.1.99.16,1.66.22,2.24.08.84-.2,1.51-.14,2.34.02.58.12,1.25.15,2.23.02.99.2,1.7.2,2.28,0,.84-.11,1.4-.13,2.23,0,.58,0,1.28.01,2.27-.02.99.07,1.74.05,2.31-.05.85-.34,1.26-.44,2.17-.07.57.07,1.35-.04,2.32-.11.98-.11,1.7-.18,2.28-.1.83-.46,1.34-.59,2.17-.09.57.05,1.31-.1,2.29-.16.98-.55,1.7-.63,2.28-.14.82,0,1.35-.13,2.17-.09.58-.19,1.31-.42,2.27-.22.98-.74,1.65-.9,2.21-.22.81-.21,1.38-.48,2.18-.18.56-.18,1.27-.52,2.21-.38.93-.91,1.41-1.14,1.95-.33.77-.48,1.44-.85,2.2-.25.53-.54,1.17-1.02,2.04-.48.88-.8,1.63-1.14,2.11-.47.7-.85,1.11-1.31,1.8-.35.47-.78.96-1.35,1.77-.56.83-.82,1.37-1.17,1.85-.49.67-.86,1.16-1.36,1.83-.37.46-.94,1.01-1.6,1.76-.64.76-1.13,1.29-1.55,1.7-.59.59-.96,1.13-1.55,1.72-.19.21-.49.38-.82.57-.32.21-.69.42-1.1.72-.4.32-.79.53-1.13.72-.33.2-.64.34-.9.48-.74.42-1.22.76-1.99,1.13-.55.21-1.11.72-2.08,1.02-.96.34-1.7.21-2.26.37-.82.19-1.4.29-2.23.44-.57.09-1.26.56-2.25.69-1,.16-1.82-.08-2.4,0-.83.11-1.26.39-2.1.48-.58.04-1.35.19-2.35.2-1.01,0-1.77-.12-2.36-.17-.84-.06-1.35-.23-2.18-.33-.58-.06-1.32.07-2.31-.05-.99-.1-1.68-.51-2.26-.59-.83-.1-1.37.1-2.21-.03-.58-.09-1.26-.57-2.23-.79-.96-.24-1.67-.34-2.24-.48-.81-.25-1.38-.42-2.18-.66-.55-.2-1.25-.35-2.18-.71-.92-.4-1.64-.56-2.17-.82-.76-.38-1.2-.79-1.94-1.2-.51-.29-1.26-.41-2.12-.93-.86-.53-1.4-.91-1.89-1.25-.71-.47-1.17-.97-1.83-1.49-.47-.36-1.01-.78-1.75-1.45-.77-.66-1.13-1.08-1.53-1.52-.56-.6-1.09-1.04-1.62-1.67-.39-.44-1.09-.85-1.77-1.6-.65-.76-.88-1.49-1.23-1.95-.53-.65-1.09-.96-1.59-1.64-.35-.47-.5-1.23-1.04-2.06-.54-.83-1.16-1.3-1.44-1.82-.43-.73-.41-1.38-.81-2.12-.25-.53-.83-1.04-1.23-1.96-.41-.93-.56-1.61-.8-2.15-.35-.75-.62-1.19-.94-1.96-.23-.55-.26-1.39-.57-2.35-.26-.96-.72-1.57-.85-2.14-.1-.41-.19-.75-.28-1.1-.04-.17-.09-.35-.13-.53-.04-.18-.09-.6-.08-.8,0-.67.07-1.37.17-2.37.11-1,.49-1.55.58-2.13.14-.8.02-1.65.16-2.46.1-.57.44-1.09.56-2.08.12-.97.14-1.67.19-2.24.08-.82.22-1.4.25-2.19,0-.13,0-.28-.04-.43-.04-.13-.06-.22-.13-.39-.14-.35-.28-.75-.37-1.23-.18-.97-.15-1.69-.23-2.26-.12-.83-.06-1.4-.17-2.22-.07-.57-.45-1.26-.59-2.23-.13-1,0-1.81-.11-2.39-.15-.8-.22-1.42-.36-2.22-.1-.58-.11-1.15-.2-2.15-.1-.99-.48-1.76-.5-2.35-.03-.82.09-1.32.08-2.14-.01-.58-.09-1.27-.15-2.26-.05-.99-.09-1.67-.14-2.25-.07-.82-.12-1.41-.2-2.24-.04-.58-.09-1.29-.12-2.28-.03-1-.16-1.84-.14-2.43.02-.82.18-1.3.21-2.11.02-.58.24-1.25.23-2.24,0-.98-.29-1.64-.32-2.18-.05-.8-.12-1.38-.19-2.2-.04-.58-.1-1.34-.17-2.31-.06-.98.13-1.74.08-2.31-.07-.83-.3-1.34-.37-2.16-.03-.58-.07-1.29-.12-2.27-.06-.99-.17-1.74-.18-2.33-.02-.82.08-1.35.07-2.17,0-.58-.15-1.27-.2-2.27-.05-.98.13-1.67.11-2.25-.03-.83-.19-1.44-.22-2.27-.02-.58.13-1.27.09-2.25-.04-1-.32-1.56-.38-2.14-.07-.81-.12-1.42-.19-2.23-.05-.58-.1-1.38-.13-2.38-.02-.99-.12-1.83-.11-2.41.02-.82.45-1.14.47-1.96.01-.58-.02-1.42-.03-2.41,0-.98-.06-1.67-.06-2.25,0-.83-.24-1.45-.22-2.28,0-.58.24-1.26.25-2.24.03-.99-.06-1.68-.05-2.26.02-.83.03-1.42.04-2.25.01-.58.18-1.28.23-2.27.06-.99.15-1.68.2-2.26.06-.83.11-1.42.17-2.25.06-.58-.07-1.29.04-2.28.11-.99.31-1.67.39-2.25.12-.83.03-1.44.17-2.27.1-.58.53-1.21.74-2.18.21-.97.26-1.66.43-2.22.23-.81.18-1.54.48-2.35.21-.56.6-1.12,1.04-2.04.46-.93.97-1.56,1.34-2.06.52-.7.71-1.27,1.51-1.84.56-.39,1.53-.57,2.62-.6.51-.02.93-.04,1.29-.05.37,0,.68.01.98.04.85.1,1.57.14,2.41.39.59.19,1.32.33,2.28.85.95.55,1.43,1.3,1.86,1.74.62.62,1.03,1.03,1.51,1.77.15.27.33.55.54.89.17.35.39.74.55,1.24.33.98.53,1.66.67,2.24.19.85.13,1.5.25,2.34.08.58.23,1.27.31,2.27.06,1,.07,1.7.09,2.29.02.84-.05,1.42-.04,2.26-.01.58-.03,1.29-.06,2.28,0,.99.08,1.68.06,2.26-.01.83-.02,1.42-.04,2.25-.02.58-.1,1.27-.12,2.25-.02.98-.16,1.69-.16,2.27,0,.83.23,1.39.23,2.21,0,.57.02,1.28.03,2.25.08.95.14,1.63.19,2.19.07.83.11,1.41.18,2.24.05.58-.04,1.27.05,2.25.11.98.19,1.67.25,2.25.06.83.28,1.44.34,2.27.04.58-.21,1.25-.12,2.22.09.98.4,1.58.47,2.16.11.82.19,1.4.3,2.21.07.57-.03,1.36.06,2.34.09.99.03,1.59.06,2.17.04.82.25,1.54.29,2.35.03.58-.07,1.24.02,2.23.09.98.16,1.71.22,2.29.09.82.41,1.28.5,2.11.06.58-.06,1.36,0,2.34.07.99.21,1.66.26,2.24.06.83-.11,1.51-.07,2.34.02.57.13,1.2.21,2.16.09.96.19,1.64.25,2.22.09.83.29,1.45.34,2.3.03.47-.13,1-.19,1.69l-1.25.05c0-.18,0-.38,0-.59-.07-1.01-.3-1.75-.37-2.35-.11-.81-.25-1.35-.36-2.16-.08-.6-.15-1.33-.22-2.34-.05-.74-.27-1.64-.27-2.22,0-.7.21-1.16.27-1.63.07-.55.26-.6.37-.89.14-.35.23-1.02.35-1.03.13,0,.33-.11.49.19.14.25.17,1.45.3,1.99.11.44.32.63.4,1.3.07.53.3,1.16.34,1.86Z"/>
    </g>
    <g>
      <path class="cls-4" d="M16.61,17.96c-.9.61-10.08-.05-10.46-.61s.26-10.87,2.31-11.78c2.04-.91,2.56-.61,3.42-.33.79.25,2.31.71,2.75,1.42,1.13,1.82,1.77,3.68,1.98,5.81.18,1.87.91,4.87.01,5.48Z"/>
      <path class="cls-4" d="M16.42,17.75c-.06.01-.14.09-.24.08-.09,0-.2.12-.31.11-.11-.02-.21,0-.32-.02-.11-.02-.21-.24-.31-.25-.1,0-.21.32-.32.31-.11,0-.2-.35-.31-.36-.11-.01-.21-.09-.31-.1-.1,0-.22.36-.33.35-.11,0-.21.02-.32,0-.11,0-.2-.22-.31-.23l-.32-.02c-.11,0-.22.06-.32.05s-.21-.1-.31-.1c-.11,0-.21.02-.32.02s-.22.14-.32.14-.22,0-.33,0c-.13-.01-.23-.27-.36-.29-.13-.02-.27.12-.4.09-.13-.03-.24-.14-.37-.15-.13-.01-.26-.04-.39-.01-.13.02-.25.22-.38.25-.13.02-.25-.2-.38-.21-.13-.01-.31.27-.43.23-.12-.04-.22-.19-.35-.23-.12-.04-.22-.21-.34-.23-.12-.02-.27.16-.4.15-.13,0-.26.01-.38,0-.12-.01-.22-.22-.33-.25-.07-.02-.03-.2-.04-.23,0-.02-.22.16-.29.12,0,0-.01,0-.01-.02,0-.07-.02-.12-.02-.19,0-.04.09-.08.17-.11.09-.06.17-.13.17-.18l-.02-.36c0-.12-.11-.24-.1-.37,0-.12-.21-.27-.19-.39.02-.12.05-.25.08-.38.02-.13.11-.24.12-.37,0-.13.01-.25,0-.38-.02-.12-.05-.26-.07-.39-.02-.13.18-.24.19-.37.01-.13-.12-.27-.07-.39.05-.12.05-.26.09-.38.05-.12.04-.24.06-.37.02-.13.16-.24.15-.37-.01-.13-.25-.26-.26-.39-.01-.13.27-.24.29-.36.02-.13.09-.23.13-.35.04-.12-.12-.29-.08-.41s.07-.24.1-.36c.02-.12.26-.2.29-.32.03-.12-.25-.31-.21-.43.03-.12.22-.2.25-.32.03-.12-.04-.25-.03-.38,0-.13-.1-.27-.1-.4,0-.13.31-.19.35-.31.04-.11.11-.21.17-.32.06-.11.15-.19.2-.29.06-.1-.01-.26.04-.37.05-.1.25-.12.28-.22.04-.08,0-.23.04-.3.04-.08.07-.15.11-.19.02-.02,0-.06,0-.13-.01-.07.06-.15.11-.16.12-.03.25-.04.37-.07.12-.03.34.24.44.2.11-.04.13-.33.24-.37.11-.04.28.17.37.15.1-.03.2.04.29.03.08,0,.16-.36.27-.35.11,0,.14.32.23.34.09.02.28-.24.4-.2.11.04.16.4.29.43.13.03.27-.02.39,0,.12.03.33-.22.45-.18.12.04.25.11.35.18.1.08.14.25.23.33.09.08.11.28.21.33.09.05.25-.04.35,0,.1.03.16.1.24.13.08.03.17.02.21.09.06.11.07.25.12.36.04.12.19.18.24.3.04.12.13.2.19.31.05.11.01.27.08.37.07.1.07.24.13.34.06.11.21.17.26.29.04.11.13.22.17.33.03.12-.03.27,0,.38.03.12.1.22.14.34l.12.35.08.36c.03.12.13.22.16.34.02.12-.1.27-.11.4,0,.12.1.24.1.36,0,.12-.11.25-.09.37.01.12.23.21.25.33.03.13-.28.32-.25.45.03.13.18.24.2.37.02.13.17.24.19.37.02.13-.18.29-.16.42l.06.38c.02.13-.02.26,0,.38.01.13.12.24.13.36,0,.12.01.25.02.37.01.12.05.24.05.36,0,.12.03.23.03.35,0,.12.05.22.05.34,0,.11.07.21.07.32-.02.09-.2.17-.22.2-.01.06.15.16.13.21,0,.01-.02-.02-.05-.04-.04-.04,0,0,0,0-.02-.03.1.1.12.14.04.06.07.12.1.17.08.15.22.2.33.32.07.09.25.04.42.15.07-.04-.03.03.04-.01.11-.16.31-.25.36-.36.09-.18.07-.32.11-.43.05-.12-.06-.25-.03-.4.02-.1-.01-.21-.01-.35,0-.14.36-.27.35-.37-.02-.14-.14-.24-.17-.33-.03-.1-.07-.19-.1-.32-.02-.09-.22-.17-.24-.3-.01-.13.18-.26.18-.35,0-.13,0-.23,0-.32,0-.1-.18-.18-.18-.31,0-.09.23-.22.21-.35s-.37-.17-.4-.25c-.04-.12,0-.22-.04-.3-.04-.09-.12-.18-.16-.3-.02-.08.09-.21.07-.33-.01-.12-.01-.25,0-.38,0-.13.02-.27.03-.4,0-.13-.17-.24-.18-.37-.02-.13.05-.27,0-.39-.05-.12.02-.29-.03-.42-.06-.12-.1-.24-.13-.37-.03-.13.09-.27.09-.41,0-.14-.37-.23-.37-.36,0-.14.15-.3.11-.43-.04-.13-.17-.22-.24-.33-.07-.12-.21-.2-.28-.31-.07-.11.03-.31-.02-.44-.05-.12-.23-.19-.28-.31-.06-.12.11-.35.05-.47-.06-.12-.27-.16-.33-.28-.06-.12-.28-.15-.33-.27-.06-.12.05-.33-.01-.44-.04-.09-.11-.41-.23-.52-.14-.13-.32-.19-.46-.27-.14-.07-.38.08-.51.03-.13-.05-.12-.4-.25-.45-.13-.06-.36.13-.48.07-.11-.06-.24-.14-.35-.2-.12-.06-.28.03-.41-.01-.12-.04-.16-.4-.29-.42-.13-.02-.31.21-.43.19-.13-.02-.22-.19-.36-.23-.14-.04-.29-.06-.44-.09-.15-.02-.31-.03-.46-.02-.16,0-.29.15-.42.17-.14.02-.29.02-.44.03-.14,0-.3-.13-.45-.12-.14.02-.34-.11-.47-.06-.13.05-.18.3-.29.36-.13.07-.15.23-.31.34-.17.1-.34.17-.47.29-.09.12-.36.14-.43.28-.09.13-.21.24-.28.37-.07.13.04.34-.02.47-.06.13-.12.25-.14.39-.03.13-.07.26-.09.4-.02.13.14.32.11.44-.03.12-.31.19-.34.31-.03.13.21.32.19.45-.02.13-.31.2-.33.32l-.1.38c-.03.13,0,.26-.02.39-.02.13.1.28.08.41-.02.13-.06.26-.11.38-.05.12-.14.23-.18.36-.05.12-.05.25-.06.38-.02.13.05.27.02.4-.02.13-.13.24-.15.37-.02.13.02.26,0,.39-.01.13-.16.24-.18.37-.02.13-.22.24-.23.36-.01.13.26.29.25.41-.01.13.09.24.12.37.02.14.04.25.06.39.03.13-.22.27-.22.39,0,.13.02.26,0,.39,0,.13.09.26.08.39,0,.13-.1.26-.1.38,0,.13-.1.26-.09.39,0,.13.24.25.25.38,0,.11-.15.33-.13.51.03.17.11.29.17.43l.02.04c.11.14.35.12.49.18.14.06.31.15.44.18.13.03.28-.04.4-.02.13.02.26.02.39.04.13.02.22.29.35.31.13.02.26-.02.39,0,.13.02.25.07.38.08.13.02.26-.04.39-.03.13.01.25.09.38.09.13,0,.26-.16.39-.16.13,0,.27-.11.39-.1.13,0,.24.27.37.28.13,0,.26-.12.39-.11.13,0,.25.17.37.17.11,0,.22-.24.33-.25.11,0,.21.16.32.15.11,0,.22-.1.32-.1.11,0,.21.25.32.25.11,0,.22-.34.33-.34.11,0,.21.02.32.01.11,0,.22.24.33.23.11,0,.21-.13.32-.13.11,0,.22,0,.33.02.11.02.22,0,.33.02.11.02.21.16.32.17.11.01.24.11.35.1s.19-.29.3-.31c.11-.02.2-.15.3-.18.1-.03.22,0,.32-.05.1-.04.23.01.34-.04.05-.03.02-.12.01-.15-.01-.04-.12-.16-.15-.15Z"/>
    </g>
    <g>
      <path class="cls-1" d="M32.94,70.23c-.28-.18-.67,0-.85.27s-.19.63-.2.96c-.03.88-.06,1.76.03,2.63.39,3.85,3.12,7.22,6.56,8.99s7.48,2.1,11.31,1.58c.16-.02.32-.05.44-.14.17-.12.24-.34.29-.54.7-2.91-.95-6.1-3.54-7.59-.66-.38-1.39-.68-1.9-1.25-.31-.35-.51-.78-.77-1.17-.39-.6-.89-1.12-1.39-1.64-.6-.62-1.2-1.24-1.79-1.86-.37-.38-.75-.77-1.23-.96-.54-.22-1.14-.17-1.72-.12-1.48.13-2.98.25-4.42.62s-.81.23-.81.23Z"/>
      <path class="cls-1" d="M32.69,70.36c-.23,0-.61.23-.63.63-.03.35.26.71.25,1.09,0,.38-.09.76-.07,1.13.03.37.19.7.26,1.05.05.35.05.73.14,1.09.11.34.17.7.32,1.04,0,0-.11.5.17,1.11.14.3.4.62.61.96.19.31.57.48.8.76.3.37.45.82.66,1,.31.24.54.41.86.62.23.16.43.35.81.64.37.26.82.36,1.21.57.39.22.78.42,1.19.6.41.18.81.39,1.24.53.42.14.86.28,1.3.39.44.11.88.19,1.33.26.45.07.91-.09,1.36-.05.45.05.94.06,1.4.09.44.03.82.36,1.28.36.46,0,.94-.24,1.39-.29.23-.02.45-.06.67-.11l.33-.07c.12-.01.21-.07.21-.02.12.41.22.41.08.3-.03-.02-.07-.05-.12-.08-.06-.04-.14-.07-.1-.06.01,0,.03-.02.05-.05.08-.14.17-.37.2-.57.04-.41.12-.82.07-1.24-.03-.43-.39-.81-.5-1.2-.11-.39-.18-.8-.37-1.18-.19-.37-.29-.79-.56-1.14-.27-.34-.53-.69-.87-.97-.33-.29-.75-.43-1.12-.65-.39-.22-.91-.33-1.37-.65-.48-.33-.58-1.04-.8-1.44-.26-.44-.7-.67-.97-1-.26-.34-.36-.82-.68-1.17-.32-.35-.91-.57-1.2-.94-.29-.36-.47-.76-.75-1.12-.28-.35-.47-.76-.88-.96-.35-.17-.75-.22-1.13-.22-.42,0-.82.03-1.2.06-.43.03-.82.17-1.19.21-.43.04-.83.14-1.18.18-.47.05-.93.29-1.25.34-.34.05-.65.06-.89.05-.06,0-.11,0-.16-.01h-.07s-.03,0-.03,0c.01.07.02.03.03.04.03,0,.06.02.09.03h.03s0,.02,0,.02c.03,0,.06-.03.08-.05.02-.04.03-.04.02,0,0,.02-.02.06-.07.08-.05.02-.02.01-.03.02,0,.02-.03.04-.05.06-.01.01-.03.02-.05.04,0,0-.01,0-.03.01h-.01s0,0,0,0h-.01s-.03,0-.07-.02c-.03,0-.17-.11-.13-.26.09-.19.11-.12.12-.15h0s0,0,0,0h0s.04-.03.05-.04c.04-.03.09-.06.13-.1.2-.13.48-.29.84-.41.32-.11.74-.26,1.23-.37.36-.08.85-.13,1.3-.17.38-.03.77.22,1.21.19.39-.02.78-.24,1.24-.26.41,0,.86-.12,1.39.08,0,0,.14.1.32.26.19.17.42.38.69.63.26.23.64.32.94.6.26.25.52.57.79.84.35.35.4.81.6,1.02.29.31.5.53.77.87.18.23.59.44.85.87.26.43.4.8.77,1.04.35.24.78.48,1.25.72.47.24.94.5,1.36.84.43.34.68.81,1.02,1.22.31.43.69.83.92,1.33.24.48.52.97.67,1.5.16.52.46.93.54,1.51.05.57.01,1.19-.09,1.76-.02.15-.04.28-.12.5-.08.2-.22.5-.54.74-.33.24-.64.27-.81.29-.14.01-.28.02-.42.04-.52.07-1.02-.08-1.54-.06-.51.02-1.08.34-1.6.32-.52-.01-1.02-.1-1.54-.14-.52-.04-1.04-.21-1.56-.27-.52-.06-1.03-.29-1.54-.4-.51-.11-.99-.2-1.49-.37-.49-.17-1.19-.13-1.67-.38-.47-.25-.88-.57-1.31-.87-.44-.31-.68-.75-1.09-1.06-.29-.24-.54-.61-.9-.95-.29-.28-.75-.48-1.06-.84-.29-.32-.57-.67-.84-1.04-.25-.36-.64-.68-.86-1.08-.21-.4-.37-.83-.52-1.25-.16-.43-.31-.87-.4-1.29-.11-.46-.25-.92-.29-1.33-.06-.51.14-.92.14-1.27,0-.25.05-.82.11-1.44.03-.24-.02-.51-.02-.82,0-.3.07-.67.32-.89.45-.39.95-.23,1.05-.03.09.21-.01.12-.07.1-.07,0-.16,0-.29.03-.09.04.12.09.06.11Z"/>
    </g>
    <g>
      <path class="cls-1" d="M60.97,71.46c2.33,2.03,4.87,1.84,6.78,4.27.53.68,1.17,2.68,1.54,3.46.64,1.36,1.37,3.22,1.51,4.72s.11,2.54-.88,3.67c-.13.15-.29.3-.49.33-.19.03-.38-.06-.56-.15-1.3-.72-2.23-1.96-3.04-3.21-2.49-3.84-4.4-8.3-8.2-10.84-.26-.18-.55-.35-.69-.63-.25-.48,0-1.11.44-1.42s1.01-.39,1.55-.39c1.75,0,2.05.2,2.05.2Z"/>
      <path class="cls-1" d="M61.26,71.44c.26.17.5.49.78.65.28.16.66.04.94.18.28.13.53.34.83.46.29.11.63.1.93.22.3.12.58.34.89.48.3.14.58.34.87.52,0,0,.19.43.61.83.21.2.51.41.74.69.21.24.57.46.72.76.2.4.16.82.29,1.04.17.29.3.51.47.8.12.21.18.45.35.81.17.33.49.63.66.99.17.37.32.75.47,1.13.15.38.24.79.36,1.19.12.4.21.82.28,1.25.07.45.1.83.13,1.26.02.42.24.88.15,1.38-.09.49-.29,1.06-.57,1.48-.14.21-.34.34-.54.45-.19.1-.4.24-.74.42-.17.09-.42.16-.63.15-.22,0-.4-.04-.55-.08-.29-.08-.48-.14-.68-.27-.37-.25-.76-.47-1.08-.78-.33-.31-.48-.77-.74-1.09-.27-.33-.46-.69-.68-1.03-.23-.34-.68-.57-.88-.92-.2-.35-.32-.73-.51-1.08-.19-.35-.25-.75-.45-1.09-.2-.35-.35-.71-.55-1.05-.2-.34-.5-.62-.7-.95-.2-.34-.53-.61-.73-.94-.2-.33-.08-.84-.3-1.16-.23-.32-.69-.49-.92-.79-.22-.31-.26-.74-.5-1.04-.26-.29-.76-.46-1.01-.74-.24-.29-.39-.62-.66-.89-.26-.28-.47-.61-.77-.85-.28-.2-.59-.44-.71-.79-.13-.38,0-.75.18-1.02.2-.31.47-.6.79-.7.37-.12.73-.19,1.04-.18.41.02.83-.11,1.12-.06.59.08,1.04.44.97.5.03.08-.39.2-.99.23-.26.02-.63.05-1.01.08-.27.02-.62.02-.87.1-.2.06-.55-.09-.75.16-.17.22-.05.55.01.68.05.16.28.2.57.38,0,0,.24.4.73.71.23.17.6.18.88.41.24.21.49.47.72.71.31.31.32.73.47.92.23.27.4.47.61.75.16.19.5.3.76.64.27.34.43.77.68,1.11.25.35.46.73.69,1.08.24.35.49.68.72,1.03.22.36.32.77.53,1.14.21.37.49.69.7,1.06.21.36.5.69.73,1.04.23.35.62.5.87.81.26.31.49.65.76.92.27.27.48.65.76.89.27.23.45.59.76.77.06.04.12.04.11,0,0-.03-.1-.06-.15-.07-.11-.01-.04-.15.07-.3.22-.25.42-.48.53-.77.1-.29.26-.61.25-.99,0-.36.08-.8.03-1.2-.05-.38-.17-.72-.26-1.1-.09-.39-.52-.75-.62-1.14-.1-.38-.16-.77-.28-1.16-.13-.39-.06-.78-.23-1.19-.12-.3-.12-.68-.26-1.06-.11-.31-.41-.6-.54-.94-.12-.31-.28-.63-.42-.92-.08-.15-.16-.22-.3-.32-.14-.1-.26-.21-.37-.32-.21-.23-.42-.49-.67-.69-.26-.21-.54-.4-.81-.56-.3-.19-.65-.3-.93-.45-.35-.18-.56-.5-.82-.63-.18-.1-.6-.33-1.06-.61-.35-.21-.92-.36-1.2-.61-.5-.47-.54-.87-.08-.61.1.04-.04-.16.02-.13Z"/>
    </g>
    <g>
      <path class="cls-1" d="M76.62,76.1c1.11-.12,2.39.36,3.52,1.17s1.76,2.13,2.62,3.31c1.62,2.23,3.05,4.43,3.81,7.09.07.25.11.52.02.7-.1.19-.33.23-.54.26-.47.06-.95.12-1.46-.08-1.25-.49-1.94-2.15-2.65-3.48-.75-1.4-1.76-2.65-2.75-3.89l-3.96-4.93,1.39-.15Z"/>
      <path class="cls-1" d="M76.78,75.92c.26-.05.57.07.82.1.25.03.53-.15.8-.08.26.08.48.24.72.34.24.1.52.1.75.23.23.13.42.33.64.49.22.16.4.36.6.55,0,0,.06.37.31.73.13.18.34.37.49.59.13.2.42.3.56.51.19.27.21.6.34.73.18.18.33.32.51.49.14.13.23.3.43.56.18.25.47.4.66.66l.53.77c.18.26.31.55.47.82.16.27.31.55.47.83.15.28.3.56.44.84.14.28.44.5.56.8.12.3.26.63.34.95.08.33-.09.6-.04,1.01,0,.2.11.46-.06.86-.22.43-.62.55-.8.58-.35.05-.64.16-1.05.16-.41,0-.82-.28-1.15-.46-.35-.18-.61-.46-.85-.72-.24-.25-.64-.42-.82-.71-.17-.29-.26-.61-.4-.89-.14-.28-.16-.6-.29-.88-.13-.27-.23-.56-.38-.82-.15-.26-.38-.46-.54-.71-.16-.25-.43-.45-.59-.69-.17-.25-.07-.66-.25-.91-.18-.25-.57-.35-.75-.59-.18-.24-.19-.6-.37-.84-.18-.25-.6-.39-.76-.65-.16-.26-.23-.54-.39-.8-.16-.26-.23-.57-.41-.81-.16-.22-.32-.44-.46-.64-.16-.22-.32-.43-.47-.63-.17-.22-.4-.37-.55-.56-.17-.23-.37-.41-.5-.6-.05-.08-.12-.14-.18-.21l.1-.24c.21-.05.41-.13.56-.13.45,0,.82.16.85.21.03.06-.29.31-.76.41-.16.04-.36.09-.59.14l.33-.8s.09.1.14.15c.16.17.34.43.52.66.15.19.1.53.27.76.15.2.44.32.61.54.16.2.39.32.57.53,0,0,.07.35.37.67.15.16.43.21.6.41.16.18.3.4.46.59.21.24.17.58.29.73.17.21.29.36.46.58.12.15.4.21.61.46.21.25.35.58.56.84.21.26.38.55.57.82.2.27.41.52.58.81.18.29.23.62.37.92.14.29.35.56.5.84.15.28.37.52.55.76.18.24.49.29.69.44.2.15.39.29.58.33.17.04.38.16.66.13.13-.01.29.01.44.03.13.03.18.02.09.1-.07.11-.08.08-.16,0-.07-.07-.17-.19-.21-.35-.08-.3-.12-.6-.23-.89-.11-.29-.14-.62-.28-.91-.14-.28-.19-.62-.34-.9-.15-.28-.33-.52-.48-.8-.15-.28-.57-.47-.71-.76-.14-.28-.24-.58-.39-.86-.15-.28-.15-.61-.32-.88-.13-.19-.19-.48-.37-.74-.14-.21-.44-.37-.6-.62-.15-.22-.3-.46-.46-.7-.14-.23-.41-.4-.56-.62-.15-.22-.27-.45-.42-.65-.16-.2-.33-.39-.51-.55-.18-.17-.44-.3-.63-.44-.24-.17-.35-.44-.55-.54-.13-.07-.43-.26-.8-.4-.29-.11-.7-.03-.95-.08-.46-.08-.72-.25-.31-.37.09-.03-.1-.08-.05-.1Z"/>
    </g>
  </g>
  <g>
    <path class="cls-1" d="M88.77,109.96c-.03,2.81-1.29,5.44-2.6,7.93-2.22,4.24-4.63,8.36-7.05,12.49-3.12,5.34-6.25,10.68-9.84,15.71-2.03,2.84-4.22,5.61-6.95,7.79-2.54,2.04-5.48,3.52-8.39,4.99-3.27,1.65-6.67,3.33-10.33,3.52,11.24,3.14,24.18-1.11,31.36-10.31,1.49-1.91,3.61-3.54,5.16-5.39,8.63-10.3,8.63-36.73,8.63-36.73Z"/>
    <path class="cls-1" d="M88.94,110.69c-.03,1.06-.48,2.32-.83,3.34-.35,1-.48,1.99-.96,2.96-.47.98-1.08,1.85-1.58,2.79-.5.91-.86,1.86-1.38,2.79-.5.92-1.12,1.85-1.64,2.78-.52.91-1.05,1.84-1.57,2.77,0,0-.83.95-1.78,2.57-.46.81-1.02,1.81-1.58,2.81-.52.88-.86,1.87-1.41,2.79-.71,1.2-1.52,2.16-1.92,2.86-.54.96-.94,1.67-1.49,2.63-.41.69-.86,1.36-1.64,2.52-.73,1.09-1.29,2.2-2.07,3.28-.77,1.07-1.59,2.12-2.45,3.14-.86,1.02-1.83,1.97-2.83,2.87-1,.9-2.09,1.72-3.21,2.46-1.11.74-2.27,1.4-3.43,2.03-1.17.63-2.21,1.4-3.38,1.99-1.18.59-2.5,1.26-3.77,1.75-1.26.49-2.43.56-3.75.84-.84.18-1.73.4-2.63.51l.17-1.5c.48.07.95.16,1.4.26.61.17,1.24.23,1.85.3l.93.11c.31.02.63.04.94.06.63.05,1.27.15,1.92.18.65.04,1.3.12,1.93.05,1.28-.06,2.54-.19,3.8-.39.63-.13,1.27-.34,1.9-.54.62-.25,1.24-.49,1.85-.66,1.2-.4,2.4-.73,3.55-1.27.59-.24,1.15-.51,1.71-.77l.85-.39c.27-.15.54-.31.82-.48.54-.34,1.1-.66,1.62-1.05.52-.38,1.07-.72,1.54-1.16.48-.43.97-.84,1.4-1.32.44-.47.87-.94,1.3-1.4.41-.49.81-1.01,1.21-1.52.41-.57.86-1.11,1.33-1.59.94-.96,2.09-1.47,3.01-2.39.45-.46.87-.98,1.2-1.55.33-.57.65-1.14,1.02-1.65.38-.51.68-1.05,1.05-1.54.35-.51.73-1.01.97-1.61.26-.59.49-1.28.71-1.95.19-.69.36-1.39.59-1.98.49-1.17.86-2.23,1.27-3.44.37-1.23.77-2.37,1.07-3.64.22-1.14.47-2.24.64-3.29.17-1.16.39-2.26.51-3.3.15-1.18.2-2.31.29-3.33.14-1.21.18-2.33.27-3.32.12-1.32.06-2.71.13-3.63.08-.95.17-1.8.26-2.42.04-.31.08-.57.12-.75.05-.2-.02-.4-.02-.43-.01-.02.01-.07.17.23.05.18.04.25.07.37.02.12.03.26.05.41.06.61.12,1.5.1,2.52,0,.91-.02,2.11-.09,3.46-.06.99-.18,2.33-.32,3.57-.1,1.04-.52,2.01-.68,3.2-.12,1.05-.16,2.25-.33,3.43-.17,1.07-.26,2.11-.46,3.27,0,0-.11.33-.28.88-.17.55-.39,1.33-.58,2.24-.21.9-.27,1.85-.55,2.97-.27.99-.71,2.05-1.05,3.08-.51,1.3-1.2,2.13-1.52,2.88-.59,1.02-.92,1.79-1.58,2.77-.24.33-.46.73-.72,1.19-.14.23-.28.47-.44.73-.18.25-.38.5-.62.76-.97,1.05-2.12,1.96-3.07,2.95-.47.49-.94.99-1.37,1.52-.46.54-.92,1.09-1.37,1.63-.95,1.05-1.89,2.05-2.98,2.96-1.1.91-2.26,1.6-3.47,2.33-.59.39-1.22.73-1.84,1.08-.61.37-1.26.67-1.91.96-.64.3-1.31.57-1.98.83-.66.28-1.34.52-2.03.71-.68.21-1.29.44-1.91.63-.62.2-1.24.43-1.95.53-1.4.26-2.92.37-4.34.43-1.44.06-3.05-.15-4.48-.34-.66-.11-1.3-.22-1.92-.41-.62-.19-1.24-.39-1.87-.56l.15-1.36c.09,0,.19-.01.28-.02,1.34-.07,2.71-.71,3.96-1.12,1.27-.42,2.49-.89,3.73-1.48,1.24-.6,2.56-1.15,3.79-1.79,1.23-.64,2.54-1.22,3.71-1.95,1.16-.73,2.17-1.48,3.21-2.35,1.06-.87,1.98-2.22,2.89-3.22.91-.98,1.78-1.96,2.62-3.03.84-1.08,1.7-1.91,2.49-3.05.56-.8,1.31-1.7,2.04-2.82.6-.92,1.1-2.06,1.76-3.12.59-.97,1.2-1.99,1.83-3.03.6-1,1.11-2.16,1.72-3.18.61-1.01,1.25-2.02,1.83-3.02.61-1.04,1.21-2.08,1.77-3.06.61-1.09,1.22-2.16,1.75-3.1.68-1.16,1.37-1.95,1.86-2.79.33-.58,1.18-1.9,1.95-3.43.62-1.19,1.09-2.88,1.36-3.99.14-.52.23-.97.31-1.32.04-.19.07-.36.1-.5.04-.2.13-.33.17-.39.07-.11.04-.08.04.08,0,.19.07.39.04.84,0,.37.14-.4.13-.19Z"/>
  </g>
  <g>
    <path class="cls-1" d="M7.76,116.04c1.53,11.27,6.16,20.07,7.64,31.35-3.83-4.28-6.71-9.29-8.29-14.64-1.39-4.68.65-16.71.65-16.71Z"/>
    <path class="cls-1" d="M8.83,116.96c-.02.14-.17.22-.2.3-.04.11.05.22.01.33-.03.08-.16.15-.18.29-.02.13-.24.19-.27.27-.04.11.17.24.13.35-.02.08-.21.14-.23.28-.02.13.01.23,0,.31-.01.11.07.2.06.32,0,.08-.05.17-.07.3-.02.13.04.24.02.32-.03.11-.37.14-.4.25-.02.08.04.19.02.32-.02.13.04.24.02.31-.04.11-.04.19-.08.3-.03.08.07.18.06.32-.01.13-.04.22-.03.3,0,.11-.22.19-.22.3,0,.08,0,.17-.02.3-.01.13.08.24.05.32-.03.11-.11.18-.14.29-.02.08.04.18.03.32-.01.14-.06.23-.04.31.03.11.28.19.31.3.02.08-.3.17-.3.31,0,.14.14.24.11.32-.04.11-.23.16-.27.27-.03.08-.1.18-.11.32,0,.13.07.24.07.32,0,.11.25.2.26.31,0,.08-.1.17-.11.31s.06.23.05.31c0,.11-.29.18-.29.29,0,.08,0,.18,0,.31,0,.14,0,.24.01.32.02.11.15.19.17.3.01.08.09.17.08.3,0,.13.09.23.08.31-.01.11-.08.19-.09.3-.01.08-.23.18-.23.31,0,.13.1.22.09.3,0,.11.1.19.09.31,0,.08-.11.18-.1.31,0,.13.26.2.29.27.04.11-.1.21-.07.32.03.07.16.16.18.28.02.13-.12.24-.11.31.02.11-.09.2-.07.31.01.08,0,.17.02.3.02.13.23.18.23.25,0,.11.12.16.12.27,0,.07-.25.22-.22.35.02.12.15.19.17.26.04.11.26.12.3.22.03.07-.05.2,0,.32.04.13-.18.28-.16.36.02.11,0,.2.02.32.01.08.41.06.45.18.04.13.04.22.08.29.05.1.08.17.12.28.03.07-.17.25-.12.38s.27.14.3.21c.04.11-.13.26-.09.36.03.07.34.05.39.17s-.23.35-.19.42c.05.1.25.1.31.19.04.07.16.12.22.24.05.12.12.2.15.27.05.1.02.2.06.3.03.07.2.1.25.22.06.12.11.19.15.25.06.09-.07.26,0,.35.05.06.06.16.12.28.06.12.11.2.13.28.02.11.23.12.25.23.01.08-.23.3-.17.42.06.12.23.14.28.2.08.08,0,.23.09.31.06.06.22.06.28.18.06.12.29.11.32.19.03.11-.29.35-.25.46.02.08.25.07.32.19.07.11.02.26.07.32.07.09.21.09.28.18.05.06.04.18.12.29s.1.2.14.27c.05.1.29.05.34.15.04.07.07.16.15.27.07.11-.12.35-.08.42.05.1.15.14.2.24.04.07,0,.22.07.33.04.06.13.06.22.05.08-.02.15-.06.17-.05.05.02.07.05.11.06.03,0-.04.2,0,.27.04.06.09.05.11.08.04.05.09-.11.11-.08.01.02.02.42.07.49.05.06.07.04.1.12.05.12.09.23.14.36.04.1.02-.22.06-.17.04.05.11.24.14.26.04.03,0-.15.03-.13.02.01.11.22.15.28.04.06.14.25.16.26.03.02-.14-.47-.13-.47,0,0,.43.97.49,1.05.06.06-.1-.34-.12-.4-.01-.03-.02-.06-.04-.1-.06-.16-.15-.38-.2-.5-.02-.07-.14-.33-.14-.38,0-.04.15.23.16.22.01-.02-.08-.21-.07-.22,0,0,.14.19.13.12-.01-.08-.29-.54-.3-.57-.02-.05.17.18.14.11-.02-.05-.18-.29-.19-.33,0-.04.17.13.16.09,0-.04.14.07.14,0,0-.05-.38-.4-.39-.43,0-.03.25.09.25.04,0-.06-.17-.16-.17-.2,0-.03,0-.07-.01-.12-.01-.06-.11-.09-.12-.11-.02-.02,0-.17-.04-.26-.03-.07.13-.21.1-.34-.03-.13-.08-.21-.08-.29,0-.11-.13-.18-.13-.29,0-.08.07-.19.04-.32-.03-.13-.21-.19-.22-.27-.01-.11.04-.21.03-.32,0-.08-.08-.16-.11-.29-.03-.13.02-.24-.03-.31-.07-.1.02-.22-.04-.32-.05-.07-.07-.15-.1-.28-.03-.13-.03-.23-.04-.3-.02-.11-.28-.13-.3-.25-.01-.08-.15-.14-.18-.27-.04-.13.31-.31.3-.39,0-.12,0-.2-.01-.32,0-.08-.35-.1-.38-.23-.04-.13.24-.3.23-.38-.02-.11-.1-.18-.12-.29-.02-.08-.24-.11-.28-.24-.04-.13.09-.27.06-.34-.05-.1-.19-.14-.24-.25-.03-.07.2-.25.16-.38-.04-.13-.38-.12-.42-.19-.05-.1.05-.23,0-.33-.04-.07-.15-.14-.19-.27-.04-.13-.19-.19-.21-.26-.03-.11-.06-.19-.09-.29-.02-.08.02-.19-.02-.32-.04-.13.07-.26.07-.35-.01-.12-.1-.18-.11-.3,0-.08,0-.18-.03-.31-.04-.13.16-.3.13-.37-.05-.1-.39-.07-.43-.18-.03-.07.02-.19-.02-.32-.04-.13.15-.29.13-.36-.03-.11-.09-.18-.12-.29-.02-.08-.14-.14-.18-.27-.04-.13-.29-.16-.3-.24-.03-.11.19-.26.16-.37-.02-.08-.1-.16-.14-.29-.04-.13-.22-.17-.26-.24-.05-.1.18-.28.12-.38-.04-.07-.33-.07-.37-.2-.04-.13-.09-.23-.1-.31-.01-.12.3-.27.28-.39-.01-.08-.05-.18-.09-.31-.04-.13-.14-.2-.16-.28-.03-.11-.25-.13-.28-.25-.02-.08.28-.26.24-.4-.04-.13-.37-.13-.4-.21-.03-.11.18-.26.15-.37-.02-.08-.16-.14-.2-.27-.04-.13.03-.26,0-.33-.05-.1-.26-.12-.31-.22-.04-.07-.03-.18-.07-.31-.04-.13.12-.26.11-.35,0-.12-.11-.18-.12-.3,0-.08-.18-.14-.22-.27-.04-.13.05-.26.02-.33-.05-.11.07-.23.02-.34-.03-.07-.39-.07-.42-.2-.04-.13.07-.26.06-.34-.02-.11-.11-.18-.14-.29-.02-.08.01-.19-.02-.32-.03-.13.12-.27.1-.35-.04-.1-.07-.19-.11-.29-.02-.08-.19-.14-.22-.27-.03-.13-.05-.23-.06-.31-.03-.11-.05-.19-.08-.3-.02-.08,0-.18-.03-.32-.03-.14.06-.24.07-.32.01-.12-.07-.2-.06-.31,0-.08.08-.2.05-.34-.03-.13-.13-.21-.15-.29-.04-.11-.17-.16-.21-.27-.02-.08-.11-.16-.13-.3s-.07-.22-.09-.3c-.04-.11.14-.24.11-.35-.03-.08-.27-.13-.29-.26-.03-.14-.06-.23-.07-.31-.01-.12.16-.22.14-.34,0-.08.05-.19.03-.32-.02-.14-.32-.16-.38-.23-.07-.1.06-.25-.01-.36-.06-.08,0-.18-.02-.32-.02-.1-.36-.18-.34-.27.03-.11.23-.21.3-.3.08-.1.33-.11.45-.18.14-.08.21-.17.34-.19.13-.02.29-.05.44-.02.12.03.14.13.24.2.09.06.08.12.14.21.05.07.32.09.34.19.02.1.11.18.1.25,0,.1-.12.19-.13.27-.01.08.05.15.05.24,0,.07-.03.15-.01.25.02.13-.21.26-.21.34,0,.12.13.18.12.3,0,.08-.12.2-.1.33.03.13.31.16.35.24.05.1-.03.21.02.32.04.07,0,.18.03.31.02.13-.09.25-.08.33.01.11.26.15.27.26.01.08-.13.2-.1.33s.26.19.26.27c0,.11-.28.24-.27.36,0,.08.03.18.06.31.03.13.05.24.08.31.05.1.38.08.43.19.04.07-.12.22-.09.35.03.13,0,.22,0,.31,0,.12.17.18.16.29,0,.08-.12.2-.09.34.03.13.21.19.22.26.02.11-.05.21-.03.32.02.08.12.15.16.28.04.13-.04.25,0,.32.06.1.14.16.2.26.04.07.2.13.23.26.04.13.08.23.09.31,0,.12-.15.23-.15.35,0,.08.13.15.17.27.04.13-.02.24,0,.32.03.11.13.17.16.28.02.08.11.15.15.28.04.13-.09.27-.07.34.02.11-.04.21-.02.32.01.08-.06.2-.02.33.04.13.33.14.37.21.05.11.08.17.14.28.04.07.14.15.18.28s.08.21.1.29c.04.11-.22.28-.18.39.03.07.12.14.15.27.04.13.23.17.25.25.03.11-.05.22-.03.33.02.08.09.16.13.29s.17.2.18.28c.02.11-.27.27-.25.39.01.08.26.11.3.24s.15.2.17.27c.03.11-.22.27-.2.38.02.08.27.1.3.23.04.13-.18.31-.14.38.05.1.31.1.36.2.04.07.14.15.18.28.04.13-.23.32-.2.4.05.1.2.14.25.24.03.07.27.1.31.23s-.23.3-.22.38c.02.11.21.15.23.27.01.08.07.16.11.29.04.13.14.22.14.3,0,.12-.07.22-.07.34,0,.08-.04.19,0,.32.04.13.2.17.24.24.06.11.09.17.15.28.04.07,0,.2.04.33.04.13.07.22.08.31.01.12.13.17.15.29.01.08-.24.24-.2.37.04.13-.01.25.01.33.04.11.18.15.21.26.03.08.27.11.31.24.04.13-.21.29-.2.37.02.11,0,.2.01.32.01.08.34.1.37.23.03.13-.23.31-.19.39.05.1.33.1.38.21.04.07.17.15.2.28.03.13-.05.26-.05.35,0,.12-.13.22-.13.34,0,.08.21.14.24.27.03.13-.22.3-.19.37.04.11.37.1.41.21.03.08-.23.24-.2.38s.16.21.18.28c.04.12.06.2.1.33.03.12.16.27.21.51.04.22.19.42.21.56.03.2-.18.24-.16.4.02.12.28.41.32.65.04.23,0,.33.03.47.05.21-.14.16-.09.35.03.14,0,.23.04.44.04.21-.04.2-.06.27-.02.09.06.31.03.4-.02.05.33.72.37.96.03.23-.35-.32-.33-.21.02.15.42.96.45,1.15.02.14-.38-.54-.36-.37.03.18.48,1.21.49,1.33.02.15-.29-.43-.36-.52-.02-.03-.04-.05-.04-.05-.02.02.24.71.1.56-.14-.16-.36-.58-.4-.58-.06,0,0,.27-.07.24-.06-.02-.36-.67-.49-.81-.13-.15-.02.39-.11.29-.11-.12-.2-.21-.32-.33-.09-.1-.19-.23-.34-.4-.16-.18-.35-.89-.43-1.03-.11-.2-.17.09-.3-.12-.09-.15-.19-.69-.3-.83-.12-.14-.21-.15-.28-.25-.11-.13-.16-.34-.26-.46-.07-.08-.25.13-.39-.05-.14-.18-.15-.46-.22-.56-.1-.16-.07-.37-.15-.51-.06-.09-.37-.06-.44-.16-.08-.12.03-.33-.04-.38-.1-.07-.17-.13-.27-.2-.07-.05-.08-.14-.16-.26-.08-.12-.41-.04-.43-.12-.04-.11.07-.26.04-.38-.02-.08-.1-.15-.17-.27-.07-.12-.12-.2-.18-.26-.09-.08-.16-.14-.25-.22-.06-.06-.13-.13-.2-.25-.07-.12-.22-.17-.24-.26-.02-.12.09-.26.06-.38-.02-.09.13-.27.06-.4-.07-.12-.36-.06-.41-.12l-.23-.23c-.06-.06-.12-.15-.18-.27-.06-.12.1-.33.05-.39-.07-.1-.27-.07-.34-.17-.05-.07-.06-.17-.13-.3-.07-.12-.17-.19-.18-.28-.02-.12.06-.24.04-.36-.01-.08-.15-.13-.21-.26-.06-.13.09-.3.06-.38-.04-.11-.2-.13-.23-.24-.03-.08.09-.24.04-.36-.06-.13-.33-.1-.39-.16-.08-.09-.14-.15-.23-.25-.06-.06-.13-.16-.19-.29-.05-.13-.17-.21-.18-.29-.02-.12.37-.32.36-.44,0-.08-.08-.18-.12-.31-.05-.13-.14-.2-.16-.28-.04-.11-.3-.11-.33-.22-.02-.08.15-.24.1-.37-.05-.13-.17-.19-.21-.26-.05-.11-.09-.18-.14-.29-.04-.07.05-.21.01-.34-.04-.13-.02-.24-.05-.32-.04-.11-.06-.19-.1-.3-.02-.08-.24-.11-.27-.26-.03-.15.04-.27.03-.36-.03-.12-.22-.17-.25-.29-.02-.09.26-.25.24-.39-.02-.14-.14-.22-.14-.3,0-.12-.27-.18-.27-.3,0-.09.16-.2.15-.34-.02-.14.08-.26.06-.34-.03-.11-.27-.16-.31-.28-.02-.08.23-.21.22-.35,0-.14-.08-.23-.06-.31.02-.12-.05-.21-.02-.33.02-.08-.08-.18-.08-.32,0-.14.22-.25.2-.34-.03-.11-.15-.19-.18-.3-.02-.08-.15-.18-.15-.32,0-.14-.05-.23-.05-.32,0-.12.14-.2.14-.32,0-.08-.08-.18-.08-.32,0-.14.02-.24.03-.32,0-.12.09-.19.1-.31,0-.08.06-.18.07-.31,0-.14-.09-.24-.08-.32.02-.12,0-.2,0-.32,0-.08.09-.17.09-.31,0-.14.14-.23.14-.31,0-.12-.23-.21-.23-.33,0-.08-.01-.18,0-.32,0-.14,0-.24.02-.32.02-.11.03-.2.05-.31.01-.08.17-.16.18-.3.01-.14-.03-.24-.02-.32.02-.11-.13-.22-.11-.33.02-.08.33-.14.34-.28.01-.14-.23-.25-.24-.33-.02-.12-.05-.2-.07-.32-.01-.08.16-.17.18-.31.01-.14.13-.21.17-.29.05-.11-.08-.23-.04-.34.03-.08.2-.15.22-.29.02-.14.03-.24.02-.32,0-.12-.28-.22-.28-.33,0-.08.19-.16.21-.3.02-.14-.07-.24-.07-.32,0-.12.2-.18.2-.3,0-.08-.06-.18-.05-.32s.02-.23.04-.31c.03-.11-.1-.22-.07-.33.02-.08.32-.13.34-.27.02-.14-.14-.27-.17-.36-.03-.12-.13-.21-.16-.33-.02-.09-.04-.19-.01-.33.02-.1-.12-.25-.07-.33.07-.09.31-.11.41-.16.12-.06.31-.03.44-.05.16-.02.31-.09.44-.07.13.02.33.04.46.11.11.05.04.21.12.3.07.07.25.13.28.23.02.08.19.19.17.29Z"/>
  </g>
</svg>