<?xml version="1.0" encoding="UTF-8"?>
<svg id="Layer_1" data-name="Layer 1" xmlns="http://www.w3.org/2000/svg" viewBox="0 0 200 200">
  <defs>
    <style>
      .cls-1 {
        fill: #ffc0c4;
      }

      .cls-2 {
        fill: #8973ff;
      }

      .cls-3 {
        fill: #f7f;
      }

      .cls-4 {
        fill: #ffa3b0;
      }

      .cls-5 {
        fill: #5e0015;
      }

      .cls-6 {
        fill: #ffd2d4;
      }

      .cls-7 {
        fill: none;
        stroke: #f7f;
        stroke-miterlimit: 10;
        stroke-width: 1.73px;
      }

      .cls-8 {
        fill: #ffbbc1;
      }

      .cls-9 {
        fill: #fdf186;
      }
    </style>
  </defs>
  <path class="cls-6" d="M164.37,154.77c7.56-4.92,14.76-13.43,15.21-22.65.14-2.77-.16-5.3-1.11-7.83-3.21-8.56-13.1-8.72-21.02-5.34-.58-6.97-2.89-13.81-4.84-20.52l-5.49-17.05c-2.23-6.91-5.87-13.13-10.5-18.65-8.44-10.07-20.36-16.03-33.43-17.02-6.66-.5-13.08.56-19.24,3.28-11.21,4.96-20.38,14.05-26.9,24.36-2.92,4.62-5.52,9.27-7.41,14.45l-11.36,31.16c-5.53-2.85-11.36-2.06-14.76,3.15-1.64,2.57-2.59,5.48-2.94,8.43-.04.37-.11.74-.19,1.12v3.12c.09.48.15.93.2,1.34-.27,4.38,1.71,8.66,3.97,12.34.8,1.3,4.22,6.26,5.33,6.68,0,0,32.43,7.03,67.08,7.29,34.65.27,67.41-7.66,67.41-7.66Z"/>
  <g id="stroke">
    <path class="cls-7" d="M164.37,154.77c9.8-6.24,18.53-18.67,14.1-30.48-3.2-8.56-13.1-8.72-21.02-5.34-.57-6.97-2.89-13.81-4.84-20.52l-5.49-17.05c-2.23-6.91-5.87-13.13-10.5-18.65-12.4-14.94-34.55-21.76-52.67-13.74-16.21,7.29-27.87,22.54-34.3,38.81,0,0-11.36,31.16-11.36,31.16-11.84-5.96-18.43,5.23-17.9,15.82.09.48.15.93.2,1.34-.27,4.38,1.71,8.66,3.97,12.34.8,1.3,4.22,6.26,5.33,6.68,39.75,8.98,94.64,9.82,134.49-.37h0Z"/>
  </g>
  <circle class="cls-9" cx="75.84" cy="110.71" r="21.11"/>
  <circle class="cls-9" cx="122.87" cy="110.71" r="21.11"/>
  <path class="cls-8" d="M43.32,110.71c3.79-14.54,7.38-21.11,13.06-32.81,2.6-5.35,7.43-9.3,11.51-13.63,2.46-2.61,5.07-5.16,8.21-6.89,2.91-1.6,6.18-2.44,9.47-2.84,5.16-.64,10.68-.17,15.04,2.66,4.36,2.83,7.16,8.44,5.57,13.39-1.42,4.41-5.73,7.21-9.99,9.04-11.34,4.9-24.16,5.59-35.48,10.55-1.92.84-3.84,1.84-5.21,3.43-1.65,1.92-2.32,4.48-2.71,6.98-.99,6.38-.45,12.88-.54,19.34-.03,2.71-.21,5.52-1.5,7.9s-4.01,4.19-6.65,3.59c-1.82-.41-3.27-1.88-4.07-3.57-.8-1.69-1.03-3.59-1.15-5.46-.17-2.6,1.49-4.7,1.73-7.3l2.72-4.37Z"/>
  <g>
    <path class="cls-1" d="M86.63,130.48c-.34,1.91-.51,3.86-.52,5.8,0,1.81.13,3.64.63,5.38,1.06,3.67,3.95,6.89,7.65,7.83,3.7.94,8.05-.74,9.74-4.16,2.02.91,4.24-1.08,4.94-3.19,1.05-3.19.18-6.67-.88-9.85-1.22-3.68-2.68-7.29-4.38-10.78-1.24-2.57-2.92-7.51-6.36-7.63-6.28-.21-9.97,11.95-10.81,16.59Z"/>
    <path class="cls-5" d="M86.56,130.66c-.01.09.04.24.03.33-.01.09.03.18.02.27-.01.09-.15.16-.16.25-.02.09-.03.17-.05.26-.01.09-.02.17-.04.26-.01.09-.01.19-.02.27,0,.09.07.18.07.27-.01.1-.02.17-.03.27,0,.08,0,.19,0,.27,0,.09-.08.18-.08.27,0,.09.06.18.06.26,0,.09-.05.18-.06.27,0,.09-.05.18-.05.27,0,.09.05.18.05.26,0,.09.04.18.04.26,0,.09-.09.18-.09.27,0,.09.03.18.03.27,0,.09-.03.18-.03.26,0,.09.13.18.13.27,0,.08-.02.19-.03.26,0,.09,0,.17.01.26,0,.09,0,.17,0,.26,0,.07.02.19.03.26,0,.09-.11.18-.11.27,0,.09-.02.17-.02.26s.1.18.1.27c0,.09.05.17.06.26,0,.09-.1.18-.09.27,0,.09.05.17.06.26,0,.09-.03.18-.02.27,0,.08,0,.17.01.26,0,.07,0,.19,0,.27,0,.09.17.16.18.25.01.08,0,.17.03.25.03.08.03.18.05.26.03.08.07.16.09.25.01.08-.06.18-.06.27,0,.08,0,.19,0,.27,0,.09.13.16.16.25.02.08-.08.22-.05.3.03.08.19.1.22.18.03.08.08.17.11.25.03.08.04.17.06.26.01.07.03.19.04.26.02.08-.01.18.02.27.03.08.15.13.18.22.03.08-.04.2,0,.28.03.08.16.12.2.2.04.08-.02.2.02.28.03.08.15.12.19.2.04.08.08.16.11.23.04.08.05.17.1.24.05.07.06.18.12.25.06.07.11.12.16.2.05.07.11.14.15.21.05.07.05.18.1.25s.17.09.22.17c.05.07.16.1.21.16.05.07,0,.22.05.29.05.07.13.11.19.18.05.07.13.12.18.18.06.06.16.09.21.15l.17.19c.06.06.11.12.18.19.06.06.06.17.12.24.06.06.14.11.2.17l.2.16c.07.06.18.05.25.1.06.06.07.19.14.24.07.05.11.15.19.19.06.04.16.09.22.13.08.04.22-.03.29.02.07.05.11.14.18.2.07.05.16.08.23.13.07.05.1.15.17.19.08.04.17.04.25.08.08.04.13.14.22.17.08.03.21-.06.29-.03s.13.12.21.15c.08.03.17.03.25.06.08.03.14.11.22.14.08.03.14.11.23.13.08.02.19-.03.27,0l.24.07c.08.03.12.16.2.19.08.03.19,0,.27.03.08.03.16.07.25.09.08.02.18-.02.26-.02.09,0,.17-.05.25-.05.08,0,.17.12.25.13.09,0,.17-.06.26-.05.08,0,.17.04.25.05.08,0,.17.05.26.05.09,0,.17-.08.26-.07.08,0,.18.01.26.02.09,0,.16-.09.25-.1.08-.01.16,0,.24-.03.08-.02.2.06.28.03.08-.03.15-.06.24-.08.08-.02.15-.15.23-.17.08-.01.17.02.26,0,.08-.02.16-.05.24-.08.08-.02.17-.04.26-.05.08-.01.19.09.27.07.08-.02.14-.15.22-.18.08-.03.2.05.28.02.08-.04.11-.18.19-.21.08-.04.21.04.29,0,.08-.04.12-.14.2-.19.07-.04.12-.12.2-.17.07-.04.14-.1.21-.15.08-.04.15-.08.21-.13.06-.05.14-.11.2-.16.07-.05.16-.07.23-.12l.2-.16c.06-.05.13-.12.19-.17.06-.05.21-.01.27-.07.06-.06.03-.23.1-.28.06-.05.21,0,.27-.06.07-.05.13-.12.19-.19.06-.07,0-.21.04-.28.05-.07.16-.1.21-.17.04-.07.1-.13.15-.2.05-.07.01-.2.06-.26.05-.07.22-.06.25-.13.04-.07-.02-.21.03-.28.08-.15.21-.23.28-.36.04-.04.06-.18.13-.13.07.03.13.06.2.09.12.04.26.12.36.15.08.01.2-.11.27-.09.07.03.14.05.22.07.07.01.14.17.23.16.08,0,.15-.12.23-.13.08,0,.14-.08.22-.1.07-.03.17,0,.24-.03.08-.03.13-.11.21-.13.07-.02.2.06.28.03.07-.04.17-.05.23-.1.07-.05.1-.16.17-.2.07-.04.11-.13.18-.18.06-.05.09-.15.15-.2.06-.06.15-.08.2-.14.05-.06.14-.11.18-.18.05-.07.1-.13.15-.19.05-.06.04-.2.1-.25.06-.06.21-.03.26-.09.06-.06.11-.14.16-.21.05-.07.08-.16.12-.23.03-.08,0-.18.03-.26.03-.08.08-.15.12-.22.04-.07.07-.15.11-.22.03-.07.14-.12.17-.2s-.04-.2-.02-.28c.02-.08.07-.16.09-.24.02-.08,0-.17.02-.26.02-.08.17-.14.19-.22.02-.08,0-.18,0-.26.02-.07.04-.18.06-.25.01-.08,0-.18,0-.26.01-.08.07-.17.07-.26,0-.09-.07-.17-.07-.26,0-.09.07-.17.07-.25,0-.09-.1-.18-.09-.27,0-.08.13-.16.13-.25,0-.09-.1-.18-.1-.26,0-.09.05-.17.04-.26,0-.09.06-.18.06-.26l-.02-.26c0-.09-.13-.17-.14-.25,0-.09.01-.17,0-.26,0-.09-.03-.17-.04-.26-.01-.09.09-.19.07-.28-.02-.08-.04-.18-.06-.25-.02-.09-.08-.16-.09-.24-.02-.09-.1-.16-.11-.25-.01-.09.02-.18,0-.26-.02-.09-.07-.17-.08-.25s.08-.19.06-.28c-.02-.09-.19-.14-.21-.23l-.06-.25c-.02-.08.06-.2.03-.28l-.07-.25c-.02-.08-.15-.14-.18-.22s.02-.19-.02-.27c-.03-.08-.09-.15-.12-.24-.03-.08.02-.19,0-.28-.03-.08-.08-.16-.11-.24-.03-.08-.02-.18-.05-.26-.03-.08-.18-.13-.21-.21-.03-.08.05-.2.03-.28-.03-.11-.04-.15-.08-.26-.02-.09-.09-.16-.12-.24-.03-.08.01-.19-.02-.28-.03-.08-.03-.18-.05-.26l-.09-.25c-.03-.08-.11-.15-.14-.23-.03-.08-.02-.18-.06-.26-.03-.08-.12-.14-.15-.22-.03-.08-.13-.15-.15-.23-.02-.07-.04-.19-.06-.26-.02-.08.03-.19,0-.28-.03-.08-.15-.12-.19-.2-.04-.08-.04-.19-.08-.26-.04-.08-.15-.13-.18-.21-.03-.08.07-.21.05-.29-.02-.09-.11-.16-.13-.24-.02-.09-.04-.17-.07-.26s-.09-.16-.12-.24c-.04-.08-.03-.18-.07-.26-.04-.08-.11-.14-.14-.22-.03-.08-.05-.17-.08-.25-.04-.08-.02-.19-.05-.27-.04-.08-.22-.1-.25-.18-.03-.08.03-.2.01-.29-.02-.08,0-.18-.02-.27-.03-.09-.11-.16-.14-.24-.03-.08-.16-.11-.21-.19-.05-.1-.07-.14-.11-.24-.04-.08-.11-.16-.14-.24-.03-.08-.04-.18-.07-.26s-.1-.15-.13-.23c-.03-.08-.05-.17-.09-.25s-.02-.18-.06-.26c-.04-.08-.11-.14-.15-.22s-.06-.17-.1-.25c-.04-.08-.06-.17-.09-.25-.03-.08,0-.19-.03-.27-.03-.08-.1-.16-.13-.24-.04-.08-.13-.13-.18-.2s0-.21-.05-.28c-.05-.08-.13-.12-.17-.2-.04-.08-.05-.17-.07-.25-.03-.08-.03-.18-.05-.26-.03-.09-.14-.14-.18-.22-.04-.08-.08-.15-.14-.22-.05-.07-.07-.17-.13-.25-.05-.08-.15-.13-.19-.21-.03-.08-.07-.17-.1-.25-.03-.08-.06-.17-.09-.25-.03-.08.05-.21.01-.29-.04-.08-.19-.12-.22-.21-.03-.08-.02-.18-.05-.26-.03-.08-.07-.15-.1-.23-.04-.08-.08-.15-.12-.23-.04-.08-.01-.19-.05-.27-.04-.08-.16-.12-.2-.19-.04-.08-.02-.19-.06-.26-.04-.08-.13-.12-.18-.2-.04-.06-.11-.16-.15-.22-.04-.08-.06-.17-.1-.24-.04-.08.02-.2-.02-.28-.04-.08-.1-.14-.15-.22-.05-.07-.12-.13-.16-.21-.04-.08-.14-.12-.18-.2-.04-.07-.06-.16-.11-.23-.05-.07-.02-.22-.08-.28-.06-.07-.13-.11-.2-.17-.06-.06-.12-.11-.17-.17-.05-.07-.12-.12-.16-.19-.03-.06-.1-.16-.13-.22-.05-.07-.11-.14-.17-.2-.06-.07-.18-.05-.25-.1-.07-.06-.13-.1-.2-.15-.07-.05-.15-.08-.22-.13-.06-.04-.11-.11-.18-.16-.06-.04-.14-.08-.2-.13-.06-.05-.14-.08-.21-.11-.07-.03-.13-.09-.2-.13-.07-.04-.13-.09-.21-.12-.07-.03-.16-.02-.23-.04-.07-.02-.15-.06-.23-.09-.06-.02-.17-.05-.23-.07-.08-.02-.15-.04-.23-.05-.08-.01-.15.04-.23.06-.08.02-.18-.04-.26-.03-.08.02-.15.11-.23.13-.08.01-.16-.04-.24-.03-.08.01-.15.05-.23.07-.08.02-.18-.05-.26-.03-.08.02-.14.12-.22.13-.08.02-.17-.02-.25,0-.08.02-.19,0-.26.03-.08.03-.14.1-.21.13l-.23.11c-.08.04-.15.08-.22.13-.07.05-.11.14-.17.2-.06.06-.18.05-.24.12-.06.06-.02.23-.09.28-.06.05-.18.03-.25.08-.07.04-.1.16-.16.2-.07.06-.13.1-.19.15-.06.05-.2.03-.25.1-.05.06-.12.13-.17.19-.06.06-.15.09-.21.15-.06.06-.11.14-.16.2-.05.07-.05.18-.1.24-.05.07-.08.16-.13.23-.05.07-.19.06-.24.13s-.09.15-.15.21c-.06.06-.15.1-.2.17-.05.07-.06.17-.11.23-.05.07-.15.1-.2.17-.05.07-.05.18-.1.25-.05.07-.11.14-.15.22s.02.19-.02.27c-.03.08-.07.17-.12.25-.04.07-.22.06-.27.13-.05.07.02.23-.02.3-.05.07-.17.09-.21.16-.04.08,0,.19-.03.27-.04.08-.16.11-.2.19-.04.08-.03.18-.07.25-.04.08-.05.17-.08.24-.03.08-.07.16-.11.23-.04.08-.13.13-.16.21l-.11.23c-.04.07-.08.16-.12.23-.04.08,0,.19-.04.26-.04.08-.13.14-.17.21-.04.07-.15.11-.19.19-.04.08.02.2-.02.28-.04.08-.1.15-.14.22-.04.08-.16.12-.19.19-.04.08-.04.17-.08.25-.03.08-.11.15-.14.23-.03.09.03.19,0,.27-.02.09-.02.18-.05.26-.03.08-.13.13-.18.2-.04.08-.07.15-.11.23-.04.08-.01.19-.04.27-.03.08-.03.17-.05.25-.02.09-.13.15-.15.23-.02.09.06.2.03.28-.03.08-.14.13-.17.21-.03.08,0,.19-.02.27-.03.08-.14.13-.16.21-.03.08-.06.17-.08.25-.02.08-.04.18-.05.25-.02.09.03.2,0,.28-.03.08-.17.12-.2.2-.04.08-.05.17-.09.25-.04.08-.03.17-.06.25-.03.08-.13.14-.15.23-.02.08,0,.17-.02.26-.02.08.03.19,0,.27-.02.08-.08.15-.1.24-.02.08-.09.15-.12.23-.02.08,0,.17-.03.26-.02.08-.04.15-.06.25-.02.06-.07.17-.09.24-.02.08-.06.16-.08.24-.02.08-.14.13-.16.22-.02.08.05.2.03.28-.02.08-.16.13-.18.22-.01.05.05.19.04.18-.02,0,0-.12,0-.17.01-.09.02-.16.03-.25,0-.09.13-.17.14-.25.01-.09-.1-.19-.08-.27.01-.09.19-.15.2-.23.02-.09-.11-.2-.09-.28.02-.09.15-.15.16-.23.02-.09-.02-.18-.01-.27.02-.1.03-.16.05-.26.01-.09.05-.17.06-.25.02-.09.05-.18.06-.26.01-.09-.03-.18-.02-.26,0-.09.07-.16.09-.25.02-.09,0-.18.02-.26.03-.08.12-.14.15-.22.03-.08,0-.19.02-.27.02-.08,0-.17.02-.26.02-.08.08-.16.1-.25.02-.08.01-.17.04-.26.02-.08.12-.14.14-.23.02-.08-.03-.18-.01-.27.02-.08.05-.17.07-.25.03-.08.13-.14.16-.22.02-.08,0-.18.03-.26.02-.08.06-.16.09-.25.03-.08.14-.12.18-.21.03-.08.02-.18.05-.26.03-.08.08-.15.12-.24.03-.08.08-.15.12-.23.04-.08-.02-.21.01-.29.04-.08.17-.12.21-.2.03-.08-.07-.22-.04-.3.03-.08.18-.12.21-.2.04-.07.08-.16.12-.24.03-.08-.03-.21,0-.29.04-.08.08-.16.11-.24.04-.08.12-.14.16-.22.04-.08,0-.18.03-.27.02-.09.1-.16.13-.25.03-.09.07-.16.11-.25.04-.08.08-.16.13-.23.06-.08.1-.14.16-.22.05-.07.17-.11.21-.19.04-.08.09-.18.12-.26.03-.08,0-.19.03-.27.03-.08.11-.14.16-.21.04-.08.03-.19.08-.26.05-.07.07-.17.12-.24.05-.07.15-.11.2-.19.05-.08.07-.17.12-.24.05-.07.15-.11.2-.18.05-.07.07-.18.11-.25.05-.08.03-.18.07-.26.04-.08.17-.12.21-.19.04-.08.13-.13.18-.2l.16-.21c.05-.05.14-.14.19-.19.06-.07,0-.24.06-.31.06-.07.17-.09.22-.17l.16-.22c.05-.08.15-.11.22-.17.06-.06.06-.2.12-.26.07-.06.15-.11.22-.17.07-.06.16-.1.23-.16.07-.06.09-.17.16-.23.07-.06.22-.01.29-.07.07-.05.06-.22.14-.28.07-.06.13-.13.21-.18.08-.05.21-.03.28-.08.08-.05.16-.09.25-.13.08-.04.15-.14.24-.17.09-.03.17-.09.26-.11.09-.02.21.06.3.03.08-.03.17-.06.26-.09.08-.03.13-.17.22-.2.09-.03.21.06.3.04.09-.03.18-.05.27-.06.08,0,.2-.01.28-.02.09-.02.18-.08.27-.08.09,0,.19-.08.28-.08.1,0,.18.05.28.07.09.01.19,0,.29,0,.1.01.18.11.27.12.09.02.19-.01.29.01.09.03.18.06.27.09.09.02.18.04.27.07.09.03.17.1.26.13.09.03.23-.01.31.04.08.06.08.23.15.28.09.06.15.1.23.16.07.07.13.14.2.2.07.06.2.06.27.13.07.06.13.14.19.21.06.07.03.22.09.29.06.07.11.14.16.21.05.07.16.11.21.18.05.07.16.11.21.18.06.07.09.16.14.23.06.07.08.17.13.24.06.07.14.12.19.2.04.08.09.16.14.23.05.08.05.18.1.25.05.08.21.09.25.17.04.08.09.16.14.24.04.08.02.2.06.27.04.08.11.15.15.22.04.08.04.18.08.26.04.07.1.16.14.23.04.08.02.19.06.27.04.08.05.17.08.25.04.08.22.11.25.19.03.08-.04.21,0,.29.04.08.1.15.14.23.04.08.14.12.19.2.04.08.02.19.06.27.04.08.11.15.14.23s.1.15.14.23c.04.08-.04.21,0,.29.04.08.21.09.25.17.04.08-.03.22,0,.29.04.08.13.13.17.21.04.08.05.17.08.25s.1.15.14.23c.04.08.04.18.08.26.04.08.13.14.16.22.03.08,0,.19.03.27.03.08.09.15.13.24.04.08.11.14.15.22.04.08,0,.2.03.28.04.07.09.17.13.23.04.08.18.1.23.18.05.08-.03.23.01.31s.09.14.13.22c.04.08.09.15.11.24.02.09.12.16.14.25.02.09-.04.2,0,.28.04.08.06.18.11.26.05.08.15.11.19.19s.02.18.06.27.06.16.09.24c.03.08.1.16.12.24.03.08.07.17.1.25.03.08.06.17.1.25.04.1.06.15.1.25.04.08.07.16.1.24.03.08.13.14.16.22s0,.19.02.28c.03.08.1.15.13.24.03.08,0,.18.02.26.03.09.05.16.08.26.02.09.07.17.11.26.03.08.16.12.2.2.04.08.11.14.15.22.04.08-.01.21.02.29.03.08.09.16.12.24s.02.18.04.27c.03.08,0,.19.04.27.03.08.06.17.09.25.03.08.16.12.2.21.03.09.06.17.09.25.03.08-.03.18-.02.27.02.09.13.17.15.26.01.09-.09.21-.06.29.03.08.18.12.21.21l.09.25c.03.08-.06.21-.03.29.03.08.15.13.19.22.04.08.11.14.15.22.04.08.05.18.08.27.03.09.04.18.05.27.01.09-.08.19-.07.27.01.09.12.17.14.25.02.09-.02.19,0,.27.02.09.09.16.11.25.02.09.11.16.13.24.02.09-.1.21-.08.3.02.09.12.15.14.24.02.09-.04.19-.02.28.02.09.06.18.09.27.03.08.15.13.18.22.03.09-.04.2-.03.29.01.09.1.17.11.26.01.09-.03.18-.01.27,0,.09.13.17.14.26,0,.09.02.18.03.28,0,.09-.12.18-.12.27s.08.18.08.27c0,.09-.09.18-.09.27,0,.09.05.18.05.27v.27c0,.09-.07.18-.07.27,0,.09,0,.18,0,.27,0,.09.09.18.08.27,0,.09-.07.18-.07.27,0,.09.08.19.07.28-.01.09-.08.18-.1.27-.01.09.04.19.02.28-.01.09-.05.18-.07.27-.02.09-.12.16-.14.25-.02.09-.05.18-.07.26-.03.09.01.2-.02.28-.03.09-.01.19-.05.28-.03.09-.1.17-.13.26-.03.09-.06.18-.11.26-.04.08-.14.14-.18.22-.04.08-.13.14-.18.22-.05.08-.09.16-.14.24l-.15.23c-.05.08-.03.21-.09.28-.06.07-.11.15-.17.23-.06.07-.2.07-.26.14-.06.07-.07.19-.14.26-.07.07-.17.1-.23.17-.07.06-.1.17-.18.23-.08.06-.12.15-.2.21-.08.06-.19.07-.27.12-.08.06-.22,0-.3.05-.08.04-.11.21-.2.24-.09.04-.2.05-.29.09-.09.04-.21,0-.3.03-.09.02-.17.18-.28.18-.09,0-.21,0-.31,0-.1,0-.2-.06-.3-.06-.1,0-.19-.07-.29-.09l-.29-.06s-.08.06-.1.05c-.03-.01-.06-.04-.05,0,0,.02-.07-.04-.1.03-.04.08-.04.18-.08.26-.04.08-.11.15-.16.23-.05.08-.1.15-.16.23-.06.07-.08.17-.14.25-.06.07-.14.12-.2.19-.06.07-.08.18-.14.25-.06.07-.14.12-.21.18-.07.06-.15.12-.22.18-.07.06-.18.07-.25.14-.07.06-.17.08-.24.14-.07.06-.08.19-.15.25-.07.06-.11.15-.19.21-.08.05-.22.01-.29.06-.08.05-.14.12-.21.17-.08.05-.15.11-.23.15-.08.04-.18.05-.26.09-.08.04-.13.14-.21.19-.07.06-.21.04-.28.09-.08.05-.09.2-.18.24-.09.04-.19,0-.28.02-.09.02-.17.09-.26.11-.09.02-.19,0-.27.04-.08.03-.15.12-.24.14-.08.03-.18.06-.26.09-.09.02-.17.08-.26.11-.09.03-.21-.11-.3-.09-.09.02-.17.07-.26.08-.09.01-.18.05-.27.07-.09.01-.19-.03-.28-.01-.09.02-.17.06-.26.08-.09.02-.18.04-.27.04-.09,0-.17.1-.26.12-.09.01-.18.02-.28.03-.09.01-.19-.13-.28-.13-.09,0-.18.09-.28.09-.09,0-.18.07-.28.07-.09,0-.19-.04-.28-.05-.09-.01-.16-.14-.25-.16-.09-.03-.23.08-.32.04-.09-.03-.13-.21-.22-.23-.09-.02-.19.02-.28,0-.09-.02-.2.05-.29.02-.09-.03-.14-.16-.23-.19-.09-.03-.19.03-.28.01-.09-.02-.19,0-.28-.01-.09-.02-.19-.07-.28-.1-.09-.04-.12-.18-.2-.22-.08-.04-.2-.01-.28-.05-.08-.03-.18-.07-.26-.1-.08-.04-.12-.15-.19-.2-.07-.05-.2-.04-.27-.1-.07-.05-.16-.08-.24-.13-.08-.05-.17-.07-.25-.12-.08-.05-.11-.17-.18-.22-.08-.05-.12-.15-.19-.2-.07-.06-.18-.06-.26-.11-.08-.05-.15-.09-.23-.14-.08-.05-.21-.02-.28-.08-.07-.06-.07-.19-.13-.26-.06-.07-.18-.1-.24-.17-.06-.07-.09-.15-.15-.22-.06-.06-.09-.17-.17-.23-.07-.06-.16-.09-.22-.15-.07-.06-.16-.1-.22-.17-.06-.07-.16-.11-.22-.18-.06-.07-.11-.14-.16-.22-.05-.08-.02-.21-.07-.28-.06-.07-.09-.16-.14-.23-.06-.07-.17-.1-.22-.18-.05-.07-.13-.13-.18-.2-.05-.08-.03-.21-.09-.28-.05-.07-.21-.06-.26-.13-.06-.07-.09-.17-.14-.25-.05-.08-.11-.16-.15-.24l-.11-.25c-.04-.08-.08-.15-.13-.23-.05-.08.02-.22-.02-.3-.04-.07-.1-.17-.14-.23-.04-.09-.08-.16-.12-.24-.04-.08-.09-.16-.11-.25-.03-.09,0-.19-.02-.27-.03-.1-.06-.18-.09-.26-.03-.09-.11-.17-.15-.25-.03-.07-.09-.19-.12-.26-.04-.09,0-.2-.03-.29-.03-.09-.17-.16-.19-.25-.02-.1.02-.21,0-.3-.02-.1,0-.2-.03-.29-.02-.1-.01-.19-.02-.28-.01-.1-.06-.19-.07-.28-.01-.1-.08-.18-.09-.27-.01-.1.04-.2.02-.29-.02-.08-.05-.2-.07-.28-.02-.1.01-.19,0-.28,0-.1-.12-.2-.11-.29,0-.1.08-.18.09-.27,0-.09-.05-.19-.05-.28,0-.09,0-.18-.02-.28-.01-.09.06-.2.05-.3,0-.09-.11-.18-.11-.28,0-.09,0-.18-.01-.29,0-.09.05-.18.06-.28,0-.09.04-.18.04-.28,0-.09.06-.17.08-.27.01-.09-.09-.2-.08-.3.01-.09.12-.17.13-.27,0-.09-.1-.19-.1-.28,0-.09.06-.19.06-.29,0-.09.06-.18.06-.28,0-.1-.08-.19-.07-.28,0-.09,0-.2,0-.28,0-.1.08-.18.09-.27,0-.1.04-.19.05-.27,0-.1-.03-.19-.02-.28,0-.09-.03-.19-.02-.28.01-.09,0-.19.02-.28.02-.07.05-.2.07-.27.02-.09,0-.18.02-.28.01-.09.11-.16.13-.26.02-.07.05-.19.07-.27.02-.1.03-.18.04-.27.02-.09.03-.17.05-.27.02-.09.03-.17.06-.27.02-.09,0-.19.01-.28.01-.05.09-.22.11-.21.02,0-.05.18-.05.23,0,0-.03-.08-.04-.06Z"/>
  </g>
  <g>
    <path class="cls-4" d="M104.84,145.29c-2.41-1.37-4.09-4.25-3.95-7.19.14-2.94,2.24-5.71,4.93-6.21.65-.12,1.37-.09,1.87.37.37.34.54.86.69,1.36.55,1.8,1,3.67,1.01,5.56s-.43,3.85-1.51,5.34c-.42.58-.99,1.11-1.67,1.18s-1.43-.53-1.37-.42Z"/>
    <path class="cls-5" d="M104.8,145.21s-.12.03-.15.01c-.03-.02-.09.02-.12,0-.03-.02,0-.14-.02-.16-.03-.02-.05-.04-.08-.06-.03-.02-.05-.04-.08-.06-.03-.02-.06-.03-.09-.05-.03-.02-.11.04-.14.02-.03-.02-.05-.04-.08-.06-.03-.02-.07-.02-.1-.04-.03-.02-.02-.09-.05-.11-.03-.02-.1.02-.13,0-.03-.02-.03-.08-.06-.1-.03-.02-.03-.08-.06-.09-.03-.02-.09,0-.12-.01-.03-.02-.09,0-.11-.03-.03-.02,0-.11-.02-.13-.03-.02-.07-.02-.1-.04-.03-.02-.04-.06-.06-.08s-.15.05-.17.02c-.02-.03-.03-.06-.06-.09-.02-.03-.05-.04-.08-.07-.02-.02-.05-.05-.07-.07-.02-.01-.07-.04-.09-.06-.03-.02.04-.13.01-.15-.02-.02-.03-.06-.05-.09-.02-.03-.12,0-.14-.02-.02-.03-.08-.02-.1-.05-.02-.03.04-.13.02-.15-.02-.02-.08-.03-.1-.05-.02-.02,0-.08-.03-.11-.02-.03-.03-.06-.05-.09-.02-.03-.02-.07-.04-.1-.02-.03-.16.03-.18,0-.02-.03-.03-.06-.06-.08-.03-.02-.04-.06-.07-.08-.03-.02-.08-.03-.1-.06-.02-.03.04-.1.04-.14,0-.03,0-.08,0-.12,0-.04-.12-.01-.14-.04-.02-.03.08-.13.05-.16-.03-.02-.16.03-.19,0-.03-.02-.06-.05-.08-.08-.02-.03-.02-.07-.03-.1-.01-.03,0-.08-.02-.11-.01-.03.04-.1.02-.13-.02-.03-.12-.02-.13-.06-.01-.03.07-.11.06-.14,0-.03-.11-.02-.13-.06-.01-.03.06-.1.05-.14-.01-.03-.1-.03-.12-.06,0-.03-.02-.07-.03-.1-.01-.03,0-.07-.02-.1-.02-.03.01-.08-.01-.11-.02-.03-.05-.05-.06-.08-.01-.03-.04-.06-.05-.09-.01-.03.03-.09.02-.12-.01-.03-.1-.04-.11-.07-.01-.03-.09-.04-.1-.08-.01-.03.12-.11.11-.14-.01-.03-.05-.06-.06-.09,0-.03-.04-.06-.05-.1-.01-.03-.07-.05-.08-.09l-.02-.1s0-.07-.01-.11c0-.04.07-.08.07-.12s-.03-.07-.04-.1c0-.03-.02-.07-.03-.1,0-.03-.09-.05-.1-.09-.01-.03.09-.09.08-.12,0-.03.04-.08.03-.11,0-.02-.03-.08-.04-.1,0-.03-.16-.05-.16-.08,0-.04.05-.08.05-.11,0-.04-.03-.07-.02-.1,0-.04.08-.07.08-.11s-.05-.06-.06-.1c-.01-.03.06-.08.05-.11s-.15-.06-.15-.09c0-.04.05-.07.04-.11,0-.03-.04-.07-.04-.1,0-.04.06-.07.06-.11,0-.03.04-.07.04-.1,0-.03-.08-.07-.08-.11v-.11s.12-.06.14-.09c.02-.03-.03-.08-.01-.11.02-.03.04-.07.05-.1,0-.03-.04-.07-.05-.11-.01-.04-.07-.07-.08-.11s.1-.06.11-.1c0-.03-.05-.08-.04-.11.01-.03.05-.06.06-.1,0-.03.06-.06.07-.1,0-.03-.06-.08-.04-.11.01-.03.03-.07.05-.1.01-.03-.06-.08-.05-.12,0-.03.03-.06.02-.1s.1-.06.09-.1-.01-.07,0-.1c0-.03-.1-.1-.09-.14.01-.03.07-.05.08-.09.01-.03.01-.07.03-.1.01-.03.03-.07.05-.1.02-.03.15-.01.17-.04s-.07-.1-.06-.13.13-.03.14-.06c0-.03-.08-.1-.07-.14.01-.03.14-.02.15-.05.01-.03-.04-.09-.03-.13.01-.03-.02-.08,0-.12.01-.03,0-.08.02-.11.01-.03.03-.06.04-.1,0-.03.02-.07.03-.1.01-.03.06-.05.07-.08.02-.03.03-.06.05-.09.02-.03.02-.07.04-.1s.14,0,.15-.03c.01-.03-.09-.13-.06-.16.02-.03.15.02.18,0,.02-.03.05-.06.06-.09s-.09-.13-.08-.17.09-.03.1-.07c.01-.03.04-.06.06-.08.02-.03-.04-.11-.02-.14.02-.03.15.02.17,0,.02-.03-.05-.12-.03-.15.02-.03.1-.01.12-.04s.07-.04.08-.07c.02-.03.06-.04.08-.06.02-.03-.06-.15-.03-.17.03-.01.08-.04.1-.05.03-.02.16.05.19.03.02-.03-.03-.12,0-.15.02-.03,0-.09.03-.11s.07-.03.1-.05c.02-.02.01-.09.04-.11s.15.06.18.03c.03-.02.07-.03.09-.06s0-.11.02-.13c.03-.02.03-.07.06-.09.03-.02.01-.09.04-.12.03-.02.08-.01.1-.04.02-.03.07-.03.09-.06.02-.03.04-.06.07-.08.03-.02,0-.11.04-.13.04-.01.14.08.17.07.03-.01.07-.03.1-.05.03-.02.05-.05.08-.08.02-.03,0-.11.03-.14.03-.03.07-.03.1-.04s.06-.03.1-.05c.03-.01.1.04.14.03.03-.01.01-.12.04-.14.03-.02.07-.02.1-.04.03-.02.04-.07.07-.09.03-.02.12.09.16.07s.04-.07.08-.09c.03-.01.07-.01.1-.03.03-.01.05-.06.09-.07.03-.02.09.02.12,0,.03-.02.03-.1.06-.12.03-.02.08.02.12.01s.04-.13.07-.13c.04,0,.1.09.13.08.03,0,.04-.11.08-.12.04,0,.08.03.12.02.03,0,.09.05.12.04.03,0,.07-.02.1-.03.03,0,.05-.13.08-.14.04,0,.08.02.11.02.04,0,.07-.02.11-.03.04,0,.09.11.12.1.03,0,.08-.02.1-.03.04,0,.07-.06.1-.06.04,0,.07-.07.11-.07.04,0,.07.05.11.05.04,0,.08-.03.11-.02.04,0,.07.12.1.13.04,0,.09-.14.13-.13l.12.02s.06.12.09.12l.11.03s.11-.08.15-.07c.04.02.05.09.09.1.04,0,.09,0,.13,0,.04.01.04.1.07.12.03.02.09.01.12.04s.05.08.08.1c.03.02.15-.05.18-.02.03.03-.01.13,0,.17.02.04.06.06.07.1.02.04.08.04.1.07.02.03-.01.11,0,.14.02.03.01.08.03.11l.05.1s.08.04.1.07c.02.03,0,.08.01.12.02.03.09.04.1.07.01.03.09.04.1.08,0,.04,0,.08,0,.11,0,.04-.06.1-.05.13.01.03.11.03.13.06s0,.08.02.11c.02.03.11.04.12.07.01.03-.12.1-.12.14,0,.03.07.05.07.09s0,.07,0,.1c0,.03.04.06.06.09.01.03-.01.08,0,.11.01.03.06.05.07.08,0,.03,0,.07.01.1.01.03-.03.08-.02.11.01.03.18.02.19.05,0,.03-.09.09-.09.13,0,.03-.05.08-.05.12,0,.04.05.06.06.09,0,.03.12.03.14.06.02.03.02.07.04.1.02.03.05.06.06.09s-.02.08-.01.11.05.06.05.09,0,.07,0,.1c0,.03-.04.08-.03.11.01.03.06.06.07.09.01.03,0,.07.01.1,0,.03,0,.07,0,.11,0,.04-.06.08-.06.12,0,.03.04.06.04.1,0,.03.08.05.09.08s-.07.09-.05.12.08.05.08.08c0,.03-.01.07-.02.11,0,.04-.04.07-.05.11,0,.04.08.06.08.09,0,.03.03.06.05.09.02.03,0,.07.03.1.02.03.1.05.1.09,0,.03,0,.07,0,.11,0,.03,0,.08,0,.1,0,.03-.12.09-.11.12,0,.03.13.05.13.09s-.04.07-.05.11,0,.06,0,.1c0,.03.02.06.03.1,0,.03-.06.08-.05.11s.1.06.11.09c0,.03-.06.08-.05.11,0,.03.07.06.08.09,0,.03.03.07.04.1,0,.03-.02.07-.02.11,0,.03-.11.08-.11.11,0,.03.02.07.02.1,0,.03.04.07.03.1,0,.03.06.07.06.1,0,.03-.04.07-.04.1,0,.03-.1.08-.09.11.02.02.04.07.06.1.02.03.03.06.03.1,0,.03.02.07.01.1,0,.03-.04.07-.05.1s-.01.07-.01.11.1.07.1.1c0,.04,0,.06.01.1,0,.03.04.07.04.11,0,.03-.03.06-.03.1,0,.03,0,.07,0,.1v.1s-.03.07-.04.1c0,.03-.02.07-.03.1,0,.03.02.07.02.1,0,.03-.01.07-.02.1,0,.03-.04.06-.05.1,0,.03-.03.06-.03.1,0,.03.04.07.06.1,0,.03-.06.07-.05.1,0,.03.11.08.1.11,0,.03-.07.06-.08.09s.02.07.01.11c0,.03-.11.05-.11.09,0,.03.07.08.05.11-.02.03-.09.05-.1.08-.02.03-.08.06-.09.09,0,.03.02.07,0,.1l-.02.1-.02.1s.04.08.05.11c0,.04-.06.06-.06.1,0,.04.15.1.14.13,0,.03-.1.05-.11.08-.02.03.04.08.02.11-.02.03-.03.06-.04.09,0,.03-.12.04-.13.07,0,.02-.01.08-.02.1,0,.03-.06.05-.07.08-.01.03,0,.07-.02.1,0,.03.05.09.05.12s.02.08.01.11c-.01.03-.13.03-.14.06-.02.03,0,.07-.02.1-.02.03-.08.04-.09.07-.01.03.02.08,0,.11-.02.03-.08.04-.1.07s.02.09,0,.12-.04.06-.05.09c0,.04.08.1.08.14,0,.04,0,.08-.02.11-.02.03-.17-.01-.19.02-.02.03.09.13.07.16-.02.03-.12,0-.14.04s.06.11.04.14c-.01.03-.11.02-.12.05-.01.03.01.09,0,.12-.02.03,0,.08-.02.11-.01.03-.03.07-.05.09-.02.03-.08.03-.1.06l-.05.09s-.05.06-.07.08c-.02.03.02.1,0,.13-.02.03-.09.02-.12.05-.03.02-.11,0-.14.02-.03.02.03.12,0,.14-.02.03-.07.03-.1.06-.03.03-.12-.01-.15,0-.03.02-.03.07-.05.09-.03.03-.09.02-.1.05-.02.03.02.11,0,.14-.02.03-.02.08-.05.1-.03.02-.1-.01-.14,0-.04.02-.06.03-.1.04-.04.01-.03.08-.06.1-.03.02-.04.07-.07.09-.03.03-.1-.02-.13,0-.03.02,0,.14-.04.16-.04.02-.11-.05-.14-.04-.04.01-.04.09-.08.1-.04,0-.1-.05-.13-.05-.04,0-.07.02-.11.03-.02,0-.08.04-.1.05-.04.01-.06.1-.1.11-.04,0-.09-.12-.12-.13-.04-.01-.08,0-.11-.01-.04-.02-.07.01-.11,0-.04,0-.06-.1-.09-.1-.03,0-.08.03-.11.03-.03,0-.09.06-.12.05-.03-.01-.06-.05-.09-.07-.03-.01-.05-.07-.08-.09-.03-.01-.08,0-.11-.01-.03-.02-.07-.02-.09-.04-.03-.02-.05-.06-.07-.08-.03-.02-.05-.05-.08-.07-.03-.02,0-.12-.03-.14-.02-.02-.11.05-.13.03-.02-.02,0-.15-.02-.17-.02,0-.03,0-.08.02-.07.03,0,.08-.02.07,0,.02-.04-.06.03-.06.04,0,.04,0,.05,0,.03,0,.06.02.1.03.03,0,.02.11.05.12.03,0,.12-.09.15-.08.03.01,0,.16.02.18.03.01.12-.11.15-.1.03.01.02.12.05.13.03,0,.08-.04.11-.04.03,0,.06.02.09.02.03,0,.06.02.09.03.03,0,.06.02.09.02.03,0,.07-.06.1-.07.03-.01.05.04.08.04.03,0,.06-.05.09-.04.03,0,.05.08.08.08.03,0,.05-.06.08-.06.03,0,.05-.06.07-.07.02-.01.06.02.09,0,.02-.01.04-.06.07-.06.02,0,.08.05.1.03.02-.01.02-.1.04-.12.02-.01.05-.04.07-.05.02-.01.09.04.11.02.02-.02.02-.08.04-.1.03-.02.05-.03.07-.05.02-.02.1.04.13.03.03-.02.02-.08.04-.09.03-.02.06-.02.08-.04.02-.02.06-.02.09-.04.03-.02-.02-.11,0-.13.02-.02.13.04.15.01.02-.02-.07-.15-.05-.17.02-.02.13.03.15,0,.02-.02.05-.04.07-.06.02-.03-.05-.12-.03-.14.02-.02.04-.05.06-.07.02-.03.08-.02.1-.04.02-.03-.02-.09-.01-.12,0-.03.06-.04.06-.08,0-.03.03-.06.04-.09.02-.03.04-.05.07-.07.03-.02.06-.04.09-.06.03-.02.12,0,.14-.03.02-.03.03-.06.04-.1,0-.04-.05-.1-.05-.13s.06-.04.07-.07c.02-.03-.02-.08,0-.11.02-.02,0-.07.02-.1.02-.03.09-.02.11-.05.01-.03,0-.07.02-.1.02-.03.09-.03.11-.06s-.01-.08,0-.11-.05-.09-.04-.12.09-.04.1-.07c0-.03.05-.05.06-.08.01-.03.02-.06.04-.09.01-.03.05-.05.06-.08.01-.03-.12-.11-.11-.14,0-.03.08-.04.08-.07v-.1s.06-.05.07-.08c0-.03-.07-.09-.06-.12,0-.03.05-.05.06-.08,0-.03.05-.05.06-.08,0-.03-.05-.08-.04-.11,0-.03.14-.03.15-.06,0-.03-.12-.1-.11-.13,0-.03,0-.07,0-.1,0-.03.1-.05.1-.08,0-.03.03-.06.04-.09,0-.03-.04-.08-.02-.11.02-.03.02-.06.04-.09.02-.03.14-.03.15-.07s.02-.06.02-.1c0-.03-.11-.08-.11-.11,0-.03.12-.05.13-.08,0-.03,0-.07,0-.1,0-.03.03-.06.04-.09,0-.03-.05-.07-.04-.11,0-.03-.07-.08-.07-.11s.06-.06.07-.09c0-.03-.02-.07-.02-.1s.09-.06.09-.09c0-.03-.06-.07-.06-.1,0-.03.01-.06.01-.1,0-.03-.03-.06-.04-.1-.01-.03.02-.07,0-.1-.01-.03-.11-.07-.11-.1,0-.03.15-.06.15-.09,0-.03,0-.07,0-.1,0-.03.02-.07.02-.1s-.09-.07-.08-.1l.02-.1s.13-.06.12-.1c0-.03.02-.06.02-.1,0-.03-.06-.07-.05-.1,0-.03-.06-.06-.06-.1,0-.03.02-.07.02-.1,0-.03.03-.07.02-.1,0-.03-.05-.06-.05-.09v-.1s.04-.07.04-.1c0-.03-.13-.06-.13-.09,0-.03,0-.07-.01-.1,0-.03.07-.07.07-.1s-.04-.06-.04-.09c0-.03.04-.07.03-.1,0-.03-.03-.06-.03-.09,0-.03.05-.07.05-.1,0-.03.02-.07.02-.1,0-.03-.16-.05-.16-.08,0-.03.12-.08.11-.11,0-.03-.04-.06-.05-.09,0-.03-.09-.05-.1-.08,0-.03.05-.08.04-.11,0-.03-.05-.06-.05-.09,0-.03-.04-.06-.05-.09s.11-.09.1-.12c0-.03-.16-.04-.17-.07,0-.03.11-.09.1-.12,0-.03-.08-.05-.08-.08s.02-.07.01-.1c0-.03-.04-.06-.04-.09,0-.03.03-.07.02-.11,0-.03-.07-.05-.07-.09,0-.03.07-.08.06-.11,0-.03-.04-.06-.04-.09,0-.03-.06-.06-.06-.09,0-.03.07-.08.06-.12s-.04-.06-.04-.09c0-.03-.13-.03-.15-.06-.02-.03.1-.1.08-.13-.02-.03-.04-.05-.05-.09,0-.03-.04-.06-.03-.09s-.06-.06-.06-.09.09-.09.08-.12c0-.03,0-.07-.03-.1-.02-.03-.1-.04-.12-.06-.02-.03.03-.08.02-.11,0-.03-.02-.06-.02-.1,0-.03-.05-.06-.05-.09s-.02-.06-.03-.1c0-.03,0-.07-.03-.1-.02-.03-.01-.07-.03-.1-.02-.03-.02-.06-.03-.09s-.08-.04-.09-.08.06-.09.05-.12-.05-.05-.06-.09c0-.03.04-.08.04-.11,0-.04,0-.06,0-.1,0-.03-.03-.06-.04-.1-.01-.03-.12-.03-.14-.06-.02-.03-.08-.04-.09-.07-.02-.03.06-.09.05-.12-.01-.03-.05-.05-.06-.08,0-.03.02-.07.01-.1,0-.03.02-.08.01-.11-.01-.03-.03-.06-.04-.08-.02-.03-.13,0-.14-.02-.02-.03-.03-.05-.04-.07-.01-.02.05-.09.05-.12,0-.03-.1-.01-.1-.04,0-.03.08-.13.07-.16-.02-.02-.13.04-.15.02l-.06-.05s.04-.12.02-.14-.11.05-.14.05c-.03,0-.08.03-.1.02-.03,0-.04-.03-.06-.04-.02-.01-.04-.04-.06-.06-.02-.02,0-.14-.02-.16-.02-.02-.08.05-.11.04-.03,0-.04-.08-.07-.08-.03,0-.07.03-.09.02-.03,0-.07.06-.1.05-.03,0-.04-.15-.07-.16-.03,0-.07.08-.1.08s-.06-.08-.09-.08c-.03,0-.07.02-.1.03-.03.01-.05.12-.08.14-.03.01-.07-.07-.1-.07-.03,0-.05.08-.08.08-.03,0-.07-.04-.1-.04-.03,0-.04.12-.07.12-.03,0-.05,0-.09.01-.03,0-.08-.12-.11-.12-.03,0-.05.08-.08.09s-.08-.08-.12-.08c-.03,0-.05.06-.08.06-.03,0-.06,0-.09.02-.03.01-.08-.05-.11-.03-.03.01-.06.03-.09.04-.03.01-.03.11-.05.12s-.08-.03-.11-.02c-.03.01-.02.11-.05.13-.03.02-.08-.02-.11,0-.03.01-.03.09-.06.1-.02,0-.07.02-.09.03-.03.01-.09-.05-.12-.03-.03.01-.06.02-.09.03-.03.01-.02.09-.05.1-.03.01-.04.06-.06.08-.03.02-.07,0-.1.02-.03.01-.05.04-.08.05s-.09-.03-.12-.01c-.03.02-.08,0-.1.02l-.08.06-.08.06s0,.11-.02.13c-.02.02-.05.04-.07.06-.03.02-.11-.04-.14-.02-.02.02,0,.1-.02.12-.02.02-.07.01-.1.04-.02.02,0,.09-.03.11-.02.02-.02.07-.04.1-.02.02-.08,0-.1.03-.02.02-.11-.02-.13,0s.04.13.03.16-.06.03-.08.05-.09,0-.11.03c-.02.02.05.13.02.15-.02.01-.06.04-.08.05-.03.02-.08.01-.1.04s-.09.01-.11.03l-.07.07s.02.1,0,.12c-.02.03-.05.04-.06.07-.01.03-.1,0-.11.04-.01.03,0,.08-.01.11-.02.03-.04.05-.06.07-.02.02-.03.06-.05.08-.02.02,0,.07-.02.1-.02.03-.06.04-.07.07-.02.03.01.08,0,.11-.02.03-.06.04-.07.07-.02.03-.05.04-.07.07-.02.03-.1.02-.11.05-.02.03-.07.04-.09.06-.02.03.05.1.04.13-.01.03,0,.08,0,.1-.01.03-.13,0-.15.04-.01.03,0,.07-.03.09-.02.03-.01.07-.03.09-.02.03-.07.04-.08.07-.01.03.02.08.02.12s-.08.04-.08.08c0,.04.11.11.1.14-.01.03-.1.03-.13.05-.02.03,0,.07-.02.1-.02.03-.08.04-.09.07s.03.08.02.11c0,.02-.01.07-.02.09,0,.03.01.07,0,.1,0,.03-.16.02-.17.05-.01.03.02.07,0,.1-.01.03,0,.07,0,.1,0,.03-.07.05-.07.09,0,.03.02.07.02.1,0,.04,0,.07,0,.1,0,.03.08.08.09.11,0,.03,0,.06,0,.1,0,.03-.14.04-.14.08,0,.03.08.08.08.11,0,.03.07.07.07.1,0,.03-.03.06-.03.09s-.12.05-.14.08c-.02.03.1.08.08.11-.02.03-.18.04-.18.08,0,.03.05.07.04.1,0,.03.09.07.09.1,0,.03-.12.06-.12.09,0,.03.08.06.09.1.01.03.07.06.08.09.01.03,0,.07,0,.1,0,.03-.13.07-.13.1,0,.03.08.06.08.09,0,.03.02.06.02.09,0,.03-.08.07-.09.1,0,.03.06.06.06.1s0,.06,0,.09c0,.03.04.06.04.09,0,.03-.08.07-.07.11,0,.03-.05.07-.05.1,0,.03.07.06.08.09.01.03.02.06.04.09.01.03.12.04.12.07,0,.03-.08.08-.09.11,0,.03.06.06.05.09,0,.03-.04.07-.03.1,0,.03-.04.08-.03.11.02.03.05.05.07.08.02.03.07.05.08.08,0,.03.06.05.07.08,0,.03,0,.07,0,.1,0,.03-.1.09-.09.12,0,.03-.01.07,0,.1,0,.03.09.04.1.07.01.03.06.05.07.08.01.03-.06.09-.04.12.02.03.16,0,.17.03.02.03.01.07.02.1.01.03.03.06.04.09l.02.1s.03.05.04.08c.01.03-.08.11-.06.13.02.02.05.06.07.08.02.03.03.06.04.08.01.03.05.05.06.08,0,.03-.03.09-.03.12,0,.03.02.06.04.09.02.03.08.04.1.06.02.03.06.05.08.07.02.03,0,.08,0,.11.02.03.14,0,.16.03.02.03-.02.09,0,.12.02.03,0,.08.02.1.02.03.01.07.03.1.01.03.06.05.07.08.01.03.08.03.1.06.02.03-.02.1,0,.12.02.02.06.05.08.07.03.02.01.08.03.1.02.03.12,0,.13.04,0,.04-.04.1-.03.14,0,.04.07.03.09.06.02.03.03.06.06.08.03.02-.01.1.01.13.03.02.12-.01.14.01.02.03.05.04.07.07.02.03,0,.09.02.12.02.03.02.07.04.1.02.03,0,.09.01.13.02.03.11,0,.13.03.02.03-.04.13-.01.15.02.02.12-.03.15,0,.03.02.01.09.04.11.03.02.01.08.04.11.03.03.11-.01.14,0,.03.02.07.03.09.05.03.02,0,.1.03.12.03.02.03.07.06.09.03.02.08.01.11.03.03.02.08,0,.11.03.03.02.06.03.09.06.02.02.04.06.06.09.02.02.06.03.09.05.02.02,0,.11.03.14.02.02.04.07.06.09.03.02.06.04.09.06.03.02.06.04.08.06.03.03.05.04.08.06.03.02.08,0,.11.03.02.01.05.09.04.1,0,.01-.05-.05-.07-.06,0,0,.05-.02.05-.04Z"/>
  </g>
  <path class="cls-3" d="M147.02,60.33c-.07.06-.1.17-.16.22-.07.06-.16.08-.23.14-.06.05-.15.11-.21.16-.07.06-.15.09-.22.15-.07.06-.13.12-.2.18-.07.06-.17.07-.24.13-.07.06-.04.21-.1.28-.06.07-.22.05-.28.12-.06.07-.11.13-.18.19-.07.06-.15.09-.22.14-.07.05-.11.15-.19.2-.07.05-.09.17-.16.23s-.1.14-.15.21c-.06.07-.22.05-.28.12-.06.07-.11.13-.18.19-.07.06-.06.22-.13.27-.06.04-.16.1-.23.15-.07.05-.2.03-.27.09-.06.07-.12.14-.18.2-.06.06-.05.2-.11.26s-.22.04-.28.1c-.06.06-.05.2-.11.27s-.16.1-.22.17l-.18.2c-.06.07-.05.19-.11.26s-.18.09-.23.16c-.06.07-.06.18-.12.25-.06.07-.18.08-.24.14s-.09.17-.15.23c-.06.06-.12.13-.18.19-.06.07-.16.1-.22.16-.06.07-.06.19-.12.26-.06.07-.22.04-.28.11-.06.07-.04.2-.08.28-.06.09-.09.14-.15.23-.05.08-.17.1-.22.17-.06.07-.07.18-.12.25s-.09.17-.15.23c-.06.07-.11.14-.16.22-.05.07-.14.13-.2.19-.06.07-.14.12-.2.18s-.14.12-.2.21c-.06.09-.03.22-.08.31-.05.09-.09.18-.12.27-.04.09-.16.16-.18.27-.03.11-.04.22-.05.34,0,.12.05.24.08.36.04.13.1.25.2.36.1.11.23.16.35.21.13.04.26,0,.36,0,.1,0,.25.13.35.11.1-.02.17-.11.26-.13.09-.02.17-.07.26-.09.09-.02.17-.04.26-.07.09-.02.18-.01.27-.04.09-.03.15-.12.24-.15.09-.03.2.03.29.01.09-.02.18-.04.27-.07.08-.03.19,0,.28-.04.08-.03.14-.13.23-.16l.26-.06c.08-.02.18-.04.26-.06.09-.02.18-.04.26-.06.09-.02.17-.06.26-.09.09-.03.2.03.28,0,.09-.03.16-.06.25-.09.09-.02.16-.13.25-.15.09-.01.19.09.27.08.09-.01.19-.06.27-.09.09-.02.18-.02.27-.04l.26-.07c.09-.02.14-.17.23-.19.09-.02.21.07.3.04s.13-.16.21-.19c.08-.03.18-.03.27-.05.09-.02.2.04.29.01.09-.03.12-.21.2-.24.09-.03.22.09.3.07.09-.02.14-.19.22-.21.09-.02.2.06.29.03.09-.02.16-.08.25-.11s.18,0,.27,0c.09-.01.17-.1.26-.12.09-.01.19.03.27.01.09-.02.14-.15.23-.17.09-.03.21.05.29.02.09-.03.18-.02.27-.05s.15-.17.23-.19c.08-.02.18-.04.26-.06.09-.02.21.09.29.07.09-.02.14-.16.23-.19.09-.03.19,0,.27-.03.09-.03.18-.05.26-.08.09-.02.17-.07.26-.09.09-.02.19.03.27.02.09-.02.17-.09.25-.11.09-.02.18-.03.26-.06.08-.03.15-.1.24-.13.08-.03.18-.05.27-.07.09-.02.18,0,.27-.03s.15-.11.24-.14.18-.03.27-.06c.09-.02.2.08.29.07.09-.02.16-.15.25-.17.06,0,.15-.02.21-.02.03,0,.04.02.07,0,.03-.02.07-.05.11-.07.05-.02.02.02.04.02.02,0,.12-.06.14-.07.02,0,.17-.08.2-.09.03,0-.05.05-.03.05.01,0-.03.02-.08.06-.08.05-.15.09-.18.1,0,0,.13-.05.11-.04-.01.01.1-.02.07,0-.02.02,0,.03-.06.07-.06.04-.21.08-.24.09-.03.01.05.03.02.05-.03.02-.11,0-.12.01,0,0-.08.14-.13.18-.07.05-.14.12-.21.17-.07.06-.1.14-.17.21-.06.07-.14.11-.21.18-.06.07-.1.16-.17.22-.07.06-.21.03-.28.09s-.1.16-.17.22c-.06.06-.13.13-.19.19-.07.06-.19.06-.26.12-.06.06-.1.16-.16.22-.06.06-.16.09-.22.15-.07.06-.09.17-.15.23s-.16.09-.23.15c-.07.06-.09.17-.15.23s-.2.03-.27.09c-.07.05-.13.13-.2.18-.07.05-.14.12-.21.18-.07.06-.14.12-.21.18-.06.06-.07.18-.14.24-.06.06-.18.08-.24.14-.06.05-.15.12-.22.16-.06.06-.13.13-.19.19-.07.06-.08.19-.14.24-.07.06-.17.08-.24.13-.07.06-.16.09-.23.15-.07.06-.16.09-.23.15l-.2.17c-.07.06-.04.23-.11.29-.07.05-.14.11-.21.17-.07.06-.2.06-.26.12-.06.06-.15.11-.21.17-.06.07-.09.15-.16.21-.07.06-.1.17-.17.23-.07.05-.22-.01-.29.04-.07.05-.14.13-.21.19-.07.06-.06.2-.12.26-.05.06-.13.14-.18.2-.06.07-.15.11-.22.17-.07.06-.17.08-.23.15-.06.06-.17.08-.24.15-.06.06-.08.17-.15.23-.07.06-.1.15-.17.21s-.1.16-.16.22c-.07.06-.24,0-.3.07s-.08.19-.15.24c-.08.05-.21,0-.28.05-.08.05-.07.22-.14.28-.07.06-.14.11-.2.18-.06.07-.17.1-.23.16-.06.07-.15.1-.22.16-.07.06-.1.15-.18.2-.07.05-.11.17-.19.22-.07.05-.14.11-.2.17-.07.06-.23.05-.28.12-.06.07-.09.16-.15.23-.05.07-.12.12-.18.18-.07.06-.05.22-.12.28-.07.06-.17.08-.23.14-.07.06-.12.13-.18.2-.06.07-.14.12-.2.18-.07.06-.1.16-.16.23-.06.06-.23.04-.29.1-.06.07-.04.21-.1.28-.06.07-.08.17-.14.24s-.18.1-.24.17c-.06.07-.07.18-.12.25s-.14.12-.2.2c-.05.07-.14.12-.2.2-.06.07-.02.21-.08.29-.06.07-.1.15-.15.23-.05.07-.14.12-.19.2-.05.07-.11.14-.19.29-.07.12-.14.25-.2.37-.07.12-.11.23-.18.35-.06.11-.22.28-.3.42-.08.13-.05.2-.13.32-.08.13-.13.25-.2.37-.05.11-.11.23-.16.34-.03.06-.07.13-.09.18l.17-.1c.11-.07.11,0,.23-.08.12-.08.3-.23.43-.32.09-.07.3-.24.39-.31.11-.08.21-.12.33-.19.11-.07.23-.19.35-.26.1-.06.24-.14.35-.21.14-.09.25.01.33-.05l.22-.15c.07-.05.08-.2.16-.25.07-.05.13-.13.21-.18.08-.05.21,0,.29-.06.07-.05.12-.14.2-.19.07-.05.15-.11.22-.16.08-.05.18-.05.25-.1.08-.05.1-.18.18-.23.08-.05.18-.05.26-.1s.18-.05.26-.09c.08-.04.12-.17.2-.21s.21.01.29-.04c.08-.05.08-.2.16-.25.08-.05.18-.05.25-.1.08-.05.2-.01.28-.06.08-.05.12-.15.2-.2.07-.05.15-.11.22-.16.07-.05.17-.06.25-.1.08-.05.09-.22.17-.26l.24-.12c.08-.04.17-.06.24-.11.08-.05.19-.04.26-.09s.1-.17.18-.22c.07-.05.21-.01.29-.06.08-.05.14-.11.22-.17.07-.05.11-.15.18-.2.07-.05.18-.06.25-.11.08-.05.13-.14.21-.18.08-.04.15-.11.23-.15.08-.04.23.05.3,0,.08-.04.16-.08.24-.12.08-.04.13-.13.21-.17.08-.04.14-.12.22-.16.08-.04.19-.02.27-.06.08-.04.12-.17.2-.21.08-.04.17-.07.25-.11.08-.04.18-.06.25-.11.07-.05.1-.16.17-.21.07-.06.2-.03.28-.07.08-.04.11-.17.2-.21.08-.04.19-.03.27-.06.08-.04.13-.14.21-.18s.19-.02.27-.06c.08-.05.19-.03.27-.08.08-.04.09-.21.17-.25.08-.04.2-.01.28-.05s.18-.04.26-.08c.08-.04.15-.1.23-.14.08-.04.17-.05.25-.08.09-.03.18-.01.27-.04.09-.03.17-.11.25-.15.08-.04.12-.14.2-.19.08-.05.18-.06.25-.11.08-.05.18-.03.26-.07.08-.04.15-.09.23-.13.08-.03.14-.14.22-.17.08-.03.21.04.29,0,.08-.04.14-.13.22-.17.08-.04.15-.1.23-.14.08-.04.16-.07.25-.1.08-.03.18,0,.27-.02.09-.02.14-.19.23-.22.09-.02.2.05.28.02.08-.03.13-.15.21-.18.08-.04.2,0,.28-.04.09-.04.17-.07.25-.1.05-.02.05-.06.09-.07.03,0,.07-.04.1-.05.03,0,.05,0,.07,0,.02,0,.14-.1.17-.1.03,0,0,.04,0,.05.02,0-.14.13-.13.12.04-.02.12-.06.16-.09.03-.02.1-.06.18-.1.06-.04.11-.05.11-.05-.01.02-.46.28-.46.28-.01,0,0,.01,0,.02,0,0,.25-.1.22-.07-.03.03-.25.12-.26.13-.02.02-.1.04-.12.05-.02,0,.06.02.03.04-.04.03-.07-.04-.12,0-.06.06-.06.2-.12.26-.06.06-.16.1-.22.17-.06.07-.09.16-.16.23-.06.06-.12.14-.18.2-.06.07-.19.07-.25.14-.06.07-.09.16-.15.23-.06.07-.14.12-.2.18-.07.06-.18.07-.24.14-.07.06-.11.16-.17.22-.06.06-.12.14-.18.2-.06.06-.13.13-.2.19l-.19.2c-.06.07-.07.18-.13.25-.06.07-.08.17-.13.24-.06.07-.14.13-.2.2-.06.07-.15.11-.21.18-.04.06-.11.17-.15.22-.06.07-.19.08-.25.14-.06.07-.1.16-.16.23-.05.07-.11.15-.16.22-.06.07-.14.11-.2.18-.06.07,0,.25-.07.31-.06.06-.19.07-.25.13s-.07.18-.13.25-.15.11-.2.18-.19.07-.25.14c-.06.07-.02.22-.08.29-.06.07-.21.06-.27.13-.05.07-.11.16-.16.22-.06.07-.04.2-.09.27-.06.07-.15.11-.21.18-.06.07-.07.18-.13.25-.06.07-.13.12-.19.19-.06.07-.21.06-.27.13s0,.23-.06.3c-.06.07-.19.08-.24.15s-.14.12-.2.19c-.06.07,0,.23-.06.3-.06.07-.16.11-.21.18-.05.07-.13.13-.19.2s-.08.16-.14.24c-.05.07-.06.18-.12.25-.05.07-.15.12-.21.19-.06.07-.1.16-.15.23-.06.07-.11.14-.17.21-.05.07-.15.12-.2.19-.05.08-.1.15-.15.23-.05.08-.06.18-.11.25-.05.07-.07.18-.12.25-.06.07-.21.06-.27.13s-.06.19-.11.26-.08.16-.13.24c-.06.09-.09.14-.14.23-.04.08-.13.13-.18.21-.05.08-.07.17-.12.24-.05.07-.11.15-.16.22-.05.07-.16.11-.21.18-.05.08-.01.21-.06.28-.05.08-.05.18-.09.26-.05.08-.19.1-.24.17-.05.08-.02.21-.07.28-.05.08-.1.14-.16.22-.05.07-.15.11-.2.18-.04.06-.06.17-.04.18.07.04.09.13.13.15.06.02.1.05.17.07.05.01.17-.1.23-.06.02.01.07.1.11.04.05-.08.03-.19.07-.27.04-.08.13-.14.17-.22.04-.08.08-.16.12-.23.05-.08.14-.13.19-.2.05-.08,0-.2.06-.28.05-.08.05-.18.1-.25l.15-.23c.05-.07.13-.13.18-.2.05-.07.18-.09.23-.17.05-.07.04-.19.09-.26.05-.07.14-.12.19-.19.05-.07.14-.12.19-.19.05-.07.05-.18.1-.26.05-.08.15-.12.2-.19s0-.22.04-.29l.16-.22c.05-.07.2-.07.26-.14.05-.06.12-.15.18-.21.05-.07.05-.19.1-.26.05-.07.12-.13.17-.21.05-.07.13-.13.18-.2.05-.07.08-.16.13-.23.06-.07.03-.21.09-.28.06-.07.14-.11.19-.19.05-.07.19-.08.25-.15l.16-.21c.06-.07.07-.17.13-.24.06-.07.14-.1.2-.17.06-.06.08-.18.14-.25.06-.06.19-.08.24-.15.05-.07.1-.16.16-.23.05-.07.06-.17.11-.25.05-.07.03-.21.08-.28.06-.07.15-.11.21-.18.05-.07.14-.12.2-.19s.13-.12.19-.19c.06-.07.08-.17.14-.23.06-.07.06-.18.12-.25l.17-.21c.06-.07.17-.09.24-.15.06-.05.15-.12.21-.17.07-.06.1-.15.16-.22.06-.07.2-.07.25-.14.05-.07.07-.17.12-.24.06-.07.06-.18.12-.25.06-.07.18-.07.25-.13s.09-.17.15-.23c.06-.06.17-.09.23-.15.06-.07.13-.12.19-.18.06-.07.08-.17.14-.23.06-.06.13-.13.19-.19.05-.06.12-.15.17-.21l.19-.19c.06-.06.17-.08.23-.15.06-.06.12-.15.17-.23.05-.07,0-.21.04-.29.05-.07.22-.06.28-.12s.11-.12.19-.18c.09-.08.12-.1.21-.18.07-.05.14-.13.2-.19.06-.06.11-.15.16-.22.04-.06.11-.16.15-.22.06-.07.09-.16.16-.22.04-.04.26-.1.39-.21.12-.1.29-.24.41-.34.15-.13.18-.24.29-.35.1-.09.3-.25.41-.35.13-.12-.04-.11.07-.21.11-.1.51-.34.63-.46.11-.11.28-.25.37-.35.04-.05.07-.08.09-.12l.02-.03-.07.03c-.05.02-.1.04-.14.06-.19.06-.32.11-.47.16-.15.05-.2.03-.33.07-.14.04-.57.3-.68.33-.12.03-.13-.04-.29.01-.15.05-.35.17-.49.21-.14.05-.27.09-.41.14-.14.05-.29.03-.45.09-.12.04-.19.06-.28.11-.08.04-.19.05-.27.09-.08.04-.15.08-.23.12-.08.03-.15.14-.23.16-.08.02-.18.04-.27.05-.09.02-.2,0-.28.03-.08.03-.17.08-.25.13l-.24.14c-.08.05-.13.13-.21.17-.08.04-.17.08-.26.1-.09.02-.17.08-.26.1-.09.02-.17.04-.26.07-.08.04-.15.09-.22.14-.08.05-.18.07-.25.12-.08.05-.16.08-.25.11-.08.04-.16.08-.24.12-.08.04-.18.05-.26.08-.08.04-.11.19-.19.23-.08.04-.2.01-.28.05-.08.03-.14.13-.23.17-.08.04-.17.04-.25.08-.08.04-.18.04-.26.08-.08.04-.19.03-.27.07-.08.04-.16.07-.24.11-.08.04-.15.12-.23.17-.08.05-.13.13-.21.18-.08.05-.14.11-.22.15-.08.04-.19,0-.28.03-.08.03-.13.16-.22.19s-.19.03-.27.07c-.08.04-.16.08-.24.12-.08.04-.13.14-.21.18-.08.04-.14.12-.22.17-.08.04-.18.05-.25.1-.07.05-.2.03-.28.08-.08.05-.15.08-.23.13-.08.04-.13.13-.21.18-.08.05-.12.15-.2.2-.06.05-.16.11-.22.16-.08.05-.21,0-.29.03-.08.04-.15.12-.23.16-.08.04-.2.02-.28.06-.08.05-.16.1-.24.15-.07.05-.05.22-.12.28-.07.05-.21.02-.29.06-.08.05-.14.12-.22.17s-.14.13-.22.17-.15.1-.22.15c-.08.05-.22-.01-.3.04-.07.05-.1.17-.18.22-.07.05-.17.08-.24.12s-.14.11-.22.17c-.07.05-.1.17-.17.22-.07.05-.16.12-.22.16-.08.05-.17.07-.25.11s-.2,0-.28.05-.11.17-.18.22c-.08.05-.18.04-.27.08-.07.03-.18.08-.25.11-.08.04-.19.05-.26.1s-.1.18-.16.24c-.07.06-.19.07-.25.13-.07.06-.05.22-.13.27s-.2.03-.27.07c-.08.05-.17.07-.24.12-.07.05-.15.11-.22.16-.08.05-.13.13-.21.17-.05.03-.07.01-.09.02-.02,0-.03-.03-.04-.02-.02,0-.02,0-.03,0-.01.01-.01,0-.02,0,0,0-.24.32-.29.34-.04.02.07-.12.05-.11-.02.01-.03,0-.02,0,0-.01-.2.19-.18.14.02-.05.34-.35.34-.35,0,0-.16.11-.14.07.02-.03.06-.07.08-.1.01-.02-.04-.02,0-.06.03-.04.15-.07.17-.07.03-.03.02.03.09-.06.05-.07.05-.18.09-.25.05-.07.17-.1.22-.17.05-.07,0-.21.05-.28.05-.06.12-.14.17-.2.06-.07.14-.12.19-.18s.08-.16.13-.23c.06-.07.2-.06.26-.13.06-.07.02-.22.08-.29.06-.07.21-.05.27-.12.06-.07.13-.13.18-.2.05-.07,0-.23.06-.29.06-.07.2-.07.26-.13.06-.06.05-.21.12-.27.06-.05.15-.12.21-.17.07-.06.22-.02.29-.08.06-.06.09-.16.15-.23.06-.07.1-.15.16-.22.06-.07.15-.1.21-.17.06-.06.17-.08.23-.14.06-.06.03-.24.09-.3.07-.06.16-.08.23-.15s.19-.05.26-.11c.06-.05.15-.12.21-.17l.2-.18c.07-.06.06-.2.12-.26.07-.07.12-.13.19-.19.06-.07.09-.17.16-.23.07-.06.19-.06.26-.11.07-.06.13-.11.2-.18.07-.06.1-.16.16-.22.07-.06.16-.09.22-.15.06-.06.17-.08.23-.15.07-.06.11-.15.18-.21.07-.06.18-.08.24-.15.06-.06.07-.18.13-.24.06-.07.14-.11.21-.17.07-.06.13-.12.21-.17.07-.05.17-.06.25-.12.07-.05.1-.17.17-.23.06-.05.15-.12.22-.16.05-.06.13-.14.19-.2.06-.06.13-.13.19-.19.07-.06.15-.1.22-.16.07-.06.12-.14.18-.2.07-.06.17-.07.24-.13.07-.06.07-.19.13-.25.06-.06.16-.09.23-.16.06-.06.16-.09.23-.15.07-.06.12-.14.18-.2l.2-.18c.07-.06.1-.16.16-.22.07-.06.2-.05.27-.11s.09-.16.16-.22c.06-.06.13-.14.19-.19.07-.06.18-.07.25-.12.07-.06.07-.2.13-.26.07-.06.13-.12.2-.18.07-.06.23-.01.3-.07.06-.06.13-.13.19-.19.07-.06.15-.1.22-.16.07-.06.03-.23.1-.29.04-.05.13-.15.18-.21.06-.06.15-.12.21-.18.07-.06.15-.1.22-.16.07-.06.19-.06.25-.12.07-.06.15-.1.22-.16.07-.06.11-.15.18-.2.07-.06.12-.14.19-.2.07-.06.19-.06.26-.12s.11-.15.17-.21c.06-.06.08-.17.14-.23s.16-.21.25-.28c.1-.08.2-.17.3-.26.1-.08.27-.18.38-.28.11-.09.3-.21.41-.31.11-.1.4-.26.56-.39.18-.16.22-.19.39-.35.17-.14.33-.27.45-.37h-.03c-.17.05-.46.17-.64.22-.18.05-.2,0-.39.06-.18.05-.37.12-.52.16-.15.03-.29.07-.45.11-.17.04-.47.25-.6.28-.13.03-.22-.06-.39-.01-.13.03-.29.07-.42.1-.09.02-.15.14-.24.16-.09.02-.2-.06-.29-.04-.09.02-.17.08-.26.11-.08.03-.13.15-.22.18-.08.03-.18.07-.26.09s-.2-.05-.29-.02c-.07.03-.18.07-.25.09-.09.03-.16.09-.25.12-.09.02-.18,0-.27,0-.08,0-.19.02-.27.03-.09.01-.18.06-.26.08-.09.02-.17.04-.26.06-.09.02-.17.04-.26.07-.09.02-.17.05-.26.07-.09.02-.16.09-.25.11-.08.03-.18.06-.25.09-.09.02-.17.08-.25.1-.09.02-.19-.03-.28,0-.09.03-.2-.02-.29.01-.09.03-.14.15-.23.18-.09.02-.19,0-.27.03-.09.02-.15.12-.24.15-.09.02-.2-.04-.28-.01-.09.02-.18,0-.27.01-.09.02-.17.04-.27.06-.09.02-.16.13-.25.15-.09.02-.18.02-.27.05-.1.03-.16.05-.26.07-.09.03-.15.13-.24.15-.09.02-.19.03-.28.04-.09.01-.19-.08-.28-.07-.09.01-.16.15-.25.18l-.27.07c-.09.02-.19-.03-.28,0-.09.02-.16.1-.25.12-.09.02-.22-.08-.31-.05-.07.03-.18.07-.25.1-.09.03-.16.08-.24.1-.09.02-.16.11-.25.13s-.17.07-.26.09-.19-.03-.28,0c-.09.02-.19.03-.27.06-.08.03-.13.15-.22.18s-.18.04-.27.06c-.09.02-.2-.04-.29-.02-.09.02-.15.15-.23.18-.09.02-.19,0-.28.02-.09.02-.17.08-.26.1s-.19-.06-.28-.04-.17.1-.25.13c-.09.02-.17.04-.26.08-.08.03-.2,0-.28.03-.09.03-.16.07-.24.09-.08.02-.15.14-.22.13-.08,0-.1-.17-.13-.19s-.11.03-.14,0c-.02-.03-.04-.06-.06-.11-.03-.05.01-.12,0-.18,0-.06-.09-.15-.07-.23.02-.08.15-.12.18-.19.04-.07.04-.15.09-.22.04-.07.03-.17.07-.24.04-.06.18-.08.23-.15.05-.08-.03-.23.02-.3s.12-.15.17-.22c.05-.07.16-.11.21-.18s.16-.11.21-.18c.05-.07.09-.15.15-.22.05-.07.11-.15.16-.22l.16-.22c.05-.07.07-.17.12-.25s.19-.09.25-.16c.06-.07.04-.2.1-.28.06-.07.06-.19.12-.26.06-.07.19-.09.24-.16.05-.07.05-.19.11-.26.06-.07.15-.12.21-.19.06-.07.15-.11.22-.18.06-.07.03-.21.09-.28s.18-.09.24-.16c.06-.07.1-.16.17-.23.07-.06.11-.15.18-.22.07-.06.13-.12.19-.19.06-.07.2-.08.26-.15.06-.07.08-.17.13-.25.06-.08.11-.15.17-.22.06-.07.09-.17.15-.24.06-.07.14-.12.2-.19.05-.06.13-.15.18-.22.06-.07.21-.04.28-.1.07-.06.12-.16.19-.22.07-.06.12-.15.18-.22.06-.06.15-.09.2-.16.07-.07.1-.11.17-.18.05-.06.05-.17.1-.23.06-.06.09-.14.15-.19.06-.06.22-.02.27-.07.06-.06.03-.2.09-.26.06-.06.16-.07.22-.12.05-.05.12-.13.16-.18.06-.06.1-.13.16-.19.06-.06.18-.06.24-.12.06-.06.03-.19.09-.25s.16-.07.22-.13c.03-.03.06-.05.06-.06,0-.02-.07-.04-.11,0Z"/>
  <path class="cls-3" d="M45.08,75.24c.06.08.18.13.24.21.06.08.09.19.15.27.05.08.12.18.17.26.06.08.1.18.16.26.07.08.13.16.19.24.06.08.08.2.14.28.06.08.23.07.3.15.07.08.06.25.13.32.07.08.14.14.2.22.06.08.09.17.15.26.06.09.16.15.22.23s.18.13.24.21c.06.08.15.12.23.2.07.07.06.25.13.32.07.07.14.14.2.22.07.08.24.1.29.19.05.08.11.19.16.26.06.09.03.22.1.3l.22.22c.07.08.22.08.29.16.07.08.04.24.12.32.07.08.21.09.29.16.07.07.12.18.19.25l.22.22c.07.07.21.08.28.15.08.07.11.2.19.26.08.07.2.09.28.16.08.07.1.2.17.27.07.07.2.11.27.18.07.07.15.14.23.2.08.07.12.18.2.25.08.07.22.07.3.14.08.06.07.24.16.3.09.06.22.04.32.1.09.06.18.12.27.17.09.05.14.17.23.23s.21.07.29.13c.08.07.2.09.29.14.1.06.18.1.27.16.09.05.17.14.26.2.09.06.16.14.25.19.09.05.17.13.27.18s.23.01.32.06c.09.05.19.09.29.13.1.04.16.17.26.21l.3.12c.07.04.32.07.47.11.16.05.34.11.5.16.17.06.31.08.46.12.08.02.13.02.17.02-.05-.09-.12-.19-.15-.26-.06-.13.1-.14.02-.33-.08-.18-.24-.37-.29-.52-.06-.16-.18-.34-.2-.41-.03-.1-.08-.19-.12-.28-.04-.1-.05-.2-.1-.3-.04-.09-.15-.15-.2-.25-.04-.09,0-.23-.05-.32-.04-.1-.07-.2-.12-.29-.05-.09-.05-.21-.1-.31-.05-.09-.16-.14-.21-.24l-.12-.29c-.04-.09-.08-.2-.11-.29-.04-.1-.08-.2-.12-.29-.04-.1-.1-.18-.14-.28-.04-.09-.02-.23-.06-.32s-.1-.18-.14-.27c-.04-.1-.17-.16-.2-.26-.03-.1.05-.22.02-.32-.03-.1-.1-.2-.14-.3-.04-.1-.06-.2-.1-.29l-.13-.28c-.04-.1-.2-.14-.24-.24-.04-.1.02-.25-.02-.34-.05-.09-.18-.13-.23-.22-.05-.09-.07-.2-.11-.3-.04-.1,0-.23-.05-.33-.05-.09-.23-.11-.28-.2-.05-.09.05-.26,0-.35-.04-.1-.22-.13-.26-.23-.04-.1.01-.23-.03-.33-.04-.1-.12-.17-.16-.27-.04-.1-.03-.21-.07-.31-.03-.1-.14-.18-.17-.28-.03-.1,0-.21-.05-.31s-.18-.15-.22-.24c-.04-.09,0-.24-.04-.33-.04-.09-.06-.2-.1-.29-.04-.1-.2-.14-.24-.24-.04-.09-.08-.2-.11-.29-.04-.1.05-.24,0-.34-.04-.1-.19-.14-.23-.23-.05-.09-.05-.21-.09-.3-.05-.09-.09-.19-.13-.28-.04-.1-.11-.19-.14-.28-.03-.1,0-.21-.04-.31-.04-.1-.12-.18-.17-.27-.04-.1-.07-.19-.12-.29-.05-.09-.14-.16-.19-.25-.05-.09-.09-.2-.13-.29-.04-.1-.05-.21-.09-.3-.04-.09-.14-.16-.19-.25-.04-.09-.07-.2-.11-.3-.04-.1.04-.23,0-.33-.03-.1-.19-.16-.22-.26-.03-.1-.05-.2-.09-.29-.04-.1-.06-.2-.11-.29-.05-.08-.11-.19-.16-.27-.05-.09-.06-.2-.1-.3-.04-.1-.11-.18-.15-.27-.04-.1-.12-.18-.16-.27-.05-.11,0-.11-.02-.15-.02-.04.07-.03.06-.04,0-.01-.09-.08-.1-.12-.01-.02-.11-.14-.13-.18-.01-.03-.09-.14-.08-.15,0,0,.09.08.15.15.03.04.05.07.07.08.04.05-.07-.12-.04-.1s.15.21.16.21c0,0-.02-.07,0-.05l.07.07s.05-.01.08,0c.01,0,.14.12.21.17.09.06.2.09.28.15.08.06.09.22.18.28.08.06.2.09.28.15.08.06.18.12.26.18.08.06.12.19.2.26.08.06.19.08.28.15s.14.15.22.22c.08.06.21.07.29.13.08.06.14.16.22.22.08.06.21.07.29.14s.09.21.17.28c.09.07.16.12.25.19.08.07.16.14.25.2.08.06.16.14.25.2.09.06.21.06.29.11.09.06.13.18.21.24.07.06.16.15.23.21.08.06.17.12.25.18.08.06.22.06.3.12.08.06.13.17.21.24.08.07.14.15.22.22.08.07.14.16.23.22l.24.19c.08.07.26.02.34.08.08.07.16.14.24.2.08.06.11.2.2.26.09.06.16.14.24.2.09.06.19.08.27.14s.21.08.29.15c.08.07.05.23.12.3.08.07.18.13.26.2.08.06.23.04.31.09.08.05.19.12.26.16.09.06.16.14.24.21.08.06.14.17.22.23.08.06.14.17.22.23.08.06.21.06.29.13.08.06.19.09.27.15.08.06.2.08.28.15.08.06.07.25.16.31.08.06.23.06.3.14.07.07.06.22.13.29.08.07.25.05.33.11.08.06.15.13.24.19.09.06.15.17.24.22.09.06.15.14.23.21.08.06.19.09.27.16.08.07.21.1.29.17.08.07.15.13.24.19.09.06.12.23.22.28.08.03.21.09.29.12.1.05.16.11.25.17.09.06.25.01.34.08.08.06.14.16.23.22.09.06.18.1.27.16.08.05.18.12.27.18.09.06.21.07.3.13.05.03.07.08.1.14.05.07.14.15.23.19.19.09.35.04.5.11.16.07.28.07.41.13.13.05.39.25.57.32.17.07.21.02.35.08.06.04.03,0,.02-.04-.01-.03-.02-.06-.04-.09-.02-.06-.05-.12-.09-.2-.09-.15-.1-.25-.19-.41-.09-.17-.34-.39-.41-.51l-.24-.41c-.04-.07-.06-.13-.09-.21-.02-.06-.03-.1-.06-.15-.05-.09-.1-.18-.15-.27-.05-.08-.11-.18-.17-.26-.05-.09-.13-.17-.18-.26-.05-.09-.05-.21-.09-.31-.04-.09-.14-.17-.19-.26-.04-.09-.09-.18-.14-.27-.05-.08-.11-.18-.16-.27l-.15-.27c-.05-.09-.05-.21-.1-.3-.05-.09-.13-.16-.19-.25-.06-.09-.14-.16-.19-.24-.06-.09-.09-.2-.14-.29-.05-.09-.13-.17-.17-.27-.04-.09-.09-.2-.12-.29-.05-.09.04-.25-.01-.34l-.15-.27c-.05-.09-.21-.13-.25-.22-.05-.09-.12-.17-.17-.26s0-.24-.04-.33c-.05-.09-.13-.16-.18-.25-.05-.09-.1-.19-.15-.27-.05-.09-.04-.21-.09-.3s-.18-.15-.22-.24c-.04-.09-.04-.21-.09-.3-.05-.09-.04-.2-.08-.3-.04-.1-.17-.16-.2-.26s.03-.24-.02-.33c-.04-.09-.2-.14-.25-.23-.04-.09-.04-.21-.09-.3-.04-.09,0-.23-.04-.32s-.14-.17-.19-.26c-.05-.09-.1-.19-.15-.27-.05-.09-.05-.21-.09-.3s-.22-.14-.25-.24l-.11-.29c-.04-.1-.05-.2-.09-.29-.04-.09-.03-.22-.07-.31-.05-.09-.16-.15-.21-.24-.04-.09,0-.23-.03-.33-.04-.1-.11-.18-.15-.28-.05-.09-.15-.15-.19-.25-.05-.09-.05-.21-.09-.3-.04-.1-.13-.18-.17-.27s-.1-.19-.14-.28c-.03-.1.07-.24.03-.34-.03-.09-.07-.19-.11-.29-.04-.1-.12-.18-.16-.27-.04-.1-.11-.18-.15-.28-.04-.1,0-.22-.04-.32s-.16-.16-.2-.26c-.03-.09-.06-.21-.09-.3-.04-.1-.04-.21-.09-.31-.05-.09-.15-.15-.2-.24-.05-.09-.02-.23-.06-.32-.04-.1-.17-.16-.2-.26-.03-.1-.01-.21-.04-.31-.03-.1-.13-.17-.17-.27-.03-.08-.02-.26-.03-.28-.02-.04.04-.05.03-.07,0,0-.22-.16-.24-.22-.02-.06.09.01.08-.01-.01-.04.05.01.04,0-.02-.04-.05-.1-.07-.14,0-.02,0-.01.04.03.02.03.04.06.06.08.05.06.15.23.18.27.02.04-.04-.07-.02-.06,0,0-.05-.15-.02-.14.02,0,.05.08.07.08.03,0,.03.09.04.1-.02-.02.14.09.2.15.07.07.21.09.28.16.07.07.07.23.15.3.08.07.2.1.28.16.07.05.19.12.26.17.08.06.16.13.24.2.08.07.1.18.18.25.07.08.26.06.33.13.07.08.07.22.15.29.08.07.21.06.3.13s.12.19.21.25c.08.07.17.13.25.19.08.07.18.11.26.18.08.06.17.13.25.19.07.07.16.14.23.21.08.07.2.1.28.17.06.06.16.17.21.23.08.07.11.18.2.25.08.06.18.11.26.17.09.06.2.07.29.13.09.06.1.22.18.29.08.06.17.12.26.19.09.06.22.04.31.1.09.06.11.2.2.26.08.06.13.15.21.22.08.07.21.09.29.16.08.07.12.19.2.25.08.06.23.04.31.1.09.06.15.16.23.22.09.06.2.09.28.15.08.06.18.12.26.17.09.06.13.19.21.25.09.06.2.08.28.14.09.06.16.14.24.2.08.06.12.18.21.24.08.06.19.1.28.16.09.05.18.11.26.17.04.03.08.06.12.09l.06.05.03.02h.02s0,.02,0,.02h0s0,0,0,0h0s0,0,0,0l.54-.56h0s-.18-.25-.18-.25c-.06-.08-.17-.13-.24-.21-.06-.08-.17-.13-.23-.21-.07-.08-.11-.18-.17-.27-.06-.09-.08-.19-.14-.28-.05-.06-.15-.17-.2-.23-.06-.08-.04-.22-.09-.31-.05-.09-.14-.16-.2-.25-.06-.08-.12-.17-.18-.25-.06-.08-.08-.19-.14-.27-.05-.09-.24-.1-.29-.2-.05-.09-.02-.22-.06-.31-.05-.09-.16-.14-.22-.23-.05-.09-.07-.2-.12-.29-.05-.09-.01-.23-.06-.32-.05-.09-.21-.12-.26-.22-.05-.09,0-.24-.04-.33-.05-.08-.11-.19-.16-.27-.05-.09-.18-.14-.23-.23-.05-.09-.06-.2-.1-.3-.04-.09-.14-.16-.18-.26-.04-.09-.06-.2-.11-.29-.04-.09.03-.24-.01-.33-.04-.09-.21-.14-.25-.23-.04-.1,0-.23-.03-.32-.04-.09-.05-.2-.09-.3-.04-.09-.21-.14-.25-.24-.04-.1-.02-.21-.06-.31-.04-.1-.05-.2-.09-.3-.04-.1-.11-.18-.14-.28-.04-.1-.12-.17-.16-.27s-.03-.21-.06-.31c-.03-.1-.09-.19-.12-.29-.03-.1-.06-.2-.08-.29-.03-.1-.02-.21-.05-.31-.04-.1-.07-.19-.11-.29-.04-.1-.12-.18-.15-.28-.03-.1-.11-.19-.13-.29s.08-.23.06-.33c-.03-.1-.12-.18-.15-.28-.03-.1-.07-.19-.11-.29-.04-.11-.06-.18-.09-.3-.04-.1-.02-.21-.05-.31-.02-.1-.08-.19-.11-.29-.02-.1-.04-.2-.06-.3-.02-.1.03-.22,0-.32-.02-.1-.14-.18-.17-.28-.02-.1-.1-.19-.12-.29-.03-.1.06-.23.04-.33-.02-.1-.14-.19-.15-.29-.01-.11-.03-.2-.04-.31-.01-.1.04-.21.02-.31-.01-.08-.07-.18-.1-.18-.08.01-.15-.05-.2-.03-.06.03-.11.03-.17.06-.04.02-.05.21-.13.22-.02,0-.12-.04-.11.05.02.1.11.19.13.29.02.1,0,.22.03.32.03.1.05.21.08.3.02.1,0,.22.02.32.02.1.14.18.17.28.02.1.09.19.12.3.02.1.05.21.08.31.02.1.01.21.03.31.02.1-.05.22-.02.33.03.1.12.19.15.29.03.1,0,.22.03.32.03.1,0,.22.03.32.03.1.11.19.15.29.03.1.01.22.04.32.03.1.19.16.22.26l.09.3c.03.1-.06.23-.02.33.02.09.06.21.08.31.03.1.14.18.17.27.04.1.05.2.09.3.04.1.04.21.08.3.04.1.1.18.14.28.03.1.17.16.21.26.04.1.04.21.08.3.04.1-.02.23.02.33l.12.29c.04.1.13.17.17.27s.04.2.07.3c.03.1.14.19.17.28.04.1,0,.23.05.33s.11.19.16.29c.05.09.14.15.2.25.05.09.19.14.24.23.05.09.05.21.1.3.05.09.06.21.12.3.05.09.07.2.13.29.05.09.14.16.19.25.05.09.16.15.21.24l.15.27c.05.09.04.22.09.31.03.08.09.21.12.29.05.1.12.17.18.26.05.09.03.24.09.33.06.09.16.14.22.22.06.09.17.14.23.22.05.09.03.22.09.31.05.09.16.15.21.25.05.09.06.21.12.3.06.09.1.19.16.27.06.09.17.14.23.23.06.08.12.18.17.26.06.08.14.17.2.24l.02.02.5-.52-.23-.16c-.08-.06-.13-.17-.22-.23-.09-.06-.2-.11-.29-.16-.09-.05-.23.03-.32-.02-.09-.05-.12-.23-.2-.29-.08-.06-.16-.11-.24-.18-.1-.08-.14-.12-.24-.2-.08-.07-.17-.13-.26-.19s-.18-.1-.28-.15c-.08-.04-.19-.1-.28-.14-.09-.05-.2-.08-.28-.14-.08-.06-.09-.21-.17-.28-.07-.06-.16-.15-.23-.21-.08-.07-.21-.09-.29-.15-.08-.06-.14-.15-.22-.21-.08-.07-.24-.05-.32-.11-.08-.07-.09-.2-.18-.27-.08-.06-.16-.14-.25-.2-.07-.04-.19-.11-.27-.16-.09-.06-.17-.12-.25-.18-.08-.06-.14-.15-.21-.22-.08-.07-.24-.06-.32-.13-.08-.07-.1-.18-.18-.25-.08-.07-.19-.09-.27-.15l-.24-.2c-.08-.06-.12-.19-.2-.25-.08-.07-.16-.14-.25-.2-.09-.06-.15-.16-.24-.21-.09-.06-.16-.1-.24-.17-.08-.07-.21-.08-.28-.16-.06-.08-.14-.16-.2-.24-.07-.08-.1-.19-.18-.26-.08-.07-.17-.13-.26-.19l-.26-.17c-.09-.06-.19-.08-.27-.15-.08-.07-.16-.14-.23-.22-.07-.08-.16-.14-.23-.22-.07-.08-.11-.15-.21-.24-.14-.12-.27-.21-.4-.32-.13-.1-.27-.27-.4-.37-.12-.09-.26-.24-.39-.36-.13-.12-.25-.23-.38-.35-.12-.12-.34-.35-.46-.48-.09-.08-.07,0-.06.06.06.11.13.25.14.29.05.14-.06.06-.01.22.05.15.23.46.27.59.04.14.03.22.09.38.06.16.05.28.11.45.06.16.06.33.13.52.03.08.06.16.09.25.02.05.03.1.05.15.04.1.11.19.15.28.04.1.12.17.17.27.04.1.1.18.14.28.04.1-.02.22,0,.32.03.1.15.18.18.28.03.1.02.22.05.31.03.1.07.19.1.29.04.1.13.18.17.27.04.1.11.18.15.27s.04.21.08.3c.05.09.01.23.06.33.05.09.07.19.11.28.04.1.13.17.17.27.04.1.15.16.19.26.04.08.1.2.14.28.04.1-.03.23,0,.33.03.1.12.19.15.29.03.1,0,.22.04.32.04.1.09.2.14.29.05.09.23.1.27.19.05.09,0,.24.04.34.04.1.11.18.15.27.04.1.12.18.16.28.04.1.09.18.13.28.04.09-.03.25.02.34.05.09.16.15.21.24.05.09.06.2.11.3.04.09.11.18.15.27.05.09.16.14.21.23s.11.19.15.28c.04.09.06.21.1.3.04.1-.01.23.03.32.04.1.17.15.22.25.05.09.03.21.07.31.03.08.07.21.1.3.04.1.04.22.09.31.05.09.18.14.24.23.06.09.06.22.12.31.06.09.22.1.27.19.05.09.02.22.06.32.05.09.06.2.11.29.05.09.11.19.16.27.05.09.13.17.17.26.03.08.08.21.11.29.04.1.06.21.11.3.04.09.09.19.13.28l.14.28c.05.09.21.12.26.21.05.09.05.21.1.3.05.09.1.19.14.28.05.09.17.14.22.23s0,.24.05.33c.05.09.17.14.22.24.05.09.08.19.14.28.05.09.15.17.19.26.04.09.02.22.06.31.04.09.07.2.12.29.03.05.07.08.1.12.04.04.08.08.08.08.02.03-.07.05-.07.05,0,0,.19.08.21.12.02.03.01.05.02.07.01.03-.05,0-.04,0,.03.03.06.08.04.08-.04-.02-.24-.24-.24-.24,0,0,.12.2.07.18-.04-.02-.11-.19-.1-.19-.03-.01.04.01-.07-.04-.09-.04-.24.05-.33,0-.09-.05-.13-.19-.22-.24-.09-.05-.24-.02-.32-.08-.07-.06-.17-.13-.25-.18-.08-.06-.09-.23-.17-.28-.09-.06-.2-.07-.29-.12-.09-.05-.19-.08-.28-.13s-.16-.14-.24-.2c-.08-.06-.14-.16-.22-.22-.08-.06-.26,0-.34-.06s-.14-.16-.22-.22c-.08-.06-.11-.2-.19-.26-.07-.06-.16-.14-.23-.2l-.25-.19c-.08-.06-.23-.04-.31-.1-.09-.06-.17-.12-.26-.18-.09-.06-.21-.07-.29-.14s-.11-.19-.19-.26c-.08-.07-.16-.13-.24-.2-.08-.07-.2-.08-.28-.15-.08-.06-.14-.15-.23-.22-.08-.06-.14-.17-.22-.23-.08-.06-.18-.1-.27-.16-.08-.06-.14-.18-.22-.23-.09-.06-.21-.05-.29-.11-.09-.06-.16-.14-.24-.2-.08-.06-.17-.13-.24-.2-.08-.07-.11-.18-.19-.25-.08-.07-.21-.08-.29-.15-.07-.06-.16-.15-.23-.21-.08-.05-.18-.12-.26-.17-.08-.06-.18-.12-.26-.18-.08-.06-.15-.15-.23-.21-.08-.06-.18-.1-.26-.17-.08-.07-.13-.17-.21-.24-.08-.06-.22-.05-.3-.11-.08-.06-.14-.16-.23-.22s-.14-.16-.22-.22c-.08-.06-.18-.11-.26-.17l-.25-.19c-.08-.06-.2-.08-.28-.15-.08-.06-.11-.2-.19-.27-.08-.06-.2-.08-.28-.14-.08-.06-.18-.12-.26-.18-.08-.06-.12-.18-.2-.25-.08-.07-.23-.05-.32-.11-.08-.06-.16-.12-.24-.19-.08-.06-.08-.24-.16-.31-.08-.06-.17-.12-.25-.18-.08-.06-.15-.15-.23-.21-.08-.06-.25,0-.33-.07-.07-.04-.19-.12-.27-.16-.08-.06-.16-.14-.25-.2-.08-.06-.15-.15-.23-.21s-.11-.19-.19-.25c-.08-.07-.15-.15-.23-.21-.08-.06-.19-.1-.26-.17s-.18-.11-.26-.18c-.07-.06-.22-.27-.36-.39-.15-.12-.3-.19-.44-.28-.14-.1-.22-.08-.34-.16-.12-.09-.2-.1-.31-.19-.12-.1-.25-.2-.37-.3-.08-.07-.21-.19-.32-.29,0,.03.01.06.03.11.06.14.03.18.1.34.07.15-.02.14.03.3.1.23.13.31.23.54.06.16.13.36.21.54.08.19.2.37.28.54.08.17.06.24.11.35.05.09.1.17.14.27.04.09.07.18.11.28.04.1.2.16.24.25.04.1-.02.23.02.32.04.09.08.2.11.29.04.1.17.15.21.25.04.09-.02.23.02.33.04.1.11.19.16.28.05.09.17.13.22.22.05.09.11.19.15.29.04.1,0,.23.04.33.04.08.1.19.15.27.05.09.13.17.17.26.04.1.03.21.06.31.03.09.06.21.09.3.03.1.1.19.14.29.04.1.08.19.12.29.04.1.08.19.12.29.04.1.09.19.13.28.04.1.12.17.17.27.04.08.1.19.14.28.04.09.11.18.15.27.04.1.02.22.06.32.05.09.03.23.07.32s.18.14.23.23c.04.1.04.21.08.31.04.1.16.16.2.25.04.1,0,.23.05.32.04.1.04.21.07.3.04.1.08.19.12.29.04.1.16.16.21.26.04.1.06.2.11.3.05.11.08.18.13.29.05.09.16.16.2.25.04.1.07.21.1.31.03.1-.04.22,0,.32.03.1.19.16.23.26l.12.29c.04.1.02.22.06.32s.14.17.18.27c.04.1-.03.26.02.35.05.08.11.19.16.27.05.09.11.17.16.26.04.1.15.17.19.26s.11.18.15.28c.04.1.01.22.05.32s.07.21.12.3c.05.09.18.13.23.22.05.09.08.2.12.3.04.1,0,.23.04.32.04.1.19.15.23.24s.04.21.08.31.12.18.16.28c.04.1-.02.22.02.32.04.1.14.17.18.27.04.1.08.19.13.28.02.05.04.1.05.16,0,.02-.01.04,0,.05.02.03.05.06.07.09,0,.02.19.17.21.23.01.05-.25-.16-.29-.2-.02-.02.06.1.02.08-.03-.01-.07-.03-.1-.03-.05,0-.03-.04-.13-.07-.1-.03-.22.02-.31-.02-.1-.04-.14-.18-.23-.23-.09-.05-.2-.06-.29-.12-.09-.05-.21-.04-.3-.09-.09-.05-.14-.19-.24-.23-.09-.04-.25.06-.34,0-.09-.05-.18-.11-.27-.17-.09-.05-.15-.15-.24-.2-.09-.05-.15-.15-.23-.21-.08-.05-.18-.11-.26-.16-.08-.05-.18-.11-.27-.16-.09-.06-.18-.11-.26-.17-.08-.06-.2-.08-.28-.14-.08-.06-.11-.2-.2-.27-.08-.06-.23-.04-.31-.11-.08-.07-.21-.08-.29-.15-.08-.07-.11-.2-.2-.27-.08-.06-.21-.06-.3-.13-.08-.07-.14-.17-.22-.24-.08-.07-.13-.18-.21-.25-.08-.07-.23-.05-.31-.13-.08-.07-.1-.21-.18-.28s-.18-.13-.25-.21c-.07-.08-.17-.14-.24-.22-.07-.08-.13-.16-.21-.23-.08-.08-.09-.23-.17-.3-.08-.07-.19-.1-.27-.18-.08-.07-.16-.14-.24-.22-.07-.08-.18-.12-.25-.2-.08-.08-.13-.17-.21-.25-.07-.07-.16-.16-.23-.23-.07-.08-.05-.24-.11-.32-.06-.09-.17-.15-.23-.23-.06-.09-.16-.15-.23-.23-.06-.07-.1-.17-.17-.24-.08-.08-.12-.13-.19-.21-.07-.07-.18-.08-.24-.15-.06-.07-.14-.12-.21-.2-.06-.07-.02-.24-.08-.31-.06-.07-.22-.06-.28-.13-.06-.07-.07-.19-.13-.26-.06-.06-.14-.15-.19-.21-.06-.07-.14-.13-.2-.2-.06-.07-.06-.21-.12-.28-.06-.07-.2-.06-.26-.13s-.08-.19-.14-.26c-.03-.04-.05-.07-.07-.07-.02,0-.04.07,0,.12Z"/>
  <circle class="cls-2" cx="120.56" cy="113.89" r="3.58"/>
  <circle class="cls-2" cx="68.45" cy="113.89" r="3.58"/>
</svg>