<?xml version="1.0" encoding="UTF-8"?>
<svg id="Layer_1" data-name="Layer 1" xmlns="http://www.w3.org/2000/svg" viewBox="0 0 600 600">
  <defs>
    <style>
      .cls-1 {
        fill: #f7f;
      }

      .cls-2 {
        fill: #fdffa2;
        stroke: #e35af5;
        stroke-width: 3.91px;
      }

      .cls-2, .cls-3 {
        stroke-miterlimit: 10;
      }

      .cls-3 {
        fill: #abe941;
        stroke: #5e0015;
        stroke-width: 2.93px;
      }
    </style>
  </defs>
  <path class="cls-3" d="M193.4,320.16c-1.43-.1-24.64-10.59-26.41-11.5-1.77-.9-7.59-4.92-11.35-7.37.88-4.23,15.82-17.91,22.43-20.42,0,0,65.22-15.88,79.73-21.33,15.66-5.88,121.69-56.14,183.7-89.14,27.16-14.46,44.39-29.49,44.39-29.49.08-.08,8.22-4.61,15.22-10.14,12.14-9.57,9.98-65.84-1.07-78.3-5.69-6.42-13.63-14.2-23.68-14.76-13.46-.74-23.99,8.63-32.62,18.21-6.7,7.44-13.19,16.07-21.3,21.53-8.36,5.63-14.68,5.49-24.58,7.01-12.44,1.91-24.56,7.73-34.66,15.77-4,3.18-8.13,6.68-12.75,8.69-4.99,2.16-11.23,2.15-15.98,3.97-4.75,1.83-10.18,6.86-14.6,6.64-15.9-.78-26.41,3.71-41.89,7.04-10.49,2.26-23.13.88-35.11,4.26-4.38,1.23-14.58,6.27-19.59,8.01-12.49,4.33-52.87-21.21-108.79-8.85-37.65,8.32-51.13,44.9-66.42,51.18-22.66,9.31-33.98,53.13-33.98,148.17s59.48,198.61,151.3,197.23c58.06-.87,104.47-39.22,161.08-46.12,22.33-2.72,43.55,12.51,65.13,15.8,7,1.07,12.49-.74,19.29-1.16,7.62-.47,15.23,2.04,22.4,4.05,37.23,10.47,58.49,9.65,94.55-5.17,2.55-1.05,4.96-2.27,6.93-4.2,4.3-4.2,6.06-10.4,10.54-14.41,5.93-5.33,15.16-4.88,19.95-11.76,4.5-6.46,1.86-14.4-4.19-19.07-6.02-4.64-64.98-28.34-67.67-29.22l-300-95.16Z"/>
  <g>
    <path class="cls-1" d="M468.06,155.68s-.08.07-.13.1c5.97,2.59,11.95,5.18,17.92,7.78.01-7.55.02-15.1.03-22.65"/>
    <path class="cls-1" d="M430.09,176.21c.64-.3,1.27-.61,1.9-.93-.61.35-1.23.69-1.84,1.04,7.11,4.69,14.21,9.38,21.32,14.06.48-8.94.96-17.88,1.44-26.82,0,0,0,0,.01,0"/>
    <path class="cls-1" d="M393.36,193.07c4.54,7.6,9.09,15.19,13.63,22.79.62-8.89,1.24-17.78,1.86-26.67"/>
    <path class="cls-1" d="M344.18,218.85c7.78,9.2,15.55,18.4,23.32,27.61-1.72-13.17-3.44-26.35-5.16-39.52"/>
    <path class="cls-1" d="M309.14,237.01c4.18,4.64,8.37,9.27,12.57,13.9,1.06-8.07,2.13-16.14,3.19-24.2"/>
    <path class="cls-1" d="M263.88,257.68c6.06,4.4,12.11,8.81,18.16,13.21-.44-6.98-.84-13.96-1.35-20.94"/>
    <path class="cls-1" d="M179.23,282.19c4.97,3.84,9.9,7.72,14.85,11.58-.76-5.45-1.55-10.9-2.26-16.36"/>
    <path class="cls-1" d="M216.74,329.75c.5-1.58,1.48-25.16,1.99-26.74-2.24.88-23.12,16.21-25.33,17.15"/>
    <path class="cls-1" d="M275.52,348.28c2.25-5.65,2.59-31.4,4.8-37.06-5.54,4.33-23.79,23.48-29.37,27.76"/>
    <path class="cls-1" d="M339.29,375.85c-.48-2.51,5.79-26.87,5.32-29.39-1.37,1.91-27.17,19.54-28.54,21.44"/>
    <path class="cls-1" d="M427.35,399.33c-1.38-5.35-4.37-17.71-5.75-23.07-1.68,4.52-11.07,14.08-12.75,18.59"/>
    <path class="cls-1" d="M493.4,415.32c-.03-4.22-3.43-19.09-3.46-23.31-3.17,3.27-13.2,15.04-16.38,18.31"/>
  </g>
  <path class="cls-2" d="M81.62,194.29c0,25.16,35.54,37.33,61.95,37.34,26.41.01,58.89-43.55,53.29-55.67-2.95-6.38-33.8-22.17-63.25-18.54-26.48,3.27-52,24.96-52,36.87Z"/>
  <path class="cls-1" d="M129.96,196.99c3.32,10.25,8.66,17.45,13.66,26.51-.85-11.45-.91-22.98-3.2-34.18-1.93-9.42-6.46-17.32-11.04-25.55-1.12,10.78-2.75,22.97.57,33.22Z"/>
</svg>