<?xml version="1.0" encoding="UTF-8"?>
<svg id="Layer_1" data-name="Layer 1" xmlns="http://www.w3.org/2000/svg" viewBox="0 0 93.77 196.49">
  <defs>
    <style>
      .cls-1 {
        fill: #ffc0c4;
      }

      .cls-2 {
        fill: #ffd2d4;
      }

      .cls-3 {
        fill: #550017;
      }

      .cls-4 {
        fill: #ffc1c5;
      }
    </style>
  </defs>
  <g>
    <path class="cls-2" d="M91.19,128.22c0-6.88-1.38-39.95-4.16-49.96-.38-2.22-3.19-7.86-7.32-9.47-4.13-1.61-9.72.15-9.72.15-3.56-4.25-10.65-6.7-15.47-5.53-2.89.71-6.23,4.59-7.21,4.62-2.59.09-3.86-5.52-6.4-6.52-3.87-1.53-8.8-.15-15.38,4.95,0,0-1.17-4.76-1.26-5.86l.65,9.8c-.18-1.59-.39-2.94-.44-5.24-.06-2.95-.6-8.86-.87-11.93-.34-3.74-.67-7.49-1.01-11.23l-1.32-14.72C21.12,8.6,20.47-.11,9.52.75-4.3,1.82,2.44,63.08,2.44,69.95c0,6.88,1.38,39.95,4.16,49.96.38,2.22,3.19,7.86,7.32,9.47,4.13,1.61,9.72-.15,9.72-.15,3.56,4.25,10.64,6.7,15.47,5.52,2.89-.71,6.23-4.59,7.21-4.62,2.59-.09,3.86,5.52,6.4,6.52,3.87,1.53,8.8.15,15.38-4.95,0,0,1-1,1.05,1.3.06,2.95.6,8.86.87,11.93.34,3.74.67,7.49,1.01,11.23.44,4.91.88,7,1.32,11.91.17,18.68-3.02,28.44,11.82,27.63,13.85-.76,7.03-60.61,7.02-67.49Z"/>
    <path class="cls-3" d="M92.77,134.48c.08,1.17,0,2.07.04,2.8.05.99.21,1.8.25,2.79.03.73-.04,1.48.03,2.65.07,1.16-.1,1.94-.07,2.62.03.97.3,1.79.33,2.76.02.69-.12,1.45-.07,2.61.07,1.14.12,1.96.16,2.63.04.97.16,1.64.19,2.61,0,.67.02,1.5.04,2.65.02,1.15.11,2.01.11,2.68,0,.97-.34,1.56-.35,2.53,0,.67.06,1.54.04,2.69-.01,1.16.04,1.96,0,2.64-.05.97-.09,1.68-.14,2.65-.05.67.02,1.48-.05,2.63-.09,1.15-.14,1.91-.2,2.59-.07.97-.37,1.74-.46,2.71-.07.67-.17,1.44-.34,2.58-.18,1.15-.23,1.96-.37,2.63-.22.95-.43,1.59-.71,2.53-.19.66-.36,1.5-.77,2.6-.41,1.12-.86,1.89-1.18,2.52-.47.87-.55,1.43-1.26,2.23-.52.57-1.64,1.07-2.91,1.36-.32.09-.62.1-.9.16-.25.03-.49.05-.71.07-.44.06-.83.09-1.18.07-.49-.02-.88-.08-1.26-.17-.4-.08-.79-.16-1.25-.25-.69-.11-1.63-.35-2.75-.79-1.11-.45-1.9-.94-2.43-1.44-.73-.72-1.31-1.15-1.8-2.1-.33-.66-.52-1.56-.77-2.72-.25-1.17-.38-2-.45-2.69-.07-.99.17-1.66.15-2.64-.01-.68-.02-1.52-.01-2.67,0-1.15.02-2.08.02-2.76,0-.97-.12-1.59-.12-2.56,0-.67-.06-1.43-.04-2.58.02-1.15-.06-1.99-.05-2.66.02-.48.03-.88.05-1.29.01-.38.05-.87.03-1.23-.05-.67.1-1.49-.02-2.62-.13-1.14-.32-1.9-.39-2.57-.11-.96-.31-1.67-.41-2.63-.07-.67-.05-1.48-.16-2.63-.11-1.15-.42-1.82-.5-2.49-.11-.96-.04-1.78-.16-2.74-.08-.67-.28-1.45-.39-2.59-.1-1.15-.03-1.97-.09-2.65-.09-.96-.03-1.65-.12-2.62-.05-.67-.12-1.47-.21-2.61-.1-1.15-.35-1.94-.39-2.62-.06-.97-.21-1.7-.26-2.67-.03-.68.2-1.44.15-2.6-.03-.67-.04-.86-.1-1.08-.06-.2-.13-.4-.32-.41-.2.03-.32.25-.43.36l-.1.14-.05.06-.14.13c-.18.18-.39.34-.63.51-.56.4-1.31.79-2.31,1.4-1.01.61-1.78.73-2.4,1.01-.89.41-1.55.63-2.49.92-.65.19-1.47.84-2.71.97-1.22.12-2.06,0-2.78-.11-.51-.1-.95-.2-1.38-.35-.39-.11-.95-.38-1.37-.73-.63-.51-.99-1.39-1.62-2.36-.63-.98-1.22-1.56-1.59-2.07-.53-.71-.79-1.35-1.51-1.62-.11-.04-.24-.01-.32,0-.21.06-.69.67-1.35,1.2-.88.72-1.78,1.02-2.33,1.43-.79.59-1.22,1.12-2.14,1.6-.33.16-.69.35-1.16.5-.46.13-.96.28-1.57.33-1.22.14-2.07.09-2.78.04-1.01-.12-1.7-.29-2.68-.54-.68-.17-1.53-.27-2.64-.72-1.11-.45-1.79-.81-2.42-1.14-.88-.51-1.46-1.1-2.25-1.73-.28-.21-.57-.46-.89-.78-.16-.16-.34-.31-.51-.51-.08-.09-.17-.19-.27-.3,0,0-.01-.02-.02-.01-.13.04-.25.07-.37.1-.24.06-.47.11-.68.16-.42.09-.78.15-1.12.19-.97.12-1.86.4-2.87.39-.71-.01-1.38-.33-2.56-.51-1.18-.2-2.05-.35-2.72-.66-.94-.44-1.57-1.06-2.33-1.71-.52-.47-1.15-.87-1.88-1.83-.73-.95-1.39-1.7-1.72-2.34-.45-.91-.27-1.47-.59-2.4-.11-.33-.29-.71-.44-1.2-.14-.41-.32-.94-.45-1.49-.29-1.12-.27-2-.42-2.66-.2-.96-.38-1.58-.55-2.54-.11-.67-.16-1.49-.3-2.63-.14-1.14-.22-1.94-.28-2.61-.09-.97-.39-1.66-.48-2.63-.06-.67-.12-1.46-.21-2.6-.11-1.15.12-1.93.08-2.6-.06-.97-.18-1.67-.25-2.63-.04-.67.02-1.52-.06-2.66-.08-1.15-.43-1.87-.5-2.55-.08-.96-.14-1.67-.22-2.62-.06-.67.07-1.53,0-2.69-.08-1.15-.13-1.96-.18-2.63-.05-.96-.22-1.64-.26-2.61-.03-.67.17-1.49.12-2.64-.05-1.16-.1-1.84-.1-2.52,0-.95.01-1.64.02-2.59,0-.68-.19-1.61-.21-2.77-.01-1.17.05-1.96,0-2.62-.05-.96-.18-1.62-.25-2.58-.05-.67-.04-1.5-.12-2.64-.06-1.14-.1-1.98-.14-2.65-.08-.97-.28-1.59-.35-2.56-.05-.67.17-1.52.11-2.67-.07-1.15-.25-1.98-.3-2.66-.07-.97-.2-1.61-.27-2.58-.05-.67-.15-1.48-.21-2.63-.05-1.15.02-1.95,0-2.63-.02-.97-.11-1.67-.12-2.64-.01-.67.06-1.48.03-2.63-.03-1.15-.23-1.93-.25-2.6-.02-.97.11-1.69.09-2.66,0-.67-.13-1.48-.12-2.63,0-1.15.16-1.96.18-2.63.02-.97.17-1.64.2-2.61.03-.67-.25-1.52-.19-2.67.06-1.15.34-1.94.4-2.62.08-.97,0-1.68.09-2.66.07-.68.16-1.48.3-2.63.14-1.15.17-1.93.27-2.6.14-.97.32-1.66.51-2.63.13-.67.5-1.46.81-2.58.32-1.13.57-1.88.84-2.53.4-.91.62-1.66,1.18-2.53.41-.59.93-1.26,1.9-2.07C7.46.59,8.41.11,9.2.03c.56-.07.94-.01,1.38-.02.42.02.84-.01,1.35.08.35.03.73.07,1.18.11.44.05.94.21,1.54.36.6.18,1.05.5,1.46.69.4.22.68.52.99.72.45.27.73.69,1.04,1.06.33.37.55.79.83,1.22.43.59.69,1.26,1.13,2.39.35,1.14.54,1.91.65,2.59.21.97.55,1.67.68,2.65.11.68.27,1.47.38,2.63.11,1.17-.26,1.9-.23,2.58.04.97.03,1.66.04,2.63.01.68.36,1.58.38,2.73.03,1.15-.28,1.94-.28,2.62.02.95.03,1.71.1,2.59.05.67.34,1.47.44,2.61.1,1.14.01,1.97.09,2.64.1.96.29,1.58.39,2.54.07.67-.12,1.55-.02,2.69.1,1.15.5,1.84.58,2.51.11.96.04,1.74.15,2.7.08.67.23,1.47.34,2.61.1,1.14.3,1.94.37,2.61.09.96.15,1.64.24,2.6.06.67.06,1.49.17,2.63.1,1.15.03,1.97.07,2.65.06.96.19,1.7.24,2.67.04.68.05,1.43.13,2.58.08,1.15-.12,2.06-.08,2.74.05.99.38,1.5.47,2.45.05.66.06,1.5.2,2.64.03.28.05.54.06.79l-1.42.13c.01-.76.11-1.35.07-1.86-.08-.96-.13-1.64-.21-2.61-.04-.67-.2-1.48-.27-2.63-.08-1.14-.36-1.98-.4-2.65v-.04s1.74-.14,1.74-.14c.09.79.01,1.52.2,2.43.07.33.16.69.27,1.11.07.27.15.57.24.92.03.13.07.23.1.31.07-.04.17-.16.23-.23.14-.16.21-.27.29-.33l.1-.07.15-.1.31-.18c.21-.11.41-.23.62-.33.43-.2.84-.4,1.26-.67.58-.37,1.08-1,2.14-1.54,1.07-.53,1.94-.88,2.62-1.09.98-.3,1.61-.1,2.6-.23.7-.09,1.65-.16,2.85,0,1.2.21,2.03.37,2.73.86.88.69,1.47,1.21,2.04,2.04.39.58.49,1.45,1.12,2.38.64.94,1.43,1.22,1.8,1.36.14.08.32.1.37.14.06.02.14.02.19,0,.08,0,.23-.09.34-.13.25-.13.51-.29.78-.5.52-.42,1.05-1.03,1.98-1.74.94-.72,1.77-1.13,2.39-1.46.89-.49,1.54-.85,2.55-1.02.71-.09,1.61-.15,2.82-.05,1.21.1,1.91.44,2.59.6.96.26,1.72.4,2.64.78.64.25,1.51.47,2.56,1.04,1.04.6,1.68,1.18,2.24,1.61.4.3.73.62,1.03.96.15.17.32.32.46.51l.18.21.14.15s.06.06.09.07c.09-.04.17-.1.24-.15.05-.03.05-.05.12-.09.08-.04.17-.08.26-.12.36-.16.78-.32,1.3-.41,1.18-.2,2.04-.13,2.74-.17,1.01-.03,1.74-.08,2.77.05.71.1,1.56.31,2.72.8,1.16.53,1.76,1.24,2.29,1.69.77.67,1.27,1.17,1.9,1.96.44.54,1.04,1.14,1.64,2.18.59,1.04.91,1.83,1.17,2.49.18.48.32.9.42,1.36.09.4.19.8.3,1.26.18.66.3,1.48.49,2.62.22,1.15.19,1.84.27,2.52.1.95.29,1.72.36,2.68.05.68.07,1.54.2,2.69.12,1.14.29,1.96.36,2.63.11.96.29,1.6.39,2.56.07.67.22,1.5.31,2.65.11,1.15.18,1.9.24,2.57.09.97-.06,1.75.02,2.72.06.67.35,1.44.42,2.59.08,1.15.14,2,.18,2.67.05.97-.11,1.63-.06,2.6.03.67,0,1.5.06,2.64.06,1.18.38,1.72.46,2.42.1.94-.01,2.01.09,2.94.07.7.02,1.46.07,2.65.03.87.4,1.93.38,2.65-.02.84-.22,1.48-.29,2.1-.08.73-.34.55-.45.97-.15.54-.23,1.16-.36,1.16-.13,0-.29.08-.44-.37-.12-.36-.13-1.29-.24-1.98-.09-.57-.09-1.13-.16-1.94-.06-.66-.34-1.17-.37-2.01-.03-.84-.14-1.62-.15-2.22-.01-.8.09-1.43.08-2.08,0-.65-.09-1.32-.11-2.12-.02-.6,0-1.22-.05-2.06-.06-1.15.15-1.9.13-2.57-.03-.96-.19-1.72-.22-2.68-.03-.67.07-1.48,0-2.62-.07-1.15-.4-1.83-.47-2.5-.1-.95-.05-1.74-.15-2.69-.08-.67-.09-1.49-.19-2.64-.09-1.14-.03-1.92-.08-2.59-.08-.96-.37-1.67-.47-2.63-.06-.67.01-1.48-.1-2.61-.12-1.14-.45-1.96-.51-2.63-.09-.96.14-1.55,0-2.5-.09-.66-.19-1.54-.41-2.65-.1-.56-.19-1.07-.28-1.53-.1-.45-.2-.84-.29-1.16-.13-.48-.28-.75-.47-1.14-.15-.28-.32-.56-.49-.97-.23-.57-.39-1.43-.93-2.39-.54-.96-.9-1.54-1.27-2.07-.53-.75-1.19-1.23-1.83-1.84-.45-.43-.94-.99-1.89-1.45-.97-.42-1.76-.43-2.38-.52-.89-.12-1.53-.25-2.46-.22-.65.03-1.42.17-2.51.35-.48.08-.91.15-1.29.22-.28.04-.98.21-1.41.34-.1-.1-.19-.2-.27-.29-.23-.24-.44-.46-.65-.67-.14-.14-.3-.25-.44-.38-.29-.25-.59-.48-.96-.74-.51-.39-1.23-.71-2.16-1.27-.96-.52-1.75-.86-2.34-1.1-.84-.36-1.32-.7-2.22-.95-.62-.17-1.41-.22-2.49-.32-1.08-.09-1.84-.12-2.47-.05-.44.05-.82.16-1.17.26-.33.11-.65.26-1.05.46-.55.27-1.16.73-2.04,1.4-.88.67-1.6,1.08-2.14,1.51-.29.23-.57.43-.86.61-.16.09-.3.18-.49.27-.22.12-.47.17-.72.2-.29-.04-.59-.03-.86-.17-.85-.32-1.46-1.1-2.13-2.06-.67-.98-1.28-1.48-1.66-2.02-.53-.76-.92-1.31-1.53-1.79-.11-.07-.22-.17-.34-.21-.11-.05-.24-.11-.45-.16-.38-.12-.81-.22-1.32-.3-1.01-.16-1.72-.1-2.33-.02-.87.1-1.63,0-2.52.28-.61.22-1.29.52-2.28,1.02-1,.49-1.61,1.05-2.17,1.39-.8.49-1.4.75-2.18,1.3-.09.06-.42.29-.64.47-.25.19-.51.39-.8.61-.29.22-.6.46-.93.71l-.13.1c-.05.06-.04-.07-.06-.1-.03-.1-.05-.21-.08-.31-.05-.22-.11-.44-.16-.67-.12-.46-.23-.9-.33-1.31-.05-.2-.1-.4-.15-.59-.03-.11-.07-.23-.1-.33-.12-.43-.23-.81-.3-1.14-.19-.97,0-1.56-.14-2.58,0-.05-.01-.09-.02-.14l1.11-.09c.06.65.31,1.47.39,2.55.08,1.14.22,1.97.26,2.64.06.97-.19,1.63-.13,2.6.03.54.22,1.17.34,2l-1.52.13c-.04-.19-.07-.4-.09-.62-.14-1.14.03-2.08-.04-2.76-.09-.96-.35-1.56-.4-2.5-.04-.66-.16-1.49-.23-2.63-.08-1.14.17-2.06.11-2.73-.09-.96-.28-1.58-.38-2.54-.07-.67-.36-1.42-.46-2.56-.1-1.14.14-1.9.09-2.58-.07-.96-.32-1.71-.39-2.68-.07-.67-.14-1.47-.26-2.61-.1-1.15-.26-2.06-.3-2.74-.06-.96-.01-1.6-.07-2.56-.04-.67-.04-1.42-.14-2.57-.1-1.15-.31-1.82-.39-2.49-.11-.95-.19-1.66-.3-2.61-.08-.67-.09-1.59-.19-2.74-.1-1.15-.18-1.98-.23-2.65-.01-.12-.02-.24-.03-.35l-.02-.17c-.01-.07-.01-.2-.01-.23-.01-.22-.02-.43-.03-.65-.03-.43-.05-.85-.05-1.33,0-.67.28-1.41.26-2.55-.02-1.14.04-1.99,0-2.66-.05-.96-.18-1.62-.24-2.58-.05-.67-.31-1.45-.4-2.58-.11-1.12.13-1.92.03-2.58-.13-.94-.14-1.62-.34-2.54-.06-.32-.21-.68-.37-1.08-.19-.39-.41-.83-.56-1.36-.36-1.01-.42-1.95-.8-2.47-.24-.38-.47-.65-.77-.84-.29-.19-.52-.43-.86-.69-.24-.16-.52-.35-.85-.56-.37-.14-.76-.31-1.22-.52-.5-.12-.92-.28-1.3-.41-.41-.07-.76-.14-1.07-.19-.44-.08-.81-.1-1.18-.13-.37-.03-.76-.08-1.2-.06-.59.03-1.22.39-1.97.99-.76.6-1.44,1.1-1.79,1.63-.47.8-.41,1.44-.76,2.28-.23.59-.81,1.29-1.12,2.37-.32,1.08-.38,1.89-.52,2.53-.18.93-.31,1.6-.45,2.54-.1.66-.13,1.46-.28,2.58-.14,1.12-.12,1.96-.19,2.62-.1.95-.36,1.58-.44,2.54-.05.67.11,1.49.05,2.63-.06,1.14-.15,1.89-.16,2.56-.02.96-.22,1.71-.22,2.67-.02.67-.04,1.45-.07,2.59,0,1.16-.09,1.78-.11,2.46-.04.94.02,1.72-.01,2.67-.02.68.25,1.57.27,2.72.02,1.14-.25,1.97-.23,2.64.03.96.33,1.63.36,2.59.03.67-.24,1.5-.19,2.64.05,1.14.39,1.95.42,2.62.04.97-.21,1.63-.16,2.6.03.67.36,1.48.43,2.62.07,1.16.01,1.95.09,2.63.1.94.27,1.52.38,2.46.08.67-.06,1.62.02,2.77.08,1.15.4,1.94.45,2.61.07.97.11,1.65.18,2.62.02.34.03.72.04,1.18,0,.43,0,.92.01,1.49.02,1.15-.27,1.85-.28,2.52,0,.95.25,1.9.24,2.85,0,.68-.24,1.34-.2,2.49.05,1.14.15,1.95.18,2.63.05.97,0,1.66.05,2.63.04.67.35,1.45.42,2.59.06,1.14-.05,1.97-.02,2.64.05.97-.07,1.62-.02,2.58.04.67.36,1.5.45,2.64.08,1.16-.07,2.1.01,2.78.11.94.2,1.65.32,2.59.09.67.1,1.34.2,2.49.11,1.15.5,2.05.55,2.72.07.95-.05,1.53.02,2.48.04.67.16,1.47.3,2.61.13,1.14.23,1.92.35,2.58.18.94.28,1.61.49,2.54.15.65.27,1.46.54,2.56.14.58.27,1.01.42,1.57.1.37.23.73.32,1.03.27.83.33,1.39.72,2.21.29.58.47,1.35,1.14,2.26.68.9,1.39,1.21,1.85,1.63.69.58,1.21.93,1.97,1.33.54.24,1.27.54,2.31.72,1.03.18,1.85.42,2.5.4.93-.04,1.5-.29,2.41-.44.32-.05.67-.12,1.09-.19.44-.09.71-.11,1.84-.45.07-.02.15-.04.21-.06.32.34.61.66.89.96.15.17.31.31.47.44.3.27.56.5.8.69.67.59,1.08,1.02,1.85,1.52.55.35,1.29.63,2.3,1.07,1.02.4,1.68.84,2.31,1.01.9.26,1.62.23,2.53.36.63.06,1.4.31,2.49.21.56-.04.97-.21,1.32-.34.33-.16.56-.32.84-.46.75-.39,1.3-.78,2-1.34.52-.43,1.22-1.01,2.09-1.74.36-.29.68-.57,1.03-.84.17-.13.35-.26.57-.39.29-.18.6-.23.88-.29.38.03.65.03.85.11.35.12.62.27.79.45.2.17.33.34.43.52.23.35.38.7.68,1.11.43.58.97,1.41,1.58,2.37.61.95,1.12,1.52,1.55,1.91.15.14.32.24.47.32.18.05.27.11.49.14.38.08.76.12,1.18.21.59.1,1.29.42,2.38.33,1.08-.09,1.79-.42,2.4-.59.87-.3,1.48-.54,2.32-.96.58-.29,1.36-.53,2.32-1.11.96-.58,1.66-.99,2.2-1.37.54-.37.8-.57,1.57-1.15.35-.27.69-.46,1.07-.49.2-.01.46.06.63.21.18.15.32.34.45.6.12.26.21.59.25.99.03.19.04.42.05.61,0,.13.01.27.02.41.05,1.13,0,1.95.04,2.62.06.96.29,1.63.37,2.59.05.67-.2,1.5-.1,2.64.1,1.14.27,1.91.32,2.58.07.96.4,1.72.47,2.69.05.67-.06,1.43.04,2.57.1,1.15.08,2.04.15,2.71.11.96.4,1.48.51,2.44.08.67-.11,1.57,0,2.7.11,1.15.26,1.86.31,2.53.08.95.25,1.72.34,2.67.06.68.26,1.46.39,2.61.13,1.16-.01,2.08.07,2.76.07,1.05.17,1.61.2,2.59.02.68.14,1.47.12,2.63-.02,1.15.01,1.94,0,2.61-.01.97-.18,1.69-.19,2.65,0,.67.05,1.47.04,2.61-.01,1.14-.03,1.94-.01,2.61.01.96-.03,1.62.03,2.56.06.65.07,1.46.29,2.54.22,1.08.55,1.77.81,2.32.36.8.71,1.31,1.29,1.92.42.4.93.91,1.9,1.32.96.4,1.72.66,2.36.76.93.12,1.56-.06,2.5-.06.32,0,.69,0,1.11-.02.21,0,.43-.02.68-.03.24-.02.42-.05.66-.08.9-.21,1.46-.64,1.89-1.02.61-.57,1-1.06,1.46-1.83.31-.54.8-1.14,1.2-2.18.39-1.04.57-1.82.74-2.46.27-.91.26-1.66.46-2.58.14-.65.57-1.32.75-2.44.17-1.13,0-1.88.07-2.55.08-.95.1-1.62.16-2.57.04-.67.28-1.55.35-2.69.07-1.15.22-1.83.27-2.5.08-.95-.04-1.81.02-2.75.05-.67.22-1.43.23-2.58.02-1.15.02-2,0-2.67-.02-.96-.31-1.52-.33-2.49-.02-.67.15-1.56.13-2.71-.02-1.15-.15-1.93-.18-2.6-.04-.97.12-1.73.07-2.7-.04-.67-.14-1.43-.19-2.58-.06-1.15-.1-1.95-.13-2.62-.04-.97-.22-1.68-.26-2.65-.03-.67.21-1.48.14-2.62-.07-1.18-.31-2.04-.39-2.74-.11-.94-.27-1.58-.38-2.52-.09-.7-.17-1.55-.26-2.73-.06-.86-.29-1.92-.3-2.59,0-.82.2-1.35.26-1.91.07-.65.26-.7.38-1.03.14-.41.25-1.2.38-1.19.13,0,.34-.1.48.24.12.29.14,1.67.28,2.31.11.51.32.73.42,1.52.07.62.31,1.36.37,2.17Z"/>
  </g>
  <g>
    <path class="cls-4" d="M16.43,18.01c-.9.61-10.08-.05-10.46-.61s.26-10.87,2.31-11.78c2.04-.91,2.56-.61,3.42-.33.79.25,2.31.71,2.75,1.42,1.13,1.82,1.77,3.68,1.98,5.81.18,1.87.91,4.87.01,5.48Z"/>
    <path class="cls-4" d="M16.23,17.79c-.06.01-.14.09-.24.08-.09,0-.2.13-.31.11-.11-.02-.21,0-.32-.02-.11-.02-.21-.24-.31-.25-.1,0-.21.32-.32.31-.11,0-.2-.35-.31-.36-.11-.01-.21-.09-.31-.1-.1,0-.22.36-.33.35-.11,0-.21.02-.32,0-.11,0-.2-.22-.31-.23l-.32-.02c-.11,0-.22.06-.32.05-.11,0-.21-.1-.32-.1-.11,0-.21.02-.32.02-.11,0-.22.14-.32.14-.11,0-.22,0-.33,0-.13-.01-.23-.27-.36-.29-.13-.02-.27.12-.4.09-.13-.03-.24-.14-.37-.15-.13-.01-.26-.04-.39-.01-.13.02-.25.22-.38.25-.13.02-.25-.2-.38-.21-.13-.01-.31.27-.43.23-.12-.04-.22-.19-.35-.23-.12-.04-.22-.21-.34-.23-.12-.02-.27.16-.4.15-.13,0-.26.01-.38,0-.12-.01-.22-.22-.33-.25-.07-.02-.03-.2-.04-.23,0-.02-.22.16-.29.12,0,0-.01,0-.01-.02,0-.07-.02-.12-.02-.19,0-.04.09-.08.17-.11.09-.06.17-.13.17-.18l-.02-.36c0-.12-.11-.24-.1-.37,0-.12-.21-.27-.19-.39.02-.12.05-.25.08-.37.02-.13.11-.24.12-.37,0-.13.01-.25,0-.38-.02-.12-.05-.26-.07-.38-.02-.13.18-.25.19-.37s-.12-.27-.07-.39c.05-.12.05-.26.09-.38.05-.12.04-.24.06-.37.02-.13.16-.24.15-.37-.01-.13-.25-.26-.26-.39,0-.13.27-.24.29-.36.02-.12.09-.23.13-.35.04-.12-.12-.29-.08-.41.04-.12.07-.24.1-.36.02-.12.26-.2.29-.32.03-.12-.25-.31-.21-.44.03-.12.22-.2.25-.32.03-.12-.04-.25-.03-.38,0-.13-.1-.27-.1-.4,0-.13.31-.19.35-.31.04-.12.11-.21.17-.32.06-.11.15-.19.2-.29.06-.1-.01-.26.04-.36.05-.1.25-.12.29-.22.04-.08,0-.23.04-.3.04-.08.07-.15.11-.19.02-.02,0-.06,0-.13-.01-.07.06-.15.11-.16.12-.03.25-.04.37-.07.12-.03.34.24.44.2.11-.04.13-.33.24-.37.11-.04.28.17.37.15.1-.03.2.04.29.03.08,0,.16-.36.27-.35.11,0,.14.33.23.34.08.01.28-.24.4-.2.11.04.16.4.29.43.13.03.27-.02.39,0,.12.03.33-.22.45-.18.12.04.25.11.35.19.1.08.14.25.23.33.09.08.11.28.21.32.09.05.25-.04.35,0,.1.03.16.1.24.13.08.03.17.02.21.09.06.11.07.25.12.36.04.12.19.18.24.3.04.12.13.2.19.31.05.11.01.27.08.37.07.1.07.24.13.34.06.11.21.17.26.29.04.11.13.22.17.33.03.12-.03.27,0,.39.03.12.1.22.14.34l.12.35.08.36c.03.12.13.22.16.34.02.12-.1.27-.11.4,0,.12.1.24.1.36,0,.13-.11.25-.09.37.01.12.23.21.25.33.03.13-.28.32-.25.45.03.13.18.24.2.37.02.13.17.24.19.37.02.13-.18.29-.16.42l.06.38c.02.13-.02.26,0,.38.01.13.12.24.13.36,0,.12.01.25.02.37.01.12.05.24.05.36,0,.12.03.23.03.35,0,.12.05.22.05.34,0,.11.07.21.07.32-.02.09-.2.17-.22.2-.01.06.15.16.13.21,0,.01-.02-.02-.05-.04-.04-.04,0,0,0,0-.02-.02.1.1.12.14.04.06.07.12.1.17.08.15.22.2.33.32.07.09.25.04.42.15.07-.04-.03.03.04,0,.11-.16.31-.25.36-.36.09-.18.07-.32.11-.43.05-.12-.06-.25-.03-.4.02-.1-.01-.21-.01-.35,0-.14.36-.27.35-.37-.02-.14-.14-.24-.17-.33-.03-.1-.07-.19-.1-.32-.02-.09-.22-.17-.24-.3-.01-.13.18-.26.18-.35,0-.13,0-.23,0-.32,0-.1-.18-.18-.18-.31,0-.09.23-.22.21-.35-.02-.13-.37-.17-.4-.25-.04-.12,0-.22-.04-.31-.04-.09-.12-.18-.16-.3-.02-.08.09-.21.07-.33-.01-.12-.01-.25,0-.38,0-.13.02-.27.03-.4,0-.13-.16-.24-.18-.37-.02-.13.05-.26,0-.39-.05-.12.02-.29-.03-.42-.06-.12-.1-.25-.13-.38-.03-.13.09-.27.09-.41,0-.14-.37-.23-.37-.36,0-.14.15-.3.11-.43-.04-.13-.17-.22-.24-.34-.07-.12-.21-.2-.28-.31-.07-.11.03-.31-.02-.44-.05-.12-.23-.19-.28-.31-.06-.12.11-.35.05-.47-.06-.12-.27-.16-.33-.28-.06-.12-.28-.15-.33-.27-.06-.12.05-.33-.01-.44-.04-.09-.11-.41-.23-.52-.14-.13-.32-.19-.46-.27-.14-.07-.38.08-.51.03-.13-.05-.12-.4-.25-.45-.13-.06-.36.13-.48.07-.11-.06-.24-.14-.35-.2-.12-.06-.28.03-.41-.01-.12-.04-.16-.4-.29-.42-.13-.02-.31.21-.43.19-.13-.02-.22-.19-.36-.23-.14-.04-.29-.06-.44-.09-.15-.02-.31-.03-.46-.02-.16,0-.29.15-.42.17-.14.02-.29.03-.44.03-.14,0-.3-.13-.45-.12-.14.02-.34-.11-.47-.06-.13.05-.18.3-.29.36-.13.07-.15.23-.31.34-.17.1-.34.16-.47.29-.09.12-.36.14-.43.28-.09.13-.21.24-.28.37-.07.13.03.34-.02.47-.06.13-.12.25-.14.39-.03.13-.07.26-.09.4-.02.13.14.32.11.44-.03.12-.31.19-.34.31-.03.13.21.32.19.45-.02.13-.31.2-.33.32l-.1.38c-.03.13,0,.27-.02.39-.02.13.1.28.08.41-.02.13-.06.26-.11.38-.05.12-.14.23-.18.36-.05.12-.05.25-.06.38-.02.13.05.27.02.4s-.13.24-.15.37c-.02.13.02.26,0,.39-.01.13-.16.24-.18.37-.02.13-.22.24-.23.36-.01.13.26.29.25.41-.01.13.09.24.12.37.02.14.04.25.06.39.03.13-.22.26-.22.39,0,.13.02.26,0,.39,0,.13.09.26.08.39,0,.13-.1.25-.1.38,0,.13-.1.26-.09.39,0,.13.24.25.26.38,0,.11-.15.33-.13.51.03.17.11.29.17.43l.02.04c.11.14.35.12.49.18.14.06.31.15.44.18.13.03.28-.04.4-.02.13.02.26.02.39.04.13.02.22.29.35.31.13.02.26-.02.39,0,.13.02.25.07.38.08.13.02.26-.04.39-.03.13.01.25.09.38.09s.26-.16.39-.16c.13,0,.27-.11.39-.1.13,0,.24.27.37.28.13,0,.26-.12.39-.11.13,0,.25.17.37.17.11,0,.22-.24.33-.25.11,0,.21.16.32.15.11,0,.22-.1.32-.1.11,0,.21.25.32.25.11,0,.22-.34.33-.34.11,0,.21.02.32.01.11,0,.22.24.33.23.11,0,.21-.13.32-.13.11,0,.22,0,.33.02.11.02.22,0,.33.02.11.02.21.16.32.17.11.01.24.11.35.1.11-.01.19-.29.3-.31.11-.02.2-.15.3-.18.1-.03.22,0,.32-.05.1-.04.23.01.34-.04.05-.03.02-.12.01-.15-.01-.04-.12-.16-.15-.15Z"/>
  </g>
  <g>
    <path class="cls-1" d="M32.7,63.34c-.28-.18-.67,0-.85.27s-.19.63-.2.96c-.03.88-.06,1.76.03,2.63.39,3.85,3.12,7.22,6.56,8.99,3.44,1.77,7.48,2.1,11.31,1.58.16-.02.32-.05.44-.14.17-.12.24-.34.29-.54.7-2.91-.95-6.1-3.54-7.59-.66-.38-1.39-.68-1.9-1.25-.31-.35-.51-.78-.77-1.17-.39-.6-.89-1.12-1.39-1.64-.6-.62-1.2-1.24-1.79-1.86-.37-.38-.75-.77-1.23-.96-.54-.22-1.14-.17-1.72-.12-1.48.13-2.98.25-4.42.62s-.81.23-.81.23Z"/>
    <path class="cls-1" d="M32.45,63.47c-.23,0-.61.23-.63.63-.03.35.26.71.25,1.09,0,.38-.09.76-.07,1.13.03.37.19.7.26,1.05.05.35.05.73.14,1.09.11.34.17.7.32,1.04,0,0-.11.5.17,1.11.14.3.4.62.61.96.19.31.57.48.8.76.3.37.45.82.66,1,.31.24.54.41.86.62.23.16.43.35.81.64.37.26.82.35,1.21.57.39.22.78.42,1.2.6.41.18.81.39,1.24.53.42.14.86.28,1.3.39.44.11.88.19,1.33.26.45.07.91-.09,1.36-.05.45.05.94.06,1.4.09.44.03.82.36,1.28.36.46,0,.94-.24,1.39-.29.23-.02.45-.06.67-.11l.33-.07c.12-.01.21-.06.21-.02.12.41.22.41.08.3-.03-.02-.07-.05-.12-.08-.06-.04-.14-.07-.1-.06.01,0,.03-.02.05-.05.08-.14.17-.37.2-.57.04-.41.12-.82.07-1.24-.03-.43-.39-.81-.5-1.2-.11-.39-.18-.8-.37-1.18-.19-.37-.29-.79-.56-1.14-.27-.34-.53-.69-.87-.97-.33-.29-.75-.43-1.12-.65-.39-.22-.91-.33-1.37-.65-.48-.33-.58-1.04-.8-1.44-.26-.44-.7-.67-.97-1-.26-.34-.36-.82-.68-1.17-.32-.35-.91-.57-1.2-.94-.29-.36-.47-.76-.75-1.12-.28-.35-.47-.76-.88-.96-.35-.17-.75-.22-1.13-.22-.42,0-.82.03-1.2.06-.43.03-.82.17-1.19.21-.43.04-.83.14-1.18.18-.47.05-.93.29-1.25.34-.34.05-.65.06-.89.05-.06,0-.11,0-.16-.01h-.07s-.03,0-.03,0c.01.07.02.03.03.04.03.01.06.02.09.03h.03s0,.02,0,.02c.03,0,.06-.03.08-.05.02-.04.03-.04.02,0,0,.02-.02.06-.07.08-.05.02-.02.01-.03.02,0,.02-.03.04-.05.06-.01.01-.03.02-.05.04,0,0-.01,0-.03.01h-.01s0,0,0,0h-.01s-.03,0-.07-.02c-.03,0-.17-.11-.13-.26.09-.19.11-.12.12-.15h0s0,0,0,0h0s.04-.03.05-.04c.04-.03.09-.06.13-.1.2-.13.48-.29.84-.41.32-.11.74-.26,1.23-.37.36-.08.85-.13,1.3-.17.38-.03.77.22,1.21.19.39-.02.78-.24,1.24-.26.41,0,.86-.12,1.39.08,0,0,.14.1.32.26.19.17.42.38.69.63.26.23.64.32.94.6.26.25.52.57.79.84.35.35.4.81.6,1.02.29.31.5.53.77.87.18.23.59.44.85.87.26.43.4.8.77,1.04.35.24.78.48,1.25.72.47.24.94.5,1.36.84.43.34.68.81,1.02,1.22.31.43.69.83.92,1.33.24.48.52.97.67,1.5.16.52.46.93.54,1.51.05.57.01,1.19-.09,1.76-.02.15-.04.28-.12.5-.08.2-.22.5-.54.74-.33.24-.64.27-.81.29-.14.01-.28.02-.42.04-.52.07-1.02-.08-1.54-.06-.51.02-1.08.34-1.6.32-.52-.01-1.02-.1-1.54-.14-.52-.04-1.04-.21-1.56-.27-.52-.06-1.03-.29-1.54-.4-.51-.11-.99-.2-1.49-.37-.49-.17-1.19-.13-1.67-.38-.47-.25-.88-.57-1.31-.87-.44-.31-.68-.75-1.09-1.06-.29-.24-.54-.61-.9-.95-.29-.28-.75-.48-1.06-.84-.29-.32-.57-.67-.84-1.04-.25-.36-.64-.68-.86-1.08-.21-.4-.37-.83-.52-1.25-.16-.43-.31-.87-.4-1.29-.11-.46-.25-.92-.29-1.33-.06-.51.14-.92.14-1.27,0-.25.05-.82.11-1.44.03-.24-.02-.51-.02-.82,0-.3.07-.67.32-.89.45-.39.95-.23,1.05-.03.09.21-.01.12-.07.1-.07,0-.16,0-.29.03-.09.04.12.09.06.11Z"/>
  </g>
  <g>
    <path class="cls-1" d="M60.73,64.57c2.33,2.03,4.87,1.84,6.78,4.27.53.68,1.17,2.68,1.54,3.46.64,1.36,1.37,3.22,1.51,4.72.13,1.5.11,2.54-.88,3.67-.13.15-.29.3-.49.33-.19.03-.38-.06-.56-.15-1.3-.72-2.23-1.96-3.04-3.21-2.49-3.84-4.4-8.3-8.2-10.84-.26-.18-.55-.35-.69-.63-.25-.48,0-1.11.44-1.42s1.01-.39,1.55-.39c1.75,0,2.05.2,2.05.2Z"/>
    <path class="cls-1" d="M61.02,64.54c.26.17.5.49.78.65.28.16.66.04.94.18.28.13.53.34.83.46.29.11.63.1.93.22.3.12.58.34.89.48.3.14.58.34.87.52,0,0,.19.43.61.83.21.2.51.41.74.69.21.24.57.46.72.76.2.4.16.82.29,1.04.17.29.3.51.47.8.12.21.18.45.35.81.17.33.49.63.66.99.17.37.32.75.47,1.13.15.38.24.79.36,1.19.12.4.21.82.28,1.25.07.45.1.83.13,1.26.02.42.24.88.15,1.38-.09.49-.29,1.06-.57,1.48-.14.21-.34.34-.54.45-.19.1-.4.24-.74.42-.17.09-.42.16-.63.15-.22,0-.4-.04-.55-.08-.29-.08-.48-.14-.68-.27-.37-.25-.76-.47-1.08-.78-.33-.31-.48-.77-.74-1.1-.27-.33-.46-.69-.68-1.03-.23-.34-.68-.57-.88-.92-.2-.35-.32-.73-.51-1.08-.19-.35-.25-.75-.45-1.09-.2-.35-.35-.71-.55-1.05-.2-.34-.5-.62-.7-.95-.2-.34-.53-.61-.73-.94-.2-.33-.08-.84-.3-1.16-.23-.32-.69-.49-.92-.79-.23-.31-.26-.74-.5-1.04-.26-.29-.76-.46-1.01-.74-.24-.29-.39-.62-.66-.89-.26-.28-.47-.61-.77-.85-.28-.2-.59-.44-.71-.79-.13-.38,0-.75.18-1.02.2-.31.47-.6.79-.7.37-.12.73-.19,1.04-.18.41.02.83-.11,1.12-.06.59.08,1.04.44.97.5.03.08-.39.2-.99.23-.26.02-.63.05-1.01.08-.27.02-.62.02-.87.1-.2.06-.55-.09-.75.16-.17.22-.05.55.01.68.05.16.28.2.57.38,0,0,.24.4.73.71.23.17.6.18.88.41.24.21.49.47.72.71.31.31.32.73.47.92.23.27.4.47.61.75.16.19.5.3.76.64.27.34.43.77.68,1.11.25.35.46.73.69,1.08.24.35.49.68.72,1.03.22.36.32.77.53,1.14.21.37.49.69.7,1.06.21.36.5.69.73,1.04.23.35.62.5.87.81.26.31.49.65.76.92.27.27.48.65.76.89.27.23.45.59.76.77.06.04.12.04.11,0,0-.03-.1-.06-.15-.07-.11-.01-.04-.15.07-.3.22-.25.42-.48.53-.77.1-.29.26-.61.25-.99,0-.36.08-.8.03-1.2-.05-.38-.17-.72-.26-1.1-.09-.39-.52-.75-.62-1.14-.1-.38-.16-.77-.28-1.16-.13-.39-.06-.78-.23-1.19-.12-.3-.12-.68-.26-1.06-.11-.31-.41-.6-.55-.94-.12-.31-.28-.63-.42-.92-.08-.15-.16-.22-.3-.32-.14-.1-.26-.21-.37-.32-.21-.23-.42-.49-.67-.69-.26-.21-.54-.4-.81-.56-.3-.19-.65-.3-.93-.45-.35-.18-.56-.5-.82-.63-.18-.1-.6-.33-1.06-.61-.35-.21-.92-.36-1.2-.61-.5-.47-.54-.87-.08-.61.1.04-.04-.16.02-.13Z"/>
  </g>
  <g>
    <path class="cls-1" d="M76.38,69.21c1.11-.12,2.39.36,3.52,1.17,1.13.8,1.76,2.13,2.62,3.31,1.62,2.23,3.05,4.43,3.81,7.09.07.25.11.52.02.7-.1.19-.33.23-.54.26-.47.06-.95.12-1.46-.08-1.25-.49-1.94-2.15-2.65-3.48-.75-1.4-1.76-2.65-2.75-3.89-1.32-1.64-2.64-3.28-3.96-4.93l1.39-.15Z"/>
    <path class="cls-1" d="M76.53,69.02c.26-.05.57.07.82.1.25.03.53-.15.8-.08.26.08.48.24.72.34.24.1.52.1.75.23.23.13.42.33.64.49.22.16.4.36.6.55,0,0,.06.37.31.73.13.18.34.37.49.59.13.2.42.3.56.51.19.27.21.6.34.73.18.18.33.32.51.49.14.13.23.3.43.56.18.25.47.4.66.66l.53.77c.17.26.31.55.47.82.16.27.31.55.47.83.15.28.3.56.44.84.14.28.44.5.56.8.12.3.26.63.34.95.08.33-.09.6-.04,1.02,0,.2.11.46-.06.86-.22.43-.62.55-.8.58-.35.05-.64.16-1.05.16-.41,0-.82-.28-1.15-.46-.35-.18-.61-.46-.85-.72-.24-.25-.64-.42-.82-.71-.17-.29-.26-.61-.4-.89-.14-.28-.16-.6-.29-.88-.13-.27-.23-.56-.38-.82-.15-.26-.38-.46-.54-.71-.16-.25-.43-.45-.59-.69-.17-.25-.07-.66-.25-.91-.18-.25-.57-.35-.75-.59-.18-.24-.19-.6-.37-.85-.18-.25-.6-.39-.76-.65-.16-.26-.23-.54-.39-.8-.16-.26-.23-.57-.41-.81-.16-.22-.32-.44-.46-.64-.16-.22-.32-.43-.47-.63-.17-.22-.4-.37-.55-.56-.17-.23-.37-.41-.5-.6-.05-.08-.12-.14-.18-.21l.1-.24c.21-.05.41-.13.56-.13.45,0,.82.16.85.21.03.06-.29.31-.76.41-.16.04-.36.09-.59.14l.33-.8s.09.1.15.15c.16.17.34.43.52.66.15.19.1.53.27.76.15.2.44.32.61.54.16.2.39.32.57.53,0,0,.07.35.37.67.15.16.43.21.6.41.16.18.3.4.46.59.21.24.17.58.29.73.17.21.29.36.46.58.12.15.4.21.61.46.21.25.35.58.56.84.21.26.38.55.57.82.2.27.41.52.58.81.18.29.23.62.37.92.14.29.35.56.5.84.15.28.37.52.55.76.18.24.49.29.69.44.2.15.39.29.58.33.17.04.38.16.66.13.13-.01.29,0,.44.03.13.03.18.02.09.1-.07.11-.08.08-.16,0-.07-.07-.17-.19-.21-.35-.08-.3-.12-.6-.23-.89-.11-.29-.14-.62-.28-.91-.14-.28-.19-.62-.34-.9-.15-.28-.33-.52-.48-.8-.15-.28-.57-.47-.71-.76-.14-.28-.24-.58-.39-.86-.15-.28-.15-.61-.32-.88-.12-.19-.19-.48-.37-.74-.14-.2-.44-.37-.61-.62-.15-.22-.3-.46-.46-.7-.14-.23-.41-.4-.56-.62-.15-.22-.27-.45-.42-.65-.16-.2-.33-.39-.51-.55-.18-.17-.44-.3-.63-.44-.24-.17-.35-.44-.55-.54-.13-.07-.43-.26-.8-.4-.29-.11-.7-.03-.95-.08-.46-.08-.72-.25-.31-.37.09-.03-.1-.08-.05-.1Z"/>
  </g>
  <g>
    <path class="cls-4" d="M77.26,178.45c.9-.61,10.08.05,10.46.61s-.26,10.87-2.31,11.78c-2.04.91-2.56.61-3.42.33-.79-.25-2.31-.71-2.75-1.42-1.13-1.82-1.77-3.68-1.98-5.81-.18-1.87-.91-4.87-.01-5.48Z"/>
    <path class="cls-4" d="M77.45,178.66c.06-.01.14-.09.24-.08.09,0,.2-.12.31-.11.11.02.21,0,.32.02.11.02.21.24.31.25.1,0,.21-.32.32-.31.11,0,.2.35.31.36.1.01.21.09.31.1.1,0,.22-.36.33-.35.11,0,.21-.02.32,0,.11,0,.2.22.31.23l.32.02c.11,0,.22-.06.32-.06.11,0,.21.1.32.1.11,0,.21-.02.32-.02s.22-.14.32-.14.22,0,.33,0c.13.01.23.27.36.29.13.02.27-.12.4-.09s.24.14.37.15c.13.01.26.04.39.01.13-.02.25-.22.38-.25.13-.02.25.2.38.21.13.01.31-.27.43-.23.12.04.22.19.35.23.12.04.22.21.34.23.12.02.27-.16.4-.15.13,0,.26-.01.38,0,.12.01.22.22.33.25.07.02.03.2.04.23,0,.02.22-.16.29-.12,0,0,.01,0,.01.02,0,.07.02.12.02.19,0,.04-.09.08-.17.11-.09.06-.17.13-.17.18l.02.36c0,.12.11.24.1.37,0,.12.21.27.19.39-.02.12-.05.25-.08.38-.02.13-.11.24-.12.37,0,.13-.01.25,0,.38.02.12.05.26.07.39.02.13-.18.24-.19.37-.01.13.12.27.07.39-.05.12-.05.26-.09.38-.05.12-.04.24-.06.37-.02.13-.16.24-.15.37.01.13.25.26.26.39.01.13-.27.24-.29.36-.02.13-.09.23-.13.35-.04.12.12.29.08.41s-.07.24-.1.36c-.02.12-.26.2-.29.32-.03.12.25.31.21.43-.03.12-.22.2-.25.32-.03.12.04.25.03.38,0,.13.1.27.1.4,0,.13-.31.19-.35.31-.04.11-.11.21-.17.32-.06.11-.15.19-.2.29-.06.1.01.26-.04.37-.05.1-.25.12-.28.22-.04.08,0,.23-.04.3-.04.08-.07.15-.11.19-.02.02,0,.06,0,.13.01.07-.06.15-.11.16-.12.03-.25.04-.37.07-.12.03-.34-.24-.44-.2-.11.04-.13.33-.24.37-.11.04-.28-.17-.37-.15-.1.03-.2-.04-.29-.03-.08,0-.16.36-.27.35-.11,0-.14-.32-.23-.34-.08-.02-.28.24-.4.2-.11-.04-.16-.4-.29-.43-.13-.03-.27.02-.39,0-.12-.03-.33.22-.45.18-.12-.04-.25-.11-.35-.18-.1-.08-.14-.25-.23-.33-.09-.08-.11-.28-.21-.33-.09-.05-.25.04-.35,0-.1-.03-.16-.1-.24-.13-.08-.03-.17-.02-.21-.09-.06-.11-.07-.25-.12-.36-.04-.12-.19-.18-.24-.3-.04-.12-.13-.2-.19-.31-.05-.11-.01-.27-.08-.37-.07-.1-.07-.24-.13-.34-.06-.11-.21-.17-.26-.29-.04-.11-.13-.22-.17-.33-.03-.12.03-.27,0-.38-.03-.12-.1-.22-.14-.34l-.12-.35-.08-.36c-.03-.12-.13-.22-.16-.34-.02-.12.1-.27.11-.4,0-.12-.1-.24-.1-.36,0-.12.11-.25.09-.37-.01-.12-.23-.21-.25-.33-.03-.13.28-.32.25-.45-.03-.13-.18-.24-.2-.37-.02-.13-.17-.24-.19-.37-.02-.13.18-.29.16-.42l-.06-.38c-.02-.13.02-.26,0-.38-.01-.13-.12-.24-.13-.36,0-.12-.01-.25-.02-.37-.01-.12-.05-.24-.05-.36,0-.12-.03-.24-.03-.35,0-.12-.05-.22-.05-.34,0-.11-.07-.21-.07-.32.02-.09.2-.17.22-.2.01-.06-.15-.16-.13-.21,0-.01.02.02.05.04.04.04,0,0,0,0,.02.03-.1-.1-.12-.14-.04-.06-.07-.12-.1-.17-.08-.15-.22-.2-.33-.32-.07-.09-.25-.04-.42-.15-.07.04.03-.03-.04.01-.11.16-.31.25-.36.36-.09.18-.07.32-.11.43-.05.12.06.25.03.4-.02.1.01.21.01.35,0,.14-.36.27-.35.37.02.14.14.24.17.33.03.1.07.19.1.32.02.09.22.17.24.3.01.13-.18.26-.18.35,0,.13,0,.23,0,.32,0,.1.18.18.18.31,0,.09-.23.22-.21.35.02.13.37.17.4.25.04.12,0,.22.04.3.04.09.12.18.16.3.02.08-.09.21-.07.33.01.12.01.25,0,.38,0,.13-.02.27-.03.4,0,.13.17.24.18.37.02.13-.05.26,0,.39.05.12-.02.29.03.42.06.12.1.24.13.37.03.13-.09.27-.09.41,0,.14.37.23.37.36,0,.14-.15.3-.11.43.04.13.17.22.24.33.07.12.21.2.28.31.07.11-.03.31.02.44.05.12.23.19.28.31.06.12-.11.35-.05.47.06.12.27.16.33.28.06.12.28.15.33.27.06.12-.05.33.01.44.04.09.11.41.23.52.14.13.32.19.46.27.14.07.38-.08.51-.03.13.05.12.4.25.45.13.06.36-.13.48-.07.11.06.24.14.35.2.12.06.28-.03.41.01.12.04.16.4.29.42.13.02.31-.21.43-.19.13.02.22.19.36.23.14.04.29.06.44.09.15.02.31.03.46.02.16,0,.29-.15.42-.17.14-.02.29-.02.44-.03.14,0,.3.13.45.12.14-.02.34.11.47.06.13-.05.18-.3.29-.36.13-.07.15-.23.31-.34.17-.1.34-.17.47-.29.09-.12.36-.14.43-.28.09-.13.21-.24.28-.37.07-.13-.03-.34.02-.47.06-.13.12-.25.14-.39.03-.13.07-.26.09-.4.02-.13-.14-.32-.11-.44.03-.12.31-.19.34-.31.03-.13-.21-.32-.19-.45.02-.13.31-.2.33-.32l.1-.38c.03-.13,0-.26.02-.39.02-.13-.1-.28-.08-.41.02-.13.06-.26.11-.38.05-.12.14-.23.18-.36.05-.12.05-.25.06-.38.02-.13-.05-.27-.02-.4.02-.13.13-.24.15-.37.02-.13-.02-.26,0-.39.01-.13.16-.24.18-.37.02-.13.22-.24.23-.36.01-.13-.26-.29-.25-.41.01-.13-.09-.24-.12-.37-.02-.14-.04-.25-.06-.39-.03-.13.22-.27.22-.39,0-.13-.02-.26,0-.39,0-.13-.09-.26-.08-.39,0-.13.1-.26.1-.38,0-.13.1-.26.09-.39,0-.13-.24-.25-.25-.38,0-.11.15-.33.13-.51-.03-.17-.11-.29-.17-.43l-.02-.04c-.11-.14-.35-.12-.49-.18-.14-.06-.31-.15-.44-.18-.13-.03-.28.04-.4.02-.13-.02-.26-.02-.39-.04-.13-.02-.22-.29-.35-.31-.13-.02-.26.02-.39,0-.13-.02-.25-.07-.38-.08-.13-.02-.26.04-.39.03-.13-.01-.25-.09-.38-.09-.13,0-.26.16-.39.16-.13,0-.27.11-.39.1-.13,0-.24-.27-.37-.28-.13,0-.26.12-.39.11-.13,0-.25-.17-.37-.17-.11,0-.22.24-.33.25s-.21-.16-.32-.15c-.11,0-.22.1-.32.1s-.21-.25-.32-.25c-.11,0-.22.34-.33.34-.11,0-.21-.02-.32-.01-.11,0-.22-.24-.33-.23-.11,0-.21.13-.32.13-.11,0-.22,0-.33-.02-.11-.02-.22,0-.33-.02-.11-.02-.21-.16-.32-.17-.11-.01-.24-.11-.35-.1s-.19.29-.3.31c-.11.02-.2.15-.3.18-.1.03-.22,0-.32.05-.1.04-.23-.01-.34.04-.05.03-.02.12-.01.15.01.04.12.16.15.15Z"/>
  </g>
  <g>
    <path class="cls-1" d="M60.93,134.84c.28.18.67,0,.85-.27s.19-.63.2-.96c.03-.88.06-1.76-.03-2.63-.39-3.85-3.12-7.22-6.56-8.99-3.44-1.77-7.48-2.1-11.31-1.58-.16.02-.32.05-.44.14-.17.12-.24.34-.29.54-.7,2.91.95,6.1,3.54,7.59.66.38,1.39.68,1.9,1.25.31.35.51.78.77,1.17.39.6.89,1.12,1.39,1.64.6.62,1.2,1.24,1.79,1.86.37.38.75.77,1.23.96.54.22,1.14.17,1.72.12,1.48-.13,2.98-.25,4.42-.62s.81-.23.81-.23Z"/>
    <path class="cls-1" d="M61.18,134.71c.23,0,.61-.23.63-.63.03-.35-.26-.71-.25-1.09,0-.38.09-.76.07-1.13-.03-.37-.19-.7-.26-1.05-.05-.35-.05-.73-.14-1.09-.11-.34-.17-.7-.32-1.04,0,0,.11-.5-.17-1.11-.14-.3-.39-.62-.61-.96-.19-.31-.57-.48-.8-.76-.3-.37-.45-.82-.66-1-.31-.24-.54-.41-.86-.62-.23-.16-.43-.35-.81-.64-.37-.26-.82-.36-1.21-.57-.39-.22-.78-.42-1.19-.6-.41-.18-.81-.39-1.24-.53-.42-.14-.86-.28-1.3-.39-.44-.11-.88-.19-1.33-.26-.45-.07-.91.09-1.36.05-.45-.05-.94-.06-1.4-.09-.44-.03-.82-.35-1.28-.36-.46,0-.94.24-1.39.29-.23.02-.45.06-.67.11l-.32.07s-.02.02-.03.02c-.01,0-.06-.02-.12,0-.04-.03-.15.29-.18.46-.04.41-.12.82-.07,1.24.03.43.39.81.5,1.2.11.39.18.8.37,1.18.19.37.29.79.56,1.14.27.34.53.69.87.97.33.29.75.43,1.12.65.39.22.91.33,1.37.65.48.33.58,1.04.8,1.44.26.44.7.67.97,1,.26.34.36.82.68,1.17.32.35.91.57,1.2.94.29.36.47.76.75,1.12.28.35.47.76.88.96.35.17.75.22,1.13.22.42,0,.82-.03,1.2-.06.43-.03.82-.17,1.19-.21.43-.04.83-.14,1.18-.18.47-.05.93-.29,1.25-.34.34-.05.65-.06.89-.05.06,0,.11,0,.16.01h.07s.03,0,.03,0c-.01-.07-.02-.03-.03-.04-.03-.01-.06-.02-.09-.03h-.03s0-.02,0-.02c-.03,0-.06.03-.08.05-.02.04-.03.04-.02,0,0-.02.02-.06.07-.08.05-.02.02-.01.03-.02,0-.02.03-.04.05-.06.01-.01.03-.02.05-.04,0,0,.01,0,.03-.01h.01s0,0,0,0h.01s.03,0,.07.02c.03,0,.17.11.13.26-.09.19-.11.12-.12.15h0s0,0,0,0h0s-.04.03-.05.04c-.04.03-.09.06-.13.1-.2.13-.48.29-.84.41-.32.11-.74.26-1.23.37-.36.08-.85.13-1.3.17-.38.03-.77-.22-1.21-.19-.39.02-.78.24-1.24.26-.41,0-.86.12-1.39-.08,0,0-.14-.1-.32-.26-.19-.17-.42-.38-.69-.63-.26-.23-.64-.32-.94-.6-.26-.25-.52-.57-.79-.84-.35-.35-.4-.81-.6-1.02-.29-.31-.5-.53-.77-.87-.18-.23-.59-.44-.85-.87-.26-.43-.4-.8-.77-1.04-.35-.24-.78-.48-1.25-.72-.47-.24-.94-.5-1.36-.84-.43-.34-.68-.81-1.02-1.22-.31-.43-.69-.83-.92-1.33-.24-.48-.52-.97-.67-1.5-.16-.52-.46-.93-.54-1.51-.05-.57-.01-1.19.09-1.76.01-.12.07-.43.18-.65.11-.23.27-.43.47-.58.2-.15.44-.24.69-.28.12-.02.25-.03.36-.04l.2-.02c.52-.07,1.02.08,1.54.06.51-.02,1.08-.34,1.6-.32.52.01,1.02.1,1.54.14.52.04,1.04.21,1.56.27.52.06,1.03.29,1.54.4.51.11.99.2,1.49.37.49.17,1.19.13,1.67.38.47.25.88.57,1.31.87.44.31.68.75,1.09,1.06.29.24.54.61.9.95.29.28.75.48,1.06.84.29.32.57.67.84,1.04.25.36.64.68.86,1.08.21.4.37.83.52,1.25.16.43.31.87.4,1.29.11.46.25.92.29,1.33.06.51-.14.92-.14,1.27,0,.25-.05.82-.11,1.44-.03.24.02.51.02.82,0,.31-.07.67-.32.89-.45.39-.95.23-1.05.03-.09-.21.01-.12.07-.1.07,0,.16,0,.29-.03.09-.04-.12-.09-.06-.11Z"/>
  </g>
  <g>
    <path class="cls-1" d="M32.9,133.61c-2.33-2.03-4.87-1.84-6.78-4.27-.53-.68-1.17-2.68-1.54-3.46-.64-1.36-1.37-3.22-1.51-4.72-.13-1.5-.11-2.54.88-3.67.13-.15.29-.3.49-.33.19-.03.38.06.56.15,1.3.72,2.23,1.96,3.04,3.21,2.49,3.84,4.4,8.3,8.2,10.84.26.18.55.35.69.63.25.48,0,1.11-.44,1.42s-1.01.39-1.55.39c-1.75,0-2.05-.2-2.05-.2Z"/>
    <path class="cls-1" d="M32.61,133.63c-.26-.16-.5-.49-.78-.65-.28-.16-.66-.04-.94-.18-.28-.13-.53-.34-.83-.46-.29-.11-.63-.1-.93-.22-.3-.12-.58-.34-.89-.48-.3-.14-.58-.34-.87-.52,0,0-.19-.43-.61-.83-.21-.2-.51-.41-.74-.69-.21-.24-.57-.46-.72-.76-.2-.4-.16-.82-.29-1.04-.17-.29-.3-.51-.47-.8-.12-.21-.18-.45-.35-.81-.17-.33-.49-.63-.66-.99-.17-.37-.32-.75-.47-1.13-.15-.38-.24-.79-.36-1.19-.12-.4-.21-.82-.28-1.25-.07-.45-.1-.83-.13-1.26-.02-.42-.24-.88-.15-1.38.09-.49.29-1.06.57-1.48.14-.21.33-.33.55-.46.28-.21.53-.34.82-.45.29-.12.62-.16.95-.09.17.03.34.1.51.17.11.04.22.09.31.16.37.25.76.47,1.08.78.33.31.48.77.74,1.09.27.33.46.69.68,1.03.23.34.68.57.88.92.2.35.32.73.51,1.08.19.35.25.75.45,1.09.2.35.35.71.55,1.05.2.34.5.62.7.95.2.34.53.61.73.94.2.33.08.84.3,1.16.23.32.69.49.92.79.22.31.26.74.5,1.04.26.29.76.46,1.01.74.24.29.39.62.65.89.26.28.47.61.77.85.25.18.52.39.66.67.02.04.04.08.05.12.13.37,0,.75-.18,1.02-.2.31-.47.6-.79.7-.37.12-.73.19-1.04.18-.41-.02-.83.11-1.12.06-.59-.08-1.03-.43-.97-.51-.02-.07.4-.2.99-.23.26-.02.63-.05,1.01-.08.27-.02.62-.02.87-.1.2-.06.55.09.75-.16.17-.23.05-.52-.02-.68,0-.03-.02-.05-.04-.07-.09-.12-.27-.15-.53-.31,0,0-.24-.4-.73-.71-.23-.17-.6-.18-.88-.41-.24-.21-.49-.47-.72-.71-.31-.31-.32-.73-.47-.92-.23-.27-.4-.47-.61-.75-.16-.19-.5-.3-.76-.64-.27-.34-.43-.77-.68-1.11-.25-.35-.46-.73-.69-1.08-.24-.35-.49-.68-.72-1.03-.22-.36-.32-.77-.53-1.14-.21-.37-.49-.69-.7-1.06-.21-.36-.5-.69-.73-1.04-.23-.35-.62-.5-.87-.81-.26-.31-.49-.65-.76-.92-.27-.27-.48-.65-.76-.89-.14-.12-.25-.26-.37-.4-.12-.14-.27-.29-.29-.31-.06-.04-.14.02-.15.12-.02.11.05.14,0,.18-.22.25-.42.48-.53.77-.1.29-.26.61-.25.99,0,.36-.08.8-.03,1.2.05.38.17.72.26,1.1.09.39.52.75.62,1.14.1.38.16.77.28,1.16.13.39.06.78.23,1.19.12.3.12.68.26,1.06.11.31.41.6.55.94.12.31.28.63.42.92.08.15.16.22.3.32.14.1.26.21.37.32.21.23.42.49.67.69.26.21.54.4.81.56.3.19.65.3.93.45.35.18.56.5.82.63.18.1.6.33,1.06.61.35.21.92.36,1.2.61.51.49.54.87.08.61-.1-.04.03.15-.03.13Z"/>
  </g>
  <g>
    <path class="cls-1" d="M17.25,128.97c-1.11.12-2.39-.36-3.52-1.17-1.13-.8-1.76-2.13-2.62-3.31-1.62-2.23-3.05-4.43-3.81-7.09-.07-.25-.11-.52-.02-.7.1-.19.33-.23.54-.26.47-.06.95-.12,1.46.08,1.25.49,1.94,2.15,2.65,3.48.75,1.4,1.76,2.65,2.75,3.89,1.32,1.64,2.64,3.28,3.96,4.93l-1.39.15Z"/>
    <path class="cls-1" d="M17.09,129.15c-.26.05-.57-.07-.82-.1-.25-.03-.53.15-.8.08-.26-.08-.48-.24-.72-.34-.24-.1-.52-.1-.75-.23-.23-.13-.42-.33-.64-.49-.22-.16-.4-.36-.6-.55,0,0-.06-.37-.31-.73-.13-.18-.34-.37-.49-.59-.13-.2-.42-.3-.56-.51-.19-.27-.21-.6-.34-.73-.18-.18-.33-.32-.51-.49-.14-.13-.23-.3-.43-.56-.18-.25-.47-.4-.66-.66l-.53-.77c-.17-.26-.31-.55-.47-.82-.16-.27-.31-.55-.47-.83-.15-.28-.3-.56-.44-.84-.14-.28-.44-.5-.56-.8-.12-.3-.26-.63-.34-.95-.04-.15-.02-.32.01-.48.02-.18.01-.47.01-.69,0-.2-.01-.41.05-.62.08-.29.3-.53.59-.62.13-.04.26-.07.4-.09.11-.02.22-.04.34-.06.17-.03.35-.06.55-.06.41,0,.82.28,1.15.46.35.18.61.46.85.72.24.25.64.42.82.71.17.29.26.61.4.89.14.28.16.6.29.88.13.27.23.56.38.82.15.26.38.46.54.71.16.25.43.45.59.69.17.25.07.66.25.91.18.25.57.35.75.59.18.24.19.6.37.84.18.25.6.39.76.65.16.26.23.54.39.8.16.26.23.57.41.81.16.22.32.44.46.64.16.22.32.43.47.63.17.22.4.37.55.56.17.23.37.41.5.6.05.08.12.14.18.21l.18.18-.28.07c-.21.05-.41.13-.56.13-.45,0-.82-.16-.85-.21-.03-.06.29-.31.76-.41.16-.04.36-.09.59-.14l-.33.8s-.09-.1-.14-.15c-.16-.17-.34-.43-.52-.66-.15-.19-.1-.53-.27-.76-.15-.2-.44-.32-.61-.54-.16-.2-.39-.32-.57-.53,0,0-.07-.35-.37-.67-.15-.16-.43-.21-.6-.41-.16-.18-.3-.4-.46-.59-.21-.24-.17-.58-.29-.73-.17-.21-.29-.36-.46-.58-.12-.15-.4-.21-.61-.46-.21-.25-.35-.58-.56-.84-.21-.26-.38-.55-.57-.82-.2-.27-.41-.52-.58-.81-.18-.29-.23-.62-.37-.92-.14-.29-.35-.56-.5-.84-.15-.28-.37-.52-.55-.76-.18-.24-.49-.29-.69-.44-.2-.15-.39-.29-.58-.33-.17-.04-.38-.16-.66-.13-.05,0-.17,0-.18,0-.01-.01-.03-.03-.06-.05-.05-.04-.13-.07-.18-.03-.01,0-.01.02-.01.04,0,.06.08.12.13.14.03.01.06.02.07.02,0,0,.02,0,.02,0,.01.03.03.06.03.09.08.3.12.6.23.89.11.29.14.62.28.91.14.28.19.62.34.9.15.28.33.52.48.8.15.28.57.47.71.76.14.28.24.58.39.86.15.28.15.61.32.88.13.19.19.48.37.74.14.21.44.37.61.62.15.22.3.46.46.7.14.23.41.4.56.62.15.22.27.45.42.65.16.2.33.39.51.55.18.17.44.3.63.44.24.17.35.44.55.54.13.07.43.26.8.4.29.11.7.03.95.08.46.08.72.25.31.37-.09.03.1.08.05.1Z"/>
  </g>
</svg>