<?xml version="1.0" encoding="UTF-8"?>
<svg id="Layer_1" data-name="Layer 1" xmlns="http://www.w3.org/2000/svg" viewBox="0 0 600 600">
  <defs>
    <style>
      .cls-1 {
        fill: #ffc0c4;
      }

      .cls-2 {
        fill: #f7f;
      }

      .cls-3 {
        fill: #ffd2d4;
      }
    </style>
  </defs>
  <path class="cls-3" d="M370.37,56.3c-.43.16,4.39.82,8.2-.57-2.83-.5-5.66-.37-8.2.57Z"/>
  <path class="cls-3" d="M396.31,70.74c-1.88-7.3-9.81-13.62-17.73-15.01-3.81,1.39-8.64.73-8.2.57,2.55-.94,5.38-1.07,8.2-.57,1.48-.54,2.81-1.39,3.61-2.7,2.88-4.69,2.31-13.43-3.64-15.75-3.51-1.37-6.68-1.23-6.73-3.96-.05-2.72-1.16-6.13-7.49-8.78-6.33-2.64-13.65,4.94-21.67-7.23-6.65-10.1-53.23-9.57-53.23-9.57,0,0-97.99,11.7-118.16,10.54-10.1-.58-49.4-9.52-69.06-.6-19.66,8.92-30.78,28.34-29.6,44.41,1.47,20.04,23.12,39.82,25.25,51.39,2.12,11.56,39.39,144.29,39.39,144.29l-129.24-5.74c-.5,38.61.25,77.31,10.71,115.65,3.68,14.72,8.94,28.31,15.23,41.44l284.67,20.89s14.96-53.09,11.36-69.94c-3.6-16.85-66.61-211.23-66.92-225.33-.23-10.46,71.68-42.22,74.51-43.48,2.83-1.27,25.65.06,31.7,1.65,10.29,2.71,19.6,1.62,24.17-1.7,5.73-4.16,4.51-14.11,2.88-20.46Z"/>
  <path class="cls-1" d="M353.24,73.88c5.14-9.75,17.32-15.19,28.01-12.52,2.63.66,5.15,1.75,7.84,2.08.33.04.7.06.97-.14.63-.48.04-1.47-.58-1.97-3.35-2.72-7.47-4.5-11.75-5.07,0,0-7.73-1.87-10.43-2.15-3.26-1.24-6.93-7-6.8-10.67.84.39,1.8.52,2.68.26,1-.3,1.79-1.06,2.68-1.6,1.66-1.02,3.7-1.29,5.63-1.02,1.61.22,3.16.79,4.61,1.51,1.29.65,2.38,1.96,3.37,3.01.37.4.83.84,1.37.78.57-.06.92-.64,1.16-1.17.26-.59.5-1.21.51-1.86.02-1.16-.67-2.21-1.47-3.05-.52-.55-1.1-1.05-1.68-1.54-.47-.4-.95-.8-1.5-1.1-.69-.38-1.45-.58-2.22-.74-1.74-.37-3.51-.55-5.29-.61-1.29-.05-4.97-.25-4.97-.25-.68.16-1.36.32-2.04.48-.34.03-.67.06-.99.04-.78-.05-1.67-.45-2.4-.72-1.54-.57-3.02-1.28-4.5-1.98,1.79-.81,4.84-2.39,7.63-3.23,2.15-.65,4.02.03,5.15-.61,4.07-2.3-6.39-5.74-9.21-5.2-1.95.22-7.06.65-9,.34-2.18-.35-5.92-3.16-8.77-7.73-1.76-2.81-8.17-3.67-10.44-4.24-10.01-2.54-20.36-3.76-30.69-3.64l2.19-.88c-4.66-.02-8.8,3.83-9.9,8.36-1.09,4.53.49,9.42,3.38,13.07,2.9,3.65,6.97,6.2,11.22,8.11,4.79,2.16,9.91,3.62,15.12,4.3,5.36.7,11.33.8,15.28,4.49,4.12,3.86,18.45,10.92,16.68,16.28-.73,2.2-.89,3.59-.67,4.31-.49,2.06-.61,4.18-.2,6.27Z"/>
  <path class="cls-2" d="M371.04,92.64c-1.43-.96-1.65-2.12-.41-3.34.51-.5,1.39-.61,2.09-.7,6.01-.82,13.33-1.01,19.5-.61.08,2.62-.04,2.76-2.34,4.01-4.84,2.62-17.42,1.61-18.84.65Z"/>
  <path class="cls-1" d="M232.31,17.92c-23.2,2.83-46.65,5.65-69.87,3.01-11.68-1.33-23.26-3.75-35.01-3.98-41.93-.83-53.29,30.37-32.05,44.38,14.7,9.7,34.35,11.22,51.26,5.83,7.05-2.25,13.59-5.81,20.05-9.42,8.02-4.48,15.99-9.07,23.94-13.68,5.75-3.33,11.58-6.72,18.02-8.35,5.74-1.45,11.72-1.45,17.62-1.97,17.56-1.55,39.52-12.37,37.75-15.75-2.63-5.01-18.26-1.7-31.71-.07Z"/>
  <path class="cls-1" d="M272.54,124.16c-7.45,1.25-11.35,5.52-17.85,9.36-16.62,9.79-52.69,10.15-55.07,12.95-4.38,5.15,27.78,6.02,41.67,9.03,5.45,1.18,16.56.88,21.56-1.6,5.62-2.79-3.78-17.94.15-21.89,2.18-2.19,9.55-7.85,9.55-7.85Z"/>
  <path class="cls-1" d="M323.92,336.35c-4.24-20.11-11.16-39.65-20.51-57.94-2.59,3.68-.97,42.35-11.33,46.68-7.95,3.33-177.31-9.29-198.57-10.83-9.49-.69-43.68.2-83.8,1.39,1.54,17.39,4.28,34.74,9,52.02,2.18,8.7,4.92,17,8.08,25.05,92.95,2.02,185.39-3.87,274.83-28.27,8.4-2.29,20.13-7.62,22.74-16.92,1.02-3.63.34-7.49-.44-11.18Z"/>
  <g>
    <path class="cls-3" d="M581.31,554.3c-2.32-2.1-4.79-3.68-7.01-4.43-.34-.12,3.36,2.99,7.01,4.43Z"/>
    <path class="cls-3" d="M581.31,554.3c-3.65-1.43-7.35-4.54-7.01-4.43,2.22.75,4.69,2.33,7.01,4.43,1.86.73,3.71,1.03,5.01.24,3.85-2.33,7.85-7.61,4.61-12.89-1.91-3.12-4.25-3.58-3.25-7.47,1-3.89,3.44-4.9-1.56-10.71s-11.8-3.69-11.77-16.79c.02-10.87-15.76-28.08-23.8-41.84-8.04-13.77-46.57-65.73-49.08-81.75-.84-5.38,10.86-27.34,4.92-44.19-7.23-20.53-14.26-31.2-44.04-30.99-37.15.26-58.14,18.85-88.23,28.78-21.79,7.19-44.02,22.88-160.49,14.2-46.74-3.48-120.05-6.59-200.55-8.86,1.46,8.56,3.29,17.11,5.62,25.64,7.51,30.05,21.6,55.4,37.56,81.69,7.73,12.77,16.44,24.57,25.84,35.68,49.5-.64,93.41-1.93,126.37-4.22,120.98-8.38,128.24,4.51,195.88,8.46,50.16,2.93,73.9,52.45,107.81,60.67,33.9,8.22,24.14,19.49,35.39,25.56,19.11,10.31,14.27,15.33,25.15,16.58,13.63,1.56,12.37-7.96,15.99-14.71,4.12-7.7-1.05-17.35-7.37-23.08Z"/>
    <path class="cls-1" d="M573.26,524.55c.61,1.41,1.52,2.38,2.81,3.25,1.29.87,2.81,1.52,4.24,2.15,1.43.62,2.84,1.22,4.27,1.83.36.15.72.31,1.1.27.38-.04.69-.27.94-.54.77-.89,1.78-1.62,1.53-2.94-.2-1.08-.71-1.78-1.39-2.8-1.31-1.97-2.26-3.2-4.54-4.76-2.13-1.46-5.39-2.86-7.39-5.22-2.26-2.66-1.89-6.08-1.33-9.87.34-2.33-3.13-6.61-4.19-8.57-3.03-5.61-5.47-9.97-9.26-14.98-2.21-2.91-4.13-7.86-7.92-9.21-2.31-.82-4.72.17-6.56,1.63-1.83,1.46-2.99,3.46-3.59,5.86-1.6,6.44-.23,11.54,2.51,17.39,2.74,5.85,6.63,10.83,8.89,16.74,1.93,5.01,2.09,10.3,2.81,15.57.39,2.81.82,5.5.11,8.35-.75,3-2.34,4.34-4.81,6.45-1.32,1.13-5.34,4.37-3.88,6.6.84,1.29,2.48,1.42,3.83,1.82,1.57.46,3.36.8,4.95,1.15,5.4,1.19,10.82,2.17,14.88,5.97,2.9,2.71,3.99,6.43,6.42,9.23,2.55,2.93,5.63,4.82,8.87,6.7.47.27.9.46,1.36.31s.7-.39.88-.88c3.34-8.74-2.56-16.05-8.54-21.98-2.88-2.86-5.87-5.33-8.14-8.43-1.54-2.09-3.04-6.22-1.67-8.2,2.04-2.94,5.76,1.13,7.02,2.94,1.06,1.52,1.87,3.39,3.07,4.88,1.2,1.49,2.81,3.15,4.52,3.91,2.25,1,4.21.88,5.8-.92.77-.87.35-1.99.27-3.02-.05-.68-.31-1.5-.47-2.14s-.31-1.17-.6-1.75c-.36-.73-.84-1.35-1.39-1.97-1.26-1.41-2.51-2.7-4.06-3.9-1.12-.87-3.05-2.51-4.04-3.21-.98-.71-1.33-.58-2.1-1.07-.37-.24-.6-.37-.87-.6-.65-.56-1.15-1.34-1.6-1.98-.95-1.35-1.68-2.62-2.48-4.03"/>
    <path class="cls-2" d="M552.77,577.86c1.07-1.11-.02-2.81,1.84-3.04.77-.09,1.91.51,2.66.94,6.37,3.6,12.97,8.1,18.09,13.43-1.91,1.61-1.67,2.64-4.76,1.6-6.5-2.18-12.49-8.34-17.84-12.92Z"/>
    <path class="cls-1" d="M534.55,463c-3.99,1.64-8.29,1.57-12.41.18-4.11-1.39-7.31-4.14-10.69-6.84-11.23-9-23.33-17.42-34.88-25.93-5.01-3.69-10.42-8.02-14.14-12.36-9.65-11.26-13.84-25.3-15.01-39.5-.66-8.01-1.67-22.17,1.18-30.84,2.85-8.67,13.41-17.64,21.25-22.28,7.84-4.65,15.4-5.17,22.63-.1,4.31,3.03,9.25,15.85,10.28,19.79,5.21,19.98-12.52,28.61-2.28,48.37,5.69,10.98,15.51,28.54,24.43,37.32,5.82,5.74,12.27,14.82,13.36,23.07,0,0-.11,7.63-3.73,9.12Z"/>
    <path class="cls-1" d="M421.23,491.98c-4.24-.99-9.4-2.33-13.54-2.72-28.93-2.77-58.66-4.84-86.9-10.83-6.1-1.29-12.92-2.88-17.86-5.57-4.94-2.69-8.91-6.43-7.31-11.58.83-2.69,2.62-3.7,5.45-4.77,9.91-3.75,19.18-1.44,29.66,1.75,11.95,3.63,23.18,8.71,35.69,12.93,12.26,4.13,25.53,8.87,38.16,14.22,6.13,2.6,16.66,6.59,16.66,6.59Z"/>
  </g>
</svg>