<?xml version="1.0" encoding="UTF-8"?>
<svg id="Layer_1" data-name="Layer 1" xmlns="http://www.w3.org/2000/svg" viewBox="0 0 600 600">
  <defs>
    <style>
      .cls-1 {
        fill: #ffc0c4;
      }

      .cls-2 {
        fill: #f7f;
      }

      .cls-3 {
        fill: #ffd2d4;
      }
    </style>
  </defs>
  <g>
    <path class="cls-3" d="M593.12,206.29c-.92-4.39-5.62-6.74-9.77-8.45-12.22-5.05-36.01-.76-39.35-4.41-2.92-3.2,8.63-17.07,11.59-20.23,3.88-4.13,7.88-8.49,9.41-13.95,1.53-5.46-.34-12.32-5.56-14.53-5.83-2.47-12.21,1.71-16.98,5.88-6.91,6.04-13.85,12.77-22.76,14.98-8.91,2.2-20.29-2.5-21.39-11.61-.41-3.4.64-6.79,1.52-10.1,1.35-5.08,2.3-10.51.82-15.56-1.48-5.05-6.03-9.54-11.29-9.34-3.76.14-7.07,2.57-9.54,5.4-8.79,10.1-10.71,26.72-23,32.04-8.25,3.57-19.01-.68-22.59-8.93-2.51-5.79-1.67-12.4-2.38-18.67-.71-6.27-4.11-13.27-10.35-14.19-5.78-.86-10.97,4.13-13.13,9.56-2.16,5.43-2.31,11.45-3.94,17.07s-5.51,11.31-11.3,12.13c-7.06,1.01-12.68-5.33-17.97-10.11-16.07-14.5-41.42-17.57-60.49-7.33-4.1,2.2-8.19,5.36-9.25,9.89-.71,3.06.1,6.27,1.26,9.19,4,10.11,11.96,18.03,18.21,26.93,11.45,16.33,17.15,36.13,19.34,55.95,1.72,15.59,1.36,31.29.6,46.93-.65,13.4,3.84,25.98,2.71,39.58-.77,9.33-3.71,18.34-6.85,27.16-20.11,56.35-50.18,110.03-61.08,168.51.84-.26,1.66-.52,2.43-.67,14.61-.43,29.23,1.29,44.27-.86,24.07-3.01,46.85-10.32,69.2-19.34,29.23-12.03,88.11-46.42,91.12-48.57,16.73-11.65,32.83-22.06,47.74-34.54-1.3-7.86-2.6-15.72-3.9-23.58-2.79-16.91-5.6-33.88-6.2-51.02-1.23-34.84,6.61-69.21,15.92-102.56,2.71-9.72,5.85-18.97,12.23-19.82,10.94-1.45,29.82,6.22,38.63-5.41,1.6-2.11,2.59-4.82,2.04-7.41Z"/>
    <path class="cls-2" d="M355.61,160.38c-3.68,5.75-10.23,13.94-19.47,20.95-.39.29-.45.9-.88,1.14-.58.32-15.72-12.61-20.13-20.94-1.64-3.1-3.33-6.4-3.16-9.91.31-6.38,7.01-11.01,13.39-11.06,6.38-.05,12.29,3.32,17.4,7.15,4.38,3.28,8.45,6.98,12.14,11.02"/>
    <path class="cls-2" d="M428.55,138.92c-.21-2.53.08-5.07.11-7.61s-.22-5.16-1.42-7.4c-1.2-2.24-3.53-4.01-6.07-3.93-3.44.11-5.89,3.33-7.54,6.36-1.64,3.01-3.06,6.25-3.3,9.67-.03.48-.04.98.13,1.43.61,1.57,2.8,1.57,4.47,1.36,4.62-.58,9.31-.59,13.94-.04"/>
    <path class="cls-2" d="M495.23,142.72c.89-2.42,1.78-4.87,2.14-7.42s.18-5.26-1.01-7.55c-.41-.79-.96-1.55-1.74-1.98-.78-.44-1.71-.51-2.6-.56-1.21-.07-2.44-.13-3.63.1-2.05.4-3.85,1.66-5.28,3.19-1.42,1.53-2.51,3.34-3.58,5.13-.19.32-.39.67-.35,1.04.05.52.53.87.96,1.16,1.84,1.21,3.7,2.39,5.58,3.55,2.81,1.73,5.82,3.44,9.12,3.55"/>
    <path class="cls-2" d="M555.63,166.88c2.27-3.42,4.6-7,5.16-11.07.19-1.38.15-2.87-.55-4.07-1.06-1.81-3.34-2.54-5.43-2.57-4.2-.06-8.35,2.23-10.54,5.81-.13.21-.26.45-.26.7,0,.25.13.48.26.7,2.77,4.73,7.04,8.56,12.04,10.8"/>
    <path class="cls-2" d="M582.79,200.39c1.18.46,2.31,1.04,3.39,1.69,1.72,1.03,3.43,2.34,4.09,4.23,1.03,2.94-.96,6.24-3.67,7.76-2.71,1.52-5.95,1.71-9.05,1.85-.54.03-1.08.05-1.62.08-.5.02-1.07.02-1.41-.34-.38-.4-.31-1.04-.2-1.59.85-4.16,2.27-8.21,4.21-11.98.18-.35.39-.72.74-.88.33-.15.72-.09,1.08-.07.86.03,1.73-.28,2.38-.85"/>
    <path class="cls-1" d="M393.37,152.16c-4.95,1.01-10.05-1.03-14.21-3.89-4.16-2.86-7.7-6.54-11.82-9.45-8.6-6.06-19.7-8.45-30.03-6.46,4.04.45,8.16.91,11.88,2.56,8.24,3.64,13.19,12.37,21.1,16.68,7.13,3.89,15.79,3.71,23.79,2.27"/>
    <path class="cls-1" d="M372.13,422.57c3.29-22.69,10.58-46,4.17-68.01-3.9-13.4-12.55-24.85-18.33-37.56-10.56-23.23-11.61-33.99-10.8-14.19.42,10.31.83,20.77-1.56,30.8-1.97,8.24-5.78,15.91-9.39,23.58-19.6,41.59-34.35,85.25-49.06,128.81-2.05,6.06-7.51,25.4-7.51,28.95,0,10.44,39.54,4.6,46.7,3.58,6.98-.87,13.84-2.11,20.62-3.64,9.44-14.17,16.14-30.17,19.52-46.86,3.04-14.97,3.44-30.35,5.64-45.47Z"/>
  </g>
  <g>
    <path class="cls-3" d="M239.96,322.39c-.15-13.65,5.23-25.87,5.54-39.28.36-15.65,1.13-31.34,3.96-46.76,3.6-19.61,10.7-38.96,23.29-54.42,6.86-8.43,15.37-15.76,20.09-25.56,1.36-2.83,2.4-5.97,1.91-9.08-.72-4.6-4.58-8.04-8.51-10.53-18.28-11.58-43.79-10.33-60.86,2.98-5.62,4.38-11.68,10.31-18.64,8.8-5.71-1.24-9.18-7.19-10.4-12.91s-.94-11.73-2.7-17.31c-1.77-5.57-6.58-10.92-12.41-10.48-6.29.48-10.18,7.22-11.34,13.42-1.15,6.2-.79,12.86-3.71,18.45-4.16,7.97-15.19,11.44-23.17,7.29-11.87-6.19-12.6-22.9-20.65-33.6-2.26-3.01-5.39-5.66-9.13-6.07-5.23-.58-10.09,3.57-11.93,8.5-1.83,4.93-1.28,10.41-.29,15.58.64,3.37,1.45,6.82.79,10.18-1.75,9.01-13.44,12.89-22.17,10.05-8.73-2.83-15.17-10.05-21.63-16.57-4.46-4.5-10.52-9.13-16.51-7.08-5.36,1.84-7.72,8.54-6.58,14.1,1.13,5.55,4.82,10.19,8.39,14.59,2.73,3.36,9.4,5.93,8.19,10.09-3.71,12.69-21.59,7.9-34.14,12.07-4.26,1.42-9.11,3.41-10.35,7.73-.73,2.54.07,5.32,1.51,7.54,7.96,12.23,18.09,5.61,29.13,5.29,12.89-.37,14.29,14.06,16.3,23.95,6.9,33.93,12.26,68.77,8.54,103.43-1.83,17.05-5.84,33.77-9.84,50.44-4.78,19.93-9.56,39.85-14.34,59.78,76.74,47.7,156.14,81.31,244.49,84.17,2.15.43,9.38-1.34,10.63-1.35-7.14-58.15-32.76-113.06-48.56-169.86-2.51-9.02-4.79-18.22-4.89-27.58Z"/>
    <path class="cls-2" d="M278.84,139.23c-5.61-1.26-14.02-1.37-20.82.58-4.82,1.38-9.73,3.1-13.4,6.51-3.67,3.41-5.81,8.94-3.92,13.58.91,2.23,2.63,4.03,4.4,5.67,2.84,2.62,5.93,4.96,9.07,7.22,3,2.15,6.3,4.32,10,4.32,4.23,0,7.92-2.81,10.94-5.77,2.83-2.78,5.41-5.8,7.71-9.04,2.03-2.86,3.86-5.96,4.51-9.41.64-3.45-.09-7.31-2.61-9.76-3.14-3.06-5.88-3.91-5.88-3.91Z"/>
    <path class="cls-2" d="M189.83,131.24c.68-4.52.32-9.2-1.05-13.56-.31-.98-.78-2.06-1.76-2.37-.44-.14-.91-.1-1.37-.11-1.26-.03-2.61-.48-3.73.1-.63.32-1.06.92-1.48,1.49-2.18,3.04-4.44,6.27-4.81,9.99-.06.62-.05,1.31.36,1.78.42.48,1.11.59,1.75.67,3.8.46,7.59.93,11.39,1.39"/>
    <path class="cls-2" d="M125.17,127.07c-1.51-3.09-3.05-6.22-5.36-8.77-1.45-1.59-3.24-2.95-5.32-3.49-2.08-.54-4.48-.15-6.03,1.35-1.32,1.28-1.86,3.14-2.28,4.92-.64,2.69-1.12,5.41-1.45,8.16-.05.44-.1.92.13,1.31.4.7,1.4.71,2.2.61,5.91-.71,11.72-2.18,17.26-4.38"/>
    <path class="cls-2" d="M55.92,142.23c-.99-1.6-2.11-3.13-3.32-4.57-1.74-2.06-3.79-3.99-6.36-4.79-2.11-.66-4.48-.46-6.46.53-.46.23-.91.51-1.18.95-.25.4-.31.87-.38,1.33-.37,2.72-.73,5.54.04,8.18,1.1,3.78,4.31,6.5,7.36,8.99,2.79-4.66,6.48-8.78,10.81-12.05"/>
    <path class="cls-2" d="M20.41,183.31c.98,4.98,2.23,9.91,3.73,14.75.05.16.1.33.04.48-.09.27-.44.35-.72.37-3.32.25-6.5-1.25-9.49-2.72-.87-.43-1.78-.88-2.35-1.67-.39-.54-.59-1.19-.76-1.84-.31-1.16-.56-2.34-.74-3.54-.16-1.02-.24-2.17.38-3,.56-.75,1.53-1.04,2.43-1.28,2.26-.61,4.51-1.22,6.77-1.83"/>
    <path class="cls-1" d="M271.58,130.76c-7.29-1.15-14.8.42-21.64,3.2s-13.14,6.72-19.47,10.52c-3.02,1.81-6.08,3.61-9.43,4.69-3.35,1.07-7.05,1.38-10.36.19.47-1.55,2.35-2.05,3.9-2.5,4.9-1.42,9.04-4.63,13.4-7.29,10.5-6.41,22.85-9.75,35.15-9.52"/>
    <path class="cls-1" d="M187.97,389.53c7.44,6.98,16.62,11.76,25.08,17.46,8.84,5.96,16.96,12.98,24.12,20.86,2.67,2.94,5.25,6.03,8.55,8.24,3.3,2.21,7.52,3.44,11.29,2.2,5.6-1.84,8.29-8.32,8.69-14.21.67-9.8-2.99-19.35-7.02-28.3-5.29-11.75-11.35-23.19-15.49-35.39-4.14-12.2-6.29-25.43-3.48-38l.35-5c-.56,2.19-1.32,4.32-2.36,6.36-2.42,4.71-6.21,8.59-10.31,11.96-11.17,9.18-25.07,14.99-39.45,16.49-2.47.26-5.06.43-7.18,1.73-2.87,1.77-4.21,5.26-4.63,8.6-1.25,10.12,4.39,20.01,11.83,26.99Z"/>
    <path class="cls-1" d="M241.41,298.08l-1.35,19.32c1.57-6.18,1.49-12.86,1.35-19.32Z"/>
  </g>
</svg>