<?xml version="1.0" encoding="UTF-8"?>
<svg id="Layer_1" data-name="Layer 1" xmlns="http://www.w3.org/2000/svg" viewBox="0 0 93.13 299.75">
  <defs>
    <style>
      .cls-1, .cls-2 {
        fill: #f7f;
      }

      .cls-2 {
        stroke: #5e0015;
        stroke-miterlimit: 10;
        stroke-width: 2px;
      }

      .cls-3 {
        fill: #ff53fa;
      }
    </style>
  </defs>
  <path class="cls-2" d="M33.8,277.83l6.99-11.93-.9-23.14L1.64,231.38l6.97-9.76s4.1,5.95,9.45,5.36c5.35-.59,15.62-3.34,18.26-14.14,2.64-10.8-11.88-15.21-11.88-15.21,0,0,3.03-5.23,3.55-8.61.52-3.39,4.3-138.88,5.71-144.51,1.41-5.64,12.53-43.51,13.78-43.51s11.9,42.42,11.9,42.42l3.39,143.12s.9,7.31,6.29,11.21c0,0-7.84,1.96-11.5,7.28-3.66,5.32-1.25,11.05.54,14.57,1.78,3.52,9.13,8.7,16.59,7.02,7.46-1.69,7.99-5.08,7.99-5.08l8.71,10.17s-38.34,9.29-37.25,11.84c.41.97-2.3,22.61-2.3,22.61l7.08,11.43s-11.24,18.63-12.41,18.63-11.06-15.6-12.72-18.38Z"/>
  <g>
    <path class="cls-3" d="M47.32,16.35c1.5-.42,7.24,30.14,7.24,30.14-.54,9.91-.81,50.66.32,67.61,1.83,27.37,2.35,84.19,1.83,85.18-.77,1.49-18.3,3.06-22.01-1.81-2.6-3.41,1.26-28.28.76-37.38-.32-5.91.3-38.48,1.44-48.84,1.74-15.92,1.35-57.75,2.52-62.94,4.03-17.94,7.2-31.76,7.9-31.96Z"/>
    <path class="cls-3" d="M47.7,16.93c.17.32.54.8.66,1.14.12.35.36.66.47,1.01.11.36-.05.82.05,1.16.11.36.17.7.26,1.05.09.36.18.72.27,1.07.08.37.22.74.31,1.09.1.36.37.65.47,1,.09.37.17.73.26,1.08.1.36.22.71.3,1.07.09.37.03.78.13,1.13.1.36.32.66.42,1.01.1.36.07.76.16,1.12.09.36.08.77.17,1.13.09.36.29.67.38,1.03.09.36.26.69.34,1.04.08.36-.03.78.05,1.14.08.36.23.7.31,1.06.08.36.1.73.18,1.09.08.36.45.65.52,1.02.06.36.11.73.17,1.1.07.36.17.71.24,1.07.08.36.15.71.23,1.07.09.35.19.71.28,1.07.08.36-.11.8-.03,1.16.07.36.09.7.16,1.07.06.36.35.7.42,1.07.06.36.24.69.31,1.06.02.1.02.21.01.32v.15c-.08.26-.22.52-.23.79,0,.36.07.73.06,1.1-.01.36-.12.73-.13,1.1-.02.36-.04.71-.06,1.09-.02.36-.08.73-.09,1.1-.01.36.31.75.31,1.12,0,.36-.05.7-.03,1.07.02.36-.02.75,0,1.12.02.36.09.74.08,1.12,0,.36-.22.69-.26,1.06-.04.35-.09.73-.14,1.09-.04.36.2.79.2,1.16,0,.36-.31.8-.29,1.17.02.36.34.62.36.99.02.36.06.78.05,1.15,0,.36-.03.76-.05,1.13-.03.36-.06.73-.09,1.1-.02.36-.18.72-.18,1.09,0,.36.2.76.19,1.13-.01.36-.25.7-.26,1.07-.01.37.21.74.21,1.12,0,.36-.23.73-.23,1.1,0,.37.18.75.18,1.12,0,.36-.02.73-.03,1.1,0,.37-.07.72-.05,1.09.03.36-.09.78-.07,1.15.03.37.07.69.07,1.06,0,.36.05.73.05,1.1,0,.36-.14.73-.14,1.1,0,.37.19.73.19,1.1,0,.36.17.73.17,1.09,0,.36-.32.74-.31,1.1,0,.37.08.73.08,1.1.02.36.03.73.05,1.1,0,.36.13.73.14,1.09,0,.37,0,.74,0,1.11,0,.37,0,.75-.02,1.12-.01.36-.18.7-.19,1.07-.01.37.04.75.05,1.12l.03,1.1c0,.37.19.72.2,1.09,0,.37-.22.74-.21,1.11,0,.37-.09.76-.07,1.13.03.36.06.73.09,1.09.02.37.34.7.35,1.07,0,.37-.11.75-.13,1.12-.01.36.05.75.04,1.12-.01.37-.17.7-.17,1.07,0,.37.12.71.15,1.08.03.36-.12.79-.09,1.15.03.36.35.68.36,1.05.01.36-.1.73-.08,1.1.02.37.1.72.12,1.09.02.36-.1.74-.09,1.11.01.36-.08.73-.06,1.1.02.36.22.72.24,1.09l.04,1.1c.02.37-.24.68-.25,1.05-.01.36.12.78.11,1.14,0,.37-.04.75-.02,1.12.02.37.14.72.19,1.09.05.36.2.67.25,1.04.05.37-.17.79-.15,1.16.02.37.19.72.21,1.09.01.37-.04.73-.03,1.1.01.37-.07.75-.05,1.12.02.37.2.73.2,1.1,0,.36,0,.73-.01,1.1,0,.37.19.73.21,1.09.02.37,0,.68.06,1.05.05.36-.14.83-.09,1.2.05.37.1.69.12,1.06.02.37.31.75.31,1.11,0,.37-.09.72-.08,1.09,0,.37.05.72.06,1.09.01.37.01.77,0,1.14,0,.37-.29.66-.3,1.03,0,.37.25.77.26,1.13.01.37-.23.74-.22,1.11.01.37.28.72.3,1.09.01.37-.25.75-.23,1.11.01.37.2.73.22,1.09.02.37.13.72.15,1.09.02.37.08.74.09,1.11.01.37.01.72.03,1.09l.08,1.1c.02.37-.04.75-.03,1.12l.03,1.1c.02.37.04.74.06,1.1,0,.37-.25.74-.24,1.1.01.37.34.76.33,1.13,0,.37-.29.68-.3,1.04,0,.37,0,.76,0,1.13,0,.37.34.68.37,1.04.03.36-.12.79-.09,1.15.03.37,0,.73.01,1.1,0,.37.25.73.25,1.1,0,.37-.29.73-.29,1.1,0,.37.27.73.28,1.1,0,.37-.14.74-.13,1.11.01.37-.05.74-.04,1.11.01.37-.04.73-.03,1.09,0,.37.34.79.32,1.16-.03.36-.06.73-.09,1.09-.02.37-.35.69-.34,1.06,0,.37.23.72.25,1.09.02.37.13.72.14,1.09.01.37-.06.75-.05,1.12,0,.37.13.75.13,1.11,0,.37-.32.71-.32,1.08,0,.37-.04.75-.04,1.11,0,.37.18.73.19,1.1,0,.37.08.73.09,1.1,0,.37.15.73.16,1.1,0,.37-.09.71-.06,1.08.03.36-.03.77,0,1.13.03.37.05.72.05,1.08,0,.37.21.78.19,1.15-.02.37-.31.65-.33,1.01-.02.37-.03.77-.02,1.14,0,.37.04.76.06,1.13.02.37.2.69.23,1.05.02.37-.02.75-.02,1.12v1.1c-.02.37-.21.71-.22,1.07,0,.37.23.76.23,1.13,0,.37-.04.73-.04,1.1,0,.37.11.73.11,1.1,0,.37-.3.74-.3,1.11,0,.37.11.73.11,1.1-.02.36-.03.74-.05,1.1,0,.37.06.74.06,1.11,0,.37-.12.76-.11,1.13,0,.37.2.71.2,1.08,0,.37-.12.74-.12,1.1,0,.37.23.76.21,1.13-.02.37-.28.69-.3,1.06-.02.37.21.76.19,1.14,0,.19-.04.37-.08.57-.06.22-.04.31-.16.75-.01.17-.23.39-.38.51-.12.07-.26.14-.38.18-.23.07-.44.11-.63.17-.38.13-.75.23-1.12.32-.37.08-.71.41-1.08.46-.38.06-.75.04-1.13.08-.37.04-.74.12-1.11.15-.37.04-.79-.2-1.16-.16-.37.03-.74.09-1.11.11-.37.03-.72.15-1.09.15-.37.01-.76.16-1.13.16-.37,0-.73-.12-1.11-.13-.37-.02-.75.04-1.12.02-.38-.02-.72-.31-1.09-.34-.37-.04-.79.27-1.17.22-.37-.04-.74-.09-1.11-.15-.38-.05-.71-.35-1.08-.41-.37-.08-.74-.15-1.11-.25-.36-.09-.8.05-1.17-.07-.37-.11-.69-.4-1.06-.52-.36-.15-.75-.22-1.1-.42-.37-.18-.62-.57-.94-.82-.32-.26-.67-.51-.94-.87-.29-.43-.36-.87-.47-1.26-.11-.39-.47-.71-.53-1.11-.05-.39.14-.78.13-1.16,0-.38-.06-.77-.05-1.14,0-.37-.11-.75-.11-1.13,0-.37.16-.75.16-1.12,0-.37.08-.74.09-1.11l.03-1.1c.01-.37-.09-.75-.08-1.12,0-.37.12-.75.13-1.12.01-.37-.1-.72-.08-1.09.02-.37-.11-.77-.08-1.14.05-.36.1-.73.14-1.09.04-.37.25-.7.28-1.07.03-.37-.16-.71-.16-1.08,0-.37.12-.77.12-1.14,0-.37-.16-.74-.13-1.11.03-.37.38-.67.42-1.03.05-.36-.04-.78,0-1.14.05-.36.12-.73.14-1.1.03-.37,0-.74.02-1.1.02-.37.14-.74.16-1.11.02-.37-.05-.72-.02-1.09.03-.37.1-.73.12-1.1.02-.37.17-.73.19-1.1.02-.37-.32-.74-.29-1.11.02-.37.29-.7.34-1.07.04-.36.2-.69.24-1.05.04-.36-.04-.78-.02-1.15.02-.37-.21-.69-.22-1.05,0-.36.03-.74.01-1.1-.01-.36-.07-.77-.06-1.13,0-.36.09-.73.09-1.09,0-.36-.1-.72-.1-1.07,0-.37.02-.73,0-1.1-.02-.38.1-.75.09-1.11-.01-.37-.11-.73-.12-1.1-.01-.37.02-.75.02-1.11,0-.37.04-.75.06-1.11.02-.37.18-.7.2-1.06.02-.37-.04-.76-.04-1.13,0-.37-.14-.71-.16-1.08-.02-.37.2-.79.18-1.15-.02-.37-.14-.7-.14-1.07,0-.37.07-.72.11-1.08.04-.36.13-.71.17-1.07.04-.37-.14-.78-.13-1.15,0-.37-.02-.69-.05-1.06-.02-.37.03-.76,0-1.13-.03-.37-.18-.75-.18-1.12.02-.37.04-.76.05-1.13.02-.36.05-.73.07-1.1.02-.37.31-.71.31-1.07,0-.37-.26-.8-.23-1.17.03-.37.14-.71.17-1.07.04-.37.03-.7.04-1.07,0-.37,0-.72,0-1.09,0-.37.18-.75.18-1.11,0-.37-.19-.74-.18-1.11.01-.37.18-.73.18-1.09,0-.37-.12-.72-.12-1.09,0-.37-.04-.76-.02-1.12.01-.37.09-.74.11-1.11.02-.37.28-.7.3-1.07.02-.37,0-.75,0-1.11.01-.37-.04-.74-.01-1.1.03-.37-.09-.76-.07-1.12.03-.37.12-.71.14-1.07.01-.37.28-.8.27-1.17-.02-.36-.05-.73-.07-1.09-.01-.37-.03-.67,0-1.04.02-.37,0-.72.04-1.08.06-.35.12-.72.18-1.07.05-.37.08-.77.1-1.13.02-.37-.16-.73-.15-1.1.02-.37.03-.74.05-1.1,0-.37-.04-.76,0-1.13.03-.35.14-.7.17-1.07.02-.35.05-.71.08-1.08.03-.35.06-.71.1-1.07.03-.35.12-.7.17-1.06.05-.35.11-.7.14-1.06.04-.35-.01-.71.01-1.08.02-.35.07-.73.11-1.09.04-.35.13-.69.17-1.05.04-.35.09-.7.11-1.06.02-.36-.08-.68-.09-1.04-.01-.35.15-.77.14-1.14-.01-.36-.22-.7-.2-1.06.02-.35.17-.7.19-1.06.02-.36-.04-.72-.02-1.08.02-.36.25-.71.26-1.07.02-.36-.15-.74-.11-1.1.04-.35.2-.67.23-1.02.04-.36.18-.73.2-1.1.01-.36-.04-.71-.03-1.07.02-.36.03-.72.05-1.08,0-.36.02-.72.03-1.08.01-.36-.11-.72-.13-1.08-.02-.36.13-.77.11-1.13-.02-.36-.36-.67-.35-1.03.01-.36.21-.71.24-1.07.03-.36-.1-.75-.08-1.11.02-.36.04-.69.05-1.05,0-.36.25-.71.26-1.07v-1.08c0-.36.11-.72.11-1.08,0-.36-.01-.74-.01-1.1,0-.36-.16-.7-.16-1.06,0-.36-.1-.73-.09-1.09,0-.36.26-.7.28-1.06.02-.36-.03-.73-.01-1.09.02-.36.15-.72.16-1.08,0-.36-.1-.72-.08-1.08.02-.36.15-.7.17-1.05.02-.36-.11-.75-.1-1.11,0-.36.05-.74.03-1.1-.02-.36-.26-.64-.28-1-.02-.36-.05-.79-.04-1.15,0-.36.38-.68.4-1.04.02-.36-.3-.8-.28-1.15.02-.36.25-.68.26-1.04,0-.36-.21-.7-.21-1.06,0-.36.21-.75.21-1.11,0-.36-.11-.72-.1-1.08.01-.36-.06-.72-.06-1.08,0-.36,0-.72,0-1.08,0-.36.15-.73.16-1.09,0-.36.02-.73.03-1.08.02-.36.04-.72.06-1.08.02-.36-.13-.73-.11-1.09.02-.37.17-.74.21-1.1.04-.36.24-.67.28-1.02.04-.36-.18-.77-.14-1.12.03-.37.14-.74.18-1.09.04-.37.27-.68.34-1.04.07-.37.05-.77.12-1.13.08-.36.27-.73.34-1.07.07-.36-.05-.72.01-1.06.06-.37.07-.74.15-1.07.08-.36.33-.64.43-.97.1-.35.2-.69.3-1.03.11-.35.05-.77.13-1.1.08-.36.09-.7.15-1.04.07-.36.33-.71.39-1.06.06-.36-.1-.76-.02-1.1.09-.36.36-.66.45-.99.09-.36.02-.77.11-1.1.09-.36.35-.64.43-.98.09-.36.17-.72.25-1.05.07-.36.13-.72.19-1.06.08-.36-.03-.77.05-1.11.09-.36.43-.6.54-.94.11-.34.17-.71.28-1.05.11-.34.12-.71.21-1.06.09-.34.35-.65.43-1,.08-.34.06-.71.15-1.06.08-.34,0-.75.09-1.1.09-.33.24-.65.33-1.01.09-.33.28-.64.37-1,.09-.33.1-.71.2-1.07.09-.33.16-.7.27-1.05.11-.32.23-.66.35-1.01.11-.33.22-.66.33-1.01.1-.33.4-.58.52-.92.11-.33,0-.79.13-1.14.12-.33.49-.54.62-.88.06-.21.13-.73.18-.66,0-.02-.19.4-.25.59-.12.34-.22.67-.31,1.01-.09.35-.42.69-.5,1.02-.08.36.11.73.03,1.07-.09.36-.52.64-.61.98-.09.36.16.78.07,1.11-.09.36-.42.66-.49,1-.08.36-.03.73-.09,1.06-.08.37-.15.71-.23,1.05-.07.36-.18.71-.25,1.04-.08.37-.2.74-.25,1.09-.06.36.02.69-.03,1.03-.05.36-.23.7-.3,1.04-.08.36-.04.72-.14,1.07-.1.34-.33.62-.43.97-.1.34-.05.75-.13,1.11-.07.34-.04.69-.11,1.05-.07.34-.22.68-.3,1.05-.07.34-.07.7-.15,1.07-.07.34-.31.66-.38,1.03-.07.34.05.7-.03,1.07-.06.34-.14.7-.21,1.06-.07.34-.34.65-.41,1.02-.07.34-.03.7-.1,1.07-.08.34-.16.69-.25,1.05-.07.34-.36.62-.45.98-.09.34-.06.73-.15,1.09-.08.34-.21.69-.29,1.05-.08.35-.2.67-.3,1.03-.09.35.04.79-.05,1.15-.09.35-.42.64-.49,1-.05.35.23.75.18,1.09-.06.33-.34.68-.37,1.04-.04.36-.08.72-.12,1.08-.03.36.21.73.19,1.1-.02.36-.05.72-.07,1.09-.02.36-.17.72-.18,1.09-.01.36.13.69.15,1.06.02.36-.08.77-.06,1.13.02.36,0,.72-.01,1.09,0,.36-.02.73-.07,1.09-.04.36-.09.73-.13,1.09-.04.36-.25.73-.26,1.1-.01.36-.01.81.01,1.18.02.36.19.67.22,1.03s-.09.71-.1,1.08c0,.36.12.73.1,1.1-.02.36.05.75.03,1.11-.02.36-.18.71-.19,1.08,0,.36.05.73.02,1.1-.02.36-.16.7-.19,1.07-.02.36.08.75.07,1.12,0,.37.17.69.18,1.06.01.36-.17.78-.16,1.14.01.36-.08.72-.08,1.09,0,.36-.02.72-.02,1.09-.03.36-.06.73-.08,1.09-.01.36.32.75.31,1.11,0,.37-.16.73-.15,1.09l.04,1.1c.01.37-.1.73-.11,1.1,0,.37.2.74.19,1.1,0,.37-.09.73-.1,1.09,0,.37-.09.73-.1,1.1,0,.37.13.74.12,1.11-.01.37-.31.71-.32,1.08-.01.37.28.75.27,1.11,0,.37.03.72.02,1.08,0,.37-.21.75-.22,1.11,0,.37-.06.73-.08,1.1-.01.37.1.77.06,1.14-.04.36-.03.75-.07,1.12-.04.37-.33.67-.34,1.03-.01.37-.05.75-.05,1.11,0,.37.26.71.25,1.08,0,.37-.28.74-.3,1.1,0,.37-.02.73-.02,1.09-.03.36-.06.73-.1,1.09-.02.37.09.75.07,1.12-.02.37.14.76.11,1.13-.03.37-.16.72-.19,1.08-.03.37.02.73,0,1.1-.02.37-.25.73-.26,1.09-.02.37.11.73.09,1.1-.03.37-.06.74-.09,1.1-.02.37.02.7.02,1.07,0,.37-.11.77-.11,1.14,0,.37.18.76.15,1.12-.03.37-.39.67-.43,1.03l-.1,1.09c-.05.36-.1.74-.13,1.1-.03.37.14.76.1,1.12-.04.36-.07.73-.11,1.09-.03.36-.33.69-.35,1.06-.02.37-.09.71-.12,1.07-.03.37.08.75.06,1.12-.03.37.09.74.07,1.11-.02.37-.1.73-.1,1.09,0,.37-.11.75-.11,1.11,0,.37.07.72.05,1.08-.02.37-.04.74-.06,1.1-.02.37-.14.73-.15,1.09-.01.37.26.74.25,1.1,0,.37-.02.74-.03,1.11-.02.37-.21.72-.22,1.08-.02.37.04.74.03,1.1-.01.37-.12.73-.13,1.09,0,.37.01.74.02,1.1,0,.37-.16.73-.17,1.09,0,.37-.09.71-.11,1.08-.02.37.32.79.3,1.14-.02.37-.3.71-.31,1.06-.01.37.05.74.05,1.11,0,.37.17.71.17,1.08,0,.37-.15.75-.16,1.11,0,.37.07.73.06,1.1,0,.37.05.73.05,1.1,0,.37-.28.73-.29,1.1,0,.37.33.72.33,1.09,0,.37-.29.75-.29,1.12,0,.37.13.73.13,1.09,0,.37-.08.73-.09,1.1,0,.37.05.74.04,1.1,0,.37-.1.73-.11,1.1,0,.37.13.74.11,1.11-.01.37-.19.71-.2,1.07-.01.37.04.75.04,1.11,0,.36.09.73.09,1.09,0,.37-.19.73-.18,1.1.02.36.03.73.05,1.1,0,.37.28.68.31,1.04.03.36-.27.83-.23,1.19.04.36.08.67.09,1.04.01.38.08.73.05,1.1-.02.37.11.81.08,1.18-.03.37-.26.7-.27,1.07,0,.37-.05.79-.04,1.16.01.37.18.69.19,1.06,0,.37-.15.74-.18,1.1-.02.37-.04.7-.09,1.07-.04.36.02.77-.03,1.13-.04.37-.05.74-.07,1.11-.03.37-.07.74-.08,1.11,0,.37-.07.74-.08,1.11-.01.37-.05.71-.08,1.08-.03.36.09.74.07,1.11-.03.37-.24.72-.27,1.08-.03.37.02.74,0,1.11-.03.37-.19.68-.24,1.04l-.13,1.09c-.05.36-.04.77-.07,1.14-.03.37.18.72.17,1.09,0,.36.08.71.08,1.08,0,.37-.24.77-.26,1.14-.03.36.02.74,0,1.1-.03.36-.15.72-.18,1.08-.02.36-.16.73-.18,1.09-.01.36-.03.75-.04,1.12,0,.37.23.71.23,1.08l-.02,1.1c-.01.36-.21.67-.25,1.03-.04.36.16.82.13,1.18-.03.36-.32.69-.3,1.05,0,.36.33.69.36,1.04.04.35.08.7.14,1.04.06.34-.14.74-.05,1.07.09.33.44.52.57.68.21.21.48.33.73.49.25.17.52.4.81.55.28.17.6.33.89.49.31.14.46.49.79.62.33.14.78.06,1.13.15.34.08.66.3,1.01.37.35.06.72.04,1.08.09.35.06.73-.06,1.09-.02.35.04.69.4,1.05.43.36.03.73-.15,1.09-.12.36.01.72.21,1.08.22.36,0,.78-.03,1.14-.06.36-.03.64-.28,1-.32.36-.03.75.15,1.12.14.36-.02.71-.21,1.07-.22.36-.02.72.06,1.08.03.36-.03.69-.32,1.05-.37.35-.05.74-.1,1.09-.15.35-.04.7.18,1.05.12.35-.06.66-.31.95-.41.16-.05.3-.05.45-.06.05,0,.11,0,.16,0-.02.02.01.08,0,.03,0,.03,0-.26-.02-.41-.01-.17-.03-.36-.02-.54l.04-1.09c0-.36.17-.75.17-1.11l-.02-1.1c0-.37-.22-.72-.21-1.08,0-.37.12-.74.12-1.1,0-.37-.22-.72-.22-1.09,0-.37.12-.74.12-1.11,0-.37-.15-.73-.15-1.1l.02-1.1c0-.37.18-.73.18-1.1v-1.1c.01-.37-.14-.74-.13-1.11,0-.37-.08-.73-.09-1.1,0-.37.06-.74.07-1.11l-.02-1.1c0-.37.15-.72.15-1.09,0-.37.1-.74.1-1.11l-.02-1.1-.02-1.1c0-.37-.22-.74-.23-1.1l-.03-1.1c0-.37.22-.73.21-1.1,0-.37-.18-.73-.2-1.09-.01-.37.08-.75.07-1.11-.01-.37-.15-.73-.16-1.1,0-.37-.11-.72-.12-1.09-.01-.37.1-.74.09-1.11-.01-.37.21-.74.2-1.11,0-.37-.29-.72-.31-1.08-.02-.37.05-.75.03-1.11-.02-.37.11-.74.11-1.11,0-.37-.3-.77-.29-1.13.01-.36.03-.73.04-1.1,0-.37.11-.7.1-1.07,0-.37.12-.73.11-1.1v-1.1c0-.37-.2-.73-.21-1.1,0-.37.02-.72,0-1.09-.02-.37.16-.78.13-1.15-.02-.37-.14-.71-.15-1.07,0-.37,0-.73,0-1.1l-.04-1.11c0-.37-.09-.73-.1-1.1,0-.37.04-.74.04-1.11,0-.37-.14-.74-.15-1.1,0-.37.05-.73.04-1.1,0-.37.03-.74.02-1.11,0-.37.15-.73.14-1.09,0-.37.08-.74.07-1.11-.01-.37-.23-.73-.24-1.09-.01-.37-.12-.73-.13-1.1-.01-.37.23-.75.22-1.11-.01-.37-.08-.72-.08-1.09,0-.37-.06-.74-.06-1.11,0-.37.08-.74.07-1.1-.01-.37-.15-.73-.19-1.1-.04-.36.1-.81.06-1.17-.04-.37-.34-.66-.36-1.03-.01-.37.17-.71.18-1.08.02-.37-.09-.78-.07-1.14.01-.37.1-.72.09-1.09-.01-.37-.15-.73-.17-1.1l-.07-1.1c-.02-.37-.11-.73-.12-1.1-.02-.37.31-.74.3-1.1-.01-.37-.11-.74-.12-1.1-.01-.37-.07-.74-.09-1.1-.02-.37.08-.76.05-1.13-.03-.37-.12-.72-.15-1.08-.03-.37-.06-.72-.08-1.09-.02-.37-.25-.69-.29-1.06l-.1-1.09c-.04-.37.25-.78.23-1.14-.02-.37-.25-.72-.28-1.08-.03-.37-.23-.7-.26-1.07-.03-.37,0-.75-.02-1.12-.02-.37.23-.71.24-1.08.01-.37-.28-.84-.27-1.21.01-.37.36-.68.34-1.05-.02-.37-.16-.73-.17-1.1-.01-.37-.24-.73-.25-1.1s.23-.74.21-1.11c-.01-.37-.22-.7-.26-1.07-.04-.36-.19-.69-.23-1.05-.04-.37-.03-.81-.04-1.18-.01-.37.27-.74.26-1.11,0-.37-.19-.74-.19-1.1-.02-.37-.04-.74-.06-1.1,0-.37.17-.71.18-1.08.01-.37-.15-.78-.14-1.15.01-.37-.02-.72-.03-1.08,0-.37-.08-.73-.09-1.1,0-.37.18-.74.17-1.11,0-.37.13-.74.12-1.1,0-.37-.14-.75-.17-1.12l-.07-1.1c-.03-.37-.26-.72-.26-1.08,0-.37.21-.72.24-1.09.03-.37-.11-.8-.08-1.16.03-.37.1-.69.1-1.06,0-.37.12-.76.1-1.13-.02-.37-.1-.72-.12-1.08-.02-.37-.12-.72-.13-1.09,0-.37-.11-.76-.1-1.13l.03-1.1c.01-.37.27-.71.27-1.08,0-.37.07-.74.07-1.1,0-.37-.17-.74-.17-1.1,0-.37-.08-.73-.08-1.1,0-.37.21-.77.19-1.14-.02-.37-.32-.66-.34-1.02-.02-.37.02-.78.03-1.14,0-.37-.03-.77-.01-1.14l.06-1.1c.02-.37,0-.7,0-1.07,0-.37.27-.75.25-1.12-.02-.36-.04-.73-.06-1.09-.01-.37-.01-.72,0-1.09,0-.37-.05-.74-.03-1.1.02-.37.16-.7.18-1.07.02-.37.03-.76.03-1.13,0-.4-.12-.79-.13-1.17-.03-.39-.05-.78-.07-1.15-.01-.4.12-.79.12-1.17,0-.4-.26-.79-.25-1.17,0-.4.16-.79.17-1.16,0-.4.09-.79.1-1.16,0-.4.07-.78.09-1.15.02-.4-.05-.81-.03-1.18.02-.4-.09-.79-.08-1.17.01-.4.18-.8.17-1.17-.02-.39-.03-.79-.05-1.16,0-.4.1-.77.11-1.15.02-.39-.2-.85-.15-1.24.05-.38.23-.7.28-1.08.05-.38-.04-.78-.02-1.18.02-.3.03-.58.05-.88v.14c0-.07-.03-.16-.04-.25-.09-.37.01-.82-.08-1.21-.08-.37-.37-.7-.45-1.09-.07-.37-.15-.76-.23-1.15-.06-.37-.02-.76-.08-1.15-.06-.37-.06-.76-.14-1.15-.07-.37,0-.73-.05-1.13-.05-.37-.36-.78-.42-1.17-.05-.37.12-.76.04-1.16-.07-.37-.39-.69-.48-1.08-.09-.37-.04-.79-.13-1.18-.09-.37-.04-.77-.12-1.16-.08-.39-.35-.72-.43-1.08-.1-.38-.19-.75-.28-1.1-.09-.39-.01-.79-.08-1.15-.08-.39-.1-.77-.18-1.13-.08-.39-.26-.74-.34-1.1-.08-.39-.28-.74-.36-1.1-.08-.38-.2-.76-.27-1.12-.06-.37-.12-.76-.17-1.12-.07-.37-.21-.73-.29-1.1-.08-.37.02-.75-.06-1.13-.08-.36-.11-.74-.19-1.12-.08-.36-.19-.73-.29-1.11-.1-.35-.19-.72-.3-1.1-.09-.35-.21-.72-.31-1.1-.1-.35-.32-.69-.47-1.05-.04-.1-.12-.33-.2-.52-.04-.09-.09-.18-.15-.23-.05-.05-.13-.04-.12-.06,0,0,.09-.04.17.03.08.05.14.14.2.24.11.2.19.43.23.52,0,.01-.22-.25-.21-.16Z"/>
  </g>
  <g>
    <path class="cls-1" d="M47.64,28.35l4.26,26c.54,14.53,1.11,145.82.71,146.6-.6,1.17-10.95,3.24-13.85-.56-2.03-2.67,2.41-137.6,2.87-146.03l6.02-26Z"/>
    <path class="cls-1" d="M47.74,29.15c.05.34.15.67.21,1,.06.34.13.53.19.86.06.34.07.97.13,1.3.05.35.1.67.16,1.01.05.34.11.68.16,1.02.06.33.12.68.18,1,.06.34.18.47.25.79.06.34.12.68.18,1.01.07.32.14.65.21.97.07.34.05.83.11,1.15.07.33.21.51.28.84.07.33.07.77.13,1.1.06.34.06.78.13,1.1.07.33.21.56.29.89.07.33.2.6.27.94.07.35-.03.82.03,1.16.06.34.19.63.25.97.06.34.08.71.14,1.05.06.34.39.54.45.89.04.35.09.71.13,1.06.06.35.14.67.2,1.02.06.34.12.67.18,1.02.08.33.16.68.24,1.01.07.34-.13.77-.07,1.11.05.29.06.58.1.88v.04s0,0,0,0c0,.04,0,.09,0,.13,0,.34.24.69.24,1.04,0,.34.12.67.13,1.02.01.34-.24.7-.23,1.04.01.34.11.67.13,1.02.01.34-.08.68-.07,1.03,0,.34,0,.66,0,1.01-.01.33-.03.68-.04,1.02,0,.34.34.68.35,1.03,0,.34-.02.65.01.99.03.33,0,.7.04,1.04.03.34.11.68.12,1.03,0,.34-.2.64-.23.99-.03.33-.07.68-.11,1.02-.03.34.23.72.23,1.07,0,.34-.29.75-.26,1.09.03.33.35.57.38.91.03.34.07.72.08,1.06,0,.34-.02.7-.03,1.05-.02.33-.05.68-.07,1.02-.01.34-.17.67-.16,1.01,0,.34.22.7.21,1.04,0,.34-.23.65-.24,1,0,.34.22.69.22,1.03,0,.34-.22.68-.22,1.02,0,.34.19.69.19,1.04,0,.34,0,.67-.01,1.02,0,.34-.07.67-.04,1.01.03.34-.08.72-.05,1.06.03.34.07.64.08.98,0,.34.05.68.06,1.02,0,.34-.13.68-.13,1.02,0,.34.19.68.2,1.02,0,.34.17.67.18,1.01,0,.34-.31.69-.31,1.03,0,.34.08.68.09,1.02.02.34.03.68.05,1.02,0,.34.13.67.14,1.01v1.02c0,.34,0,.69-.02,1.03-.01.34-.18.65-.19.99-.01.34.04.69.04,1.03l.02,1.02c0,.34.19.67.19,1.01,0,.34-.22.69-.22,1.03,0,.34-.1.71-.08,1.05.02.33.05.68.07,1.01.01.34.34.65.34.99,0,.34-.12.69-.14,1.04-.02.34.05.7.03,1.04-.02.34-.19.65-.18.99,0,.34.1.66.13,1,.02.34-.14.73-.11,1.07.02.34.33.64.34.98,0,.34-.11.68-.11,1.02,0,.34.08.67.09,1.01,0,.34-.12.68-.12,1.02,0,.34-.1.68-.09,1.02,0,.34.2.67.2,1.01v1.02c0,.34-.26.62-.29.96-.03.34.09.72.06,1.06-.03.34-.08.69-.08,1.03,0,.34.1.68.14,1.02.03.34.16.64.2.98.03.34-.22.72-.22,1.06,0,.34.15.67.14,1.02,0,.34-.08.67-.08,1.01,0,.34-.11.69-.1,1.03,0,.34.16.68.15,1.02-.02.34-.04.68-.06,1.01-.02.34.16.68.16,1.02,0,.34-.02.63.01.97.03.34-.17.77-.14,1.1.03.34.07.64.07.98,0,.34.28.7.27,1.04,0,.34-.11.67-.12,1.01,0,.34.02.67.02,1.01,0,.34-.02.72-.04,1.06-.02.34-.32.6-.34.94-.02.34.22.72.22,1.06,0,.34-.26.68-.25,1.02,0,.34.26.67.26,1.01,0,.34-.27.68-.27,1.02,0,.34.18.68.18,1.02,0,.34.11.67.12,1.01,0,.34.06.69.06,1.03,0,.34,0,.67,0,1.01l.05,1.02c.01.34-.06.69-.06,1.03v1.02c.01.34.02.68.03,1.02,0,.34-.27.68-.27,1.02,0,.34.32.71.3,1.05-.02.34-.31.62-.32.96-.02.34-.02.71-.02,1.05,0,.34.32.63.34.97.02.34-.14.72-.11,1.06.02.34-.01.68-.01,1.02,0,.34.23.68.23,1.02,0,.34-.31.67-.31,1.01,0,.34.26.68.26,1.02,0,.34-.16.68-.15,1.02,0,.34-.07.68-.06,1.02,0,.34-.05.67-.05,1.01,0,.34.33.73.3,1.07-.03.33-.07.68-.1,1.01-.02.34-.36.63-.36.97,0,.34.22.67.23,1.01,0,.34.12.67.12,1.01,0,.34-.07.69-.07,1.03,0,.34.12.69.11,1.03,0,.34-.33.66-.33,1,0,.34-.05.69-.05,1.03,0,.34.17.68.18,1.02,0,.34.07.68.08,1.02,0,.34.14.68.14,1.02,0,.34-.1.66-.07,1,.03.34-.04.71-.01,1.05.03.34.04.66.04,1,0,.34.2.73.18,1.07-.02.34-.32.6-.34.94-.02.34-.03.71-.03,1.05,0,.34.03.7.05,1.04.02.34.2.64.22.98.02.34-.03.7-.03,1.03l-.02,1.02c-.01.34-.2.65-.21.99-.01.34.22.7.22,1.04,0,.34-.05.68-.04,1.02,0,.34.11.68.11,1.02,0,.34-.3.68-.3,1.02s.11.68.1,1.02c-.02.34-.03.68-.05,1.02,0,.34.06.68.06,1.02,0,.34-.12.7-.11,1.04,0,.34.2.65.21.99.01.34-.12.68-.12,1.02,0,.34.24.7.22,1.04-.02.34-.27.64-.29.98-.02.34.22.7.21,1.04,0,.34-.12.68-.12,1.02,0,.34-.17.68-.17,1.02v1.03c-.02.1,0,.15.02.28.01.14.03.29.03.44,0,.08,0,.16,0,.23,0,.08-.08.2-.14.29-.12.16-.22.26-.33.33-.42.26-.78.33-1.13.45-.35.12-.68.25-1.03.34-.35.09-.78-.09-1.11-.01-.34.08-.68.17-1.02.23-.34.06-.66.21-1,.24-.35.04-.7.22-1.05.23s-.7-.08-1.05-.09c-.35,0-.71.06-1.06.04-.36-.02-.68-.31-1.03-.36-.35-.04-.77.24-1.13.16-.36-.07-.71-.17-1.06-.28-.36-.11-.63-.46-.96-.62-.34-.16-.66-.35-.97-.59-.3-.22-.76-.32-1.04-.65-.05-.04-.16-.23-.22-.43-.08-.22-.05-.28-.06-.4-.01-.22,0-.41-.03-.58-.07-.36-.16-.68-.21-1.03-.04-.35.12-.71.1-1.06-.01-.34-.1-.68-.12-1.03-.01-.34.06-.69.05-1.03-.01-.34-.31-.67-.32-1.01,0-.34.22-.67.24-1.01.02-.34-.01-.69,0-1.03.02-.34-.08-.69-.09-1.03,0-.34.16-.68.16-1.03,0-.34.07-.68.07-1.02v-1.02c0-.34-.12-.69-.13-1.03-.01-.34.09-.69.08-1.03,0-.34-.14-.66-.14-1,0-.34-.16-.7-.14-1.04.02-.33.05-.68.08-1.01.02-.34.21-.66.21-1,0-.34-.2-.65-.23-.99-.03-.34.07-.72.04-1.06-.03-.34-.21-.68-.2-1.02,0-.34.33-.64.35-.98.02-.34-.1-.72-.07-1.05.02-.34.06-.68.07-1.02,0-.34-.05-.68-.06-1.02,0-.34.09-.69.08-1.03,0-.34-.1-.67-.09-1.01,0-.34.05-.68.05-1.02s.13-.69.13-1.03c0-.34-.36-.67-.35-1.01,0-.34.26-.66.28-1,.03-.34.17-.64.19-.98.03-.34-.07-.73-.06-1.06,0-.34-.23-.63-.25-.97-.02-.34.01-.69,0-1.03-.02-.34-.07-.72-.06-1.06,0-.34.1-.69.11-1.02.01-.34-.06-.69-.05-1.03.01-.34.06-.66.07-1,0-.34.14-.68.13-1.02,0-.34-.09-.67-.09-1.01,0-.34.04-.69.05-1.03,0-.34.06-.69.08-1.03.03-.34.19-.64.22-.98.03-.34-.03-.71-.03-1.04,0-.34-.13-.66-.15-1-.01-.34.2-.73.19-1.07-.01-.34-.13-.65-.13-.99,0-.34.08-.66.12-1,.04-.34.13-.65.17-.99.04-.34-.13-.72-.13-1.06,0-.34-.02-.64-.04-.98-.02-.34.03-.71,0-1.04-.02-.34-.18-.7-.17-1.04.02-.34.04-.7.05-1.04.02-.34.05-.68.07-1.01.02-.34.31-.65.31-.99,0-.34-.26-.74-.23-1.08.03-.34.14-.65.17-.99.03-.34.03-.65.03-.99,0-.34,0-.67,0-1.01,0-.34.17-.69.17-1.03,0-.34-.2-.68-.19-1.02,0-.34.18-.67.17-1.01,0-.34-.13-.67-.13-1,0-.34-.04-.7-.03-1.04,0-.34.08-.69.1-1.03.02-.34.27-.65.29-.99.02-.34-.02-.69,0-1.03,0-.34-.05-.68-.03-1.02.02-.34-.11-.7-.09-1.04.02-.34.11-.66.12-.99,0-.34.26-.74.24-1.09-.03-.33-.07-.68-.1-1.01-.02-.34-.04-.62-.03-.96,0-.34-.03-.66,0-1,.03-.34.11-.66.14-1,.03-.34.05-.71.06-1.05,0-.34-.2-.67-.21-1.01,0-.34,0-.68,0-1.02,0-.34-.08-.7-.07-1.03,0-.32.09-.64.1-.99,0-.32,0-.65,0-1,0-.32.02-.66.03-1,0-.32.07-.66.1-1,.03-.32.06-.66.08-.99.02-.33-.04-.66-.03-1,0-.33.04-.68.06-1.01.02-.33.1-.65.12-.98.02-.33.07-.65.08-.99,0-.33-.1-.63-.12-.96-.02-.33.13-.72.11-1.06-.02-.33-.24-.65-.23-.98.01-.33.16-.65.17-.99.01-.33-.05-.67-.04-1,.01-.33.24-.66.25-.99,0-.33-.16-.69-.13-1.02.03-.33.19-.62.23-.95.03-.33.18-.68.19-1.02.01-.33-.05-.66-.03-1l.04-1c0-.33.02-.67.02-1,.01-.33-.11-.67-.13-1-.02-.33.13-.72.12-1.05-.02-.33-.36-.62-.35-.96.01-.33.21-.66.24-.99.03-.33-.1-.7-.08-1.03.02-.33.04-.64.05-.97.01-.33.25-.66.26-.99,0-.33,0-.67,0-1,.01-.33.11-.66.13-1,.01-.33,0-.68,0-1.02,0-.33-.15-.65-.15-.99,0-.33-.09-.67-.08-1.01.01-.33.26-.64.29-.98.02-.33-.03-.68,0-1.01.02-.33.16-.67.17-1,.01-.33-.1-.67-.07-1,.02-.33.15-.64.18-.97.02-.33-.1-.69-.09-1.03.01-.34.06-.68.04-1.02-.02-.33-.25-.6-.27-.93-.02-.34-.04-.73-.03-1.06.01-.34.38-.62.41-.96.03-.33-.3-.74-.27-1.07.03-.33.26-.62.27-.96.01-.34-.2-.65-.2-.98,0-.33.22-.69.22-1.02,0-.34-.1-.67-.09-1,.01-.34-.06-.66-.05-1,0-.34,0-.67.01-1,0-.34.15-.67.16-1,0-.34.02-.67.02-1,.02-.34.04-.67.06-1,.01-.34-.13-.68-.12-1,.01-.34.16-.68.19-1.01.03-.34.23-.62.26-.94.03-.34-.19-.7-.17-1.03.01-.34.11-.68.13-1,.02-.34.25-.64.27-.96.02-.34-.03-.69-.01-1.01.02-.34.13-.71.13-1.03,0-.34-.18-.65-.18-.97,0-.35-.07-.68-.05-1,.01-.28.15-.52.22-.78v-.09c.04-.06.06-.11.08-.17.1-.33.2-.65.29-.97.1-.33.05-.73.13-1.05.08-.34.08-.67.15-1,.07-.35.32-.65.38-.98.06-.35-.09-.78,0-1.1.09-.35.34-.58.43-.89.09-.34.04-.77.13-1.09.09-.34.32-.54.4-.86.08-.34.17-.67.25-.99.07-.35.14-.69.2-1.02.08-.34.02-.82.11-1.14.09-.34.36-.43.46-.73.09-.33.18-.64.26-.96.1-.3.14-.69.22-1.02.09-.32.27-.48.34-.82.07-.32.1-.72.18-1.06.07-.32.08-.82.17-1.15.08-.31.19-.56.28-.88.08-.31.2-.52.28-.85.08-.31.14-.72.22-1.04.08-.31.16-.64.24-.98.08-.28.16-.58.25-.87.08-.29.16-.59.24-.9.08-.3.16-.36.24-.67.07-.3.15-.9.23-1.22.08-.3.15-.3.22-.63.04-.2.13-.68.15-.81-.02.12-.11.51-.14.69-.08.34-.14.66-.22.99-.07.35-.17.5-.24.83-.08.35-.11.91-.18,1.23-.07.34-.2.35-.27.66-.08.34-.09.99-.15,1.3-.07.34-.2.43-.27.75-.08.35-.1.78-.17,1.11-.07.35-.14.67-.2,1-.06.35-.15.65-.21.96-.07.34-.16.67-.22,1.01-.06.35-.04.75-.09,1.08-.05.35-.17.6-.23.91-.07.33-.06.73-.14,1.03-.08.3-.24.47-.32.77-.08.3-.06.75-.13,1.07-.06.31-.05.68-.1,1.01-.06.31-.18.59-.25.92-.06.31-.06.67-.13,1-.06.3-.27.54-.33.88-.06.31.04.7-.02,1.02-.06.31-.12.63-.18.96-.06.3-.31.55-.37.88-.06.31-.02.66-.08.98-.07.3-.15.62-.23.94-.07.3-.34.54-.42.86-.08.31-.05.67-.13.99-.02.07-.04.14-.06.21v-.09c-.02.25-.06.52-.07.78-.01.33-.08.64-.11.99-.03.33.19.71.16,1.06-.02.33-.29.65-.3,1-.01.33.31.68.3,1.02-.01.33-.3.67-.31,1.01-.02.33-.05.68-.07,1.02-.01.33.23.68.21,1.02-.02.33-.03.67-.05,1.01-.01.34-.15.67-.16,1.01-.01.34.13.64.15.98.02.33-.07.71-.06,1.05.02.34,0,.67,0,1.01-.01.34-.03.67-.07,1.01-.04.33-.09.67-.13,1.01-.05.34-.25.67-.26,1.01-.01.34-.02.75,0,1.09.02.33.19.62.21.96s-.09.66-.11,1c-.01.34.12.68.09,1.02-.03.34.04.69.02,1.03-.03.34-.19.66-.2,1-.01.34.04.68.01,1.02-.03.34-.17.65-.2.99-.03.34.07.7.06,1.04-.01.34.16.64.17.98,0,.34-.18.72-.17,1.06,0,.34-.08.67-.09,1.01-.01.34-.02.67-.03,1.01-.02.34-.08.67-.09,1.01-.01.34.31.69.3,1.03-.01.34-.17.67-.15,1.01l.03,1.01c.01.34-.11.68-.12,1.02-.01.34.19.68.18,1.02-.01.34-.09.67-.1,1.01-.01.34-.1.67-.11,1.01-.01.34.13.69.11,1.03-.01.34-.31.66-.32.99-.01.34.28.69.27,1.03,0,.34.03.66.02,1,0,.34-.21.69-.22,1.03,0,.34-.07.67-.08,1.01-.01.34.1.71.06,1.05-.04.34-.03.7-.07,1.03-.04.34-.33.62-.34.96,0,.34-.05.69-.05,1.03,0,.34.27.66.26,1,0,.34-.27.68-.28,1.02,0,.34,0,.67,0,1.01-.03.33-.05.68-.08,1.01-.01.34.11.69.1,1.03,0,.34.16.7.14,1.04-.02.34-.14.66-.16,1-.02.34.04.67.03,1.01,0,.34-.21.68-.22,1.02,0,.34.14.67.13,1.01-.02.34-.03.68-.05,1.02,0,.34.05.65.08.99.02.34-.06.71-.04,1.05.02.34.23.68.22,1.02,0,.34-.34.65-.36.99-.02.34,0,.69-.03,1.02-.02.34-.06.69-.07,1.03,0,.34.18.7.16,1.04-.02.34-.04.68-.06,1.01-.02.34-.3.65-.31.99,0,.34-.06.66-.08,1-.02.34.11.7.09,1.03-.02.34.1.69.1,1.02,0,.34-.08.68-.07,1.01,0,.34-.09.69-.09,1.03,0,.34.08.67.07,1-.01.34-.03.68-.04,1.02,0,.34-.12.68-.13,1.01,0,.34.27.69.26,1.02,0,.34,0,.69-.01,1.02-.01.34-.2.67-.21,1.01-.01.34.05.68.04,1.02,0,.34-.11.68-.12,1.01,0,.34.02.68.02,1.01,0,.34-.15.68-.16,1.01,0,.34-.09.66-.1,1-.02.34.32.73.31,1.06-.02.34-.3.65-.31.99,0,.34.05.68.05,1.02,0,.34.17.66.17,1,0,.34-.15.69-.16,1.03,0,.34.07.68.06,1.02,0,.34.05.68.04,1.02,0,.34-.29.68-.29,1.02,0,.34.33.67.33,1.01,0,.34-.29.69-.3,1.03,0,.34.13.67.12,1.01,0,.34-.09.67-.1,1.01,0,.34.04.68.03,1.02,0,.34-.11.68-.12,1.02,0,.34.12.69.1,1.03-.02.34-.2.65-.22.99-.02.34.03.69.03,1.03,0,.34.08.68.08,1.02,0,.34-.2.68-.21,1.02,0,.34.02.68.03,1.02,0,.34.26.64.28.98.02.34-.29.76-.28,1.1.02.34.05.64.04.98,0,.34.03.66,0,1-.04.34.09.74.06,1.08-.04.34-.26.64-.27.98,0,.34-.04.73-.02,1.07.02.34.2.63.22.97.02.34-.13.68-.13,1.02,0,.34-.01.65-.04.99-.02.34.06.7.03,1.04-.02.34,0,.69,0,1.03,0,.34-.03.69-.02,1.03.01.34-.02.69-.01,1.03.01.34,0,.66,0,1,0,.34.14.68.14,1.02,0,.34-.19.68-.19,1.02,0,.34.07.68.07,1.02,0,.34-.15.64-.17.98l-.05,1.02c-.02.34.01.72.01,1.06,0,.34.23.66.25,1,.02.34.13.65.15.99.02.34-.19.73-.19,1.07,0,.34.06.68.06,1.02,0,.34-.11.67-.11,1.01,0,.34-.12.68-.12,1.02,0,.34,0,.7,0,1.04,0,.34.26.65.27.99v1.02c.01.34-.19.63-.22.97-.03.34.17.77.14,1.1-.03.34-.33.64-.32.98,0,.34.3.66.31,1l.04,1.01c.02.34-.25.69-.24,1.03.01.34.26.66.3.99.04.33.17.63.21.97.05.33.03.71.05,1.04.03.33.02.68.04.99.01.32-.21.57-.18.67.17.25.54.35.78.51.23.17.42.44.7.58.28.14.61.16.91.25.3.1.65.02.95.08.3.06.58.44.91.47.33.04.67-.13.99-.11.32.02.65.2.98.2.33,0,.71-.06,1.04-.11.33-.05.56-.32.88-.38.32-.06.7.1,1.02.05.33-.05.62-.27.94-.33.32-.06.65-.02.97-.1.32-.08.55-.41.83-.52.27-.09.6-.25.71-.31.01,0,.04,0,0,.09,0,.1.01.02.04.03.02,0,.06-.02.09-.05.03-.05.05-.15.06-.23.02-.34-.13-.69-.12-1.02,0-.34.23-.67.24-1.01,0-.34-.09-.68-.09-1.02l.02-1.02c0-.34.16-.69.16-1.03l-.03-1.02c0-.34-.22-.66-.22-1,0-.34.12-.68.12-1.02,0-.34-.22-.67-.22-1.01s.12-.69.13-1.03c0-.34-.15-.68-.14-1.02l.03-1.02c0-.34.19-.68.19-1.02l.02-1.01c0-.34-.14-.69-.14-1.03,0-.34-.08-.67-.08-1.01,0-.34.07-.69.08-1.03l-.02-1.02c0-.34.16-.67.16-1.01s.11-.68.11-1.02v-1.02s-.01-1.02-.01-1.02c0-.34-.22-.68-.22-1.02l-.02-1.02c0-.34.23-.68.23-1.02,0-.34-.18-.67-.18-1.01,0-.34.09-.69.08-1.03,0-.34-.15-.68-.15-1.02,0-.34-.1-.67-.11-1.01,0-.34.11-.69.1-1.03,0-.34.22-.68.22-1.02,0-.34-.28-.67-.3-1.01-.01-.34.06-.69.05-1.03-.01-.34.13-.68.12-1.02,0-.34-.29-.71-.27-1.05.02-.34.04-.68.06-1.02.01-.34.12-.65.12-.99,0-.34.13-.68.13-1.02l.02-1.02c0-.34-.19-.68-.19-1.02,0-.34.03-.67.02-1.01-.02-.34.17-.72.16-1.06-.02-.34-.13-.66-.13-1,0-.34,0-.68.01-1.02l-.02-1.02c0-.34-.08-.68-.08-1.02,0-.34.06-.68.06-1.02,0-.34-.13-.68-.12-1.02,0-.34.06-.67.06-1.01,0-.34.04-.69.05-1.03,0-.34.16-.67.17-1.01,0-.34.1-.69.1-1.03,0-.34-.21-.68-.21-1.02,0-.34-.1-.68-.1-1.02,0-.34.25-.68.25-1.02,0-.34-.06-.67-.05-1.01.01-.34-.04-.69-.02-1.03.01-.34.11-.68.1-1.02,0-.34-.12-.68-.15-1.02-.03-.34.12-.74.09-1.08-.03-.34-.32-.62-.32-.96,0-.34.19-.66.22-1,.03-.34-.06-.72-.04-1.06.03-.34.13-.66.13-1,0-.34-.13-.68-.13-1.02l-.03-1.02c0-.34-.08-.68-.08-1.02,0-.34.34-.67.35-1.01,0-.34-.08-.69-.07-1.03,0-.34-.04-.68-.04-1.02,0-.34.11-.7.1-1.04-.01-.34-.09-.67-.1-1.01-.01-.34-.02-.67-.03-1.01,0-.34-.22-.65-.24-.99l-.05-1.02c-.02-.34.29-.71.29-1.05,0-.34-.21-.68-.22-1.02,0-.34-.18-.66-.19-1,0-.34.04-.7.04-1.04,0-.34.26-.64.29-.98.03-.34-.24-.79-.21-1.13.03-.34.39-.61.39-.95,0-.34-.12-.68-.13-1.02,0-.34-.21-.68-.21-1.02,0-.34.26-.68.25-1.02,0-.34-.19-.65-.22-1-.03-.34-.17-.64-.2-.98-.03-.34-.01-.75-.01-1.09,0-.34.29-.68.29-1.02,0-.34-.17-.68-.17-1.02-.01-.34-.03-.68-.04-1.02,0-.34.18-.65.2-.99.02-.34-.14-.73-.12-1.06.02-.34-.01-.66-.01-1,0-.34-.07-.67-.07-1.01,0-.34.19-.69.18-1.03,0-.34.14-.68.13-1.02,0-.34-.14-.7-.16-1.04l-.06-1.02c-.02-.34-.25-.66-.26-1,0-.34.21-.67.24-1.01.03-.34-.1-.74-.08-1.07.03-.34.11-.64.1-.98,0-.34.12-.71.1-1.05-.02-.34-.1-.66-.12-1-.02-.34-.13-.67-.13-1.01,0-.34-.11-.7-.1-1.04l.03-1.02c0-.34.27-.66.26-1,0-.34.07-.68.07-1.02,0-.34-.17-.68-.18-1.02,0-.34-.09-.68-.09-1.02,0-.34.2-.71.18-1.06-.02-.34-.33-.61-.35-.94-.02-.34.02-.72.02-1.06,0-.34-.04-.71-.02-1.05l.05-1.02c.02-.34-.01-.65-.02-.99,0-.34.26-.7.24-1.04-.03-.33-.05-.68-.08-1.01-.02-.34-.02-.67-.02-1.01,0-.34-.06-.68-.04-1.02.01-.34.15-.65.16-.99.01-.34.02-.71.01-1.04,0-.37-.14-.73-.15-1.08-.02-.37-.08-.72-.1-1.06-.02-.37.1-.74.1-1.08,0-.37-.28-.73-.28-1.07,0-.37.15-.73.14-1.08,0-.37.07-.73.06-1.08,0-.37.05-.72.06-1.07,0-.37-.07-.74-.06-1.09.01-.37-.12-.73-.12-1.08,0-.37.15-.74.13-1.09-.03-.36-.06-.72-.09-1.07-.02-.37.07-.72.06-1.07,0-.36-.24-.78-.21-1.13.03-.36.2-.66.23-1.01.03-.36-.09-.72-.09-1.08,0-.35,0-.68-.02-1.05-.02-.35.15-.75.12-1.11-.02-.35-.26-.69-.26-1.06v-.07s0,.08,0,.08c-.05-.31-.12-.64-.17-.98-.04-.33.02-.69-.03-1.05-.05-.34-.03-.7-.08-1.06-.05-.34.03-.69,0-1.05-.03-.35-.31-.68-.34-1.04-.03-.34.14-.76.09-1.12-.05-.34-.32-.57-.39-.92-.06-.33,0-.77-.07-1.12-.06-.34-.01-.75-.07-1.11-.05-.36-.27-.59-.32-.91-.06-.34-.13-.67-.19-.99-.06-.35,0-.8-.04-1.14-.05-.36-.06-.75-.11-1.09-.05-.36-.17-.63-.22-.96-.05-.36-.17-.61-.21-.95-.05-.35-.1-.7-.16-1.03-.04-.37-.07-.74-.11-1.1-.05-.34-.11-.67-.16-1.01-.04-.35-.03-.85-.08-1.21-.04-.36-.09-.74-.14-1.11-.05-.34-.11-.7-.17-1.06-.05-.34-.11-.69-.16-1.06-.05-.34-.11-.7-.17-1.07-.05-.31-.12-.65-.18-.98-.03-.21-.12-.89-.13-1.02.02.12.12.74.15.93,0,.02-.05-.2-.04-.09Z"/>
  </g>
  <g>
    <path class="cls-3" d="M52.84,201.89c-4-2.3-9.35-1.7-13.72-.21,3.31,7.84,1.89,19.36-4.19,25.32-6.07,5.96-24.12,1.51-24.18,2.52-.09,1.66,14.98,1.05,26.3,6.93,1,.52,4.23,2.42,5.23,5.15s3.66,2.78,4.78,2.77c.34,0,4.69.87,3.54-1.53-2.29-4.78,9.46-11.38,15.68-11,4.56.28,14.47-1.01,13.6-1.38-.35-.15-15.45,1.46-22.09-3.07-2.24-1.52-4.54-2.42-4.72-4.54s-.24-20.96-.24-20.96Z"/>
    <path class="cls-3" d="M52.57,201.64c-.2-.1-.54-.08-.71-.13-.18-.07-.39-.01-.56-.08-.17-.07-.27-.38-.45-.44-.18-.05-.34-.14-.52-.19-.19-.05-.37-.09-.55-.14-.18-.06-.39-.05-.57-.08-.19-.02-.39.13-.57.12-.19,0-.37-.05-.55-.06-.19-.01-.37.02-.56.01-.19,0-.38-.17-.56-.16-.19.01-.36.17-.54.19-.19.01-.38-.09-.56-.07-.19.02-.39-.07-.57-.05-.19.03-.35.17-.53.2-.18.03-.35.14-.53.17-.18.03-.4-.14-.58-.11-.18.03-.35.14-.53.18-.18.04-.37.02-.55.06-.18.04-.29.38-.47.41-.18.03-.37.03-.55.07-.18.04-.34.11-.52.16-.17.05-.35.1-.52.16-.17.06-.33.15-.5.22-.17.07-.44-.13-.62-.07-.05.02-.11.03-.16.04l.24-.54c.03.13.05.25.1.38.06.18.34.29.4.47.06.18.23.32.3.5.07.18-.13.45-.07.63.06.18.2.33.26.52.06.18.01.39.07.58.05.18.06.37.1.56.03.18.02.38.06.57.03.18.4.31.45.51.04.19.02.37.08.55.06.18.05.39.11.58.05.18.15.37.18.57.03.19-.17.38-.19.58-.02.18-.05.39-.08.57-.02.19.25.39.26.59.02.19-.29.43-.26.62.03.18.35.31.38.51.03.19.07.4.07.6,0,.19-.04.39-.06.59-.02.19-.09.37-.11.57-.02.19-.19.36-.2.55,0,.19.18.41.14.6-.03.19-.28.34-.32.53-.03.19.17.41.14.6-.02.19-.26.34-.31.53-.04.18.12.41.08.6-.04.18-.08.37-.13.56-.04.19-.14.35-.16.54-.02.19-.19.37-.21.56-.02.19-.02.37-.07.55-.05.18-.04.38-.1.56-.06.18-.25.32-.31.5-.06.18.06.42,0,.61-.06.18.05.42-.03.6-.07.18-.44.24-.52.42-.07.18-.07.38-.15.56-.07.17-.11.37-.19.54-.08.17-.06.39-.14.57l-.27.52c-.09.17-.18.35-.3.51-.11.16-.36.22-.47.38-.11.15-.17.35-.28.52-.1.16-.18.34-.3.49-.11.16-.08.41-.19.57-.11.16-.41.18-.53.33-.12.15-.31.26-.44.4-.11.15-.23.32-.34.47-.12.15,0,.5-.14.65-.13.15-.36.21-.53.33-.16.13-.29.31-.46.42-.18.1-.42.08-.59.19-.16.11-.27.3-.43.42-.16.13-.44.08-.6.2-.16.1-.19.47-.38.55-.18.08-.41.05-.59.13-.18.08-.34.21-.52.29-.19.07-.42,0-.6.07-.19.05-.4.02-.59.06-.19.05-.33.28-.52.33l-.57.12c-.19.04-.4-.2-.59-.19-.19,0-.39.15-.58.15-.19,0-.4-.03-.59,0-.19.02-.36.15-.55.2-.18.05-.34.2-.53.24-.19.05-.42-.19-.61-.17-.19.01-.37.17-.56.17-.19,0-.38-.06-.57-.06-.19,0-.39-.1-.58-.09-.19,0-.37.17-.56.15-.18-.02-.38-.04-.56-.06-.19-.02-.38.15-.57.15-.19,0-.35-.03-.54,0-.19.02-.42-.18-.61-.16-.19.02-.36.06-.55.05-.19,0-.4.26-.59.24-.19-.02-.36-.14-.55-.16-.19-.02-.37,0-.56-.02-.19-.01-.39-.05-.58-.08-.18-.04-.31-.34-.49-.38-.18-.04-.41.19-.6.17-.19-.02-.35-.29-.54-.31-.19-.02-.39.22-.58.2-.19-.02-.35-.31-.53-.32-.19-.02-.39.14-.57.12-.19-.01-.38.07-.56.06-.19-.01-.38.02-.56,0-.18-.02-.36-.05-.55-.06-.18,0-.37,0-.55,0-.18,0-.37-.1-.55-.12l-.54-.04c-.18-.02-.36.01-.52,0-.15,0-.34-.27-.4-.25,0-.04-.13-.36-.18-.37-.04-.02,0,0-.02-.02h0s.2,0,.2,0c.01,0,.02,0,.03-.01.02,0-.02,0,.03-.02.05-.02.1-.05.14-.09.04-.04.07-.08.1-.12,0-.02.11-.15.09-.12,0,.02,0,.35.14.42.15.07.32.13.5.17.17.05.39-.24.57-.22.17.02.35.21.53.22.18.01.36.08.54.11.18.03.4-.17.58-.14.18.03.31.36.5.39.18.03.4-.2.59-.18.18.03.35.21.53.23.18.02.36.12.55.14.19.02.36.1.54.13.18.03.44-.27.63-.22.17.06.37.13.53.18.18.05.29.41.48.43.18.03.4-.16.58-.14.19.02.38-.06.57-.04.19.02.37.13.55.16.19.03.4-.06.58-.02.18.04.3.38.49.42.18.04.36.12.55.15.18.03.4-.11.58-.08.18.03.38,0,.56.03.18.03.4-.07.58-.03.19.03.34.17.53.18.19,0,.38.12.56.13.19,0,.37.04.55.08.18.04.44-.11.62-.05.18.06.25.39.43.45.18.07.37.12.56.17.18.04.38.06.57.09.19.03.39-.1.58-.08.19.03.37.12.55.18.18.05.36.11.54.17.18.06.29.29.47.36.18.06.44-.1.62-.05.18.06.35.15.53.21.18.06.39.01.57.07.18.06.27.4.45.46.18.06.39.02.57.09.18.07.34.17.52.23.18.07.38.07.55.14.18.07.32.25.5.3.18.06.41-.04.59.02.18.06.31.25.48.33.18.07.45-.06.62.03.17.09.22.39.38.48.17.09.45-.04.62.05.17.08.29.27.46.35.17.08.27.31.44.41l.51.28c.16.1.47-.02.63.1.16.11.28.28.44.39.16.11.33.2.49.32.16.12.15.46.31.57.15.11.32.23.47.34.15.12.35.18.5.31.14.14.39.18.52.34.13.16.17.38.3.53.12.16.3.28.42.45.12.17,0,.49.1.65.09.17.49.2.59.39l.24.59c.06.14-.09.38-.02.53.08.13.14.29.24.41.1.13.38.1.48.2.09.11.11.31.23.4.13.08.29.1.43.16.13.06.19.29.35.35.15.06.33.04.48.08.15.04.3.16.46.18.17.02.36-.24.52-.23.16.02.31.26.48.28.09.01.18.01.27.01.05,0,.32.01.36.03.19.05.38-.03.56-.01.18.02.34.2.52.21.18.01.35.09.52.09.17,0,.34,0,.5-.03.17-.01.3-.16.43-.2.11-.05.26-.01.32-.07.05-.07-.07-.14-.07-.16-.01-.07-.15-.1-.2-.22-.02-.06-.02-.11-.03-.19-.03-.12-.06-.23-.09-.34-.08-.22.07-.49.03-.7-.05-.21-.24-.4-.29-.64-.02-.23.1-.48.11-.7.03-.22-.11-.49-.03-.7.09-.21.44-.28.55-.45.11-.17.1-.45.23-.6.13-.16.26-.33.38-.48.12-.16.19-.36.31-.52.12-.16.32-.26.45-.41.13-.15.19-.35.33-.5.14-.14.32-.24.46-.38.14-.14.37-.17.52-.3.14-.13.06-.53.21-.65.16-.12.45-.05.62-.14.17-.1.39-.09.56-.18.17-.09.29-.29.45-.4.16-.11.16-.4.32-.52.15-.12.33-.21.49-.33.16-.12.31-.28.48-.37.17-.1.38-.11.56-.2.17-.08.31-.25.48-.33.18-.08.36-.12.53-.21.17-.08.4-.05.57-.14.17-.09.3-.25.48-.33.17-.08.37-.13.55-.2.18-.07.38-.1.57-.15.19-.05.4.04.59,0,.19-.04.36-.18.54-.23.18-.06.31-.25.49-.33.18-.07.45.07.63,0,.18-.07.32-.24.51-.28.19-.04.38-.03.58-.03.2,0,.39.05.58.04.2,0,.38-.21.58-.24.19-.03.36-.07.56-.12.19-.05.41-.02.61-.06.2-.04.41-.21.62-.2.21,0,.43.03.59.05.17.02.36.05.53.07.18.02.35.3.53.3.18,0,.39-.28.58-.26.18.02.35.12.54.14.18.02.35,0,.53,0,.18,0,.36-.04.54-.05.18-.02.38.14.57.12.18-.02.35-.24.54-.25.18-.01.38.13.56.11.18-.02.35-.17.53-.2.18-.02.37-.09.56-.1.18-.02.38.03.56.02s.38.22.56.21c.19-.01.37-.07.55-.09.18-.02.36-.11.55-.12.19,0,.36-.17.55-.18.18-.01.37.05.55.02.18-.02.44.19.61.13.18-.05.35-.14.52-.2.18-.06.32-.11.51-.13.18-.03.34-.1.53-.11.18,0,.37.03.55.02.18-.01.38-.04.55-.08.17-.04.29-.3.35-.34,0,0,0,0,0,0,.03.08.1.18.12.24.07.14.15.26.21.31.05.07.09.01.02.07-.01.02-.06.08-.07.12v.04s.08-.21.08-.21h0s0,.02,0,.02v.03s-.04.05-.04.05l-.05.11c-.06.15-.12.3-.18.45,0,.08.03.05.04.07,0,0,.02,0,.03,0h-.07c-.18.03-.36.12-.54.12-.17,0-.36-.06-.55-.05-.17.02-.36.03-.55.05-.18,0-.36.02-.55.02-.18,0-.37-.04-.55-.05-.18-.01-.37-.03-.55-.04-.18,0-.36.07-.55.07-.18,0-.38-.01-.56-.03-.18-.01-.36-.07-.55-.08-.18,0-.36-.05-.55-.05-.18,0-.34.12-.53.15-.18.03-.4-.11-.58-.08-.18.03-.36.25-.55.25-.18,0-.36-.15-.55-.16-.18,0-.37.06-.56.05-.18,0-.36-.24-.54-.25-.18-.01-.39.16-.57.13-.18-.03-.33-.19-.52-.23-.18-.03-.37-.18-.55-.2-.18-.02-.37.04-.55.02l-.55-.06-.55-.04c-.18-.02-.38.09-.57.09-.19,0-.38-.16-.57-.16-.19,0-.39.33-.58.31-.19-.02-.34-.25-.52-.3-.18-.05-.4.05-.58,0-.18-.05-.35-.09-.53-.12-.18-.03-.32-.29-.5-.34-.18-.03-.37-.07-.55-.1-.18-.04-.34-.18-.52-.22-.18-.05-.38-.05-.56-.11-.18-.05-.4.06-.58,0-.18-.05-.4-.01-.58-.07-.18-.06-.27-.34-.45-.41-.17-.08-.37-.11-.54-.19-.17-.09-.3-.28-.47-.35-.17-.08-.4-.04-.56-.13-.16-.11-.26-.3-.42-.41-.16-.11-.4-.09-.57-.19-.16-.1-.33-.23-.49-.31-.16-.08-.41.05-.57-.02-.17-.07-.36-.16-.51-.25-.15-.1-.1-.49-.25-.6-.15-.11-.51.06-.66-.05-.15-.11-.17-.39-.33-.49-.16-.11-.43-.02-.6-.13-.17-.11-.21-.4-.37-.52-.16-.11-.39-.17-.54-.31-.15-.16-.36-.24-.5-.42-.15-.17-.28-.36-.4-.56-.11-.21-.1-.48-.16-.7-.08-.22-.13-.45-.16-.68-.03-.23,0-.4-.02-.6-.01-.2-.17-.37-.18-.55,0-.19.12-.39.14-.57.02-.19.2-.35.21-.53.02-.19-.22-.38-.22-.56,0-.19.08-.38.08-.55,0-.19.22-.36.23-.54,0-.19-.06-.38-.06-.55,0-.19.1-.39.08-.57-.02-.19-.21-.35-.23-.52-.02-.19-.1-.37-.1-.54,0-.19.18-.35.2-.53.02-.19.04-.36.06-.54.03-.19-.12-.38-.12-.56,0-.19-.07-.35-.09-.53-.02-.19.16-.39.14-.57-.02-.19-.27-.36-.27-.54,0-.19.2-.37.21-.54,0-.19-.15-.38-.14-.56,0-.19.19-.36.2-.53,0-.19,0-.37,0-.55,0-.19-.05-.37-.05-.54,0-.19-.21-.38-.2-.55,0-.19.28-.35.31-.53.03-.18,0-.37.03-.55.03-.18-.04-.37-.04-.55,0-.18.19-.36.19-.54,0-.18-.1-.36-.11-.54,0-.18-.18-.37-.17-.55,0-.17.08-.35.08-.54,0-.18.11-.35.12-.54,0-.18-.07-.36-.07-.55,0-.17-.02-.36,0-.55.02-.17.07-.35.08-.54.02-.18.05-.35.06-.54,0-.18.23-.34.25-.52.02-.18-.21-.39-.2-.57.02-.18.3-.34.3-.53,0-.11-.21-.41-.16-.39.04-.02.07.29.07.37.01.19.02.36.04.54.02.19-.21.4-.19.57.02.19.3.34.31.52,0,.19-.34.39-.33.56,0,.19.35.36.35.54,0,.19-.24.38-.23.55.01.19.15.36.17.53.02.19.01.37.03.55.02.19,0,.37,0,.54.01.19-.02.39.01.56.03.19.18.34.21.51.03.18-.06.37-.05.55,0,.18.13.36.11.54-.02.18-.18.35-.19.53-.02.18.12.37.13.56,0,.18.12.34.13.53.01.17-.06.36-.05.55.01.17.09.35.1.54,0,.17-.15.36-.14.55.01.17.2.34.22.53.01.17.04.36.04.55,0,.17-.18.36-.17.55.01.18.13.35.14.54,0,.18,0,.36,0,.55,0,.18-.21.35-.21.54,0,.18.11.37.1.55,0,.18-.05.37-.04.55,0,.18-.05.35-.06.54,0,.18.22.38.21.57,0,.18-.26.37-.26.55,0,.18.34.36.35.55,0,.18-.27.37-.26.56,0,.18-.03.37-.02.56,0,.18.26.36.26.55,0,.18,0,.37,0,.55,0,.18-.11.37-.11.56,0,.18.16.34.21.51.04.17-.03.39.02.51.05.15.08.27.13.4.06.13.1.26.15.4.04.14.12.28.18.43.08.14.05.4.19.52.12.12.3.25.46.34.16.08.38.02.54.1.16.07.24.26.4.35.15.1.38.08.53.19.14.11.35.14.5.25.15.11.22.33.38.43.16.1.35.15.5.27.15.11.22.33.37.44.15.1.37.1.52.19.15.09.37.01.53.08.16.07.25.33.42.38.17.05.3.19.46.27.16.07.32.14.49.21.16.08.31.2.48.25.17.06.46-.2.63-.15.17.05.29.25.47.28.18.03.35.08.53.09.18.02.33.17.51.21.18.04.4-.13.58-.08.17.04.33.16.51.19.18.03.34.14.52.17.18.03.39-.08.56-.05.18.03.3.34.48.38.18.03.41-.25.59-.23.18.02.36,0,.54.02.18.02.35.24.53.25.18.02.36.09.54.1.18.02.39-.09.57-.04.18.05.37.04.55.09.18.05.31.34.5.35.18,0,.37.05.56.05.19,0,.37-.27.55-.26.18,0,.36.28.55.28.18,0,.37-.02.55,0,.18,0,.37.06.55.06.18,0,.38-.12.56-.12.19,0,.38-.18.56-.17.18,0,.36.13.55.13.18,0,.37-.06.55-.06.18,0,.37.19.56.18.19,0,.36-.16.54-.17.18,0,.37,0,.56,0,.19,0,.35-.08.53-.12.18-.04.39.03.57-.01.18-.04.36-.26.54-.27.19,0,.37.31.56.31.19,0,.38-.03.56-.03.19,0,.39.02.58.02.07,0,.16,0,.27-.02.05,0,.1,0,.16,0,.08.01.06-.03.22.04l.09.05s.13.1.17.16c.03.03.05.07.07.1.03.05.06.13.07.2.04.15,0,.34-.02.4-.03.09-.07.17-.13.25-.05.06-.05.07-.08.1-.06.06-.11.1-.13.12-.13.1-.19.12-.26.15-.26.08-.45.11-.65.15-.2.03-.43-.2-.62-.17-.19.04-.37.02-.56.04-.19.02-.36.19-.55.21-.19.02-.36.18-.54.2-.19.03-.38,0-.56.03-.19.04-.39-.02-.57.01-.18.04-.35.14-.54.16-.19.02-.38.03-.56.05-.19.02-.38-.06-.57-.04-.19.02-.34.32-.53.34-.19.02-.38.04-.56.07-.19.01-.39-.15-.57-.13-.19.01-.37.1-.55.11-.19.02-.38-.07-.57-.05-.19.02-.37.07-.56.09-.19.01-.38-.11-.57-.1-.19.01-.37-.05-.55-.05-.19,0-.38.36-.57.36-.19,0-.38-.27-.56-.27-.19,0-.38.07-.57.08-.19.01-.37.19-.56.2-.19,0-.39-.14-.58-.14-.19,0-.38.07-.58.07-.2-.01-.37.05-.54.05-.17,0-.34-.27-.52-.27-.18,0-.32.36-.49.38-.17.02-.38-.25-.56-.21-.18.03-.33.19-.5.22-.17.03-.36,0-.54.02-.18.03-.34.13-.51.17-.17.04-.37-.01-.55.04-.17.05-.32.22-.49.27-.17.04-.39-.07-.56-.03-.18.04-.33.17-.51.22-.17.06-.31.21-.48.27-.17.07-.41-.05-.58.02-.17.07-.32.18-.49.25-.17.07-.2.39-.35.48-.15.1-.49-.09-.64.02-.15.1-.28.2-.44.28-.16.08-.29.2-.46.26-.17.06-.3.28-.47.34-.17.06-.42-.05-.58.04-.16.09-.35.18-.49.3-.14.12-.17.35-.3.48-.13.12-.37.1-.52.21-.15.11-.28.2-.44.29-.16.09-.25.28-.41.38-.16.09-.28.23-.41.35-.13.12-.29.22-.4.35-.11.13-.28.23-.39.37-.11.14-.23.25-.35.38-.12.13-.11.36-.22.49-.11.13-.35.16-.45.3-.11.14-.12.33-.21.47-.1.14-.27.2-.37.35-.1.14-.15.3-.23.44-.08.15-.07.34-.11.49-.02.16.19.32.21.46.04.14.13.26.18.37.05.11-.13.31-.07.45.03.07.06.11.11.2.06.11.12.23.16.35.05.11.05.26.04.42-.02.16,0,.29-.05.47-.05.36-.36.65-.59.82-.24.2-.49.29-.72.37-.22.07-.39.35-.61.38-.22.03-.44.04-.65.04-.21,0-.38-.2-.57-.25-.19-.04-.46.13-.65.07-.19-.05-.32-.37-.5-.39-.12-.02-.31.28-.51.28-.2,0-.4,0-.61-.01-.21,0-.38-.31-.58-.34-.2-.03-.44.15-.66.12-.21-.04-.44.02-.65-.04-.22-.06-.43-.21-.63-.32-.2-.12-.38-.28-.54-.45-.16-.17-.11-.47-.23-.64-.13-.16-.43-.25-.56-.43-.13-.18-.1-.44-.2-.62-.08-.19-.25-.35-.33-.54-.06-.15-.27-.24-.34-.39-.08-.14.14-.45.05-.6-.1-.15-.35-.19-.44-.32-.1-.13-.06-.39-.17-.52-.12-.13-.28-.26-.42-.37-.14-.11-.41-.03-.55-.13-.14-.1-.14-.38-.27-.49-.14-.11-.37-.11-.51-.22-.13-.11-.2-.31-.34-.42-.14-.11-.43-.01-.58-.11-.14-.1-.31-.21-.44-.31-.14-.11-.12-.43-.26-.53-.15-.1-.39-.05-.54-.14-.15-.08-.21-.36-.37-.45-.16-.08-.38-.07-.54-.16-.16-.09-.32-.17-.49-.24-.17-.08-.28-.3-.45-.37l-.52-.19c-.17-.06-.42.07-.59,0-.17-.07-.29-.25-.47-.32-.17-.06-.42.08-.59.02-.17-.06-.3-.25-.47-.31-.17-.06-.4.02-.57-.04-.17-.07-.34-.14-.51-.21-.17-.06-.29-.29-.46-.35l-.52-.18c-.17-.06-.4.03-.57-.03-.17-.06-.37-.03-.55-.08-.17-.05-.34-.17-.51-.22l-.54-.13c-.17-.06-.31-.25-.49-.29-.18-.05-.33-.2-.51-.24l-.54-.13-.54-.12c-.18-.04-.41.13-.59.09l-.54-.1c-.18-.04-.31-.3-.49-.34-.18-.04-.39.1-.58.07-.18-.03-.35-.16-.53-.19-.18-.03-.39.07-.57.04-.18-.03-.37.03-.56,0-.18-.03-.35-.17-.53-.2-.18-.03-.33-.28-.51-.31-.18-.03-.4.22-.59.2-.18-.02-.36-.12-.54-.14-.18-.02-.35-.18-.53-.21-.18-.03-.43.22-.61.18-.18-.05-.36-.1-.54-.14-.18-.04-.33-.17-.52-.2-.18-.03-.35-.18-.53-.21l-.55-.1c-.18-.03-.4.13-.58.11-.19-.03-.36-.09-.54-.1-.19-.01-.37-.23-.55-.24-.19-.01-.38.07-.56.05-.19-.03-.37-.06-.55-.1-.18-.04-.38-.04-.56-.08-.19-.04-.39.01-.58-.02-.19-.03-.37-.13-.56-.17-.19-.04-.41.04-.61-.02-.19-.05-.39-.18-.6-.25-.12-.05-.23-.11-.34-.17-.14-.1-.25-.16-.4-.31-.09-.09-.16-.19-.21-.3-.06-.13-.09-.33-.08-.48,0-.06,0-.03.02-.16.02-.11.07-.21.13-.3.09-.12.23-.21.3-.24.15-.06.24-.07.32-.08.3-.05.49.06.69.06.2,0,.4-.19.6-.18.19.01.39-.07.58-.05.19.01.35.29.54.31.19.02.37-.02.56.01.18.03.38,0,.56.04.18.03.36.15.54.17.19.02.38-.08.57-.09.19,0,.39.16.58.15.19-.01.37-.29.55-.27.19.02.34.23.52.27.18.05.4-.03.58.02.18.04.35.16.53.18.19.01.38-.1.56-.08.18,0,.37,0,.55.01.18.01.37-.05.56-.04.18.01.34.36.53.38.18.02.38-.06.56-.04.18.01.37-.02.56-.02.18,0,.38.12.56.12.19,0,.37-.08.55-.09.18-.01.36-.02.55-.03.19,0,.35-.22.53-.24l.55-.06c.18-.02.39.28.57.27.18,0,.36-.23.54-.25.18-.02.34-.2.52-.22.18-.02.37.02.55,0,.18-.02.36.23.55.25.18,0,.39-.28.57-.27.18,0,.38.35.56.32.18-.03.34-.18.52-.21.18-.03.32-.27.49-.31.18-.03.4.18.58.14.18-.04.29-.27.46-.34.16-.07.28-.25.44-.33.16-.08.36-.12.53-.18.16-.06.43.16.59.09.17-.06.26-.29.42-.36.16-.07.3-.18.45-.26.15-.08.38,0,.54-.07.16-.07.24-.31.39-.39.15-.08.27-.2.39-.31.13-.11.21-.26.33-.38.12-.11.38-.12.5-.25.12-.13.34-.17.47-.3.12-.13.15-.36.26-.51l.28-.46c.09-.16.01-.43.12-.57.11-.14.39-.15.52-.28.12-.13.12-.39.24-.52.12-.14.27-.23.37-.38.09-.15.31-.25.38-.42.06-.17.08-.36.14-.53.06-.17.05-.37.14-.53.08-.16.07-.38.16-.53l.24-.48c.08-.16.38-.22.45-.38.07-.17.21-.31.28-.48.06-.17-.04-.41.01-.58.06-.17.04-.37.09-.54.06-.17.32-.3.36-.48.03-.18-.23-.4-.21-.58.03-.18.12-.36.16-.54.05-.18.06-.37.12-.54.06-.17.1-.35.16-.52.05-.17.06-.34.09-.52.03-.18.33-.32.35-.5.02-.18,0-.37,0-.55,0-.18.03-.36.05-.54.02-.18,0-.37.03-.55.04-.18.19-.33.22-.51.03-.18.04-.38.05-.56.01-.2-.11-.4-.11-.59,0-.2-.06-.39-.08-.57-.02-.2.11-.39.1-.58,0-.2-.27-.39-.27-.57,0-.2.14-.39.13-.58-.02-.2.05-.39.03-.58-.01-.2.03-.39.03-.58,0-.2-.11-.39-.12-.57-.01-.2-.16-.37-.18-.56-.03-.2.11-.41.07-.6-.04-.19-.13-.37-.18-.55-.06-.19,0-.39-.04-.57-.04-.19-.3-.36-.31-.55-.02-.19.11-.38.09-.58-.02-.19-.18-.35-.23-.54-.05-.18-.08-.36-.16-.53-.08-.17.02-.43-.07-.61-.08-.17-.35-.27-.42-.45-.04-.1-.08-.2-.12-.31l-.27-.67.68-.24c.08-.03.16-.06.24-.08.19-.05.41,0,.61-.05.19-.05.4-.03.6-.08.19-.05.39.04.6.01.19-.02.37-.3.57-.33.19-.02.42.18.62.14.19-.04.33-.32.53-.36.19-.04.42.05.62,0,.19-.04.4.06.61.03.2-.02.37-.25.56-.27.2-.03.4-.07.58-.1.2-.03.41.13.6.12.21,0,.4.04.59.05.2,0,.4-.1.59-.09.2,0,.41-.1.6-.08.2.02.41,0,.6.03.2.04.38.12.58.15.19.03.4.03.59.07.19.05.34.26.52.32.18.06.35.16.54.23.18.05.37.11.56.18.17.07.36.11.54.2.17.08.34.16.53.25.16.08.39.09.58.21.11.07.37.32.32.33-.04.02-.32-.19-.41-.24-.01,0,.21,0,.19-.03Z"/>
  </g>
</svg>